<?xml version="1.0" encoding="UTF-8" standalone="no"?><svg xmlns="http://www.w3.org/2000/svg" xmlns:xlink="http://www.w3.org/1999/xlink" contentStyleType="text/css" height="436px" preserveAspectRatio="none" style="width:898px;height:436px;background:#FFFFFF;" version="1.1" viewBox="0 0 898 436" width="898px" zoomAndPan="magnify"><defs/><g><!--MD5=[e760554fa65e71f4f67724aaf802445a]
cluster miml.tutorial--><g id="cluster_miml.tutorial"><path d="M8.5,6 L95.5,6 A3.75,3.75 0 0 1 98,8.5 L105,29.6094 L888.5,29.6094 A2.5,2.5 0 0 1 891,32.1094 L891,407.5 A2.5,2.5 0 0 1 888.5,410 L8.5,410 A2.5,2.5 0 0 1 6,407.5 L6,8.5 A2.5,2.5 0 0 1 8.5,6 " fill="none" style="stroke:#000000;stroke-width:1.5;"/><line style="stroke:#000000;stroke-width:1.5;" x1="6" x2="105" y1="29.6094" y2="29.6094"/><text fill="#000000" font-family="sans-serif" font-size="14" font-weight="bold" lengthAdjust="spacing" textLength="86" x="10" y="22.5332">miml.tutorial</text></g><!--MD5=[bbdda32f17e6f46271069dc4e3e9dce7]
class miml.tutorial.CrossValidationExperiment--><a href="CrossValidationExperiment.html" target="_top" title="CrossValidationExperiment.html" xlink:actuate="onRequest" xlink:href="CrossValidationExperiment.html" xlink:show="new" xlink:title="CrossValidationExperiment.html" xlink:type="simple"><g id="elem_miml.tutorial.CrossValidationExperiment"><rect codeLine="3" fill="#F1F1F1" height="83.2188" id="miml.tutorial.CrossValidationExperiment" rx="2.5" ry="2.5" style="stroke:#181818;stroke-width:0.5;" width="201" x="22.5" y="42"/><ellipse cx="37.5" cy="58" fill="#ADD1B2" rx="11" ry="11" style="stroke:#181818;stroke-width:1.0;"/><path d="M40.2656,53.875 Q40.4219,53.6563 40.6094,53.5469 Q40.7969,53.4375 41.0156,53.4375 Q41.3906,53.4375 41.625,53.7031 Q41.8594,53.9531 41.8594,54.5625 L41.8594,56.0156 Q41.8594,56.625 41.625,56.8906 Q41.3906,57.1563 41.0156,57.1563 Q40.6719,57.1563 40.4688,56.9531 Q40.2656,56.7656 40.1563,56.25 Q40.1094,55.8906 39.9219,55.7031 Q39.5938,55.3281 38.9844,55.1094 Q38.375,54.8906 37.75,54.8906 Q36.9844,54.8906 36.3438,55.2188 Q35.7188,55.5469 35.2188,56.2969 Q34.7344,57.0469 34.7344,58.0781 L34.7344,59.1719 Q34.7344,60.4063 35.625,61.2344 Q36.5156,62.0469 38.1094,62.0469 Q39.0469,62.0469 39.7031,61.7969 Q40.0938,61.6406 40.5156,61.2031 Q40.7813,60.9375 40.9219,60.8594 Q41.0781,60.7813 41.2813,60.7813 Q41.6094,60.7813 41.8594,61.0469 Q42.125,61.2969 42.125,61.6406 Q42.125,61.9844 41.7813,62.3906 Q41.2813,62.9688 40.4844,63.2969 Q39.4063,63.75 38.1094,63.75 Q36.5938,63.75 35.3906,63.125 Q34.4063,62.625 33.7188,61.5625 Q33.0313,60.4844 33.0313,59.2031 L33.0313,58.0469 Q33.0313,56.7188 33.6406,55.5781 Q34.2656,54.4219 35.3594,53.8125 Q36.4531,53.1875 37.6875,53.1875 Q38.4219,53.1875 39.0625,53.3594 Q39.7188,53.5156 40.2656,53.875 Z " fill="#000000"/><text fill="#000000" font-family="sans-serif" font-size="14" lengthAdjust="spacing" textLength="169" x="51.5" y="63.7285">CrossValidationExperiment</text><line style="stroke:#181818;stroke-width:0.5;" x1="23.5" x2="222.5" y1="74" y2="74"/><line style="stroke:#181818;stroke-width:0.5;" x1="23.5" x2="222.5" y1="82" y2="82"/><ellipse cx="33.5" cy="96.3047" fill="#84BE84" rx="3" ry="3" style="stroke:#038048;stroke-width:1.0;"/><text fill="#000000" font-family="sans-serif" font-size="14" lengthAdjust="spacing" text-decoration="underline" textLength="100" x="42.5" y="100.5332">showUse(): void</text><ellipse cx="33.5" cy="113.9141" fill="#84BE84" rx="3" ry="3" style="stroke:#038048;stroke-width:1.0;"/><text fill="#000000" font-family="sans-serif" font-size="14" lengthAdjust="spacing" text-decoration="underline" textLength="119" x="42.5" y="118.1426">main(String[]): void</text></g></a><!--MD5=[2d2dcaba15a452883ec18869d2dfe5b8]
class miml.tutorial.GeneratePartitions--><a href="GeneratePartitions.html" target="_top" title="GeneratePartitions.html" xlink:actuate="onRequest" xlink:href="GeneratePartitions.html" xlink:show="new" xlink:title="GeneratePartitions.html" xlink:type="simple"><g id="elem_miml.tutorial.GeneratePartitions"><rect codeLine="8" fill="#F1F1F1" height="83.2188" id="miml.tutorial.GeneratePartitions" rx="2.5" ry="2.5" style="stroke:#181818;stroke-width:0.5;" width="151" x="258.5" y="42"/><ellipse cx="273.5" cy="58" fill="#ADD1B2" rx="11" ry="11" style="stroke:#181818;stroke-width:1.0;"/><path d="M276.2656,53.875 Q276.4219,53.6563 276.6094,53.5469 Q276.7969,53.4375 277.0156,53.4375 Q277.3906,53.4375 277.625,53.7031 Q277.8594,53.9531 277.8594,54.5625 L277.8594,56.0156 Q277.8594,56.625 277.625,56.8906 Q277.3906,57.1563 277.0156,57.1563 Q276.6719,57.1563 276.4688,56.9531 Q276.2656,56.7656 276.1563,56.25 Q276.1094,55.8906 275.9219,55.7031 Q275.5938,55.3281 274.9844,55.1094 Q274.375,54.8906 273.75,54.8906 Q272.9844,54.8906 272.3438,55.2188 Q271.7188,55.5469 271.2188,56.2969 Q270.7344,57.0469 270.7344,58.0781 L270.7344,59.1719 Q270.7344,60.4063 271.625,61.2344 Q272.5156,62.0469 274.1094,62.0469 Q275.0469,62.0469 275.7031,61.7969 Q276.0938,61.6406 276.5156,61.2031 Q276.7813,60.9375 276.9219,60.8594 Q277.0781,60.7813 277.2813,60.7813 Q277.6094,60.7813 277.8594,61.0469 Q278.125,61.2969 278.125,61.6406 Q278.125,61.9844 277.7813,62.3906 Q277.2813,62.9688 276.4844,63.2969 Q275.4063,63.75 274.1094,63.75 Q272.5938,63.75 271.3906,63.125 Q270.4063,62.625 269.7188,61.5625 Q269.0313,60.4844 269.0313,59.2031 L269.0313,58.0469 Q269.0313,56.7188 269.6406,55.5781 Q270.2656,54.4219 271.3594,53.8125 Q272.4531,53.1875 273.6875,53.1875 Q274.4219,53.1875 275.0625,53.3594 Q275.7188,53.5156 276.2656,53.875 Z " fill="#000000"/><text fill="#000000" font-family="sans-serif" font-size="14" lengthAdjust="spacing" textLength="119" x="287.5" y="63.7285">GeneratePartitions</text><line style="stroke:#181818;stroke-width:0.5;" x1="259.5" x2="408.5" y1="74" y2="74"/><line style="stroke:#181818;stroke-width:0.5;" x1="259.5" x2="408.5" y1="82" y2="82"/><ellipse cx="269.5" cy="96.3047" fill="#84BE84" rx="3" ry="3" style="stroke:#038048;stroke-width:1.0;"/><text fill="#000000" font-family="sans-serif" font-size="14" lengthAdjust="spacing" text-decoration="underline" textLength="100" x="278.5" y="100.5332">showUse(): void</text><ellipse cx="269.5" cy="113.9141" fill="#84BE84" rx="3" ry="3" style="stroke:#038048;stroke-width:1.0;"/><text fill="#000000" font-family="sans-serif" font-size="14" lengthAdjust="spacing" text-decoration="underline" textLength="119" x="278.5" y="118.1426">main(String[]): void</text></g></a><!--MD5=[3e98e5c517293b32503a7ef51ac81d4b]
class miml.tutorial.HoldoutExperiment--><a href="HoldoutExperiment.html" target="_top" title="HoldoutExperiment.html" xlink:actuate="onRequest" xlink:href="HoldoutExperiment.html" xlink:show="new" xlink:title="HoldoutExperiment.html" xlink:type="simple"><g id="elem_miml.tutorial.HoldoutExperiment"><rect codeLine="13" fill="#F1F1F1" height="83.2188" id="miml.tutorial.HoldoutExperiment" rx="2.5" ry="2.5" style="stroke:#181818;stroke-width:0.5;" width="150" x="445" y="42"/><ellipse cx="460" cy="58" fill="#ADD1B2" rx="11" ry="11" style="stroke:#181818;stroke-width:1.0;"/><path d="M462.7656,53.875 Q462.9219,53.6563 463.1094,53.5469 Q463.2969,53.4375 463.5156,53.4375 Q463.8906,53.4375 464.125,53.7031 Q464.3594,53.9531 464.3594,54.5625 L464.3594,56.0156 Q464.3594,56.625 464.125,56.8906 Q463.8906,57.1563 463.5156,57.1563 Q463.1719,57.1563 462.9688,56.9531 Q462.7656,56.7656 462.6563,56.25 Q462.6094,55.8906 462.4219,55.7031 Q462.0938,55.3281 461.4844,55.1094 Q460.875,54.8906 460.25,54.8906 Q459.4844,54.8906 458.8438,55.2188 Q458.2188,55.5469 457.7188,56.2969 Q457.2344,57.0469 457.2344,58.0781 L457.2344,59.1719 Q457.2344,60.4063 458.125,61.2344 Q459.0156,62.0469 460.6094,62.0469 Q461.5469,62.0469 462.2031,61.7969 Q462.5938,61.6406 463.0156,61.2031 Q463.2813,60.9375 463.4219,60.8594 Q463.5781,60.7813 463.7813,60.7813 Q464.1094,60.7813 464.3594,61.0469 Q464.625,61.2969 464.625,61.6406 Q464.625,61.9844 464.2813,62.3906 Q463.7813,62.9688 462.9844,63.2969 Q461.9063,63.75 460.6094,63.75 Q459.0938,63.75 457.8906,63.125 Q456.9063,62.625 456.2188,61.5625 Q455.5313,60.4844 455.5313,59.2031 L455.5313,58.0469 Q455.5313,56.7188 456.1406,55.5781 Q456.7656,54.4219 457.8594,53.8125 Q458.9531,53.1875 460.1875,53.1875 Q460.9219,53.1875 461.5625,53.3594 Q462.2188,53.5156 462.7656,53.875 Z " fill="#000000"/><text fill="#000000" font-family="sans-serif" font-size="14" lengthAdjust="spacing" textLength="118" x="474" y="63.7285">HoldoutExperiment</text><line style="stroke:#181818;stroke-width:0.5;" x1="446" x2="594" y1="74" y2="74"/><line style="stroke:#181818;stroke-width:0.5;" x1="446" x2="594" y1="82" y2="82"/><ellipse cx="456" cy="96.3047" fill="#84BE84" rx="3" ry="3" style="stroke:#038048;stroke-width:1.0;"/><text fill="#000000" font-family="sans-serif" font-size="14" lengthAdjust="spacing" text-decoration="underline" textLength="100" x="465" y="100.5332">showUse(): void</text><ellipse cx="456" cy="113.9141" fill="#84BE84" rx="3" ry="3" style="stroke:#038048;stroke-width:1.0;"/><text fill="#000000" font-family="sans-serif" font-size="14" lengthAdjust="spacing" text-decoration="underline" textLength="119" x="465" y="118.1426">main(String[]): void</text></g></a><!--MD5=[c53c6c2907ff754832edfbc65ed53084]
class miml.tutorial.InsertingAttributesToBags--><a href="InsertingAttributesToBags.html" target="_top" title="InsertingAttributesToBags.html" xlink:actuate="onRequest" xlink:href="InsertingAttributesToBags.html" xlink:show="new" xlink:title="InsertingAttributesToBags.html" xlink:type="simple"><g id="elem_miml.tutorial.InsertingAttributesToBags"><rect codeLine="18" fill="#F1F1F1" height="83.2188" id="miml.tutorial.InsertingAttributesToBags" rx="2.5" ry="2.5" style="stroke:#181818;stroke-width:0.5;" width="195" x="630.5" y="42"/><ellipse cx="645.5" cy="58" fill="#ADD1B2" rx="11" ry="11" style="stroke:#181818;stroke-width:1.0;"/><path d="M648.2656,53.875 Q648.4219,53.6563 648.6094,53.5469 Q648.7969,53.4375 649.0156,53.4375 Q649.3906,53.4375 649.625,53.7031 Q649.8594,53.9531 649.8594,54.5625 L649.8594,56.0156 Q649.8594,56.625 649.625,56.8906 Q649.3906,57.1563 649.0156,57.1563 Q648.6719,57.1563 648.4688,56.9531 Q648.2656,56.7656 648.1563,56.25 Q648.1094,55.8906 647.9219,55.7031 Q647.5938,55.3281 646.9844,55.1094 Q646.375,54.8906 645.75,54.8906 Q644.9844,54.8906 644.3438,55.2188 Q643.7188,55.5469 643.2188,56.2969 Q642.7344,57.0469 642.7344,58.0781 L642.7344,59.1719 Q642.7344,60.4063 643.625,61.2344 Q644.5156,62.0469 646.1094,62.0469 Q647.0469,62.0469 647.7031,61.7969 Q648.0938,61.6406 648.5156,61.2031 Q648.7813,60.9375 648.9219,60.8594 Q649.0781,60.7813 649.2813,60.7813 Q649.6094,60.7813 649.8594,61.0469 Q650.125,61.2969 650.125,61.6406 Q650.125,61.9844 649.7813,62.3906 Q649.2813,62.9688 648.4844,63.2969 Q647.4063,63.75 646.1094,63.75 Q644.5938,63.75 643.3906,63.125 Q642.4063,62.625 641.7188,61.5625 Q641.0313,60.4844 641.0313,59.2031 L641.0313,58.0469 Q641.0313,56.7188 641.6406,55.5781 Q642.2656,54.4219 643.3594,53.8125 Q644.4531,53.1875 645.6875,53.1875 Q646.4219,53.1875 647.0625,53.3594 Q647.7188,53.5156 648.2656,53.875 Z " fill="#000000"/><text fill="#000000" font-family="sans-serif" font-size="14" lengthAdjust="spacing" textLength="163" x="659.5" y="63.7285">InsertingAttributesToBags</text><line style="stroke:#181818;stroke-width:0.5;" x1="631.5" x2="824.5" y1="74" y2="74"/><line style="stroke:#181818;stroke-width:0.5;" x1="631.5" x2="824.5" y1="82" y2="82"/><ellipse cx="641.5" cy="96.3047" fill="#84BE84" rx="3" ry="3" style="stroke:#038048;stroke-width:1.0;"/><text fill="#000000" font-family="sans-serif" font-size="14" lengthAdjust="spacing" text-decoration="underline" textLength="100" x="650.5" y="100.5332">showUse(): void</text><ellipse cx="641.5" cy="113.9141" fill="#84BE84" rx="3" ry="3" style="stroke:#038048;stroke-width:1.0;"/><text fill="#000000" font-family="sans-serif" font-size="14" lengthAdjust="spacing" text-decoration="underline" textLength="119" x="650.5" y="118.1426">main(String[]): void</text></g></a><!--MD5=[e69aceb3fdeeaf58879625d8b1aab0e1]
class miml.tutorial.InsertingAttributeToBag--><a href="InsertingAttributeToBag.html" target="_top" title="InsertingAttributeToBag.html" xlink:actuate="onRequest" xlink:href="InsertingAttributeToBag.html" xlink:show="new" xlink:title="InsertingAttributeToBag.html" xlink:type="simple"><g id="elem_miml.tutorial.InsertingAttributeToBag"><rect codeLine="23" fill="#F1F1F1" height="83.2188" id="miml.tutorial.InsertingAttributeToBag" rx="2.5" ry="2.5" style="stroke:#181818;stroke-width:0.5;" width="181" x="22.5" y="185"/><ellipse cx="37.5" cy="201" fill="#ADD1B2" rx="11" ry="11" style="stroke:#181818;stroke-width:1.0;"/><path d="M40.2656,196.875 Q40.4219,196.6563 40.6094,196.5469 Q40.7969,196.4375 41.0156,196.4375 Q41.3906,196.4375 41.625,196.7031 Q41.8594,196.9531 41.8594,197.5625 L41.8594,199.0156 Q41.8594,199.625 41.625,199.8906 Q41.3906,200.1563 41.0156,200.1563 Q40.6719,200.1563 40.4688,199.9531 Q40.2656,199.7656 40.1563,199.25 Q40.1094,198.8906 39.9219,198.7031 Q39.5938,198.3281 38.9844,198.1094 Q38.375,197.8906 37.75,197.8906 Q36.9844,197.8906 36.3438,198.2188 Q35.7188,198.5469 35.2188,199.2969 Q34.7344,200.0469 34.7344,201.0781 L34.7344,202.1719 Q34.7344,203.4063 35.625,204.2344 Q36.5156,205.0469 38.1094,205.0469 Q39.0469,205.0469 39.7031,204.7969 Q40.0938,204.6406 40.5156,204.2031 Q40.7813,203.9375 40.9219,203.8594 Q41.0781,203.7813 41.2813,203.7813 Q41.6094,203.7813 41.8594,204.0469 Q42.125,204.2969 42.125,204.6406 Q42.125,204.9844 41.7813,205.3906 Q41.2813,205.9688 40.4844,206.2969 Q39.4063,206.75 38.1094,206.75 Q36.5938,206.75 35.3906,206.125 Q34.4063,205.625 33.7188,204.5625 Q33.0313,203.4844 33.0313,202.2031 L33.0313,201.0469 Q33.0313,199.7188 33.6406,198.5781 Q34.2656,197.4219 35.3594,196.8125 Q36.4531,196.1875 37.6875,196.1875 Q38.4219,196.1875 39.0625,196.3594 Q39.7188,196.5156 40.2656,196.875 Z " fill="#000000"/><text fill="#000000" font-family="sans-serif" font-size="14" lengthAdjust="spacing" textLength="149" x="51.5" y="206.7285">InsertingAttributeToBag</text><line style="stroke:#181818;stroke-width:0.5;" x1="23.5" x2="202.5" y1="217" y2="217"/><line style="stroke:#181818;stroke-width:0.5;" x1="23.5" x2="202.5" y1="225" y2="225"/><ellipse cx="33.5" cy="239.3047" fill="#84BE84" rx="3" ry="3" style="stroke:#038048;stroke-width:1.0;"/><text fill="#000000" font-family="sans-serif" font-size="14" lengthAdjust="spacing" text-decoration="underline" textLength="100" x="42.5" y="243.5332">showUse(): void</text><ellipse cx="33.5" cy="256.9141" fill="#84BE84" rx="3" ry="3" style="stroke:#038048;stroke-width:1.0;"/><text fill="#000000" font-family="sans-serif" font-size="14" lengthAdjust="spacing" text-decoration="underline" textLength="119" x="42.5" y="261.1426">main(String[]): void</text></g></a><!--MD5=[27dfcd380a9923b563315a6d3b15f758]
class miml.tutorial.ManagingMIMLInstances--><a href="ManagingMIMLInstances.html" target="_top" title="ManagingMIMLInstances.html" xlink:actuate="onRequest" xlink:href="ManagingMIMLInstances.html" xlink:show="new" xlink:title="ManagingMIMLInstances.html" xlink:type="simple"><g id="elem_miml.tutorial.ManagingMIMLInstances"><rect codeLine="28" fill="#F1F1F1" height="83.2188" id="miml.tutorial.ManagingMIMLInstances" rx="2.5" ry="2.5" style="stroke:#181818;stroke-width:0.5;" width="187" x="238.5" y="185"/><ellipse cx="253.5" cy="201" fill="#ADD1B2" rx="11" ry="11" style="stroke:#181818;stroke-width:1.0;"/><path d="M256.2656,196.875 Q256.4219,196.6563 256.6094,196.5469 Q256.7969,196.4375 257.0156,196.4375 Q257.3906,196.4375 257.625,196.7031 Q257.8594,196.9531 257.8594,197.5625 L257.8594,199.0156 Q257.8594,199.625 257.625,199.8906 Q257.3906,200.1563 257.0156,200.1563 Q256.6719,200.1563 256.4688,199.9531 Q256.2656,199.7656 256.1563,199.25 Q256.1094,198.8906 255.9219,198.7031 Q255.5938,198.3281 254.9844,198.1094 Q254.375,197.8906 253.75,197.8906 Q252.9844,197.8906 252.3438,198.2188 Q251.7188,198.5469 251.2188,199.2969 Q250.7344,200.0469 250.7344,201.0781 L250.7344,202.1719 Q250.7344,203.4063 251.625,204.2344 Q252.5156,205.0469 254.1094,205.0469 Q255.0469,205.0469 255.7031,204.7969 Q256.0938,204.6406 256.5156,204.2031 Q256.7813,203.9375 256.9219,203.8594 Q257.0781,203.7813 257.2813,203.7813 Q257.6094,203.7813 257.8594,204.0469 Q258.125,204.2969 258.125,204.6406 Q258.125,204.9844 257.7813,205.3906 Q257.2813,205.9688 256.4844,206.2969 Q255.4063,206.75 254.1094,206.75 Q252.5938,206.75 251.3906,206.125 Q250.4063,205.625 249.7188,204.5625 Q249.0313,203.4844 249.0313,202.2031 L249.0313,201.0469 Q249.0313,199.7188 249.6406,198.5781 Q250.2656,197.4219 251.3594,196.8125 Q252.4531,196.1875 253.6875,196.1875 Q254.4219,196.1875 255.0625,196.3594 Q255.7188,196.5156 256.2656,196.875 Z " fill="#000000"/><text fill="#000000" font-family="sans-serif" font-size="14" lengthAdjust="spacing" textLength="155" x="267.5" y="206.7285">ManagingMIMLInstances</text><line style="stroke:#181818;stroke-width:0.5;" x1="239.5" x2="424.5" y1="217" y2="217"/><line style="stroke:#181818;stroke-width:0.5;" x1="239.5" x2="424.5" y1="225" y2="225"/><ellipse cx="249.5" cy="239.3047" fill="#84BE84" rx="3" ry="3" style="stroke:#038048;stroke-width:1.0;"/><text fill="#000000" font-family="sans-serif" font-size="14" lengthAdjust="spacing" text-decoration="underline" textLength="100" x="258.5" y="243.5332">showUse(): void</text><ellipse cx="249.5" cy="256.9141" fill="#84BE84" rx="3" ry="3" style="stroke:#038048;stroke-width:1.0;"/><text fill="#000000" font-family="sans-serif" font-size="14" lengthAdjust="spacing" text-decoration="underline" textLength="119" x="258.5" y="261.1426">main(String[]): void</text></g></a><!--MD5=[2101f0c124866ef753a20b275b9a71eb]
class miml.tutorial.MIMLtoMITransformation--><a href="MIMLtoMITransformation.html" target="_top" title="MIMLtoMITransformation.html" xlink:actuate="onRequest" xlink:href="MIMLtoMITransformation.html" xlink:show="new" xlink:title="MIMLtoMITransformation.html" xlink:type="simple"><g id="elem_miml.tutorial.MIMLtoMITransformation"><rect codeLine="33" fill="#F1F1F1" height="83.2188" id="miml.tutorial.MIMLtoMITransformation" rx="2.5" ry="2.5" style="stroke:#181818;stroke-width:0.5;" width="187" x="460.5" y="185"/><ellipse cx="475.5" cy="201" fill="#ADD1B2" rx="11" ry="11" style="stroke:#181818;stroke-width:1.0;"/><path d="M478.2656,196.875 Q478.4219,196.6563 478.6094,196.5469 Q478.7969,196.4375 479.0156,196.4375 Q479.3906,196.4375 479.625,196.7031 Q479.8594,196.9531 479.8594,197.5625 L479.8594,199.0156 Q479.8594,199.625 479.625,199.8906 Q479.3906,200.1563 479.0156,200.1563 Q478.6719,200.1563 478.4688,199.9531 Q478.2656,199.7656 478.1563,199.25 Q478.1094,198.8906 477.9219,198.7031 Q477.5938,198.3281 476.9844,198.1094 Q476.375,197.8906 475.75,197.8906 Q474.9844,197.8906 474.3438,198.2188 Q473.7188,198.5469 473.2188,199.2969 Q472.7344,200.0469 472.7344,201.0781 L472.7344,202.1719 Q472.7344,203.4063 473.625,204.2344 Q474.5156,205.0469 476.1094,205.0469 Q477.0469,205.0469 477.7031,204.7969 Q478.0938,204.6406 478.5156,204.2031 Q478.7813,203.9375 478.9219,203.8594 Q479.0781,203.7813 479.2813,203.7813 Q479.6094,203.7813 479.8594,204.0469 Q480.125,204.2969 480.125,204.6406 Q480.125,204.9844 479.7813,205.3906 Q479.2813,205.9688 478.4844,206.2969 Q477.4063,206.75 476.1094,206.75 Q474.5938,206.75 473.3906,206.125 Q472.4063,205.625 471.7188,204.5625 Q471.0313,203.4844 471.0313,202.2031 L471.0313,201.0469 Q471.0313,199.7188 471.6406,198.5781 Q472.2656,197.4219 473.3594,196.8125 Q474.4531,196.1875 475.6875,196.1875 Q476.4219,196.1875 477.0625,196.3594 Q477.7188,196.5156 478.2656,196.875 Z " fill="#000000"/><text fill="#000000" font-family="sans-serif" font-size="14" lengthAdjust="spacing" textLength="155" x="489.5" y="206.7285">MIMLtoMITransformation</text><line style="stroke:#181818;stroke-width:0.5;" x1="461.5" x2="646.5" y1="217" y2="217"/><line style="stroke:#181818;stroke-width:0.5;" x1="461.5" x2="646.5" y1="225" y2="225"/><ellipse cx="471.5" cy="239.3047" fill="#84BE84" rx="3" ry="3" style="stroke:#038048;stroke-width:1.0;"/><text fill="#000000" font-family="sans-serif" font-size="14" lengthAdjust="spacing" text-decoration="underline" textLength="100" x="480.5" y="243.5332">showUse(): void</text><ellipse cx="471.5" cy="256.9141" fill="#84BE84" rx="3" ry="3" style="stroke:#038048;stroke-width:1.0;"/><text fill="#000000" font-family="sans-serif" font-size="14" lengthAdjust="spacing" text-decoration="underline" textLength="119" x="480.5" y="261.1426">main(String[]): void</text></g></a><!--MD5=[221f6437274bd24d4372570126ec1482]
class miml.tutorial.MIMLtoMLTransformation--><a href="MIMLtoMLTransformation.html" target="_top" title="MIMLtoMLTransformation.html" xlink:actuate="onRequest" xlink:href="MIMLtoMLTransformation.html" xlink:show="new" xlink:title="MIMLtoMLTransformation.html" xlink:type="simple"><g id="elem_miml.tutorial.MIMLtoMLTransformation"><rect codeLine="38" fill="#F1F1F1" height="83.2188" id="miml.tutorial.MIMLtoMLTransformation" rx="2.5" ry="2.5" style="stroke:#181818;stroke-width:0.5;" width="192" x="683" y="185"/><ellipse cx="698" cy="201" fill="#ADD1B2" rx="11" ry="11" style="stroke:#181818;stroke-width:1.0;"/><path d="M700.7656,196.875 Q700.9219,196.6563 701.1094,196.5469 Q701.2969,196.4375 701.5156,196.4375 Q701.8906,196.4375 702.125,196.7031 Q702.3594,196.9531 702.3594,197.5625 L702.3594,199.0156 Q702.3594,199.625 702.125,199.8906 Q701.8906,200.1563 701.5156,200.1563 Q701.1719,200.1563 700.9688,199.9531 Q700.7656,199.7656 700.6563,199.25 Q700.6094,198.8906 700.4219,198.7031 Q700.0938,198.3281 699.4844,198.1094 Q698.875,197.8906 698.25,197.8906 Q697.4844,197.8906 696.8438,198.2188 Q696.2188,198.5469 695.7188,199.2969 Q695.2344,200.0469 695.2344,201.0781 L695.2344,202.1719 Q695.2344,203.4063 696.125,204.2344 Q697.0156,205.0469 698.6094,205.0469 Q699.5469,205.0469 700.2031,204.7969 Q700.5938,204.6406 701.0156,204.2031 Q701.2813,203.9375 701.4219,203.8594 Q701.5781,203.7813 701.7813,203.7813 Q702.1094,203.7813 702.3594,204.0469 Q702.625,204.2969 702.625,204.6406 Q702.625,204.9844 702.2813,205.3906 Q701.7813,205.9688 700.9844,206.2969 Q699.9063,206.75 698.6094,206.75 Q697.0938,206.75 695.8906,206.125 Q694.9063,205.625 694.2188,204.5625 Q693.5313,203.4844 693.5313,202.2031 L693.5313,201.0469 Q693.5313,199.7188 694.1406,198.5781 Q694.7656,197.4219 695.8594,196.8125 Q696.9531,196.1875 698.1875,196.1875 Q698.9219,196.1875 699.5625,196.3594 Q700.2188,196.5156 700.7656,196.875 Z " fill="#000000"/><text fill="#000000" font-family="sans-serif" font-size="14" lengthAdjust="spacing" textLength="160" x="712" y="206.7285">MIMLtoMLTransformation</text><line style="stroke:#181818;stroke-width:0.5;" x1="684" x2="874" y1="217" y2="217"/><line style="stroke:#181818;stroke-width:0.5;" x1="684" x2="874" y1="225" y2="225"/><ellipse cx="694" cy="239.3047" fill="#84BE84" rx="3" ry="3" style="stroke:#038048;stroke-width:1.0;"/><text fill="#000000" font-family="sans-serif" font-size="14" lengthAdjust="spacing" text-decoration="underline" textLength="100" x="703" y="243.5332">showUse(): void</text><ellipse cx="694" cy="256.9141" fill="#84BE84" rx="3" ry="3" style="stroke:#038048;stroke-width:1.0;"/><text fill="#000000" font-family="sans-serif" font-size="14" lengthAdjust="spacing" text-decoration="underline" textLength="119" x="703" y="261.1426">main(String[]): void</text></g></a><!--MD5=[c4d45110a366b9db5efc6c48dc23cc7f]
class miml.tutorial.NormalizingDataset--><a href="NormalizingDataset.html" target="_top" title="NormalizingDataset.html" xlink:actuate="onRequest" xlink:href="NormalizingDataset.html" xlink:show="new" xlink:title="NormalizingDataset.html" xlink:type="simple"><g id="elem_miml.tutorial.NormalizingDataset"><rect codeLine="43" fill="#F1F1F1" height="65.6094" id="miml.tutorial.NormalizingDataset" rx="2.5" ry="2.5" style="stroke:#181818;stroke-width:0.5;" width="153" x="36.5" y="328"/><ellipse cx="51.5" cy="344" fill="#ADD1B2" rx="11" ry="11" style="stroke:#181818;stroke-width:1.0;"/><path d="M54.2656,339.875 Q54.4219,339.6563 54.6094,339.5469 Q54.7969,339.4375 55.0156,339.4375 Q55.3906,339.4375 55.625,339.7031 Q55.8594,339.9531 55.8594,340.5625 L55.8594,342.0156 Q55.8594,342.625 55.625,342.8906 Q55.3906,343.1563 55.0156,343.1563 Q54.6719,343.1563 54.4688,342.9531 Q54.2656,342.7656 54.1563,342.25 Q54.1094,341.8906 53.9219,341.7031 Q53.5938,341.3281 52.9844,341.1094 Q52.375,340.8906 51.75,340.8906 Q50.9844,340.8906 50.3438,341.2188 Q49.7188,341.5469 49.2188,342.2969 Q48.7344,343.0469 48.7344,344.0781 L48.7344,345.1719 Q48.7344,346.4063 49.625,347.2344 Q50.5156,348.0469 52.1094,348.0469 Q53.0469,348.0469 53.7031,347.7969 Q54.0938,347.6406 54.5156,347.2031 Q54.7813,346.9375 54.9219,346.8594 Q55.0781,346.7813 55.2813,346.7813 Q55.6094,346.7813 55.8594,347.0469 Q56.125,347.2969 56.125,347.6406 Q56.125,347.9844 55.7813,348.3906 Q55.2813,348.9688 54.4844,349.2969 Q53.4063,349.75 52.1094,349.75 Q50.5938,349.75 49.3906,349.125 Q48.4063,348.625 47.7188,347.5625 Q47.0313,346.4844 47.0313,345.2031 L47.0313,344.0469 Q47.0313,342.7188 47.6406,341.5781 Q48.2656,340.4219 49.3594,339.8125 Q50.4531,339.1875 51.6875,339.1875 Q52.4219,339.1875 53.0625,339.3594 Q53.7188,339.5156 54.2656,339.875 Z " fill="#000000"/><text fill="#000000" font-family="sans-serif" font-size="14" lengthAdjust="spacing" textLength="121" x="65.5" y="349.7285">NormalizingDataset</text><line style="stroke:#181818;stroke-width:0.5;" x1="37.5" x2="188.5" y1="360" y2="360"/><line style="stroke:#181818;stroke-width:0.5;" x1="37.5" x2="188.5" y1="368" y2="368"/><ellipse cx="47.5" cy="382.3047" fill="#84BE84" rx="3" ry="3" style="stroke:#038048;stroke-width:1.0;"/><text fill="#000000" font-family="sans-serif" font-size="14" lengthAdjust="spacing" text-decoration="underline" textLength="119" x="56.5" y="386.5332">main(String[]): void</text></g></a><!--MD5=[9999b54916b3f3d68861aafda19f0c03]
class miml.tutorial.Resampling--><a href="Resampling.html" target="_top" title="Resampling.html" xlink:actuate="onRequest" xlink:href="Resampling.html" xlink:show="new" xlink:title="Resampling.html" xlink:type="simple"><g id="elem_miml.tutorial.Resampling"><rect codeLine="47" fill="#F1F1F1" height="65.6094" id="miml.tutorial.Resampling" rx="2.5" ry="2.5" style="stroke:#181818;stroke-width:0.5;" width="145" x="224.5" y="328"/><ellipse cx="257.05" cy="344" fill="#ADD1B2" rx="11" ry="11" style="stroke:#181818;stroke-width:1.0;"/><path d="M259.8156,339.875 Q259.9719,339.6563 260.1594,339.5469 Q260.3469,339.4375 260.5656,339.4375 Q260.9406,339.4375 261.175,339.7031 Q261.4094,339.9531 261.4094,340.5625 L261.4094,342.0156 Q261.4094,342.625 261.175,342.8906 Q260.9406,343.1563 260.5656,343.1563 Q260.2219,343.1563 260.0188,342.9531 Q259.8156,342.7656 259.7063,342.25 Q259.6594,341.8906 259.4719,341.7031 Q259.1438,341.3281 258.5344,341.1094 Q257.925,340.8906 257.3,340.8906 Q256.5344,340.8906 255.8938,341.2188 Q255.2688,341.5469 254.7688,342.2969 Q254.2844,343.0469 254.2844,344.0781 L254.2844,345.1719 Q254.2844,346.4063 255.175,347.2344 Q256.0656,348.0469 257.6594,348.0469 Q258.5969,348.0469 259.2531,347.7969 Q259.6438,347.6406 260.0656,347.2031 Q260.3313,346.9375 260.4719,346.8594 Q260.6281,346.7813 260.8313,346.7813 Q261.1594,346.7813 261.4094,347.0469 Q261.675,347.2969 261.675,347.6406 Q261.675,347.9844 261.3313,348.3906 Q260.8313,348.9688 260.0344,349.2969 Q258.9563,349.75 257.6594,349.75 Q256.1438,349.75 254.9406,349.125 Q253.9563,348.625 253.2688,347.5625 Q252.5813,346.4844 252.5813,345.2031 L252.5813,344.0469 Q252.5813,342.7188 253.1906,341.5781 Q253.8156,340.4219 254.9094,339.8125 Q256.0031,339.1875 257.2375,339.1875 Q257.9719,339.1875 258.6125,339.3594 Q259.2688,339.5156 259.8156,339.875 Z " fill="#000000"/><text fill="#000000" font-family="sans-serif" font-size="14" lengthAdjust="spacing" textLength="74" x="274.95" y="349.7285">Resampling</text><line style="stroke:#181818;stroke-width:0.5;" x1="225.5" x2="368.5" y1="360" y2="360"/><line style="stroke:#181818;stroke-width:0.5;" x1="225.5" x2="368.5" y1="368" y2="368"/><ellipse cx="235.5" cy="382.3047" fill="#84BE84" rx="3" ry="3" style="stroke:#038048;stroke-width:1.0;"/><text fill="#000000" font-family="sans-serif" font-size="14" lengthAdjust="spacing" text-decoration="underline" textLength="119" x="244.5" y="386.5332">main(String[]): void</text></g></a><rect fill="none" height="12.5781" style="stroke:none;stroke-width:1.0;" width="190" x="347" y="416"/><text fill="#888888" font-family="sans-serif" font-size="10" lengthAdjust="spacing" textLength="190" x="347" y="426.3809">UMLDoclet 2.0.20, PlantUML 1.2022.12</text><!--MD5=[cf7e3d317bbc70e56d6fc6ed7b08acc2]
@startuml
    namespace miml.tutorial {

        class CrossValidationExperiment [[CrossValidationExperiment.html]] {
            {static} +showUse(): void
            {static} +main(String[]): void
        }

        class GeneratePartitions [[GeneratePartitions.html]] {
            {static} +showUse(): void
            {static} +main(String[]): void
        }

        class HoldoutExperiment [[HoldoutExperiment.html]] {
            {static} +showUse(): void
            {static} +main(String[]): void
        }

        class InsertingAttributesToBags [[InsertingAttributesToBags.html]] {
            {static} +showUse(): void
            {static} +main(String[]): void
        }

        class InsertingAttributeToBag [[InsertingAttributeToBag.html]] {
            {static} +showUse(): void
            {static} +main(String[]): void
        }

        class ManagingMIMLInstances [[ManagingMIMLInstances.html]] {
            {static} +showUse(): void
            {static} +main(String[]): void
        }

        class MIMLtoMITransformation [[MIMLtoMITransformation.html]] {
            {static} +showUse(): void
            {static} +main(String[]): void
        }

        class MIMLtoMLTransformation [[MIMLtoMLTransformation.html]] {
            {static} +showUse(): void
            {static} +main(String[]): void
        }

        class NormalizingDataset [[NormalizingDataset.html]] {
            {static} +main(String[]): void
        }

        class Resampling [[Resampling.html]] {
            {static} +main(String[]): void
        }

    }

    center footer UMLDoclet 2.0.20, PlantUML 1.2022.12
@enduml

PlantUML version 1.2022.12(Sun Oct 23 20:12:26 CEST 2022)
(APACHE source distribution)
Java Runtime: OpenJDK Runtime Environment
JVM: OpenJDK 64-Bit Server VM
Default Encoding: Cp1252
Language: es
Country: ES
--></g></svg>