<?xml version="1.0" encoding="UTF-8" standalone="no"?><svg xmlns="http://www.w3.org/2000/svg" xmlns:xlink="http://www.w3.org/1999/xlink" contentStyleType="text/css" height="269px" preserveAspectRatio="none" style="width:418px;height:269px;background:#FFFFFF;" version="1.1" viewBox="0 0 418 269" width="418px" zoomAndPan="magnify"><defs/><g><!--MD5=[7ac158596541117d11edcffba96f82c4]
class miml.data.partitioning.CrossValidationBase--><a href="CrossValidationBase.html" target="_top" title="CrossValidationBase.html" xlink:actuate="onRequest" xlink:href="CrossValidationBase.html" xlink:show="new" xlink:title="CrossValidationBase.html" xlink:type="simple"><g id="elem_miml.data.partitioning.CrossValidationBase"><rect codeLine="5" fill="#F1F1F1" height="136.2344" id="miml.data.partitioning.CrossValidationBase" rx="2.5" ry="2.5" style="stroke:#181818;stroke-width:0.5;" width="404" x="7" y="107"/><ellipse cx="139.25" cy="127.0938" fill="#A9DCDF" rx="11" ry="11" style="stroke:#181818;stroke-width:1.0;"/><path d="M141.4375,128.8594 L137.2969,128.8594 L136.875,129.8906 L137.2969,129.8906 Q137.9063,129.8906 138.1719,130.125 Q138.4375,130.3594 138.4375,130.75 Q138.4375,131.125 138.1719,131.3594 Q137.9063,131.5938 137.2969,131.5938 L135,131.5938 Q134.3906,131.5938 134.1406,131.3594 Q133.875,131.125 133.875,130.7344 Q133.875,130.3594 134.1563,130.125 Q134.4219,129.875 135.0469,129.8906 L137.7188,123.2344 L136.6094,123.2344 Q136,123.2344 135.7344,123 Q135.4688,122.7656 135.4688,122.375 Q135.4688,122 135.7344,121.7656 Q136,121.5313 136.6094,121.5313 L140.2813,121.5313 L143.6719,129.8906 Q144.2656,129.8906 144.4531,130.0313 Q144.8438,130.2969 144.8438,130.75 Q144.8438,131.125 144.5781,131.3594 Q144.3281,131.5938 143.7188,131.5938 L141.4219,131.5938 Q140.8125,131.5938 140.5469,131.3594 Q140.2813,131.125 140.2813,130.7344 Q140.2813,130.3594 140.5469,130.125 Q140.8125,129.8906 141.4219,129.8906 L141.8438,129.8906 L141.4375,128.8594 Z M140.7188,127.1563 L139.3594,123.7813 L137.9844,127.1563 L140.7188,127.1563 Z " fill="#000000"/><text fill="#000000" font-family="sans-serif" font-size="14" font-style="italic" lengthAdjust="spacing" textLength="131" x="159.75" y="126.5332">CrossValidationBase</text><text fill="#000000" font-family="sans-serif" font-size="10" font-style="italic" lengthAdjust="spacing" textLength="101" x="174.75" y="139.9902">miml.data.partitioning</text><line style="stroke:#181818;stroke-width:0.5;" x1="8" x2="410" y1="147.1875" y2="147.1875"/><ellipse cx="18" cy="161.4922" fill="#84BE84" rx="3" ry="3" style="stroke:#038048;stroke-width:1.0;"/><text fill="#000000" font-family="sans-serif" font-size="14" lengthAdjust="spacing" textLength="288" x="27" y="165.7207">CrossValidationBase(int, MultiLabelInstances)</text><ellipse cx="18" cy="179.1016" fill="#84BE84" rx="3" ry="3" style="stroke:#038048;stroke-width:1.0;"/><text fill="#000000" font-family="sans-serif" font-size="14" lengthAdjust="spacing" textLength="265" x="27" y="183.3301">CrossValidationBase(MultiLabelInstances)</text><ellipse cx="18" cy="196.7109" fill="#84BE84" rx="3" ry="3" style="stroke:#038048;stroke-width:1.0;"/><text fill="#000000" font-family="sans-serif" font-size="14" lengthAdjust="spacing" textLength="234" x="27" y="200.9395">getRounds(int): MultiLabelInstances[]</text><ellipse cx="18" cy="214.3203" fill="#84BE84" rx="3" ry="3" style="stroke:#038048;stroke-width:1.0;"/><text fill="#000000" font-family="sans-serif" font-size="14" lengthAdjust="spacing" text-decoration="underline" textLength="378" x="27" y="218.5488">foldsToRounds(MultiLabelInstances[]): MultiLabelInstances[]</text><ellipse cx="18" cy="231.9297" fill="#84BE84" rx="3" ry="3" style="stroke:#038048;stroke-width:1.0;"/><text fill="#000000" font-family="sans-serif" font-size="14" font-style="italic" lengthAdjust="spacing" textLength="222" x="27" y="236.1582">getFolds(int): MultiLabelInstances[]</text></g></a><!--MD5=[59f42373194f522e87bade832f12f3db]
class miml.data.partitioning.PartitionerBase--><a href="PartitionerBase.html" target="_top" title="PartitionerBase.html" xlink:actuate="onRequest" xlink:href="PartitionerBase.html" xlink:show="new" xlink:title="PartitionerBase.html" xlink:type="simple"><g id="elem_miml.data.partitioning.PartitionerBase"><rect codeLine="13" fill="#F1F1F1" height="40.1875" id="miml.data.partitioning.PartitionerBase" rx="2.5" ry="2.5" style="stroke:#181818;stroke-width:0.5;" width="133" x="142.5" y="7"/><ellipse cx="157.5" cy="27.0938" fill="#A9DCDF" rx="11" ry="11" style="stroke:#181818;stroke-width:1.0;"/><path d="M159.6875,28.8594 L155.5469,28.8594 L155.125,29.8906 L155.5469,29.8906 Q156.1563,29.8906 156.4219,30.125 Q156.6875,30.3594 156.6875,30.75 Q156.6875,31.125 156.4219,31.3594 Q156.1563,31.5938 155.5469,31.5938 L153.25,31.5938 Q152.6406,31.5938 152.3906,31.3594 Q152.125,31.125 152.125,30.7344 Q152.125,30.3594 152.4063,30.125 Q152.6719,29.875 153.2969,29.8906 L155.9688,23.2344 L154.8594,23.2344 Q154.25,23.2344 153.9844,23 Q153.7188,22.7656 153.7188,22.375 Q153.7188,22 153.9844,21.7656 Q154.25,21.5313 154.8594,21.5313 L158.5313,21.5313 L161.9219,29.8906 Q162.5156,29.8906 162.7031,30.0313 Q163.0938,30.2969 163.0938,30.75 Q163.0938,31.125 162.8281,31.3594 Q162.5781,31.5938 161.9688,31.5938 L159.6719,31.5938 Q159.0625,31.5938 158.7969,31.3594 Q158.5313,31.125 158.5313,30.7344 Q158.5313,30.3594 158.7969,30.125 Q159.0625,29.8906 159.6719,29.8906 L160.0938,29.8906 L159.6875,28.8594 Z M158.9688,27.1563 L157.6094,23.7813 L156.2344,27.1563 L158.9688,27.1563 Z " fill="#000000"/><text fill="#000000" font-family="sans-serif" font-size="14" font-style="italic" lengthAdjust="spacing" textLength="97" x="173.5" y="26.5332">PartitionerBase</text><text fill="#000000" font-family="sans-serif" font-size="10" font-style="italic" lengthAdjust="spacing" textLength="101" x="171.5" y="39.9902">miml.data.partitioning</text></g></a><!--MD5=[d67977997f15dbde695976c4e5f2afc8]
reverse link miml.data.partitioning.PartitionerBase to miml.data.partitioning.CrossValidationBase--><g id="link_miml.data.partitioning.PartitionerBase_miml.data.partitioning.CrossValidationBase"><path codeLine="15" d="M209,67.48 C209,79.66 209,93.44 209,106.95 " fill="none" id="miml.data.partitioning.PartitionerBase-backto-miml.data.partitioning.CrossValidationBase" style="stroke:#181818;stroke-width:1.0;"/><polygon fill="none" points="202,67.09,209,47.09,216,67.09,202,67.09" style="stroke:#181818;stroke-width:1.0;"/></g><rect fill="none" height="12.5781" style="stroke:none;stroke-width:1.0;" width="190" x="107" y="249.2344"/><text fill="#888888" font-family="sans-serif" font-size="10" lengthAdjust="spacing" textLength="190" x="107" y="259.6152">UMLDoclet 2.0.20, PlantUML 1.2022.12</text><!--MD5=[98e15c0c7fd6c966282c92a339e8159e]
@startuml
    set namespaceSeparator none
    hide empty fields
    hide empty methods

    abstract class "<size:14>CrossValidationBase\n<size:10>miml.data.partitioning" as miml.data.partitioning.CrossValidationBase [[CrossValidationBase.html]] {
        +CrossValidationBase(int, MultiLabelInstances)
        +CrossValidationBase(MultiLabelInstances)
        +getRounds(int): MultiLabelInstances[]
        {static} +foldsToRounds(MultiLabelInstances[]): MultiLabelInstances[]
        {abstract} +getFolds(int): MultiLabelInstances[]
    }

    abstract class "<size:14>PartitionerBase\n<size:10>miml.data.partitioning" as miml.data.partitioning.PartitionerBase [[PartitionerBase.html]]

    miml.data.partitioning.PartitionerBase <|- - miml.data.partitioning.CrossValidationBase

    center footer UMLDoclet 2.0.20, PlantUML 1.2022.12
@enduml

PlantUML version 1.2022.12(Sun Oct 23 20:12:26 CEST 2022)
(APACHE source distribution)
Java Runtime: OpenJDK Runtime Environment
JVM: OpenJDK 64-Bit Server VM
Default Encoding: Cp1252
Language: es
Country: ES
--></g></svg>