<?xml version="1.0" encoding="UTF-8" standalone="no"?><svg xmlns="http://www.w3.org/2000/svg" xmlns:xlink="http://www.w3.org/1999/xlink" contentStyleType="text/css" height="398px" preserveAspectRatio="none" style="width:760px;height:398px;background:#FFFFFF;" version="1.1" viewBox="0 0 760 398" width="760px" zoomAndPan="magnify"><defs/><g><!--MD5=[b22b9bb5ba87fde4e12dd3e800aeb6ec]
cluster miml.data.partitioning--><g id="cluster_miml.data.partitioning"><path d="M8.5,6 L160.5,6 A3.75,3.75 0 0 1 163,8.5 L170,29.6094 L750.5,29.6094 A2.5,2.5 0 0 1 753,32.1094 L753,369.5 A2.5,2.5 0 0 1 750.5,372 L8.5,372 A2.5,2.5 0 0 1 6,369.5 L6,8.5 A2.5,2.5 0 0 1 8.5,6 " fill="none" style="stroke:#000000;stroke-width:1.5;"/><line style="stroke:#000000;stroke-width:1.5;" x1="6" x2="170" y1="29.6094" y2="29.6094"/><text fill="#000000" font-family="sans-serif" font-size="14" font-weight="bold" lengthAdjust="spacing" textLength="151" x="10" y="22.5332">miml.data.partitioning</text></g><!--MD5=[7ac158596541117d11edcffba96f82c4]
class miml.data.partitioning.CrossValidationBase--><a href="CrossValidationBase.html" target="_top" title="CrossValidationBase.html" xlink:actuate="onRequest" xlink:href="CrossValidationBase.html" xlink:show="new" xlink:title="CrossValidationBase.html" xlink:type="simple"><g id="elem_miml.data.partitioning.CrossValidationBase"><rect codeLine="3" fill="#F1F1F1" height="136.0469" id="miml.data.partitioning.CrossValidationBase" rx="2.5" ry="2.5" style="stroke:#181818;stroke-width:0.5;" width="404" x="22" y="220"/><ellipse cx="154.25" cy="236" fill="#A9DCDF" rx="11" ry="11" style="stroke:#181818;stroke-width:1.0;"/><path d="M156.4375,237.7656 L152.2969,237.7656 L151.875,238.7969 L152.2969,238.7969 Q152.9063,238.7969 153.1719,239.0313 Q153.4375,239.2656 153.4375,239.6563 Q153.4375,240.0313 153.1719,240.2656 Q152.9063,240.5 152.2969,240.5 L150,240.5 Q149.3906,240.5 149.1406,240.2656 Q148.875,240.0313 148.875,239.6406 Q148.875,239.2656 149.1563,239.0313 Q149.4219,238.7813 150.0469,238.7969 L152.7188,232.1406 L151.6094,232.1406 Q151,232.1406 150.7344,231.9063 Q150.4688,231.6719 150.4688,231.2813 Q150.4688,230.9063 150.7344,230.6719 Q151,230.4375 151.6094,230.4375 L155.2813,230.4375 L158.6719,238.7969 Q159.2656,238.7969 159.4531,238.9375 Q159.8438,239.2031 159.8438,239.6563 Q159.8438,240.0313 159.5781,240.2656 Q159.3281,240.5 158.7188,240.5 L156.4219,240.5 Q155.8125,240.5 155.5469,240.2656 Q155.2813,240.0313 155.2813,239.6406 Q155.2813,239.2656 155.5469,239.0313 Q155.8125,238.7969 156.4219,238.7969 L156.8438,238.7969 L156.4375,237.7656 Z M155.7188,236.0625 L154.3594,232.6875 L152.9844,236.0625 L155.7188,236.0625 Z " fill="#000000"/><text fill="#000000" font-family="sans-serif" font-size="14" font-style="italic" lengthAdjust="spacing" textLength="131" x="174.75" y="241.7285">CrossValidationBase</text><line style="stroke:#181818;stroke-width:0.5;" x1="23" x2="425" y1="252" y2="252"/><line style="stroke:#181818;stroke-width:0.5;" x1="23" x2="425" y1="260" y2="260"/><ellipse cx="33" cy="274.3047" fill="#84BE84" rx="3" ry="3" style="stroke:#038048;stroke-width:1.0;"/><text fill="#000000" font-family="sans-serif" font-size="14" lengthAdjust="spacing" textLength="288" x="42" y="278.5332">CrossValidationBase(int, MultiLabelInstances)</text><ellipse cx="33" cy="291.9141" fill="#84BE84" rx="3" ry="3" style="stroke:#038048;stroke-width:1.0;"/><text fill="#000000" font-family="sans-serif" font-size="14" lengthAdjust="spacing" textLength="265" x="42" y="296.1426">CrossValidationBase(MultiLabelInstances)</text><ellipse cx="33" cy="309.5234" fill="#84BE84" rx="3" ry="3" style="stroke:#038048;stroke-width:1.0;"/><text fill="#000000" font-family="sans-serif" font-size="14" lengthAdjust="spacing" textLength="234" x="42" y="313.752">getRounds(int): MultiLabelInstances[]</text><ellipse cx="33" cy="327.1328" fill="#84BE84" rx="3" ry="3" style="stroke:#038048;stroke-width:1.0;"/><text fill="#000000" font-family="sans-serif" font-size="14" lengthAdjust="spacing" text-decoration="underline" textLength="378" x="42" y="331.3613">foldsToRounds(MultiLabelInstances[]): MultiLabelInstances[]</text><ellipse cx="33" cy="344.7422" fill="#84BE84" rx="3" ry="3" style="stroke:#038048;stroke-width:1.0;"/><text fill="#000000" font-family="sans-serif" font-size="14" font-style="italic" lengthAdjust="spacing" textLength="222" x="42" y="348.9707">getFolds(int): MultiLabelInstances[]</text></g></a><!--MD5=[59f42373194f522e87bade832f12f3db]
class miml.data.partitioning.PartitionerBase--><a href="PartitionerBase.html" target="_top" title="PartitionerBase.html" xlink:actuate="onRequest" xlink:href="PartitionerBase.html" xlink:show="new" xlink:title="PartitionerBase.html" xlink:type="simple"><g id="elem_miml.data.partitioning.PartitionerBase"><rect codeLine="11" fill="#F1F1F1" height="118.4375" id="miml.data.partitioning.PartitionerBase" rx="2.5" ry="2.5" style="stroke:#181818;stroke-width:0.5;" width="280" x="270" y="42"/><ellipse cx="357.25" cy="58" fill="#A9DCDF" rx="11" ry="11" style="stroke:#181818;stroke-width:1.0;"/><path d="M359.4375,59.7656 L355.2969,59.7656 L354.875,60.7969 L355.2969,60.7969 Q355.9063,60.7969 356.1719,61.0313 Q356.4375,61.2656 356.4375,61.6563 Q356.4375,62.0313 356.1719,62.2656 Q355.9063,62.5 355.2969,62.5 L353,62.5 Q352.3906,62.5 352.1406,62.2656 Q351.875,62.0313 351.875,61.6406 Q351.875,61.2656 352.1563,61.0313 Q352.4219,60.7813 353.0469,60.7969 L355.7188,54.1406 L354.6094,54.1406 Q354,54.1406 353.7344,53.9063 Q353.4688,53.6719 353.4688,53.2813 Q353.4688,52.9063 353.7344,52.6719 Q354,52.4375 354.6094,52.4375 L358.2813,52.4375 L361.6719,60.7969 Q362.2656,60.7969 362.4531,60.9375 Q362.8438,61.2031 362.8438,61.6563 Q362.8438,62.0313 362.5781,62.2656 Q362.3281,62.5 361.7188,62.5 L359.4219,62.5 Q358.8125,62.5 358.5469,62.2656 Q358.2813,62.0313 358.2813,61.6406 Q358.2813,61.2656 358.5469,61.0313 Q358.8125,60.7969 359.4219,60.7969 L359.8438,60.7969 L359.4375,59.7656 Z M358.7188,58.0625 L357.3594,54.6875 L355.9844,58.0625 L358.7188,58.0625 Z " fill="#000000"/><text fill="#000000" font-family="sans-serif" font-size="14" font-style="italic" lengthAdjust="spacing" textLength="97" x="377.75" y="63.7285">PartitionerBase</text><line style="stroke:#181818;stroke-width:0.5;" x1="271" x2="549" y1="74" y2="74"/><polygon fill="none" points="281,83.3047,285,87.3047,281,91.3047,277,87.3047" style="stroke:#B38D22;stroke-width:1.0;"/><text fill="#000000" font-family="sans-serif" font-size="14" lengthAdjust="spacing" textLength="54" x="290" y="92.5332">seed: int</text><polygon fill="none" points="281,100.9141,285,104.9141,281,108.9141,277,104.9141" style="stroke:#B38D22;stroke-width:1.0;"/><text fill="#000000" font-family="sans-serif" font-size="14" lengthAdjust="spacing" textLength="201" x="290" y="110.1426">workingSet: MultiLabelInstances</text><line style="stroke:#181818;stroke-width:0.5;" x1="271" x2="549" y1="117.2188" y2="117.2188"/><ellipse cx="281" cy="131.5234" fill="#84BE84" rx="3" ry="3" style="stroke:#038048;stroke-width:1.0;"/><text fill="#000000" font-family="sans-serif" font-size="14" lengthAdjust="spacing" textLength="231" x="290" y="135.752">PartitionerBase(MultiLabelInstances)</text><ellipse cx="281" cy="149.1328" fill="#84BE84" rx="3" ry="3" style="stroke:#038048;stroke-width:1.0;"/><text fill="#000000" font-family="sans-serif" font-size="14" lengthAdjust="spacing" textLength="254" x="290" y="153.3613">PartitionerBase(int, MultiLabelInstances)</text></g></a><!--MD5=[43ba56182bfb4eb2087e6ff5152dd96d]
class miml.data.partitioning.TrainTestBase--><a href="TrainTestBase.html" target="_top" title="TrainTestBase.html" xlink:actuate="onRequest" xlink:href="TrainTestBase.html" xlink:show="new" xlink:title="TrainTestBase.html" xlink:type="simple"><g id="elem_miml.data.partitioning.TrainTestBase"><rect codeLine="18" fill="#F1F1F1" height="100.8281" id="miml.data.partitioning.TrainTestBase" rx="2.5" ry="2.5" style="stroke:#181818;stroke-width:0.5;" width="276" x="461" y="237.5"/><ellipse cx="548.25" cy="253.5" fill="#A9DCDF" rx="11" ry="11" style="stroke:#181818;stroke-width:1.0;"/><path d="M550.4375,255.2656 L546.2969,255.2656 L545.875,256.2969 L546.2969,256.2969 Q546.9063,256.2969 547.1719,256.5313 Q547.4375,256.7656 547.4375,257.1563 Q547.4375,257.5313 547.1719,257.7656 Q546.9063,258 546.2969,258 L544,258 Q543.3906,258 543.1406,257.7656 Q542.875,257.5313 542.875,257.1406 Q542.875,256.7656 543.1563,256.5313 Q543.4219,256.2813 544.0469,256.2969 L546.7188,249.6406 L545.6094,249.6406 Q545,249.6406 544.7344,249.4063 Q544.4688,249.1719 544.4688,248.7813 Q544.4688,248.4063 544.7344,248.1719 Q545,247.9375 545.6094,247.9375 L549.2813,247.9375 L552.6719,256.2969 Q553.2656,256.2969 553.4531,256.4375 Q553.8438,256.7031 553.8438,257.1563 Q553.8438,257.5313 553.5781,257.7656 Q553.3281,258 552.7188,258 L550.4219,258 Q549.8125,258 549.5469,257.7656 Q549.2813,257.5313 549.2813,257.1406 Q549.2813,256.7656 549.5469,256.5313 Q549.8125,256.2969 550.4219,256.2969 L550.8438,256.2969 L550.4375,255.2656 Z M549.7188,253.5625 L548.3594,250.1875 L546.9844,253.5625 L549.7188,253.5625 Z " fill="#000000"/><text fill="#000000" font-family="sans-serif" font-size="14" font-style="italic" lengthAdjust="spacing" textLength="93" x="568.75" y="259.2285">TrainTestBase</text><line style="stroke:#181818;stroke-width:0.5;" x1="462" x2="736" y1="269.5" y2="269.5"/><line style="stroke:#181818;stroke-width:0.5;" x1="462" x2="736" y1="277.5" y2="277.5"/><ellipse cx="472" cy="291.8047" fill="#84BE84" rx="3" ry="3" style="stroke:#038048;stroke-width:1.0;"/><text fill="#000000" font-family="sans-serif" font-size="14" lengthAdjust="spacing" textLength="250" x="481" y="296.0332">TrainTestBase(int, MultiLabelInstances)</text><ellipse cx="472" cy="309.4141" fill="#84BE84" rx="3" ry="3" style="stroke:#038048;stroke-width:1.0;"/><text fill="#000000" font-family="sans-serif" font-size="14" lengthAdjust="spacing" textLength="227" x="481" y="313.6426">TrainTestBase(MultiLabelInstances)</text><ellipse cx="472" cy="327.0234" fill="#84BE84" rx="3" ry="3" style="stroke:#038048;stroke-width:1.0;"/><text fill="#000000" font-family="sans-serif" font-size="14" font-style="italic" lengthAdjust="spacing" textLength="220" x="481" y="331.252">split(double): MultiLabelInstances[]</text></g></a><!--MD5=[d67977997f15dbde695976c4e5f2afc8]
reverse link miml.data.partitioning.PartitionerBase to miml.data.partitioning.CrossValidationBase--><g id="link_miml.data.partitioning.PartitionerBase_miml.data.partitioning.CrossValidationBase"><path codeLine="24" d="M337.46,174.15 C322.35,189.18 306.48,204.96 291.56,219.81 " fill="none" id="miml.data.partitioning.PartitionerBase-backto-miml.data.partitioning.CrossValidationBase" style="stroke:#181818;stroke-width:1.0;"/><polygon fill="none" points="332.54,169.17,351.66,160.03,342.41,179.09,332.54,169.17" style="stroke:#181818;stroke-width:1.0;"/></g><!--MD5=[b339d1df1a8111669b84c1bddc053ece]
reverse link miml.data.partitioning.PartitionerBase to miml.data.partitioning.TrainTestBase--><g id="link_miml.data.partitioning.PartitionerBase_miml.data.partitioning.TrainTestBase"><path codeLine="25" d="M483.58,174.02 C505.2,195.18 528.35,217.85 548.21,237.28 " fill="none" id="miml.data.partitioning.PartitionerBase-backto-miml.data.partitioning.TrainTestBase" style="stroke:#181818;stroke-width:1.0;"/><polygon fill="none" points="478.68,179.02,469.28,160.03,488.47,169.02,478.68,179.02" style="stroke:#181818;stroke-width:1.0;"/></g><rect fill="none" height="12.5781" style="stroke:none;stroke-width:1.0;" width="190" x="278" y="378"/><text fill="#888888" font-family="sans-serif" font-size="10" lengthAdjust="spacing" textLength="190" x="278" y="388.3809">UMLDoclet 2.0.20, PlantUML 1.2022.12</text><!--MD5=[84366f386c89494422bc8e0c43994a2e]
@startuml
    namespace miml.data.partitioning {

        abstract class CrossValidationBase [[CrossValidationBase.html]] {
            +CrossValidationBase(int, MultiLabelInstances)
            +CrossValidationBase(MultiLabelInstances)
            +getRounds(int): MultiLabelInstances[]
            {static} +foldsToRounds(MultiLabelInstances[]): MultiLabelInstances[]
            {abstract} +getFolds(int): MultiLabelInstances[]
        }

        abstract class PartitionerBase [[PartitionerBase.html]] {
            #seed: int
            #workingSet: MultiLabelInstances
            +PartitionerBase(MultiLabelInstances)
            +PartitionerBase(int, MultiLabelInstances)
        }

        abstract class TrainTestBase [[TrainTestBase.html]] {
            +TrainTestBase(int, MultiLabelInstances)
            +TrainTestBase(MultiLabelInstances)
            {abstract} +split(double): MultiLabelInstances[]
        }

        PartitionerBase <|- - CrossValidationBase
        PartitionerBase <|- - TrainTestBase
    }

    center footer UMLDoclet 2.0.20, PlantUML 1.2022.12
@enduml

PlantUML version 1.2022.12(Sun Oct 23 20:12:26 CEST 2022)
(APACHE source distribution)
Java Runtime: OpenJDK Runtime Environment
JVM: OpenJDK 64-Bit Server VM
Default Encoding: Cp1252
Language: es
Country: ES
--></g></svg>