<?xml version="1.0" encoding="UTF-8" standalone="no"?><svg xmlns="http://www.w3.org/2000/svg" xmlns:xlink="http://www.w3.org/1999/xlink" contentStyleType="text/css" height="161px" preserveAspectRatio="none" style="width:301px;height:161px;background:#FFFFFF;" version="1.1" viewBox="0 0 301 161" width="301px" zoomAndPan="magnify"><defs/><g><!--MD5=[59f42373194f522e87bade832f12f3db]
class miml.data.partitioning.PartitionerBase--><a href="PartitionerBase.html" target="_top" title="PartitionerBase.html" xlink:actuate="onRequest" xlink:href="PartitionerBase.html" xlink:show="new" xlink:title="PartitionerBase.html" xlink:type="simple"><g id="elem_miml.data.partitioning.PartitionerBase"><rect codeLine="5" fill="#F1F1F1" height="126.625" id="miml.data.partitioning.PartitionerBase" rx="2.5" ry="2.5" style="stroke:#181818;stroke-width:0.5;" width="280" x="7" y="7"/><ellipse cx="92.25" cy="27.0938" fill="#A9DCDF" rx="11" ry="11" style="stroke:#181818;stroke-width:1.0;"/><path d="M94.4375,28.8594 L90.2969,28.8594 L89.875,29.8906 L90.2969,29.8906 Q90.9063,29.8906 91.1719,30.125 Q91.4375,30.3594 91.4375,30.75 Q91.4375,31.125 91.1719,31.3594 Q90.9063,31.5938 90.2969,31.5938 L88,31.5938 Q87.3906,31.5938 87.1406,31.3594 Q86.875,31.125 86.875,30.7344 Q86.875,30.3594 87.1563,30.125 Q87.4219,29.875 88.0469,29.8906 L90.7188,23.2344 L89.6094,23.2344 Q89,23.2344 88.7344,23 Q88.4688,22.7656 88.4688,22.375 Q88.4688,22 88.7344,21.7656 Q89,21.5313 89.6094,21.5313 L93.2813,21.5313 L96.6719,29.8906 Q97.2656,29.8906 97.4531,30.0313 Q97.8438,30.2969 97.8438,30.75 Q97.8438,31.125 97.5781,31.3594 Q97.3281,31.5938 96.7188,31.5938 L94.4219,31.5938 Q93.8125,31.5938 93.5469,31.3594 Q93.2813,31.125 93.2813,30.7344 Q93.2813,30.3594 93.5469,30.125 Q93.8125,29.8906 94.4219,29.8906 L94.8438,29.8906 L94.4375,28.8594 Z M93.7188,27.1563 L92.3594,23.7813 L90.9844,27.1563 L93.7188,27.1563 Z " fill="#000000"/><text fill="#000000" font-family="sans-serif" font-size="14" font-style="italic" lengthAdjust="spacing" textLength="97" x="114.75" y="26.5332">PartitionerBase</text><text fill="#000000" font-family="sans-serif" font-size="10" font-style="italic" lengthAdjust="spacing" textLength="101" x="112.75" y="39.9902">miml.data.partitioning</text><line style="stroke:#181818;stroke-width:0.5;" x1="8" x2="286" y1="47.1875" y2="47.1875"/><polygon fill="none" points="18,56.4922,22,60.4922,18,64.4922,14,60.4922" style="stroke:#B38D22;stroke-width:1.0;"/><text fill="#000000" font-family="sans-serif" font-size="14" lengthAdjust="spacing" textLength="54" x="27" y="65.7207">seed: int</text><polygon fill="none" points="18,74.1016,22,78.1016,18,82.1016,14,78.1016" style="stroke:#B38D22;stroke-width:1.0;"/><text fill="#000000" font-family="sans-serif" font-size="14" lengthAdjust="spacing" textLength="201" x="27" y="83.3301">workingSet: MultiLabelInstances</text><line style="stroke:#181818;stroke-width:0.5;" x1="8" x2="286" y1="90.4063" y2="90.4063"/><ellipse cx="18" cy="104.7109" fill="#84BE84" rx="3" ry="3" style="stroke:#038048;stroke-width:1.0;"/><text fill="#000000" font-family="sans-serif" font-size="14" lengthAdjust="spacing" textLength="231" x="27" y="108.9395">PartitionerBase(MultiLabelInstances)</text><ellipse cx="18" cy="122.3203" fill="#84BE84" rx="3" ry="3" style="stroke:#038048;stroke-width:1.0;"/><text fill="#000000" font-family="sans-serif" font-size="14" lengthAdjust="spacing" textLength="254" x="27" y="126.5488">PartitionerBase(int, MultiLabelInstances)</text></g></a><rect fill="none" height="12.5781" style="stroke:none;stroke-width:1.0;" width="190" x="51.5" y="140.625"/><text fill="#888888" font-family="sans-serif" font-size="10" lengthAdjust="spacing" textLength="190" x="51.5" y="151.0059">UMLDoclet 2.0.20, PlantUML 1.2022.12</text><!--MD5=[683aa6884c2baf1ff33c44a60d431930]
@startuml
    set namespaceSeparator none
    hide empty fields
    hide empty methods

    abstract class "<size:14>PartitionerBase\n<size:10>miml.data.partitioning" as miml.data.partitioning.PartitionerBase [[PartitionerBase.html]] {
        #seed: int
        #workingSet: MultiLabelInstances
        +PartitionerBase(MultiLabelInstances)
        +PartitionerBase(int, MultiLabelInstances)
    }

    center footer UMLDoclet 2.0.20, PlantUML 1.2022.12
@enduml

PlantUML version 1.2022.12(Sun Oct 23 20:12:26 CEST 2022)
(APACHE source distribution)
Java Runtime: OpenJDK Runtime Environment
JVM: OpenJDK 64-Bit Server VM
Default Encoding: Cp1252
Language: es
Country: ES
--></g></svg>