<?xml version="1.0" encoding="UTF-8" standalone="no"?><svg xmlns="http://www.w3.org/2000/svg" xmlns:xlink="http://www.w3.org/1999/xlink" contentStyleType="text/css" height="234px" preserveAspectRatio="none" style="width:290px;height:234px;background:#FFFFFF;" version="1.1" viewBox="0 0 290 234" width="290px" zoomAndPan="magnify"><defs/><g><!--MD5=[43ba56182bfb4eb2087e6ff5152dd96d]
class miml.data.partitioning.TrainTestBase--><a href="TrainTestBase.html" target="_top" title="TrainTestBase.html" xlink:actuate="onRequest" xlink:href="TrainTestBase.html" xlink:show="new" xlink:title="TrainTestBase.html" xlink:type="simple"><g id="elem_miml.data.partitioning.TrainTestBase"><rect codeLine="5" fill="#F1F1F1" height="101.0156" id="miml.data.partitioning.TrainTestBase" rx="2.5" ry="2.5" style="stroke:#181818;stroke-width:0.5;" width="276" x="7" y="107"/><ellipse cx="90.25" cy="127.0938" fill="#A9DCDF" rx="11" ry="11" style="stroke:#181818;stroke-width:1.0;"/><path d="M92.4375,128.8594 L88.2969,128.8594 L87.875,129.8906 L88.2969,129.8906 Q88.9063,129.8906 89.1719,130.125 Q89.4375,130.3594 89.4375,130.75 Q89.4375,131.125 89.1719,131.3594 Q88.9063,131.5938 88.2969,131.5938 L86,131.5938 Q85.3906,131.5938 85.1406,131.3594 Q84.875,131.125 84.875,130.7344 Q84.875,130.3594 85.1563,130.125 Q85.4219,129.875 86.0469,129.8906 L88.7188,123.2344 L87.6094,123.2344 Q87,123.2344 86.7344,123 Q86.4688,122.7656 86.4688,122.375 Q86.4688,122 86.7344,121.7656 Q87,121.5313 87.6094,121.5313 L91.2813,121.5313 L94.6719,129.8906 Q95.2656,129.8906 95.4531,130.0313 Q95.8438,130.2969 95.8438,130.75 Q95.8438,131.125 95.5781,131.3594 Q95.3281,131.5938 94.7188,131.5938 L92.4219,131.5938 Q91.8125,131.5938 91.5469,131.3594 Q91.2813,131.125 91.2813,130.7344 Q91.2813,130.3594 91.5469,130.125 Q91.8125,129.8906 92.4219,129.8906 L92.8438,129.8906 L92.4375,128.8594 Z M91.7188,127.1563 L90.3594,123.7813 L88.9844,127.1563 L91.7188,127.1563 Z " fill="#000000"/><text fill="#000000" font-family="sans-serif" font-size="14" font-style="italic" lengthAdjust="spacing" textLength="93" x="114.75" y="126.5332">TrainTestBase</text><text fill="#000000" font-family="sans-serif" font-size="10" font-style="italic" lengthAdjust="spacing" textLength="101" x="110.75" y="139.9902">miml.data.partitioning</text><line style="stroke:#181818;stroke-width:0.5;" x1="8" x2="282" y1="147.1875" y2="147.1875"/><ellipse cx="18" cy="161.4922" fill="#84BE84" rx="3" ry="3" style="stroke:#038048;stroke-width:1.0;"/><text fill="#000000" font-family="sans-serif" font-size="14" lengthAdjust="spacing" textLength="250" x="27" y="165.7207">TrainTestBase(int, MultiLabelInstances)</text><ellipse cx="18" cy="179.1016" fill="#84BE84" rx="3" ry="3" style="stroke:#038048;stroke-width:1.0;"/><text fill="#000000" font-family="sans-serif" font-size="14" lengthAdjust="spacing" textLength="227" x="27" y="183.3301">TrainTestBase(MultiLabelInstances)</text><ellipse cx="18" cy="196.7109" fill="#84BE84" rx="3" ry="3" style="stroke:#038048;stroke-width:1.0;"/><text fill="#000000" font-family="sans-serif" font-size="14" font-style="italic" lengthAdjust="spacing" textLength="220" x="27" y="200.9395">split(double): MultiLabelInstances[]</text></g></a><!--MD5=[59f42373194f522e87bade832f12f3db]
class miml.data.partitioning.PartitionerBase--><a href="PartitionerBase.html" target="_top" title="PartitionerBase.html" xlink:actuate="onRequest" xlink:href="PartitionerBase.html" xlink:show="new" xlink:title="PartitionerBase.html" xlink:type="simple"><g id="elem_miml.data.partitioning.PartitionerBase"><rect codeLine="11" fill="#F1F1F1" height="40.1875" id="miml.data.partitioning.PartitionerBase" rx="2.5" ry="2.5" style="stroke:#181818;stroke-width:0.5;" width="133" x="78.5" y="7"/><ellipse cx="93.5" cy="27.0938" fill="#A9DCDF" rx="11" ry="11" style="stroke:#181818;stroke-width:1.0;"/><path d="M95.6875,28.8594 L91.5469,28.8594 L91.125,29.8906 L91.5469,29.8906 Q92.1563,29.8906 92.4219,30.125 Q92.6875,30.3594 92.6875,30.75 Q92.6875,31.125 92.4219,31.3594 Q92.1563,31.5938 91.5469,31.5938 L89.25,31.5938 Q88.6406,31.5938 88.3906,31.3594 Q88.125,31.125 88.125,30.7344 Q88.125,30.3594 88.4063,30.125 Q88.6719,29.875 89.2969,29.8906 L91.9688,23.2344 L90.8594,23.2344 Q90.25,23.2344 89.9844,23 Q89.7188,22.7656 89.7188,22.375 Q89.7188,22 89.9844,21.7656 Q90.25,21.5313 90.8594,21.5313 L94.5313,21.5313 L97.9219,29.8906 Q98.5156,29.8906 98.7031,30.0313 Q99.0938,30.2969 99.0938,30.75 Q99.0938,31.125 98.8281,31.3594 Q98.5781,31.5938 97.9688,31.5938 L95.6719,31.5938 Q95.0625,31.5938 94.7969,31.3594 Q94.5313,31.125 94.5313,30.7344 Q94.5313,30.3594 94.7969,30.125 Q95.0625,29.8906 95.6719,29.8906 L96.0938,29.8906 L95.6875,28.8594 Z M94.9688,27.1563 L93.6094,23.7813 L92.2344,27.1563 L94.9688,27.1563 Z " fill="#000000"/><text fill="#000000" font-family="sans-serif" font-size="14" font-style="italic" lengthAdjust="spacing" textLength="97" x="109.5" y="26.5332">PartitionerBase</text><text fill="#000000" font-family="sans-serif" font-size="10" font-style="italic" lengthAdjust="spacing" textLength="101" x="107.5" y="39.9902">miml.data.partitioning</text></g></a><!--MD5=[b339d1df1a8111669b84c1bddc053ece]
reverse link miml.data.partitioning.PartitionerBase to miml.data.partitioning.TrainTestBase--><g id="link_miml.data.partitioning.PartitionerBase_miml.data.partitioning.TrainTestBase"><path codeLine="13" d="M145,67.52 C145,79.94 145,93.82 145,106.84 " fill="none" id="miml.data.partitioning.PartitionerBase-backto-miml.data.partitioning.TrainTestBase" style="stroke:#181818;stroke-width:1.0;"/><polygon fill="none" points="138,67.24,145,47.24,152,67.24,138,67.24" style="stroke:#181818;stroke-width:1.0;"/></g><rect fill="none" height="12.5781" style="stroke:none;stroke-width:1.0;" width="190" x="43" y="214.0156"/><text fill="#888888" font-family="sans-serif" font-size="10" lengthAdjust="spacing" textLength="190" x="43" y="224.3965">UMLDoclet 2.0.20, PlantUML 1.2022.12</text><!--MD5=[98f3940f8a5f6340f6cf33b20e1aed32]
@startuml
    set namespaceSeparator none
    hide empty fields
    hide empty methods

    abstract class "<size:14>TrainTestBase\n<size:10>miml.data.partitioning" as miml.data.partitioning.TrainTestBase [[TrainTestBase.html]] {
        +TrainTestBase(int, MultiLabelInstances)
        +TrainTestBase(MultiLabelInstances)
        {abstract} +split(double): MultiLabelInstances[]
    }

    abstract class "<size:14>PartitionerBase\n<size:10>miml.data.partitioning" as miml.data.partitioning.PartitionerBase [[PartitionerBase.html]]

    miml.data.partitioning.PartitionerBase <|- - miml.data.partitioning.TrainTestBase

    center footer UMLDoclet 2.0.20, PlantUML 1.2022.12
@enduml

PlantUML version 1.2022.12(Sun Oct 23 20:12:26 CEST 2022)
(APACHE source distribution)
Java Runtime: OpenJDK Runtime Environment
JVM: OpenJDK 64-Bit Server VM
Default Encoding: Cp1252
Language: es
Country: ES
--></g></svg>