<?xml version="1.0" encoding="UTF-8" standalone="no"?><svg xmlns="http://www.w3.org/2000/svg" xmlns:xlink="http://www.w3.org/1999/xlink" contentStyleType="text/css" height="673px" preserveAspectRatio="none" style="width:375px;height:673px;background:#FFFFFF;" version="1.1" viewBox="0 0 375 673" width="375px" zoomAndPan="magnify"><defs/><g><!--MD5=[eb9166ffc45803a0404a82040f4611e0]
class miml.classifiers.miml.meta.MIMLBagging--><a href="MIMLBagging.html" target="_top" title="MIMLBagging.html" xlink:actuate="onRequest" xlink:href="MIMLBagging.html" xlink:show="new" xlink:title="MIMLBagging.html" xlink:type="simple"><g id="elem_miml.classifiers.miml.meta.MIMLBagging"><rect codeLine="5" fill="#F1F1F1" height="496.4219" id="miml.classifiers.miml.meta.MIMLBagging" rx="2.5" ry="2.5" style="stroke:#181818;stroke-width:0.5;" width="353" x="12" y="150"/><ellipse cx="121.25" cy="170.0938" fill="#ADD1B2" rx="11" ry="11" style="stroke:#181818;stroke-width:1.0;"/><path d="M124.0156,165.9688 Q124.1719,165.75 124.3594,165.6406 Q124.5469,165.5313 124.7656,165.5313 Q125.1406,165.5313 125.375,165.7969 Q125.6094,166.0469 125.6094,166.6563 L125.6094,168.1094 Q125.6094,168.7188 125.375,168.9844 Q125.1406,169.25 124.7656,169.25 Q124.4219,169.25 124.2188,169.0469 Q124.0156,168.8594 123.9063,168.3438 Q123.8594,167.9844 123.6719,167.7969 Q123.3438,167.4219 122.7344,167.2031 Q122.125,166.9844 121.5,166.9844 Q120.7344,166.9844 120.0938,167.3125 Q119.4688,167.6406 118.9688,168.3906 Q118.4844,169.1406 118.4844,170.1719 L118.4844,171.2656 Q118.4844,172.5 119.375,173.3281 Q120.2656,174.1406 121.8594,174.1406 Q122.7969,174.1406 123.4531,173.8906 Q123.8438,173.7344 124.2656,173.2969 Q124.5313,173.0313 124.6719,172.9531 Q124.8281,172.875 125.0313,172.875 Q125.3594,172.875 125.6094,173.1406 Q125.875,173.3906 125.875,173.7344 Q125.875,174.0781 125.5313,174.4844 Q125.0313,175.0625 124.2344,175.3906 Q123.1563,175.8438 121.8594,175.8438 Q120.3438,175.8438 119.1406,175.2188 Q118.1563,174.7188 117.4688,173.6563 Q116.7813,172.5781 116.7813,171.2969 L116.7813,170.1406 Q116.7813,168.8125 117.3906,167.6719 Q118.0156,166.5156 119.1094,165.9063 Q120.2031,165.2813 121.4375,165.2813 Q122.1719,165.2813 122.8125,165.4531 Q123.4688,165.6094 124.0156,165.9688 Z " fill="#000000"/><text fill="#000000" font-family="sans-serif" font-size="14" lengthAdjust="spacing" textLength="85" x="162.25" y="169.5332">MIMLBagging</text><text fill="#000000" font-family="sans-serif" font-size="10" lengthAdjust="spacing" textLength="126" x="141.75" y="182.9902">miml.classifiers.miml.meta</text><line style="stroke:#181818;stroke-width:0.5;" x1="13" x2="364" y1="190.1875" y2="190.1875"/><rect fill="none" height="6" style="stroke:#C82930;stroke-width:1.0;" width="6" x="20" y="201.4922"/><text fill="#000000" font-family="sans-serif" font-size="14" lengthAdjust="spacing" text-decoration="underline" textLength="139" x="32" y="208.7207">serialVersionUID: long</text><polygon fill="none" points="23,217.1016,27,221.1016,23,225.1016,19,221.1016" style="stroke:#B38D22;stroke-width:1.0;"/><text fill="#000000" font-family="sans-serif" font-size="14" lengthAdjust="spacing" textLength="110" x="32" y="226.3301">threshold: double</text><polygon fill="none" points="23,234.7109,27,238.7109,23,242.7109,19,238.7109" style="stroke:#B38D22;stroke-width:1.0;"/><text fill="#000000" font-family="sans-serif" font-size="14" lengthAdjust="spacing" textLength="54" x="32" y="243.9395">seed: int</text><polygon fill="none" points="23,253.3203,19,259.3203,27,259.3203" style="stroke:#1963A0;stroke-width:1.0;"/><text fill="#000000" font-family="sans-serif" font-size="14" lengthAdjust="spacing" textLength="215" x="32" y="261.5488">sampleWithReplacement: boolean</text><polygon fill="none" points="23,270.9297,19,276.9297,27,276.9297" style="stroke:#1963A0;stroke-width:1.0;"/><text fill="#000000" font-family="sans-serif" font-size="14" lengthAdjust="spacing" textLength="161" x="32" y="279.1582">useConfidences: boolean</text><polygon fill="none" points="23,288.5391,19,294.5391,27,294.5391" style="stroke:#1963A0;stroke-width:1.0;"/><text fill="#000000" font-family="sans-serif" font-size="14" lengthAdjust="spacing" textLength="169" x="32" y="296.7676">samplePercentage: double</text><polygon fill="none" points="23,305.1484,27,309.1484,23,313.1484,19,309.1484" style="stroke:#B38D22;stroke-width:1.0;"/><text fill="#000000" font-family="sans-serif" font-size="14" lengthAdjust="spacing" textLength="115" x="32" y="314.377">numClassifiers: int</text><polygon fill="none" points="23,322.7578,27,326.7578,23,330.7578,19,326.7578" style="stroke:#B38D22;stroke-width:1.0;"/><text fill="#000000" font-family="sans-serif" font-size="14" lengthAdjust="spacing" textLength="183" x="32" y="331.9863">baseLearner: IMIMLClassifier</text><polygon fill="none" points="23,340.3672,27,344.3672,23,348.3672,19,344.3672" style="stroke:#B38D22;stroke-width:1.0;"/><text fill="#000000" font-family="sans-serif" font-size="14" lengthAdjust="spacing" textLength="171" x="32" y="349.5957">ensemble: IMIMLClassifier[]</text><line style="stroke:#181818;stroke-width:0.5;" x1="13" x2="364" y1="356.6719" y2="356.6719"/><ellipse cx="23" cy="370.9766" fill="#84BE84" rx="3" ry="3" style="stroke:#038048;stroke-width:1.0;"/><text fill="#000000" font-family="sans-serif" font-size="14" lengthAdjust="spacing" textLength="95" x="32" y="375.2051">MIMLBagging()</text><ellipse cx="23" cy="388.5859" fill="#84BE84" rx="3" ry="3" style="stroke:#038048;stroke-width:1.0;"/><text fill="#000000" font-family="sans-serif" font-size="14" lengthAdjust="spacing" textLength="212" x="32" y="392.8145">MIMLBagging(IMIMLClassifier, int)</text><ellipse cx="23" cy="406.1953" fill="#84BE84" rx="3" ry="3" style="stroke:#038048;stroke-width:1.0;"/><text fill="#000000" font-family="sans-serif" font-size="14" lengthAdjust="spacing" textLength="263" x="32" y="410.4238">MIMLBagging(IMIMLClassifier, int, double)</text><polygon fill="#FFFF44" points="23,418.8047,27,422.8047,23,426.8047,19,422.8047" style="stroke:#B38D22;stroke-width:1.0;"/><text fill="#000000" font-family="sans-serif" font-size="14" lengthAdjust="spacing" textLength="214" x="32" y="428.0332">buildInternal(MIMLInstances): void</text><polygon fill="#FFFF44" points="23,436.4141,27,440.4141,23,444.4141,19,440.4141" style="stroke:#B38D22;stroke-width:1.0;"/><text fill="#000000" font-family="sans-serif" font-size="14" lengthAdjust="spacing" textLength="327" x="32" y="445.6426">makePredictionInternal(MIMLBag): MultiLabelOutput</text><ellipse cx="23" cy="459.0234" fill="#84BE84" rx="3" ry="3" style="stroke:#038048;stroke-width:1.0;"/><text fill="#000000" font-family="sans-serif" font-size="14" lengthAdjust="spacing" textLength="188" x="32" y="463.252">configure(Configuration): void</text><ellipse cx="23" cy="476.6328" fill="#84BE84" rx="3" ry="3" style="stroke:#038048;stroke-width:1.0;"/><text fill="#000000" font-family="sans-serif" font-size="14" lengthAdjust="spacing" textLength="111" x="32" y="480.8613">setSeed(int): void</text><ellipse cx="23" cy="494.2422" fill="#84BE84" rx="3" ry="3" style="stroke:#038048;stroke-width:1.0;"/><text fill="#000000" font-family="sans-serif" font-size="14" lengthAdjust="spacing" textLength="146" x="32" y="498.4707">getNumClassifiers(): int</text><ellipse cx="23" cy="511.8516" fill="#84BE84" rx="3" ry="3" style="stroke:#038048;stroke-width:1.0;"/><text fill="#000000" font-family="sans-serif" font-size="14" lengthAdjust="spacing" textLength="201" x="32" y="516.0801">getSamplePercentage(): double</text><ellipse cx="23" cy="529.4609" fill="#84BE84" rx="3" ry="3" style="stroke:#038048;stroke-width:1.0;"/><text fill="#000000" font-family="sans-serif" font-size="14" lengthAdjust="spacing" textLength="226" x="32" y="533.6895">setSamplePercentage(double): void</text><ellipse cx="23" cy="547.0703" fill="#84BE84" rx="3" ry="3" style="stroke:#038048;stroke-width:1.0;"/><text fill="#000000" font-family="sans-serif" font-size="14" lengthAdjust="spacing" textLength="237" x="32" y="551.2988">isSampleWithReplacement(): boolean</text><ellipse cx="23" cy="564.6797" fill="#84BE84" rx="3" ry="3" style="stroke:#038048;stroke-width:1.0;"/><text fill="#000000" font-family="sans-serif" font-size="14" lengthAdjust="spacing" textLength="272" x="32" y="568.9082">setSampleWithReplacement(boolean): void</text><ellipse cx="23" cy="582.2891" fill="#84BE84" rx="3" ry="3" style="stroke:#038048;stroke-width:1.0;"/><text fill="#000000" font-family="sans-serif" font-size="14" lengthAdjust="spacing" textLength="145" x="32" y="586.5176">getThreshold(): double</text><ellipse cx="23" cy="599.8984" fill="#84BE84" rx="3" ry="3" style="stroke:#038048;stroke-width:1.0;"/><text fill="#000000" font-family="sans-serif" font-size="14" lengthAdjust="spacing" textLength="170" x="32" y="604.127">setThreshold(double): void</text><ellipse cx="23" cy="617.5078" fill="#84BE84" rx="3" ry="3" style="stroke:#038048;stroke-width:1.0;"/><text fill="#000000" font-family="sans-serif" font-size="14" lengthAdjust="spacing" textLength="182" x="32" y="621.7363">isUseConfidences(): boolean</text><ellipse cx="23" cy="635.1172" fill="#84BE84" rx="3" ry="3" style="stroke:#038048;stroke-width:1.0;"/><text fill="#000000" font-family="sans-serif" font-size="14" lengthAdjust="spacing" textLength="217" x="32" y="639.3457">setUseConfidences(boolean): void</text></g></a><!--MD5=[991e2d4b1b011fcbac8561f9fc322429]
class miml.classifiers.miml.MIMLClassifier--><a href="..\MIMLClassifier.html" target="_top" title="..\MIMLClassifier.html" xlink:actuate="onRequest" xlink:href="..\MIMLClassifier.html" xlink:show="new" xlink:title="..\MIMLClassifier.html" xlink:type="simple"><g id="elem_miml.classifiers.miml.MIMLClassifier"><rect codeLine="33" fill="#F1F1F1" height="83.4063" id="miml.classifiers.miml.MIMLClassifier" rx="2.5" ry="2.5" style="stroke:#181818;stroke-width:0.5;" width="359" x="9" y="7"/><ellipse cx="137.25" cy="27.0938" fill="#A9DCDF" rx="11" ry="11" style="stroke:#181818;stroke-width:1.0;"/><path d="M139.4375,28.8594 L135.2969,28.8594 L134.875,29.8906 L135.2969,29.8906 Q135.9063,29.8906 136.1719,30.125 Q136.4375,30.3594 136.4375,30.75 Q136.4375,31.125 136.1719,31.3594 Q135.9063,31.5938 135.2969,31.5938 L133,31.5938 Q132.3906,31.5938 132.1406,31.3594 Q131.875,31.125 131.875,30.7344 Q131.875,30.3594 132.1563,30.125 Q132.4219,29.875 133.0469,29.8906 L135.7188,23.2344 L134.6094,23.2344 Q134,23.2344 133.7344,23 Q133.4688,22.7656 133.4688,22.375 Q133.4688,22 133.7344,21.7656 Q134,21.5313 134.6094,21.5313 L138.2813,21.5313 L141.6719,29.8906 Q142.2656,29.8906 142.4531,30.0313 Q142.8438,30.2969 142.8438,30.75 Q142.8438,31.125 142.5781,31.3594 Q142.3281,31.5938 141.7188,31.5938 L139.4219,31.5938 Q138.8125,31.5938 138.5469,31.3594 Q138.2813,31.125 138.2813,30.7344 Q138.2813,30.3594 138.5469,30.125 Q138.8125,29.8906 139.4219,29.8906 L139.8438,29.8906 L139.4375,28.8594 Z M138.7188,27.1563 L137.3594,23.7813 L135.9844,27.1563 L138.7188,27.1563 Z " fill="#000000"/><text fill="#000000" font-family="sans-serif" font-size="14" font-style="italic" lengthAdjust="spacing" textLength="94" x="157.75" y="26.5332">MIMLClassifier</text><text fill="#000000" font-family="sans-serif" font-size="10" font-style="italic" lengthAdjust="spacing" textLength="93" x="158.25" y="39.9902">miml.classifiers.miml</text><line style="stroke:#181818;stroke-width:0.5;" x1="10" x2="367" y1="47.1875" y2="47.1875"/><polygon fill="#FFFF44" points="20,56.4922,24,60.4922,20,64.4922,16,60.4922" style="stroke:#B38D22;stroke-width:1.0;"/><text fill="#000000" font-family="sans-serif" font-size="14" font-style="italic" lengthAdjust="spacing" textLength="218" x="29" y="65.7207">buildInternal(MIMLInstances): void</text><polygon fill="#FFFF44" points="20,74.1016,24,78.1016,20,82.1016,16,78.1016" style="stroke:#B38D22;stroke-width:1.0;"/><text fill="#000000" font-family="sans-serif" font-size="14" font-style="italic" lengthAdjust="spacing" textLength="333" x="29" y="83.3301">makePredictionInternal(MIMLBag): MultiLabelOutput</text></g></a><!--MD5=[64b2eb24567bd13e1d97c52db4cf94bc]
reverse link miml.classifiers.miml.MIMLClassifier to miml.classifiers.miml.meta.MIMLBagging--><g id="link_miml.classifiers.miml.MIMLClassifier_miml.classifiers.miml.meta.MIMLBagging"><path codeLine="38" d="M188.5,110.27 C188.5,122.34 188.5,135.69 188.5,149.83 " fill="none" id="miml.classifiers.miml.MIMLClassifier-backto-miml.classifiers.miml.meta.MIMLBagging" style="stroke:#181818;stroke-width:1.0;"/><polygon fill="none" points="181.5,110.04,188.5,90.04,195.5,110.04,181.5,110.04" style="stroke:#181818;stroke-width:1.0;"/></g><rect fill="none" height="12.5781" style="stroke:none;stroke-width:1.0;" width="190" x="85.5" y="652.4219"/><text fill="#888888" font-family="sans-serif" font-size="10" lengthAdjust="spacing" textLength="190" x="85.5" y="662.8027">UMLDoclet 2.0.20, PlantUML 1.2022.12</text><!--MD5=[8bf3c9e586a30b0dae812cbbf9da32db]
@startuml
    set namespaceSeparator none
    hide empty fields
    hide empty methods

    class "<size:14>MIMLBagging\n<size:10>miml.classifiers.miml.meta" as miml.classifiers.miml.meta.MIMLBagging [[MIMLBagging.html]] {
        {static} -serialVersionUID: long
        #threshold: double
        #seed: int
        ~sampleWithReplacement: boolean
        ~useConfidences: boolean
        ~samplePercentage: double
        #numClassifiers: int
        #baseLearner: IMIMLClassifier
        #ensemble: IMIMLClassifier[]
        +MIMLBagging()
        +MIMLBagging(IMIMLClassifier, int)
        +MIMLBagging(IMIMLClassifier, int, double)
        #buildInternal(MIMLInstances): void
        #makePredictionInternal(MIMLBag): MultiLabelOutput
        +configure(Configuration): void
        +setSeed(int): void
        +getNumClassifiers(): int
        +getSamplePercentage(): double
        +setSamplePercentage(double): void
        +isSampleWithReplacement(): boolean
        +setSampleWithReplacement(boolean): void
        +getThreshold(): double
        +setThreshold(double): void
        +isUseConfidences(): boolean
        +setUseConfidences(boolean): void
    }

    abstract class "<size:14>MIMLClassifier\n<size:10>miml.classifiers.miml" as miml.classifiers.miml.MIMLClassifier [[..\MIMLClassifier.html]] {
        {abstract} #buildInternal(MIMLInstances): void
        {abstract} #makePredictionInternal(MIMLBag): MultiLabelOutput
    }

    miml.classifiers.miml.MIMLClassifier <|- - miml.classifiers.miml.meta.MIMLBagging

    center footer UMLDoclet 2.0.20, PlantUML 1.2022.12
@enduml

PlantUML version 1.2022.12(Sun Oct 23 20:12:26 CEST 2022)
(APACHE source distribution)
Java Runtime: OpenJDK Runtime Environment
JVM: OpenJDK 64-Bit Server VM
Default Encoding: Cp1252
Language: es
Country: ES
--></g></svg>