<?xml version="1.0" encoding="UTF-8" standalone="no"?><svg xmlns="http://www.w3.org/2000/svg" xmlns:xlink="http://www.w3.org/1999/xlink" contentStyleType="text/css" height="854px" preserveAspectRatio="none" style="width:405px;height:854px;background:#FFFFFF;" version="1.1" viewBox="0 0 405 854" width="405px" zoomAndPan="magnify"><defs/><g><!--MD5=[2de1498247dc4341d6c911d0ef8f404f]
cluster miml.classifiers.miml.meta--><g id="cluster_miml.classifiers.miml.meta"><path d="M11.5,288 L194.5,288 A3.75,3.75 0 0 1 197,290.5 L204,311.6094 L392.5,311.6094 A2.5,2.5 0 0 1 395,314.1094 L395,825.5 A2.5,2.5 0 0 1 392.5,828 L11.5,828 A2.5,2.5 0 0 1 9,825.5 L9,290.5 A2.5,2.5 0 0 1 11.5,288 " fill="none" style="stroke:#000000;stroke-width:1.5;"/><line style="stroke:#000000;stroke-width:1.5;" x1="9" x2="204" y1="311.6094" y2="311.6094"/><text fill="#000000" font-family="sans-serif" font-size="14" font-weight="bold" lengthAdjust="spacing" textLength="182" x="13" y="304.5332">miml.classifiers.miml.meta</text></g><!--MD5=[5ea508e6e8d0b42a39d8ea5f6e56fa35]
cluster miml.classifiers.miml--><g id="cluster_miml.classifiers.miml"><path d="M8.5,6 L153.5,6 A3.75,3.75 0 0 1 156,8.5 L163,29.6094 L395.5,29.6094 A2.5,2.5 0 0 1 398,32.1094 L398,261.5 A2.5,2.5 0 0 1 395.5,264 L8.5,264 A2.5,2.5 0 0 1 6,261.5 L6,8.5 A2.5,2.5 0 0 1 8.5,6 " fill="none" style="stroke:#000000;stroke-width:1.5;"/><line style="stroke:#000000;stroke-width:1.5;" x1="6" x2="163" y1="29.6094" y2="29.6094"/><text fill="#000000" font-family="sans-serif" font-size="14" font-weight="bold" lengthAdjust="spacing" textLength="144" x="10" y="22.5332">miml.classifiers.miml</text></g><!--MD5=[eb9166ffc45803a0404a82040f4611e0]
class miml.classifiers.miml.meta.MIMLBagging--><a href="MIMLBagging.html" target="_top" title="MIMLBagging.html" xlink:actuate="onRequest" xlink:href="MIMLBagging.html" xlink:show="new" xlink:title="MIMLBagging.html" xlink:type="simple"><g id="elem_miml.classifiers.miml.meta.MIMLBagging"><rect codeLine="3" fill="#F1F1F1" height="488.2344" id="miml.classifiers.miml.meta.MIMLBagging" rx="2.5" ry="2.5" style="stroke:#181818;stroke-width:0.5;" width="353" x="25.5" y="324"/><ellipse cx="155.25" cy="340" fill="#ADD1B2" rx="11" ry="11" style="stroke:#181818;stroke-width:1.0;"/><path d="M158.0156,335.875 Q158.1719,335.6563 158.3594,335.5469 Q158.5469,335.4375 158.7656,335.4375 Q159.1406,335.4375 159.375,335.7031 Q159.6094,335.9531 159.6094,336.5625 L159.6094,338.0156 Q159.6094,338.625 159.375,338.8906 Q159.1406,339.1563 158.7656,339.1563 Q158.4219,339.1563 158.2188,338.9531 Q158.0156,338.7656 157.9063,338.25 Q157.8594,337.8906 157.6719,337.7031 Q157.3438,337.3281 156.7344,337.1094 Q156.125,336.8906 155.5,336.8906 Q154.7344,336.8906 154.0938,337.2188 Q153.4688,337.5469 152.9688,338.2969 Q152.4844,339.0469 152.4844,340.0781 L152.4844,341.1719 Q152.4844,342.4063 153.375,343.2344 Q154.2656,344.0469 155.8594,344.0469 Q156.7969,344.0469 157.4531,343.7969 Q157.8438,343.6406 158.2656,343.2031 Q158.5313,342.9375 158.6719,342.8594 Q158.8281,342.7813 159.0313,342.7813 Q159.3594,342.7813 159.6094,343.0469 Q159.875,343.2969 159.875,343.6406 Q159.875,343.9844 159.5313,344.3906 Q159.0313,344.9688 158.2344,345.2969 Q157.1563,345.75 155.8594,345.75 Q154.3438,345.75 153.1406,345.125 Q152.1563,344.625 151.4688,343.5625 Q150.7813,342.4844 150.7813,341.2031 L150.7813,340.0469 Q150.7813,338.7188 151.3906,337.5781 Q152.0156,336.4219 153.1094,335.8125 Q154.2031,335.1875 155.4375,335.1875 Q156.1719,335.1875 156.8125,335.3594 Q157.4688,335.5156 158.0156,335.875 Z " fill="#000000"/><text fill="#000000" font-family="sans-serif" font-size="14" lengthAdjust="spacing" textLength="85" x="175.75" y="345.7285">MIMLBagging</text><line style="stroke:#181818;stroke-width:0.5;" x1="26.5" x2="377.5" y1="356" y2="356"/><rect fill="none" height="6" style="stroke:#C82930;stroke-width:1.0;" width="6" x="33.5" y="367.3047"/><text fill="#000000" font-family="sans-serif" font-size="14" lengthAdjust="spacing" text-decoration="underline" textLength="139" x="45.5" y="374.5332">serialVersionUID: long</text><polygon fill="none" points="36.5,382.9141,40.5,386.9141,36.5,390.9141,32.5,386.9141" style="stroke:#B38D22;stroke-width:1.0;"/><text fill="#000000" font-family="sans-serif" font-size="14" lengthAdjust="spacing" textLength="110" x="45.5" y="392.1426">threshold: double</text><polygon fill="none" points="36.5,400.5234,40.5,404.5234,36.5,408.5234,32.5,404.5234" style="stroke:#B38D22;stroke-width:1.0;"/><text fill="#000000" font-family="sans-serif" font-size="14" lengthAdjust="spacing" textLength="54" x="45.5" y="409.752">seed: int</text><polygon fill="none" points="36.5,419.1328,32.5,425.1328,40.5,425.1328" style="stroke:#1963A0;stroke-width:1.0;"/><text fill="#000000" font-family="sans-serif" font-size="14" lengthAdjust="spacing" textLength="215" x="45.5" y="427.3613">sampleWithReplacement: boolean</text><polygon fill="none" points="36.5,436.7422,32.5,442.7422,40.5,442.7422" style="stroke:#1963A0;stroke-width:1.0;"/><text fill="#000000" font-family="sans-serif" font-size="14" lengthAdjust="spacing" textLength="161" x="45.5" y="444.9707">useConfidences: boolean</text><polygon fill="none" points="36.5,454.3516,32.5,460.3516,40.5,460.3516" style="stroke:#1963A0;stroke-width:1.0;"/><text fill="#000000" font-family="sans-serif" font-size="14" lengthAdjust="spacing" textLength="169" x="45.5" y="462.5801">samplePercentage: double</text><polygon fill="none" points="36.5,470.9609,40.5,474.9609,36.5,478.9609,32.5,474.9609" style="stroke:#B38D22;stroke-width:1.0;"/><text fill="#000000" font-family="sans-serif" font-size="14" lengthAdjust="spacing" textLength="115" x="45.5" y="480.1895">numClassifiers: int</text><polygon fill="none" points="36.5,488.5703,40.5,492.5703,36.5,496.5703,32.5,492.5703" style="stroke:#B38D22;stroke-width:1.0;"/><text fill="#000000" font-family="sans-serif" font-size="14" lengthAdjust="spacing" textLength="183" x="45.5" y="497.7988">baseLearner: IMIMLClassifier</text><polygon fill="none" points="36.5,506.1797,40.5,510.1797,36.5,514.1797,32.5,510.1797" style="stroke:#B38D22;stroke-width:1.0;"/><text fill="#000000" font-family="sans-serif" font-size="14" lengthAdjust="spacing" textLength="171" x="45.5" y="515.4082">ensemble: IMIMLClassifier[]</text><line style="stroke:#181818;stroke-width:0.5;" x1="26.5" x2="377.5" y1="522.4844" y2="522.4844"/><ellipse cx="36.5" cy="536.7891" fill="#84BE84" rx="3" ry="3" style="stroke:#038048;stroke-width:1.0;"/><text fill="#000000" font-family="sans-serif" font-size="14" lengthAdjust="spacing" textLength="95" x="45.5" y="541.0176">MIMLBagging()</text><ellipse cx="36.5" cy="554.3984" fill="#84BE84" rx="3" ry="3" style="stroke:#038048;stroke-width:1.0;"/><text fill="#000000" font-family="sans-serif" font-size="14" lengthAdjust="spacing" textLength="212" x="45.5" y="558.627">MIMLBagging(IMIMLClassifier, int)</text><ellipse cx="36.5" cy="572.0078" fill="#84BE84" rx="3" ry="3" style="stroke:#038048;stroke-width:1.0;"/><text fill="#000000" font-family="sans-serif" font-size="14" lengthAdjust="spacing" textLength="263" x="45.5" y="576.2363">MIMLBagging(IMIMLClassifier, int, double)</text><polygon fill="#FFFF44" points="36.5,584.6172,40.5,588.6172,36.5,592.6172,32.5,588.6172" style="stroke:#B38D22;stroke-width:1.0;"/><text fill="#000000" font-family="sans-serif" font-size="14" lengthAdjust="spacing" textLength="214" x="45.5" y="593.8457">buildInternal(MIMLInstances): void</text><polygon fill="#FFFF44" points="36.5,602.2266,40.5,606.2266,36.5,610.2266,32.5,606.2266" style="stroke:#B38D22;stroke-width:1.0;"/><text fill="#000000" font-family="sans-serif" font-size="14" lengthAdjust="spacing" textLength="327" x="45.5" y="611.4551">makePredictionInternal(MIMLBag): MultiLabelOutput</text><ellipse cx="36.5" cy="624.8359" fill="#84BE84" rx="3" ry="3" style="stroke:#038048;stroke-width:1.0;"/><text fill="#000000" font-family="sans-serif" font-size="14" lengthAdjust="spacing" textLength="188" x="45.5" y="629.0645">configure(Configuration): void</text><ellipse cx="36.5" cy="642.4453" fill="#84BE84" rx="3" ry="3" style="stroke:#038048;stroke-width:1.0;"/><text fill="#000000" font-family="sans-serif" font-size="14" lengthAdjust="spacing" textLength="111" x="45.5" y="646.6738">setSeed(int): void</text><ellipse cx="36.5" cy="660.0547" fill="#84BE84" rx="3" ry="3" style="stroke:#038048;stroke-width:1.0;"/><text fill="#000000" font-family="sans-serif" font-size="14" lengthAdjust="spacing" textLength="146" x="45.5" y="664.2832">getNumClassifiers(): int</text><ellipse cx="36.5" cy="677.6641" fill="#84BE84" rx="3" ry="3" style="stroke:#038048;stroke-width:1.0;"/><text fill="#000000" font-family="sans-serif" font-size="14" lengthAdjust="spacing" textLength="201" x="45.5" y="681.8926">getSamplePercentage(): double</text><ellipse cx="36.5" cy="695.2734" fill="#84BE84" rx="3" ry="3" style="stroke:#038048;stroke-width:1.0;"/><text fill="#000000" font-family="sans-serif" font-size="14" lengthAdjust="spacing" textLength="226" x="45.5" y="699.502">setSamplePercentage(double): void</text><ellipse cx="36.5" cy="712.8828" fill="#84BE84" rx="3" ry="3" style="stroke:#038048;stroke-width:1.0;"/><text fill="#000000" font-family="sans-serif" font-size="14" lengthAdjust="spacing" textLength="237" x="45.5" y="717.1113">isSampleWithReplacement(): boolean</text><ellipse cx="36.5" cy="730.4922" fill="#84BE84" rx="3" ry="3" style="stroke:#038048;stroke-width:1.0;"/><text fill="#000000" font-family="sans-serif" font-size="14" lengthAdjust="spacing" textLength="272" x="45.5" y="734.7207">setSampleWithReplacement(boolean): void</text><ellipse cx="36.5" cy="748.1016" fill="#84BE84" rx="3" ry="3" style="stroke:#038048;stroke-width:1.0;"/><text fill="#000000" font-family="sans-serif" font-size="14" lengthAdjust="spacing" textLength="145" x="45.5" y="752.3301">getThreshold(): double</text><ellipse cx="36.5" cy="765.7109" fill="#84BE84" rx="3" ry="3" style="stroke:#038048;stroke-width:1.0;"/><text fill="#000000" font-family="sans-serif" font-size="14" lengthAdjust="spacing" textLength="170" x="45.5" y="769.9395">setThreshold(double): void</text><ellipse cx="36.5" cy="783.3203" fill="#84BE84" rx="3" ry="3" style="stroke:#038048;stroke-width:1.0;"/><text fill="#000000" font-family="sans-serif" font-size="14" lengthAdjust="spacing" textLength="182" x="45.5" y="787.5488">isUseConfidences(): boolean</text><ellipse cx="36.5" cy="800.9297" fill="#84BE84" rx="3" ry="3" style="stroke:#038048;stroke-width:1.0;"/><text fill="#000000" font-family="sans-serif" font-size="14" lengthAdjust="spacing" textLength="217" x="45.5" y="805.1582">setUseConfidences(boolean): void</text></g></a><!--MD5=[991e2d4b1b011fcbac8561f9fc322429]
class miml.classifiers.miml.MIMLClassifier--><a href="..\MIMLClassifier.html" target="_top" title="..\MIMLClassifier.html" xlink:actuate="onRequest" xlink:href="..\MIMLClassifier.html" xlink:show="new" xlink:title="..\MIMLClassifier.html" xlink:type="simple"><g id="elem_miml.classifiers.miml.MIMLClassifier"><rect codeLine="35" fill="#F1F1F1" height="206.4844" id="miml.classifiers.miml.MIMLClassifier" rx="2.5" ry="2.5" style="stroke:#181818;stroke-width:0.5;" width="359" x="22.5" y="42"/><ellipse cx="150.75" cy="58" fill="#A9DCDF" rx="11" ry="11" style="stroke:#181818;stroke-width:1.0;"/><path d="M152.9375,59.7656 L148.7969,59.7656 L148.375,60.7969 L148.7969,60.7969 Q149.4063,60.7969 149.6719,61.0313 Q149.9375,61.2656 149.9375,61.6563 Q149.9375,62.0313 149.6719,62.2656 Q149.4063,62.5 148.7969,62.5 L146.5,62.5 Q145.8906,62.5 145.6406,62.2656 Q145.375,62.0313 145.375,61.6406 Q145.375,61.2656 145.6563,61.0313 Q145.9219,60.7813 146.5469,60.7969 L149.2188,54.1406 L148.1094,54.1406 Q147.5,54.1406 147.2344,53.9063 Q146.9688,53.6719 146.9688,53.2813 Q146.9688,52.9063 147.2344,52.6719 Q147.5,52.4375 148.1094,52.4375 L151.7813,52.4375 L155.1719,60.7969 Q155.7656,60.7969 155.9531,60.9375 Q156.3438,61.2031 156.3438,61.6563 Q156.3438,62.0313 156.0781,62.2656 Q155.8281,62.5 155.2188,62.5 L152.9219,62.5 Q152.3125,62.5 152.0469,62.2656 Q151.7813,62.0313 151.7813,61.6406 Q151.7813,61.2656 152.0469,61.0313 Q152.3125,60.7969 152.9219,60.7969 L153.3438,60.7969 L152.9375,59.7656 Z M152.2188,58.0625 L150.8594,54.6875 L149.4844,58.0625 L152.2188,58.0625 Z " fill="#000000"/><text fill="#000000" font-family="sans-serif" font-size="14" font-style="italic" lengthAdjust="spacing" textLength="94" x="171.25" y="63.7285">MIMLClassifier</text><line style="stroke:#181818;stroke-width:0.5;" x1="23.5" x2="380.5" y1="74" y2="74"/><rect fill="none" height="6" style="stroke:#C82930;stroke-width:1.0;" width="6" x="30.5" y="85.3047"/><text fill="#000000" font-family="sans-serif" font-size="14" lengthAdjust="spacing" text-decoration="underline" textLength="139" x="42.5" y="92.5332">serialVersionUID: long</text><polygon fill="none" points="33.5,100.9141,37.5,104.9141,33.5,108.9141,29.5,104.9141" style="stroke:#B38D22;stroke-width:1.0;"/><text fill="#000000" font-family="sans-serif" font-size="14" lengthAdjust="spacing" textLength="164" x="42.5" y="110.1426">isModelInitialized: boolean</text><polygon fill="none" points="33.5,118.5234,37.5,122.5234,33.5,126.5234,29.5,122.5234" style="stroke:#B38D22;stroke-width:1.0;"/><text fill="#000000" font-family="sans-serif" font-size="14" lengthAdjust="spacing" textLength="92" x="42.5" y="127.752">numLabels: int</text><polygon fill="none" points="33.5,136.1328,37.5,140.1328,33.5,144.1328,29.5,140.1328" style="stroke:#B38D22;stroke-width:1.0;"/><text fill="#000000" font-family="sans-serif" font-size="14" lengthAdjust="spacing" textLength="105" x="42.5" y="145.3613">labelIndices: int[]</text><polygon fill="none" points="33.5,153.7422,37.5,157.7422,33.5,161.7422,29.5,157.7422" style="stroke:#B38D22;stroke-width:1.0;"/><text fill="#000000" font-family="sans-serif" font-size="14" lengthAdjust="spacing" textLength="126" x="42.5" y="162.9707">labelNames: String[]</text><polygon fill="none" points="33.5,171.3516,37.5,175.3516,33.5,179.3516,29.5,175.3516" style="stroke:#B38D22;stroke-width:1.0;"/><text fill="#000000" font-family="sans-serif" font-size="14" lengthAdjust="spacing" textLength="120" x="42.5" y="180.5801">featureIndices: int[]</text><rect fill="none" height="6" style="stroke:#C82930;stroke-width:1.0;" width="6" x="30.5" y="190.9609"/><text fill="#000000" font-family="sans-serif" font-size="14" lengthAdjust="spacing" textLength="111" x="42.5" y="198.1895">isDebug: boolean</text><line style="stroke:#181818;stroke-width:0.5;" x1="23.5" x2="380.5" y1="205.2656" y2="205.2656"/><polygon fill="#FFFF44" points="33.5,214.5703,37.5,218.5703,33.5,222.5703,29.5,218.5703" style="stroke:#B38D22;stroke-width:1.0;"/><text fill="#000000" font-family="sans-serif" font-size="14" font-style="italic" lengthAdjust="spacing" textLength="218" x="42.5" y="223.7988">buildInternal(MIMLInstances): void</text><polygon fill="#FFFF44" points="33.5,232.1797,37.5,236.1797,33.5,240.1797,29.5,236.1797" style="stroke:#B38D22;stroke-width:1.0;"/><text fill="#000000" font-family="sans-serif" font-size="14" font-style="italic" lengthAdjust="spacing" textLength="333" x="42.5" y="241.4082">makePredictionInternal(MIMLBag): MultiLabelOutput</text></g></a><!--MD5=[64b2eb24567bd13e1d97c52db4cf94bc]
reverse link miml.classifiers.miml.MIMLClassifier to miml.classifiers.miml.meta.MIMLBagging--><g id="link_miml.classifiers.miml.MIMLClassifier_miml.classifiers.miml.meta.MIMLBagging"><path codeLine="31" d="M202,268.44 C202,286.12 202,304.81 202,323.87 " fill="none" id="miml.classifiers.miml.MIMLClassifier-backto-miml.classifiers.miml.meta.MIMLBagging" style="stroke:#181818;stroke-width:1.0;"/><polygon fill="none" points="195,268.18,202,248.18,209,268.18,195,268.18" style="stroke:#181818;stroke-width:1.0;"/></g><rect fill="none" height="12.5781" style="stroke:none;stroke-width:1.0;" width="190" x="100.5" y="834"/><text fill="#888888" font-family="sans-serif" font-size="10" lengthAdjust="spacing" textLength="190" x="100.5" y="844.3809">UMLDoclet 2.0.20, PlantUML 1.2022.12</text><!--MD5=[686afbd89c7f051e5d3d00a47e1cbcf0]
@startuml
    namespace miml.classifiers.miml.meta {

        class MIMLBagging [[MIMLBagging.html]] {
            {static} -serialVersionUID: long
            #threshold: double
            #seed: int
            ~sampleWithReplacement: boolean
            ~useConfidences: boolean
            ~samplePercentage: double
            #numClassifiers: int
            #baseLearner: IMIMLClassifier
            #ensemble: IMIMLClassifier[]
            +MIMLBagging()
            +MIMLBagging(IMIMLClassifier, int)
            +MIMLBagging(IMIMLClassifier, int, double)
            #buildInternal(MIMLInstances): void
            #makePredictionInternal(MIMLBag): MultiLabelOutput
            +configure(Configuration): void
            +setSeed(int): void
            +getNumClassifiers(): int
            +getSamplePercentage(): double
            +setSamplePercentage(double): void
            +isSampleWithReplacement(): boolean
            +setSampleWithReplacement(boolean): void
            +getThreshold(): double
            +setThreshold(double): void
            +isUseConfidences(): boolean
            +setUseConfidences(boolean): void
        }

        miml.classifiers.miml.MIMLClassifier <|- - MIMLBagging
    }

    namespace miml.classifiers.miml {
        abstract class MIMLClassifier [[..\MIMLClassifier.html]] {
            {static} -serialVersionUID: long
            #isModelInitialized: boolean
            #numLabels: int
            #labelIndices: int[]
            #labelNames: String[]
            #featureIndices: int[]
            -isDebug: boolean
            {abstract} #buildInternal(MIMLInstances): void
            {abstract} #makePredictionInternal(MIMLBag): MultiLabelOutput
        }
    }

    center footer UMLDoclet 2.0.20, PlantUML 1.2022.12
@enduml

PlantUML version 1.2022.12(Sun Oct 23 20:12:26 CEST 2022)
(APACHE source distribution)
Java Runtime: OpenJDK Runtime Environment
JVM: OpenJDK 64-Bit Server VM
Default Encoding: Cp1252
Language: es
Country: ES
--></g></svg>