<?xml version="1.0" encoding="UTF-8" standalone="no"?><svg xmlns="http://www.w3.org/2000/svg" xmlns:xlink="http://www.w3.org/1999/xlink" contentStyleType="text/css" height="260px" preserveAspectRatio="none" style="width:282px;height:260px;background:#FFFFFF;" version="1.1" viewBox="0 0 282 260" width="282px" zoomAndPan="magnify"><defs/><g><!--MD5=[3debae13d0374aa0cbe5d776421a0572]
class miml.core.distance.AverageHausdorff--><a href="AverageHausdorff.html" target="_top" title="AverageHausdorff.html" xlink:actuate="onRequest" xlink:href="AverageHausdorff.html" xlink:show="new" xlink:title="AverageHausdorff.html" xlink:type="simple"><g id="elem_miml.core.distance.AverageHausdorff"><rect codeLine="5" fill="#F1F1F1" height="126.625" id="miml.core.distance.AverageHausdorff" rx="2.5" ry="2.5" style="stroke:#181818;stroke-width:0.5;" width="268" x="7" y="107"/><ellipse cx="79.75" cy="127.0938" fill="#ADD1B2" rx="11" ry="11" style="stroke:#181818;stroke-width:1.0;"/><path d="M82.5156,122.9688 Q82.6719,122.75 82.8594,122.6406 Q83.0469,122.5313 83.2656,122.5313 Q83.6406,122.5313 83.875,122.7969 Q84.1094,123.0469 84.1094,123.6563 L84.1094,125.1094 Q84.1094,125.7188 83.875,125.9844 Q83.6406,126.25 83.2656,126.25 Q82.9219,126.25 82.7188,126.0469 Q82.5156,125.8594 82.4063,125.3438 Q82.3594,124.9844 82.1719,124.7969 Q81.8438,124.4219 81.2344,124.2031 Q80.625,123.9844 80,123.9844 Q79.2344,123.9844 78.5938,124.3125 Q77.9688,124.6406 77.4688,125.3906 Q76.9844,126.1406 76.9844,127.1719 L76.9844,128.2656 Q76.9844,129.5 77.875,130.3281 Q78.7656,131.1406 80.3594,131.1406 Q81.2969,131.1406 81.9531,130.8906 Q82.3438,130.7344 82.7656,130.2969 Q83.0313,130.0313 83.1719,129.9531 Q83.3281,129.875 83.5313,129.875 Q83.8594,129.875 84.1094,130.1406 Q84.375,130.3906 84.375,130.7344 Q84.375,131.0781 84.0313,131.4844 Q83.5313,132.0625 82.7344,132.3906 Q81.6563,132.8438 80.3594,132.8438 Q78.8438,132.8438 77.6406,132.2188 Q76.6563,131.7188 75.9688,130.6563 Q75.2813,129.5781 75.2813,128.2969 L75.2813,127.1406 Q75.2813,125.8125 75.8906,124.6719 Q76.5156,123.5156 77.6094,122.9063 Q78.7031,122.2813 79.9375,122.2813 Q80.6719,122.2813 81.3125,122.4531 Q81.9688,122.6094 82.5156,122.9688 Z " fill="#000000"/><text fill="#000000" font-family="sans-serif" font-size="14" lengthAdjust="spacing" textLength="114" x="100.25" y="126.5332">AverageHausdorff</text><text fill="#000000" font-family="sans-serif" font-size="10" lengthAdjust="spacing" textLength="91" x="111.75" y="139.9902">miml.core.distance</text><line style="stroke:#181818;stroke-width:0.5;" x1="8" x2="274" y1="147.1875" y2="147.1875"/><rect fill="none" height="6" style="stroke:#C82930;stroke-width:1.0;" width="6" x="15" y="158.4922"/><text fill="#000000" font-family="sans-serif" font-size="14" lengthAdjust="spacing" text-decoration="underline" textLength="139" x="27" y="165.7207">serialVersionUID: long</text><line style="stroke:#181818;stroke-width:0.5;" x1="8" x2="274" y1="172.7969" y2="172.7969"/><ellipse cx="18" cy="187.1016" fill="#84BE84" rx="3" ry="3" style="stroke:#038048;stroke-width:1.0;"/><text fill="#000000" font-family="sans-serif" font-size="14" lengthAdjust="spacing" textLength="124" x="27" y="191.3301">AverageHausdorff()</text><ellipse cx="18" cy="204.7109" fill="#84BE84" rx="3" ry="3" style="stroke:#038048;stroke-width:1.0;"/><text fill="#000000" font-family="sans-serif" font-size="14" lengthAdjust="spacing" textLength="217" x="27" y="208.9395">AverageHausdorff(MIMLInstances)</text><ellipse cx="18" cy="222.3203" fill="#84BE84" rx="3" ry="3" style="stroke:#038048;stroke-width:1.0;"/><text fill="#000000" font-family="sans-serif" font-size="14" lengthAdjust="spacing" textLength="242" x="27" y="226.5488">distance(Instances, Instances): double</text></g></a><!--MD5=[e62b462aa7fbf2409e1c5904a30c0ac1]
class miml.core.distance.HausdorffDistance--><a href="HausdorffDistance.html" target="_top" title="HausdorffDistance.html" xlink:actuate="onRequest" xlink:href="HausdorffDistance.html" xlink:show="new" xlink:title="HausdorffDistance.html" xlink:type="simple"><g id="elem_miml.core.distance.HausdorffDistance"><rect codeLine="12" fill="#F1F1F1" height="40.1875" id="miml.core.distance.HausdorffDistance" rx="2.5" ry="2.5" style="stroke:#181818;stroke-width:0.5;" width="149" x="66.5" y="7"/><ellipse cx="81.5" cy="27.0938" fill="#A9DCDF" rx="11" ry="11" style="stroke:#181818;stroke-width:1.0;"/><path d="M83.6875,28.8594 L79.5469,28.8594 L79.125,29.8906 L79.5469,29.8906 Q80.1563,29.8906 80.4219,30.125 Q80.6875,30.3594 80.6875,30.75 Q80.6875,31.125 80.4219,31.3594 Q80.1563,31.5938 79.5469,31.5938 L77.25,31.5938 Q76.6406,31.5938 76.3906,31.3594 Q76.125,31.125 76.125,30.7344 Q76.125,30.3594 76.4063,30.125 Q76.6719,29.875 77.2969,29.8906 L79.9688,23.2344 L78.8594,23.2344 Q78.25,23.2344 77.9844,23 Q77.7188,22.7656 77.7188,22.375 Q77.7188,22 77.9844,21.7656 Q78.25,21.5313 78.8594,21.5313 L82.5313,21.5313 L85.9219,29.8906 Q86.5156,29.8906 86.7031,30.0313 Q87.0938,30.2969 87.0938,30.75 Q87.0938,31.125 86.8281,31.3594 Q86.5781,31.5938 85.9688,31.5938 L83.6719,31.5938 Q83.0625,31.5938 82.7969,31.3594 Q82.5313,31.125 82.5313,30.7344 Q82.5313,30.3594 82.7969,30.125 Q83.0625,29.8906 83.6719,29.8906 L84.0938,29.8906 L83.6875,28.8594 Z M82.9688,27.1563 L81.6094,23.7813 L80.2344,27.1563 L82.9688,27.1563 Z " fill="#000000"/><text fill="#000000" font-family="sans-serif" font-size="14" font-style="italic" lengthAdjust="spacing" textLength="117" x="95.5" y="26.5332">HausdorffDistance</text><text fill="#000000" font-family="sans-serif" font-size="10" font-style="italic" lengthAdjust="spacing" textLength="86" x="111" y="39.9902">miml.core.distance</text></g></a><!--MD5=[82d82f4aafbc5eac0ff98c2afbc77bec]
reverse link miml.core.distance.HausdorffDistance to miml.core.distance.AverageHausdorff--><g id="link_miml.core.distance.HausdorffDistance_miml.core.distance.AverageHausdorff"><path codeLine="14" d="M141,67.1 C141,79.43 141,93.38 141,106.92 " fill="none" id="miml.core.distance.HausdorffDistance-backto-miml.core.distance.AverageHausdorff" style="stroke:#181818;stroke-width:1.0;"/><polygon fill="none" points="134,67.08,141,47.08,148,67.08,134,67.08" style="stroke:#181818;stroke-width:1.0;"/></g><rect fill="none" height="12.5781" style="stroke:none;stroke-width:1.0;" width="190" x="39" y="239.625"/><text fill="#888888" font-family="sans-serif" font-size="10" lengthAdjust="spacing" textLength="190" x="39" y="250.0059">UMLDoclet 2.0.20, PlantUML 1.2022.12</text><!--MD5=[142758afda8106d0735fc6f49e0bf83c]
@startuml
    set namespaceSeparator none
    hide empty fields
    hide empty methods

    class "<size:14>AverageHausdorff\n<size:10>miml.core.distance" as miml.core.distance.AverageHausdorff [[AverageHausdorff.html]] {
        {static} -serialVersionUID: long
        +AverageHausdorff()
        +AverageHausdorff(MIMLInstances)
        +distance(Instances, Instances): double
    }

    abstract class "<size:14>HausdorffDistance\n<size:10>miml.core.distance" as miml.core.distance.HausdorffDistance [[HausdorffDistance.html]]

    miml.core.distance.HausdorffDistance <|- - miml.core.distance.AverageHausdorff

    center footer UMLDoclet 2.0.20, PlantUML 1.2022.12
@enduml

PlantUML version 1.2022.12(Sun Oct 23 20:12:26 CEST 2022)
(APACHE source distribution)
Java Runtime: OpenJDK Runtime Environment
JVM: OpenJDK 64-Bit Server VM
Default Encoding: Cp1252
Language: es
Country: ES
--></g></svg>