<?xml version="1.0" encoding="UTF-8" standalone="no"?><svg xmlns="http://www.w3.org/2000/svg" xmlns:xlink="http://www.w3.org/1999/xlink" contentStyleType="text/css" height="391px" preserveAspectRatio="none" style="width:284px;height:391px;background:#FFFFFF;" version="1.1" viewBox="0 0 284 391" width="284px" zoomAndPan="magnify"><defs/><g><!--MD5=[e62b462aa7fbf2409e1c5904a30c0ac1]
class miml.core.distance.HausdorffDistance--><a href="HausdorffDistance.html" target="_top" title="HausdorffDistance.html" xlink:actuate="onRequest" xlink:href="HausdorffDistance.html" xlink:show="new" xlink:title="HausdorffDistance.html" xlink:type="simple"><g id="elem_miml.core.distance.HausdorffDistance"><rect codeLine="5" fill="#F1F1F1" height="214.6719" id="miml.core.distance.HausdorffDistance" rx="2.5" ry="2.5" style="stroke:#181818;stroke-width:0.5;" width="264" x="10" y="150"/><ellipse cx="79.25" cy="170.0938" fill="#A9DCDF" rx="11" ry="11" style="stroke:#181818;stroke-width:1.0;"/><path d="M81.4375,171.8594 L77.2969,171.8594 L76.875,172.8906 L77.2969,172.8906 Q77.9063,172.8906 78.1719,173.125 Q78.4375,173.3594 78.4375,173.75 Q78.4375,174.125 78.1719,174.3594 Q77.9063,174.5938 77.2969,174.5938 L75,174.5938 Q74.3906,174.5938 74.1406,174.3594 Q73.875,174.125 73.875,173.7344 Q73.875,173.3594 74.1563,173.125 Q74.4219,172.875 75.0469,172.8906 L77.7188,166.2344 L76.6094,166.2344 Q76,166.2344 75.7344,166 Q75.4688,165.7656 75.4688,165.375 Q75.4688,165 75.7344,164.7656 Q76,164.5313 76.6094,164.5313 L80.2813,164.5313 L83.6719,172.8906 Q84.2656,172.8906 84.4531,173.0313 Q84.8438,173.2969 84.8438,173.75 Q84.8438,174.125 84.5781,174.3594 Q84.3281,174.5938 83.7188,174.5938 L81.4219,174.5938 Q80.8125,174.5938 80.5469,174.3594 Q80.2813,174.125 80.2813,173.7344 Q80.2813,173.3594 80.5469,173.125 Q80.8125,172.8906 81.4219,172.8906 L81.8438,172.8906 L81.4375,171.8594 Z M80.7188,170.1563 L79.3594,166.7813 L77.9844,170.1563 L80.7188,170.1563 Z " fill="#000000"/><text fill="#000000" font-family="sans-serif" font-size="14" font-style="italic" lengthAdjust="spacing" textLength="117" x="99.75" y="169.5332">HausdorffDistance</text><text fill="#000000" font-family="sans-serif" font-size="10" font-style="italic" lengthAdjust="spacing" textLength="86" x="115.25" y="182.9902">miml.core.distance</text><line style="stroke:#181818;stroke-width:0.5;" x1="11" x2="273" y1="190.1875" y2="190.1875"/><rect fill="none" height="6" style="stroke:#C82930;stroke-width:1.0;" width="6" x="18" y="201.4922"/><text fill="#000000" font-family="sans-serif" font-size="14" lengthAdjust="spacing" text-decoration="underline" textLength="139" x="30" y="208.7207">serialVersionUID: long</text><polygon fill="none" points="21,218.1016,17,224.1016,25,224.1016" style="stroke:#1963A0;stroke-width:1.0;"/><text fill="#000000" font-family="sans-serif" font-size="14" lengthAdjust="spacing" textLength="146" x="30" y="226.3301">dfun: DistanceFunction</text><polygon fill="none" points="21,235.7109,17,241.7109,25,241.7109" style="stroke:#1963A0;stroke-width:1.0;"/><text fill="#000000" font-family="sans-serif" font-size="14" lengthAdjust="spacing" textLength="117" x="30" y="243.9395">dataSet: Instances</text><line style="stroke:#181818;stroke-width:0.5;" x1="11" x2="273" y1="251.0156" y2="251.0156"/><ellipse cx="21" cy="265.3203" fill="#84BE84" rx="3" ry="3" style="stroke:#038048;stroke-width:1.0;"/><text fill="#000000" font-family="sans-serif" font-size="14" lengthAdjust="spacing" textLength="126" x="30" y="269.5488">HausdorffDistance()</text><ellipse cx="21" cy="282.9297" fill="#84BE84" rx="3" ry="3" style="stroke:#038048;stroke-width:1.0;"/><text fill="#000000" font-family="sans-serif" font-size="14" lengthAdjust="spacing" textLength="219" x="30" y="287.1582">HausdorffDistance(MIMLInstances)</text><ellipse cx="21" cy="300.5391" fill="#84BE84" rx="3" ry="3" style="stroke:#038048;stroke-width:1.0;"/><text fill="#000000" font-family="sans-serif" font-size="14" lengthAdjust="spacing" textLength="152" x="30" y="304.7676">hasInstances(): boolean</text><ellipse cx="21" cy="318.1484" fill="#84BE84" rx="3" ry="3" style="stroke:#038048;stroke-width:1.0;"/><text fill="#000000" font-family="sans-serif" font-size="14" lengthAdjust="spacing" textLength="238" x="30" y="322.377">distance(MIMLBag, MIMLBag): double</text><ellipse cx="21" cy="335.7578" fill="#84BE84" rx="3" ry="3" style="stroke:#038048;stroke-width:1.0;"/><text fill="#000000" font-family="sans-serif" font-size="14" lengthAdjust="spacing" textLength="216" x="30" y="339.9863">setInstances(MIMLInstances): void</text><ellipse cx="21" cy="353.3672" fill="#84BE84" rx="3" ry="3" style="stroke:#038048;stroke-width:1.0;"/><text fill="#000000" font-family="sans-serif" font-size="14" lengthAdjust="spacing" textLength="146" x="30" y="357.5957">update(MIMLBag): void</text></g></a><!--MD5=[c57e4eed09b1184c6796a12f14ea56d0]
class miml.core.distance.IDistance--><a href="IDistance.html" target="_top" title="IDistance.html" xlink:actuate="onRequest" xlink:href="IDistance.html" xlink:show="new" xlink:title="IDistance.html" xlink:type="simple"><g id="elem_miml.core.distance.IDistance"><rect codeLine="17" fill="#F1F1F1" height="83.4063" id="miml.core.distance.IDistance" rx="2.5" ry="2.5" style="stroke:#181818;stroke-width:0.5;" width="270" x="7" y="7"/><ellipse cx="94.75" cy="27.0938" fill="#B4A7E5" rx="11" ry="11" style="stroke:#181818;stroke-width:1.0;"/><path d="M95.7031,23.7344 L95.7031,30.3906 L97.4219,30.3906 Q98.0313,30.3906 98.2969,30.625 Q98.5625,30.8594 98.5625,31.25 Q98.5625,31.625 98.2969,31.8594 Q98.0313,32.0938 97.4219,32.0938 L92.2813,32.0938 Q91.6719,32.0938 91.4063,31.8594 Q91.1406,31.625 91.1406,31.2344 Q91.1406,30.8594 91.4063,30.625 Q91.6719,30.3906 92.2813,30.3906 L94,30.3906 L94,23.7344 L92.2813,23.7344 Q91.6719,23.7344 91.4063,23.5 Q91.1406,23.2656 91.1406,22.875 Q91.1406,22.5 91.4063,22.2656 Q91.6719,22.0313 92.2813,22.0313 L97.4219,22.0313 Q98.0313,22.0313 98.2969,22.2656 Q98.5625,22.5 98.5625,22.875 Q98.5625,23.2656 98.2969,23.5 Q98.0313,23.7344 97.4219,23.7344 L95.7031,23.7344 Z " fill="#000000"/><text fill="#000000" font-family="sans-serif" font-size="14" font-style="italic" lengthAdjust="spacing" textLength="59" x="128.75" y="26.5332">IDistance</text><text fill="#000000" font-family="sans-serif" font-size="10" font-style="italic" lengthAdjust="spacing" textLength="86" x="115.25" y="39.9902">miml.core.distance</text><line style="stroke:#181818;stroke-width:0.5;" x1="8" x2="276" y1="47.1875" y2="47.1875"/><ellipse cx="18" cy="61.4922" fill="#84BE84" rx="3" ry="3" style="stroke:#038048;stroke-width:1.0;"/><text fill="#000000" font-family="sans-serif" font-size="14" font-style="italic" lengthAdjust="spacing" textLength="244" x="27" y="65.7207">distance(MIMLBag, MIMLBag): double</text><ellipse cx="18" cy="79.1016" fill="#84BE84" rx="3" ry="3" style="stroke:#038048;stroke-width:1.0;"/><text fill="#000000" font-family="sans-serif" font-size="14" font-style="italic" lengthAdjust="spacing" textLength="244" x="27" y="83.3301">distance(Instances, Instances): double</text></g></a><!--MD5=[2b29d4481d6c8cedbccdedc716d52cab]
reverse link miml.core.distance.IDistance to miml.core.distance.HausdorffDistance--><g id="link_miml.core.distance.IDistance_miml.core.distance.HausdorffDistance"><path codeLine="22" d="M142,110.67 C142,122.97 142,136.24 142,149.58 " fill="none" id="miml.core.distance.IDistance-backto-miml.core.distance.HausdorffDistance" style="stroke:#181818;stroke-width:1.0;stroke-dasharray:7.0,7.0;"/><polygon fill="none" points="135,110.4,142,90.4,149,110.4,135,110.4" style="stroke:#181818;stroke-width:1.0;"/></g><rect fill="none" height="12.5781" style="stroke:none;stroke-width:1.0;" width="190" x="40" y="370.6719"/><text fill="#888888" font-family="sans-serif" font-size="10" lengthAdjust="spacing" textLength="190" x="40" y="381.0527">UMLDoclet 2.0.20, PlantUML 1.2022.12</text><!--MD5=[59b304811e19e879f59f041ea5c001fc]
@startuml
    set namespaceSeparator none
    hide empty fields
    hide empty methods

    abstract class "<size:14>HausdorffDistance\n<size:10>miml.core.distance" as miml.core.distance.HausdorffDistance [[HausdorffDistance.html]] {
        {static} -serialVersionUID: long
        ~dfun: DistanceFunction
        ~dataSet: Instances
        +HausdorffDistance()
        +HausdorffDistance(MIMLInstances)
        +hasInstances(): boolean
        +distance(MIMLBag, MIMLBag): double
        +setInstances(MIMLInstances): void
        +update(MIMLBag): void
    }

    interface "<size:14>IDistance\n<size:10>miml.core.distance" as miml.core.distance.IDistance [[IDistance.html]] {
        {abstract} +distance(MIMLBag, MIMLBag): double
        {abstract} +distance(Instances, Instances): double
    }

    miml.core.distance.IDistance <|.. miml.core.distance.HausdorffDistance

    center footer UMLDoclet 2.0.20, PlantUML 1.2022.12
@enduml

PlantUML version 1.2022.12(Sun Oct 23 20:12:26 CEST 2022)
(APACHE source distribution)
Java Runtime: OpenJDK Runtime Environment
JVM: OpenJDK 64-Bit Server VM
Default Encoding: Cp1252
Language: es
Country: ES
--></g></svg>