<?xml version="1.0" encoding="UTF-8" standalone="no"?><svg xmlns="http://www.w3.org/2000/svg" xmlns:xlink="http://www.w3.org/1999/xlink" contentStyleType="text/css" height="735px" preserveAspectRatio="none" style="width:919px;height:735px;background:#FFFFFF;" version="1.1" viewBox="0 0 919 735" width="919px" zoomAndPan="magnify"><defs/><g><!--MD5=[45bf6e5efca8daf60c4b1d5ef705131a]
cluster miml.core.distance--><g id="cluster_miml.core.distance"><path d="M8.5,130 L141.5,130 A3.75,3.75 0 0 1 144,132.5 L151,153.6094 L909.5,153.6094 A2.5,2.5 0 0 1 912,156.1094 L912,706.5 A2.5,2.5 0 0 1 909.5,709 L8.5,709 A2.5,2.5 0 0 1 6,706.5 L6,132.5 A2.5,2.5 0 0 1 8.5,130 " fill="none" style="stroke:#000000;stroke-width:1.5;"/><line style="stroke:#000000;stroke-width:1.5;" x1="6" x2="151" y1="153.6094" y2="153.6094"/><text fill="#000000" font-family="sans-serif" font-size="14" font-weight="bold" lengthAdjust="spacing" textLength="132" x="10" y="146.5332">miml.core.distance</text></g><!--MD5=[0d852700fdad35b7061d461d6907a324]
cluster java.io--><g id="cluster_java.io"><path d="M392.5,6 L439.5,6 A3.75,3.75 0 0 1 442,8.5 L449,29.6094 L525.5,29.6094 A2.5,2.5 0 0 1 528,32.1094 L528,103.5 A2.5,2.5 0 0 1 525.5,106 L392.5,106 A2.5,2.5 0 0 1 390,103.5 L390,8.5 A2.5,2.5 0 0 1 392.5,6 " fill="none" style="stroke:#000000;stroke-width:1.5;"/><line style="stroke:#000000;stroke-width:1.5;" x1="390" x2="449" y1="29.6094" y2="29.6094"/><text fill="#000000" font-family="sans-serif" font-size="14" font-weight="bold" lengthAdjust="spacing" textLength="46" x="394" y="22.5332">java.io</text></g><!--MD5=[3debae13d0374aa0cbe5d776421a0572]
class miml.core.distance.AverageHausdorff--><a href="AverageHausdorff.html" target="_top" title="AverageHausdorff.html" xlink:actuate="onRequest" xlink:href="AverageHausdorff.html" xlink:show="new" xlink:title="AverageHausdorff.html" xlink:type="simple"><g id="elem_miml.core.distance.AverageHausdorff"><rect codeLine="3" fill="#F1F1F1" height="118.4375" id="miml.core.distance.AverageHausdorff" rx="2.5" ry="2.5" style="stroke:#181818;stroke-width:0.5;" width="268" x="22" y="575"/><ellipse cx="94.75" cy="591" fill="#ADD1B2" rx="11" ry="11" style="stroke:#181818;stroke-width:1.0;"/><path d="M97.5156,586.875 Q97.6719,586.6563 97.8594,586.5469 Q98.0469,586.4375 98.2656,586.4375 Q98.6406,586.4375 98.875,586.7031 Q99.1094,586.9531 99.1094,587.5625 L99.1094,589.0156 Q99.1094,589.625 98.875,589.8906 Q98.6406,590.1563 98.2656,590.1563 Q97.9219,590.1563 97.7188,589.9531 Q97.5156,589.7656 97.4063,589.25 Q97.3594,588.8906 97.1719,588.7031 Q96.8438,588.3281 96.2344,588.1094 Q95.625,587.8906 95,587.8906 Q94.2344,587.8906 93.5938,588.2188 Q92.9688,588.5469 92.4688,589.2969 Q91.9844,590.0469 91.9844,591.0781 L91.9844,592.1719 Q91.9844,593.4063 92.875,594.2344 Q93.7656,595.0469 95.3594,595.0469 Q96.2969,595.0469 96.9531,594.7969 Q97.3438,594.6406 97.7656,594.2031 Q98.0313,593.9375 98.1719,593.8594 Q98.3281,593.7813 98.5313,593.7813 Q98.8594,593.7813 99.1094,594.0469 Q99.375,594.2969 99.375,594.6406 Q99.375,594.9844 99.0313,595.3906 Q98.5313,595.9688 97.7344,596.2969 Q96.6563,596.75 95.3594,596.75 Q93.8438,596.75 92.6406,596.125 Q91.6563,595.625 90.9688,594.5625 Q90.2813,593.4844 90.2813,592.2031 L90.2813,591.0469 Q90.2813,589.7188 90.8906,588.5781 Q91.5156,587.4219 92.6094,586.8125 Q93.7031,586.1875 94.9375,586.1875 Q95.6719,586.1875 96.3125,586.3594 Q96.9688,586.5156 97.5156,586.875 Z " fill="#000000"/><text fill="#000000" font-family="sans-serif" font-size="14" lengthAdjust="spacing" textLength="114" x="115.25" y="596.7285">AverageHausdorff</text><line style="stroke:#181818;stroke-width:0.5;" x1="23" x2="289" y1="607" y2="607"/><rect fill="none" height="6" style="stroke:#C82930;stroke-width:1.0;" width="6" x="30" y="618.3047"/><text fill="#000000" font-family="sans-serif" font-size="14" lengthAdjust="spacing" text-decoration="underline" textLength="139" x="42" y="625.5332">serialVersionUID: long</text><line style="stroke:#181818;stroke-width:0.5;" x1="23" x2="289" y1="632.6094" y2="632.6094"/><ellipse cx="33" cy="646.9141" fill="#84BE84" rx="3" ry="3" style="stroke:#038048;stroke-width:1.0;"/><text fill="#000000" font-family="sans-serif" font-size="14" lengthAdjust="spacing" textLength="124" x="42" y="651.1426">AverageHausdorff()</text><ellipse cx="33" cy="664.5234" fill="#84BE84" rx="3" ry="3" style="stroke:#038048;stroke-width:1.0;"/><text fill="#000000" font-family="sans-serif" font-size="14" lengthAdjust="spacing" textLength="217" x="42" y="668.752">AverageHausdorff(MIMLInstances)</text><ellipse cx="33" cy="682.1328" fill="#84BE84" rx="3" ry="3" style="stroke:#038048;stroke-width:1.0;"/><text fill="#000000" font-family="sans-serif" font-size="14" lengthAdjust="spacing" textLength="242" x="42" y="686.3613">distance(Instances, Instances): double</text></g></a><!--MD5=[e62b462aa7fbf2409e1c5904a30c0ac1]
class miml.core.distance.HausdorffDistance--><a href="HausdorffDistance.html" target="_top" title="HausdorffDistance.html" xlink:actuate="onRequest" xlink:href="HausdorffDistance.html" xlink:show="new" xlink:title="HausdorffDistance.html" xlink:type="simple"><g id="elem_miml.core.distance.HausdorffDistance"><rect codeLine="10" fill="#F1F1F1" height="206.4844" id="miml.core.distance.HausdorffDistance" rx="2.5" ry="2.5" style="stroke:#181818;stroke-width:0.5;" width="264" x="327" y="309"/><ellipse cx="396.25" cy="325" fill="#A9DCDF" rx="11" ry="11" style="stroke:#181818;stroke-width:1.0;"/><path d="M398.4375,326.7656 L394.2969,326.7656 L393.875,327.7969 L394.2969,327.7969 Q394.9063,327.7969 395.1719,328.0313 Q395.4375,328.2656 395.4375,328.6563 Q395.4375,329.0313 395.1719,329.2656 Q394.9063,329.5 394.2969,329.5 L392,329.5 Q391.3906,329.5 391.1406,329.2656 Q390.875,329.0313 390.875,328.6406 Q390.875,328.2656 391.1563,328.0313 Q391.4219,327.7813 392.0469,327.7969 L394.7188,321.1406 L393.6094,321.1406 Q393,321.1406 392.7344,320.9063 Q392.4688,320.6719 392.4688,320.2813 Q392.4688,319.9063 392.7344,319.6719 Q393,319.4375 393.6094,319.4375 L397.2813,319.4375 L400.6719,327.7969 Q401.2656,327.7969 401.4531,327.9375 Q401.8438,328.2031 401.8438,328.6563 Q401.8438,329.0313 401.5781,329.2656 Q401.3281,329.5 400.7188,329.5 L398.4219,329.5 Q397.8125,329.5 397.5469,329.2656 Q397.2813,329.0313 397.2813,328.6406 Q397.2813,328.2656 397.5469,328.0313 Q397.8125,327.7969 398.4219,327.7969 L398.8438,327.7969 L398.4375,326.7656 Z M397.7188,325.0625 L396.3594,321.6875 L394.9844,325.0625 L397.7188,325.0625 Z " fill="#000000"/><text fill="#000000" font-family="sans-serif" font-size="14" font-style="italic" lengthAdjust="spacing" textLength="117" x="416.75" y="330.7285">HausdorffDistance</text><line style="stroke:#181818;stroke-width:0.5;" x1="328" x2="590" y1="341" y2="341"/><rect fill="none" height="6" style="stroke:#C82930;stroke-width:1.0;" width="6" x="335" y="352.3047"/><text fill="#000000" font-family="sans-serif" font-size="14" lengthAdjust="spacing" text-decoration="underline" textLength="139" x="347" y="359.5332">serialVersionUID: long</text><polygon fill="none" points="338,368.9141,334,374.9141,342,374.9141" style="stroke:#1963A0;stroke-width:1.0;"/><text fill="#000000" font-family="sans-serif" font-size="14" lengthAdjust="spacing" textLength="146" x="347" y="377.1426">dfun: DistanceFunction</text><polygon fill="none" points="338,386.5234,334,392.5234,342,392.5234" style="stroke:#1963A0;stroke-width:1.0;"/><text fill="#000000" font-family="sans-serif" font-size="14" lengthAdjust="spacing" textLength="117" x="347" y="394.752">dataSet: Instances</text><line style="stroke:#181818;stroke-width:0.5;" x1="328" x2="590" y1="401.8281" y2="401.8281"/><ellipse cx="338" cy="416.1328" fill="#84BE84" rx="3" ry="3" style="stroke:#038048;stroke-width:1.0;"/><text fill="#000000" font-family="sans-serif" font-size="14" lengthAdjust="spacing" textLength="126" x="347" y="420.3613">HausdorffDistance()</text><ellipse cx="338" cy="433.7422" fill="#84BE84" rx="3" ry="3" style="stroke:#038048;stroke-width:1.0;"/><text fill="#000000" font-family="sans-serif" font-size="14" lengthAdjust="spacing" textLength="219" x="347" y="437.9707">HausdorffDistance(MIMLInstances)</text><ellipse cx="338" cy="451.3516" fill="#84BE84" rx="3" ry="3" style="stroke:#038048;stroke-width:1.0;"/><text fill="#000000" font-family="sans-serif" font-size="14" lengthAdjust="spacing" textLength="152" x="347" y="455.5801">hasInstances(): boolean</text><ellipse cx="338" cy="468.9609" fill="#84BE84" rx="3" ry="3" style="stroke:#038048;stroke-width:1.0;"/><text fill="#000000" font-family="sans-serif" font-size="14" lengthAdjust="spacing" textLength="238" x="347" y="473.1895">distance(MIMLBag, MIMLBag): double</text><ellipse cx="338" cy="486.5703" fill="#84BE84" rx="3" ry="3" style="stroke:#038048;stroke-width:1.0;"/><text fill="#000000" font-family="sans-serif" font-size="14" lengthAdjust="spacing" textLength="216" x="347" y="490.7988">setInstances(MIMLInstances): void</text><ellipse cx="338" cy="504.1797" fill="#84BE84" rx="3" ry="3" style="stroke:#038048;stroke-width:1.0;"/><text fill="#000000" font-family="sans-serif" font-size="14" lengthAdjust="spacing" textLength="146" x="347" y="508.4082">update(MIMLBag): void</text></g></a><!--MD5=[c57e4eed09b1184c6796a12f14ea56d0]
class miml.core.distance.IDistance--><a href="IDistance.html" target="_top" title="IDistance.html" xlink:actuate="onRequest" xlink:href="IDistance.html" xlink:show="new" xlink:title="IDistance.html" xlink:type="simple"><g id="elem_miml.core.distance.IDistance"><rect codeLine="22" fill="#F1F1F1" height="83.2188" id="miml.core.distance.IDistance" rx="2.5" ry="2.5" style="stroke:#181818;stroke-width:0.5;" width="270" x="324" y="166"/><ellipse cx="425.25" cy="182" fill="#B4A7E5" rx="11" ry="11" style="stroke:#181818;stroke-width:1.0;"/><path d="M426.2031,178.6406 L426.2031,185.2969 L427.9219,185.2969 Q428.5313,185.2969 428.7969,185.5313 Q429.0625,185.7656 429.0625,186.1563 Q429.0625,186.5313 428.7969,186.7656 Q428.5313,187 427.9219,187 L422.7813,187 Q422.1719,187 421.9063,186.7656 Q421.6406,186.5313 421.6406,186.1406 Q421.6406,185.7656 421.9063,185.5313 Q422.1719,185.2969 422.7813,185.2969 L424.5,185.2969 L424.5,178.6406 L422.7813,178.6406 Q422.1719,178.6406 421.9063,178.4063 Q421.6406,178.1719 421.6406,177.7813 Q421.6406,177.4063 421.9063,177.1719 Q422.1719,176.9375 422.7813,176.9375 L427.9219,176.9375 Q428.5313,176.9375 428.7969,177.1719 Q429.0625,177.4063 429.0625,177.7813 Q429.0625,178.1719 428.7969,178.4063 Q428.5313,178.6406 427.9219,178.6406 L426.2031,178.6406 Z " fill="#000000"/><text fill="#000000" font-family="sans-serif" font-size="14" font-style="italic" lengthAdjust="spacing" textLength="59" x="445.75" y="187.7285">IDistance</text><line style="stroke:#181818;stroke-width:0.5;" x1="325" x2="593" y1="198" y2="198"/><line style="stroke:#181818;stroke-width:0.5;" x1="325" x2="593" y1="206" y2="206"/><ellipse cx="335" cy="220.3047" fill="#84BE84" rx="3" ry="3" style="stroke:#038048;stroke-width:1.0;"/><text fill="#000000" font-family="sans-serif" font-size="14" font-style="italic" lengthAdjust="spacing" textLength="244" x="344" y="224.5332">distance(MIMLBag, MIMLBag): double</text><ellipse cx="335" cy="237.9141" fill="#84BE84" rx="3" ry="3" style="stroke:#038048;stroke-width:1.0;"/><text fill="#000000" font-family="sans-serif" font-size="14" font-style="italic" lengthAdjust="spacing" textLength="244" x="344" y="242.1426">distance(Instances, Instances): double</text></g></a><!--MD5=[590d06ddf037ad379dd183250cccdce9]
class miml.core.distance.MaximalHausdorff--><a href="MaximalHausdorff.html" target="_top" title="MaximalHausdorff.html" xlink:actuate="onRequest" xlink:href="MaximalHausdorff.html" xlink:show="new" xlink:title="MaximalHausdorff.html" xlink:type="simple"><g id="elem_miml.core.distance.MaximalHausdorff"><rect codeLine="27" fill="#F1F1F1" height="118.4375" id="miml.core.distance.MaximalHausdorff" rx="2.5" ry="2.5" style="stroke:#181818;stroke-width:0.5;" width="268" x="325" y="575"/><ellipse cx="399.25" cy="591" fill="#ADD1B2" rx="11" ry="11" style="stroke:#181818;stroke-width:1.0;"/><path d="M402.0156,586.875 Q402.1719,586.6563 402.3594,586.5469 Q402.5469,586.4375 402.7656,586.4375 Q403.1406,586.4375 403.375,586.7031 Q403.6094,586.9531 403.6094,587.5625 L403.6094,589.0156 Q403.6094,589.625 403.375,589.8906 Q403.1406,590.1563 402.7656,590.1563 Q402.4219,590.1563 402.2188,589.9531 Q402.0156,589.7656 401.9063,589.25 Q401.8594,588.8906 401.6719,588.7031 Q401.3438,588.3281 400.7344,588.1094 Q400.125,587.8906 399.5,587.8906 Q398.7344,587.8906 398.0938,588.2188 Q397.4688,588.5469 396.9688,589.2969 Q396.4844,590.0469 396.4844,591.0781 L396.4844,592.1719 Q396.4844,593.4063 397.375,594.2344 Q398.2656,595.0469 399.8594,595.0469 Q400.7969,595.0469 401.4531,594.7969 Q401.8438,594.6406 402.2656,594.2031 Q402.5313,593.9375 402.6719,593.8594 Q402.8281,593.7813 403.0313,593.7813 Q403.3594,593.7813 403.6094,594.0469 Q403.875,594.2969 403.875,594.6406 Q403.875,594.9844 403.5313,595.3906 Q403.0313,595.9688 402.2344,596.2969 Q401.1563,596.75 399.8594,596.75 Q398.3438,596.75 397.1406,596.125 Q396.1563,595.625 395.4688,594.5625 Q394.7813,593.4844 394.7813,592.2031 L394.7813,591.0469 Q394.7813,589.7188 395.3906,588.5781 Q396.0156,587.4219 397.1094,586.8125 Q398.2031,586.1875 399.4375,586.1875 Q400.1719,586.1875 400.8125,586.3594 Q401.4688,586.5156 402.0156,586.875 Z " fill="#000000"/><text fill="#000000" font-family="sans-serif" font-size="14" lengthAdjust="spacing" textLength="111" x="419.75" y="596.7285">MaximalHausdorff</text><line style="stroke:#181818;stroke-width:0.5;" x1="326" x2="592" y1="607" y2="607"/><rect fill="none" height="6" style="stroke:#C82930;stroke-width:1.0;" width="6" x="333" y="618.3047"/><text fill="#000000" font-family="sans-serif" font-size="14" lengthAdjust="spacing" text-decoration="underline" textLength="139" x="345" y="625.5332">serialVersionUID: long</text><line style="stroke:#181818;stroke-width:0.5;" x1="326" x2="592" y1="632.6094" y2="632.6094"/><ellipse cx="336" cy="646.9141" fill="#84BE84" rx="3" ry="3" style="stroke:#038048;stroke-width:1.0;"/><text fill="#000000" font-family="sans-serif" font-size="14" lengthAdjust="spacing" textLength="121" x="345" y="651.1426">MaximalHausdorff()</text><ellipse cx="336" cy="664.5234" fill="#84BE84" rx="3" ry="3" style="stroke:#038048;stroke-width:1.0;"/><text fill="#000000" font-family="sans-serif" font-size="14" lengthAdjust="spacing" textLength="214" x="345" y="668.752">MaximalHausdorff(MIMLInstances)</text><ellipse cx="336" cy="682.1328" fill="#84BE84" rx="3" ry="3" style="stroke:#038048;stroke-width:1.0;"/><text fill="#000000" font-family="sans-serif" font-size="14" lengthAdjust="spacing" textLength="242" x="345" y="686.3613">distance(Instances, Instances): double</text></g></a><!--MD5=[b6c82f50ce29cfaec49e03137fdfbf97]
class miml.core.distance.MinimalHausdorff--><a href="MinimalHausdorff.html" target="_top" title="MinimalHausdorff.html" xlink:actuate="onRequest" xlink:href="MinimalHausdorff.html" xlink:show="new" xlink:title="MinimalHausdorff.html" xlink:type="simple"><g id="elem_miml.core.distance.MinimalHausdorff"><rect codeLine="34" fill="#F1F1F1" height="118.4375" id="miml.core.distance.MinimalHausdorff" rx="2.5" ry="2.5" style="stroke:#181818;stroke-width:0.5;" width="268" x="628" y="575"/><ellipse cx="703.75" cy="591" fill="#ADD1B2" rx="11" ry="11" style="stroke:#181818;stroke-width:1.0;"/><path d="M706.5156,586.875 Q706.6719,586.6563 706.8594,586.5469 Q707.0469,586.4375 707.2656,586.4375 Q707.6406,586.4375 707.875,586.7031 Q708.1094,586.9531 708.1094,587.5625 L708.1094,589.0156 Q708.1094,589.625 707.875,589.8906 Q707.6406,590.1563 707.2656,590.1563 Q706.9219,590.1563 706.7188,589.9531 Q706.5156,589.7656 706.4063,589.25 Q706.3594,588.8906 706.1719,588.7031 Q705.8438,588.3281 705.2344,588.1094 Q704.625,587.8906 704,587.8906 Q703.2344,587.8906 702.5938,588.2188 Q701.9688,588.5469 701.4688,589.2969 Q700.9844,590.0469 700.9844,591.0781 L700.9844,592.1719 Q700.9844,593.4063 701.875,594.2344 Q702.7656,595.0469 704.3594,595.0469 Q705.2969,595.0469 705.9531,594.7969 Q706.3438,594.6406 706.7656,594.2031 Q707.0313,593.9375 707.1719,593.8594 Q707.3281,593.7813 707.5313,593.7813 Q707.8594,593.7813 708.1094,594.0469 Q708.375,594.2969 708.375,594.6406 Q708.375,594.9844 708.0313,595.3906 Q707.5313,595.9688 706.7344,596.2969 Q705.6563,596.75 704.3594,596.75 Q702.8438,596.75 701.6406,596.125 Q700.6563,595.625 699.9688,594.5625 Q699.2813,593.4844 699.2813,592.2031 L699.2813,591.0469 Q699.2813,589.7188 699.8906,588.5781 Q700.5156,587.4219 701.6094,586.8125 Q702.7031,586.1875 703.9375,586.1875 Q704.6719,586.1875 705.3125,586.3594 Q705.9688,586.5156 706.5156,586.875 Z " fill="#000000"/><text fill="#000000" font-family="sans-serif" font-size="14" lengthAdjust="spacing" textLength="108" x="724.25" y="596.7285">MinimalHausdorff</text><line style="stroke:#181818;stroke-width:0.5;" x1="629" x2="895" y1="607" y2="607"/><rect fill="none" height="6" style="stroke:#C82930;stroke-width:1.0;" width="6" x="636" y="618.3047"/><text fill="#000000" font-family="sans-serif" font-size="14" lengthAdjust="spacing" text-decoration="underline" textLength="139" x="648" y="625.5332">serialVersionUID: long</text><line style="stroke:#181818;stroke-width:0.5;" x1="629" x2="895" y1="632.6094" y2="632.6094"/><ellipse cx="639" cy="646.9141" fill="#84BE84" rx="3" ry="3" style="stroke:#038048;stroke-width:1.0;"/><text fill="#000000" font-family="sans-serif" font-size="14" lengthAdjust="spacing" textLength="118" x="648" y="651.1426">MinimalHausdorff()</text><ellipse cx="639" cy="664.5234" fill="#84BE84" rx="3" ry="3" style="stroke:#038048;stroke-width:1.0;"/><text fill="#000000" font-family="sans-serif" font-size="14" lengthAdjust="spacing" textLength="211" x="648" y="668.752">MinimalHausdorff(MIMLInstances)</text><ellipse cx="639" cy="682.1328" fill="#84BE84" rx="3" ry="3" style="stroke:#038048;stroke-width:1.0;"/><text fill="#000000" font-family="sans-serif" font-size="14" lengthAdjust="spacing" textLength="242" x="648" y="686.3613">distance(Instances, Instances): double</text></g></a><!--MD5=[5a5af9b0547913863cbe0ddf55a9ab5e]
class java.io.Serializable--><g id="elem_java.io.Serializable"><rect codeLine="49" fill="#F1F1F1" height="48" id="java.io.Serializable" rx="2.5" ry="2.5" style="stroke:#181818;stroke-width:0.5;" width="105" x="406.5" y="42"/><ellipse cx="421.5" cy="58" fill="#B4A7E5" rx="11" ry="11" style="stroke:#181818;stroke-width:1.0;"/><path d="M422.4531,54.6406 L422.4531,61.2969 L424.1719,61.2969 Q424.7813,61.2969 425.0469,61.5313 Q425.3125,61.7656 425.3125,62.1563 Q425.3125,62.5313 425.0469,62.7656 Q424.7813,63 424.1719,63 L419.0313,63 Q418.4219,63 418.1563,62.7656 Q417.8906,62.5313 417.8906,62.1406 Q417.8906,61.7656 418.1563,61.5313 Q418.4219,61.2969 419.0313,61.2969 L420.75,61.2969 L420.75,54.6406 L419.0313,54.6406 Q418.4219,54.6406 418.1563,54.4063 Q417.8906,54.1719 417.8906,53.7813 Q417.8906,53.4063 418.1563,53.1719 Q418.4219,52.9375 419.0313,52.9375 L424.1719,52.9375 Q424.7813,52.9375 425.0469,53.1719 Q425.3125,53.4063 425.3125,53.7813 Q425.3125,54.1719 425.0469,54.4063 Q424.7813,54.6406 424.1719,54.6406 L422.4531,54.6406 Z " fill="#000000"/><text fill="#000000" font-family="sans-serif" font-size="14" font-style="italic" lengthAdjust="spacing" textLength="73" x="435.5" y="63.7285">Serializable</text><line style="stroke:#181818;stroke-width:0.5;" x1="407.5" x2="510.5" y1="74" y2="74"/><line style="stroke:#181818;stroke-width:0.5;" x1="407.5" x2="510.5" y1="82" y2="82"/></g><!--MD5=[82d82f4aafbc5eac0ff98c2afbc77bec]
reverse link miml.core.distance.HausdorffDistance to miml.core.distance.AverageHausdorff--><g id="link_miml.core.distance.HausdorffDistance_miml.core.distance.AverageHausdorff"><path codeLine="41" d="M310.59,520.75 C284.91,539.4 259.1,558.14 236.14,574.82 " fill="none" id="miml.core.distance.HausdorffDistance-backto-miml.core.distance.AverageHausdorff" style="stroke:#181818;stroke-width:1.0;"/><polygon fill="none" points="306.68,514.94,326.98,508.86,314.91,526.27,306.68,514.94" style="stroke:#181818;stroke-width:1.0;"/></g><!--MD5=[2b29d4481d6c8cedbccdedc716d52cab]
reverse link miml.core.distance.IDistance to miml.core.distance.HausdorffDistance--><g id="link_miml.core.distance.IDistance_miml.core.distance.HausdorffDistance"><path codeLine="42" d="M459,269.89 C459,282.27 459,295.6 459,308.94 " fill="none" id="miml.core.distance.IDistance-backto-miml.core.distance.HausdorffDistance" style="stroke:#181818;stroke-width:1.0;stroke-dasharray:7.0,7.0;"/><polygon fill="none" points="452,269.48,459,249.48,466,269.48,452,269.48" style="stroke:#181818;stroke-width:1.0;"/></g><!--MD5=[e4bc20ba80d2a4da3000fdaf25d93515]
reverse link java.io.Serializable to miml.core.distance.IDistance--><g id="link_java.io.Serializable_miml.core.distance.IDistance"><path codeLine="43" d="M459,110.31 C459,128.06 459,148.48 459,165.93 " fill="none" id="java.io.Serializable-backto-miml.core.distance.IDistance" style="stroke:#181818;stroke-width:1.0;"/><polygon fill="none" points="452,110.04,459,90.04,466,110.04,452,110.04" style="stroke:#181818;stroke-width:1.0;"/></g><!--MD5=[25d32dd870cf0777d7a98b07e4bcd165]
reverse link miml.core.distance.HausdorffDistance to miml.core.distance.MaximalHausdorff--><g id="link_miml.core.distance.HausdorffDistance_miml.core.distance.MaximalHausdorff"><path codeLine="44" d="M459,535.39 C459,549.06 459,562.48 459,574.77 " fill="none" id="miml.core.distance.HausdorffDistance-backto-miml.core.distance.MaximalHausdorff" style="stroke:#181818;stroke-width:1.0;"/><polygon fill="none" points="452,535.27,459,515.27,466,535.27,452,535.27" style="stroke:#181818;stroke-width:1.0;"/></g><!--MD5=[50657a3ea9c19f0a2a514fd00c68f964]
reverse link miml.core.distance.HausdorffDistance to miml.core.distance.MinimalHausdorff--><g id="link_miml.core.distance.HausdorffDistance_miml.core.distance.MinimalHausdorff"><path codeLine="45" d="M607.41,520.75 C633.09,539.4 658.9,558.14 681.86,574.82 " fill="none" id="miml.core.distance.HausdorffDistance-backto-miml.core.distance.MinimalHausdorff" style="stroke:#181818;stroke-width:1.0;"/><polygon fill="none" points="603.09,526.27,591.02,508.86,611.32,514.94,603.09,526.27" style="stroke:#181818;stroke-width:1.0;"/></g><rect fill="none" height="12.5781" style="stroke:none;stroke-width:1.0;" width="190" x="357.5" y="715"/><text fill="#888888" font-family="sans-serif" font-size="10" lengthAdjust="spacing" textLength="190" x="357.5" y="725.3809">UMLDoclet 2.0.20, PlantUML 1.2022.12</text><!--MD5=[04d574a02a1ba2ec786331ee8a0e0f92]
@startuml
    namespace miml.core.distance {

        class AverageHausdorff [[AverageHausdorff.html]] {
            {static} -serialVersionUID: long
            +AverageHausdorff()
            +AverageHausdorff(MIMLInstances)
            +distance(Instances, Instances): double
        }

        abstract class HausdorffDistance [[HausdorffDistance.html]] {
            {static} -serialVersionUID: long
            ~dfun: DistanceFunction
            ~dataSet: Instances
            +HausdorffDistance()
            +HausdorffDistance(MIMLInstances)
            +hasInstances(): boolean
            +distance(MIMLBag, MIMLBag): double
            +setInstances(MIMLInstances): void
            +update(MIMLBag): void
        }

        interface IDistance [[IDistance.html]] {
            {abstract} +distance(MIMLBag, MIMLBag): double
            {abstract} +distance(Instances, Instances): double
        }

        class MaximalHausdorff [[MaximalHausdorff.html]] {
            {static} -serialVersionUID: long
            +MaximalHausdorff()
            +MaximalHausdorff(MIMLInstances)
            +distance(Instances, Instances): double
        }

        class MinimalHausdorff [[MinimalHausdorff.html]] {
            {static} -serialVersionUID: long
            +MinimalHausdorff()
            +MinimalHausdorff(MIMLInstances)
            +distance(Instances, Instances): double
        }

        HausdorffDistance <|- - AverageHausdorff
        IDistance <|.. HausdorffDistance
        java.io.Serializable <|- - IDistance
        HausdorffDistance <|- - MaximalHausdorff
        HausdorffDistance <|- - MinimalHausdorff
    }

    namespace java.io {
        interface Serializable
    }

    center footer UMLDoclet 2.0.20, PlantUML 1.2022.12
@enduml

PlantUML version 1.2022.12(Sun Oct 23 20:12:26 CEST 2022)
(APACHE source distribution)
Java Runtime: OpenJDK Runtime Environment
JVM: OpenJDK 64-Bit Server VM
Default Encoding: Cp1252
Language: es
Country: ES
--></g></svg>