<?xml version="1.0" encoding="UTF-8" standalone="no"?><svg xmlns="http://www.w3.org/2000/svg" xmlns:xlink="http://www.w3.org/1999/xlink" contentStyleType="text/css" height="302px" preserveAspectRatio="none" style="width:260px;height:302px;background:#FFFFFF;" version="1.1" viewBox="0 0 260 302" width="260px" zoomAndPan="magnify"><defs/><g><!--MD5=[bb1a7679ab64602797380e9936555fa8]
class miml.data.normalization.MinMaxNormalization--><a href="MinMaxNormalization.html" target="_top" title="MinMaxNormalization.html" xlink:actuate="onRequest" xlink:href="MinMaxNormalization.html" xlink:show="new" xlink:title="MinMaxNormalization.html" xlink:type="simple"><g id="elem_miml.data.normalization.MinMaxNormalization"><rect codeLine="5" fill="#F1F1F1" height="267.5" id="miml.data.normalization.MinMaxNormalization" rx="2.5" ry="2.5" style="stroke:#181818;stroke-width:0.5;" width="239" x="7" y="7"/><ellipse cx="56.75" cy="27.0938" fill="#ADD1B2" rx="11" ry="11" style="stroke:#181818;stroke-width:1.0;"/><path d="M59.5156,22.9688 Q59.6719,22.75 59.8594,22.6406 Q60.0469,22.5313 60.2656,22.5313 Q60.6406,22.5313 60.875,22.7969 Q61.1094,23.0469 61.1094,23.6563 L61.1094,25.1094 Q61.1094,25.7188 60.875,25.9844 Q60.6406,26.25 60.2656,26.25 Q59.9219,26.25 59.7188,26.0469 Q59.5156,25.8594 59.4063,25.3438 Q59.3594,24.9844 59.1719,24.7969 Q58.8438,24.4219 58.2344,24.2031 Q57.625,23.9844 57,23.9844 Q56.2344,23.9844 55.5938,24.3125 Q54.9688,24.6406 54.4688,25.3906 Q53.9844,26.1406 53.9844,27.1719 L53.9844,28.2656 Q53.9844,29.5 54.875,30.3281 Q55.7656,31.1406 57.3594,31.1406 Q58.2969,31.1406 58.9531,30.8906 Q59.3438,30.7344 59.7656,30.2969 Q60.0313,30.0313 60.1719,29.9531 Q60.3281,29.875 60.5313,29.875 Q60.8594,29.875 61.1094,30.1406 Q61.375,30.3906 61.375,30.7344 Q61.375,31.0781 61.0313,31.4844 Q60.5313,32.0625 59.7344,32.3906 Q58.6563,32.8438 57.3594,32.8438 Q55.8438,32.8438 54.6406,32.2188 Q53.6563,31.7188 52.9688,30.6563 Q52.2813,29.5781 52.2813,28.2969 L52.2813,27.1406 Q52.2813,25.8125 52.8906,24.6719 Q53.5156,23.5156 54.6094,22.9063 Q55.7031,22.2813 56.9375,22.2813 Q57.6719,22.2813 58.3125,22.4531 Q58.9688,22.6094 59.5156,22.9688 Z " fill="#000000"/><text fill="#000000" font-family="sans-serif" font-size="14" lengthAdjust="spacing" textLength="131" x="77.25" y="26.5332">MinMaxNormalization</text><text fill="#000000" font-family="sans-serif" font-size="10" lengthAdjust="spacing" textLength="116" x="84.75" y="39.9902">miml.data.normalization</text><line style="stroke:#181818;stroke-width:0.5;" x1="8" x2="245" y1="47.1875" y2="47.1875"/><polygon fill="none" points="18,56.4922,22,60.4922,18,64.4922,14,60.4922" style="stroke:#B38D22;stroke-width:1.0;"/><text fill="#000000" font-family="sans-serif" font-size="14" lengthAdjust="spacing" textLength="84" x="27" y="65.7207">Max: double[]</text><polygon fill="none" points="18,74.1016,22,78.1016,18,82.1016,14,78.1016" style="stroke:#B38D22;stroke-width:1.0;"/><text fill="#000000" font-family="sans-serif" font-size="14" lengthAdjust="spacing" textLength="81" x="27" y="83.3301">Min: double[]</text><polygon fill="none" points="18,91.7109,22,95.7109,18,99.7109,14,95.7109" style="stroke:#B38D22;stroke-width:1.0;"/><text fill="#000000" font-family="sans-serif" font-size="14" lengthAdjust="spacing" textLength="101" x="27" y="100.9395">Range: double[]</text><polygon fill="none" points="18,110.3203,14,116.3203,22,116.3203" style="stroke:#1963A0;stroke-width:1.0;"/><text fill="#000000" font-family="sans-serif" font-size="14" lengthAdjust="spacing" textLength="88" x="27" y="118.5488">nFeatures: int</text><polygon fill="none" points="18,127.9297,14,133.9297,22,133.9297" style="stroke:#1963A0;stroke-width:1.0;"/><text fill="#000000" font-family="sans-serif" font-size="14" lengthAdjust="spacing" textLength="127" x="27" y="136.1582">normalized: boolean</text><line style="stroke:#181818;stroke-width:0.5;" x1="8" x2="245" y1="143.2344" y2="143.2344"/><ellipse cx="18" cy="157.5391" fill="#84BE84" rx="3" ry="3" style="stroke:#038048;stroke-width:1.0;"/><text fill="#000000" font-family="sans-serif" font-size="14" lengthAdjust="spacing" textLength="197" x="27" y="161.7676">normalize(MIMLInstances): void</text><ellipse cx="18" cy="175.1484" fill="#84BE84" rx="3" ry="3" style="stroke:#038048;stroke-width:1.0;"/><text fill="#000000" font-family="sans-serif" font-size="14" lengthAdjust="spacing" textLength="213" x="27" y="179.377">updateStats(MIMLInstances): void</text><ellipse cx="18" cy="192.7578" fill="#84BE84" rx="3" ry="3" style="stroke:#038048;stroke-width:1.0;"/><text fill="#000000" font-family="sans-serif" font-size="14" lengthAdjust="spacing" textLength="148" x="27" y="196.9863">isNormalized(): boolean</text><ellipse cx="18" cy="210.3672" fill="#84BE84" rx="3" ry="3" style="stroke:#038048;stroke-width:1.0;"/><text fill="#000000" font-family="sans-serif" font-size="14" lengthAdjust="spacing" textLength="114" x="27" y="214.5957">getMax(): double[]</text><ellipse cx="18" cy="227.9766" fill="#84BE84" rx="3" ry="3" style="stroke:#038048;stroke-width:1.0;"/><text fill="#000000" font-family="sans-serif" font-size="14" lengthAdjust="spacing" textLength="111" x="27" y="232.2051">getMin(): double[]</text><ellipse cx="18" cy="245.5859" fill="#84BE84" rx="3" ry="3" style="stroke:#038048;stroke-width:1.0;"/><text fill="#000000" font-family="sans-serif" font-size="14" lengthAdjust="spacing" textLength="131" x="27" y="249.8145">getRange(): double[]</text><ellipse cx="18" cy="263.1953" fill="#84BE84" rx="3" ry="3" style="stroke:#038048;stroke-width:1.0;"/><text fill="#000000" font-family="sans-serif" font-size="14" lengthAdjust="spacing" textLength="118" x="27" y="267.4238">getnFeatures(): int</text></g></a><rect fill="none" height="12.5781" style="stroke:none;stroke-width:1.0;" width="190" x="31" y="281.5"/><text fill="#888888" font-family="sans-serif" font-size="10" lengthAdjust="spacing" textLength="190" x="31" y="291.8809">UMLDoclet 2.0.20, PlantUML 1.2022.12</text><!--MD5=[e1c5b1d7b0e61f30be2a5f8fe12139dd]
@startuml
    set namespaceSeparator none
    hide empty fields
    hide empty methods

    class "<size:14>MinMaxNormalization\n<size:10>miml.data.normalization" as miml.data.normalization.MinMaxNormalization [[MinMaxNormalization.html]] {
        #Max: double[]
        #Min: double[]
        #Range: double[]
        ~nFeatures: int
        ~normalized: boolean
        +normalize(MIMLInstances): void
        +updateStats(MIMLInstances): void
        +isNormalized(): boolean
        +getMax(): double[]
        +getMin(): double[]
        +getRange(): double[]
        +getnFeatures(): int
    }

    center footer UMLDoclet 2.0.20, PlantUML 1.2022.12
@enduml

PlantUML version 1.2022.12(Sun Oct 23 20:12:26 CEST 2022)
(APACHE source distribution)
Java Runtime: OpenJDK Runtime Environment
JVM: OpenJDK 64-Bit Server VM
Default Encoding: Cp1252
Language: es
Country: ES
--></g></svg>