<?xml version="1.0" encoding="UTF-8" standalone="no"?><svg xmlns="http://www.w3.org/2000/svg" xmlns:xlink="http://www.w3.org/1999/xlink" contentStyleType="text/css" height="343px" preserveAspectRatio="none" style="width:285px;height:343px;background:#FFFFFF;" version="1.1" viewBox="0 0 285 343" width="285px" zoomAndPan="magnify"><defs/><g><!--MD5=[b7a3283284afac2c271063a66d56663a]
cluster miml.data.normalization--><g id="cluster_miml.data.normalization"><path d="M8.5,6 L173.5,6 A3.75,3.75 0 0 1 176,8.5 L183,29.6094 L275.5,29.6094 A2.5,2.5 0 0 1 278,32.1094 L278,314.5 A2.5,2.5 0 0 1 275.5,317 L8.5,317 A2.5,2.5 0 0 1 6,314.5 L6,8.5 A2.5,2.5 0 0 1 8.5,6 " fill="none" style="stroke:#000000;stroke-width:1.5;"/><line style="stroke:#000000;stroke-width:1.5;" x1="6" x2="183" y1="29.6094" y2="29.6094"/><text fill="#000000" font-family="sans-serif" font-size="14" font-weight="bold" lengthAdjust="spacing" textLength="164" x="10" y="22.5332">miml.data.normalization</text></g><!--MD5=[bb1a7679ab64602797380e9936555fa8]
class miml.data.normalization.MinMaxNormalization--><a href="MinMaxNormalization.html" target="_top" title="MinMaxNormalization.html" xlink:actuate="onRequest" xlink:href="MinMaxNormalization.html" xlink:show="new" xlink:title="MinMaxNormalization.html" xlink:type="simple"><g id="elem_miml.data.normalization.MinMaxNormalization"><rect codeLine="3" fill="#F1F1F1" height="259.3125" id="miml.data.normalization.MinMaxNormalization" rx="2.5" ry="2.5" style="stroke:#181818;stroke-width:0.5;" width="239" x="22.5" y="42"/><ellipse cx="72.25" cy="58" fill="#ADD1B2" rx="11" ry="11" style="stroke:#181818;stroke-width:1.0;"/><path d="M75.0156,53.875 Q75.1719,53.6563 75.3594,53.5469 Q75.5469,53.4375 75.7656,53.4375 Q76.1406,53.4375 76.375,53.7031 Q76.6094,53.9531 76.6094,54.5625 L76.6094,56.0156 Q76.6094,56.625 76.375,56.8906 Q76.1406,57.1563 75.7656,57.1563 Q75.4219,57.1563 75.2188,56.9531 Q75.0156,56.7656 74.9063,56.25 Q74.8594,55.8906 74.6719,55.7031 Q74.3438,55.3281 73.7344,55.1094 Q73.125,54.8906 72.5,54.8906 Q71.7344,54.8906 71.0938,55.2188 Q70.4688,55.5469 69.9688,56.2969 Q69.4844,57.0469 69.4844,58.0781 L69.4844,59.1719 Q69.4844,60.4063 70.375,61.2344 Q71.2656,62.0469 72.8594,62.0469 Q73.7969,62.0469 74.4531,61.7969 Q74.8438,61.6406 75.2656,61.2031 Q75.5313,60.9375 75.6719,60.8594 Q75.8281,60.7813 76.0313,60.7813 Q76.3594,60.7813 76.6094,61.0469 Q76.875,61.2969 76.875,61.6406 Q76.875,61.9844 76.5313,62.3906 Q76.0313,62.9688 75.2344,63.2969 Q74.1563,63.75 72.8594,63.75 Q71.3438,63.75 70.1406,63.125 Q69.1563,62.625 68.4688,61.5625 Q67.7813,60.4844 67.7813,59.2031 L67.7813,58.0469 Q67.7813,56.7188 68.3906,55.5781 Q69.0156,54.4219 70.1094,53.8125 Q71.2031,53.1875 72.4375,53.1875 Q73.1719,53.1875 73.8125,53.3594 Q74.4688,53.5156 75.0156,53.875 Z " fill="#000000"/><text fill="#000000" font-family="sans-serif" font-size="14" lengthAdjust="spacing" textLength="131" x="92.75" y="63.7285">MinMaxNormalization</text><line style="stroke:#181818;stroke-width:0.5;" x1="23.5" x2="260.5" y1="74" y2="74"/><polygon fill="none" points="33.5,83.3047,37.5,87.3047,33.5,91.3047,29.5,87.3047" style="stroke:#B38D22;stroke-width:1.0;"/><text fill="#000000" font-family="sans-serif" font-size="14" lengthAdjust="spacing" textLength="84" x="42.5" y="92.5332">Max: double[]</text><polygon fill="none" points="33.5,100.9141,37.5,104.9141,33.5,108.9141,29.5,104.9141" style="stroke:#B38D22;stroke-width:1.0;"/><text fill="#000000" font-family="sans-serif" font-size="14" lengthAdjust="spacing" textLength="81" x="42.5" y="110.1426">Min: double[]</text><polygon fill="none" points="33.5,118.5234,37.5,122.5234,33.5,126.5234,29.5,122.5234" style="stroke:#B38D22;stroke-width:1.0;"/><text fill="#000000" font-family="sans-serif" font-size="14" lengthAdjust="spacing" textLength="101" x="42.5" y="127.752">Range: double[]</text><polygon fill="none" points="33.5,137.1328,29.5,143.1328,37.5,143.1328" style="stroke:#1963A0;stroke-width:1.0;"/><text fill="#000000" font-family="sans-serif" font-size="14" lengthAdjust="spacing" textLength="88" x="42.5" y="145.3613">nFeatures: int</text><polygon fill="none" points="33.5,154.7422,29.5,160.7422,37.5,160.7422" style="stroke:#1963A0;stroke-width:1.0;"/><text fill="#000000" font-family="sans-serif" font-size="14" lengthAdjust="spacing" textLength="127" x="42.5" y="162.9707">normalized: boolean</text><line style="stroke:#181818;stroke-width:0.5;" x1="23.5" x2="260.5" y1="170.0469" y2="170.0469"/><ellipse cx="33.5" cy="184.3516" fill="#84BE84" rx="3" ry="3" style="stroke:#038048;stroke-width:1.0;"/><text fill="#000000" font-family="sans-serif" font-size="14" lengthAdjust="spacing" textLength="197" x="42.5" y="188.5801">normalize(MIMLInstances): void</text><ellipse cx="33.5" cy="201.9609" fill="#84BE84" rx="3" ry="3" style="stroke:#038048;stroke-width:1.0;"/><text fill="#000000" font-family="sans-serif" font-size="14" lengthAdjust="spacing" textLength="213" x="42.5" y="206.1895">updateStats(MIMLInstances): void</text><ellipse cx="33.5" cy="219.5703" fill="#84BE84" rx="3" ry="3" style="stroke:#038048;stroke-width:1.0;"/><text fill="#000000" font-family="sans-serif" font-size="14" lengthAdjust="spacing" textLength="148" x="42.5" y="223.7988">isNormalized(): boolean</text><ellipse cx="33.5" cy="237.1797" fill="#84BE84" rx="3" ry="3" style="stroke:#038048;stroke-width:1.0;"/><text fill="#000000" font-family="sans-serif" font-size="14" lengthAdjust="spacing" textLength="114" x="42.5" y="241.4082">getMax(): double[]</text><ellipse cx="33.5" cy="254.7891" fill="#84BE84" rx="3" ry="3" style="stroke:#038048;stroke-width:1.0;"/><text fill="#000000" font-family="sans-serif" font-size="14" lengthAdjust="spacing" textLength="111" x="42.5" y="259.0176">getMin(): double[]</text><ellipse cx="33.5" cy="272.3984" fill="#84BE84" rx="3" ry="3" style="stroke:#038048;stroke-width:1.0;"/><text fill="#000000" font-family="sans-serif" font-size="14" lengthAdjust="spacing" textLength="131" x="42.5" y="276.627">getRange(): double[]</text><ellipse cx="33.5" cy="290.0078" fill="#84BE84" rx="3" ry="3" style="stroke:#038048;stroke-width:1.0;"/><text fill="#000000" font-family="sans-serif" font-size="14" lengthAdjust="spacing" textLength="118" x="42.5" y="294.2363">getnFeatures(): int</text></g></a><rect fill="none" height="12.5781" style="stroke:none;stroke-width:1.0;" width="190" x="40.5" y="323"/><text fill="#888888" font-family="sans-serif" font-size="10" lengthAdjust="spacing" textLength="190" x="40.5" y="333.3809">UMLDoclet 2.0.20, PlantUML 1.2022.12</text><!--MD5=[8e539c74f3af98c7bc333f533acaa78d]
@startuml
    namespace miml.data.normalization {

        class MinMaxNormalization [[MinMaxNormalization.html]] {
            #Max: double[]
            #Min: double[]
            #Range: double[]
            ~nFeatures: int
            ~normalized: boolean
            +normalize(MIMLInstances): void
            +updateStats(MIMLInstances): void
            +isNormalized(): boolean
            +getMax(): double[]
            +getMin(): double[]
            +getRange(): double[]
            +getnFeatures(): int
        }

    }

    center footer UMLDoclet 2.0.20, PlantUML 1.2022.12
@enduml

PlantUML version 1.2022.12(Sun Oct 23 20:12:26 CEST 2022)
(APACHE source distribution)
Java Runtime: OpenJDK Runtime Environment
JVM: OpenJDK 64-Bit Server VM
Default Encoding: Cp1252
Language: es
Country: ES
--></g></svg>