<?xml version="1.0" encoding="UTF-8" standalone="no"?><svg xmlns="http://www.w3.org/2000/svg" xmlns:xlink="http://www.w3.org/1999/xlink" contentStyleType="text/css" height="759px" preserveAspectRatio="none" style="width:441px;height:759px;background:#FFFFFF;" version="1.1" viewBox="0 0 441 759" width="441px" zoomAndPan="magnify"><defs/><g><!--MD5=[e5645ca78678d7ef1728ae883a7ce86f]
class miml.data.statistics.MIMLStatistics--><a href="MIMLStatistics.html" target="_top" title="MIMLStatistics.html" xlink:actuate="onRequest" xlink:href="MIMLStatistics.html" xlink:show="new" xlink:title="MIMLStatistics.html" xlink:type="simple"><g id="elem_miml.data.statistics.MIMLStatistics"><rect codeLine="5" fill="#F1F1F1" height="725.3438" id="miml.data.statistics.MIMLStatistics" rx="2.5" ry="2.5" style="stroke:#181818;stroke-width:0.5;" width="420" x="7" y="7"/><ellipse cx="167.75" cy="27.0938" fill="#ADD1B2" rx="11" ry="11" style="stroke:#181818;stroke-width:1.0;"/><path d="M170.5156,22.9688 Q170.6719,22.75 170.8594,22.6406 Q171.0469,22.5313 171.2656,22.5313 Q171.6406,22.5313 171.875,22.7969 Q172.1094,23.0469 172.1094,23.6563 L172.1094,25.1094 Q172.1094,25.7188 171.875,25.9844 Q171.6406,26.25 171.2656,26.25 Q170.9219,26.25 170.7188,26.0469 Q170.5156,25.8594 170.4063,25.3438 Q170.3594,24.9844 170.1719,24.7969 Q169.8438,24.4219 169.2344,24.2031 Q168.625,23.9844 168,23.9844 Q167.2344,23.9844 166.5938,24.3125 Q165.9688,24.6406 165.4688,25.3906 Q164.9844,26.1406 164.9844,27.1719 L164.9844,28.2656 Q164.9844,29.5 165.875,30.3281 Q166.7656,31.1406 168.3594,31.1406 Q169.2969,31.1406 169.9531,30.8906 Q170.3438,30.7344 170.7656,30.2969 Q171.0313,30.0313 171.1719,29.9531 Q171.3281,29.875 171.5313,29.875 Q171.8594,29.875 172.1094,30.1406 Q172.375,30.3906 172.375,30.7344 Q172.375,31.0781 172.0313,31.4844 Q171.5313,32.0625 170.7344,32.3906 Q169.6563,32.8438 168.3594,32.8438 Q166.8438,32.8438 165.6406,32.2188 Q164.6563,31.7188 163.9688,30.6563 Q163.2813,29.5781 163.2813,28.2969 L163.2813,27.1406 Q163.2813,25.8125 163.8906,24.6719 Q164.5156,23.5156 165.6094,22.9063 Q166.7031,22.2813 167.9375,22.2813 Q168.6719,22.2813 169.3125,22.4531 Q169.9688,22.6094 170.5156,22.9688 Z " fill="#000000"/><text fill="#000000" font-family="sans-serif" font-size="14" lengthAdjust="spacing" textLength="89" x="188.75" y="26.5332">MIMLStatistics</text><text fill="#000000" font-family="sans-serif" font-size="10" lengthAdjust="spacing" textLength="90" x="188.25" y="39.9902">miml.data.statistics</text><line style="stroke:#181818;stroke-width:0.5;" x1="8" x2="426" y1="47.1875" y2="47.1875"/><polygon fill="none" points="18,57.4922,14,63.4922,22,63.4922" style="stroke:#1963A0;stroke-width:1.0;"/><text fill="#000000" font-family="sans-serif" font-size="14" lengthAdjust="spacing" textLength="150" x="27" y="65.7207">dataSet: MIMLInstances</text><polygon fill="none" points="18,74.1016,22,78.1016,18,82.1016,14,78.1016" style="stroke:#B38D22;stroke-width:1.0;"/><text fill="#000000" font-family="sans-serif" font-size="14" lengthAdjust="spacing" textLength="149" x="27" y="83.3301">milstatistics: MIStatistics</text><polygon fill="none" points="18,91.7109,22,95.7109,18,99.7109,14,95.7109" style="stroke:#B38D22;stroke-width:1.0;"/><text fill="#000000" font-family="sans-serif" font-size="14" lengthAdjust="spacing" textLength="151" x="27" y="100.9395">mlstatistics: MLStatistics</text><line style="stroke:#181818;stroke-width:0.5;" x1="8" x2="426" y1="108.0156" y2="108.0156"/><ellipse cx="18" cy="122.3203" fill="#84BE84" rx="3" ry="3" style="stroke:#038048;stroke-width:1.0;"/><text fill="#000000" font-family="sans-serif" font-size="14" lengthAdjust="spacing" textLength="192" x="27" y="126.5488">MIMLStatistics(MIMLInstances)</text><ellipse cx="18" cy="139.9297" fill="#84BE84" rx="3" ry="3" style="stroke:#038048;stroke-width:1.0;"/><text fill="#000000" font-family="sans-serif" font-size="14" lengthAdjust="spacing" textLength="109" x="27" y="144.1582">getPhi(): double[]</text><ellipse cx="18" cy="157.5391" fill="#84BE84" rx="3" ry="3" style="stroke:#038048;stroke-width:1.0;"/><text fill="#000000" font-family="sans-serif" font-size="14" lengthAdjust="spacing" textLength="118" x="27" y="161.7676">getChi2(): double[]</text><ellipse cx="18" cy="175.1484" fill="#84BE84" rx="3" ry="3" style="stroke:#038048;stroke-width:1.0;"/><text fill="#000000" font-family="sans-serif" font-size="14" lengthAdjust="spacing" textLength="125" x="27" y="179.377">cardinality(): double</text><ellipse cx="18" cy="192.7578" fill="#84BE84" rx="3" ry="3" style="stroke:#038048;stroke-width:1.0;"/><text fill="#000000" font-family="sans-serif" font-size="14" lengthAdjust="spacing" textLength="106" x="27" y="196.9863">density(): double</text><ellipse cx="18" cy="210.3672" fill="#84BE84" rx="3" ry="3" style="stroke:#038048;stroke-width:1.0;"/><text fill="#000000" font-family="sans-serif" font-size="14" lengthAdjust="spacing" textLength="105" x="27" y="214.5957">priors(): double[]</text><ellipse cx="18" cy="227.9766" fill="#84BE84" rx="3" ry="3" style="stroke:#038048;stroke-width:1.0;"/><text fill="#000000" font-family="sans-serif" font-size="14" lengthAdjust="spacing" textLength="169" x="27" y="232.2051">labelSets(): Set&lt;LabelSet&gt;</text><ellipse cx="18" cy="245.5859" fill="#84BE84" rx="3" ry="3" style="stroke:#038048;stroke-width:1.0;"/><text fill="#000000" font-family="sans-serif" font-size="14" lengthAdjust="spacing" textLength="208" x="27" y="249.8145">labelSetFrequency(LabelSet): int</text><ellipse cx="18" cy="263.1953" fill="#84BE84" rx="3" ry="3" style="stroke:#038048;stroke-width:1.0;"/><text fill="#000000" font-family="sans-serif" font-size="14" lengthAdjust="spacing" textLength="306" x="27" y="267.4238">labelCombCount(): HashMap&lt;LabelSet, Integer&gt;</text><ellipse cx="18" cy="280.8047" fill="#84BE84" rx="3" ry="3" style="stroke:#038048;stroke-width:1.0;"/><text fill="#000000" font-family="sans-serif" font-size="14" lengthAdjust="spacing" textLength="308" x="27" y="285.0332">calculateCooncurrence(MIMLInstances): double[]</text><ellipse cx="18" cy="298.4141" fill="#84BE84" rx="3" ry="3" style="stroke:#038048;stroke-width:1.0;"/><text fill="#000000" font-family="sans-serif" font-size="14" lengthAdjust="spacing" textLength="242" x="27" y="302.6426">calculatePhiChi2(MIMLInstances): void</text><ellipse cx="18" cy="316.0234" fill="#84BE84" rx="3" ry="3" style="stroke:#038048;stroke-width:1.0;"/><text fill="#000000" font-family="sans-serif" font-size="14" lengthAdjust="spacing" textLength="172" x="27" y="320.252">getPhiHistogram(): double[]</text><ellipse cx="18" cy="333.6328" fill="#84BE84" rx="3" ry="3" style="stroke:#038048;stroke-width:1.0;"/><text fill="#000000" font-family="sans-serif" font-size="14" lengthAdjust="spacing" textLength="229" x="27" y="337.8613">uncorrelatedLabels(int, double): int[]</text><ellipse cx="18" cy="351.2422" fill="#84BE84" rx="3" ry="3" style="stroke:#038048;stroke-width:1.0;"/><text fill="#000000" font-family="sans-serif" font-size="14" lengthAdjust="spacing" textLength="228" x="27" y="355.4707">topPhiCorrelatedLabels(int, int): int[]</text><ellipse cx="18" cy="368.8516" fill="#84BE84" rx="3" ry="3" style="stroke:#038048;stroke-width:1.0;"/><text fill="#000000" font-family="sans-serif" font-size="14" lengthAdjust="spacing" textLength="188" x="27" y="373.0801">printPhiDiagram(double): void</text><ellipse cx="18" cy="386.4609" fill="#84BE84" rx="3" ry="3" style="stroke:#038048;stroke-width:1.0;"/><text fill="#000000" font-family="sans-serif" font-size="14" lengthAdjust="spacing" textLength="149" x="27" y="390.6895">innerClassIR(): double[]</text><ellipse cx="18" cy="404.0703" fill="#84BE84" rx="3" ry="3" style="stroke:#038048;stroke-width:1.0;"/><text fill="#000000" font-family="sans-serif" font-size="14" lengthAdjust="spacing" textLength="145" x="27" y="408.2988">interClassIR(): double[]</text><ellipse cx="18" cy="421.6797" fill="#84BE84" rx="3" ry="3" style="stroke:#038048;stroke-width:1.0;"/><text fill="#000000" font-family="sans-serif" font-size="14" lengthAdjust="spacing" textLength="177" x="27" y="425.9082">averageIR(double[]): double</text><ellipse cx="18" cy="439.2891" fill="#84BE84" rx="3" ry="3" style="stroke:#038048;stroke-width:1.0;"/><text fill="#000000" font-family="sans-serif" font-size="14" lengthAdjust="spacing" textLength="179" x="27" y="443.5176">varianceIR(double[]): double</text><ellipse cx="18" cy="456.8984" fill="#84BE84" rx="3" ry="3" style="stroke:#038048;stroke-width:1.0;"/><text fill="#000000" font-family="sans-serif" font-size="14" lengthAdjust="spacing" textLength="113" x="27" y="461.127">pUnique(): double</text><ellipse cx="18" cy="474.5078" fill="#84BE84" rx="3" ry="3" style="stroke:#038048;stroke-width:1.0;"/><text fill="#000000" font-family="sans-serif" font-size="14" lengthAdjust="spacing" textLength="94" x="27" y="478.7363">pMax(): double</text><ellipse cx="18" cy="492.1172" fill="#84BE84" rx="3" ry="3" style="stroke:#038048;stroke-width:1.0;"/><text fill="#000000" font-family="sans-serif" font-size="14" lengthAdjust="spacing" textLength="265" x="27" y="496.3457">labelSkew(): HashMap&lt;LabelSet, Double&gt;</text><ellipse cx="18" cy="509.7266" fill="#84BE84" rx="3" ry="3" style="stroke:#038048;stroke-width:1.0;"/><text fill="#000000" font-family="sans-serif" font-size="14" lengthAdjust="spacing" textLength="330" x="27" y="513.9551">averageSkew(HashMap&lt;LabelSet, Double&gt;): double</text><ellipse cx="18" cy="527.3359" fill="#84BE84" rx="3" ry="3" style="stroke:#038048;stroke-width:1.0;"/><text fill="#000000" font-family="sans-serif" font-size="14" lengthAdjust="spacing" textLength="125" x="27" y="531.5645">skewRatio(): double</text><ellipse cx="18" cy="544.9453" fill="#84BE84" rx="3" ry="3" style="stroke:#038048;stroke-width:1.0;"/><text fill="#000000" font-family="sans-serif" font-size="14" lengthAdjust="spacing" textLength="95" x="27" y="549.1738">toCSV(): String</text><polygon fill="#FFFF44" points="18,557.5547,22,561.5547,18,565.5547,14,561.5547" style="stroke:#B38D22;stroke-width:1.0;"/><text fill="#000000" font-family="sans-serif" font-size="14" lengthAdjust="spacing" textLength="394" x="27" y="566.7832">distributionBagsToString(HashMap&lt;LabelSet, Double&gt;): String</text><polygon fill="#FFFF44" points="18,575.1641,22,579.1641,18,583.1641,14,579.1641" style="stroke:#B38D22;stroke-width:1.0;"/><text fill="#000000" font-family="sans-serif" font-size="14" lengthAdjust="spacing" textLength="385" x="27" y="584.3926">distributionBagsToCSV(HashMap&lt;LabelSet, Double&gt;): String</text><ellipse cx="18" cy="597.7734" fill="#84BE84" rx="3" ry="3" style="stroke:#038048;stroke-width:1.0;"/><text fill="#000000" font-family="sans-serif" font-size="14" lengthAdjust="spacing" textLength="196" x="27" y="602.002">cooncurrenceToString(): String</text><ellipse cx="18" cy="615.3828" fill="#84BE84" rx="3" ry="3" style="stroke:#038048;stroke-width:1.0;"/><text fill="#000000" font-family="sans-serif" font-size="14" lengthAdjust="spacing" textLength="187" x="27" y="619.6113">cooncurrenceToCSV(): String</text><ellipse cx="18" cy="632.9922" fill="#84BE84" rx="3" ry="3" style="stroke:#038048;stroke-width:1.0;"/><text fill="#000000" font-family="sans-serif" font-size="14" lengthAdjust="spacing" textLength="234" x="27" y="637.2207">correlationsToString(double[]): String</text><ellipse cx="18" cy="650.6016" fill="#84BE84" rx="3" ry="3" style="stroke:#038048;stroke-width:1.0;"/><text fill="#000000" font-family="sans-serif" font-size="14" lengthAdjust="spacing" textLength="225" x="27" y="654.8301">correlationsToCSV(double[]): String</text><polygon fill="#FFFF44" points="18,663.2109,22,667.2109,18,671.2109,14,667.2109" style="stroke:#B38D22;stroke-width:1.0;"/><text fill="#000000" font-family="sans-serif" font-size="14" lengthAdjust="spacing" textLength="210" x="27" y="672.4395">distributionBagsToString(): String</text><polygon fill="#FFFF44" points="18,680.8203,22,684.8203,18,688.8203,14,684.8203" style="stroke:#B38D22;stroke-width:1.0;"/><text fill="#000000" font-family="sans-serif" font-size="14" lengthAdjust="spacing" textLength="201" x="27" y="690.0488">distributionBagsToCSV(): String</text><ellipse cx="18" cy="703.4297" fill="#84BE84" rx="3" ry="3" style="stroke:#038048;stroke-width:1.0;"/><text fill="#000000" font-family="sans-serif" font-size="14" lengthAdjust="spacing" textLength="182" x="27" y="707.6582">getDataSet(): MIMLInstances</text><ellipse cx="18" cy="721.0391" fill="#84BE84" rx="3" ry="3" style="stroke:#038048;stroke-width:1.0;"/><text fill="#000000" font-family="sans-serif" font-size="14" lengthAdjust="spacing" textLength="207" x="27" y="725.2676">setDataSet(MIMLInstances): void</text></g></a><rect fill="none" height="12.5781" style="stroke:none;stroke-width:1.0;" width="190" x="121.5" y="739.3438"/><text fill="#888888" font-family="sans-serif" font-size="10" lengthAdjust="spacing" textLength="190" x="121.5" y="749.7246">UMLDoclet 2.0.20, PlantUML 1.2022.12</text><!--MD5=[2df7afaee19af8bfba69191bb15ab640]
@startuml
    set namespaceSeparator none
    hide empty fields
    hide empty methods

    class "<size:14>MIMLStatistics\n<size:10>miml.data.statistics" as miml.data.statistics.MIMLStatistics [[MIMLStatistics.html]] {
        ~dataSet: MIMLInstances
        #milstatistics: MIStatistics
        #mlstatistics: MLStatistics
        +MIMLStatistics(MIMLInstances)
        +getPhi(): double[]
        +getChi2(): double[]
        +cardinality(): double
        +density(): double
        +priors(): double[]
        +labelSets(): Set<LabelSet>
        +labelSetFrequency(LabelSet): int
        +labelCombCount(): HashMap<LabelSet, Integer>
        +calculateCooncurrence(MIMLInstances): double[]
        +calculatePhiChi2(MIMLInstances): void
        +getPhiHistogram(): double[]
        +uncorrelatedLabels(int, double): int[]
        +topPhiCorrelatedLabels(int, int): int[]
        +printPhiDiagram(double): void
        +innerClassIR(): double[]
        +interClassIR(): double[]
        +averageIR(double[]): double
        +varianceIR(double[]): double
        +pUnique(): double
        +pMax(): double
        +labelSkew(): HashMap<LabelSet, Double>
        +averageSkew(HashMap<LabelSet, Double>): double
        +skewRatio(): double
        +toCSV(): String
        #distributionBagsToString(HashMap<LabelSet, Double>): String
        #distributionBagsToCSV(HashMap<LabelSet, Double>): String
        +cooncurrenceToString(): String
        +cooncurrenceToCSV(): String
        +correlationsToString(double[]): String
        +correlationsToCSV(double[]): String
        #distributionBagsToString(): String
        #distributionBagsToCSV(): String
        +getDataSet(): MIMLInstances
        +setDataSet(MIMLInstances): void
    }

    center footer UMLDoclet 2.0.20, PlantUML 1.2022.12
@enduml

PlantUML version 1.2022.12(Sun Oct 23 20:12:26 CEST 2022)
(APACHE source distribution)
Java Runtime: OpenJDK Runtime Environment
JVM: OpenJDK 64-Bit Server VM
Default Encoding: Cp1252
Language: es
Country: ES
--></g></svg>