<?xml version="1.0" encoding="UTF-8" standalone="no"?><svg xmlns="http://www.w3.org/2000/svg" xmlns:xlink="http://www.w3.org/1999/xlink" contentStyleType="text/css" height="319px" preserveAspectRatio="none" style="width:327px;height:319px;background:#FFFFFF;" version="1.1" viewBox="0 0 327 319" width="327px" zoomAndPan="magnify"><defs/><g><!--MD5=[29f185889510f1cbf134fac48bcbf9be]
class miml.data.statistics.MIStatistics--><a href="MIStatistics.html" target="_top" title="MIStatistics.html" xlink:actuate="onRequest" xlink:href="MIStatistics.html" xlink:show="new" xlink:title="MIStatistics.html" xlink:type="simple"><g id="elem_miml.data.statistics.MIStatistics"><rect codeLine="5" fill="#F1F1F1" height="285.1094" id="miml.data.statistics.MIStatistics" rx="2.5" ry="2.5" style="stroke:#181818;stroke-width:0.5;" width="306" x="7" y="7"/><ellipse cx="110.75" cy="27.0938" fill="#ADD1B2" rx="11" ry="11" style="stroke:#181818;stroke-width:1.0;"/><path d="M113.5156,22.9688 Q113.6719,22.75 113.8594,22.6406 Q114.0469,22.5313 114.2656,22.5313 Q114.6406,22.5313 114.875,22.7969 Q115.1094,23.0469 115.1094,23.6563 L115.1094,25.1094 Q115.1094,25.7188 114.875,25.9844 Q114.6406,26.25 114.2656,26.25 Q113.9219,26.25 113.7188,26.0469 Q113.5156,25.8594 113.4063,25.3438 Q113.3594,24.9844 113.1719,24.7969 Q112.8438,24.4219 112.2344,24.2031 Q111.625,23.9844 111,23.9844 Q110.2344,23.9844 109.5938,24.3125 Q108.9688,24.6406 108.4688,25.3906 Q107.9844,26.1406 107.9844,27.1719 L107.9844,28.2656 Q107.9844,29.5 108.875,30.3281 Q109.7656,31.1406 111.3594,31.1406 Q112.2969,31.1406 112.9531,30.8906 Q113.3438,30.7344 113.7656,30.2969 Q114.0313,30.0313 114.1719,29.9531 Q114.3281,29.875 114.5313,29.875 Q114.8594,29.875 115.1094,30.1406 Q115.375,30.3906 115.375,30.7344 Q115.375,31.0781 115.0313,31.4844 Q114.5313,32.0625 113.7344,32.3906 Q112.6563,32.8438 111.3594,32.8438 Q109.8438,32.8438 108.6406,32.2188 Q107.6563,31.7188 106.9688,30.6563 Q106.2813,29.5781 106.2813,28.2969 L106.2813,27.1406 Q106.2813,25.8125 106.8906,24.6719 Q107.5156,23.5156 108.6094,22.9063 Q109.7031,22.2813 110.9375,22.2813 Q111.6719,22.2813 112.3125,22.4531 Q112.9688,22.6094 113.5156,22.9688 Z " fill="#000000"/><text fill="#000000" font-family="sans-serif" font-size="14" lengthAdjust="spacing" textLength="70" x="141.25" y="26.5332">MIStatistics</text><text fill="#000000" font-family="sans-serif" font-size="10" lengthAdjust="spacing" textLength="90" x="131.25" y="39.9902">miml.data.statistics</text><line style="stroke:#181818;stroke-width:0.5;" x1="8" x2="312" y1="47.1875" y2="47.1875"/><polygon fill="none" points="18,57.4922,14,63.4922,22,63.4922" style="stroke:#1963A0;stroke-width:1.0;"/><text fill="#000000" font-family="sans-serif" font-size="14" lengthAdjust="spacing" textLength="152" x="27" y="65.7207">minInstancesPerBag: int</text><polygon fill="none" points="18,75.1016,14,81.1016,22,81.1016" style="stroke:#1963A0;stroke-width:1.0;"/><text fill="#000000" font-family="sans-serif" font-size="14" lengthAdjust="spacing" textLength="155" x="27" y="83.3301">maxInstancesPerBag: int</text><polygon fill="none" points="18,92.7109,14,98.7109,22,98.7109" style="stroke:#1963A0;stroke-width:1.0;"/><text fill="#000000" font-family="sans-serif" font-size="14" lengthAdjust="spacing" textLength="181" x="27" y="100.9395">avgInstancesPerBag: double</text><polygon fill="none" points="18,110.3203,14,116.3203,22,116.3203" style="stroke:#1963A0;stroke-width:1.0;"/><text fill="#000000" font-family="sans-serif" font-size="14" lengthAdjust="spacing" textLength="129" x="27" y="118.5488">attributesPerBag: int</text><polygon fill="none" points="18,127.9297,14,133.9297,22,133.9297" style="stroke:#1963A0;stroke-width:1.0;"/><text fill="#000000" font-family="sans-serif" font-size="14" lengthAdjust="spacing" textLength="82" x="27" y="136.1582">numBags: int</text><polygon fill="none" points="18,145.5391,14,151.5391,22,151.5391" style="stroke:#1963A0;stroke-width:1.0;"/><text fill="#000000" font-family="sans-serif" font-size="14" lengthAdjust="spacing" textLength="110" x="27" y="153.7676">totalInstances: int</text><polygon fill="none" points="18,163.1484,14,169.1484,22,169.1484" style="stroke:#1963A0;stroke-width:1.0;"/><text fill="#000000" font-family="sans-serif" font-size="14" lengthAdjust="spacing" textLength="280" x="27" y="171.377">distributionBags: HashMap&lt;Integer, Integer&gt;</text><polygon fill="none" points="18,180.7578,14,186.7578,22,186.7578" style="stroke:#1963A0;stroke-width:1.0;"/><text fill="#000000" font-family="sans-serif" font-size="14" lengthAdjust="spacing" textLength="117" x="27" y="188.9863">dataSet: Instances</text><line style="stroke:#181818;stroke-width:0.5;" x1="8" x2="312" y1="196.0625" y2="196.0625"/><ellipse cx="18" cy="210.3672" fill="#84BE84" rx="3" ry="3" style="stroke:#038048;stroke-width:1.0;"/><text fill="#000000" font-family="sans-serif" font-size="14" lengthAdjust="spacing" textLength="140" x="27" y="214.5957">MIStatistics(Instances)</text><polygon fill="#FFFF44" points="18,222.9766,22,226.9766,18,230.9766,14,226.9766" style="stroke:#B38D22;stroke-width:1.0;"/><text fill="#000000" font-family="sans-serif" font-size="14" lengthAdjust="spacing" textLength="132" x="27" y="232.2051">calculateStats(): void</text><polygon fill="#FFFF44" points="18,240.5859,22,244.5859,18,248.5859,14,244.5859" style="stroke:#B38D22;stroke-width:1.0;"/><text fill="#000000" font-family="sans-serif" font-size="14" lengthAdjust="spacing" textLength="210" x="27" y="249.8145">distributionBagsToString(): String</text><polygon fill="#FFFF44" points="18,258.1953,22,262.1953,18,266.1953,14,262.1953" style="stroke:#B38D22;stroke-width:1.0;"/><text fill="#000000" font-family="sans-serif" font-size="14" lengthAdjust="spacing" textLength="201" x="27" y="267.4238">distributionBagsToCSV(): String</text><ellipse cx="18" cy="280.8047" fill="#84BE84" rx="3" ry="3" style="stroke:#038048;stroke-width:1.0;"/><text fill="#000000" font-family="sans-serif" font-size="14" lengthAdjust="spacing" textLength="95" x="27" y="285.0332">toCSV(): String</text></g></a><rect fill="none" height="12.5781" style="stroke:none;stroke-width:1.0;" width="190" x="64.5" y="299.1094"/><text fill="#888888" font-family="sans-serif" font-size="10" lengthAdjust="spacing" textLength="190" x="64.5" y="309.4902">UMLDoclet 2.0.20, PlantUML 1.2022.12</text><!--MD5=[13c9434eb3e5422bc172b78606b3233b]
@startuml
    set namespaceSeparator none
    hide empty fields
    hide empty methods

    class "<size:14>MIStatistics\n<size:10>miml.data.statistics" as miml.data.statistics.MIStatistics [[MIStatistics.html]] {
        ~minInstancesPerBag: int
        ~maxInstancesPerBag: int
        ~avgInstancesPerBag: double
        ~attributesPerBag: int
        ~numBags: int
        ~totalInstances: int
        ~distributionBags: HashMap<Integer, Integer>
        ~dataSet: Instances
        +MIStatistics(Instances)
        #calculateStats(): void
        #distributionBagsToString(): String
        #distributionBagsToCSV(): String
        +toCSV(): String
    }

    center footer UMLDoclet 2.0.20, PlantUML 1.2022.12
@enduml

PlantUML version 1.2022.12(Sun Oct 23 20:12:26 CEST 2022)
(APACHE source distribution)
Java Runtime: OpenJDK Runtime Environment
JVM: OpenJDK 64-Bit Server VM
Default Encoding: Cp1252
Language: es
Country: ES
--></g></svg>