<?xml version="1.0" encoding="UTF-8" standalone="no"?><svg xmlns="http://www.w3.org/2000/svg" xmlns:xlink="http://www.w3.org/1999/xlink" contentStyleType="text/css" height="1737px" preserveAspectRatio="none" style="width:806px;height:1737px;background:#FFFFFF;" version="1.1" viewBox="0 0 806 1737" width="806px" zoomAndPan="magnify"><defs/><g><!--MD5=[2fe02138c39a64014b57a3201dc8b00a]
cluster miml.data.statistics--><g id="cluster_miml.data.statistics"><path d="M8.5,6 L142.5,6 A3.75,3.75 0 0 1 145,8.5 L152,29.6094 L796.5,29.6094 A2.5,2.5 0 0 1 799,32.1094 L799,1708.5 A2.5,2.5 0 0 1 796.5,1711 L8.5,1711 A2.5,2.5 0 0 1 6,1708.5 L6,8.5 A2.5,2.5 0 0 1 8.5,6 " fill="none" style="stroke:#000000;stroke-width:1.5;"/><line style="stroke:#000000;stroke-width:1.5;" x1="6" x2="152" y1="29.6094" y2="29.6094"/><text fill="#000000" font-family="sans-serif" font-size="14" font-weight="bold" lengthAdjust="spacing" textLength="133" x="10" y="22.5332">miml.data.statistics</text></g><!--MD5=[e5645ca78678d7ef1728ae883a7ce86f]
class miml.data.statistics.MIMLStatistics--><a href="MIMLStatistics.html" target="_top" title="MIMLStatistics.html" xlink:actuate="onRequest" xlink:href="MIMLStatistics.html" xlink:show="new" xlink:title="MIMLStatistics.html" xlink:type="simple"><g id="elem_miml.data.statistics.MIMLStatistics"><rect codeLine="3" fill="#F1F1F1" height="681.9375" id="miml.data.statistics.MIMLStatistics" rx="2.5" ry="2.5" style="stroke:#181818;stroke-width:0.5;" width="420" x="164" y="42"/><ellipse cx="325.25" cy="58" fill="#ADD1B2" rx="11" ry="11" style="stroke:#181818;stroke-width:1.0;"/><path d="M328.0156,53.875 Q328.1719,53.6563 328.3594,53.5469 Q328.5469,53.4375 328.7656,53.4375 Q329.1406,53.4375 329.375,53.7031 Q329.6094,53.9531 329.6094,54.5625 L329.6094,56.0156 Q329.6094,56.625 329.375,56.8906 Q329.1406,57.1563 328.7656,57.1563 Q328.4219,57.1563 328.2188,56.9531 Q328.0156,56.7656 327.9063,56.25 Q327.8594,55.8906 327.6719,55.7031 Q327.3438,55.3281 326.7344,55.1094 Q326.125,54.8906 325.5,54.8906 Q324.7344,54.8906 324.0938,55.2188 Q323.4688,55.5469 322.9688,56.2969 Q322.4844,57.0469 322.4844,58.0781 L322.4844,59.1719 Q322.4844,60.4063 323.375,61.2344 Q324.2656,62.0469 325.8594,62.0469 Q326.7969,62.0469 327.4531,61.7969 Q327.8438,61.6406 328.2656,61.2031 Q328.5313,60.9375 328.6719,60.8594 Q328.8281,60.7813 329.0313,60.7813 Q329.3594,60.7813 329.6094,61.0469 Q329.875,61.2969 329.875,61.6406 Q329.875,61.9844 329.5313,62.3906 Q329.0313,62.9688 328.2344,63.2969 Q327.1563,63.75 325.8594,63.75 Q324.3438,63.75 323.1406,63.125 Q322.1563,62.625 321.4688,61.5625 Q320.7813,60.4844 320.7813,59.2031 L320.7813,58.0469 Q320.7813,56.7188 321.3906,55.5781 Q322.0156,54.4219 323.1094,53.8125 Q324.2031,53.1875 325.4375,53.1875 Q326.1719,53.1875 326.8125,53.3594 Q327.4688,53.5156 328.0156,53.875 Z " fill="#000000"/><text fill="#000000" font-family="sans-serif" font-size="14" lengthAdjust="spacing" textLength="89" x="345.75" y="63.7285">MIMLStatistics</text><line style="stroke:#181818;stroke-width:0.5;" x1="165" x2="583" y1="74" y2="74"/><polygon fill="none" points="175,84.3047,171,90.3047,179,90.3047" style="stroke:#1963A0;stroke-width:1.0;"/><text fill="#000000" font-family="sans-serif" font-size="14" lengthAdjust="spacing" textLength="150" x="184" y="92.5332">dataSet: MIMLInstances</text><line style="stroke:#181818;stroke-width:0.5;" x1="165" x2="583" y1="99.6094" y2="99.6094"/><ellipse cx="175" cy="113.9141" fill="#84BE84" rx="3" ry="3" style="stroke:#038048;stroke-width:1.0;"/><text fill="#000000" font-family="sans-serif" font-size="14" lengthAdjust="spacing" textLength="192" x="184" y="118.1426">MIMLStatistics(MIMLInstances)</text><ellipse cx="175" cy="131.5234" fill="#84BE84" rx="3" ry="3" style="stroke:#038048;stroke-width:1.0;"/><text fill="#000000" font-family="sans-serif" font-size="14" lengthAdjust="spacing" textLength="109" x="184" y="135.752">getPhi(): double[]</text><ellipse cx="175" cy="149.1328" fill="#84BE84" rx="3" ry="3" style="stroke:#038048;stroke-width:1.0;"/><text fill="#000000" font-family="sans-serif" font-size="14" lengthAdjust="spacing" textLength="118" x="184" y="153.3613">getChi2(): double[]</text><ellipse cx="175" cy="166.7422" fill="#84BE84" rx="3" ry="3" style="stroke:#038048;stroke-width:1.0;"/><text fill="#000000" font-family="sans-serif" font-size="14" lengthAdjust="spacing" textLength="125" x="184" y="170.9707">cardinality(): double</text><ellipse cx="175" cy="184.3516" fill="#84BE84" rx="3" ry="3" style="stroke:#038048;stroke-width:1.0;"/><text fill="#000000" font-family="sans-serif" font-size="14" lengthAdjust="spacing" textLength="106" x="184" y="188.5801">density(): double</text><ellipse cx="175" cy="201.9609" fill="#84BE84" rx="3" ry="3" style="stroke:#038048;stroke-width:1.0;"/><text fill="#000000" font-family="sans-serif" font-size="14" lengthAdjust="spacing" textLength="105" x="184" y="206.1895">priors(): double[]</text><ellipse cx="175" cy="219.5703" fill="#84BE84" rx="3" ry="3" style="stroke:#038048;stroke-width:1.0;"/><text fill="#000000" font-family="sans-serif" font-size="14" lengthAdjust="spacing" textLength="169" x="184" y="223.7988">labelSets(): Set&lt;LabelSet&gt;</text><ellipse cx="175" cy="237.1797" fill="#84BE84" rx="3" ry="3" style="stroke:#038048;stroke-width:1.0;"/><text fill="#000000" font-family="sans-serif" font-size="14" lengthAdjust="spacing" textLength="208" x="184" y="241.4082">labelSetFrequency(LabelSet): int</text><ellipse cx="175" cy="254.7891" fill="#84BE84" rx="3" ry="3" style="stroke:#038048;stroke-width:1.0;"/><text fill="#000000" font-family="sans-serif" font-size="14" lengthAdjust="spacing" textLength="306" x="184" y="259.0176">labelCombCount(): HashMap&lt;LabelSet, Integer&gt;</text><ellipse cx="175" cy="272.3984" fill="#84BE84" rx="3" ry="3" style="stroke:#038048;stroke-width:1.0;"/><text fill="#000000" font-family="sans-serif" font-size="14" lengthAdjust="spacing" textLength="308" x="184" y="276.627">calculateCooncurrence(MIMLInstances): double[]</text><ellipse cx="175" cy="290.0078" fill="#84BE84" rx="3" ry="3" style="stroke:#038048;stroke-width:1.0;"/><text fill="#000000" font-family="sans-serif" font-size="14" lengthAdjust="spacing" textLength="242" x="184" y="294.2363">calculatePhiChi2(MIMLInstances): void</text><ellipse cx="175" cy="307.6172" fill="#84BE84" rx="3" ry="3" style="stroke:#038048;stroke-width:1.0;"/><text fill="#000000" font-family="sans-serif" font-size="14" lengthAdjust="spacing" textLength="172" x="184" y="311.8457">getPhiHistogram(): double[]</text><ellipse cx="175" cy="325.2266" fill="#84BE84" rx="3" ry="3" style="stroke:#038048;stroke-width:1.0;"/><text fill="#000000" font-family="sans-serif" font-size="14" lengthAdjust="spacing" textLength="229" x="184" y="329.4551">uncorrelatedLabels(int, double): int[]</text><ellipse cx="175" cy="342.8359" fill="#84BE84" rx="3" ry="3" style="stroke:#038048;stroke-width:1.0;"/><text fill="#000000" font-family="sans-serif" font-size="14" lengthAdjust="spacing" textLength="228" x="184" y="347.0645">topPhiCorrelatedLabels(int, int): int[]</text><ellipse cx="175" cy="360.4453" fill="#84BE84" rx="3" ry="3" style="stroke:#038048;stroke-width:1.0;"/><text fill="#000000" font-family="sans-serif" font-size="14" lengthAdjust="spacing" textLength="188" x="184" y="364.6738">printPhiDiagram(double): void</text><ellipse cx="175" cy="378.0547" fill="#84BE84" rx="3" ry="3" style="stroke:#038048;stroke-width:1.0;"/><text fill="#000000" font-family="sans-serif" font-size="14" lengthAdjust="spacing" textLength="149" x="184" y="382.2832">innerClassIR(): double[]</text><ellipse cx="175" cy="395.6641" fill="#84BE84" rx="3" ry="3" style="stroke:#038048;stroke-width:1.0;"/><text fill="#000000" font-family="sans-serif" font-size="14" lengthAdjust="spacing" textLength="145" x="184" y="399.8926">interClassIR(): double[]</text><ellipse cx="175" cy="413.2734" fill="#84BE84" rx="3" ry="3" style="stroke:#038048;stroke-width:1.0;"/><text fill="#000000" font-family="sans-serif" font-size="14" lengthAdjust="spacing" textLength="177" x="184" y="417.502">averageIR(double[]): double</text><ellipse cx="175" cy="430.8828" fill="#84BE84" rx="3" ry="3" style="stroke:#038048;stroke-width:1.0;"/><text fill="#000000" font-family="sans-serif" font-size="14" lengthAdjust="spacing" textLength="179" x="184" y="435.1113">varianceIR(double[]): double</text><ellipse cx="175" cy="448.4922" fill="#84BE84" rx="3" ry="3" style="stroke:#038048;stroke-width:1.0;"/><text fill="#000000" font-family="sans-serif" font-size="14" lengthAdjust="spacing" textLength="113" x="184" y="452.7207">pUnique(): double</text><ellipse cx="175" cy="466.1016" fill="#84BE84" rx="3" ry="3" style="stroke:#038048;stroke-width:1.0;"/><text fill="#000000" font-family="sans-serif" font-size="14" lengthAdjust="spacing" textLength="94" x="184" y="470.3301">pMax(): double</text><ellipse cx="175" cy="483.7109" fill="#84BE84" rx="3" ry="3" style="stroke:#038048;stroke-width:1.0;"/><text fill="#000000" font-family="sans-serif" font-size="14" lengthAdjust="spacing" textLength="265" x="184" y="487.9395">labelSkew(): HashMap&lt;LabelSet, Double&gt;</text><ellipse cx="175" cy="501.3203" fill="#84BE84" rx="3" ry="3" style="stroke:#038048;stroke-width:1.0;"/><text fill="#000000" font-family="sans-serif" font-size="14" lengthAdjust="spacing" textLength="330" x="184" y="505.5488">averageSkew(HashMap&lt;LabelSet, Double&gt;): double</text><ellipse cx="175" cy="518.9297" fill="#84BE84" rx="3" ry="3" style="stroke:#038048;stroke-width:1.0;"/><text fill="#000000" font-family="sans-serif" font-size="14" lengthAdjust="spacing" textLength="125" x="184" y="523.1582">skewRatio(): double</text><ellipse cx="175" cy="536.5391" fill="#84BE84" rx="3" ry="3" style="stroke:#038048;stroke-width:1.0;"/><text fill="#000000" font-family="sans-serif" font-size="14" lengthAdjust="spacing" textLength="95" x="184" y="540.7676">toCSV(): String</text><polygon fill="#FFFF44" points="175,549.1484,179,553.1484,175,557.1484,171,553.1484" style="stroke:#B38D22;stroke-width:1.0;"/><text fill="#000000" font-family="sans-serif" font-size="14" lengthAdjust="spacing" textLength="394" x="184" y="558.377">distributionBagsToString(HashMap&lt;LabelSet, Double&gt;): String</text><polygon fill="#FFFF44" points="175,566.7578,179,570.7578,175,574.7578,171,570.7578" style="stroke:#B38D22;stroke-width:1.0;"/><text fill="#000000" font-family="sans-serif" font-size="14" lengthAdjust="spacing" textLength="385" x="184" y="575.9863">distributionBagsToCSV(HashMap&lt;LabelSet, Double&gt;): String</text><ellipse cx="175" cy="589.3672" fill="#84BE84" rx="3" ry="3" style="stroke:#038048;stroke-width:1.0;"/><text fill="#000000" font-family="sans-serif" font-size="14" lengthAdjust="spacing" textLength="196" x="184" y="593.5957">cooncurrenceToString(): String</text><ellipse cx="175" cy="606.9766" fill="#84BE84" rx="3" ry="3" style="stroke:#038048;stroke-width:1.0;"/><text fill="#000000" font-family="sans-serif" font-size="14" lengthAdjust="spacing" textLength="187" x="184" y="611.2051">cooncurrenceToCSV(): String</text><ellipse cx="175" cy="624.5859" fill="#84BE84" rx="3" ry="3" style="stroke:#038048;stroke-width:1.0;"/><text fill="#000000" font-family="sans-serif" font-size="14" lengthAdjust="spacing" textLength="234" x="184" y="628.8145">correlationsToString(double[]): String</text><ellipse cx="175" cy="642.1953" fill="#84BE84" rx="3" ry="3" style="stroke:#038048;stroke-width:1.0;"/><text fill="#000000" font-family="sans-serif" font-size="14" lengthAdjust="spacing" textLength="225" x="184" y="646.4238">correlationsToCSV(double[]): String</text><polygon fill="#FFFF44" points="175,654.8047,179,658.8047,175,662.8047,171,658.8047" style="stroke:#B38D22;stroke-width:1.0;"/><text fill="#000000" font-family="sans-serif" font-size="14" lengthAdjust="spacing" textLength="210" x="184" y="664.0332">distributionBagsToString(): String</text><polygon fill="#FFFF44" points="175,672.4141,179,676.4141,175,680.4141,171,676.4141" style="stroke:#B38D22;stroke-width:1.0;"/><text fill="#000000" font-family="sans-serif" font-size="14" lengthAdjust="spacing" textLength="201" x="184" y="681.6426">distributionBagsToCSV(): String</text><ellipse cx="175" cy="695.0234" fill="#84BE84" rx="3" ry="3" style="stroke:#038048;stroke-width:1.0;"/><text fill="#000000" font-family="sans-serif" font-size="14" lengthAdjust="spacing" textLength="182" x="184" y="699.252">getDataSet(): MIMLInstances</text><ellipse cx="175" cy="712.6328" fill="#84BE84" rx="3" ry="3" style="stroke:#038048;stroke-width:1.0;"/><text fill="#000000" font-family="sans-serif" font-size="14" lengthAdjust="spacing" textLength="207" x="184" y="716.8613">setDataSet(MIMLInstances): void</text></g></a><!--MD5=[29f185889510f1cbf134fac48bcbf9be]
class miml.data.statistics.MIStatistics--><a href="MIStatistics.html" target="_top" title="MIStatistics.html" xlink:actuate="onRequest" xlink:href="MIStatistics.html" xlink:show="new" xlink:title="MIStatistics.html" xlink:type="simple"><g id="elem_miml.data.statistics.MIStatistics"><rect codeLine="42" fill="#F1F1F1" height="276.9219" id="miml.data.statistics.MIStatistics" rx="2.5" ry="2.5" style="stroke:#181818;stroke-width:0.5;" width="306" x="22" y="1110"/><ellipse cx="135.75" cy="1126" fill="#ADD1B2" rx="11" ry="11" style="stroke:#181818;stroke-width:1.0;"/><path d="M138.5156,1121.875 Q138.6719,1121.6563 138.8594,1121.5469 Q139.0469,1121.4375 139.2656,1121.4375 Q139.6406,1121.4375 139.875,1121.7031 Q140.1094,1121.9531 140.1094,1122.5625 L140.1094,1124.0156 Q140.1094,1124.625 139.875,1124.8906 Q139.6406,1125.1563 139.2656,1125.1563 Q138.9219,1125.1563 138.7188,1124.9531 Q138.5156,1124.7656 138.4063,1124.25 Q138.3594,1123.8906 138.1719,1123.7031 Q137.8438,1123.3281 137.2344,1123.1094 Q136.625,1122.8906 136,1122.8906 Q135.2344,1122.8906 134.5938,1123.2188 Q133.9688,1123.5469 133.4688,1124.2969 Q132.9844,1125.0469 132.9844,1126.0781 L132.9844,1127.1719 Q132.9844,1128.4063 133.875,1129.2344 Q134.7656,1130.0469 136.3594,1130.0469 Q137.2969,1130.0469 137.9531,1129.7969 Q138.3438,1129.6406 138.7656,1129.2031 Q139.0313,1128.9375 139.1719,1128.8594 Q139.3281,1128.7813 139.5313,1128.7813 Q139.8594,1128.7813 140.1094,1129.0469 Q140.375,1129.2969 140.375,1129.6406 Q140.375,1129.9844 140.0313,1130.3906 Q139.5313,1130.9688 138.7344,1131.2969 Q137.6563,1131.75 136.3594,1131.75 Q134.8438,1131.75 133.6406,1131.125 Q132.6563,1130.625 131.9688,1129.5625 Q131.2813,1128.4844 131.2813,1127.2031 L131.2813,1126.0469 Q131.2813,1124.7188 131.8906,1123.5781 Q132.5156,1122.4219 133.6094,1121.8125 Q134.7031,1121.1875 135.9375,1121.1875 Q136.6719,1121.1875 137.3125,1121.3594 Q137.9688,1121.5156 138.5156,1121.875 Z " fill="#000000"/><text fill="#000000" font-family="sans-serif" font-size="14" lengthAdjust="spacing" textLength="70" x="156.25" y="1131.7285">MIStatistics</text><line style="stroke:#181818;stroke-width:0.5;" x1="23" x2="327" y1="1142" y2="1142"/><polygon fill="none" points="33,1152.3047,29,1158.3047,37,1158.3047" style="stroke:#1963A0;stroke-width:1.0;"/><text fill="#000000" font-family="sans-serif" font-size="14" lengthAdjust="spacing" textLength="152" x="42" y="1160.5332">minInstancesPerBag: int</text><polygon fill="none" points="33,1169.9141,29,1175.9141,37,1175.9141" style="stroke:#1963A0;stroke-width:1.0;"/><text fill="#000000" font-family="sans-serif" font-size="14" lengthAdjust="spacing" textLength="155" x="42" y="1178.1426">maxInstancesPerBag: int</text><polygon fill="none" points="33,1187.5234,29,1193.5234,37,1193.5234" style="stroke:#1963A0;stroke-width:1.0;"/><text fill="#000000" font-family="sans-serif" font-size="14" lengthAdjust="spacing" textLength="181" x="42" y="1195.752">avgInstancesPerBag: double</text><polygon fill="none" points="33,1205.1328,29,1211.1328,37,1211.1328" style="stroke:#1963A0;stroke-width:1.0;"/><text fill="#000000" font-family="sans-serif" font-size="14" lengthAdjust="spacing" textLength="129" x="42" y="1213.3613">attributesPerBag: int</text><polygon fill="none" points="33,1222.7422,29,1228.7422,37,1228.7422" style="stroke:#1963A0;stroke-width:1.0;"/><text fill="#000000" font-family="sans-serif" font-size="14" lengthAdjust="spacing" textLength="82" x="42" y="1230.9707">numBags: int</text><polygon fill="none" points="33,1240.3516,29,1246.3516,37,1246.3516" style="stroke:#1963A0;stroke-width:1.0;"/><text fill="#000000" font-family="sans-serif" font-size="14" lengthAdjust="spacing" textLength="110" x="42" y="1248.5801">totalInstances: int</text><polygon fill="none" points="33,1257.9609,29,1263.9609,37,1263.9609" style="stroke:#1963A0;stroke-width:1.0;"/><text fill="#000000" font-family="sans-serif" font-size="14" lengthAdjust="spacing" textLength="280" x="42" y="1266.1895">distributionBags: HashMap&lt;Integer, Integer&gt;</text><polygon fill="none" points="33,1275.5703,29,1281.5703,37,1281.5703" style="stroke:#1963A0;stroke-width:1.0;"/><text fill="#000000" font-family="sans-serif" font-size="14" lengthAdjust="spacing" textLength="117" x="42" y="1283.7988">dataSet: Instances</text><line style="stroke:#181818;stroke-width:0.5;" x1="23" x2="327" y1="1290.875" y2="1290.875"/><ellipse cx="33" cy="1305.1797" fill="#84BE84" rx="3" ry="3" style="stroke:#038048;stroke-width:1.0;"/><text fill="#000000" font-family="sans-serif" font-size="14" lengthAdjust="spacing" textLength="140" x="42" y="1309.4082">MIStatistics(Instances)</text><polygon fill="#FFFF44" points="33,1317.7891,37,1321.7891,33,1325.7891,29,1321.7891" style="stroke:#B38D22;stroke-width:1.0;"/><text fill="#000000" font-family="sans-serif" font-size="14" lengthAdjust="spacing" textLength="132" x="42" y="1327.0176">calculateStats(): void</text><polygon fill="#FFFF44" points="33,1335.3984,37,1339.3984,33,1343.3984,29,1339.3984" style="stroke:#B38D22;stroke-width:1.0;"/><text fill="#000000" font-family="sans-serif" font-size="14" lengthAdjust="spacing" textLength="210" x="42" y="1344.627">distributionBagsToString(): String</text><polygon fill="#FFFF44" points="33,1353.0078,37,1357.0078,33,1361.0078,29,1357.0078" style="stroke:#B38D22;stroke-width:1.0;"/><text fill="#000000" font-family="sans-serif" font-size="14" lengthAdjust="spacing" textLength="201" x="42" y="1362.2363">distributionBagsToCSV(): String</text><ellipse cx="33" cy="1375.6172" fill="#84BE84" rx="3" ry="3" style="stroke:#038048;stroke-width:1.0;"/><text fill="#000000" font-family="sans-serif" font-size="14" lengthAdjust="spacing" textLength="95" x="42" y="1379.8457">toCSV(): String</text></g></a><!--MD5=[f0f06eee52a76f06b03bebb3b08bfb04]
class miml.data.statistics.MLStatistics--><a href="MLStatistics.html" target="_top" title="MLStatistics.html" xlink:actuate="onRequest" xlink:href="MLStatistics.html" xlink:show="new" xlink:title="MLStatistics.html" xlink:type="simple"><g id="elem_miml.data.statistics.MLStatistics"><rect codeLine="58" fill="#F1F1F1" height="893.25" id="miml.data.statistics.MLStatistics" rx="2.5" ry="2.5" style="stroke:#181818;stroke-width:0.5;" width="420" x="363" y="802"/><ellipse cx="531.25" cy="818" fill="#ADD1B2" rx="11" ry="11" style="stroke:#181818;stroke-width:1.0;"/><path d="M534.0156,813.875 Q534.1719,813.6563 534.3594,813.5469 Q534.5469,813.4375 534.7656,813.4375 Q535.1406,813.4375 535.375,813.7031 Q535.6094,813.9531 535.6094,814.5625 L535.6094,816.0156 Q535.6094,816.625 535.375,816.8906 Q535.1406,817.1563 534.7656,817.1563 Q534.4219,817.1563 534.2188,816.9531 Q534.0156,816.7656 533.9063,816.25 Q533.8594,815.8906 533.6719,815.7031 Q533.3438,815.3281 532.7344,815.1094 Q532.125,814.8906 531.5,814.8906 Q530.7344,814.8906 530.0938,815.2188 Q529.4688,815.5469 528.9688,816.2969 Q528.4844,817.0469 528.4844,818.0781 L528.4844,819.1719 Q528.4844,820.4063 529.375,821.2344 Q530.2656,822.0469 531.8594,822.0469 Q532.7969,822.0469 533.4531,821.7969 Q533.8438,821.6406 534.2656,821.2031 Q534.5313,820.9375 534.6719,820.8594 Q534.8281,820.7813 535.0313,820.7813 Q535.3594,820.7813 535.6094,821.0469 Q535.875,821.2969 535.875,821.6406 Q535.875,821.9844 535.5313,822.3906 Q535.0313,822.9688 534.2344,823.2969 Q533.1563,823.75 531.8594,823.75 Q530.3438,823.75 529.1406,823.125 Q528.1563,822.625 527.4688,821.5625 Q526.7813,820.4844 526.7813,819.2031 L526.7813,818.0469 Q526.7813,816.7188 527.3906,815.5781 Q528.0156,814.4219 529.1094,813.8125 Q530.2031,813.1875 531.4375,813.1875 Q532.1719,813.1875 532.8125,813.3594 Q533.4688,813.5156 534.0156,813.875 Z " fill="#000000"/><text fill="#000000" font-family="sans-serif" font-size="14" lengthAdjust="spacing" textLength="75" x="551.75" y="823.7285">MLStatistics</text><line style="stroke:#181818;stroke-width:0.5;" x1="364" x2="782" y1="834" y2="834"/><polygon fill="none" points="374,843.3047,378,847.3047,374,851.3047,370,847.3047" style="stroke:#B38D22;stroke-width:1.0;"/><text fill="#000000" font-family="sans-serif" font-size="14" lengthAdjust="spacing" textLength="92" x="383" y="852.5332">numLabels: int</text><polygon fill="none" points="374,860.9141,378,864.9141,374,868.9141,370,864.9141" style="stroke:#B38D22;stroke-width:1.0;"/><text fill="#000000" font-family="sans-serif" font-size="14" lengthAdjust="spacing" textLength="110" x="383" y="870.1426">numExamples: int</text><polygon fill="none" points="374,878.5234,378,882.5234,374,886.5234,370,882.5234" style="stroke:#B38D22;stroke-width:1.0;"/><text fill="#000000" font-family="sans-serif" font-size="14" lengthAdjust="spacing" textLength="110" x="383" y="887.752">numAttributes: int</text><polygon fill="none" points="374,896.1328,378,900.1328,374,904.1328,370,900.1328" style="stroke:#B38D22;stroke-width:1.0;"/><text fill="#000000" font-family="sans-serif" font-size="14" lengthAdjust="spacing" textLength="100" x="383" y="905.3613">numNominal: int</text><polygon fill="none" points="374,913.7422,378,917.7422,374,921.7422,370,917.7422" style="stroke:#B38D22;stroke-width:1.0;"/><text fill="#000000" font-family="sans-serif" font-size="14" lengthAdjust="spacing" textLength="101" x="383" y="922.9707">numNumeric: int</text><polygon fill="none" points="374,931.3516,378,935.3516,374,939.3516,370,935.3516" style="stroke:#B38D22;stroke-width:1.0;"/><text fill="#000000" font-family="sans-serif" font-size="14" lengthAdjust="spacing" textLength="196" x="383" y="940.5801">positiveExamplesPerLabel: int[]</text><polygon fill="none" points="374,948.9609,378,952.9609,374,956.9609,370,952.9609" style="stroke:#B38D22;stroke-width:1.0;"/><text fill="#000000" font-family="sans-serif" font-size="14" lengthAdjust="spacing" textLength="217" x="383" y="958.1895">distributionLabelsPerExample: int[]</text><polygon fill="none" points="374,966.5703,378,970.5703,374,974.5703,370,970.5703" style="stroke:#B38D22;stroke-width:1.0;"/><text fill="#000000" font-family="sans-serif" font-size="14" lengthAdjust="spacing" textLength="307" x="383" y="975.7988">labelCombinations: HashMap&lt;LabelSet, Integer&gt;</text><polygon fill="none" points="374,984.1797,378,988.1797,374,992.1797,370,988.1797" style="stroke:#B38D22;stroke-width:1.0;"/><text fill="#000000" font-family="sans-serif" font-size="14" lengthAdjust="spacing" textLength="54" x="383" y="993.4082">peak: int</text><polygon fill="none" points="374,1001.7891,378,1005.7891,374,1009.7891,370,1005.7891" style="stroke:#B38D22;stroke-width:1.0;"/><text fill="#000000" font-family="sans-serif" font-size="14" lengthAdjust="spacing" textLength="54" x="383" y="1011.0176">base: int</text><polygon fill="none" points="374,1019.3984,378,1023.3984,374,1027.3984,370,1023.3984" style="stroke:#B38D22;stroke-width:1.0;"/><text fill="#000000" font-family="sans-serif" font-size="14" lengthAdjust="spacing" textLength="75" x="383" y="1028.627">nUnique: int</text><polygon fill="none" points="374,1037.0078,378,1041.0078,374,1045.0078,370,1041.0078" style="stroke:#B38D22;stroke-width:1.0;"/><text fill="#000000" font-family="sans-serif" font-size="14" lengthAdjust="spacing" textLength="86" x="383" y="1046.2363">maxCount: int</text><polygon fill="none" points="374,1055.6172,370,1061.6172,378,1061.6172" style="stroke:#1963A0;stroke-width:1.0;"/><text fill="#000000" font-family="sans-serif" font-size="14" lengthAdjust="spacing" textLength="175" x="383" y="1063.8457">coocurrenceMatrix: double[]</text><polygon fill="none" points="374,1073.2266,370,1079.2266,378,1079.2266" style="stroke:#1963A0;stroke-width:1.0;"/><text fill="#000000" font-family="sans-serif" font-size="14" lengthAdjust="spacing" textLength="78" x="383" y="1081.4551">phi: double[]</text><polygon fill="none" points="374,1090.8359,370,1096.8359,378,1096.8359" style="stroke:#1963A0;stroke-width:1.0;"/><text fill="#000000" font-family="sans-serif" font-size="14" lengthAdjust="spacing" textLength="85" x="383" y="1099.0645">chi2: double[]</text><rect fill="none" height="6" style="stroke:#C82930;stroke-width:1.0;" width="6" x="371" y="1109.4453"/><text fill="#000000" font-family="sans-serif" font-size="14" lengthAdjust="spacing" textLength="197" x="383" y="1116.6738">mlDataSet: MultiLabelInstances</text><line style="stroke:#181818;stroke-width:0.5;" x1="364" x2="782" y1="1123.75" y2="1123.75"/><ellipse cx="374" cy="1138.0547" fill="#84BE84" rx="3" ry="3" style="stroke:#038048;stroke-width:1.0;"/><text fill="#000000" font-family="sans-serif" font-size="14" lengthAdjust="spacing" textLength="209" x="383" y="1142.2832">MLStatistics(MultiLabelInstances)</text><ellipse cx="374" cy="1155.6641" fill="#84BE84" rx="3" ry="3" style="stroke:#038048;stroke-width:1.0;"/><text fill="#000000" font-family="sans-serif" font-size="14" lengthAdjust="spacing" textLength="109" x="383" y="1159.8926">getPhi(): double[]</text><ellipse cx="374" cy="1173.2734" fill="#84BE84" rx="3" ry="3" style="stroke:#038048;stroke-width:1.0;"/><text fill="#000000" font-family="sans-serif" font-size="14" lengthAdjust="spacing" textLength="118" x="383" y="1177.502">getChi2(): double[]</text><polygon fill="#FFFF44" points="374,1185.8828,378,1189.8828,374,1193.8828,370,1189.8828" style="stroke:#B38D22;stroke-width:1.0;"/><text fill="#000000" font-family="sans-serif" font-size="14" lengthAdjust="spacing" textLength="132" x="383" y="1195.1113">calculateStats(): void</text><ellipse cx="374" cy="1208.4922" fill="#84BE84" rx="3" ry="3" style="stroke:#038048;stroke-width:1.0;"/><text fill="#000000" font-family="sans-serif" font-size="14" lengthAdjust="spacing" textLength="125" x="383" y="1212.7207">cardinality(): double</text><ellipse cx="374" cy="1226.1016" fill="#84BE84" rx="3" ry="3" style="stroke:#038048;stroke-width:1.0;"/><text fill="#000000" font-family="sans-serif" font-size="14" lengthAdjust="spacing" textLength="106" x="383" y="1230.3301">density(): double</text><ellipse cx="374" cy="1243.7109" fill="#84BE84" rx="3" ry="3" style="stroke:#038048;stroke-width:1.0;"/><text fill="#000000" font-family="sans-serif" font-size="14" lengthAdjust="spacing" textLength="105" x="383" y="1247.9395">priors(): double[]</text><ellipse cx="374" cy="1261.3203" fill="#84BE84" rx="3" ry="3" style="stroke:#038048;stroke-width:1.0;"/><text fill="#000000" font-family="sans-serif" font-size="14" lengthAdjust="spacing" textLength="169" x="383" y="1265.5488">labelSets(): Set&lt;LabelSet&gt;</text><ellipse cx="374" cy="1278.9297" fill="#84BE84" rx="3" ry="3" style="stroke:#038048;stroke-width:1.0;"/><text fill="#000000" font-family="sans-serif" font-size="14" lengthAdjust="spacing" textLength="208" x="383" y="1283.1582">labelSetFrequency(LabelSet): int</text><ellipse cx="374" cy="1296.5391" fill="#84BE84" rx="3" ry="3" style="stroke:#038048;stroke-width:1.0;"/><text fill="#000000" font-family="sans-serif" font-size="14" lengthAdjust="spacing" textLength="306" x="383" y="1300.7676">labelCombCount(): HashMap&lt;LabelSet, Integer&gt;</text><ellipse cx="374" cy="1314.1484" fill="#84BE84" rx="3" ry="3" style="stroke:#038048;stroke-width:1.0;"/><text fill="#000000" font-family="sans-serif" font-size="14" lengthAdjust="spacing" textLength="331" x="383" y="1318.377">calculateCoocurrence(MultiLabelInstances): double[]</text><ellipse cx="374" cy="1331.7578" fill="#84BE84" rx="3" ry="3" style="stroke:#038048;stroke-width:1.0;"/><text fill="#000000" font-family="sans-serif" font-size="14" lengthAdjust="spacing" textLength="273" x="383" y="1335.9863">calculatePhiChi2(MultiLabelInstances): void</text><ellipse cx="374" cy="1349.3672" fill="#84BE84" rx="3" ry="3" style="stroke:#038048;stroke-width:1.0;"/><text fill="#000000" font-family="sans-serif" font-size="14" lengthAdjust="spacing" textLength="172" x="383" y="1353.5957">getPhiHistogram(): double[]</text><ellipse cx="374" cy="1366.9766" fill="#84BE84" rx="3" ry="3" style="stroke:#038048;stroke-width:1.0;"/><text fill="#000000" font-family="sans-serif" font-size="14" lengthAdjust="spacing" textLength="229" x="383" y="1371.2051">uncorrelatedLabels(int, double): int[]</text><ellipse cx="374" cy="1384.5859" fill="#84BE84" rx="3" ry="3" style="stroke:#038048;stroke-width:1.0;"/><text fill="#000000" font-family="sans-serif" font-size="14" lengthAdjust="spacing" textLength="228" x="383" y="1388.8145">topPhiCorrelatedLabels(int, int): int[]</text><ellipse cx="374" cy="1402.1953" fill="#84BE84" rx="3" ry="3" style="stroke:#038048;stroke-width:1.0;"/><text fill="#000000" font-family="sans-serif" font-size="14" lengthAdjust="spacing" textLength="188" x="383" y="1406.4238">printPhiDiagram(double): void</text><ellipse cx="374" cy="1419.8047" fill="#84BE84" rx="3" ry="3" style="stroke:#038048;stroke-width:1.0;"/><text fill="#000000" font-family="sans-serif" font-size="14" lengthAdjust="spacing" textLength="149" x="383" y="1424.0332">innerClassIR(): double[]</text><ellipse cx="374" cy="1437.4141" fill="#84BE84" rx="3" ry="3" style="stroke:#038048;stroke-width:1.0;"/><text fill="#000000" font-family="sans-serif" font-size="14" lengthAdjust="spacing" textLength="145" x="383" y="1441.6426">interClassIR(): double[]</text><ellipse cx="374" cy="1455.0234" fill="#84BE84" rx="3" ry="3" style="stroke:#038048;stroke-width:1.0;"/><text fill="#000000" font-family="sans-serif" font-size="14" lengthAdjust="spacing" textLength="177" x="383" y="1459.252">averageIR(double[]): double</text><ellipse cx="374" cy="1472.6328" fill="#84BE84" rx="3" ry="3" style="stroke:#038048;stroke-width:1.0;"/><text fill="#000000" font-family="sans-serif" font-size="14" lengthAdjust="spacing" textLength="179" x="383" y="1476.8613">varianceIR(double[]): double</text><ellipse cx="374" cy="1490.2422" fill="#84BE84" rx="3" ry="3" style="stroke:#038048;stroke-width:1.0;"/><text fill="#000000" font-family="sans-serif" font-size="14" lengthAdjust="spacing" textLength="113" x="383" y="1494.4707">pUnique(): double</text><ellipse cx="374" cy="1507.8516" fill="#84BE84" rx="3" ry="3" style="stroke:#038048;stroke-width:1.0;"/><text fill="#000000" font-family="sans-serif" font-size="14" lengthAdjust="spacing" textLength="94" x="383" y="1512.0801">pMax(): double</text><ellipse cx="374" cy="1525.4609" fill="#84BE84" rx="3" ry="3" style="stroke:#038048;stroke-width:1.0;"/><text fill="#000000" font-family="sans-serif" font-size="14" lengthAdjust="spacing" textLength="265" x="383" y="1529.6895">labelSkew(): HashMap&lt;LabelSet, Double&gt;</text><ellipse cx="374" cy="1543.0703" fill="#84BE84" rx="3" ry="3" style="stroke:#038048;stroke-width:1.0;"/><text fill="#000000" font-family="sans-serif" font-size="14" lengthAdjust="spacing" textLength="330" x="383" y="1547.2988">averageSkew(HashMap&lt;LabelSet, Double&gt;): double</text><ellipse cx="374" cy="1560.6797" fill="#84BE84" rx="3" ry="3" style="stroke:#038048;stroke-width:1.0;"/><text fill="#000000" font-family="sans-serif" font-size="14" lengthAdjust="spacing" textLength="125" x="383" y="1564.9082">skewRatio(): double</text><ellipse cx="374" cy="1578.2891" fill="#84BE84" rx="3" ry="3" style="stroke:#038048;stroke-width:1.0;"/><text fill="#000000" font-family="sans-serif" font-size="14" lengthAdjust="spacing" textLength="95" x="383" y="1582.5176">toCSV(): String</text><polygon fill="#FFFF44" points="374,1590.8984,378,1594.8984,374,1598.8984,370,1594.8984" style="stroke:#B38D22;stroke-width:1.0;"/><text fill="#000000" font-family="sans-serif" font-size="14" lengthAdjust="spacing" textLength="394" x="383" y="1600.127">distributionBagsToString(HashMap&lt;LabelSet, Double&gt;): String</text><polygon fill="#FFFF44" points="374,1608.5078,378,1612.5078,374,1616.5078,370,1612.5078" style="stroke:#B38D22;stroke-width:1.0;"/><text fill="#000000" font-family="sans-serif" font-size="14" lengthAdjust="spacing" textLength="385" x="383" y="1617.7363">distributionBagsToCSV(HashMap&lt;LabelSet, Double&gt;): String</text><ellipse cx="374" cy="1631.1172" fill="#84BE84" rx="3" ry="3" style="stroke:#038048;stroke-width:1.0;"/><text fill="#000000" font-family="sans-serif" font-size="14" lengthAdjust="spacing" textLength="188" x="383" y="1635.3457">coocurrenceToString(): String</text><ellipse cx="374" cy="1648.7266" fill="#84BE84" rx="3" ry="3" style="stroke:#038048;stroke-width:1.0;"/><text fill="#000000" font-family="sans-serif" font-size="14" lengthAdjust="spacing" textLength="179" x="383" y="1652.9551">coocurrenceToCSV(): String</text><ellipse cx="374" cy="1666.3359" fill="#84BE84" rx="3" ry="3" style="stroke:#038048;stroke-width:1.0;"/><text fill="#000000" font-family="sans-serif" font-size="14" lengthAdjust="spacing" textLength="234" x="383" y="1670.5645">correlationsToString(double[]): String</text><ellipse cx="374" cy="1683.9453" fill="#84BE84" rx="3" ry="3" style="stroke:#038048;stroke-width:1.0;"/><text fill="#000000" font-family="sans-serif" font-size="14" lengthAdjust="spacing" textLength="225" x="383" y="1688.1738">correlationsToCSV(double[]): String</text></g></a><!--MD5=[226269a3036c61eaf1820cb73d090714]
link miml.data.statistics.MIMLStatistics to miml.data.statistics.MIStatistics--><g id="link_miml.data.statistics.MIMLStatistics_miml.data.statistics.MIStatistics"><path codeLine="109" d="M295.64,724.04 C265.07,856.68 231.71,1001.42 207.84,1105.02 " fill="none" id="miml.data.statistics.MIMLStatistics-to-miml.data.statistics.MIStatistics" style="stroke:#181818;stroke-width:1.0;"/><polygon fill="#181818" points="206.71,1109.92,212.633,1102.0512,207.8353,1105.0483,204.8382,1100.2506,206.71,1109.92" style="stroke:#181818;stroke-width:1.0;"/><text fill="#000000" font-family="sans-serif" font-size="13" lengthAdjust="spacing" textLength="70" x="287" y="768.4951">milstatistics</text></g><!--MD5=[199530ce9d1057a30471633501d01910]
link miml.data.statistics.MIMLStatistics to miml.data.statistics.MLStatistics--><g id="link_miml.data.statistics.MIMLStatistics_miml.data.statistics.MLStatistics"><path codeLine="110" d="M452.36,724.04 C457.9,748.04 463.52,772.44 469.16,796.92 " fill="none" id="miml.data.statistics.MIMLStatistics-to-miml.data.statistics.MLStatistics" style="stroke:#181818;stroke-width:1.0;"/><polygon fill="#181818" points="470.29,801.82,472.1555,792.1494,469.1615,796.949,464.362,793.955,470.29,801.82" style="stroke:#181818;stroke-width:1.0;"/><text fill="#000000" font-family="sans-serif" font-size="13" lengthAdjust="spacing" textLength="67" x="462" y="768.4951">mlstatistics</text></g><rect fill="none" height="12.5781" style="stroke:none;stroke-width:1.0;" width="190" x="301" y="1717"/><text fill="#888888" font-family="sans-serif" font-size="10" lengthAdjust="spacing" textLength="190" x="301" y="1727.3809">UMLDoclet 2.0.20, PlantUML 1.2022.12</text><!--MD5=[8d16b1d29a02dec11306df140e89e6e4]
@startuml
    namespace miml.data.statistics {

        class MIMLStatistics [[MIMLStatistics.html]] {
            ~dataSet: MIMLInstances
            +MIMLStatistics(MIMLInstances)
            +getPhi(): double[]
            +getChi2(): double[]
            +cardinality(): double
            +density(): double
            +priors(): double[]
            +labelSets(): Set<LabelSet>
            +labelSetFrequency(LabelSet): int
            +labelCombCount(): HashMap<LabelSet, Integer>
            +calculateCooncurrence(MIMLInstances): double[]
            +calculatePhiChi2(MIMLInstances): void
            +getPhiHistogram(): double[]
            +uncorrelatedLabels(int, double): int[]
            +topPhiCorrelatedLabels(int, int): int[]
            +printPhiDiagram(double): void
            +innerClassIR(): double[]
            +interClassIR(): double[]
            +averageIR(double[]): double
            +varianceIR(double[]): double
            +pUnique(): double
            +pMax(): double
            +labelSkew(): HashMap<LabelSet, Double>
            +averageSkew(HashMap<LabelSet, Double>): double
            +skewRatio(): double
            +toCSV(): String
            #distributionBagsToString(HashMap<LabelSet, Double>): String
            #distributionBagsToCSV(HashMap<LabelSet, Double>): String
            +cooncurrenceToString(): String
            +cooncurrenceToCSV(): String
            +correlationsToString(double[]): String
            +correlationsToCSV(double[]): String
            #distributionBagsToString(): String
            #distributionBagsToCSV(): String
            +getDataSet(): MIMLInstances
            +setDataSet(MIMLInstances): void
        }

        class MIStatistics [[MIStatistics.html]] {
            ~minInstancesPerBag: int
            ~maxInstancesPerBag: int
            ~avgInstancesPerBag: double
            ~attributesPerBag: int
            ~numBags: int
            ~totalInstances: int
            ~distributionBags: HashMap<Integer, Integer>
            ~dataSet: Instances
            +MIStatistics(Instances)
            #calculateStats(): void
            #distributionBagsToString(): String
            #distributionBagsToCSV(): String
            +toCSV(): String
        }

        class MLStatistics [[MLStatistics.html]] {
            #numLabels: int
            #numExamples: int
            #numAttributes: int
            #numNominal: int
            #numNumeric: int
            #positiveExamplesPerLabel: int[]
            #distributionLabelsPerExample: int[]
            #labelCombinations: HashMap<LabelSet, Integer>
            #peak: int
            #base: int
            #nUnique: int
            #maxCount: int
            ~coocurrenceMatrix: double[]
            ~phi: double[]
            ~chi2: double[]
            -mlDataSet: MultiLabelInstances
            +MLStatistics(MultiLabelInstances)
            +getPhi(): double[]
            +getChi2(): double[]
            #calculateStats(): void
            +cardinality(): double
            +density(): double
            +priors(): double[]
            +labelSets(): Set<LabelSet>
            +labelSetFrequency(LabelSet): int
            +labelCombCount(): HashMap<LabelSet, Integer>
            +calculateCoocurrence(MultiLabelInstances): double[]
            +calculatePhiChi2(MultiLabelInstances): void
            +getPhiHistogram(): double[]
            +uncorrelatedLabels(int, double): int[]
            +topPhiCorrelatedLabels(int, int): int[]
            +printPhiDiagram(double): void
            +innerClassIR(): double[]
            +interClassIR(): double[]
            +averageIR(double[]): double
            +varianceIR(double[]): double
            +pUnique(): double
            +pMax(): double
            +labelSkew(): HashMap<LabelSet, Double>
            +averageSkew(HashMap<LabelSet, Double>): double
            +skewRatio(): double
            +toCSV(): String
            #distributionBagsToString(HashMap<LabelSet, Double>): String
            #distributionBagsToCSV(HashMap<LabelSet, Double>): String
            +coocurrenceToString(): String
            +coocurrenceToCSV(): String
            +correlationsToString(double[]): String
            +correlationsToCSV(double[]): String
        }

        MIMLStatistics - -> MIStatistics: milstatistics
        MIMLStatistics - -> MLStatistics: mlstatistics
    }

    center footer UMLDoclet 2.0.20, PlantUML 1.2022.12
@enduml

PlantUML version 1.2022.12(Sun Oct 23 20:12:26 CEST 2022)
(APACHE source distribution)
Java Runtime: OpenJDK Runtime Environment
JVM: OpenJDK 64-Bit Server VM
Default Encoding: Cp1252
Language: es
Country: ES
--></g></svg>