<?xml version="1.0" encoding="UTF-8" standalone="no"?><svg xmlns="http://www.w3.org/2000/svg" xmlns:xlink="http://www.w3.org/1999/xlink" contentStyleType="text/css" height="100px" preserveAspectRatio="none" style="width:234px;height:100px;background:#FFFFFF;" version="1.1" viewBox="0 0 234 100" width="234px" zoomAndPan="magnify"><defs/><g><!--MD5=[f8ce60393c12cadc7241b943fc2ced33]
class miml.core.IConfiguration--><a href="IConfiguration.html" target="_top" title="IConfiguration.html" xlink:actuate="onRequest" xlink:href="IConfiguration.html" xlink:show="new" xlink:title="IConfiguration.html" xlink:type="simple"><g id="elem_miml.core.IConfiguration"><rect codeLine="5" fill="#F1F1F1" height="65.7969" id="miml.core.IConfiguration" rx="2.5" ry="2.5" style="stroke:#181818;stroke-width:0.5;" width="213" x="7" y="7"/><ellipse cx="64.75" cy="27.0938" fill="#B4A7E5" rx="11" ry="11" style="stroke:#181818;stroke-width:1.0;"/><path d="M65.7031,23.7344 L65.7031,30.3906 L67.4219,30.3906 Q68.0313,30.3906 68.2969,30.625 Q68.5625,30.8594 68.5625,31.25 Q68.5625,31.625 68.2969,31.8594 Q68.0313,32.0938 67.4219,32.0938 L62.2813,32.0938 Q61.6719,32.0938 61.4063,31.8594 Q61.1406,31.625 61.1406,31.2344 Q61.1406,30.8594 61.4063,30.625 Q61.6719,30.3906 62.2813,30.3906 L64,30.3906 L64,23.7344 L62.2813,23.7344 Q61.6719,23.7344 61.4063,23.5 Q61.1406,23.2656 61.1406,22.875 Q61.1406,22.5 61.4063,22.2656 Q61.6719,22.0313 62.2813,22.0313 L67.4219,22.0313 Q68.0313,22.0313 68.2969,22.2656 Q68.5625,22.5 68.5625,22.875 Q68.5625,23.2656 68.2969,23.5 Q68.0313,23.7344 67.4219,23.7344 L65.7031,23.7344 Z " fill="#000000"/><text fill="#000000" font-family="sans-serif" font-size="14" font-style="italic" lengthAdjust="spacing" textLength="89" x="85.25" y="26.5332">IConfiguration</text><text fill="#000000" font-family="sans-serif" font-size="10" font-style="italic" lengthAdjust="spacing" textLength="43" x="108.25" y="39.9902">miml.core</text><line style="stroke:#181818;stroke-width:0.5;" x1="8" x2="219" y1="47.1875" y2="47.1875"/><ellipse cx="18" cy="61.4922" fill="#84BE84" rx="3" ry="3" style="stroke:#038048;stroke-width:1.0;"/><text fill="#000000" font-family="sans-serif" font-size="14" font-style="italic" lengthAdjust="spacing" textLength="187" x="27" y="65.7207">configure(Configuration): void</text></g></a><rect fill="none" height="12.5781" style="stroke:none;stroke-width:1.0;" width="190" x="18" y="79.7969"/><text fill="#888888" font-family="sans-serif" font-size="10" lengthAdjust="spacing" textLength="190" x="18" y="90.1777">UMLDoclet 2.0.20, PlantUML 1.2022.12</text><!--MD5=[fd49b74b2c1cdf72312e63f64bb16ac5]
@startuml
    set namespaceSeparator none
    hide empty fields
    hide empty methods

    interface "<size:14>IConfiguration\n<size:10>miml.core" as miml.core.IConfiguration [[IConfiguration.html]] {
        {abstract} +configure(Configuration): void
    }

    center footer UMLDoclet 2.0.20, PlantUML 1.2022.12
@enduml

PlantUML version 1.2022.12(Sun Oct 23 20:12:26 CEST 2022)
(APACHE source distribution)
Java Runtime: OpenJDK Runtime Environment
JVM: OpenJDK 64-Bit Server VM
Default Encoding: Cp1252
Language: es
Country: ES
--></g></svg>