<?xml version="1.0" encoding="UTF-8" standalone="no"?><svg xmlns="http://www.w3.org/2000/svg" xmlns:xlink="http://www.w3.org/1999/xlink" contentStyleType="text/css" height="680px" preserveAspectRatio="none" style="width:857px;height:680px;background:#FFFFFF;" version="1.1" viewBox="0 0 857 680" width="857px" zoomAndPan="magnify"><defs/><g><!--MD5=[d8ba4a12014331649d294a6c1a3efdcd]
cluster miml.core--><g id="cluster_miml.core"><path d="M8.5,6 L77.5,6 A3.75,3.75 0 0 1 80,8.5 L87,29.6094 L847.5,29.6094 A2.5,2.5 0 0 1 850,32.1094 L850,651.5 A2.5,2.5 0 0 1 847.5,654 L8.5,654 A2.5,2.5 0 0 1 6,651.5 L6,8.5 A2.5,2.5 0 0 1 8.5,6 " fill="none" style="stroke:#000000;stroke-width:1.5;"/><line style="stroke:#000000;stroke-width:1.5;" x1="6" x2="87" y1="29.6094" y2="29.6094"/><text fill="#000000" font-family="sans-serif" font-size="14" font-weight="bold" lengthAdjust="spacing" textLength="68" x="10" y="22.5332">miml.core</text></g><!--MD5=[5e921cac852b91cab281014a84731eee]
class miml.core.ConfigLoader--><a href="ConfigLoader.html" target="_top" title="ConfigLoader.html" xlink:actuate="onRequest" xlink:href="ConfigLoader.html" xlink:show="new" xlink:title="ConfigLoader.html" xlink:type="simple"><g id="elem_miml.core.ConfigLoader"><rect codeLine="3" fill="#F1F1F1" height="171.2656" id="miml.core.ConfigLoader" rx="2.5" ry="2.5" style="stroke:#181818;stroke-width:0.5;" width="259" x="22.5" y="139"/><ellipse cx="104.75" cy="155" fill="#ADD1B2" rx="11" ry="11" style="stroke:#181818;stroke-width:1.0;"/><path d="M107.5156,150.875 Q107.6719,150.6563 107.8594,150.5469 Q108.0469,150.4375 108.2656,150.4375 Q108.6406,150.4375 108.875,150.7031 Q109.1094,150.9531 109.1094,151.5625 L109.1094,153.0156 Q109.1094,153.625 108.875,153.8906 Q108.6406,154.1563 108.2656,154.1563 Q107.9219,154.1563 107.7188,153.9531 Q107.5156,153.7656 107.4063,153.25 Q107.3594,152.8906 107.1719,152.7031 Q106.8438,152.3281 106.2344,152.1094 Q105.625,151.8906 105,151.8906 Q104.2344,151.8906 103.5938,152.2188 Q102.9688,152.5469 102.4688,153.2969 Q101.9844,154.0469 101.9844,155.0781 L101.9844,156.1719 Q101.9844,157.4063 102.875,158.2344 Q103.7656,159.0469 105.3594,159.0469 Q106.2969,159.0469 106.9531,158.7969 Q107.3438,158.6406 107.7656,158.2031 Q108.0313,157.9375 108.1719,157.8594 Q108.3281,157.7813 108.5313,157.7813 Q108.8594,157.7813 109.1094,158.0469 Q109.375,158.2969 109.375,158.6406 Q109.375,158.9844 109.0313,159.3906 Q108.5313,159.9688 107.7344,160.2969 Q106.6563,160.75 105.3594,160.75 Q103.8438,160.75 102.6406,160.125 Q101.6563,159.625 100.9688,158.5625 Q100.2813,157.4844 100.2813,156.2031 L100.2813,155.0469 Q100.2813,153.7188 100.8906,152.5781 Q101.5156,151.4219 102.6094,150.8125 Q103.7031,150.1875 104.9375,150.1875 Q105.6719,150.1875 106.3125,150.3594 Q106.9688,150.5156 107.5156,150.875 Z " fill="#000000"/><text fill="#000000" font-family="sans-serif" font-size="14" lengthAdjust="spacing" textLength="86" x="125.25" y="160.7285">ConfigLoader</text><line style="stroke:#181818;stroke-width:0.5;" x1="23.5" x2="280.5" y1="171" y2="171"/><polygon fill="none" points="33.5,180.3047,37.5,184.3047,33.5,188.3047,29.5,184.3047" style="stroke:#B38D22;stroke-width:1.0;"/><text fill="#000000" font-family="sans-serif" font-size="14" lengthAdjust="spacing" textLength="175" x="42.5" y="189.5332">configuration: Configuration</text><line style="stroke:#181818;stroke-width:0.5;" x1="23.5" x2="280.5" y1="196.6094" y2="196.6094"/><ellipse cx="33.5" cy="210.9141" fill="#84BE84" rx="3" ry="3" style="stroke:#038048;stroke-width:1.0;"/><text fill="#000000" font-family="sans-serif" font-size="14" lengthAdjust="spacing" textLength="133" x="42.5" y="215.1426">ConfigLoader(String)</text><ellipse cx="33.5" cy="228.5234" fill="#84BE84" rx="3" ry="3" style="stroke:#038048;stroke-width:1.0;"/><text fill="#000000" font-family="sans-serif" font-size="14" lengthAdjust="spacing" textLength="208" x="42.5" y="232.752">getConfiguration(): Configuration</text><ellipse cx="33.5" cy="246.1328" fill="#84BE84" rx="3" ry="3" style="stroke:#038048;stroke-width:1.0;"/><text fill="#000000" font-family="sans-serif" font-size="14" lengthAdjust="spacing" textLength="233" x="42.5" y="250.3613">setConfiguration(Configuration): void</text><ellipse cx="33.5" cy="263.7422" fill="#84BE84" rx="3" ry="3" style="stroke:#038048;stroke-width:1.0;"/><text fill="#000000" font-family="sans-serif" font-size="14" lengthAdjust="spacing" textLength="197" x="42.5" y="267.9707">loadClassifier(): IMIMLClassifier</text><ellipse cx="33.5" cy="281.3516" fill="#84BE84" rx="3" ry="3" style="stroke:#038048;stroke-width:1.0;"/><text fill="#000000" font-family="sans-serif" font-size="14" lengthAdjust="spacing" textLength="168" x="42.5" y="285.5801">loadEvaluator(): IEvaluator</text><ellipse cx="33.5" cy="298.9609" fill="#84BE84" rx="3" ry="3" style="stroke:#038048;stroke-width:1.0;"/><text fill="#000000" font-family="sans-serif" font-size="14" lengthAdjust="spacing" textLength="134" x="42.5" y="303.1895">loadReport(): IReport</text></g></a><!--MD5=[6c49d8731c0a8ba61c78cab2aad1a181]
class miml.core.ConfigParameters--><a href="ConfigParameters.html" target="_top" title="ConfigParameters.html" xlink:actuate="onRequest" xlink:href="ConfigParameters.html" xlink:show="new" xlink:title="ConfigParameters.html" xlink:type="simple"><g id="elem_miml.core.ConfigParameters"><rect codeLine="13" fill="#F1F1F1" height="364.9688" id="miml.core.ConfigParameters" rx="2.5" ry="2.5" style="stroke:#181818;stroke-width:0.5;" width="269" x="316.5" y="42"/><ellipse cx="389.75" cy="58" fill="#ADD1B2" rx="11" ry="11" style="stroke:#181818;stroke-width:1.0;"/><path d="M392.5156,53.875 Q392.6719,53.6563 392.8594,53.5469 Q393.0469,53.4375 393.2656,53.4375 Q393.6406,53.4375 393.875,53.7031 Q394.1094,53.9531 394.1094,54.5625 L394.1094,56.0156 Q394.1094,56.625 393.875,56.8906 Q393.6406,57.1563 393.2656,57.1563 Q392.9219,57.1563 392.7188,56.9531 Q392.5156,56.7656 392.4063,56.25 Q392.3594,55.8906 392.1719,55.7031 Q391.8438,55.3281 391.2344,55.1094 Q390.625,54.8906 390,54.8906 Q389.2344,54.8906 388.5938,55.2188 Q387.9688,55.5469 387.4688,56.2969 Q386.9844,57.0469 386.9844,58.0781 L386.9844,59.1719 Q386.9844,60.4063 387.875,61.2344 Q388.7656,62.0469 390.3594,62.0469 Q391.2969,62.0469 391.9531,61.7969 Q392.3438,61.6406 392.7656,61.2031 Q393.0313,60.9375 393.1719,60.8594 Q393.3281,60.7813 393.5313,60.7813 Q393.8594,60.7813 394.1094,61.0469 Q394.375,61.2969 394.375,61.6406 Q394.375,61.9844 394.0313,62.3906 Q393.5313,62.9688 392.7344,63.2969 Q391.6563,63.75 390.3594,63.75 Q388.8438,63.75 387.6406,63.125 Q386.6563,62.625 385.9688,61.5625 Q385.2813,60.4844 385.2813,59.2031 L385.2813,58.0469 Q385.2813,56.7188 385.8906,55.5781 Q386.5156,54.4219 387.6094,53.8125 Q388.7031,53.1875 389.9375,53.1875 Q390.6719,53.1875 391.3125,53.3594 Q391.9688,53.5156 392.5156,53.875 Z " fill="#000000"/><text fill="#000000" font-family="sans-serif" font-size="14" lengthAdjust="spacing" textLength="114" x="410.25" y="63.7285">ConfigParameters</text><line style="stroke:#181818;stroke-width:0.5;" x1="317.5" x2="584.5" y1="74" y2="74"/><polygon fill="none" points="327.5,83.3047,331.5,87.3047,327.5,91.3047,323.5,87.3047" style="stroke:#B38D22;stroke-width:1.0;"/><text fill="#000000" font-family="sans-serif" font-size="14" lengthAdjust="spacing" text-decoration="underline" textLength="139" x="336.5" y="92.5332">algorithmName: String</text><polygon fill="none" points="327.5,100.9141,331.5,104.9141,327.5,108.9141,323.5,104.9141" style="stroke:#B38D22;stroke-width:1.0;"/><text fill="#000000" font-family="sans-serif" font-size="14" lengthAdjust="spacing" text-decoration="underline" textLength="142" x="336.5" y="110.1426">configFileName: String</text><polygon fill="none" points="327.5,118.5234,331.5,122.5234,327.5,126.5234,323.5,122.5234" style="stroke:#B38D22;stroke-width:1.0;"/><text fill="#000000" font-family="sans-serif" font-size="14" lengthAdjust="spacing" text-decoration="underline" textLength="132" x="336.5" y="127.752">dataFileName: String</text><polygon fill="none" points="327.5,136.1328,331.5,140.1328,327.5,144.1328,323.5,140.1328" style="stroke:#B38D22;stroke-width:1.0;"/><text fill="#000000" font-family="sans-serif" font-size="14" lengthAdjust="spacing" text-decoration="underline" textLength="136" x="336.5" y="145.3613">classifierName: String</text><polygon fill="none" points="327.5,153.7422,331.5,157.7422,327.5,161.7422,323.5,157.7422" style="stroke:#B38D22;stroke-width:1.0;"/><text fill="#000000" font-family="sans-serif" font-size="14" lengthAdjust="spacing" text-decoration="underline" textLength="183" x="336.5" y="162.9707">transformationMethod: String</text><polygon fill="none" points="327.5,171.3516,331.5,175.3516,327.5,179.3516,323.5,175.3516" style="stroke:#B38D22;stroke-width:1.0;"/><text fill="#000000" font-family="sans-serif" font-size="14" lengthAdjust="spacing" text-decoration="underline" textLength="166" x="336.5" y="180.5801">isTransformation: Boolean</text><line style="stroke:#181818;stroke-width:0.5;" x1="317.5" x2="584.5" y1="187.6563" y2="187.6563"/><ellipse cx="327.5" cy="201.9609" fill="#84BE84" rx="3" ry="3" style="stroke:#038048;stroke-width:1.0;"/><text fill="#000000" font-family="sans-serif" font-size="14" lengthAdjust="spacing" text-decoration="underline" textLength="170" x="336.5" y="206.1895">getAlgorithmName(): String</text><ellipse cx="327.5" cy="219.5703" fill="#84BE84" rx="3" ry="3" style="stroke:#038048;stroke-width:1.0;"/><text fill="#000000" font-family="sans-serif" font-size="14" lengthAdjust="spacing" text-decoration="underline" textLength="195" x="336.5" y="223.7988">setAlgorithmName(String): void</text><ellipse cx="327.5" cy="237.1797" fill="#84BE84" rx="3" ry="3" style="stroke:#038048;stroke-width:1.0;"/><text fill="#000000" font-family="sans-serif" font-size="14" lengthAdjust="spacing" text-decoration="underline" textLength="175" x="336.5" y="241.4082">getConfigFileName(): String</text><ellipse cx="327.5" cy="254.7891" fill="#84BE84" rx="3" ry="3" style="stroke:#038048;stroke-width:1.0;"/><text fill="#000000" font-family="sans-serif" font-size="14" lengthAdjust="spacing" text-decoration="underline" textLength="200" x="336.5" y="259.0176">setConfigFileName(String): void</text><ellipse cx="327.5" cy="272.3984" fill="#84BE84" rx="3" ry="3" style="stroke:#038048;stroke-width:1.0;"/><text fill="#000000" font-family="sans-serif" font-size="14" lengthAdjust="spacing" text-decoration="underline" textLength="164" x="336.5" y="276.627">getDataFileName(): String</text><ellipse cx="327.5" cy="290.0078" fill="#84BE84" rx="3" ry="3" style="stroke:#038048;stroke-width:1.0;"/><text fill="#000000" font-family="sans-serif" font-size="14" lengthAdjust="spacing" text-decoration="underline" textLength="189" x="336.5" y="294.2363">setDataFileName(String): void</text><ellipse cx="327.5" cy="307.6172" fill="#84BE84" rx="3" ry="3" style="stroke:#038048;stroke-width:1.0;"/><text fill="#000000" font-family="sans-serif" font-size="14" lengthAdjust="spacing" text-decoration="underline" textLength="169" x="336.5" y="311.8457">getClassifierName(): String</text><ellipse cx="327.5" cy="325.2266" fill="#84BE84" rx="3" ry="3" style="stroke:#038048;stroke-width:1.0;"/><text fill="#000000" font-family="sans-serif" font-size="14" lengthAdjust="spacing" text-decoration="underline" textLength="194" x="336.5" y="329.4551">setClassifierName(String): void</text><ellipse cx="327.5" cy="342.8359" fill="#84BE84" rx="3" ry="3" style="stroke:#038048;stroke-width:1.0;"/><text fill="#000000" font-family="sans-serif" font-size="14" lengthAdjust="spacing" text-decoration="underline" textLength="218" x="336.5" y="347.0645">getTransformationMethod(): String</text><ellipse cx="327.5" cy="360.4453" fill="#84BE84" rx="3" ry="3" style="stroke:#038048;stroke-width:1.0;"/><text fill="#000000" font-family="sans-serif" font-size="14" lengthAdjust="spacing" text-decoration="underline" textLength="243" x="336.5" y="364.6738">setTransformationMethod(String): void</text><ellipse cx="327.5" cy="378.0547" fill="#84BE84" rx="3" ry="3" style="stroke:#038048;stroke-width:1.0;"/><text fill="#000000" font-family="sans-serif" font-size="14" lengthAdjust="spacing" text-decoration="underline" textLength="196" x="336.5" y="382.2832">getIsTransformation(): Boolean</text><ellipse cx="327.5" cy="395.6641" fill="#84BE84" rx="3" ry="3" style="stroke:#038048;stroke-width:1.0;"/><text fill="#000000" font-family="sans-serif" font-size="14" lengthAdjust="spacing" text-decoration="underline" textLength="221" x="336.5" y="399.8926">setIsTransformation(Boolean): void</text></g></a><!--MD5=[f8ce60393c12cadc7241b943fc2ced33]
class miml.core.IConfiguration--><a href="IConfiguration.html" target="_top" title="IConfiguration.html" xlink:actuate="onRequest" xlink:href="IConfiguration.html" xlink:show="new" xlink:title="IConfiguration.html" xlink:type="simple"><g id="elem_miml.core.IConfiguration"><rect codeLine="34" fill="#F1F1F1" height="65.6094" id="miml.core.IConfiguration" rx="2.5" ry="2.5" style="stroke:#181818;stroke-width:0.5;" width="213" x="620.5" y="191.5"/><ellipse cx="678.25" cy="207.5" fill="#B4A7E5" rx="11" ry="11" style="stroke:#181818;stroke-width:1.0;"/><path d="M679.2031,204.1406 L679.2031,210.7969 L680.9219,210.7969 Q681.5313,210.7969 681.7969,211.0313 Q682.0625,211.2656 682.0625,211.6563 Q682.0625,212.0313 681.7969,212.2656 Q681.5313,212.5 680.9219,212.5 L675.7813,212.5 Q675.1719,212.5 674.9063,212.2656 Q674.6406,212.0313 674.6406,211.6406 Q674.6406,211.2656 674.9063,211.0313 Q675.1719,210.7969 675.7813,210.7969 L677.5,210.7969 L677.5,204.1406 L675.7813,204.1406 Q675.1719,204.1406 674.9063,203.9063 Q674.6406,203.6719 674.6406,203.2813 Q674.6406,202.9063 674.9063,202.6719 Q675.1719,202.4375 675.7813,202.4375 L680.9219,202.4375 Q681.5313,202.4375 681.7969,202.6719 Q682.0625,202.9063 682.0625,203.2813 Q682.0625,203.6719 681.7969,203.9063 Q681.5313,204.1406 680.9219,204.1406 L679.2031,204.1406 Z " fill="#000000"/><text fill="#000000" font-family="sans-serif" font-size="14" font-style="italic" lengthAdjust="spacing" textLength="89" x="698.75" y="213.2285">IConfiguration</text><line style="stroke:#181818;stroke-width:0.5;" x1="621.5" x2="832.5" y1="223.5" y2="223.5"/><line style="stroke:#181818;stroke-width:0.5;" x1="621.5" x2="832.5" y1="231.5" y2="231.5"/><ellipse cx="631.5" cy="245.8047" fill="#84BE84" rx="3" ry="3" style="stroke:#038048;stroke-width:1.0;"/><text fill="#000000" font-family="sans-serif" font-size="14" font-style="italic" lengthAdjust="spacing" textLength="187" x="640.5" y="250.0332">configure(Configuration): void</text></g></a><!--MD5=[bcf23ce2b9668750f722e40315120da0]
class miml.core.Params--><a href="Params.html" target="_top" title="Params.html" xlink:actuate="onRequest" xlink:href="Params.html" xlink:show="new" xlink:title="Params.html" xlink:type="simple"><g id="elem_miml.core.Params"><rect codeLine="38" fill="#F1F1F1" height="171.2656" id="miml.core.Params" rx="2.5" ry="2.5" style="stroke:#181818;stroke-width:0.5;" width="208" x="48" y="467"/><ellipse cx="123.75" cy="483" fill="#ADD1B2" rx="11" ry="11" style="stroke:#181818;stroke-width:1.0;"/><path d="M126.5156,478.875 Q126.6719,478.6563 126.8594,478.5469 Q127.0469,478.4375 127.2656,478.4375 Q127.6406,478.4375 127.875,478.7031 Q128.1094,478.9531 128.1094,479.5625 L128.1094,481.0156 Q128.1094,481.625 127.875,481.8906 Q127.6406,482.1563 127.2656,482.1563 Q126.9219,482.1563 126.7188,481.9531 Q126.5156,481.7656 126.4063,481.25 Q126.3594,480.8906 126.1719,480.7031 Q125.8438,480.3281 125.2344,480.1094 Q124.625,479.8906 124,479.8906 Q123.2344,479.8906 122.5938,480.2188 Q121.9688,480.5469 121.4688,481.2969 Q120.9844,482.0469 120.9844,483.0781 L120.9844,484.1719 Q120.9844,485.4063 121.875,486.2344 Q122.7656,487.0469 124.3594,487.0469 Q125.2969,487.0469 125.9531,486.7969 Q126.3438,486.6406 126.7656,486.2031 Q127.0313,485.9375 127.1719,485.8594 Q127.3281,485.7813 127.5313,485.7813 Q127.8594,485.7813 128.1094,486.0469 Q128.375,486.2969 128.375,486.6406 Q128.375,486.9844 128.0313,487.3906 Q127.5313,487.9688 126.7344,488.2969 Q125.6563,488.75 124.3594,488.75 Q122.8438,488.75 121.6406,488.125 Q120.6563,487.625 119.9688,486.5625 Q119.2813,485.4844 119.2813,484.2031 L119.2813,483.0469 Q119.2813,481.7188 119.8906,480.5781 Q120.5156,479.4219 121.6094,478.8125 Q122.7031,478.1875 123.9375,478.1875 Q124.6719,478.1875 125.3125,478.3594 Q125.9688,478.5156 126.5156,478.875 Z " fill="#000000"/><text fill="#000000" font-family="sans-serif" font-size="14" lengthAdjust="spacing" textLength="48" x="144.25" y="488.7285">Params</text><line style="stroke:#181818;stroke-width:0.5;" x1="49" x2="255" y1="499" y2="499"/><rect fill="none" height="6" style="stroke:#C82930;stroke-width:1.0;" width="6" x="56" y="510.3047"/><text fill="#000000" font-family="sans-serif" font-size="14" lengthAdjust="spacing" textLength="122" x="68" y="517.5332">classes: Class&lt;?&gt;[]</text><rect fill="none" height="6" style="stroke:#C82930;stroke-width:1.0;" width="6" x="56" y="527.9141"/><text fill="#000000" font-family="sans-serif" font-size="14" lengthAdjust="spacing" textLength="102" x="68" y="535.1426">objects: Object[]</text><line style="stroke:#181818;stroke-width:0.5;" x1="49" x2="255" y1="542.2188" y2="542.2188"/><ellipse cx="59" cy="556.5234" fill="#84BE84" rx="3" ry="3" style="stroke:#038048;stroke-width:1.0;"/><text fill="#000000" font-family="sans-serif" font-size="14" lengthAdjust="spacing" textLength="182" x="68" y="560.752">Params(Class&lt;?&gt;[], Object[])</text><ellipse cx="59" cy="574.1328" fill="#84BE84" rx="3" ry="3" style="stroke:#038048;stroke-width:1.0;"/><text fill="#000000" font-family="sans-serif" font-size="14" lengthAdjust="spacing" textLength="155" x="68" y="578.3613">getClasses(): Class&lt;?&gt;[]</text><ellipse cx="59" cy="591.7422" fill="#84BE84" rx="3" ry="3" style="stroke:#038048;stroke-width:1.0;"/><text fill="#000000" font-family="sans-serif" font-size="14" lengthAdjust="spacing" textLength="180" x="68" y="595.9707">setClasses(Class&lt;?&gt;[]): void</text><ellipse cx="59" cy="609.3516" fill="#84BE84" rx="3" ry="3" style="stroke:#038048;stroke-width:1.0;"/><text fill="#000000" font-family="sans-serif" font-size="14" lengthAdjust="spacing" textLength="135" x="68" y="613.5801">getObjects(): Object[]</text><ellipse cx="59" cy="626.9609" fill="#84BE84" rx="3" ry="3" style="stroke:#038048;stroke-width:1.0;"/><text fill="#000000" font-family="sans-serif" font-size="14" lengthAdjust="spacing" textLength="160" x="68" y="631.1895">setObjects(Object[]): void</text></g></a><!--MD5=[c1d8e8b1012605fa86024770a58900be]
class miml.core.Utils--><a href="Utils.html" target="_top" title="Utils.html" xlink:actuate="onRequest" xlink:href="Utils.html" xlink:show="new" xlink:title="Utils.html" xlink:type="simple"><g id="elem_miml.core.Utils"><rect codeLine="48" fill="#F1F1F1" height="83.2188" id="miml.core.Utils" rx="2.5" ry="2.5" style="stroke:#181818;stroke-width:0.5;" width="368" x="291" y="511"/><ellipse cx="457.75" cy="527" fill="#ADD1B2" rx="11" ry="11" style="stroke:#181818;stroke-width:1.0;"/><path d="M460.5156,522.875 Q460.6719,522.6563 460.8594,522.5469 Q461.0469,522.4375 461.2656,522.4375 Q461.6406,522.4375 461.875,522.7031 Q462.1094,522.9531 462.1094,523.5625 L462.1094,525.0156 Q462.1094,525.625 461.875,525.8906 Q461.6406,526.1563 461.2656,526.1563 Q460.9219,526.1563 460.7188,525.9531 Q460.5156,525.7656 460.4063,525.25 Q460.3594,524.8906 460.1719,524.7031 Q459.8438,524.3281 459.2344,524.1094 Q458.625,523.8906 458,523.8906 Q457.2344,523.8906 456.5938,524.2188 Q455.9688,524.5469 455.4688,525.2969 Q454.9844,526.0469 454.9844,527.0781 L454.9844,528.1719 Q454.9844,529.4063 455.875,530.2344 Q456.7656,531.0469 458.3594,531.0469 Q459.2969,531.0469 459.9531,530.7969 Q460.3438,530.6406 460.7656,530.2031 Q461.0313,529.9375 461.1719,529.8594 Q461.3281,529.7813 461.5313,529.7813 Q461.8594,529.7813 462.1094,530.0469 Q462.375,530.2969 462.375,530.6406 Q462.375,530.9844 462.0313,531.3906 Q461.5313,531.9688 460.7344,532.2969 Q459.6563,532.75 458.3594,532.75 Q456.8438,532.75 455.6406,532.125 Q454.6563,531.625 453.9688,530.5625 Q453.2813,529.4844 453.2813,528.2031 L453.2813,527.0469 Q453.2813,525.7188 453.8906,524.5781 Q454.5156,523.4219 455.6094,522.8125 Q456.7031,522.1875 457.9375,522.1875 Q458.6719,522.1875 459.3125,522.3594 Q459.9688,522.5156 460.5156,522.875 Z " fill="#000000"/><text fill="#000000" font-family="sans-serif" font-size="14" lengthAdjust="spacing" textLength="26" x="478.25" y="532.7285">Utils</text><line style="stroke:#181818;stroke-width:0.5;" x1="292" x2="658" y1="543" y2="543"/><line style="stroke:#181818;stroke-width:0.5;" x1="292" x2="658" y1="551" y2="551"/><ellipse cx="302" cy="565.3047" fill="#84BE84" rx="3" ry="3" style="stroke:#038048;stroke-width:1.0;"/><text fill="#000000" font-family="sans-serif" font-size="14" lengthAdjust="spacing" text-decoration="underline" textLength="329" x="311" y="569.5332">resample(Instances, double, boolean, int): Instances</text><ellipse cx="302" cy="582.9141" fill="#84BE84" rx="3" ry="3" style="stroke:#038048;stroke-width:1.0;"/><text fill="#000000" font-family="sans-serif" font-size="14" lengthAdjust="spacing" text-decoration="underline" textLength="342" x="311" y="587.1426">readMultiLabelLearnerParams(Configuration): Params</text></g></a><rect fill="none" height="12.5781" style="stroke:none;stroke-width:1.0;" width="190" x="326.5" y="660"/><text fill="#888888" font-family="sans-serif" font-size="10" lengthAdjust="spacing" textLength="190" x="326.5" y="670.3809">UMLDoclet 2.0.20, PlantUML 1.2022.12</text><!--MD5=[dc11cc8a0ceb9d55aee1301642732be3]
@startuml
    namespace miml.core {

        class ConfigLoader [[ConfigLoader.html]] {
            #configuration: Configuration
            +ConfigLoader(String)
            +getConfiguration(): Configuration
            +setConfiguration(Configuration): void
            +loadClassifier(): IMIMLClassifier
            +loadEvaluator(): IEvaluator
            +loadReport(): IReport
        }

        class ConfigParameters [[ConfigParameters.html]] {
            {static} #algorithmName: String
            {static} #configFileName: String
            {static} #dataFileName: String
            {static} #classifierName: String
            {static} #transformationMethod: String
            {static} #isTransformation: Boolean
            {static} +getAlgorithmName(): String
            {static} +setAlgorithmName(String): void
            {static} +getConfigFileName(): String
            {static} +setConfigFileName(String): void
            {static} +getDataFileName(): String
            {static} +setDataFileName(String): void
            {static} +getClassifierName(): String
            {static} +setClassifierName(String): void
            {static} +getTransformationMethod(): String
            {static} +setTransformationMethod(String): void
            {static} +getIsTransformation(): Boolean
            {static} +setIsTransformation(Boolean): void
        }

        interface IConfiguration [[IConfiguration.html]] {
            {abstract} +configure(Configuration): void
        }

        class Params [[Params.html]] {
            -classes: Class<?>[]
            -objects: Object[]
            +Params(Class<?>[], Object[])
            +getClasses(): Class<?>[]
            +setClasses(Class<?>[]): void
            +getObjects(): Object[]
            +setObjects(Object[]): void
        }

        class Utils [[Utils.html]] {
            {static} +resample(Instances, double, boolean, int): Instances
            {static} +readMultiLabelLearnerParams(Configuration): Params
        }

    }

    center footer UMLDoclet 2.0.20, PlantUML 1.2022.12
@enduml

PlantUML version 1.2022.12(Sun Oct 23 20:12:26 CEST 2022)
(APACHE source distribution)
Java Runtime: OpenJDK Runtime Environment
JVM: OpenJDK 64-Bit Server VM
Default Encoding: Cp1252
Language: es
Country: ES
--></g></svg>