<?xml version="1.0" encoding="UTF-8" standalone="no"?><svg xmlns="http://www.w3.org/2000/svg" xmlns:xlink="http://www.w3.org/1999/xlink" contentStyleType="text/css" height="117px" preserveAspectRatio="none" style="width:389px;height:117px;background:#FFFFFF;" version="1.1" viewBox="0 0 389 117" width="389px" zoomAndPan="magnify"><defs/><g><!--MD5=[c1d8e8b1012605fa86024770a58900be]
class miml.core.Utils--><a href="Utils.html" target="_top" title="Utils.html" xlink:actuate="onRequest" xlink:href="Utils.html" xlink:show="new" xlink:title="Utils.html" xlink:type="simple"><g id="elem_miml.core.Utils"><rect codeLine="5" fill="#F1F1F1" height="83.4063" id="miml.core.Utils" rx="2.5" ry="2.5" style="stroke:#181818;stroke-width:0.5;" width="368" x="7" y="7"/><ellipse cx="162.75" cy="27.0938" fill="#ADD1B2" rx="11" ry="11" style="stroke:#181818;stroke-width:1.0;"/><path d="M165.5156,22.9688 Q165.6719,22.75 165.8594,22.6406 Q166.0469,22.5313 166.2656,22.5313 Q166.6406,22.5313 166.875,22.7969 Q167.1094,23.0469 167.1094,23.6563 L167.1094,25.1094 Q167.1094,25.7188 166.875,25.9844 Q166.6406,26.25 166.2656,26.25 Q165.9219,26.25 165.7188,26.0469 Q165.5156,25.8594 165.4063,25.3438 Q165.3594,24.9844 165.1719,24.7969 Q164.8438,24.4219 164.2344,24.2031 Q163.625,23.9844 163,23.9844 Q162.2344,23.9844 161.5938,24.3125 Q160.9688,24.6406 160.4688,25.3906 Q159.9844,26.1406 159.9844,27.1719 L159.9844,28.2656 Q159.9844,29.5 160.875,30.3281 Q161.7656,31.1406 163.3594,31.1406 Q164.2969,31.1406 164.9531,30.8906 Q165.3438,30.7344 165.7656,30.2969 Q166.0313,30.0313 166.1719,29.9531 Q166.3281,29.875 166.5313,29.875 Q166.8594,29.875 167.1094,30.1406 Q167.375,30.3906 167.375,30.7344 Q167.375,31.0781 167.0313,31.4844 Q166.5313,32.0625 165.7344,32.3906 Q164.6563,32.8438 163.3594,32.8438 Q161.8438,32.8438 160.6406,32.2188 Q159.6563,31.7188 158.9688,30.6563 Q158.2813,29.5781 158.2813,28.2969 L158.2813,27.1406 Q158.2813,25.8125 158.8906,24.6719 Q159.5156,23.5156 160.6094,22.9063 Q161.7031,22.2813 162.9375,22.2813 Q163.6719,22.2813 164.3125,22.4531 Q164.9688,22.6094 165.5156,22.9688 Z " fill="#000000"/><text fill="#000000" font-family="sans-serif" font-size="14" lengthAdjust="spacing" textLength="26" x="194.25" y="26.5332">Utils</text><text fill="#000000" font-family="sans-serif" font-size="10" lengthAdjust="spacing" textLength="48" x="183.25" y="39.9902">miml.core</text><line style="stroke:#181818;stroke-width:0.5;" x1="8" x2="374" y1="47.1875" y2="47.1875"/><ellipse cx="18" cy="61.4922" fill="#84BE84" rx="3" ry="3" style="stroke:#038048;stroke-width:1.0;"/><text fill="#000000" font-family="sans-serif" font-size="14" lengthAdjust="spacing" text-decoration="underline" textLength="329" x="27" y="65.7207">resample(Instances, double, boolean, int): Instances</text><ellipse cx="18" cy="79.1016" fill="#84BE84" rx="3" ry="3" style="stroke:#038048;stroke-width:1.0;"/><text fill="#000000" font-family="sans-serif" font-size="14" lengthAdjust="spacing" text-decoration="underline" textLength="342" x="27" y="83.3301">readMultiLabelLearnerParams(Configuration): Params</text></g></a><rect fill="none" height="12.5781" style="stroke:none;stroke-width:1.0;" width="190" x="95.5" y="97.4063"/><text fill="#888888" font-family="sans-serif" font-size="10" lengthAdjust="spacing" textLength="190" x="95.5" y="107.7871">UMLDoclet 2.0.20, PlantUML 1.2022.12</text><!--MD5=[9ced5fe1b413a816cef7138590226ef7]
@startuml
    set namespaceSeparator none
    hide empty fields
    hide empty methods

    class "<size:14>Utils\n<size:10>miml.core" as miml.core.Utils [[Utils.html]] {
        {static} +resample(Instances, double, boolean, int): Instances
        {static} +readMultiLabelLearnerParams(Configuration): Params
    }

    center footer UMLDoclet 2.0.20, PlantUML 1.2022.12
@enduml

PlantUML version 1.2022.12(Sun Oct 23 20:12:26 CEST 2022)
(APACHE source distribution)
Java Runtime: OpenJDK Runtime Environment
JVM: OpenJDK 64-Bit Server VM
Default Encoding: Cp1252
Language: es
Country: ES
--></g></svg>