<?xml version="1.0" encoding="UTF-8" standalone="no"?><svg xmlns="http://www.w3.org/2000/svg" xmlns:xlink="http://www.w3.org/1999/xlink" contentStyleType="text/css" height="567px" preserveAspectRatio="none" style="width:560px;height:567px;background:#FFFFFF;" version="1.1" viewBox="0 0 560 567" width="560px" zoomAndPan="magnify"><defs/><g><!--MD5=[f4fde286b3ee4a09a611a388574c5ca0]
class miml.classifiers.miml.neural.EnMIMLNNmetric--><a href="EnMIMLNNmetric.html" target="_top" title="EnMIMLNNmetric.html" xlink:actuate="onRequest" xlink:href="EnMIMLNNmetric.html" xlink:show="new" xlink:title="EnMIMLNNmetric.html" xlink:type="simple"><g id="elem_miml.classifiers.miml.neural.EnMIMLNNmetric"><rect codeLine="5" fill="#F1F1F1" height="373.1563" id="miml.classifiers.miml.neural.EnMIMLNNmetric" rx="2.5" ry="2.5" style="stroke:#181818;stroke-width:0.5;" width="534" x="14" y="168"/><ellipse cx="210.75" cy="188.0938" fill="#ADD1B2" rx="11" ry="11" style="stroke:#181818;stroke-width:1.0;"/><path d="M213.5156,183.9688 Q213.6719,183.75 213.8594,183.6406 Q214.0469,183.5313 214.2656,183.5313 Q214.6406,183.5313 214.875,183.7969 Q215.1094,184.0469 215.1094,184.6563 L215.1094,186.1094 Q215.1094,186.7188 214.875,186.9844 Q214.6406,187.25 214.2656,187.25 Q213.9219,187.25 213.7188,187.0469 Q213.5156,186.8594 213.4063,186.3438 Q213.3594,185.9844 213.1719,185.7969 Q212.8438,185.4219 212.2344,185.2031 Q211.625,184.9844 211,184.9844 Q210.2344,184.9844 209.5938,185.3125 Q208.9688,185.6406 208.4688,186.3906 Q207.9844,187.1406 207.9844,188.1719 L207.9844,189.2656 Q207.9844,190.5 208.875,191.3281 Q209.7656,192.1406 211.3594,192.1406 Q212.2969,192.1406 212.9531,191.8906 Q213.3438,191.7344 213.7656,191.2969 Q214.0313,191.0313 214.1719,190.9531 Q214.3281,190.875 214.5313,190.875 Q214.8594,190.875 215.1094,191.1406 Q215.375,191.3906 215.375,191.7344 Q215.375,192.0781 215.0313,192.4844 Q214.5313,193.0625 213.7344,193.3906 Q212.6563,193.8438 211.3594,193.8438 Q209.8438,193.8438 208.6406,193.2188 Q207.6563,192.7188 206.9688,191.6563 Q206.2813,190.5781 206.2813,189.2969 L206.2813,188.1406 Q206.2813,186.8125 206.8906,185.6719 Q207.5156,184.5156 208.6094,183.9063 Q209.7031,183.2813 210.9375,183.2813 Q211.6719,183.2813 212.3125,183.4531 Q212.9688,183.6094 213.5156,183.9688 Z " fill="#000000"/><text fill="#000000" font-family="sans-serif" font-size="14" lengthAdjust="spacing" textLength="106" x="244.25" y="187.5332">EnMIMLNNmetric</text><text fill="#000000" font-family="sans-serif" font-size="10" lengthAdjust="spacing" textLength="132" x="231.25" y="200.9902">miml.classifiers.miml.neural</text><line style="stroke:#181818;stroke-width:0.5;" x1="15" x2="547" y1="208.1875" y2="208.1875"/><rect fill="none" height="6" style="stroke:#C82930;stroke-width:1.0;" width="6" x="22" y="219.4922"/><text fill="#000000" font-family="sans-serif" font-size="14" lengthAdjust="spacing" text-decoration="underline" textLength="139" x="34" y="226.7207">serialVersionUID: long</text><polygon fill="none" points="25,236.1016,21,242.1016,29,242.1016" style="stroke:#1963A0;stroke-width:1.0;"/><text fill="#000000" font-family="sans-serif" font-size="14" lengthAdjust="spacing" text-decoration="underline" textLength="198" x="34" y="244.3301">enmimlnn: MWEnMIMLNNmetric</text><polygon fill="none" points="25,253.7109,21,259.7109,29,259.7109" style="stroke:#1963A0;stroke-width:1.0;"/><text fill="#000000" font-family="sans-serif" font-size="14" lengthAdjust="spacing" textLength="79" x="34" y="261.9395">ratio: double</text><polygon fill="none" points="25,271.3203,21,277.3203,29,277.3203" style="stroke:#1963A0;stroke-width:1.0;"/><text fill="#000000" font-family="sans-serif" font-size="14" lengthAdjust="spacing" textLength="70" x="34" y="279.5488">mu: double</text><polygon fill="none" points="25,288.9297,21,294.9297,29,294.9297" style="stroke:#1963A0;stroke-width:1.0;"/><text fill="#000000" font-family="sans-serif" font-size="14" lengthAdjust="spacing" textLength="54" x="34" y="297.1582">seed: int</text><line style="stroke:#181818;stroke-width:0.5;" x1="15" x2="547" y1="304.2344" y2="304.2344"/><ellipse cx="25" cy="318.5391" fill="#84BE84" rx="3" ry="3" style="stroke:#038048;stroke-width:1.0;"/><text fill="#000000" font-family="sans-serif" font-size="14" lengthAdjust="spacing" textLength="116" x="34" y="322.7676">EnMIMLNNmetric()</text><ellipse cx="25" cy="336.1484" fill="#84BE84" rx="3" ry="3" style="stroke:#038048;stroke-width:1.0;"/><text fill="#000000" font-family="sans-serif" font-size="14" lengthAdjust="spacing" textLength="210" x="34" y="340.377">EnMIMLNNmetric(double, double)</text><ellipse cx="25" cy="353.7578" fill="#84BE84" rx="3" ry="3" style="stroke:#038048;stroke-width:1.0;"/><text fill="#000000" font-family="sans-serif" font-size="14" lengthAdjust="spacing" textLength="233" x="34" y="357.9863">EnMIMLNNmetric(double, double, int)</text><ellipse cx="25" cy="371.3672" fill="#84BE84" rx="3" ry="3" style="stroke:#038048;stroke-width:1.0;"/><text fill="#000000" font-family="sans-serif" font-size="14" lengthAdjust="spacing" textLength="93" x="34" y="375.5957">dispose(): void</text><ellipse cx="25" cy="388.9766" fill="#84BE84" rx="3" ry="3" style="stroke:#038048;stroke-width:1.0;"/><text fill="#000000" font-family="sans-serif" font-size="14" lengthAdjust="spacing" textLength="114" x="34" y="393.2051">getRatio(): double</text><ellipse cx="25" cy="406.5859" fill="#84BE84" rx="3" ry="3" style="stroke:#038048;stroke-width:1.0;"/><text fill="#000000" font-family="sans-serif" font-size="14" lengthAdjust="spacing" textLength="139" x="34" y="410.8145">setRatio(double): void</text><ellipse cx="25" cy="424.1953" fill="#84BE84" rx="3" ry="3" style="stroke:#038048;stroke-width:1.0;"/><text fill="#000000" font-family="sans-serif" font-size="14" lengthAdjust="spacing" textLength="100" x="34" y="428.4238">getMu(): double</text><ellipse cx="25" cy="441.8047" fill="#84BE84" rx="3" ry="3" style="stroke:#038048;stroke-width:1.0;"/><text fill="#000000" font-family="sans-serif" font-size="14" lengthAdjust="spacing" textLength="125" x="34" y="446.0332">setMu(double): void</text><ellipse cx="25" cy="459.4141" fill="#84BE84" rx="3" ry="3" style="stroke:#038048;stroke-width:1.0;"/><text fill="#000000" font-family="sans-serif" font-size="14" lengthAdjust="spacing" textLength="86" x="34" y="463.6426">getSeed(): int</text><ellipse cx="25" cy="477.0234" fill="#84BE84" rx="3" ry="3" style="stroke:#038048;stroke-width:1.0;"/><text fill="#000000" font-family="sans-serif" font-size="14" lengthAdjust="spacing" textLength="111" x="34" y="481.252">setSeed(int): void</text><ellipse cx="25" cy="494.6328" fill="#84BE84" rx="3" ry="3" style="stroke:#038048;stroke-width:1.0;"/><text fill="#000000" font-family="sans-serif" font-size="14" lengthAdjust="spacing" textLength="188" x="34" y="498.8613">configure(Configuration): void</text><polygon fill="#FFFF44" points="25,507.2422,29,511.2422,25,515.2422,21,511.2422" style="stroke:#B38D22;stroke-width:1.0;"/><text fill="#000000" font-family="sans-serif" font-size="14" lengthAdjust="spacing" textLength="353" x="34" y="516.4707">trainMWClassifier(MWCellArray, MWNumericArray): void</text><polygon fill="#FFFF44" points="25,524.8516,29,528.8516,25,532.8516,21,528.8516" style="stroke:#B38D22;stroke-width:1.0;"/><text fill="#000000" font-family="sans-serif" font-size="14" lengthAdjust="spacing" textLength="508" x="34" y="534.0801">predictMWClassifier(MWCellArray, MWNumericArray, MWNumericArray): Object[]</text></g></a><!--MD5=[a73d7e6ec4fa7ef9a44f222a19844101]
class miml.classifiers.miml.MWClassifier--><a href="..\MWClassifier.html" target="_top" title="..\MWClassifier.html" xlink:actuate="onRequest" xlink:href="..\MWClassifier.html" xlink:show="new" xlink:title="..\MWClassifier.html" xlink:type="simple"><g id="elem_miml.classifiers.miml.MWClassifier"><rect codeLine="26" fill="#F1F1F1" height="101.0156" id="miml.classifiers.miml.MWClassifier" rx="2.5" ry="2.5" style="stroke:#181818;stroke-width:0.5;" width="544" x="9" y="7"/><ellipse cx="230.25" cy="27.0938" fill="#A9DCDF" rx="11" ry="11" style="stroke:#181818;stroke-width:1.0;"/><path d="M232.4375,28.8594 L228.2969,28.8594 L227.875,29.8906 L228.2969,29.8906 Q228.9063,29.8906 229.1719,30.125 Q229.4375,30.3594 229.4375,30.75 Q229.4375,31.125 229.1719,31.3594 Q228.9063,31.5938 228.2969,31.5938 L226,31.5938 Q225.3906,31.5938 225.1406,31.3594 Q224.875,31.125 224.875,30.7344 Q224.875,30.3594 225.1563,30.125 Q225.4219,29.875 226.0469,29.8906 L228.7188,23.2344 L227.6094,23.2344 Q227,23.2344 226.7344,23 Q226.4688,22.7656 226.4688,22.375 Q226.4688,22 226.7344,21.7656 Q227,21.5313 227.6094,21.5313 L231.2813,21.5313 L234.6719,29.8906 Q235.2656,29.8906 235.4531,30.0313 Q235.8438,30.2969 235.8438,30.75 Q235.8438,31.125 235.5781,31.3594 Q235.3281,31.5938 234.7188,31.5938 L232.4219,31.5938 Q231.8125,31.5938 231.5469,31.3594 Q231.2813,31.125 231.2813,30.7344 Q231.2813,30.3594 231.5469,30.125 Q231.8125,29.8906 232.4219,29.8906 L232.8438,29.8906 L232.4375,28.8594 Z M231.7188,27.1563 L230.3594,23.7813 L228.9844,27.1563 L231.7188,27.1563 Z " fill="#000000"/><text fill="#000000" font-family="sans-serif" font-size="14" font-style="italic" lengthAdjust="spacing" textLength="84" x="255.25" y="26.5332">MWClassifier</text><text fill="#000000" font-family="sans-serif" font-size="10" font-style="italic" lengthAdjust="spacing" textLength="93" x="250.75" y="39.9902">miml.classifiers.miml</text><line style="stroke:#181818;stroke-width:0.5;" x1="10" x2="552" y1="47.1875" y2="47.1875"/><polygon fill="#FFFF44" points="20,56.4922,24,60.4922,20,64.4922,16,60.4922" style="stroke:#B38D22;stroke-width:1.0;"/><text fill="#000000" font-family="sans-serif" font-size="14" font-style="italic" lengthAdjust="spacing" textLength="359" x="29" y="65.7207">trainMWClassifier(MWCellArray, MWNumericArray): void</text><polygon fill="#FFFF44" points="20,74.1016,24,78.1016,20,82.1016,16,78.1016" style="stroke:#B38D22;stroke-width:1.0;"/><text fill="#000000" font-family="sans-serif" font-size="14" font-style="italic" lengthAdjust="spacing" textLength="518" x="29" y="83.3301">predictMWClassifier(MWCellArray, MWNumericArray, MWNumericArray): Object[]</text><ellipse cx="20" cy="96.7109" fill="#84BE84" rx="3" ry="3" style="stroke:#038048;stroke-width:1.0;"/><text fill="#000000" font-family="sans-serif" font-size="14" font-style="italic" lengthAdjust="spacing" textLength="92" x="29" y="100.9395">dispose(): void</text></g></a><!--MD5=[0ca9dc072decb245760342f467bdda6f]
reverse link miml.classifiers.miml.MWClassifier to miml.classifiers.miml.neural.EnMIMLNNmetric--><g id="link_miml.classifiers.miml.MWClassifier_miml.classifiers.miml.neural.EnMIMLNNmetric"><path codeLine="32" d="M281,128.51 C281,140.82 281,154.13 281,167.92 " fill="none" id="miml.classifiers.miml.MWClassifier-backto-miml.classifiers.miml.neural.EnMIMLNNmetric" style="stroke:#181818;stroke-width:1.0;"/><polygon fill="none" points="274,128.21,281,108.21,288,128.21,274,128.21" style="stroke:#181818;stroke-width:1.0;"/></g><rect fill="none" height="12.5781" style="stroke:none;stroke-width:1.0;" width="190" x="178" y="547.1563"/><text fill="#888888" font-family="sans-serif" font-size="10" lengthAdjust="spacing" textLength="190" x="178" y="557.5371">UMLDoclet 2.0.20, PlantUML 1.2022.12</text><!--MD5=[5989d7f60d1a7008938d91283bdc1d5e]
@startuml
    set namespaceSeparator none
    hide empty fields
    hide empty methods

    class "<size:14>EnMIMLNNmetric\n<size:10>miml.classifiers.miml.neural" as miml.classifiers.miml.neural.EnMIMLNNmetric [[EnMIMLNNmetric.html]] {
        {static} -serialVersionUID: long
        {static} ~enmimlnn: MWEnMIMLNNmetric
        ~ratio: double
        ~mu: double
        ~seed: int
        +EnMIMLNNmetric()
        +EnMIMLNNmetric(double, double)
        +EnMIMLNNmetric(double, double, int)
        +dispose(): void
        +getRatio(): double
        +setRatio(double): void
        +getMu(): double
        +setMu(double): void
        +getSeed(): int
        +setSeed(int): void
        +configure(Configuration): void
        #trainMWClassifier(MWCellArray, MWNumericArray): void
        #predictMWClassifier(MWCellArray, MWNumericArray, MWNumericArray): Object[]
    }

    abstract class "<size:14>MWClassifier\n<size:10>miml.classifiers.miml" as miml.classifiers.miml.MWClassifier [[..\MWClassifier.html]] {
        {abstract} #trainMWClassifier(MWCellArray, MWNumericArray): void
        {abstract} #predictMWClassifier(MWCellArray, MWNumericArray, MWNumericArray): Object[]
        {abstract} +dispose(): void
    }

    miml.classifiers.miml.MWClassifier <|- - miml.classifiers.miml.neural.EnMIMLNNmetric

    center footer UMLDoclet 2.0.20, PlantUML 1.2022.12
@enduml

PlantUML version 1.2022.12(Sun Oct 23 20:12:26 CEST 2022)
(APACHE source distribution)
Java Runtime: OpenJDK Runtime Environment
JVM: OpenJDK 64-Bit Server VM
Default Encoding: Cp1252
Language: es
Country: ES
--></g></svg>