<?xml version="1.0" encoding="UTF-8" standalone="no"?><svg xmlns="http://www.w3.org/2000/svg" xmlns:xlink="http://www.w3.org/1999/xlink" contentStyleType="text/css" height="340px" preserveAspectRatio="none" style="width:457px;height:340px;background:#FFFFFF;" version="1.1" viewBox="0 0 457 340" width="457px" zoomAndPan="magnify"><defs/><g><!--MD5=[deee93e67dfb260cf222c3ae5910a049]
class miml.report.BaseMIMLReport--><a href="BaseMIMLReport.html" target="_top" title="BaseMIMLReport.html" xlink:actuate="onRequest" xlink:href="BaseMIMLReport.html" xlink:show="new" xlink:title="BaseMIMLReport.html" xlink:type="simple"><g id="elem_miml.report.BaseMIMLReport"><rect codeLine="5" fill="#F1F1F1" height="206.6719" id="miml.report.BaseMIMLReport" rx="2.5" ry="2.5" style="stroke:#181818;stroke-width:0.5;" width="441" x="9" y="107"/><ellipse cx="171.25" cy="127.0938" fill="#ADD1B2" rx="11" ry="11" style="stroke:#181818;stroke-width:1.0;"/><path d="M174.0156,122.9688 Q174.1719,122.75 174.3594,122.6406 Q174.5469,122.5313 174.7656,122.5313 Q175.1406,122.5313 175.375,122.7969 Q175.6094,123.0469 175.6094,123.6563 L175.6094,125.1094 Q175.6094,125.7188 175.375,125.9844 Q175.1406,126.25 174.7656,126.25 Q174.4219,126.25 174.2188,126.0469 Q174.0156,125.8594 173.9063,125.3438 Q173.8594,124.9844 173.6719,124.7969 Q173.3438,124.4219 172.7344,124.2031 Q172.125,123.9844 171.5,123.9844 Q170.7344,123.9844 170.0938,124.3125 Q169.4688,124.6406 168.9688,125.3906 Q168.4844,126.1406 168.4844,127.1719 L168.4844,128.2656 Q168.4844,129.5 169.375,130.3281 Q170.2656,131.1406 171.8594,131.1406 Q172.7969,131.1406 173.4531,130.8906 Q173.8438,130.7344 174.2656,130.2969 Q174.5313,130.0313 174.6719,129.9531 Q174.8281,129.875 175.0313,129.875 Q175.3594,129.875 175.6094,130.1406 Q175.875,130.3906 175.875,130.7344 Q175.875,131.0781 175.5313,131.4844 Q175.0313,132.0625 174.2344,132.3906 Q173.1563,132.8438 171.8594,132.8438 Q170.3438,132.8438 169.1406,132.2188 Q168.1563,131.7188 167.4688,130.6563 Q166.7813,129.5781 166.7813,128.2969 L166.7813,127.1406 Q166.7813,125.8125 167.3906,124.6719 Q168.0156,123.5156 169.1094,122.9063 Q170.2031,122.2813 171.4375,122.2813 Q172.1719,122.2813 172.8125,122.4531 Q173.4688,122.6094 174.0156,122.9688 Z " fill="#000000"/><text fill="#000000" font-family="sans-serif" font-size="14" lengthAdjust="spacing" textLength="108" x="191.75" y="126.5332">BaseMIMLReport</text><text fill="#000000" font-family="sans-serif" font-size="10" lengthAdjust="spacing" textLength="54" x="218.75" y="139.9902">miml.report</text><line style="stroke:#181818;stroke-width:0.5;" x1="10" x2="449" y1="147.1875" y2="147.1875"/><ellipse cx="20" cy="161.4922" fill="#84BE84" rx="3" ry="3" style="stroke:#038048;stroke-width:1.0;"/><text fill="#000000" font-family="sans-serif" font-size="14" lengthAdjust="spacing" textLength="415" x="29" y="165.7207">BaseMIMLReport(List&lt;String&gt;, String, boolean, boolean, boolean)</text><ellipse cx="20" cy="179.1016" fill="#84BE84" rx="3" ry="3" style="stroke:#038048;stroke-width:1.0;"/><text fill="#000000" font-family="sans-serif" font-size="14" lengthAdjust="spacing" textLength="118" x="29" y="183.3301">BaseMIMLReport()</text><polygon fill="#FFFF44" points="20,191.7109,24,195.7109,20,199.7109,16,195.7109" style="stroke:#B38D22;stroke-width:1.0;"/><text fill="#000000" font-family="sans-serif" font-size="14" lengthAdjust="spacing" textLength="275" x="29" y="200.9395">crossValidationToCSV(EvaluatorCV): String</text><polygon fill="#FFFF44" points="20,209.3203,24,213.3203,20,217.3203,16,213.3203" style="stroke:#B38D22;stroke-width:1.0;"/><text fill="#000000" font-family="sans-serif" font-size="14" lengthAdjust="spacing" textLength="255" x="29" y="218.5488">holdoutToCSV(EvaluatorHoldout): String</text><polygon fill="#FFFF44" points="20,226.9297,24,230.9297,20,234.9297,16,230.9297" style="stroke:#B38D22;stroke-width:1.0;"/><text fill="#000000" font-family="sans-serif" font-size="14" lengthAdjust="spacing" textLength="284" x="29" y="236.1582">crossValidationToString(EvaluatorCV): String</text><polygon fill="#FFFF44" points="20,244.5391,24,248.5391,20,252.5391,16,248.5391" style="stroke:#B38D22;stroke-width:1.0;"/><text fill="#000000" font-family="sans-serif" font-size="14" lengthAdjust="spacing" textLength="264" x="29" y="253.7676">holdoutToString(EvaluatorHoldout): String</text><ellipse cx="20" cy="267.1484" fill="#84BE84" rx="3" ry="3" style="stroke:#038048;stroke-width:1.0;"/><text fill="#000000" font-family="sans-serif" font-size="14" lengthAdjust="spacing" textLength="158" x="29" y="271.377">toCSV(IEvaluator): String</text><ellipse cx="20" cy="284.7578" fill="#84BE84" rx="3" ry="3" style="stroke:#038048;stroke-width:1.0;"/><text fill="#000000" font-family="sans-serif" font-size="14" lengthAdjust="spacing" textLength="167" x="29" y="288.9863">toString(IEvaluator): String</text><ellipse cx="20" cy="302.3672" fill="#84BE84" rx="3" ry="3" style="stroke:#038048;stroke-width:1.0;"/><text fill="#000000" font-family="sans-serif" font-size="14" lengthAdjust="spacing" textLength="188" x="29" y="306.5957">configure(Configuration): void</text></g></a><!--MD5=[0edc8448e7321d9d7541fe5752d86ea1]
class miml.report.MIMLReport--><a href="MIMLReport.html" target="_top" title="MIMLReport.html" xlink:actuate="onRequest" xlink:href="MIMLReport.html" xlink:show="new" xlink:title="MIMLReport.html" xlink:type="simple"><g id="elem_miml.report.MIMLReport"><rect codeLine="17" fill="#F1F1F1" height="40.1875" id="miml.report.MIMLReport" rx="2.5" ry="2.5" style="stroke:#181818;stroke-width:0.5;" width="111" x="174" y="7"/><ellipse cx="189" cy="27.0938" fill="#A9DCDF" rx="11" ry="11" style="stroke:#181818;stroke-width:1.0;"/><path d="M191.1875,28.8594 L187.0469,28.8594 L186.625,29.8906 L187.0469,29.8906 Q187.6563,29.8906 187.9219,30.125 Q188.1875,30.3594 188.1875,30.75 Q188.1875,31.125 187.9219,31.3594 Q187.6563,31.5938 187.0469,31.5938 L184.75,31.5938 Q184.1406,31.5938 183.8906,31.3594 Q183.625,31.125 183.625,30.7344 Q183.625,30.3594 183.9063,30.125 Q184.1719,29.875 184.7969,29.8906 L187.4688,23.2344 L186.3594,23.2344 Q185.75,23.2344 185.4844,23 Q185.2188,22.7656 185.2188,22.375 Q185.2188,22 185.4844,21.7656 Q185.75,21.5313 186.3594,21.5313 L190.0313,21.5313 L193.4219,29.8906 Q194.0156,29.8906 194.2031,30.0313 Q194.5938,30.2969 194.5938,30.75 Q194.5938,31.125 194.3281,31.3594 Q194.0781,31.5938 193.4688,31.5938 L191.1719,31.5938 Q190.5625,31.5938 190.2969,31.3594 Q190.0313,31.125 190.0313,30.7344 Q190.0313,30.3594 190.2969,30.125 Q190.5625,29.8906 191.1719,29.8906 L191.5938,29.8906 L191.1875,28.8594 Z M190.4688,27.1563 L189.1094,23.7813 L187.7344,27.1563 L190.4688,27.1563 Z " fill="#000000"/><text fill="#000000" font-family="sans-serif" font-size="14" font-style="italic" lengthAdjust="spacing" textLength="79" x="203" y="26.5332">MIMLReport</text><text fill="#000000" font-family="sans-serif" font-size="10" font-style="italic" lengthAdjust="spacing" textLength="50" x="217.5" y="39.9902">miml.report</text></g></a><!--MD5=[fafd4a7e73a9c770ecd3157afe5a99ac]
reverse link miml.report.MIMLReport to miml.report.BaseMIMLReport--><g id="link_miml.report.MIMLReport_miml.report.BaseMIMLReport"><path codeLine="19" d="M229.5,67.32 C229.5,79.15 229.5,92.71 229.5,106.66 " fill="none" id="miml.report.MIMLReport-backto-miml.report.BaseMIMLReport" style="stroke:#181818;stroke-width:1.0;"/><polygon fill="none" points="222.5,67.08,229.5,47.08,236.5,67.08,222.5,67.08" style="stroke:#181818;stroke-width:1.0;"/></g><rect fill="none" height="12.5781" style="stroke:none;stroke-width:1.0;" width="190" x="126.5" y="319.6719"/><text fill="#888888" font-family="sans-serif" font-size="10" lengthAdjust="spacing" textLength="190" x="126.5" y="330.0527">UMLDoclet 2.0.20, PlantUML 1.2022.12</text><!--MD5=[46245533573de22b76538a0ac59221aa]
@startuml
    set namespaceSeparator none
    hide empty fields
    hide empty methods

    class "<size:14>BaseMIMLReport\n<size:10>miml.report" as miml.report.BaseMIMLReport [[BaseMIMLReport.html]] {
        +BaseMIMLReport(List<String>, String, boolean, boolean, boolean)
        +BaseMIMLReport()
        #crossValidationToCSV(EvaluatorCV): String
        #holdoutToCSV(EvaluatorHoldout): String
        #crossValidationToString(EvaluatorCV): String
        #holdoutToString(EvaluatorHoldout): String
        +toCSV(IEvaluator): String
        +toString(IEvaluator): String
        +configure(Configuration): void
    }

    abstract class "<size:14>MIMLReport\n<size:10>miml.report" as miml.report.MIMLReport [[MIMLReport.html]]

    miml.report.MIMLReport <|- - miml.report.BaseMIMLReport

    center footer UMLDoclet 2.0.20, PlantUML 1.2022.12
@enduml

PlantUML version 1.2022.12(Sun Oct 23 20:12:26 CEST 2022)
(APACHE source distribution)
Java Runtime: OpenJDK Runtime Environment
JVM: OpenJDK 64-Bit Server VM
Default Encoding: Cp1252
Language: es
Country: ES
--></g></svg>