<?xml version="1.0" encoding="UTF-8" standalone="no"?><svg xmlns="http://www.w3.org/2000/svg" xmlns:xlink="http://www.w3.org/1999/xlink" contentStyleType="text/css" height="135px" preserveAspectRatio="none" style="width:214px;height:135px;background:#FFFFFF;" version="1.1" viewBox="0 0 214 135" width="214px" zoomAndPan="magnify"><defs/><g><!--MD5=[e944991df305b2b39fced1f10e4c4f6f]
class miml.report.IReport--><a href="IReport.html" target="_top" title="IReport.html" xlink:actuate="onRequest" xlink:href="IReport.html" xlink:show="new" xlink:title="IReport.html" xlink:type="simple"><g id="elem_miml.report.IReport"><rect codeLine="5" fill="#F1F1F1" height="101.0156" id="miml.report.IReport" rx="2.5" ry="2.5" style="stroke:#181818;stroke-width:0.5;" width="193" x="7" y="7"/><ellipse cx="74.25" cy="27.0938" fill="#B4A7E5" rx="11" ry="11" style="stroke:#181818;stroke-width:1.0;"/><path d="M75.2031,23.7344 L75.2031,30.3906 L76.9219,30.3906 Q77.5313,30.3906 77.7969,30.625 Q78.0625,30.8594 78.0625,31.25 Q78.0625,31.625 77.7969,31.8594 Q77.5313,32.0938 76.9219,32.0938 L71.7813,32.0938 Q71.1719,32.0938 70.9063,31.8594 Q70.6406,31.625 70.6406,31.2344 Q70.6406,30.8594 70.9063,30.625 Q71.1719,30.3906 71.7813,30.3906 L73.5,30.3906 L73.5,23.7344 L71.7813,23.7344 Q71.1719,23.7344 70.9063,23.5 Q70.6406,23.2656 70.6406,22.875 Q70.6406,22.5 70.9063,22.2656 Q71.1719,22.0313 71.7813,22.0313 L76.9219,22.0313 Q77.5313,22.0313 77.7969,22.2656 Q78.0625,22.5 78.0625,22.875 Q78.0625,23.2656 77.7969,23.5 Q77.5313,23.7344 76.9219,23.7344 L75.2031,23.7344 Z " fill="#000000"/><text fill="#000000" font-family="sans-serif" font-size="14" font-style="italic" lengthAdjust="spacing" textLength="47" x="96.25" y="26.5332">IReport</text><text fill="#000000" font-family="sans-serif" font-size="10" font-style="italic" lengthAdjust="spacing" textLength="50" x="94.75" y="39.9902">miml.report</text><line style="stroke:#181818;stroke-width:0.5;" x1="8" x2="199" y1="47.1875" y2="47.1875"/><ellipse cx="18" cy="61.4922" fill="#84BE84" rx="3" ry="3" style="stroke:#038048;stroke-width:1.0;"/><text fill="#000000" font-family="sans-serif" font-size="14" font-style="italic" lengthAdjust="spacing" textLength="158" x="27" y="65.7207">toCSV(IEvaluator): String</text><ellipse cx="18" cy="79.1016" fill="#84BE84" rx="3" ry="3" style="stroke:#038048;stroke-width:1.0;"/><text fill="#000000" font-family="sans-serif" font-size="14" font-style="italic" lengthAdjust="spacing" textLength="167" x="27" y="83.3301">toString(IEvaluator): String</text><ellipse cx="18" cy="96.7109" fill="#84BE84" rx="3" ry="3" style="stroke:#038048;stroke-width:1.0;"/><text fill="#000000" font-family="sans-serif" font-size="14" font-style="italic" lengthAdjust="spacing" textLength="152" x="27" y="100.9395">saveReport(String): void</text></g></a><rect fill="none" height="12.5781" style="stroke:none;stroke-width:1.0;" width="190" x="8" y="115.0156"/><text fill="#888888" font-family="sans-serif" font-size="10" lengthAdjust="spacing" textLength="190" x="8" y="125.3965">UMLDoclet 2.0.20, PlantUML 1.2022.12</text><!--MD5=[8d799186ed767ae5371fcfb5f5de68c4]
@startuml
    set namespaceSeparator none
    hide empty fields
    hide empty methods

    interface "<size:14>IReport\n<size:10>miml.report" as miml.report.IReport [[IReport.html]] {
        {abstract} +toCSV(IEvaluator): String
        {abstract} +toString(IEvaluator): String
        {abstract} +saveReport(String): void
    }

    center footer UMLDoclet 2.0.20, PlantUML 1.2022.12
@enduml

PlantUML version 1.2022.12(Sun Oct 23 20:12:26 CEST 2022)
(APACHE source distribution)
Java Runtime: OpenJDK Runtime Environment
JVM: OpenJDK 64-Bit Server VM
Default Encoding: Cp1252
Language: es
Country: ES
--></g></svg>