<?xml version="1.0" encoding="UTF-8" standalone="no"?><svg xmlns="http://www.w3.org/2000/svg" xmlns:xlink="http://www.w3.org/1999/xlink" contentStyleType="text/css" height="585px" preserveAspectRatio="none" style="width:455px;height:585px;background:#FFFFFF;" version="1.1" viewBox="0 0 455 585" width="455px" zoomAndPan="magnify"><defs/><g><!--MD5=[0edc8448e7321d9d7541fe5752d86ea1]
class miml.report.MIMLReport--><a href="MIMLReport.html" target="_top" title="MIMLReport.html" xlink:actuate="onRequest" xlink:href="MIMLReport.html" xlink:show="new" xlink:title="MIMLReport.html" xlink:type="simple"><g id="elem_miml.report.MIMLReport"><rect codeLine="5" fill="#F1F1F1" height="390.7656" id="miml.report.MIMLReport" rx="2.5" ry="2.5" style="stroke:#181818;stroke-width:0.5;" width="409" x="18" y="168"/><ellipse cx="178.75" cy="188.0938" fill="#A9DCDF" rx="11" ry="11" style="stroke:#181818;stroke-width:1.0;"/><path d="M180.9375,189.8594 L176.7969,189.8594 L176.375,190.8906 L176.7969,190.8906 Q177.4063,190.8906 177.6719,191.125 Q177.9375,191.3594 177.9375,191.75 Q177.9375,192.125 177.6719,192.3594 Q177.4063,192.5938 176.7969,192.5938 L174.5,192.5938 Q173.8906,192.5938 173.6406,192.3594 Q173.375,192.125 173.375,191.7344 Q173.375,191.3594 173.6563,191.125 Q173.9219,190.875 174.5469,190.8906 L177.2188,184.2344 L176.1094,184.2344 Q175.5,184.2344 175.2344,184 Q174.9688,183.7656 174.9688,183.375 Q174.9688,183 175.2344,182.7656 Q175.5,182.5313 176.1094,182.5313 L179.7813,182.5313 L183.1719,190.8906 Q183.7656,190.8906 183.9531,191.0313 Q184.3438,191.2969 184.3438,191.75 Q184.3438,192.125 184.0781,192.3594 Q183.8281,192.5938 183.2188,192.5938 L180.9219,192.5938 Q180.3125,192.5938 180.0469,192.3594 Q179.7813,192.125 179.7813,191.7344 Q179.7813,191.3594 180.0469,191.125 Q180.3125,190.8906 180.9219,190.8906 L181.3438,190.8906 L180.9375,189.8594 Z M180.2188,188.1563 L178.8594,184.7813 L177.4844,188.1563 L180.2188,188.1563 Z " fill="#000000"/><text fill="#000000" font-family="sans-serif" font-size="14" font-style="italic" lengthAdjust="spacing" textLength="79" x="199.25" y="187.5332">MIMLReport</text><text fill="#000000" font-family="sans-serif" font-size="10" font-style="italic" lengthAdjust="spacing" textLength="50" x="213.75" y="200.9902">miml.report</text><line style="stroke:#181818;stroke-width:0.5;" x1="19" x2="426" y1="208.1875" y2="208.1875"/><polygon fill="none" points="29,217.4922,33,221.4922,29,225.4922,25,221.4922" style="stroke:#B38D22;stroke-width:1.0;"/><text fill="#000000" font-family="sans-serif" font-size="14" lengthAdjust="spacing" textLength="145" x="38" y="226.7207">measures: List&lt;String&gt;</text><polygon fill="none" points="29,235.1016,33,239.1016,29,243.1016,25,239.1016" style="stroke:#B38D22;stroke-width:1.0;"/><text fill="#000000" font-family="sans-serif" font-size="14" lengthAdjust="spacing" textLength="98" x="38" y="244.3301">filename: String</text><polygon fill="none" points="29,252.7109,33,256.7109,29,260.7109,25,256.7109" style="stroke:#B38D22;stroke-width:1.0;"/><text fill="#000000" font-family="sans-serif" font-size="14" lengthAdjust="spacing" textLength="78" x="38" y="261.9395">std: boolean</text><polygon fill="none" points="29,270.3203,33,274.3203,29,278.3203,25,274.3203" style="stroke:#B38D22;stroke-width:1.0;"/><text fill="#000000" font-family="sans-serif" font-size="14" lengthAdjust="spacing" textLength="96" x="38" y="279.5488">labels: boolean</text><polygon fill="none" points="29,287.9297,33,291.9297,29,295.9297,25,291.9297" style="stroke:#B38D22;stroke-width:1.0;"/><text fill="#000000" font-family="sans-serif" font-size="14" lengthAdjust="spacing" textLength="104" x="38" y="297.1582">header: boolean</text><line style="stroke:#181818;stroke-width:0.5;" x1="19" x2="426" y1="304.2344" y2="304.2344"/><ellipse cx="29" cy="318.5391" fill="#84BE84" rx="3" ry="3" style="stroke:#038048;stroke-width:1.0;"/><text fill="#000000" font-family="sans-serif" font-size="14" lengthAdjust="spacing" textLength="383" x="38" y="322.7676">MIMLReport(List&lt;String&gt;, String, boolean, boolean, boolean)</text><ellipse cx="29" cy="336.1484" fill="#84BE84" rx="3" ry="3" style="stroke:#038048;stroke-width:1.0;"/><text fill="#000000" font-family="sans-serif" font-size="14" lengthAdjust="spacing" textLength="86" x="38" y="340.377">MIMLReport()</text><polygon fill="#FFFF44" points="29,348.7578,33,352.7578,29,356.7578,25,352.7578" style="stroke:#B38D22;stroke-width:1.0;"/><text fill="#000000" font-family="sans-serif" font-size="14" lengthAdjust="spacing" textLength="293" x="38" y="357.9863">filterMeasures(List&lt;Measure&gt;): List&lt;Measure&gt;</text><ellipse cx="29" cy="371.3672" fill="#84BE84" rx="3" ry="3" style="stroke:#038048;stroke-width:1.0;"/><text fill="#000000" font-family="sans-serif" font-size="14" lengthAdjust="spacing" textLength="154" x="38" y="375.5957">saveReport(String): void</text><ellipse cx="29" cy="388.9766" fill="#84BE84" rx="3" ry="3" style="stroke:#038048;stroke-width:1.0;"/><text fill="#000000" font-family="sans-serif" font-size="14" lengthAdjust="spacing" textLength="175" x="38" y="393.2051">getMeasures(): List&lt;String&gt;</text><ellipse cx="29" cy="406.5859" fill="#84BE84" rx="3" ry="3" style="stroke:#038048;stroke-width:1.0;"/><text fill="#000000" font-family="sans-serif" font-size="14" lengthAdjust="spacing" textLength="200" x="38" y="410.8145">setMeasures(List&lt;String&gt;): void</text><ellipse cx="29" cy="424.1953" fill="#84BE84" rx="3" ry="3" style="stroke:#038048;stroke-width:1.0;"/><text fill="#000000" font-family="sans-serif" font-size="14" lengthAdjust="spacing" textLength="133" x="38" y="428.4238">getFilename(): String</text><ellipse cx="29" cy="441.8047" fill="#84BE84" rx="3" ry="3" style="stroke:#038048;stroke-width:1.0;"/><text fill="#000000" font-family="sans-serif" font-size="14" lengthAdjust="spacing" textLength="158" x="38" y="446.0332">setFilename(String): void</text><ellipse cx="29" cy="459.4141" fill="#84BE84" rx="3" ry="3" style="stroke:#038048;stroke-width:1.0;"/><text fill="#000000" font-family="sans-serif" font-size="14" lengthAdjust="spacing" textLength="100" x="38" y="463.6426">isStd(): boolean</text><ellipse cx="29" cy="477.0234" fill="#84BE84" rx="3" ry="3" style="stroke:#038048;stroke-width:1.0;"/><text fill="#000000" font-family="sans-serif" font-size="14" lengthAdjust="spacing" textLength="135" x="38" y="481.252">setStd(boolean): void</text><ellipse cx="29" cy="494.6328" fill="#84BE84" rx="3" ry="3" style="stroke:#038048;stroke-width:1.0;"/><text fill="#000000" font-family="sans-serif" font-size="14" lengthAdjust="spacing" textLength="121" x="38" y="498.8613">isLabels(): boolean</text><ellipse cx="29" cy="512.2422" fill="#84BE84" rx="3" ry="3" style="stroke:#038048;stroke-width:1.0;"/><text fill="#000000" font-family="sans-serif" font-size="14" lengthAdjust="spacing" textLength="156" x="38" y="516.4707">setLabels(boolean): void</text><ellipse cx="29" cy="529.8516" fill="#84BE84" rx="3" ry="3" style="stroke:#038048;stroke-width:1.0;"/><text fill="#000000" font-family="sans-serif" font-size="14" lengthAdjust="spacing" textLength="125" x="38" y="534.0801">isHeader(): boolean</text><ellipse cx="29" cy="547.4609" fill="#84BE84" rx="3" ry="3" style="stroke:#038048;stroke-width:1.0;"/><text fill="#000000" font-family="sans-serif" font-size="14" lengthAdjust="spacing" textLength="160" x="38" y="551.6895">setHeader(boolean): void</text></g></a><!--MD5=[e944991df305b2b39fced1f10e4c4f6f]
class miml.report.IReport--><a href="IReport.html" target="_top" title="IReport.html" xlink:actuate="onRequest" xlink:href="IReport.html" xlink:show="new" xlink:title="IReport.html" xlink:type="simple"><g id="elem_miml.report.IReport"><rect codeLine="27" fill="#F1F1F1" height="101.0156" id="miml.report.IReport" rx="2.5" ry="2.5" style="stroke:#181818;stroke-width:0.5;" width="193" x="7" y="7"/><ellipse cx="74.25" cy="27.0938" fill="#B4A7E5" rx="11" ry="11" style="stroke:#181818;stroke-width:1.0;"/><path d="M75.2031,23.7344 L75.2031,30.3906 L76.9219,30.3906 Q77.5313,30.3906 77.7969,30.625 Q78.0625,30.8594 78.0625,31.25 Q78.0625,31.625 77.7969,31.8594 Q77.5313,32.0938 76.9219,32.0938 L71.7813,32.0938 Q71.1719,32.0938 70.9063,31.8594 Q70.6406,31.625 70.6406,31.2344 Q70.6406,30.8594 70.9063,30.625 Q71.1719,30.3906 71.7813,30.3906 L73.5,30.3906 L73.5,23.7344 L71.7813,23.7344 Q71.1719,23.7344 70.9063,23.5 Q70.6406,23.2656 70.6406,22.875 Q70.6406,22.5 70.9063,22.2656 Q71.1719,22.0313 71.7813,22.0313 L76.9219,22.0313 Q77.5313,22.0313 77.7969,22.2656 Q78.0625,22.5 78.0625,22.875 Q78.0625,23.2656 77.7969,23.5 Q77.5313,23.7344 76.9219,23.7344 L75.2031,23.7344 Z " fill="#000000"/><text fill="#000000" font-family="sans-serif" font-size="14" font-style="italic" lengthAdjust="spacing" textLength="47" x="96.25" y="26.5332">IReport</text><text fill="#000000" font-family="sans-serif" font-size="10" font-style="italic" lengthAdjust="spacing" textLength="50" x="94.75" y="39.9902">miml.report</text><line style="stroke:#181818;stroke-width:0.5;" x1="8" x2="199" y1="47.1875" y2="47.1875"/><ellipse cx="18" cy="61.4922" fill="#84BE84" rx="3" ry="3" style="stroke:#038048;stroke-width:1.0;"/><text fill="#000000" font-family="sans-serif" font-size="14" font-style="italic" lengthAdjust="spacing" textLength="158" x="27" y="65.7207">toCSV(IEvaluator): String</text><ellipse cx="18" cy="79.1016" fill="#84BE84" rx="3" ry="3" style="stroke:#038048;stroke-width:1.0;"/><text fill="#000000" font-family="sans-serif" font-size="14" font-style="italic" lengthAdjust="spacing" textLength="167" x="27" y="83.3301">toString(IEvaluator): String</text><ellipse cx="18" cy="96.7109" fill="#84BE84" rx="3" ry="3" style="stroke:#038048;stroke-width:1.0;"/><text fill="#000000" font-family="sans-serif" font-size="14" font-style="italic" lengthAdjust="spacing" textLength="152" x="27" y="100.9395">saveReport(String): void</text></g></a><!--MD5=[f8ce60393c12cadc7241b943fc2ced33]
class miml.core.IConfiguration--><a href="..\core\IConfiguration.html" target="_top" title="..\core\IConfiguration.html" xlink:actuate="onRequest" xlink:href="..\core\IConfiguration.html" xlink:show="new" xlink:title="..\core\IConfiguration.html" xlink:type="simple"><g id="elem_miml.core.IConfiguration"><rect codeLine="32" fill="#F1F1F1" height="65.7969" id="miml.core.IConfiguration" rx="2.5" ry="2.5" style="stroke:#181818;stroke-width:0.5;" width="213" x="235" y="24.5"/><ellipse cx="292.75" cy="44.5938" fill="#B4A7E5" rx="11" ry="11" style="stroke:#181818;stroke-width:1.0;"/><path d="M293.7031,41.2344 L293.7031,47.8906 L295.4219,47.8906 Q296.0313,47.8906 296.2969,48.125 Q296.5625,48.3594 296.5625,48.75 Q296.5625,49.125 296.2969,49.3594 Q296.0313,49.5938 295.4219,49.5938 L290.2813,49.5938 Q289.6719,49.5938 289.4063,49.3594 Q289.1406,49.125 289.1406,48.7344 Q289.1406,48.3594 289.4063,48.125 Q289.6719,47.8906 290.2813,47.8906 L292,47.8906 L292,41.2344 L290.2813,41.2344 Q289.6719,41.2344 289.4063,41 Q289.1406,40.7656 289.1406,40.375 Q289.1406,40 289.4063,39.7656 Q289.6719,39.5313 290.2813,39.5313 L295.4219,39.5313 Q296.0313,39.5313 296.2969,39.7656 Q296.5625,40 296.5625,40.375 Q296.5625,40.7656 296.2969,41 Q296.0313,41.2344 295.4219,41.2344 L293.7031,41.2344 Z " fill="#000000"/><text fill="#000000" font-family="sans-serif" font-size="14" font-style="italic" lengthAdjust="spacing" textLength="89" x="313.25" y="44.0332">IConfiguration</text><text fill="#000000" font-family="sans-serif" font-size="10" font-style="italic" lengthAdjust="spacing" textLength="43" x="336.25" y="57.4902">miml.core</text><line style="stroke:#181818;stroke-width:0.5;" x1="236" x2="447" y1="64.6875" y2="64.6875"/><ellipse cx="246" cy="78.9922" fill="#84BE84" rx="3" ry="3" style="stroke:#038048;stroke-width:1.0;"/><text fill="#000000" font-family="sans-serif" font-size="14" font-style="italic" lengthAdjust="spacing" textLength="187" x="255" y="83.2207">configure(Configuration): void</text></g></a><!--MD5=[ab705140c687fd4f8464bbffca78c97f]
reverse link miml.report.IReport to miml.report.MIMLReport--><g id="link_miml.report.IReport_miml.report.MIMLReport"><path codeLine="36" d="M130.31,126.99 C135.29,139.7 140.71,153.55 146.34,167.95 " fill="none" id="miml.report.IReport-backto-miml.report.MIMLReport" style="stroke:#181818;stroke-width:1.0;stroke-dasharray:7.0,7.0;"/><polygon fill="none" points="123.66,129.2,122.88,108.02,136.69,124.09,123.66,129.2" style="stroke:#181818;stroke-width:1.0;"/></g><!--MD5=[8aa090f756c7fdf38dd527746c582450]
reverse link miml.core.IConfiguration to miml.report.MIMLReport--><g id="link_miml.core.IConfiguration_miml.report.MIMLReport"><path codeLine="37" d="M321.53,109.51 C314.87,126.52 307.01,146.62 298.67,167.92 " fill="none" id="miml.core.IConfiguration-backto-miml.report.MIMLReport" style="stroke:#181818;stroke-width:1.0;stroke-dasharray:7.0,7.0;"/><polygon fill="none" points="315.07,106.82,328.88,90.75,328.11,111.92,315.07,106.82" style="stroke:#181818;stroke-width:1.0;"/></g><rect fill="none" height="12.5781" style="stroke:none;stroke-width:1.0;" width="190" x="125.5" y="564.7656"/><text fill="#888888" font-family="sans-serif" font-size="10" lengthAdjust="spacing" textLength="190" x="125.5" y="575.1465">UMLDoclet 2.0.20, PlantUML 1.2022.12</text><!--MD5=[4ff46acaef6291734bd72e9f4b22f8ee]
@startuml
    set namespaceSeparator none
    hide empty fields
    hide empty methods

    abstract class "<size:14>MIMLReport\n<size:10>miml.report" as miml.report.MIMLReport [[MIMLReport.html]] {
        #measures: List<String>
        #filename: String
        #std: boolean
        #labels: boolean
        #header: boolean
        +MIMLReport(List<String>, String, boolean, boolean, boolean)
        +MIMLReport()
        #filterMeasures(List<Measure>): List<Measure>
        +saveReport(String): void
        +getMeasures(): List<String>
        +setMeasures(List<String>): void
        +getFilename(): String
        +setFilename(String): void
        +isStd(): boolean
        +setStd(boolean): void
        +isLabels(): boolean
        +setLabels(boolean): void
        +isHeader(): boolean
        +setHeader(boolean): void
    }

    interface "<size:14>IReport\n<size:10>miml.report" as miml.report.IReport [[IReport.html]] {
        {abstract} +toCSV(IEvaluator): String
        {abstract} +toString(IEvaluator): String
        {abstract} +saveReport(String): void
    }
    interface "<size:14>IConfiguration\n<size:10>miml.core" as miml.core.IConfiguration [[..\core\IConfiguration.html]] {
        {abstract} +configure(Configuration): void
    }

    miml.report.IReport <|.. miml.report.MIMLReport
    miml.core.IConfiguration <|.. miml.report.MIMLReport

    center footer UMLDoclet 2.0.20, PlantUML 1.2022.12
@enduml

PlantUML version 1.2022.12(Sun Oct 23 20:12:26 CEST 2022)
(APACHE source distribution)
Java Runtime: OpenJDK Runtime Environment
JVM: OpenJDK 64-Bit Server VM
Default Encoding: Cp1252
Language: es
Country: ES
--></g></svg>