<?xml version="1.0" encoding="UTF-8" standalone="no"?><svg xmlns="http://www.w3.org/2000/svg" xmlns:xlink="http://www.w3.org/1999/xlink" contentStyleType="text/css" height="894px" preserveAspectRatio="none" style="width:757px;height:894px;background:#FFFFFF;" version="1.1" viewBox="0 0 757 894" width="757px" zoomAndPan="magnify"><defs/><g><!--MD5=[53bae0d6de36663ea0b1ba1db19b1094]
cluster miml.report--><g id="cluster_miml.report"><path d="M8.5,6 L89.5,6 A3.75,3.75 0 0 1 92,8.5 L99,29.6094 L477.5,29.6094 A2.5,2.5 0 0 1 480,32.1094 L480,865.5 A2.5,2.5 0 0 1 477.5,868 L8.5,868 A2.5,2.5 0 0 1 6,865.5 L6,8.5 A2.5,2.5 0 0 1 8.5,6 " fill="none" style="stroke:#000000;stroke-width:1.5;"/><line style="stroke:#000000;stroke-width:1.5;" x1="6" x2="99" y1="29.6094" y2="29.6094"/><text fill="#000000" font-family="sans-serif" font-size="14" font-weight="bold" lengthAdjust="spacing" textLength="80" x="10" y="22.5332">miml.report</text></g><!--MD5=[d8ba4a12014331649d294a6c1a3efdcd]
cluster miml.core--><g id="cluster_miml.core"><path d="M506.5,23.5 L575.5,23.5 A3.75,3.75 0 0 1 578,26 L585,47.1094 L747.5,47.1094 A2.5,2.5 0 0 1 750,49.6094 L750,139 A2.5,2.5 0 0 1 747.5,141.5 L506.5,141.5 A2.5,2.5 0 0 1 504,139 L504,26 A2.5,2.5 0 0 1 506.5,23.5 " fill="none" style="stroke:#000000;stroke-width:1.5;"/><line style="stroke:#000000;stroke-width:1.5;" x1="504" x2="585" y1="47.1094" y2="47.1094"/><text fill="#000000" font-family="sans-serif" font-size="14" font-weight="bold" lengthAdjust="spacing" textLength="68" x="508" y="40.0332">miml.core</text></g><!--MD5=[deee93e67dfb260cf222c3ae5910a049]
class miml.report.BaseMIMLReport--><a href="BaseMIMLReport.html" target="_top" title="BaseMIMLReport.html" xlink:actuate="onRequest" xlink:href="BaseMIMLReport.html" xlink:show="new" xlink:title="BaseMIMLReport.html" xlink:type="simple"><g id="elem_miml.report.BaseMIMLReport"><rect codeLine="3" fill="#F1F1F1" height="206.4844" id="miml.report.BaseMIMLReport" rx="2.5" ry="2.5" style="stroke:#181818;stroke-width:0.5;" width="441" x="22.5" y="646"/><ellipse cx="184.75" cy="662" fill="#ADD1B2" rx="11" ry="11" style="stroke:#181818;stroke-width:1.0;"/><path d="M187.5156,657.875 Q187.6719,657.6563 187.8594,657.5469 Q188.0469,657.4375 188.2656,657.4375 Q188.6406,657.4375 188.875,657.7031 Q189.1094,657.9531 189.1094,658.5625 L189.1094,660.0156 Q189.1094,660.625 188.875,660.8906 Q188.6406,661.1563 188.2656,661.1563 Q187.9219,661.1563 187.7188,660.9531 Q187.5156,660.7656 187.4063,660.25 Q187.3594,659.8906 187.1719,659.7031 Q186.8438,659.3281 186.2344,659.1094 Q185.625,658.8906 185,658.8906 Q184.2344,658.8906 183.5938,659.2188 Q182.9688,659.5469 182.4688,660.2969 Q181.9844,661.0469 181.9844,662.0781 L181.9844,663.1719 Q181.9844,664.4063 182.875,665.2344 Q183.7656,666.0469 185.3594,666.0469 Q186.2969,666.0469 186.9531,665.7969 Q187.3438,665.6406 187.7656,665.2031 Q188.0313,664.9375 188.1719,664.8594 Q188.3281,664.7813 188.5313,664.7813 Q188.8594,664.7813 189.1094,665.0469 Q189.375,665.2969 189.375,665.6406 Q189.375,665.9844 189.0313,666.3906 Q188.5313,666.9688 187.7344,667.2969 Q186.6563,667.75 185.3594,667.75 Q183.8438,667.75 182.6406,667.125 Q181.6563,666.625 180.9688,665.5625 Q180.2813,664.4844 180.2813,663.2031 L180.2813,662.0469 Q180.2813,660.7188 180.8906,659.5781 Q181.5156,658.4219 182.6094,657.8125 Q183.7031,657.1875 184.9375,657.1875 Q185.6719,657.1875 186.3125,657.3594 Q186.9688,657.5156 187.5156,657.875 Z " fill="#000000"/><text fill="#000000" font-family="sans-serif" font-size="14" lengthAdjust="spacing" textLength="108" x="205.25" y="667.7285">BaseMIMLReport</text><line style="stroke:#181818;stroke-width:0.5;" x1="23.5" x2="462.5" y1="678" y2="678"/><line style="stroke:#181818;stroke-width:0.5;" x1="23.5" x2="462.5" y1="686" y2="686"/><ellipse cx="33.5" cy="700.3047" fill="#84BE84" rx="3" ry="3" style="stroke:#038048;stroke-width:1.0;"/><text fill="#000000" font-family="sans-serif" font-size="14" lengthAdjust="spacing" textLength="415" x="42.5" y="704.5332">BaseMIMLReport(List&lt;String&gt;, String, boolean, boolean, boolean)</text><ellipse cx="33.5" cy="717.9141" fill="#84BE84" rx="3" ry="3" style="stroke:#038048;stroke-width:1.0;"/><text fill="#000000" font-family="sans-serif" font-size="14" lengthAdjust="spacing" textLength="118" x="42.5" y="722.1426">BaseMIMLReport()</text><polygon fill="#FFFF44" points="33.5,730.5234,37.5,734.5234,33.5,738.5234,29.5,734.5234" style="stroke:#B38D22;stroke-width:1.0;"/><text fill="#000000" font-family="sans-serif" font-size="14" lengthAdjust="spacing" textLength="275" x="42.5" y="739.752">crossValidationToCSV(EvaluatorCV): String</text><polygon fill="#FFFF44" points="33.5,748.1328,37.5,752.1328,33.5,756.1328,29.5,752.1328" style="stroke:#B38D22;stroke-width:1.0;"/><text fill="#000000" font-family="sans-serif" font-size="14" lengthAdjust="spacing" textLength="255" x="42.5" y="757.3613">holdoutToCSV(EvaluatorHoldout): String</text><polygon fill="#FFFF44" points="33.5,765.7422,37.5,769.7422,33.5,773.7422,29.5,769.7422" style="stroke:#B38D22;stroke-width:1.0;"/><text fill="#000000" font-family="sans-serif" font-size="14" lengthAdjust="spacing" textLength="284" x="42.5" y="774.9707">crossValidationToString(EvaluatorCV): String</text><polygon fill="#FFFF44" points="33.5,783.3516,37.5,787.3516,33.5,791.3516,29.5,787.3516" style="stroke:#B38D22;stroke-width:1.0;"/><text fill="#000000" font-family="sans-serif" font-size="14" lengthAdjust="spacing" textLength="264" x="42.5" y="792.5801">holdoutToString(EvaluatorHoldout): String</text><ellipse cx="33.5" cy="805.9609" fill="#84BE84" rx="3" ry="3" style="stroke:#038048;stroke-width:1.0;"/><text fill="#000000" font-family="sans-serif" font-size="14" lengthAdjust="spacing" textLength="158" x="42.5" y="810.1895">toCSV(IEvaluator): String</text><ellipse cx="33.5" cy="823.5703" fill="#84BE84" rx="3" ry="3" style="stroke:#038048;stroke-width:1.0;"/><text fill="#000000" font-family="sans-serif" font-size="14" lengthAdjust="spacing" textLength="167" x="42.5" y="827.7988">toString(IEvaluator): String</text><ellipse cx="33.5" cy="841.1797" fill="#84BE84" rx="3" ry="3" style="stroke:#038048;stroke-width:1.0;"/><text fill="#000000" font-family="sans-serif" font-size="14" lengthAdjust="spacing" textLength="188" x="42.5" y="845.4082">configure(Configuration): void</text></g></a><!--MD5=[e944991df305b2b39fced1f10e4c4f6f]
class miml.report.IReport--><a href="IReport.html" target="_top" title="IReport.html" xlink:actuate="onRequest" xlink:href="IReport.html" xlink:show="new" xlink:title="IReport.html" xlink:type="simple"><g id="elem_miml.report.IReport"><rect codeLine="15" fill="#F1F1F1" height="100.8281" id="miml.report.IReport" rx="2.5" ry="2.5" style="stroke:#181818;stroke-width:0.5;" width="193" x="154.5" y="42"/><ellipse cx="223.25" cy="58" fill="#B4A7E5" rx="11" ry="11" style="stroke:#181818;stroke-width:1.0;"/><path d="M224.2031,54.6406 L224.2031,61.2969 L225.9219,61.2969 Q226.5313,61.2969 226.7969,61.5313 Q227.0625,61.7656 227.0625,62.1563 Q227.0625,62.5313 226.7969,62.7656 Q226.5313,63 225.9219,63 L220.7813,63 Q220.1719,63 219.9063,62.7656 Q219.6406,62.5313 219.6406,62.1406 Q219.6406,61.7656 219.9063,61.5313 Q220.1719,61.2969 220.7813,61.2969 L222.5,61.2969 L222.5,54.6406 L220.7813,54.6406 Q220.1719,54.6406 219.9063,54.4063 Q219.6406,54.1719 219.6406,53.7813 Q219.6406,53.4063 219.9063,53.1719 Q220.1719,52.9375 220.7813,52.9375 L225.9219,52.9375 Q226.5313,52.9375 226.7969,53.1719 Q227.0625,53.4063 227.0625,53.7813 Q227.0625,54.1719 226.7969,54.4063 Q226.5313,54.6406 225.9219,54.6406 L224.2031,54.6406 Z " fill="#000000"/><text fill="#000000" font-family="sans-serif" font-size="14" font-style="italic" lengthAdjust="spacing" textLength="47" x="243.75" y="63.7285">IReport</text><line style="stroke:#181818;stroke-width:0.5;" x1="155.5" x2="346.5" y1="74" y2="74"/><line style="stroke:#181818;stroke-width:0.5;" x1="155.5" x2="346.5" y1="82" y2="82"/><ellipse cx="165.5" cy="96.3047" fill="#84BE84" rx="3" ry="3" style="stroke:#038048;stroke-width:1.0;"/><text fill="#000000" font-family="sans-serif" font-size="14" font-style="italic" lengthAdjust="spacing" textLength="158" x="174.5" y="100.5332">toCSV(IEvaluator): String</text><ellipse cx="165.5" cy="113.9141" fill="#84BE84" rx="3" ry="3" style="stroke:#038048;stroke-width:1.0;"/><text fill="#000000" font-family="sans-serif" font-size="14" font-style="italic" lengthAdjust="spacing" textLength="167" x="174.5" y="118.1426">toString(IEvaluator): String</text><ellipse cx="165.5" cy="131.5234" fill="#84BE84" rx="3" ry="3" style="stroke:#038048;stroke-width:1.0;"/><text fill="#000000" font-family="sans-serif" font-size="14" font-style="italic" lengthAdjust="spacing" textLength="152" x="174.5" y="135.752">saveReport(String): void</text></g></a><!--MD5=[0edc8448e7321d9d7541fe5752d86ea1]
class miml.report.MIMLReport--><a href="MIMLReport.html" target="_top" title="MIMLReport.html" xlink:actuate="onRequest" xlink:href="MIMLReport.html" xlink:show="new" xlink:title="MIMLReport.html" xlink:type="simple"><g id="elem_miml.report.MIMLReport"><rect codeLine="21" fill="#F1F1F1" height="382.5781" id="miml.report.MIMLReport" rx="2.5" ry="2.5" style="stroke:#181818;stroke-width:0.5;" width="409" x="46.5" y="203"/><ellipse cx="207.25" cy="219" fill="#A9DCDF" rx="11" ry="11" style="stroke:#181818;stroke-width:1.0;"/><path d="M209.4375,220.7656 L205.2969,220.7656 L204.875,221.7969 L205.2969,221.7969 Q205.9063,221.7969 206.1719,222.0313 Q206.4375,222.2656 206.4375,222.6563 Q206.4375,223.0313 206.1719,223.2656 Q205.9063,223.5 205.2969,223.5 L203,223.5 Q202.3906,223.5 202.1406,223.2656 Q201.875,223.0313 201.875,222.6406 Q201.875,222.2656 202.1563,222.0313 Q202.4219,221.7813 203.0469,221.7969 L205.7188,215.1406 L204.6094,215.1406 Q204,215.1406 203.7344,214.9063 Q203.4688,214.6719 203.4688,214.2813 Q203.4688,213.9063 203.7344,213.6719 Q204,213.4375 204.6094,213.4375 L208.2813,213.4375 L211.6719,221.7969 Q212.2656,221.7969 212.4531,221.9375 Q212.8438,222.2031 212.8438,222.6563 Q212.8438,223.0313 212.5781,223.2656 Q212.3281,223.5 211.7188,223.5 L209.4219,223.5 Q208.8125,223.5 208.5469,223.2656 Q208.2813,223.0313 208.2813,222.6406 Q208.2813,222.2656 208.5469,222.0313 Q208.8125,221.7969 209.4219,221.7969 L209.8438,221.7969 L209.4375,220.7656 Z M208.7188,219.0625 L207.3594,215.6875 L205.9844,219.0625 L208.7188,219.0625 Z " fill="#000000"/><text fill="#000000" font-family="sans-serif" font-size="14" font-style="italic" lengthAdjust="spacing" textLength="79" x="227.75" y="224.7285">MIMLReport</text><line style="stroke:#181818;stroke-width:0.5;" x1="47.5" x2="454.5" y1="235" y2="235"/><polygon fill="none" points="57.5,244.3047,61.5,248.3047,57.5,252.3047,53.5,248.3047" style="stroke:#B38D22;stroke-width:1.0;"/><text fill="#000000" font-family="sans-serif" font-size="14" lengthAdjust="spacing" textLength="145" x="66.5" y="253.5332">measures: List&lt;String&gt;</text><polygon fill="none" points="57.5,261.9141,61.5,265.9141,57.5,269.9141,53.5,265.9141" style="stroke:#B38D22;stroke-width:1.0;"/><text fill="#000000" font-family="sans-serif" font-size="14" lengthAdjust="spacing" textLength="98" x="66.5" y="271.1426">filename: String</text><polygon fill="none" points="57.5,279.5234,61.5,283.5234,57.5,287.5234,53.5,283.5234" style="stroke:#B38D22;stroke-width:1.0;"/><text fill="#000000" font-family="sans-serif" font-size="14" lengthAdjust="spacing" textLength="78" x="66.5" y="288.752">std: boolean</text><polygon fill="none" points="57.5,297.1328,61.5,301.1328,57.5,305.1328,53.5,301.1328" style="stroke:#B38D22;stroke-width:1.0;"/><text fill="#000000" font-family="sans-serif" font-size="14" lengthAdjust="spacing" textLength="96" x="66.5" y="306.3613">labels: boolean</text><polygon fill="none" points="57.5,314.7422,61.5,318.7422,57.5,322.7422,53.5,318.7422" style="stroke:#B38D22;stroke-width:1.0;"/><text fill="#000000" font-family="sans-serif" font-size="14" lengthAdjust="spacing" textLength="104" x="66.5" y="323.9707">header: boolean</text><line style="stroke:#181818;stroke-width:0.5;" x1="47.5" x2="454.5" y1="331.0469" y2="331.0469"/><ellipse cx="57.5" cy="345.3516" fill="#84BE84" rx="3" ry="3" style="stroke:#038048;stroke-width:1.0;"/><text fill="#000000" font-family="sans-serif" font-size="14" lengthAdjust="spacing" textLength="383" x="66.5" y="349.5801">MIMLReport(List&lt;String&gt;, String, boolean, boolean, boolean)</text><ellipse cx="57.5" cy="362.9609" fill="#84BE84" rx="3" ry="3" style="stroke:#038048;stroke-width:1.0;"/><text fill="#000000" font-family="sans-serif" font-size="14" lengthAdjust="spacing" textLength="86" x="66.5" y="367.1895">MIMLReport()</text><polygon fill="#FFFF44" points="57.5,375.5703,61.5,379.5703,57.5,383.5703,53.5,379.5703" style="stroke:#B38D22;stroke-width:1.0;"/><text fill="#000000" font-family="sans-serif" font-size="14" lengthAdjust="spacing" textLength="293" x="66.5" y="384.7988">filterMeasures(List&lt;Measure&gt;): List&lt;Measure&gt;</text><ellipse cx="57.5" cy="398.1797" fill="#84BE84" rx="3" ry="3" style="stroke:#038048;stroke-width:1.0;"/><text fill="#000000" font-family="sans-serif" font-size="14" lengthAdjust="spacing" textLength="154" x="66.5" y="402.4082">saveReport(String): void</text><ellipse cx="57.5" cy="415.7891" fill="#84BE84" rx="3" ry="3" style="stroke:#038048;stroke-width:1.0;"/><text fill="#000000" font-family="sans-serif" font-size="14" lengthAdjust="spacing" textLength="175" x="66.5" y="420.0176">getMeasures(): List&lt;String&gt;</text><ellipse cx="57.5" cy="433.3984" fill="#84BE84" rx="3" ry="3" style="stroke:#038048;stroke-width:1.0;"/><text fill="#000000" font-family="sans-serif" font-size="14" lengthAdjust="spacing" textLength="200" x="66.5" y="437.627">setMeasures(List&lt;String&gt;): void</text><ellipse cx="57.5" cy="451.0078" fill="#84BE84" rx="3" ry="3" style="stroke:#038048;stroke-width:1.0;"/><text fill="#000000" font-family="sans-serif" font-size="14" lengthAdjust="spacing" textLength="133" x="66.5" y="455.2363">getFilename(): String</text><ellipse cx="57.5" cy="468.6172" fill="#84BE84" rx="3" ry="3" style="stroke:#038048;stroke-width:1.0;"/><text fill="#000000" font-family="sans-serif" font-size="14" lengthAdjust="spacing" textLength="158" x="66.5" y="472.8457">setFilename(String): void</text><ellipse cx="57.5" cy="486.2266" fill="#84BE84" rx="3" ry="3" style="stroke:#038048;stroke-width:1.0;"/><text fill="#000000" font-family="sans-serif" font-size="14" lengthAdjust="spacing" textLength="100" x="66.5" y="490.4551">isStd(): boolean</text><ellipse cx="57.5" cy="503.8359" fill="#84BE84" rx="3" ry="3" style="stroke:#038048;stroke-width:1.0;"/><text fill="#000000" font-family="sans-serif" font-size="14" lengthAdjust="spacing" textLength="135" x="66.5" y="508.0645">setStd(boolean): void</text><ellipse cx="57.5" cy="521.4453" fill="#84BE84" rx="3" ry="3" style="stroke:#038048;stroke-width:1.0;"/><text fill="#000000" font-family="sans-serif" font-size="14" lengthAdjust="spacing" textLength="121" x="66.5" y="525.6738">isLabels(): boolean</text><ellipse cx="57.5" cy="539.0547" fill="#84BE84" rx="3" ry="3" style="stroke:#038048;stroke-width:1.0;"/><text fill="#000000" font-family="sans-serif" font-size="14" lengthAdjust="spacing" textLength="156" x="66.5" y="543.2832">setLabels(boolean): void</text><ellipse cx="57.5" cy="556.6641" fill="#84BE84" rx="3" ry="3" style="stroke:#038048;stroke-width:1.0;"/><text fill="#000000" font-family="sans-serif" font-size="14" lengthAdjust="spacing" textLength="125" x="66.5" y="560.8926">isHeader(): boolean</text><ellipse cx="57.5" cy="574.2734" fill="#84BE84" rx="3" ry="3" style="stroke:#038048;stroke-width:1.0;"/><text fill="#000000" font-family="sans-serif" font-size="14" lengthAdjust="spacing" textLength="160" x="66.5" y="578.502">setHeader(boolean): void</text></g></a><!--MD5=[f8ce60393c12cadc7241b943fc2ced33]
class miml.core.IConfiguration--><a href="..\core\IConfiguration.html" target="_top" title="..\core\IConfiguration.html" xlink:actuate="onRequest" xlink:href="..\core\IConfiguration.html" xlink:show="new" xlink:title="..\core\IConfiguration.html" xlink:type="simple"><g id="elem_miml.core.IConfiguration"><rect codeLine="49" fill="#F1F1F1" height="65.6094" id="miml.core.IConfiguration" rx="2.5" ry="2.5" style="stroke:#181818;stroke-width:0.5;" width="213" x="520.5" y="59.5"/><ellipse cx="578.25" cy="75.5" fill="#B4A7E5" rx="11" ry="11" style="stroke:#181818;stroke-width:1.0;"/><path d="M579.2031,72.1406 L579.2031,78.7969 L580.9219,78.7969 Q581.5313,78.7969 581.7969,79.0313 Q582.0625,79.2656 582.0625,79.6563 Q582.0625,80.0313 581.7969,80.2656 Q581.5313,80.5 580.9219,80.5 L575.7813,80.5 Q575.1719,80.5 574.9063,80.2656 Q574.6406,80.0313 574.6406,79.6406 Q574.6406,79.2656 574.9063,79.0313 Q575.1719,78.7969 575.7813,78.7969 L577.5,78.7969 L577.5,72.1406 L575.7813,72.1406 Q575.1719,72.1406 574.9063,71.9063 Q574.6406,71.6719 574.6406,71.2813 Q574.6406,70.9063 574.9063,70.6719 Q575.1719,70.4375 575.7813,70.4375 L580.9219,70.4375 Q581.5313,70.4375 581.7969,70.6719 Q582.0625,70.9063 582.0625,71.2813 Q582.0625,71.6719 581.7969,71.9063 Q581.5313,72.1406 580.9219,72.1406 L579.2031,72.1406 Z " fill="#000000"/><text fill="#000000" font-family="sans-serif" font-size="14" font-style="italic" lengthAdjust="spacing" textLength="89" x="598.75" y="81.2285">IConfiguration</text><line style="stroke:#181818;stroke-width:0.5;" x1="521.5" x2="732.5" y1="91.5" y2="91.5"/><line style="stroke:#181818;stroke-width:0.5;" x1="521.5" x2="732.5" y1="99.5" y2="99.5"/><ellipse cx="531.5" cy="113.8047" fill="#84BE84" rx="3" ry="3" style="stroke:#038048;stroke-width:1.0;"/><text fill="#000000" font-family="sans-serif" font-size="14" font-style="italic" lengthAdjust="spacing" textLength="187" x="540.5" y="118.0332">configure(Configuration): void</text></g></a><!--MD5=[fafd4a7e73a9c770ecd3157afe5a99ac]
reverse link miml.report.MIMLReport to miml.report.BaseMIMLReport--><g id="link_miml.report.MIMLReport_miml.report.BaseMIMLReport"><path codeLine="43" d="M246.22,606.19 C245.91,619.73 245.61,632.98 245.32,645.62 " fill="none" id="miml.report.MIMLReport-backto-miml.report.BaseMIMLReport" style="stroke:#181818;stroke-width:1.0;"/><polygon fill="none" points="239.22,606.03,246.67,586.19,253.22,606.35,239.22,606.03" style="stroke:#181818;stroke-width:1.0;"/></g><!--MD5=[ab705140c687fd4f8464bbffca78c97f]
reverse link miml.report.IReport to miml.report.MIMLReport--><g id="link_miml.report.IReport_miml.report.MIMLReport"><path codeLine="44" d="M251,163.34 C251,175.65 251,188.98 251,202.81 " fill="none" id="miml.report.IReport-backto-miml.report.MIMLReport" style="stroke:#181818;stroke-width:1.0;stroke-dasharray:7.0,7.0;"/><polygon fill="none" points="244,163.04,251,143.04,258,163.04,244,163.04" style="stroke:#181818;stroke-width:1.0;"/></g><!--MD5=[8aa090f756c7fdf38dd527746c582450]
reverse link miml.core.IConfiguration to miml.report.MIMLReport--><g id="link_miml.core.IConfiguration_miml.report.MIMLReport"><path codeLine="45" d="M570.86,138.3 C539.49,163.32 498.26,196.22 455.87,230.04 " fill="none" id="miml.core.IConfiguration-backto-miml.report.MIMLReport" style="stroke:#181818;stroke-width:1.0;stroke-dasharray:7.0,7.0;"/><polygon fill="none" points="566.76,132.61,586.76,125.61,575.49,143.55,566.76,132.61" style="stroke:#181818;stroke-width:1.0;"/></g><rect fill="none" height="12.5781" style="stroke:none;stroke-width:1.0;" width="190" x="276.5" y="874"/><text fill="#888888" font-family="sans-serif" font-size="10" lengthAdjust="spacing" textLength="190" x="276.5" y="884.3809">UMLDoclet 2.0.20, PlantUML 1.2022.12</text><!--MD5=[9c92125192dd87016fb228a91581c1b4]
@startuml
    namespace miml.report {

        class BaseMIMLReport [[BaseMIMLReport.html]] {
            +BaseMIMLReport(List<String>, String, boolean, boolean, boolean)
            +BaseMIMLReport()
            #crossValidationToCSV(EvaluatorCV): String
            #holdoutToCSV(EvaluatorHoldout): String
            #crossValidationToString(EvaluatorCV): String
            #holdoutToString(EvaluatorHoldout): String
            +toCSV(IEvaluator): String
            +toString(IEvaluator): String
            +configure(Configuration): void
        }

        interface IReport [[IReport.html]] {
            {abstract} +toCSV(IEvaluator): String
            {abstract} +toString(IEvaluator): String
            {abstract} +saveReport(String): void
        }

        abstract class MIMLReport [[MIMLReport.html]] {
            #measures: List<String>
            #filename: String
            #std: boolean
            #labels: boolean
            #header: boolean
            +MIMLReport(List<String>, String, boolean, boolean, boolean)
            +MIMLReport()
            #filterMeasures(List<Measure>): List<Measure>
            +saveReport(String): void
            +getMeasures(): List<String>
            +setMeasures(List<String>): void
            +getFilename(): String
            +setFilename(String): void
            +isStd(): boolean
            +setStd(boolean): void
            +isLabels(): boolean
            +setLabels(boolean): void
            +isHeader(): boolean
            +setHeader(boolean): void
        }

        MIMLReport <|- - BaseMIMLReport
        IReport <|.. MIMLReport
        miml.core.IConfiguration <|.. MIMLReport
    }

    namespace miml.core {
        interface IConfiguration [[..\core\IConfiguration.html]] {
            {abstract} +configure(Configuration): void
        }
    }

    center footer UMLDoclet 2.0.20, PlantUML 1.2022.12
@enduml

PlantUML version 1.2022.12(Sun Oct 23 20:12:26 CEST 2022)
(APACHE source distribution)
Java Runtime: OpenJDK Runtime Environment
JVM: OpenJDK 64-Bit Server VM
Default Encoding: Cp1252
Language: es
Country: ES
--></g></svg>