<?xml version="1.0" encoding="UTF-8" standalone="no"?><svg xmlns="http://www.w3.org/2000/svg" xmlns:xlink="http://www.w3.org/1999/xlink" contentStyleType="text/css" height="348px" preserveAspectRatio="none" style="width:359px;height:348px;background:#FFFFFF;" version="1.1" viewBox="0 0 359 348" width="359px" zoomAndPan="magnify"><defs/><g><!--MD5=[f4fed0da1b7d929a17458f427806d2d9]
class miml.transformation.mimlTOmi.BRTransformation--><a href="BRTransformation.html" target="_top" title="BRTransformation.html" xlink:actuate="onRequest" xlink:href="BRTransformation.html" xlink:show="new" xlink:title="BRTransformation.html" xlink:type="simple"><g id="elem_miml.transformation.mimlTOmi.BRTransformation"><rect codeLine="5" fill="#F1F1F1" height="214.6719" id="miml.transformation.mimlTOmi.BRTransformation" rx="2.5" ry="2.5" style="stroke:#181818;stroke-width:0.5;" width="343" x="9" y="107"/><ellipse cx="102.25" cy="127.0938" fill="#ADD1B2" rx="11" ry="11" style="stroke:#181818;stroke-width:1.0;"/><path d="M105.0156,122.9688 Q105.1719,122.75 105.3594,122.6406 Q105.5469,122.5313 105.7656,122.5313 Q106.1406,122.5313 106.375,122.7969 Q106.6094,123.0469 106.6094,123.6563 L106.6094,125.1094 Q106.6094,125.7188 106.375,125.9844 Q106.1406,126.25 105.7656,126.25 Q105.4219,126.25 105.2188,126.0469 Q105.0156,125.8594 104.9063,125.3438 Q104.8594,124.9844 104.6719,124.7969 Q104.3438,124.4219 103.7344,124.2031 Q103.125,123.9844 102.5,123.9844 Q101.7344,123.9844 101.0938,124.3125 Q100.4688,124.6406 99.9688,125.3906 Q99.4844,126.1406 99.4844,127.1719 L99.4844,128.2656 Q99.4844,129.5 100.375,130.3281 Q101.2656,131.1406 102.8594,131.1406 Q103.7969,131.1406 104.4531,130.8906 Q104.8438,130.7344 105.2656,130.2969 Q105.5313,130.0313 105.6719,129.9531 Q105.8281,129.875 106.0313,129.875 Q106.3594,129.875 106.6094,130.1406 Q106.875,130.3906 106.875,130.7344 Q106.875,131.0781 106.5313,131.4844 Q106.0313,132.0625 105.2344,132.3906 Q104.1563,132.8438 102.8594,132.8438 Q101.3438,132.8438 100.1406,132.2188 Q99.1563,131.7188 98.4688,130.6563 Q97.7813,129.5781 97.7813,128.2969 L97.7813,127.1406 Q97.7813,125.8125 98.3906,124.6719 Q99.0156,123.5156 100.1094,122.9063 Q101.2031,122.2813 102.4375,122.2813 Q103.1719,122.2813 103.8125,122.4531 Q104.4688,122.6094 105.0156,122.9688 Z " fill="#000000"/><text fill="#000000" font-family="sans-serif" font-size="14" lengthAdjust="spacing" textLength="115" x="139.25" y="126.5332">BRTransformation</text><text fill="#000000" font-family="sans-serif" font-size="10" lengthAdjust="spacing" textLength="148" x="122.75" y="139.9902">miml.transformation.mimlTOmi</text><line style="stroke:#181818;stroke-width:0.5;" x1="10" x2="351" y1="147.1875" y2="147.1875"/><rect fill="none" height="6" style="stroke:#C82930;stroke-width:1.0;" width="6" x="17" y="158.4922"/><text fill="#000000" font-family="sans-serif" font-size="14" lengthAdjust="spacing" text-decoration="underline" textLength="139" x="29" y="165.7207">serialVersionUID: long</text><polygon fill="none" points="20,174.1016,24,178.1016,20,182.1016,16,178.1016" style="stroke:#B38D22;stroke-width:1.0;"/><text fill="#000000" font-family="sans-serif" font-size="14" lengthAdjust="spacing" textLength="239" x="29" y="183.3301">BRT: BinaryRelevanceTransformation</text><polygon fill="none" points="20,191.7109,24,195.7109,20,199.7109,16,195.7109" style="stroke:#B38D22;stroke-width:1.0;"/><text fill="#000000" font-family="sans-serif" font-size="14" lengthAdjust="spacing" textLength="150" x="29" y="200.9395">dataSet: MIMLInstances</text><line style="stroke:#181818;stroke-width:0.5;" x1="10" x2="351" y1="208.0156" y2="208.0156"/><ellipse cx="20" cy="222.3203" fill="#84BE84" rx="3" ry="3" style="stroke:#038048;stroke-width:1.0;"/><text fill="#000000" font-family="sans-serif" font-size="14" lengthAdjust="spacing" textLength="218" x="29" y="226.5488">BRTransformation(MIMLInstances)</text><ellipse cx="20" cy="239.9297" fill="#84BE84" rx="3" ry="3" style="stroke:#038048;stroke-width:1.0;"/><text fill="#000000" font-family="sans-serif" font-size="14" lengthAdjust="spacing" textLength="237" x="29" y="244.1582">transformBag(MIMLBag, int): Instance</text><ellipse cx="20" cy="257.5391" fill="#84BE84" rx="3" ry="3" style="stroke:#038048;stroke-width:1.0;"/><text fill="#000000" font-family="sans-serif" font-size="14" lengthAdjust="spacing" textLength="194" x="29" y="261.7676">transformBag(int, int): Instance</text><ellipse cx="20" cy="275.1484" fill="#84BE84" rx="3" ry="3" style="stroke:#038048;stroke-width:1.0;"/><text fill="#000000" font-family="sans-serif" font-size="14" lengthAdjust="spacing" text-decoration="underline" textLength="268" x="29" y="279.377">transformBag(MIMLBag, int[], int): Instance</text><ellipse cx="20" cy="292.7578" fill="#84BE84" rx="3" ry="3" style="stroke:#038048;stroke-width:1.0;"/><text fill="#000000" font-family="sans-serif" font-size="14" lengthAdjust="spacing" textLength="185" x="29" y="296.9863">transformBags(int): Instances</text><ellipse cx="20" cy="310.3672" fill="#84BE84" rx="3" ry="3" style="stroke:#038048;stroke-width:1.0;"/><text fill="#000000" font-family="sans-serif" font-size="14" lengthAdjust="spacing" text-decoration="underline" textLength="317" x="29" y="314.5957">transformBags(MIMLInstances, int[], int): Instances</text></g></a><!--MD5=[5a5af9b0547913863cbe0ddf55a9ab5e]
class java.io.Serializable--><g id="elem_java.io.Serializable"><rect codeLine="17" fill="#F1F1F1" height="40.1875" id="java.io.Serializable" rx="2.5" ry="2.5" style="stroke:#181818;stroke-width:0.5;" width="105" x="128" y="7"/><ellipse cx="143" cy="27.0938" fill="#B4A7E5" rx="11" ry="11" style="stroke:#181818;stroke-width:1.0;"/><path d="M143.9531,23.7344 L143.9531,30.3906 L145.6719,30.3906 Q146.2813,30.3906 146.5469,30.625 Q146.8125,30.8594 146.8125,31.25 Q146.8125,31.625 146.5469,31.8594 Q146.2813,32.0938 145.6719,32.0938 L140.5313,32.0938 Q139.9219,32.0938 139.6563,31.8594 Q139.3906,31.625 139.3906,31.2344 Q139.3906,30.8594 139.6563,30.625 Q139.9219,30.3906 140.5313,30.3906 L142.25,30.3906 L142.25,23.7344 L140.5313,23.7344 Q139.9219,23.7344 139.6563,23.5 Q139.3906,23.2656 139.3906,22.875 Q139.3906,22.5 139.6563,22.2656 Q139.9219,22.0313 140.5313,22.0313 L145.6719,22.0313 Q146.2813,22.0313 146.5469,22.2656 Q146.8125,22.5 146.8125,22.875 Q146.8125,23.2656 146.5469,23.5 Q146.2813,23.7344 145.6719,23.7344 L143.9531,23.7344 Z " fill="#000000"/><text fill="#000000" font-family="sans-serif" font-size="14" font-style="italic" lengthAdjust="spacing" textLength="73" x="157" y="26.5332">Serializable</text><text fill="#000000" font-family="sans-serif" font-size="10" font-style="italic" lengthAdjust="spacing" textLength="31" x="178" y="39.9902">java.io</text></g><!--MD5=[9ea6bdaf9166781bceb8b0fade46d0ea]
reverse link java.io.Serializable to miml.transformation.mimlTOmi.BRTransformation--><g id="link_java.io.Serializable_miml.transformation.mimlTOmi.BRTransformation"><path codeLine="19" d="M180.5,67.36 C180.5,79.17 180.5,92.74 180.5,106.74 " fill="none" id="java.io.Serializable-backto-miml.transformation.mimlTOmi.BRTransformation" style="stroke:#181818;stroke-width:1.0;stroke-dasharray:7.0,7.0;"/><polygon fill="none" points="173.5,67.15,180.5,47.15,187.5,67.15,173.5,67.15" style="stroke:#181818;stroke-width:1.0;"/></g><rect fill="none" height="12.5781" style="stroke:none;stroke-width:1.0;" width="190" x="77.5" y="327.6719"/><text fill="#888888" font-family="sans-serif" font-size="10" lengthAdjust="spacing" textLength="190" x="77.5" y="338.0527">UMLDoclet 2.0.20, PlantUML 1.2022.12</text><!--MD5=[58c58240e530d75e363079a9cc4ccccd]
@startuml
    set namespaceSeparator none
    hide empty fields
    hide empty methods

    class "<size:14>BRTransformation\n<size:10>miml.transformation.mimlTOmi" as miml.transformation.mimlTOmi.BRTransformation [[BRTransformation.html]] {
        {static} -serialVersionUID: long
        #BRT: BinaryRelevanceTransformation
        #dataSet: MIMLInstances
        +BRTransformation(MIMLInstances)
        +transformBag(MIMLBag, int): Instance
        +transformBag(int, int): Instance
        {static} +transformBag(MIMLBag, int[], int): Instance
        +transformBags(int): Instances
        {static} +transformBags(MIMLInstances, int[], int): Instances
    }

    interface "<size:14>Serializable\n<size:10>java.io" as java.io.Serializable

    java.io.Serializable <|.. miml.transformation.mimlTOmi.BRTransformation

    center footer UMLDoclet 2.0.20, PlantUML 1.2022.12
@enduml

PlantUML version 1.2022.12(Sun Oct 23 20:12:26 CEST 2022)
(APACHE source distribution)
Java Runtime: OpenJDK Runtime Environment
JVM: OpenJDK 64-Bit Server VM
Default Encoding: Cp1252
Language: es
Country: ES
--></g></svg>