<?xml version="1.0" encoding="UTF-8" standalone="no"?><svg xmlns="http://www.w3.org/2000/svg" xmlns:xlink="http://www.w3.org/1999/xlink" contentStyleType="text/css" height="277px" preserveAspectRatio="none" style="width:305px;height:277px;background:#FFFFFF;" version="1.1" viewBox="0 0 305 277" width="305px" zoomAndPan="magnify"><defs/><g><!--MD5=[1e9fa36722b7beea26d4d281ab10a0d8]
class miml.transformation.mimlTOmi.LPTransformation--><a href="LPTransformation.html" target="_top" title="LPTransformation.html" xlink:actuate="onRequest" xlink:href="LPTransformation.html" xlink:show="new" xlink:title="LPTransformation.html" xlink:type="simple"><g id="elem_miml.transformation.mimlTOmi.LPTransformation"><rect codeLine="5" fill="#F1F1F1" height="144.2344" id="miml.transformation.mimlTOmi.LPTransformation" rx="2.5" ry="2.5" style="stroke:#181818;stroke-width:0.5;" width="289" x="9" y="107"/><ellipse cx="75.25" cy="127.0938" fill="#ADD1B2" rx="11" ry="11" style="stroke:#181818;stroke-width:1.0;"/><path d="M78.0156,122.9688 Q78.1719,122.75 78.3594,122.6406 Q78.5469,122.5313 78.7656,122.5313 Q79.1406,122.5313 79.375,122.7969 Q79.6094,123.0469 79.6094,123.6563 L79.6094,125.1094 Q79.6094,125.7188 79.375,125.9844 Q79.1406,126.25 78.7656,126.25 Q78.4219,126.25 78.2188,126.0469 Q78.0156,125.8594 77.9063,125.3438 Q77.8594,124.9844 77.6719,124.7969 Q77.3438,124.4219 76.7344,124.2031 Q76.125,123.9844 75.5,123.9844 Q74.7344,123.9844 74.0938,124.3125 Q73.4688,124.6406 72.9688,125.3906 Q72.4844,126.1406 72.4844,127.1719 L72.4844,128.2656 Q72.4844,129.5 73.375,130.3281 Q74.2656,131.1406 75.8594,131.1406 Q76.7969,131.1406 77.4531,130.8906 Q77.8438,130.7344 78.2656,130.2969 Q78.5313,130.0313 78.6719,129.9531 Q78.8281,129.875 79.0313,129.875 Q79.3594,129.875 79.6094,130.1406 Q79.875,130.3906 79.875,130.7344 Q79.875,131.0781 79.5313,131.4844 Q79.0313,132.0625 78.2344,132.3906 Q77.1563,132.8438 75.8594,132.8438 Q74.3438,132.8438 73.1406,132.2188 Q72.1563,131.7188 71.4688,130.6563 Q70.7813,129.5781 70.7813,128.2969 L70.7813,127.1406 Q70.7813,125.8125 71.3906,124.6719 Q72.0156,123.5156 73.1094,122.9063 Q74.2031,122.2813 75.4375,122.2813 Q76.1719,122.2813 76.8125,122.4531 Q77.4688,122.6094 78.0156,122.9688 Z " fill="#000000"/><text fill="#000000" font-family="sans-serif" font-size="14" lengthAdjust="spacing" textLength="113" x="113.25" y="126.5332">LPTransformation</text><text fill="#000000" font-family="sans-serif" font-size="10" lengthAdjust="spacing" textLength="148" x="95.75" y="139.9902">miml.transformation.mimlTOmi</text><line style="stroke:#181818;stroke-width:0.5;" x1="10" x2="297" y1="147.1875" y2="147.1875"/><rect fill="none" height="6" style="stroke:#C82930;stroke-width:1.0;" width="6" x="17" y="158.4922"/><text fill="#000000" font-family="sans-serif" font-size="14" lengthAdjust="spacing" text-decoration="underline" textLength="139" x="29" y="165.7207">serialVersionUID: long</text><polygon fill="none" points="20,174.1016,24,178.1016,20,182.1016,16,178.1016" style="stroke:#B38D22;stroke-width:1.0;"/><text fill="#000000" font-family="sans-serif" font-size="14" lengthAdjust="spacing" textLength="256" x="29" y="183.3301">LPT: MIMLLabelPowersetTransformation</text><line style="stroke:#181818;stroke-width:0.5;" x1="10" x2="297" y1="190.4063" y2="190.4063"/><ellipse cx="20" cy="204.7109" fill="#84BE84" rx="3" ry="3" style="stroke:#038048;stroke-width:1.0;"/><text fill="#000000" font-family="sans-serif" font-size="14" lengthAdjust="spacing" textLength="253" x="29" y="208.9395">getLPT(): LabelPowersetTransformation</text><ellipse cx="20" cy="222.3203" fill="#84BE84" rx="3" ry="3" style="stroke:#038048;stroke-width:1.0;"/><text fill="#000000" font-family="sans-serif" font-size="14" lengthAdjust="spacing" textLength="245" x="29" y="226.5488">transformBag(MIMLBag, int[]): Instance</text><ellipse cx="20" cy="239.9297" fill="#84BE84" rx="3" ry="3" style="stroke:#038048;stroke-width:1.0;"/><text fill="#000000" font-family="sans-serif" font-size="14" lengthAdjust="spacing" textLength="263" x="29" y="244.1582">transformBags(MIMLInstances): Instances</text></g></a><!--MD5=[5a5af9b0547913863cbe0ddf55a9ab5e]
class java.io.Serializable--><g id="elem_java.io.Serializable"><rect codeLine="13" fill="#F1F1F1" height="40.1875" id="java.io.Serializable" rx="2.5" ry="2.5" style="stroke:#181818;stroke-width:0.5;" width="105" x="101" y="7"/><ellipse cx="116" cy="27.0938" fill="#B4A7E5" rx="11" ry="11" style="stroke:#181818;stroke-width:1.0;"/><path d="M116.9531,23.7344 L116.9531,30.3906 L118.6719,30.3906 Q119.2813,30.3906 119.5469,30.625 Q119.8125,30.8594 119.8125,31.25 Q119.8125,31.625 119.5469,31.8594 Q119.2813,32.0938 118.6719,32.0938 L113.5313,32.0938 Q112.9219,32.0938 112.6563,31.8594 Q112.3906,31.625 112.3906,31.2344 Q112.3906,30.8594 112.6563,30.625 Q112.9219,30.3906 113.5313,30.3906 L115.25,30.3906 L115.25,23.7344 L113.5313,23.7344 Q112.9219,23.7344 112.6563,23.5 Q112.3906,23.2656 112.3906,22.875 Q112.3906,22.5 112.6563,22.2656 Q112.9219,22.0313 113.5313,22.0313 L118.6719,22.0313 Q119.2813,22.0313 119.5469,22.2656 Q119.8125,22.5 119.8125,22.875 Q119.8125,23.2656 119.5469,23.5 Q119.2813,23.7344 118.6719,23.7344 L116.9531,23.7344 Z " fill="#000000"/><text fill="#000000" font-family="sans-serif" font-size="14" font-style="italic" lengthAdjust="spacing" textLength="73" x="130" y="26.5332">Serializable</text><text fill="#000000" font-family="sans-serif" font-size="10" font-style="italic" lengthAdjust="spacing" textLength="31" x="151" y="39.9902">java.io</text></g><!--MD5=[bf0a97c5fab383abfd6d0326d24f9e80]
reverse link java.io.Serializable to miml.transformation.mimlTOmi.LPTransformation--><g id="link_java.io.Serializable_miml.transformation.mimlTOmi.LPTransformation"><path codeLine="15" d="M153.5,67.52 C153.5,79.61 153.5,93.29 153.5,106.8 " fill="none" id="java.io.Serializable-backto-miml.transformation.mimlTOmi.LPTransformation" style="stroke:#181818;stroke-width:1.0;stroke-dasharray:7.0,7.0;"/><polygon fill="none" points="146.5,67.3,153.5,47.3,160.5,67.3,146.5,67.3" style="stroke:#181818;stroke-width:1.0;"/></g><rect fill="none" height="12.5781" style="stroke:none;stroke-width:1.0;" width="190" x="50.5" y="257.2344"/><text fill="#888888" font-family="sans-serif" font-size="10" lengthAdjust="spacing" textLength="190" x="50.5" y="267.6152">UMLDoclet 2.0.20, PlantUML 1.2022.12</text><!--MD5=[7e26ec7f6f474a0891c441199311e16d]
@startuml
    set namespaceSeparator none
    hide empty fields
    hide empty methods

    class "<size:14>LPTransformation\n<size:10>miml.transformation.mimlTOmi" as miml.transformation.mimlTOmi.LPTransformation [[LPTransformation.html]] {
        {static} -serialVersionUID: long
        #LPT: MIMLLabelPowersetTransformation
        +getLPT(): LabelPowersetTransformation
        +transformBag(MIMLBag, int[]): Instance
        +transformBags(MIMLInstances): Instances
    }

    interface "<size:14>Serializable\n<size:10>java.io" as java.io.Serializable

    java.io.Serializable <|.. miml.transformation.mimlTOmi.LPTransformation

    center footer UMLDoclet 2.0.20, PlantUML 1.2022.12
@enduml

PlantUML version 1.2022.12(Sun Oct 23 20:12:26 CEST 2022)
(APACHE source distribution)
Java Runtime: OpenJDK Runtime Environment
JVM: OpenJDK 64-Bit Server VM
Default Encoding: Cp1252
Language: es
Country: ES
--></g></svg>