<?xml version="1.0" encoding="UTF-8" standalone="no"?><svg xmlns="http://www.w3.org/2000/svg" xmlns:xlink="http://www.w3.org/1999/xlink" contentStyleType="text/css" height="224px" preserveAspectRatio="none" style="width:308px;height:224px;background:#FFFFFF;" version="1.1" viewBox="0 0 308 224" width="308px" zoomAndPan="magnify"><defs/><g><!--MD5=[3782362b5f2d239d89530e07a3ae5d5c]
class miml.transformation.mimlTOmi.MIMLLabelPowersetTransformation--><a href="MIMLLabelPowersetTransformation.html" target="_top" title="MIMLLabelPowersetTransformation.html" xlink:actuate="onRequest" xlink:href="MIMLLabelPowersetTransformation.html" xlink:show="new" xlink:title="MIMLLabelPowersetTransformation.html" xlink:type="simple"><g id="elem_miml.transformation.mimlTOmi.MIMLLabelPowersetTransformation"><rect codeLine="5" fill="#F1F1F1" height="91.4063" id="miml.transformation.mimlTOmi.MIMLLabelPowersetTransformation" rx="2.5" ry="2.5" style="stroke:#181818;stroke-width:0.5;" width="294" x="7" y="107"/><ellipse cx="40" cy="127.0938" fill="#ADD1B2" rx="11" ry="11" style="stroke:#181818;stroke-width:1.0;"/><path d="M42.7656,122.9688 Q42.9219,122.75 43.1094,122.6406 Q43.2969,122.5313 43.5156,122.5313 Q43.8906,122.5313 44.125,122.7969 Q44.3594,123.0469 44.3594,123.6563 L44.3594,125.1094 Q44.3594,125.7188 44.125,125.9844 Q43.8906,126.25 43.5156,126.25 Q43.1719,126.25 42.9688,126.0469 Q42.7656,125.8594 42.6563,125.3438 Q42.6094,124.9844 42.4219,124.7969 Q42.0938,124.4219 41.4844,124.2031 Q40.875,123.9844 40.25,123.9844 Q39.4844,123.9844 38.8438,124.3125 Q38.2188,124.6406 37.7188,125.3906 Q37.2344,126.1406 37.2344,127.1719 L37.2344,128.2656 Q37.2344,129.5 38.125,130.3281 Q39.0156,131.1406 40.6094,131.1406 Q41.5469,131.1406 42.2031,130.8906 Q42.5938,130.7344 43.0156,130.2969 Q43.2813,130.0313 43.4219,129.9531 Q43.5781,129.875 43.7813,129.875 Q44.1094,129.875 44.3594,130.1406 Q44.625,130.3906 44.625,130.7344 Q44.625,131.0781 44.2813,131.4844 Q43.7813,132.0625 42.9844,132.3906 Q41.9063,132.8438 40.6094,132.8438 Q39.0938,132.8438 37.8906,132.2188 Q36.9063,131.7188 36.2188,130.6563 Q35.5313,129.5781 35.5313,128.2969 L35.5313,127.1406 Q35.5313,125.8125 36.1406,124.6719 Q36.7656,123.5156 37.8594,122.9063 Q38.9531,122.2813 40.1875,122.2813 Q40.9219,122.2813 41.5625,122.4531 Q42.2188,122.6094 42.7656,122.9688 Z " fill="#000000"/><text fill="#000000" font-family="sans-serif" font-size="14" lengthAdjust="spacing" textLength="222" x="58" y="126.5332">MIMLLabelPowersetTransformation</text><text fill="#000000" font-family="sans-serif" font-size="10" lengthAdjust="spacing" textLength="148" x="95" y="139.9902">miml.transformation.mimlTOmi</text><line style="stroke:#181818;stroke-width:0.5;" x1="8" x2="300" y1="147.1875" y2="147.1875"/><rect fill="none" height="6" style="stroke:#C82930;stroke-width:1.0;" width="6" x="15" y="158.4922"/><text fill="#000000" font-family="sans-serif" font-size="14" lengthAdjust="spacing" text-decoration="underline" textLength="139" x="27" y="165.7207">serialVersionUID: long</text><line style="stroke:#181818;stroke-width:0.5;" x1="8" x2="300" y1="172.7969" y2="172.7969"/><ellipse cx="18" cy="187.1016" fill="#84BE84" rx="3" ry="3" style="stroke:#038048;stroke-width:1.0;"/><text fill="#000000" font-family="sans-serif" font-size="14" lengthAdjust="spacing" textLength="268" x="27" y="191.3301">transformInstance(Instance, int[]): Instance</text></g></a><!--MD5=[9308225c9912623afe39e60dc20db984]
class mulan.transformations.LabelPowersetTransformation--><g id="elem_mulan.transformations.LabelPowersetTransformation"><rect codeLine="10" fill="#F1F1F1" height="40.1875" id="mulan.transformations.LabelPowersetTransformation" rx="2.5" ry="2.5" style="stroke:#181818;stroke-width:0.5;" width="221" x="43.5" y="7"/><ellipse cx="58.5" cy="27.0938" fill="#ADD1B2" rx="11" ry="11" style="stroke:#181818;stroke-width:1.0;"/><path d="M61.2656,22.9688 Q61.4219,22.75 61.6094,22.6406 Q61.7969,22.5313 62.0156,22.5313 Q62.3906,22.5313 62.625,22.7969 Q62.8594,23.0469 62.8594,23.6563 L62.8594,25.1094 Q62.8594,25.7188 62.625,25.9844 Q62.3906,26.25 62.0156,26.25 Q61.6719,26.25 61.4688,26.0469 Q61.2656,25.8594 61.1563,25.3438 Q61.1094,24.9844 60.9219,24.7969 Q60.5938,24.4219 59.9844,24.2031 Q59.375,23.9844 58.75,23.9844 Q57.9844,23.9844 57.3438,24.3125 Q56.7188,24.6406 56.2188,25.3906 Q55.7344,26.1406 55.7344,27.1719 L55.7344,28.2656 Q55.7344,29.5 56.625,30.3281 Q57.5156,31.1406 59.1094,31.1406 Q60.0469,31.1406 60.7031,30.8906 Q61.0938,30.7344 61.5156,30.2969 Q61.7813,30.0313 61.9219,29.9531 Q62.0781,29.875 62.2813,29.875 Q62.6094,29.875 62.8594,30.1406 Q63.125,30.3906 63.125,30.7344 Q63.125,31.0781 62.7813,31.4844 Q62.2813,32.0625 61.4844,32.3906 Q60.4063,32.8438 59.1094,32.8438 Q57.5938,32.8438 56.3906,32.2188 Q55.4063,31.7188 54.7188,30.6563 Q54.0313,29.5781 54.0313,28.2969 L54.0313,27.1406 Q54.0313,25.8125 54.6406,24.6719 Q55.2656,23.5156 56.3594,22.9063 Q57.4531,22.2813 58.6875,22.2813 Q59.4219,22.2813 60.0625,22.4531 Q60.7188,22.6094 61.2656,22.9688 Z " fill="#000000"/><text fill="#000000" font-family="sans-serif" font-size="14" lengthAdjust="spacing" textLength="189" x="72.5" y="26.5332">LabelPowersetTransformation</text><text fill="#000000" font-family="sans-serif" font-size="10" lengthAdjust="spacing" textLength="104" x="115" y="39.9902">mulan.transformations</text></g><!--MD5=[1d6e341277b0ff1bc168f6d762f2b70c]
reverse link mulan.transformations.LabelPowersetTransformation to miml.transformation.mimlTOmi.MIMLLabelPowersetTransformation--><g id="link_mulan.transformations.LabelPowersetTransformation_miml.transformation.mimlTOmi.MIMLLabelPowersetTransformation"><path codeLine="12" d="M154,67.04 C154,79.68 154,93.79 154,106.81 " fill="none" id="mulan.transformations.LabelPowersetTransformation-backto-miml.transformation.mimlTOmi.MIMLLabelPowersetTransformation" style="stroke:#181818;stroke-width:1.0;"/><polygon fill="none" points="147,67.03,154,47.03,161,67.03,147,67.03" style="stroke:#181818;stroke-width:1.0;"/></g><rect fill="none" height="12.5781" style="stroke:none;stroke-width:1.0;" width="190" x="52" y="204.4063"/><text fill="#888888" font-family="sans-serif" font-size="10" lengthAdjust="spacing" textLength="190" x="52" y="214.7871">UMLDoclet 2.0.20, PlantUML 1.2022.12</text><!--MD5=[9ccee83e7ababc4b3a280486dcc6234d]
@startuml
    set namespaceSeparator none
    hide empty fields
    hide empty methods

    class "<size:14>MIMLLabelPowersetTransformation\n<size:10>miml.transformation.mimlTOmi" as miml.transformation.mimlTOmi.MIMLLabelPowersetTransformation [[MIMLLabelPowersetTransformation.html]] {
        {static} -serialVersionUID: long
        +transformInstance(Instance, int[]): Instance
    }

    class "<size:14>LabelPowersetTransformation\n<size:10>mulan.transformations" as mulan.transformations.LabelPowersetTransformation

    mulan.transformations.LabelPowersetTransformation <|- - miml.transformation.mimlTOmi.MIMLLabelPowersetTransformation

    center footer UMLDoclet 2.0.20, PlantUML 1.2022.12
@enduml

PlantUML version 1.2022.12(Sun Oct 23 20:12:26 CEST 2022)
(APACHE source distribution)
Java Runtime: OpenJDK Runtime Environment
JVM: OpenJDK 64-Bit Server VM
Default Encoding: Cp1252
Language: es
Country: ES
--></g></svg>