<?xml version="1.0" encoding="UTF-8" standalone="no"?><svg xmlns="http://www.w3.org/2000/svg" xmlns:xlink="http://www.w3.org/1999/xlink" contentStyleType="text/css" height="584px" preserveAspectRatio="none" style="width:991px;height:584px;background:#FFFFFF;" version="1.1" viewBox="0 0 991 584" width="991px" zoomAndPan="magnify"><defs/><g><!--MD5=[2529d5a5456283648831d5216ba4389f]
cluster miml.transformation.mimlTOmi--><g id="cluster_miml.transformation.mimlTOmi"><path d="M286.5,139 L497.5,139 A3.75,3.75 0 0 1 500,141.5 L507,162.6094 L981.5,162.6094 A2.5,2.5 0 0 1 984,165.1094 L984,555.5 A2.5,2.5 0 0 1 981.5,558 L286.5,558 A2.5,2.5 0 0 1 284,555.5 L284,141.5 A2.5,2.5 0 0 1 286.5,139 " fill="none" style="stroke:#000000;stroke-width:1.5;"/><line style="stroke:#000000;stroke-width:1.5;" x1="284" x2="507" y1="162.6094" y2="162.6094"/><text fill="#000000" font-family="sans-serif" font-size="14" font-weight="bold" lengthAdjust="spacing" textLength="210" x="288" y="155.5332">miml.transformation.mimlTOmi</text></g><!--MD5=[0d852700fdad35b7061d461d6907a324]
cluster java.io--><g id="cluster_java.io"><path d="M619.5,6 L666.5,6 A3.75,3.75 0 0 1 669,8.5 L676,29.6094 L752.5,29.6094 A2.5,2.5 0 0 1 755,32.1094 L755,103.5 A2.5,2.5 0 0 1 752.5,106 L619.5,106 A2.5,2.5 0 0 1 617,103.5 L617,8.5 A2.5,2.5 0 0 1 619.5,6 " fill="none" style="stroke:#000000;stroke-width:1.5;"/><line style="stroke:#000000;stroke-width:1.5;" x1="617" x2="676" y1="29.6094" y2="29.6094"/><text fill="#000000" font-family="sans-serif" font-size="14" font-weight="bold" lengthAdjust="spacing" textLength="46" x="621" y="22.5332">java.io</text></g><!--MD5=[7c75aa3db19dd35557a34345f928fb42]
cluster mulan.transformations--><g id="cluster_mulan.transformations"><path d="M8.5,209 L166.5,209 A3.75,3.75 0 0 1 169,211.5 L176,232.6094 L257.5,232.6094 A2.5,2.5 0 0 1 260,235.1094 L260,324.5 A2.5,2.5 0 0 1 257.5,327 L8.5,327 A2.5,2.5 0 0 1 6,324.5 L6,211.5 A2.5,2.5 0 0 1 8.5,209 " fill="none" style="stroke:#000000;stroke-width:1.5;"/><line style="stroke:#000000;stroke-width:1.5;" x1="6" x2="176" y1="232.6094" y2="232.6094"/><text fill="#000000" font-family="sans-serif" font-size="14" font-weight="bold" lengthAdjust="spacing" textLength="157" x="10" y="225.5332">mulan.transformations</text></g><!--MD5=[f4fed0da1b7d929a17458f427806d2d9]
class miml.transformation.mimlTOmi.BRTransformation--><a href="BRTransformation.html" target="_top" title="BRTransformation.html" xlink:actuate="onRequest" xlink:href="BRTransformation.html" xlink:show="new" xlink:title="BRTransformation.html" xlink:type="simple"><g id="elem_miml.transformation.mimlTOmi.BRTransformation"><rect codeLine="3" fill="#F1F1F1" height="206.4844" id="miml.transformation.mimlTOmi.BRTransformation" rx="2.5" ry="2.5" style="stroke:#181818;stroke-width:0.5;" width="343" x="300.5" y="175"/><ellipse cx="410.25" cy="191" fill="#ADD1B2" rx="11" ry="11" style="stroke:#181818;stroke-width:1.0;"/><path d="M413.0156,186.875 Q413.1719,186.6563 413.3594,186.5469 Q413.5469,186.4375 413.7656,186.4375 Q414.1406,186.4375 414.375,186.7031 Q414.6094,186.9531 414.6094,187.5625 L414.6094,189.0156 Q414.6094,189.625 414.375,189.8906 Q414.1406,190.1563 413.7656,190.1563 Q413.4219,190.1563 413.2188,189.9531 Q413.0156,189.7656 412.9063,189.25 Q412.8594,188.8906 412.6719,188.7031 Q412.3438,188.3281 411.7344,188.1094 Q411.125,187.8906 410.5,187.8906 Q409.7344,187.8906 409.0938,188.2188 Q408.4688,188.5469 407.9688,189.2969 Q407.4844,190.0469 407.4844,191.0781 L407.4844,192.1719 Q407.4844,193.4063 408.375,194.2344 Q409.2656,195.0469 410.8594,195.0469 Q411.7969,195.0469 412.4531,194.7969 Q412.8438,194.6406 413.2656,194.2031 Q413.5313,193.9375 413.6719,193.8594 Q413.8281,193.7813 414.0313,193.7813 Q414.3594,193.7813 414.6094,194.0469 Q414.875,194.2969 414.875,194.6406 Q414.875,194.9844 414.5313,195.3906 Q414.0313,195.9688 413.2344,196.2969 Q412.1563,196.75 410.8594,196.75 Q409.3438,196.75 408.1406,196.125 Q407.1563,195.625 406.4688,194.5625 Q405.7813,193.4844 405.7813,192.2031 L405.7813,191.0469 Q405.7813,189.7188 406.3906,188.5781 Q407.0156,187.4219 408.1094,186.8125 Q409.2031,186.1875 410.4375,186.1875 Q411.1719,186.1875 411.8125,186.3594 Q412.4688,186.5156 413.0156,186.875 Z " fill="#000000"/><text fill="#000000" font-family="sans-serif" font-size="14" lengthAdjust="spacing" textLength="115" x="430.75" y="196.7285">BRTransformation</text><line style="stroke:#181818;stroke-width:0.5;" x1="301.5" x2="642.5" y1="207" y2="207"/><rect fill="none" height="6" style="stroke:#C82930;stroke-width:1.0;" width="6" x="308.5" y="218.3047"/><text fill="#000000" font-family="sans-serif" font-size="14" lengthAdjust="spacing" text-decoration="underline" textLength="139" x="320.5" y="225.5332">serialVersionUID: long</text><polygon fill="none" points="311.5,233.9141,315.5,237.9141,311.5,241.9141,307.5,237.9141" style="stroke:#B38D22;stroke-width:1.0;"/><text fill="#000000" font-family="sans-serif" font-size="14" lengthAdjust="spacing" textLength="239" x="320.5" y="243.1426">BRT: BinaryRelevanceTransformation</text><polygon fill="none" points="311.5,251.5234,315.5,255.5234,311.5,259.5234,307.5,255.5234" style="stroke:#B38D22;stroke-width:1.0;"/><text fill="#000000" font-family="sans-serif" font-size="14" lengthAdjust="spacing" textLength="150" x="320.5" y="260.752">dataSet: MIMLInstances</text><line style="stroke:#181818;stroke-width:0.5;" x1="301.5" x2="642.5" y1="267.8281" y2="267.8281"/><ellipse cx="311.5" cy="282.1328" fill="#84BE84" rx="3" ry="3" style="stroke:#038048;stroke-width:1.0;"/><text fill="#000000" font-family="sans-serif" font-size="14" lengthAdjust="spacing" textLength="218" x="320.5" y="286.3613">BRTransformation(MIMLInstances)</text><ellipse cx="311.5" cy="299.7422" fill="#84BE84" rx="3" ry="3" style="stroke:#038048;stroke-width:1.0;"/><text fill="#000000" font-family="sans-serif" font-size="14" lengthAdjust="spacing" textLength="237" x="320.5" y="303.9707">transformBag(MIMLBag, int): Instance</text><ellipse cx="311.5" cy="317.3516" fill="#84BE84" rx="3" ry="3" style="stroke:#038048;stroke-width:1.0;"/><text fill="#000000" font-family="sans-serif" font-size="14" lengthAdjust="spacing" textLength="194" x="320.5" y="321.5801">transformBag(int, int): Instance</text><ellipse cx="311.5" cy="334.9609" fill="#84BE84" rx="3" ry="3" style="stroke:#038048;stroke-width:1.0;"/><text fill="#000000" font-family="sans-serif" font-size="14" lengthAdjust="spacing" text-decoration="underline" textLength="268" x="320.5" y="339.1895">transformBag(MIMLBag, int[], int): Instance</text><ellipse cx="311.5" cy="352.5703" fill="#84BE84" rx="3" ry="3" style="stroke:#038048;stroke-width:1.0;"/><text fill="#000000" font-family="sans-serif" font-size="14" lengthAdjust="spacing" textLength="185" x="320.5" y="356.7988">transformBags(int): Instances</text><ellipse cx="311.5" cy="370.1797" fill="#84BE84" rx="3" ry="3" style="stroke:#038048;stroke-width:1.0;"/><text fill="#000000" font-family="sans-serif" font-size="14" lengthAdjust="spacing" text-decoration="underline" textLength="317" x="320.5" y="374.4082">transformBags(MIMLInstances, int[], int): Instances</text></g></a><!--MD5=[1e9fa36722b7beea26d4d281ab10a0d8]
class miml.transformation.mimlTOmi.LPTransformation--><a href="LPTransformation.html" target="_top" title="LPTransformation.html" xlink:actuate="onRequest" xlink:href="LPTransformation.html" xlink:show="new" xlink:title="LPTransformation.html" xlink:type="simple"><g id="elem_miml.transformation.mimlTOmi.LPTransformation"><rect codeLine="15" fill="#F1F1F1" height="118.4375" id="miml.transformation.mimlTOmi.LPTransformation" rx="2.5" ry="2.5" style="stroke:#181818;stroke-width:0.5;" width="289" x="678.5" y="219"/><ellipse cx="762.25" cy="235" fill="#ADD1B2" rx="11" ry="11" style="stroke:#181818;stroke-width:1.0;"/><path d="M765.0156,230.875 Q765.1719,230.6563 765.3594,230.5469 Q765.5469,230.4375 765.7656,230.4375 Q766.1406,230.4375 766.375,230.7031 Q766.6094,230.9531 766.6094,231.5625 L766.6094,233.0156 Q766.6094,233.625 766.375,233.8906 Q766.1406,234.1563 765.7656,234.1563 Q765.4219,234.1563 765.2188,233.9531 Q765.0156,233.7656 764.9063,233.25 Q764.8594,232.8906 764.6719,232.7031 Q764.3438,232.3281 763.7344,232.1094 Q763.125,231.8906 762.5,231.8906 Q761.7344,231.8906 761.0938,232.2188 Q760.4688,232.5469 759.9688,233.2969 Q759.4844,234.0469 759.4844,235.0781 L759.4844,236.1719 Q759.4844,237.4063 760.375,238.2344 Q761.2656,239.0469 762.8594,239.0469 Q763.7969,239.0469 764.4531,238.7969 Q764.8438,238.6406 765.2656,238.2031 Q765.5313,237.9375 765.6719,237.8594 Q765.8281,237.7813 766.0313,237.7813 Q766.3594,237.7813 766.6094,238.0469 Q766.875,238.2969 766.875,238.6406 Q766.875,238.9844 766.5313,239.3906 Q766.0313,239.9688 765.2344,240.2969 Q764.1563,240.75 762.8594,240.75 Q761.3438,240.75 760.1406,240.125 Q759.1563,239.625 758.4688,238.5625 Q757.7813,237.4844 757.7813,236.2031 L757.7813,235.0469 Q757.7813,233.7188 758.3906,232.5781 Q759.0156,231.4219 760.1094,230.8125 Q761.2031,230.1875 762.4375,230.1875 Q763.1719,230.1875 763.8125,230.3594 Q764.4688,230.5156 765.0156,230.875 Z " fill="#000000"/><text fill="#000000" font-family="sans-serif" font-size="14" lengthAdjust="spacing" textLength="113" x="782.75" y="240.7285">LPTransformation</text><line style="stroke:#181818;stroke-width:0.5;" x1="679.5" x2="966.5" y1="251" y2="251"/><rect fill="none" height="6" style="stroke:#C82930;stroke-width:1.0;" width="6" x="686.5" y="262.3047"/><text fill="#000000" font-family="sans-serif" font-size="14" lengthAdjust="spacing" text-decoration="underline" textLength="139" x="698.5" y="269.5332">serialVersionUID: long</text><line style="stroke:#181818;stroke-width:0.5;" x1="679.5" x2="966.5" y1="276.6094" y2="276.6094"/><ellipse cx="689.5" cy="290.9141" fill="#84BE84" rx="3" ry="3" style="stroke:#038048;stroke-width:1.0;"/><text fill="#000000" font-family="sans-serif" font-size="14" lengthAdjust="spacing" textLength="253" x="698.5" y="295.1426">getLPT(): LabelPowersetTransformation</text><ellipse cx="689.5" cy="308.5234" fill="#84BE84" rx="3" ry="3" style="stroke:#038048;stroke-width:1.0;"/><text fill="#000000" font-family="sans-serif" font-size="14" lengthAdjust="spacing" textLength="245" x="698.5" y="312.752">transformBag(MIMLBag, int[]): Instance</text><ellipse cx="689.5" cy="326.1328" fill="#84BE84" rx="3" ry="3" style="stroke:#038048;stroke-width:1.0;"/><text fill="#000000" font-family="sans-serif" font-size="14" lengthAdjust="spacing" textLength="263" x="698.5" y="330.3613">transformBags(MIMLInstances): Instances</text></g></a><!--MD5=[3782362b5f2d239d89530e07a3ae5d5c]
class miml.transformation.mimlTOmi.MIMLLabelPowersetTransformation--><a href="MIMLLabelPowersetTransformation.html" target="_top" title="MIMLLabelPowersetTransformation.html" xlink:actuate="onRequest" xlink:href="MIMLLabelPowersetTransformation.html" xlink:show="new" xlink:title="MIMLLabelPowersetTransformation.html" xlink:type="simple"><g id="elem_miml.transformation.mimlTOmi.MIMLLabelPowersetTransformation"><rect codeLine="22" fill="#F1F1F1" height="83.2188" id="miml.transformation.mimlTOmi.MIMLLabelPowersetTransformation" rx="2.5" ry="2.5" style="stroke:#181818;stroke-width:0.5;" width="294" x="487" y="459"/><ellipse cx="520" cy="475" fill="#ADD1B2" rx="11" ry="11" style="stroke:#181818;stroke-width:1.0;"/><path d="M522.7656,470.875 Q522.9219,470.6563 523.1094,470.5469 Q523.2969,470.4375 523.5156,470.4375 Q523.8906,470.4375 524.125,470.7031 Q524.3594,470.9531 524.3594,471.5625 L524.3594,473.0156 Q524.3594,473.625 524.125,473.8906 Q523.8906,474.1563 523.5156,474.1563 Q523.1719,474.1563 522.9688,473.9531 Q522.7656,473.7656 522.6563,473.25 Q522.6094,472.8906 522.4219,472.7031 Q522.0938,472.3281 521.4844,472.1094 Q520.875,471.8906 520.25,471.8906 Q519.4844,471.8906 518.8438,472.2188 Q518.2188,472.5469 517.7188,473.2969 Q517.2344,474.0469 517.2344,475.0781 L517.2344,476.1719 Q517.2344,477.4063 518.125,478.2344 Q519.0156,479.0469 520.6094,479.0469 Q521.5469,479.0469 522.2031,478.7969 Q522.5938,478.6406 523.0156,478.2031 Q523.2813,477.9375 523.4219,477.8594 Q523.5781,477.7813 523.7813,477.7813 Q524.1094,477.7813 524.3594,478.0469 Q524.625,478.2969 524.625,478.6406 Q524.625,478.9844 524.2813,479.3906 Q523.7813,479.9688 522.9844,480.2969 Q521.9063,480.75 520.6094,480.75 Q519.0938,480.75 517.8906,480.125 Q516.9063,479.625 516.2188,478.5625 Q515.5313,477.4844 515.5313,476.2031 L515.5313,475.0469 Q515.5313,473.7188 516.1406,472.5781 Q516.7656,471.4219 517.8594,470.8125 Q518.9531,470.1875 520.1875,470.1875 Q520.9219,470.1875 521.5625,470.3594 Q522.2188,470.5156 522.7656,470.875 Z " fill="#000000"/><text fill="#000000" font-family="sans-serif" font-size="14" lengthAdjust="spacing" textLength="222" x="538" y="480.7285">MIMLLabelPowersetTransformation</text><line style="stroke:#181818;stroke-width:0.5;" x1="488" x2="780" y1="491" y2="491"/><rect fill="none" height="6" style="stroke:#C82930;stroke-width:1.0;" width="6" x="495" y="502.3047"/><text fill="#000000" font-family="sans-serif" font-size="14" lengthAdjust="spacing" text-decoration="underline" textLength="139" x="507" y="509.5332">serialVersionUID: long</text><line style="stroke:#181818;stroke-width:0.5;" x1="488" x2="780" y1="516.6094" y2="516.6094"/><ellipse cx="498" cy="530.9141" fill="#84BE84" rx="3" ry="3" style="stroke:#038048;stroke-width:1.0;"/><text fill="#000000" font-family="sans-serif" font-size="14" lengthAdjust="spacing" textLength="268" x="507" y="535.1426">transformInstance(Instance, int[]): Instance</text></g></a><!--MD5=[5a5af9b0547913863cbe0ddf55a9ab5e]
class java.io.Serializable--><g id="elem_java.io.Serializable"><rect codeLine="34" fill="#F1F1F1" height="48" id="java.io.Serializable" rx="2.5" ry="2.5" style="stroke:#181818;stroke-width:0.5;" width="105" x="633.5" y="42"/><ellipse cx="648.5" cy="58" fill="#B4A7E5" rx="11" ry="11" style="stroke:#181818;stroke-width:1.0;"/><path d="M649.4531,54.6406 L649.4531,61.2969 L651.1719,61.2969 Q651.7813,61.2969 652.0469,61.5313 Q652.3125,61.7656 652.3125,62.1563 Q652.3125,62.5313 652.0469,62.7656 Q651.7813,63 651.1719,63 L646.0313,63 Q645.4219,63 645.1563,62.7656 Q644.8906,62.5313 644.8906,62.1406 Q644.8906,61.7656 645.1563,61.5313 Q645.4219,61.2969 646.0313,61.2969 L647.75,61.2969 L647.75,54.6406 L646.0313,54.6406 Q645.4219,54.6406 645.1563,54.4063 Q644.8906,54.1719 644.8906,53.7813 Q644.8906,53.4063 645.1563,53.1719 Q645.4219,52.9375 646.0313,52.9375 L651.1719,52.9375 Q651.7813,52.9375 652.0469,53.1719 Q652.3125,53.4063 652.3125,53.7813 Q652.3125,54.1719 652.0469,54.4063 Q651.7813,54.6406 651.1719,54.6406 L649.4531,54.6406 Z " fill="#000000"/><text fill="#000000" font-family="sans-serif" font-size="14" font-style="italic" lengthAdjust="spacing" textLength="73" x="662.5" y="63.7285">Serializable</text><line style="stroke:#181818;stroke-width:0.5;" x1="634.5" x2="737.5" y1="74" y2="74"/><line style="stroke:#181818;stroke-width:0.5;" x1="634.5" x2="737.5" y1="82" y2="82"/></g><!--MD5=[9308225c9912623afe39e60dc20db984]
class mulan.transformations.LabelPowersetTransformation--><g id="elem_mulan.transformations.LabelPowersetTransformation"><rect codeLine="38" fill="#F1F1F1" height="65.6094" id="mulan.transformations.LabelPowersetTransformation" rx="2.5" ry="2.5" style="stroke:#181818;stroke-width:0.5;" width="221" x="22.5" y="245"/><ellipse cx="37.5" cy="261" fill="#ADD1B2" rx="11" ry="11" style="stroke:#181818;stroke-width:1.0;"/><path d="M40.2656,256.875 Q40.4219,256.6563 40.6094,256.5469 Q40.7969,256.4375 41.0156,256.4375 Q41.3906,256.4375 41.625,256.7031 Q41.8594,256.9531 41.8594,257.5625 L41.8594,259.0156 Q41.8594,259.625 41.625,259.8906 Q41.3906,260.1563 41.0156,260.1563 Q40.6719,260.1563 40.4688,259.9531 Q40.2656,259.7656 40.1563,259.25 Q40.1094,258.8906 39.9219,258.7031 Q39.5938,258.3281 38.9844,258.1094 Q38.375,257.8906 37.75,257.8906 Q36.9844,257.8906 36.3438,258.2188 Q35.7188,258.5469 35.2188,259.2969 Q34.7344,260.0469 34.7344,261.0781 L34.7344,262.1719 Q34.7344,263.4063 35.625,264.2344 Q36.5156,265.0469 38.1094,265.0469 Q39.0469,265.0469 39.7031,264.7969 Q40.0938,264.6406 40.5156,264.2031 Q40.7813,263.9375 40.9219,263.8594 Q41.0781,263.7813 41.2813,263.7813 Q41.6094,263.7813 41.8594,264.0469 Q42.125,264.2969 42.125,264.6406 Q42.125,264.9844 41.7813,265.3906 Q41.2813,265.9688 40.4844,266.2969 Q39.4063,266.75 38.1094,266.75 Q36.5938,266.75 35.3906,266.125 Q34.4063,265.625 33.7188,264.5625 Q33.0313,263.4844 33.0313,262.2031 L33.0313,261.0469 Q33.0313,259.7188 33.6406,258.5781 Q34.2656,257.4219 35.3594,256.8125 Q36.4531,256.1875 37.6875,256.1875 Q38.4219,256.1875 39.0625,256.3594 Q39.7188,256.5156 40.2656,256.875 Z " fill="#000000"/><text fill="#000000" font-family="sans-serif" font-size="14" lengthAdjust="spacing" textLength="189" x="51.5" y="266.7285">LabelPowersetTransformation</text><line style="stroke:#181818;stroke-width:0.5;" x1="23.5" x2="242.5" y1="277" y2="277"/><rect fill="none" height="6" style="stroke:#C82930;stroke-width:1.0;" width="6" x="30.5" y="288.3047"/><text fill="#000000" font-family="sans-serif" font-size="14" lengthAdjust="spacing" textLength="189" x="42.5" y="295.5332">transformedFormat: Instances</text><line style="stroke:#181818;stroke-width:0.5;" x1="23.5" x2="242.5" y1="302.6094" y2="302.6094"/></g><!--MD5=[9ea6bdaf9166781bceb8b0fade46d0ea]
reverse link java.io.Serializable to miml.transformation.mimlTOmi.BRTransformation--><g id="link_java.io.Serializable_miml.transformation.mimlTOmi.BRTransformation"><path codeLine="27" d="M647.73,104.55 C627.55,124.35 601.71,149.71 576.1,174.85 " fill="none" id="java.io.Serializable-backto-miml.transformation.mimlTOmi.BRTransformation" style="stroke:#181818;stroke-width:1.0;stroke-dasharray:7.0,7.0;"/><polygon fill="none" points="643.1,99.29,662.28,90.28,652.91,109.28,643.1,99.29" style="stroke:#181818;stroke-width:1.0;"/></g><!--MD5=[bf0a97c5fab383abfd6d0326d24f9e80]
reverse link java.io.Serializable to miml.transformation.mimlTOmi.LPTransformation--><g id="link_java.io.Serializable_miml.transformation.mimlTOmi.LPTransformation"><path codeLine="28" d="M712.24,107.23 C732.85,138.81 761.83,183.23 784.97,218.71 " fill="none" id="java.io.Serializable-backto-miml.transformation.mimlTOmi.LPTransformation" style="stroke:#181818;stroke-width:1.0;stroke-dasharray:7.0,7.0;"/><polygon fill="none" points="706.25,110.85,701.18,90.28,717.98,103.2,706.25,110.85" style="stroke:#181818;stroke-width:1.0;"/></g><!--MD5=[a95e571693c9eeafc96016c8377b0777]
link miml.transformation.mimlTOmi.LPTransformation to miml.transformation.mimlTOmi.MIMLLabelPowersetTransformation--><g id="link_miml.transformation.mimlTOmi.LPTransformation_miml.transformation.mimlTOmi.MIMLLabelPowersetTransformation"><path codeLine="29" d="M773.1,337.22 C741.57,374 701.45,420.81 672.4,454.7 " fill="none" id="miml.transformation.mimlTOmi.LPTransformation-to-miml.transformation.mimlTOmi.MIMLLabelPowersetTransformation" style="stroke:#181818;stroke-width:1.0;"/><polygon fill="#181818" points="668.92,458.76,677.8049,454.5106,672.1657,454.9567,671.7196,449.3174,668.92,458.76" style="stroke:#181818;stroke-width:1.0;"/><text fill="#000000" font-family="sans-serif" font-size="13" lengthAdjust="spacing" textLength="23" x="707" y="425.4951">LPT</text></g><!--MD5=[1d6e341277b0ff1bc168f6d762f2b70c]
reverse link mulan.transformations.LabelPowersetTransformation to miml.transformation.mimlTOmi.MIMLLabelPowersetTransformation--><g id="link_mulan.transformations.LabelPowersetTransformation_miml.transformation.mimlTOmi.MIMLLabelPowersetTransformation"><path codeLine="30" d="M190.61,323.26 C217.88,342.78 251.53,364.9 284,381 C348.09,412.77 422.74,439.35 486.6,459.23 " fill="none" id="mulan.transformations.LabelPowersetTransformation-backto-miml.transformation.mimlTOmi.MIMLLabelPowersetTransformation" style="stroke:#181818;stroke-width:1.0;"/><polygon fill="none" points="186.13,328.65,174.1,311.2,194.38,317.35,186.13,328.65" style="stroke:#181818;stroke-width:1.0;"/></g><rect fill="none" height="12.5781" style="stroke:none;stroke-width:1.0;" width="190" x="393.5" y="564"/><text fill="#888888" font-family="sans-serif" font-size="10" lengthAdjust="spacing" textLength="190" x="393.5" y="574.3809">UMLDoclet 2.0.20, PlantUML 1.2022.12</text><!--MD5=[6bc307a26979c863c88a557c3f151044]
@startuml
    namespace miml.transformation.mimlTOmi {

        class BRTransformation [[BRTransformation.html]] {
            {static} -serialVersionUID: long
            #BRT: BinaryRelevanceTransformation
            #dataSet: MIMLInstances
            +BRTransformation(MIMLInstances)
            +transformBag(MIMLBag, int): Instance
            +transformBag(int, int): Instance
            {static} +transformBag(MIMLBag, int[], int): Instance
            +transformBags(int): Instances
            {static} +transformBags(MIMLInstances, int[], int): Instances
        }

        class LPTransformation [[LPTransformation.html]] {
            {static} -serialVersionUID: long
            +getLPT(): LabelPowersetTransformation
            +transformBag(MIMLBag, int[]): Instance
            +transformBags(MIMLInstances): Instances
        }

        class MIMLLabelPowersetTransformation [[MIMLLabelPowersetTransformation.html]] {
            {static} -serialVersionUID: long
            +transformInstance(Instance, int[]): Instance
        }

        java.io.Serializable <|.. BRTransformation
        java.io.Serializable <|.. LPTransformation
        LPTransformation - -> MIMLLabelPowersetTransformation: LPT
        mulan.transformations.LabelPowersetTransformation <|- - MIMLLabelPowersetTransformation
    }

    namespace java.io {
        interface Serializable
    }

    namespace mulan.transformations {
        class LabelPowersetTransformation {
            -transformedFormat: Instances
        }
    }

    center footer UMLDoclet 2.0.20, PlantUML 1.2022.12
@enduml

PlantUML version 1.2022.12(Sun Oct 23 20:12:26 CEST 2022)
(APACHE source distribution)
Java Runtime: OpenJDK Runtime Environment
JVM: OpenJDK 64-Bit Server VM
Default Encoding: Cp1252
Language: es
Country: ES
--></g></svg>