<?xml version="1.0" encoding="UTF-8" standalone="no"?><svg xmlns="http://www.w3.org/2000/svg" xmlns:xlink="http://www.w3.org/1999/xlink" contentStyleType="text/css" height="242px" preserveAspectRatio="none" style="width:287px;height:242px;background:#FFFFFF;" version="1.1" viewBox="0 0 287 242" width="287px" zoomAndPan="magnify"><defs/><g><!--MD5=[97e00c23c0aef8b07e6c6b199b336ee3]
class miml.classifiers.miml.mimlTOmi.MIMLLabelPowerset--><a href="MIMLLabelPowerset.html" target="_top" title="MIMLLabelPowerset.html" xlink:actuate="onRequest" xlink:href="MIMLLabelPowerset.html" xlink:show="new" xlink:title="MIMLLabelPowerset.html" xlink:type="simple"><g id="elem_miml.classifiers.miml.mimlTOmi.MIMLLabelPowerset"><rect codeLine="5" fill="#F1F1F1" height="109.0156" id="miml.classifiers.miml.mimlTOmi.MIMLLabelPowerset" rx="2.5" ry="2.5" style="stroke:#181818;stroke-width:0.5;" width="271" x="9" y="107"/><ellipse cx="63.75" cy="127.0938" fill="#ADD1B2" rx="11" ry="11" style="stroke:#181818;stroke-width:1.0;"/><path d="M66.5156,122.9688 Q66.6719,122.75 66.8594,122.6406 Q67.0469,122.5313 67.2656,122.5313 Q67.6406,122.5313 67.875,122.7969 Q68.1094,123.0469 68.1094,123.6563 L68.1094,125.1094 Q68.1094,125.7188 67.875,125.9844 Q67.6406,126.25 67.2656,126.25 Q66.9219,126.25 66.7188,126.0469 Q66.5156,125.8594 66.4063,125.3438 Q66.3594,124.9844 66.1719,124.7969 Q65.8438,124.4219 65.2344,124.2031 Q64.625,123.9844 64,123.9844 Q63.2344,123.9844 62.5938,124.3125 Q61.9688,124.6406 61.4688,125.3906 Q60.9844,126.1406 60.9844,127.1719 L60.9844,128.2656 Q60.9844,129.5 61.875,130.3281 Q62.7656,131.1406 64.3594,131.1406 Q65.2969,131.1406 65.9531,130.8906 Q66.3438,130.7344 66.7656,130.2969 Q67.0313,130.0313 67.1719,129.9531 Q67.3281,129.875 67.5313,129.875 Q67.8594,129.875 68.1094,130.1406 Q68.375,130.3906 68.375,130.7344 Q68.375,131.0781 68.0313,131.4844 Q67.5313,132.0625 66.7344,132.3906 Q65.6563,132.8438 64.3594,132.8438 Q62.8438,132.8438 61.6406,132.2188 Q60.6563,131.7188 59.9688,130.6563 Q59.2813,129.5781 59.2813,128.2969 L59.2813,127.1406 Q59.2813,125.8125 59.8906,124.6719 Q60.5156,123.5156 61.6094,122.9063 Q62.7031,122.2813 63.9375,122.2813 Q64.6719,122.2813 65.3125,122.4531 Q65.9688,122.6094 66.5156,122.9688 Z " fill="#000000"/><text fill="#000000" font-family="sans-serif" font-size="14" lengthAdjust="spacing" textLength="126" x="97.75" y="126.5332">MIMLLabelPowerset</text><text fill="#000000" font-family="sans-serif" font-size="10" lengthAdjust="spacing" textLength="153" x="84.25" y="139.9902">miml.classifiers.miml.mimlTOmi</text><line style="stroke:#181818;stroke-width:0.5;" x1="10" x2="279" y1="147.1875" y2="147.1875"/><rect fill="none" height="6" style="stroke:#C82930;stroke-width:1.0;" width="6" x="17" y="158.4922"/><text fill="#000000" font-family="sans-serif" font-size="14" lengthAdjust="spacing" text-decoration="underline" textLength="139" x="29" y="165.7207">serialVersionUID: long</text><line style="stroke:#181818;stroke-width:0.5;" x1="10" x2="279" y1="172.7969" y2="172.7969"/><ellipse cx="20" cy="187.1016" fill="#84BE84" rx="3" ry="3" style="stroke:#038048;stroke-width:1.0;"/><text fill="#000000" font-family="sans-serif" font-size="14" lengthAdjust="spacing" textLength="194" x="29" y="191.3301">MIMLLabelPowerset(Classifier)</text><polygon fill="#FFFF44" points="20,199.7109,24,203.7109,20,207.7109,16,203.7109" style="stroke:#B38D22;stroke-width:1.0;"/><text fill="#000000" font-family="sans-serif" font-size="14" lengthAdjust="spacing" textLength="245" x="29" y="208.9395">buildInternal(MultiLabelInstances): void</text></g></a><!--MD5=[4407ad2da7179bcbf8c59fb046e41957]
class mulan.classifier.transformation.LabelPowerset--><g id="elem_mulan.classifier.transformation.LabelPowerset"><rect codeLine="11" fill="#F1F1F1" height="40.1875" id="mulan.classifier.transformation.LabelPowerset" rx="2.5" ry="2.5" style="stroke:#181818;stroke-width:0.5;" width="176" x="56.5" y="7"/><ellipse cx="71.5" cy="27.0938" fill="#ADD1B2" rx="11" ry="11" style="stroke:#181818;stroke-width:1.0;"/><path d="M74.2656,22.9688 Q74.4219,22.75 74.6094,22.6406 Q74.7969,22.5313 75.0156,22.5313 Q75.3906,22.5313 75.625,22.7969 Q75.8594,23.0469 75.8594,23.6563 L75.8594,25.1094 Q75.8594,25.7188 75.625,25.9844 Q75.3906,26.25 75.0156,26.25 Q74.6719,26.25 74.4688,26.0469 Q74.2656,25.8594 74.1563,25.3438 Q74.1094,24.9844 73.9219,24.7969 Q73.5938,24.4219 72.9844,24.2031 Q72.375,23.9844 71.75,23.9844 Q70.9844,23.9844 70.3438,24.3125 Q69.7188,24.6406 69.2188,25.3906 Q68.7344,26.1406 68.7344,27.1719 L68.7344,28.2656 Q68.7344,29.5 69.625,30.3281 Q70.5156,31.1406 72.1094,31.1406 Q73.0469,31.1406 73.7031,30.8906 Q74.0938,30.7344 74.5156,30.2969 Q74.7813,30.0313 74.9219,29.9531 Q75.0781,29.875 75.2813,29.875 Q75.6094,29.875 75.8594,30.1406 Q76.125,30.3906 76.125,30.7344 Q76.125,31.0781 75.7813,31.4844 Q75.2813,32.0625 74.4844,32.3906 Q73.4063,32.8438 72.1094,32.8438 Q70.5938,32.8438 69.3906,32.2188 Q68.4063,31.7188 67.7188,30.6563 Q67.0313,29.5781 67.0313,28.2969 L67.0313,27.1406 Q67.0313,25.8125 67.6406,24.6719 Q68.2656,23.5156 69.3594,22.9063 Q70.4531,22.2813 71.6875,22.2813 Q72.4219,22.2813 73.0625,22.4531 Q73.7188,22.6094 74.2656,22.9688 Z " fill="#000000"/><text fill="#000000" font-family="sans-serif" font-size="14" lengthAdjust="spacing" textLength="93" x="111" y="26.5332">LabelPowerset</text><text fill="#000000" font-family="sans-serif" font-size="10" lengthAdjust="spacing" textLength="144" x="85.5" y="39.9902">mulan.classifier.transformation</text></g><!--MD5=[f962f2d6016676190738e3a721c30e2a]
reverse link mulan.classifier.transformation.LabelPowerset to miml.classifiers.miml.mimlTOmi.MIMLLabelPowerset--><g id="link_mulan.classifier.transformation.LabelPowerset_miml.classifiers.miml.mimlTOmi.MIMLLabelPowerset"><path codeLine="13" d="M144.5,67.44 C144.5,79.8 144.5,93.67 144.5,106.85 " fill="none" id="mulan.classifier.transformation.LabelPowerset-backto-miml.classifiers.miml.mimlTOmi.MIMLLabelPowerset" style="stroke:#181818;stroke-width:1.0;"/><polygon fill="none" points="137.5,67.27,144.5,47.27,151.5,67.27,137.5,67.27" style="stroke:#181818;stroke-width:1.0;"/></g><rect fill="none" height="12.5781" style="stroke:none;stroke-width:1.0;" width="190" x="41.5" y="222.0156"/><text fill="#888888" font-family="sans-serif" font-size="10" lengthAdjust="spacing" textLength="190" x="41.5" y="232.3965">UMLDoclet 2.0.20, PlantUML 1.2022.12</text><!--MD5=[a5cbac4d3a0f9a317429e4cb3ad19d4f]
@startuml
    set namespaceSeparator none
    hide empty fields
    hide empty methods

    class "<size:14>MIMLLabelPowerset\n<size:10>miml.classifiers.miml.mimlTOmi" as miml.classifiers.miml.mimlTOmi.MIMLLabelPowerset [[MIMLLabelPowerset.html]] {
        {static} -serialVersionUID: long
        +MIMLLabelPowerset(Classifier)
        #buildInternal(MultiLabelInstances): void
    }

    class "<size:14>LabelPowerset\n<size:10>mulan.classifier.transformation" as mulan.classifier.transformation.LabelPowerset

    mulan.classifier.transformation.LabelPowerset <|- - miml.classifiers.miml.mimlTOmi.MIMLLabelPowerset

    center footer UMLDoclet 2.0.20, PlantUML 1.2022.12
@enduml

PlantUML version 1.2022.12(Sun Oct 23 20:12:26 CEST 2022)
(APACHE source distribution)
Java Runtime: OpenJDK Runtime Environment
JVM: OpenJDK 64-Bit Server VM
Default Encoding: Cp1252
Language: es
Country: ES
--></g></svg>