<?xml version="1.0" encoding="UTF-8" standalone="no"?><svg xmlns="http://www.w3.org/2000/svg" xmlns:xlink="http://www.w3.org/1999/xlink" contentStyleType="text/css" height="224px" preserveAspectRatio="none" style="width:248px;height:224px;background:#FFFFFF;" version="1.1" viewBox="0 0 248 224" width="248px" zoomAndPan="magnify"><defs/><g><!--MD5=[3ed13af64a7b6dc657bff3d1b0c65534]
class miml.classifiers.miml.mimlTOmi.MIMLBinaryRelevance--><a href="MIMLBinaryRelevance.html" target="_top" title="MIMLBinaryRelevance.html" xlink:actuate="onRequest" xlink:href="MIMLBinaryRelevance.html" xlink:show="new" xlink:title="MIMLBinaryRelevance.html" xlink:type="simple"><g id="elem_miml.classifiers.miml.mimlTOmi.MIMLBinaryRelevance"><rect codeLine="5" fill="#F1F1F1" height="91.4063" id="miml.classifiers.miml.mimlTOmi.MIMLBinaryRelevance" rx="2.5" ry="2.5" style="stroke:#181818;stroke-width:0.5;" width="234" x="7" y="107"/><ellipse cx="44.05" cy="127.0938" fill="#ADD1B2" rx="11" ry="11" style="stroke:#181818;stroke-width:1.0;"/><path d="M46.8156,122.9688 Q46.9719,122.75 47.1594,122.6406 Q47.3469,122.5313 47.5656,122.5313 Q47.9406,122.5313 48.175,122.7969 Q48.4094,123.0469 48.4094,123.6563 L48.4094,125.1094 Q48.4094,125.7188 48.175,125.9844 Q47.9406,126.25 47.5656,126.25 Q47.2219,126.25 47.0188,126.0469 Q46.8156,125.8594 46.7063,125.3438 Q46.6594,124.9844 46.4719,124.7969 Q46.1438,124.4219 45.5344,124.2031 Q44.925,123.9844 44.3,123.9844 Q43.5344,123.9844 42.8938,124.3125 Q42.2688,124.6406 41.7688,125.3906 Q41.2844,126.1406 41.2844,127.1719 L41.2844,128.2656 Q41.2844,129.5 42.175,130.3281 Q43.0656,131.1406 44.6594,131.1406 Q45.5969,131.1406 46.2531,130.8906 Q46.6438,130.7344 47.0656,130.2969 Q47.3313,130.0313 47.4719,129.9531 Q47.6281,129.875 47.8313,129.875 Q48.1594,129.875 48.4094,130.1406 Q48.675,130.3906 48.675,130.7344 Q48.675,131.0781 48.3313,131.4844 Q47.8313,132.0625 47.0344,132.3906 Q45.9563,132.8438 44.6594,132.8438 Q43.1438,132.8438 41.9406,132.2188 Q40.9563,131.7188 40.2688,130.6563 Q39.5813,129.5781 39.5813,128.2969 L39.5813,127.1406 Q39.5813,125.8125 40.1906,124.6719 Q40.8156,123.5156 41.9094,122.9063 Q43.0031,122.2813 44.2375,122.2813 Q44.9719,122.2813 45.6125,122.4531 Q46.2688,122.6094 46.8156,122.9688 Z " fill="#000000"/><text fill="#000000" font-family="sans-serif" font-size="14" lengthAdjust="spacing" textLength="140" x="69.45" y="126.5332">MIMLBinaryRelevance</text><text fill="#000000" font-family="sans-serif" font-size="10" lengthAdjust="spacing" textLength="153" x="62.95" y="139.9902">miml.classifiers.miml.mimlTOmi</text><line style="stroke:#181818;stroke-width:0.5;" x1="8" x2="240" y1="147.1875" y2="147.1875"/><rect fill="none" height="6" style="stroke:#C82930;stroke-width:1.0;" width="6" x="15" y="158.4922"/><text fill="#000000" font-family="sans-serif" font-size="14" lengthAdjust="spacing" text-decoration="underline" textLength="139" x="27" y="165.7207">serialVersionUID: long</text><line style="stroke:#181818;stroke-width:0.5;" x1="8" x2="240" y1="172.7969" y2="172.7969"/><ellipse cx="18" cy="187.1016" fill="#84BE84" rx="3" ry="3" style="stroke:#038048;stroke-width:1.0;"/><text fill="#000000" font-family="sans-serif" font-size="14" lengthAdjust="spacing" textLength="208" x="27" y="191.3301">MIMLBinaryRelevance(Classifier)</text></g></a><!--MD5=[29e9497a1cc5896e26329517d8552494]
class mulan.classifier.transformation.BinaryRelevance--><g id="elem_mulan.classifier.transformation.BinaryRelevance"><rect codeLine="10" fill="#F1F1F1" height="40.1875" id="mulan.classifier.transformation.BinaryRelevance" rx="2.5" ry="2.5" style="stroke:#181818;stroke-width:0.5;" width="176" x="36" y="7"/><ellipse cx="51" cy="27.0938" fill="#ADD1B2" rx="11" ry="11" style="stroke:#181818;stroke-width:1.0;"/><path d="M53.7656,22.9688 Q53.9219,22.75 54.1094,22.6406 Q54.2969,22.5313 54.5156,22.5313 Q54.8906,22.5313 55.125,22.7969 Q55.3594,23.0469 55.3594,23.6563 L55.3594,25.1094 Q55.3594,25.7188 55.125,25.9844 Q54.8906,26.25 54.5156,26.25 Q54.1719,26.25 53.9688,26.0469 Q53.7656,25.8594 53.6563,25.3438 Q53.6094,24.9844 53.4219,24.7969 Q53.0938,24.4219 52.4844,24.2031 Q51.875,23.9844 51.25,23.9844 Q50.4844,23.9844 49.8438,24.3125 Q49.2188,24.6406 48.7188,25.3906 Q48.2344,26.1406 48.2344,27.1719 L48.2344,28.2656 Q48.2344,29.5 49.125,30.3281 Q50.0156,31.1406 51.6094,31.1406 Q52.5469,31.1406 53.2031,30.8906 Q53.5938,30.7344 54.0156,30.2969 Q54.2813,30.0313 54.4219,29.9531 Q54.5781,29.875 54.7813,29.875 Q55.1094,29.875 55.3594,30.1406 Q55.625,30.3906 55.625,30.7344 Q55.625,31.0781 55.2813,31.4844 Q54.7813,32.0625 53.9844,32.3906 Q52.9063,32.8438 51.6094,32.8438 Q50.0938,32.8438 48.8906,32.2188 Q47.9063,31.7188 47.2188,30.6563 Q46.5313,29.5781 46.5313,28.2969 L46.5313,27.1406 Q46.5313,25.8125 47.1406,24.6719 Q47.7656,23.5156 48.8594,22.9063 Q49.9531,22.2813 51.1875,22.2813 Q51.9219,22.2813 52.5625,22.4531 Q53.2188,22.6094 53.7656,22.9688 Z " fill="#000000"/><text fill="#000000" font-family="sans-serif" font-size="14" lengthAdjust="spacing" textLength="107" x="83.5" y="26.5332">BinaryRelevance</text><text fill="#000000" font-family="sans-serif" font-size="10" lengthAdjust="spacing" textLength="144" x="65" y="39.9902">mulan.classifier.transformation</text></g><!--MD5=[f20465a4c4bc2b4c1124333ea2e3e79b]
reverse link mulan.classifier.transformation.BinaryRelevance to miml.classifiers.miml.mimlTOmi.MIMLBinaryRelevance--><g id="link_mulan.classifier.transformation.BinaryRelevance_miml.classifiers.miml.mimlTOmi.MIMLBinaryRelevance"><path codeLine="12" d="M124,67.04 C124,79.68 124,93.79 124,106.81 " fill="none" id="mulan.classifier.transformation.BinaryRelevance-backto-miml.classifiers.miml.mimlTOmi.MIMLBinaryRelevance" style="stroke:#181818;stroke-width:1.0;"/><polygon fill="none" points="117,67.03,124,47.03,131,67.03,117,67.03" style="stroke:#181818;stroke-width:1.0;"/></g><rect fill="none" height="12.5781" style="stroke:none;stroke-width:1.0;" width="190" x="22" y="204.4063"/><text fill="#888888" font-family="sans-serif" font-size="10" lengthAdjust="spacing" textLength="190" x="22" y="214.7871">UMLDoclet 2.0.20, PlantUML 1.2022.12</text><!--MD5=[cc8be7d0db52499cec767e5fef966670]
@startuml
    set namespaceSeparator none
    hide empty fields
    hide empty methods

    class "<size:14>MIMLBinaryRelevance\n<size:10>miml.classifiers.miml.mimlTOmi" as miml.classifiers.miml.mimlTOmi.MIMLBinaryRelevance [[MIMLBinaryRelevance.html]] {
        {static} -serialVersionUID: long
        +MIMLBinaryRelevance(Classifier)
    }

    class "<size:14>BinaryRelevance\n<size:10>mulan.classifier.transformation" as mulan.classifier.transformation.BinaryRelevance

    mulan.classifier.transformation.BinaryRelevance <|- - miml.classifiers.miml.mimlTOmi.MIMLBinaryRelevance

    center footer UMLDoclet 2.0.20, PlantUML 1.2022.12
@enduml

PlantUML version 1.2022.12(Sun Oct 23 20:12:26 CEST 2022)
(APACHE source distribution)
Java Runtime: OpenJDK Runtime Environment
JVM: OpenJDK 64-Bit Server VM
Default Encoding: Cp1252
Language: es
Country: ES
--></g></svg>