<?xml version="1.0" encoding="UTF-8" standalone="no"?><svg xmlns="http://www.w3.org/2000/svg" xmlns:xlink="http://www.w3.org/1999/xlink" contentStyleType="text/css" height="537px" preserveAspectRatio="none" style="width:1078px;height:537px;background:#FFFFFF;" version="1.1" viewBox="0 0 1078 537" width="1078px" zoomAndPan="magnify"><defs/><g><!--MD5=[1830045dcbcc568559a4dfb7905be1d9]
cluster miml.classifiers.miml.mimlTOmi--><g id="cluster_miml.classifiers.miml.mimlTOmi"><path d="M74.5,288 L290.5,288 A3.75,3.75 0 0 1 293,290.5 L300,311.6094 L1031.5,311.6094 A2.5,2.5 0 0 1 1034,314.1094 L1034,508.5 A2.5,2.5 0 0 1 1031.5,511 L74.5,511 A2.5,2.5 0 0 1 72,508.5 L72,290.5 A2.5,2.5 0 0 1 74.5,288 " fill="none" style="stroke:#000000;stroke-width:1.5;"/><line style="stroke:#000000;stroke-width:1.5;" x1="72" x2="300" y1="311.6094" y2="311.6094"/><text fill="#000000" font-family="sans-serif" font-size="14" font-weight="bold" lengthAdjust="spacing" textLength="215" x="76" y="304.5332">miml.classifiers.miml.mimlTOmi</text></g><!--MD5=[ceb15ef54da82b13e79ee5a33be353ce]
cluster mulan.classifier.transformation--><g id="cluster_mulan.classifier.transformation"><path d="M8.5,41 L226.5,41 A3.75,3.75 0 0 1 229,43.5 L236,64.6094 L652.5,64.6094 A2.5,2.5 0 0 1 655,67.1094 L655,226.5 A2.5,2.5 0 0 1 652.5,229 L8.5,229 A2.5,2.5 0 0 1 6,226.5 L6,43.5 A2.5,2.5 0 0 1 8.5,41 " fill="none" style="stroke:#000000;stroke-width:1.5;"/><line style="stroke:#000000;stroke-width:1.5;" x1="6" x2="236" y1="64.6094" y2="64.6094"/><text fill="#000000" font-family="sans-serif" font-size="14" font-weight="bold" lengthAdjust="spacing" textLength="217" x="10" y="57.5332">mulan.classifier.transformation</text></g><!--MD5=[5ea508e6e8d0b42a39d8ea5f6e56fa35]
cluster miml.classifiers.miml--><g id="cluster_miml.classifiers.miml"><path d="M681.5,6 L826.5,6 A3.75,3.75 0 0 1 829,8.5 L836,29.6094 L1068.5,29.6094 A2.5,2.5 0 0 1 1071,32.1094 L1071,261.5 A2.5,2.5 0 0 1 1068.5,264 L681.5,264 A2.5,2.5 0 0 1 679,261.5 L679,8.5 A2.5,2.5 0 0 1 681.5,6 " fill="none" style="stroke:#000000;stroke-width:1.5;"/><line style="stroke:#000000;stroke-width:1.5;" x1="679" x2="836" y1="29.6094" y2="29.6094"/><text fill="#000000" font-family="sans-serif" font-size="14" font-weight="bold" lengthAdjust="spacing" textLength="144" x="683" y="22.5332">miml.classifiers.miml</text></g><!--MD5=[3ed13af64a7b6dc657bff3d1b0c65534]
class miml.classifiers.miml.mimlTOmi.MIMLBinaryRelevance--><a href="MIMLBinaryRelevance.html" target="_top" title="MIMLBinaryRelevance.html" xlink:actuate="onRequest" xlink:href="MIMLBinaryRelevance.html" xlink:show="new" xlink:title="MIMLBinaryRelevance.html" xlink:type="simple"><g id="elem_miml.classifiers.miml.mimlTOmi.MIMLBinaryRelevance"><rect codeLine="3" fill="#F1F1F1" height="83.2188" id="miml.classifiers.miml.mimlTOmi.MIMLBinaryRelevance" rx="2.5" ry="2.5" style="stroke:#181818;stroke-width:0.5;" width="234" x="395" y="368"/><ellipse cx="437.9" cy="384" fill="#ADD1B2" rx="11" ry="11" style="stroke:#181818;stroke-width:1.0;"/><path d="M440.6656,379.875 Q440.8219,379.6563 441.0094,379.5469 Q441.1969,379.4375 441.4156,379.4375 Q441.7906,379.4375 442.025,379.7031 Q442.2594,379.9531 442.2594,380.5625 L442.2594,382.0156 Q442.2594,382.625 442.025,382.8906 Q441.7906,383.1563 441.4156,383.1563 Q441.0719,383.1563 440.8688,382.9531 Q440.6656,382.7656 440.5563,382.25 Q440.5094,381.8906 440.3219,381.7031 Q439.9938,381.3281 439.3844,381.1094 Q438.775,380.8906 438.15,380.8906 Q437.3844,380.8906 436.7438,381.2188 Q436.1188,381.5469 435.6188,382.2969 Q435.1344,383.0469 435.1344,384.0781 L435.1344,385.1719 Q435.1344,386.4063 436.025,387.2344 Q436.9156,388.0469 438.5094,388.0469 Q439.4469,388.0469 440.1031,387.7969 Q440.4938,387.6406 440.9156,387.2031 Q441.1813,386.9375 441.3219,386.8594 Q441.4781,386.7813 441.6813,386.7813 Q442.0094,386.7813 442.2594,387.0469 Q442.525,387.2969 442.525,387.6406 Q442.525,387.9844 442.1813,388.3906 Q441.6813,388.9688 440.8844,389.2969 Q439.8063,389.75 438.5094,389.75 Q436.9938,389.75 435.7906,389.125 Q434.8063,388.625 434.1188,387.5625 Q433.4313,386.4844 433.4313,385.2031 L433.4313,384.0469 Q433.4313,382.7188 434.0406,381.5781 Q434.6656,380.4219 435.7594,379.8125 Q436.8531,379.1875 438.0875,379.1875 Q438.8219,379.1875 439.4625,379.3594 Q440.1188,379.5156 440.6656,379.875 Z " fill="#000000"/><text fill="#000000" font-family="sans-serif" font-size="14" lengthAdjust="spacing" textLength="140" x="458.1" y="389.7285">MIMLBinaryRelevance</text><line style="stroke:#181818;stroke-width:0.5;" x1="396" x2="628" y1="400" y2="400"/><rect fill="none" height="6" style="stroke:#C82930;stroke-width:1.0;" width="6" x="403" y="411.3047"/><text fill="#000000" font-family="sans-serif" font-size="14" lengthAdjust="spacing" text-decoration="underline" textLength="139" x="415" y="418.5332">serialVersionUID: long</text><line style="stroke:#181818;stroke-width:0.5;" x1="396" x2="628" y1="425.6094" y2="425.6094"/><ellipse cx="406" cy="439.9141" fill="#84BE84" rx="3" ry="3" style="stroke:#038048;stroke-width:1.0;"/><text fill="#000000" font-family="sans-serif" font-size="14" lengthAdjust="spacing" textLength="208" x="415" y="444.1426">MIMLBinaryRelevance(Classifier)</text></g></a><!--MD5=[5ff20c3cc7d98d231e667186cf094e07]
class miml.classifiers.miml.mimlTOmi.MIMLClassifierToMI--><a href="MIMLClassifierToMI.html" target="_top" title="MIMLClassifierToMI.html" xlink:actuate="onRequest" xlink:href="MIMLClassifierToMI.html" xlink:show="new" xlink:title="MIMLClassifierToMI.html" xlink:type="simple"><g id="elem_miml.classifiers.miml.mimlTOmi.MIMLClassifierToMI"><rect codeLine="8" fill="#F1F1F1" height="171.2656" id="miml.classifiers.miml.mimlTOmi.MIMLClassifierToMI" rx="2.5" ry="2.5" style="stroke:#181818;stroke-width:0.5;" width="353" x="664.5" y="324"/><ellipse cx="775.75" cy="340" fill="#ADD1B2" rx="11" ry="11" style="stroke:#181818;stroke-width:1.0;"/><path d="M778.5156,335.875 Q778.6719,335.6563 778.8594,335.5469 Q779.0469,335.4375 779.2656,335.4375 Q779.6406,335.4375 779.875,335.7031 Q780.1094,335.9531 780.1094,336.5625 L780.1094,338.0156 Q780.1094,338.625 779.875,338.8906 Q779.6406,339.1563 779.2656,339.1563 Q778.9219,339.1563 778.7188,338.9531 Q778.5156,338.7656 778.4063,338.25 Q778.3594,337.8906 778.1719,337.7031 Q777.8438,337.3281 777.2344,337.1094 Q776.625,336.8906 776,336.8906 Q775.2344,336.8906 774.5938,337.2188 Q773.9688,337.5469 773.4688,338.2969 Q772.9844,339.0469 772.9844,340.0781 L772.9844,341.1719 Q772.9844,342.4063 773.875,343.2344 Q774.7656,344.0469 776.3594,344.0469 Q777.2969,344.0469 777.9531,343.7969 Q778.3438,343.6406 778.7656,343.2031 Q779.0313,342.9375 779.1719,342.8594 Q779.3281,342.7813 779.5313,342.7813 Q779.8594,342.7813 780.1094,343.0469 Q780.375,343.2969 780.375,343.6406 Q780.375,343.9844 780.0313,344.3906 Q779.5313,344.9688 778.7344,345.2969 Q777.6563,345.75 776.3594,345.75 Q774.8438,345.75 773.6406,345.125 Q772.6563,344.625 771.9688,343.5625 Q771.2813,342.4844 771.2813,341.2031 L771.2813,340.0469 Q771.2813,338.7188 771.8906,337.5781 Q772.5156,336.4219 773.6094,335.8125 Q774.7031,335.1875 775.9375,335.1875 Q776.6719,335.1875 777.3125,335.3594 Q777.9688,335.5156 778.5156,335.875 Z " fill="#000000"/><text fill="#000000" font-family="sans-serif" font-size="14" lengthAdjust="spacing" textLength="122" x="796.25" y="345.7285">MIMLClassifierToMI</text><line style="stroke:#181818;stroke-width:0.5;" x1="665.5" x2="1016.5" y1="356" y2="356"/><rect fill="none" height="6" style="stroke:#C82930;stroke-width:1.0;" width="6" x="672.5" y="367.3047"/><text fill="#000000" font-family="sans-serif" font-size="14" lengthAdjust="spacing" text-decoration="underline" textLength="139" x="684.5" y="374.5332">serialVersionUID: long</text><polygon fill="none" points="675.5,382.9141,679.5,386.9141,675.5,390.9141,671.5,386.9141" style="stroke:#B38D22;stroke-width:1.0;"/><text fill="#000000" font-family="sans-serif" font-size="14" lengthAdjust="spacing" textLength="271" x="684.5" y="392.1426">transformationClassifier: MultiLabelLearner</text><line style="stroke:#181818;stroke-width:0.5;" x1="665.5" x2="1016.5" y1="399.2188" y2="399.2188"/><ellipse cx="675.5" cy="413.5234" fill="#84BE84" rx="3" ry="3" style="stroke:#038048;stroke-width:1.0;"/><text fill="#000000" font-family="sans-serif" font-size="14" lengthAdjust="spacing" textLength="246" x="684.5" y="417.752">MIMLClassifierToMI(MultiLabelLearner)</text><ellipse cx="675.5" cy="431.1328" fill="#84BE84" rx="3" ry="3" style="stroke:#038048;stroke-width:1.0;"/><text fill="#000000" font-family="sans-serif" font-size="14" lengthAdjust="spacing" textLength="132" x="684.5" y="435.3613">MIMLClassifierToMI()</text><polygon fill="#FFFF44" points="675.5,443.7422,679.5,447.7422,675.5,451.7422,671.5,447.7422" style="stroke:#B38D22;stroke-width:1.0;"/><text fill="#000000" font-family="sans-serif" font-size="14" lengthAdjust="spacing" textLength="214" x="684.5" y="452.9707">buildInternal(MIMLInstances): void</text><polygon fill="#FFFF44" points="675.5,461.3516,679.5,465.3516,675.5,469.3516,671.5,465.3516" style="stroke:#B38D22;stroke-width:1.0;"/><text fill="#000000" font-family="sans-serif" font-size="14" lengthAdjust="spacing" textLength="327" x="684.5" y="470.5801">makePredictionInternal(MIMLBag): MultiLabelOutput</text><ellipse cx="675.5" cy="483.9609" fill="#84BE84" rx="3" ry="3" style="stroke:#038048;stroke-width:1.0;"/><text fill="#000000" font-family="sans-serif" font-size="14" lengthAdjust="spacing" textLength="188" x="684.5" y="488.1895">configure(Configuration): void</text></g></a><!--MD5=[97e00c23c0aef8b07e6c6b199b336ee3]
class miml.classifiers.miml.mimlTOmi.MIMLLabelPowerset--><a href="MIMLLabelPowerset.html" target="_top" title="MIMLLabelPowerset.html" xlink:actuate="onRequest" xlink:href="MIMLLabelPowerset.html" xlink:show="new" xlink:title="MIMLLabelPowerset.html" xlink:type="simple"><g id="elem_miml.classifiers.miml.mimlTOmi.MIMLLabelPowerset"><rect codeLine="18" fill="#F1F1F1" height="100.8281" id="miml.classifiers.miml.mimlTOmi.MIMLLabelPowerset" rx="2.5" ry="2.5" style="stroke:#181818;stroke-width:0.5;" width="271" x="88.5" y="359"/><ellipse cx="156.75" cy="375" fill="#ADD1B2" rx="11" ry="11" style="stroke:#181818;stroke-width:1.0;"/><path d="M159.5156,370.875 Q159.6719,370.6563 159.8594,370.5469 Q160.0469,370.4375 160.2656,370.4375 Q160.6406,370.4375 160.875,370.7031 Q161.1094,370.9531 161.1094,371.5625 L161.1094,373.0156 Q161.1094,373.625 160.875,373.8906 Q160.6406,374.1563 160.2656,374.1563 Q159.9219,374.1563 159.7188,373.9531 Q159.5156,373.7656 159.4063,373.25 Q159.3594,372.8906 159.1719,372.7031 Q158.8438,372.3281 158.2344,372.1094 Q157.625,371.8906 157,371.8906 Q156.2344,371.8906 155.5938,372.2188 Q154.9688,372.5469 154.4688,373.2969 Q153.9844,374.0469 153.9844,375.0781 L153.9844,376.1719 Q153.9844,377.4063 154.875,378.2344 Q155.7656,379.0469 157.3594,379.0469 Q158.2969,379.0469 158.9531,378.7969 Q159.3438,378.6406 159.7656,378.2031 Q160.0313,377.9375 160.1719,377.8594 Q160.3281,377.7813 160.5313,377.7813 Q160.8594,377.7813 161.1094,378.0469 Q161.375,378.2969 161.375,378.6406 Q161.375,378.9844 161.0313,379.3906 Q160.5313,379.9688 159.7344,380.2969 Q158.6563,380.75 157.3594,380.75 Q155.8438,380.75 154.6406,380.125 Q153.6563,379.625 152.9688,378.5625 Q152.2813,377.4844 152.2813,376.2031 L152.2813,375.0469 Q152.2813,373.7188 152.8906,372.5781 Q153.5156,371.4219 154.6094,370.8125 Q155.7031,370.1875 156.9375,370.1875 Q157.6719,370.1875 158.3125,370.3594 Q158.9688,370.5156 159.5156,370.875 Z " fill="#000000"/><text fill="#000000" font-family="sans-serif" font-size="14" lengthAdjust="spacing" textLength="126" x="177.25" y="380.7285">MIMLLabelPowerset</text><line style="stroke:#181818;stroke-width:0.5;" x1="89.5" x2="358.5" y1="391" y2="391"/><rect fill="none" height="6" style="stroke:#C82930;stroke-width:1.0;" width="6" x="96.5" y="402.3047"/><text fill="#000000" font-family="sans-serif" font-size="14" lengthAdjust="spacing" text-decoration="underline" textLength="139" x="108.5" y="409.5332">serialVersionUID: long</text><line style="stroke:#181818;stroke-width:0.5;" x1="89.5" x2="358.5" y1="416.6094" y2="416.6094"/><ellipse cx="99.5" cy="430.9141" fill="#84BE84" rx="3" ry="3" style="stroke:#038048;stroke-width:1.0;"/><text fill="#000000" font-family="sans-serif" font-size="14" lengthAdjust="spacing" textLength="194" x="108.5" y="435.1426">MIMLLabelPowerset(Classifier)</text><polygon fill="#FFFF44" points="99.5,443.5234,103.5,447.5234,99.5,451.5234,95.5,447.5234" style="stroke:#B38D22;stroke-width:1.0;"/><text fill="#000000" font-family="sans-serif" font-size="14" lengthAdjust="spacing" textLength="245" x="108.5" y="452.752">buildInternal(MultiLabelInstances): void</text></g></a><!--MD5=[29e9497a1cc5896e26329517d8552494]
class mulan.classifier.transformation.BinaryRelevance--><g id="elem_mulan.classifier.transformation.BinaryRelevance"><rect codeLine="30" fill="#F1F1F1" height="100.8281" id="mulan.classifier.transformation.BinaryRelevance" rx="2.5" ry="2.5" style="stroke:#181818;stroke-width:0.5;" width="254" x="385" y="94.5"/><ellipse cx="454.25" cy="110.5" fill="#ADD1B2" rx="11" ry="11" style="stroke:#181818;stroke-width:1.0;"/><path d="M457.0156,106.375 Q457.1719,106.1563 457.3594,106.0469 Q457.5469,105.9375 457.7656,105.9375 Q458.1406,105.9375 458.375,106.2031 Q458.6094,106.4531 458.6094,107.0625 L458.6094,108.5156 Q458.6094,109.125 458.375,109.3906 Q458.1406,109.6563 457.7656,109.6563 Q457.4219,109.6563 457.2188,109.4531 Q457.0156,109.2656 456.9063,108.75 Q456.8594,108.3906 456.6719,108.2031 Q456.3438,107.8281 455.7344,107.6094 Q455.125,107.3906 454.5,107.3906 Q453.7344,107.3906 453.0938,107.7188 Q452.4688,108.0469 451.9688,108.7969 Q451.4844,109.5469 451.4844,110.5781 L451.4844,111.6719 Q451.4844,112.9063 452.375,113.7344 Q453.2656,114.5469 454.8594,114.5469 Q455.7969,114.5469 456.4531,114.2969 Q456.8438,114.1406 457.2656,113.7031 Q457.5313,113.4375 457.6719,113.3594 Q457.8281,113.2813 458.0313,113.2813 Q458.3594,113.2813 458.6094,113.5469 Q458.875,113.7969 458.875,114.1406 Q458.875,114.4844 458.5313,114.8906 Q458.0313,115.4688 457.2344,115.7969 Q456.1563,116.25 454.8594,116.25 Q453.3438,116.25 452.1406,115.625 Q451.1563,115.125 450.4688,114.0625 Q449.7813,112.9844 449.7813,111.7031 L449.7813,110.5469 Q449.7813,109.2188 450.3906,108.0781 Q451.0156,106.9219 452.1094,106.3125 Q453.2031,105.6875 454.4375,105.6875 Q455.1719,105.6875 455.8125,105.8594 Q456.4688,106.0156 457.0156,106.375 Z " fill="#000000"/><text fill="#000000" font-family="sans-serif" font-size="14" lengthAdjust="spacing" textLength="107" x="474.75" y="116.2285">BinaryRelevance</text><line style="stroke:#181818;stroke-width:0.5;" x1="386" x2="638" y1="126.5" y2="126.5"/><polygon fill="none" points="396,135.8047,400,139.8047,396,143.8047,392,139.8047" style="stroke:#B38D22;stroke-width:1.0;"/><text fill="#000000" font-family="sans-serif" font-size="14" lengthAdjust="spacing" textLength="135" x="405" y="145.0332">ensemble: Classifier[]</text><rect fill="none" height="6" style="stroke:#C82930;stroke-width:1.0;" width="6" x="393" y="155.4141"/><text fill="#000000" font-family="sans-serif" font-size="14" lengthAdjust="spacing" textLength="156" x="405" y="162.6426">correspondence: String[]</text><rect fill="none" height="6" style="stroke:#C82930;stroke-width:1.0;" width="6" x="393" y="173.0234"/><text fill="#000000" font-family="sans-serif" font-size="14" lengthAdjust="spacing" textLength="228" x="405" y="180.252">brt: BinaryRelevanceTransformation</text><line style="stroke:#181818;stroke-width:0.5;" x1="386" x2="638" y1="187.3281" y2="187.3281"/></g><!--MD5=[4407ad2da7179bcbf8c59fb046e41957]
class mulan.classifier.transformation.LabelPowerset--><g id="elem_mulan.classifier.transformation.LabelPowerset"><rect codeLine="35" fill="#F1F1F1" height="136.0469" id="mulan.classifier.transformation.LabelPowerset" rx="2.5" ry="2.5" style="stroke:#181818;stroke-width:0.5;" width="327" x="22.5" y="77"/><ellipse cx="135.25" cy="93" fill="#ADD1B2" rx="11" ry="11" style="stroke:#181818;stroke-width:1.0;"/><path d="M138.0156,88.875 Q138.1719,88.6563 138.3594,88.5469 Q138.5469,88.4375 138.7656,88.4375 Q139.1406,88.4375 139.375,88.7031 Q139.6094,88.9531 139.6094,89.5625 L139.6094,91.0156 Q139.6094,91.625 139.375,91.8906 Q139.1406,92.1563 138.7656,92.1563 Q138.4219,92.1563 138.2188,91.9531 Q138.0156,91.7656 137.9063,91.25 Q137.8594,90.8906 137.6719,90.7031 Q137.3438,90.3281 136.7344,90.1094 Q136.125,89.8906 135.5,89.8906 Q134.7344,89.8906 134.0938,90.2188 Q133.4688,90.5469 132.9688,91.2969 Q132.4844,92.0469 132.4844,93.0781 L132.4844,94.1719 Q132.4844,95.4063 133.375,96.2344 Q134.2656,97.0469 135.8594,97.0469 Q136.7969,97.0469 137.4531,96.7969 Q137.8438,96.6406 138.2656,96.2031 Q138.5313,95.9375 138.6719,95.8594 Q138.8281,95.7813 139.0313,95.7813 Q139.3594,95.7813 139.6094,96.0469 Q139.875,96.2969 139.875,96.6406 Q139.875,96.9844 139.5313,97.3906 Q139.0313,97.9688 138.2344,98.2969 Q137.1563,98.75 135.8594,98.75 Q134.3438,98.75 133.1406,98.125 Q132.1563,97.625 131.4688,96.5625 Q130.7813,95.4844 130.7813,94.2031 L130.7813,93.0469 Q130.7813,91.7188 131.3906,90.5781 Q132.0156,89.4219 133.1094,88.8125 Q134.2031,88.1875 135.4375,88.1875 Q136.1719,88.1875 136.8125,88.3594 Q137.4688,88.5156 138.0156,88.875 Z " fill="#000000"/><text fill="#000000" font-family="sans-serif" font-size="14" lengthAdjust="spacing" textLength="93" x="155.75" y="98.7285">LabelPowerset</text><line style="stroke:#181818;stroke-width:0.5;" x1="23.5" x2="348.5" y1="109" y2="109"/><rect fill="none" height="6" style="stroke:#C82930;stroke-width:1.0;" width="6" x="30.5" y="120.3047"/><text fill="#000000" font-family="sans-serif" font-size="14" lengthAdjust="spacing" textLength="209" x="42.5" y="127.5332">confidenceCalculationMethod: int</text><polygon fill="none" points="33.5,135.9141,37.5,139.9141,33.5,143.9141,29.5,139.9141" style="stroke:#B38D22;stroke-width:1.0;"/><text fill="#000000" font-family="sans-serif" font-size="14" lengthAdjust="spacing" textLength="301" x="42.5" y="145.1426">makePredictionsBasedOnConfidences: boolean</text><polygon fill="none" points="33.5,153.5234,37.5,157.5234,33.5,161.5234,29.5,157.5234" style="stroke:#B38D22;stroke-width:1.0;"/><text fill="#000000" font-family="sans-serif" font-size="14" lengthAdjust="spacing" textLength="110" x="42.5" y="162.752">threshold: double</text><polygon fill="none" points="33.5,171.1328,37.5,175.1328,33.5,179.1328,29.5,175.1328" style="stroke:#B38D22;stroke-width:1.0;"/><text fill="#000000" font-family="sans-serif" font-size="14" lengthAdjust="spacing" textLength="288" x="42.5" y="180.3613">transformation: LabelPowersetTransformation</text><polygon fill="none" points="33.5,188.7422,37.5,192.7422,33.5,196.7422,29.5,192.7422" style="stroke:#B38D22;stroke-width:1.0;"/><text fill="#000000" font-family="sans-serif" font-size="14" lengthAdjust="spacing" textLength="95" x="42.5" y="197.9707">Rand: Random</text><line style="stroke:#181818;stroke-width:0.5;" x1="23.5" x2="348.5" y1="205.0469" y2="205.0469"/></g><!--MD5=[991e2d4b1b011fcbac8561f9fc322429]
class miml.classifiers.miml.MIMLClassifier--><a href="..\MIMLClassifier.html" target="_top" title="..\MIMLClassifier.html" xlink:actuate="onRequest" xlink:href="..\MIMLClassifier.html" xlink:show="new" xlink:title="..\MIMLClassifier.html" xlink:type="simple"><g id="elem_miml.classifiers.miml.MIMLClassifier"><rect codeLine="45" fill="#F1F1F1" height="206.4844" id="miml.classifiers.miml.MIMLClassifier" rx="2.5" ry="2.5" style="stroke:#181818;stroke-width:0.5;" width="359" x="695.5" y="42"/><ellipse cx="823.75" cy="58" fill="#A9DCDF" rx="11" ry="11" style="stroke:#181818;stroke-width:1.0;"/><path d="M825.9375,59.7656 L821.7969,59.7656 L821.375,60.7969 L821.7969,60.7969 Q822.4063,60.7969 822.6719,61.0313 Q822.9375,61.2656 822.9375,61.6563 Q822.9375,62.0313 822.6719,62.2656 Q822.4063,62.5 821.7969,62.5 L819.5,62.5 Q818.8906,62.5 818.6406,62.2656 Q818.375,62.0313 818.375,61.6406 Q818.375,61.2656 818.6563,61.0313 Q818.9219,60.7813 819.5469,60.7969 L822.2188,54.1406 L821.1094,54.1406 Q820.5,54.1406 820.2344,53.9063 Q819.9688,53.6719 819.9688,53.2813 Q819.9688,52.9063 820.2344,52.6719 Q820.5,52.4375 821.1094,52.4375 L824.7813,52.4375 L828.1719,60.7969 Q828.7656,60.7969 828.9531,60.9375 Q829.3438,61.2031 829.3438,61.6563 Q829.3438,62.0313 829.0781,62.2656 Q828.8281,62.5 828.2188,62.5 L825.9219,62.5 Q825.3125,62.5 825.0469,62.2656 Q824.7813,62.0313 824.7813,61.6406 Q824.7813,61.2656 825.0469,61.0313 Q825.3125,60.7969 825.9219,60.7969 L826.3438,60.7969 L825.9375,59.7656 Z M825.2188,58.0625 L823.8594,54.6875 L822.4844,58.0625 L825.2188,58.0625 Z " fill="#000000"/><text fill="#000000" font-family="sans-serif" font-size="14" font-style="italic" lengthAdjust="spacing" textLength="94" x="844.25" y="63.7285">MIMLClassifier</text><line style="stroke:#181818;stroke-width:0.5;" x1="696.5" x2="1053.5" y1="74" y2="74"/><rect fill="none" height="6" style="stroke:#C82930;stroke-width:1.0;" width="6" x="703.5" y="85.3047"/><text fill="#000000" font-family="sans-serif" font-size="14" lengthAdjust="spacing" text-decoration="underline" textLength="139" x="715.5" y="92.5332">serialVersionUID: long</text><polygon fill="none" points="706.5,100.9141,710.5,104.9141,706.5,108.9141,702.5,104.9141" style="stroke:#B38D22;stroke-width:1.0;"/><text fill="#000000" font-family="sans-serif" font-size="14" lengthAdjust="spacing" textLength="164" x="715.5" y="110.1426">isModelInitialized: boolean</text><polygon fill="none" points="706.5,118.5234,710.5,122.5234,706.5,126.5234,702.5,122.5234" style="stroke:#B38D22;stroke-width:1.0;"/><text fill="#000000" font-family="sans-serif" font-size="14" lengthAdjust="spacing" textLength="92" x="715.5" y="127.752">numLabels: int</text><polygon fill="none" points="706.5,136.1328,710.5,140.1328,706.5,144.1328,702.5,140.1328" style="stroke:#B38D22;stroke-width:1.0;"/><text fill="#000000" font-family="sans-serif" font-size="14" lengthAdjust="spacing" textLength="105" x="715.5" y="145.3613">labelIndices: int[]</text><polygon fill="none" points="706.5,153.7422,710.5,157.7422,706.5,161.7422,702.5,157.7422" style="stroke:#B38D22;stroke-width:1.0;"/><text fill="#000000" font-family="sans-serif" font-size="14" lengthAdjust="spacing" textLength="126" x="715.5" y="162.9707">labelNames: String[]</text><polygon fill="none" points="706.5,171.3516,710.5,175.3516,706.5,179.3516,702.5,175.3516" style="stroke:#B38D22;stroke-width:1.0;"/><text fill="#000000" font-family="sans-serif" font-size="14" lengthAdjust="spacing" textLength="120" x="715.5" y="180.5801">featureIndices: int[]</text><rect fill="none" height="6" style="stroke:#C82930;stroke-width:1.0;" width="6" x="703.5" y="190.9609"/><text fill="#000000" font-family="sans-serif" font-size="14" lengthAdjust="spacing" textLength="111" x="715.5" y="198.1895">isDebug: boolean</text><line style="stroke:#181818;stroke-width:0.5;" x1="696.5" x2="1053.5" y1="205.2656" y2="205.2656"/><polygon fill="#FFFF44" points="706.5,214.5703,710.5,218.5703,706.5,222.5703,702.5,218.5703" style="stroke:#B38D22;stroke-width:1.0;"/><text fill="#000000" font-family="sans-serif" font-size="14" font-style="italic" lengthAdjust="spacing" textLength="218" x="715.5" y="223.7988">buildInternal(MIMLInstances): void</text><polygon fill="#FFFF44" points="706.5,232.1797,710.5,236.1797,706.5,240.1797,702.5,236.1797" style="stroke:#B38D22;stroke-width:1.0;"/><text fill="#000000" font-family="sans-serif" font-size="14" font-style="italic" lengthAdjust="spacing" textLength="333" x="715.5" y="241.4082">makePredictionInternal(MIMLBag): MultiLabelOutput</text></g></a><!--MD5=[f20465a4c4bc2b4c1124333ea2e3e79b]
reverse link mulan.classifier.transformation.BinaryRelevance to miml.classifiers.miml.mimlTOmi.MIMLBinaryRelevance--><g id="link_mulan.classifier.transformation.BinaryRelevance_miml.classifiers.miml.mimlTOmi.MIMLBinaryRelevance"><path codeLine="24" d="M512,215.79 C512,264.23 512,327.11 512,367.64 " fill="none" id="mulan.classifier.transformation.BinaryRelevance-backto-miml.classifiers.miml.mimlTOmi.MIMLBinaryRelevance" style="stroke:#181818;stroke-width:1.0;"/><polygon fill="none" points="505,215.68,512,195.68,519,215.68,505,215.68" style="stroke:#181818;stroke-width:1.0;"/></g><!--MD5=[41e00c4553f71aff8e9c58e817e23749]
reverse link miml.classifiers.miml.MIMLClassifier to miml.classifiers.miml.mimlTOmi.MIMLClassifierToMI--><g id="link_miml.classifiers.miml.MIMLClassifier_miml.classifiers.miml.mimlTOmi.MIMLClassifierToMI"><path codeLine="25" d="M859.18,268.14 C856.74,287.01 854.26,306.13 851.95,323.94 " fill="none" id="miml.classifiers.miml.MIMLClassifier-backto-miml.classifiers.miml.mimlTOmi.MIMLClassifierToMI" style="stroke:#181818;stroke-width:1.0;"/><polygon fill="none" points="852.25,267.18,861.76,248.24,866.13,268.97,852.25,267.18" style="stroke:#181818;stroke-width:1.0;"/></g><!--MD5=[f962f2d6016676190738e3a721c30e2a]
reverse link mulan.classifier.transformation.LabelPowerset to miml.classifiers.miml.mimlTOmi.MIMLLabelPowerset--><g id="link_mulan.classifier.transformation.LabelPowerset_miml.classifiers.miml.mimlTOmi.MIMLLabelPowerset"><path codeLine="26" d="M198.61,233.14 C204.66,274.91 211.68,323.43 216.81,358.83 " fill="none" id="mulan.classifier.transformation.LabelPowerset-backto-miml.classifiers.miml.mimlTOmi.MIMLLabelPowerset" style="stroke:#181818;stroke-width:1.0;"/><polygon fill="none" points="191.67,234.06,195.74,213.26,205.53,232.05,191.67,234.06" style="stroke:#181818;stroke-width:1.0;"/></g><rect fill="none" height="12.5781" style="stroke:none;stroke-width:1.0;" width="190" x="437" y="517"/><text fill="#888888" font-family="sans-serif" font-size="10" lengthAdjust="spacing" textLength="190" x="437" y="527.3809">UMLDoclet 2.0.20, PlantUML 1.2022.12</text><!--MD5=[12a60c036f69fd6880c253395575f0bd]
@startuml
    namespace miml.classifiers.miml.mimlTOmi {

        class MIMLBinaryRelevance [[MIMLBinaryRelevance.html]] {
            {static} -serialVersionUID: long
            +MIMLBinaryRelevance(Classifier)
        }

        class MIMLClassifierToMI [[MIMLClassifierToMI.html]] {
            {static} -serialVersionUID: long
            #transformationClassifier: MultiLabelLearner
            +MIMLClassifierToMI(MultiLabelLearner)
            +MIMLClassifierToMI()
            #buildInternal(MIMLInstances): void
            #makePredictionInternal(MIMLBag): MultiLabelOutput
            +configure(Configuration): void
        }

        class MIMLLabelPowerset [[MIMLLabelPowerset.html]] {
            {static} -serialVersionUID: long
            +MIMLLabelPowerset(Classifier)
            #buildInternal(MultiLabelInstances): void
        }

        mulan.classifier.transformation.BinaryRelevance <|- - MIMLBinaryRelevance
        miml.classifiers.miml.MIMLClassifier <|- - MIMLClassifierToMI
        mulan.classifier.transformation.LabelPowerset <|- - MIMLLabelPowerset
    }

    namespace mulan.classifier.transformation {
        class BinaryRelevance {
            #ensemble: Classifier[]
            -correspondence: String[]
            -brt: BinaryRelevanceTransformation
        }
        class LabelPowerset {
            -confidenceCalculationMethod: int
            #makePredictionsBasedOnConfidences: boolean
            #threshold: double
            #transformation: LabelPowersetTransformation
            #Rand: Random
        }
    }

    namespace miml.classifiers.miml {
        abstract class MIMLClassifier [[..\MIMLClassifier.html]] {
            {static} -serialVersionUID: long
            #isModelInitialized: boolean
            #numLabels: int
            #labelIndices: int[]
            #labelNames: String[]
            #featureIndices: int[]
            -isDebug: boolean
            {abstract} #buildInternal(MIMLInstances): void
            {abstract} #makePredictionInternal(MIMLBag): MultiLabelOutput
        }
    }

    center footer UMLDoclet 2.0.20, PlantUML 1.2022.12
@enduml

PlantUML version 1.2022.12(Sun Oct 23 20:12:26 CEST 2022)
(APACHE source distribution)
Java Runtime: OpenJDK Runtime Environment
JVM: OpenJDK 64-Bit Server VM
Default Encoding: Cp1252
Language: es
Country: ES
--></g></svg>