<?xml version="1.0" encoding="UTF-8" standalone="no"?><svg xmlns="http://www.w3.org/2000/svg" xmlns:xlink="http://www.w3.org/1999/xlink" contentStyleType="text/css" height="348px" preserveAspectRatio="none" style="width:337px;height:348px;background:#FFFFFF;" version="1.1" viewBox="0 0 337 348" width="337px" zoomAndPan="magnify"><defs/><g><!--MD5=[f5ac80c5ac0d3c1146abd3c27b9afb15]
class miml.classifiers.miml.lazy.DMIMLkNN--><a href="DMIMLkNN.html" target="_top" title="DMIMLkNN.html" xlink:actuate="onRequest" xlink:href="DMIMLkNN.html" xlink:show="new" xlink:title="DMIMLkNN.html" xlink:type="simple"><g id="elem_miml.classifiers.miml.lazy.DMIMLkNN"><rect codeLine="5" fill="#F1F1F1" height="214.6719" id="miml.classifiers.miml.lazy.DMIMLkNN" rx="2.5" ry="2.5" style="stroke:#181818;stroke-width:0.5;" width="321" x="9" y="107"/><ellipse cx="104.75" cy="127.0938" fill="#ADD1B2" rx="11" ry="11" style="stroke:#181818;stroke-width:1.0;"/><path d="M107.5156,122.9688 Q107.6719,122.75 107.8594,122.6406 Q108.0469,122.5313 108.2656,122.5313 Q108.6406,122.5313 108.875,122.7969 Q109.1094,123.0469 109.1094,123.6563 L109.1094,125.1094 Q109.1094,125.7188 108.875,125.9844 Q108.6406,126.25 108.2656,126.25 Q107.9219,126.25 107.7188,126.0469 Q107.5156,125.8594 107.4063,125.3438 Q107.3594,124.9844 107.1719,124.7969 Q106.8438,124.4219 106.2344,124.2031 Q105.625,123.9844 105,123.9844 Q104.2344,123.9844 103.5938,124.3125 Q102.9688,124.6406 102.4688,125.3906 Q101.9844,126.1406 101.9844,127.1719 L101.9844,128.2656 Q101.9844,129.5 102.875,130.3281 Q103.7656,131.1406 105.3594,131.1406 Q106.2969,131.1406 106.9531,130.8906 Q107.3438,130.7344 107.7656,130.2969 Q108.0313,130.0313 108.1719,129.9531 Q108.3281,129.875 108.5313,129.875 Q108.8594,129.875 109.1094,130.1406 Q109.375,130.3906 109.375,130.7344 Q109.375,131.0781 109.0313,131.4844 Q108.5313,132.0625 107.7344,132.3906 Q106.6563,132.8438 105.3594,132.8438 Q103.8438,132.8438 102.6406,132.2188 Q101.6563,131.7188 100.9688,130.6563 Q100.2813,129.5781 100.2813,128.2969 L100.2813,127.1406 Q100.2813,125.8125 100.8906,124.6719 Q101.5156,123.5156 102.6094,122.9063 Q103.7031,122.2813 104.9375,122.2813 Q105.6719,122.2813 106.3125,122.4531 Q106.9688,122.6094 107.5156,122.9688 Z " fill="#000000"/><text fill="#000000" font-family="sans-serif" font-size="14" lengthAdjust="spacing" textLength="68" x="151.75" y="126.5332">DMIMLkNN</text><text fill="#000000" font-family="sans-serif" font-size="10" lengthAdjust="spacing" textLength="121" x="125.25" y="139.9902">miml.classifiers.miml.lazy</text><line style="stroke:#181818;stroke-width:0.5;" x1="10" x2="329" y1="147.1875" y2="147.1875"/><rect fill="none" height="6" style="stroke:#C82930;stroke-width:1.0;" width="6" x="17" y="158.4922"/><text fill="#000000" font-family="sans-serif" font-size="14" lengthAdjust="spacing" text-decoration="underline" textLength="139" x="29" y="165.7207">serialVersionUID: long</text><polygon fill="none" points="20,174.1016,24,178.1016,20,182.1016,16,178.1016" style="stroke:#B38D22;stroke-width:1.0;"/><text fill="#000000" font-family="sans-serif" font-size="14" lengthAdjust="spacing" textLength="97" x="29" y="183.3301">smooth: double</text><line style="stroke:#181818;stroke-width:0.5;" x1="10" x2="329" y1="190.4063" y2="190.4063"/><ellipse cx="20" cy="204.7109" fill="#84BE84" rx="3" ry="3" style="stroke:#038048;stroke-width:1.0;"/><text fill="#000000" font-family="sans-serif" font-size="14" lengthAdjust="spacing" textLength="221" x="29" y="208.9395">DMIMLkNN(MIMLDistanceFunction)</text><ellipse cx="20" cy="222.3203" fill="#84BE84" rx="3" ry="3" style="stroke:#038048;stroke-width:1.0;"/><text fill="#000000" font-family="sans-serif" font-size="14" lengthAdjust="spacing" textLength="244" x="29" y="226.5488">DMIMLkNN(int, MIMLDistanceFunction)</text><ellipse cx="20" cy="239.9297" fill="#84BE84" rx="3" ry="3" style="stroke:#038048;stroke-width:1.0;"/><text fill="#000000" font-family="sans-serif" font-size="14" lengthAdjust="spacing" textLength="295" x="29" y="244.1582">DMIMLkNN(int, double, MIMLDistanceFunction)</text><ellipse cx="20" cy="257.5391" fill="#84BE84" rx="3" ry="3" style="stroke:#038048;stroke-width:1.0;"/><text fill="#000000" font-family="sans-serif" font-size="14" lengthAdjust="spacing" textLength="78" x="29" y="261.7676">DMIMLkNN()</text><ellipse cx="20" cy="275.1484" fill="#84BE84" rx="3" ry="3" style="stroke:#038048;stroke-width:1.0;"/><text fill="#000000" font-family="sans-serif" font-size="14" lengthAdjust="spacing" textLength="188" x="29" y="279.377">configure(Configuration): void</text><ellipse cx="20" cy="292.7578" fill="#84BE84" rx="3" ry="3" style="stroke:#038048;stroke-width:1.0;"/><text fill="#000000" font-family="sans-serif" font-size="14" lengthAdjust="spacing" textLength="129" x="29" y="296.9863">getSmooth(): double</text><ellipse cx="20" cy="310.3672" fill="#84BE84" rx="3" ry="3" style="stroke:#038048;stroke-width:1.0;"/><text fill="#000000" font-family="sans-serif" font-size="14" lengthAdjust="spacing" textLength="154" x="29" y="314.5957">setSmooth(double): void</text></g></a><!--MD5=[ed62d99a7179b82aa1c6ae6848b40a65]
class miml.classifiers.miml.lazy.MultiInstanceMultiLabelKNN--><a href="MultiInstanceMultiLabelKNN.html" target="_top" title="MultiInstanceMultiLabelKNN.html" xlink:actuate="onRequest" xlink:href="MultiInstanceMultiLabelKNN.html" xlink:show="new" xlink:title="MultiInstanceMultiLabelKNN.html" xlink:type="simple"><g id="elem_miml.classifiers.miml.lazy.MultiInstanceMultiLabelKNN"><rect codeLine="17" fill="#F1F1F1" height="40.1875" id="miml.classifiers.miml.lazy.MultiInstanceMultiLabelKNN" rx="2.5" ry="2.5" style="stroke:#181818;stroke-width:0.5;" width="210" x="64.5" y="7"/><ellipse cx="79.5" cy="27.0938" fill="#A9DCDF" rx="11" ry="11" style="stroke:#181818;stroke-width:1.0;"/><path d="M81.6875,28.8594 L77.5469,28.8594 L77.125,29.8906 L77.5469,29.8906 Q78.1563,29.8906 78.4219,30.125 Q78.6875,30.3594 78.6875,30.75 Q78.6875,31.125 78.4219,31.3594 Q78.1563,31.5938 77.5469,31.5938 L75.25,31.5938 Q74.6406,31.5938 74.3906,31.3594 Q74.125,31.125 74.125,30.7344 Q74.125,30.3594 74.4063,30.125 Q74.6719,29.875 75.2969,29.8906 L77.9688,23.2344 L76.8594,23.2344 Q76.25,23.2344 75.9844,23 Q75.7188,22.7656 75.7188,22.375 Q75.7188,22 75.9844,21.7656 Q76.25,21.5313 76.8594,21.5313 L80.5313,21.5313 L83.9219,29.8906 Q84.5156,29.8906 84.7031,30.0313 Q85.0938,30.2969 85.0938,30.75 Q85.0938,31.125 84.8281,31.3594 Q84.5781,31.5938 83.9688,31.5938 L81.6719,31.5938 Q81.0625,31.5938 80.7969,31.3594 Q80.5313,31.125 80.5313,30.7344 Q80.5313,30.3594 80.7969,30.125 Q81.0625,29.8906 81.6719,29.8906 L82.0938,29.8906 L81.6875,28.8594 Z M80.9688,27.1563 L79.6094,23.7813 L78.2344,27.1563 L80.9688,27.1563 Z " fill="#000000"/><text fill="#000000" font-family="sans-serif" font-size="14" font-style="italic" lengthAdjust="spacing" textLength="178" x="93.5" y="26.5332">MultiInstanceMultiLabelKNN</text><text fill="#000000" font-family="sans-serif" font-size="10" font-style="italic" lengthAdjust="spacing" textLength="115" x="125" y="39.9902">miml.classifiers.miml.lazy</text></g></a><!--MD5=[a2960ec455176847acaf1b772a2f981c]
reverse link miml.classifiers.miml.lazy.MultiInstanceMultiLabelKNN to miml.classifiers.miml.lazy.DMIMLkNN--><g id="link_miml.classifiers.miml.lazy.MultiInstanceMultiLabelKNN_miml.classifiers.miml.lazy.DMIMLkNN"><path codeLine="19" d="M169.5,67.36 C169.5,79.17 169.5,92.74 169.5,106.74 " fill="none" id="miml.classifiers.miml.lazy.MultiInstanceMultiLabelKNN-backto-miml.classifiers.miml.lazy.DMIMLkNN" style="stroke:#181818;stroke-width:1.0;"/><polygon fill="none" points="162.5,67.15,169.5,47.15,176.5,67.15,162.5,67.15" style="stroke:#181818;stroke-width:1.0;"/></g><rect fill="none" height="12.5781" style="stroke:none;stroke-width:1.0;" width="190" x="66.5" y="327.6719"/><text fill="#888888" font-family="sans-serif" font-size="10" lengthAdjust="spacing" textLength="190" x="66.5" y="338.0527">UMLDoclet 2.0.20, PlantUML 1.2022.12</text><!--MD5=[609e7a9ac0f8e3a73bbcf61ac7e8c6a5]
@startuml
    set namespaceSeparator none
    hide empty fields
    hide empty methods

    class "<size:14>DMIMLkNN\n<size:10>miml.classifiers.miml.lazy" as miml.classifiers.miml.lazy.DMIMLkNN [[DMIMLkNN.html]] {
        {static} -serialVersionUID: long
        #smooth: double
        +DMIMLkNN(MIMLDistanceFunction)
        +DMIMLkNN(int, MIMLDistanceFunction)
        +DMIMLkNN(int, double, MIMLDistanceFunction)
        +DMIMLkNN()
        +configure(Configuration): void
        +getSmooth(): double
        +setSmooth(double): void
    }

    abstract class "<size:14>MultiInstanceMultiLabelKNN\n<size:10>miml.classifiers.miml.lazy" as miml.classifiers.miml.lazy.MultiInstanceMultiLabelKNN [[MultiInstanceMultiLabelKNN.html]]

    miml.classifiers.miml.lazy.MultiInstanceMultiLabelKNN <|- - miml.classifiers.miml.lazy.DMIMLkNN

    center footer UMLDoclet 2.0.20, PlantUML 1.2022.12
@enduml

PlantUML version 1.2022.12(Sun Oct 23 20:12:26 CEST 2022)
(APACHE source distribution)
Java Runtime: OpenJDK Runtime Environment
JVM: OpenJDK 64-Bit Server VM
Default Encoding: Cp1252
Language: es
Country: ES
--></g></svg>