<?xml version="1.0" encoding="UTF-8" standalone="no"?><svg xmlns="http://www.w3.org/2000/svg" xmlns:xlink="http://www.w3.org/1999/xlink" contentStyleType="text/css" height="348px" preserveAspectRatio="none" style="width:356px;height:348px;background:#FFFFFF;" version="1.1" viewBox="0 0 356 348" width="356px" zoomAndPan="magnify"><defs/><g><!--MD5=[3f25b1e272ce49a2cc9f852c279de3a8]
class miml.classifiers.miml.lazy.MIMLMAPkNN--><a href="MIMLMAPkNN.html" target="_top" title="MIMLMAPkNN.html" xlink:actuate="onRequest" xlink:href="MIMLMAPkNN.html" xlink:show="new" xlink:title="MIMLMAPkNN.html" xlink:type="simple"><g id="elem_miml.classifiers.miml.lazy.MIMLMAPkNN"><rect codeLine="5" fill="#F1F1F1" height="214.6719" id="miml.classifiers.miml.lazy.MIMLMAPkNN" rx="2.5" ry="2.5" style="stroke:#181818;stroke-width:0.5;" width="340" x="9" y="107"/><ellipse cx="114.25" cy="127.0938" fill="#ADD1B2" rx="11" ry="11" style="stroke:#181818;stroke-width:1.0;"/><path d="M117.0156,122.9688 Q117.1719,122.75 117.3594,122.6406 Q117.5469,122.5313 117.7656,122.5313 Q118.1406,122.5313 118.375,122.7969 Q118.6094,123.0469 118.6094,123.6563 L118.6094,125.1094 Q118.6094,125.7188 118.375,125.9844 Q118.1406,126.25 117.7656,126.25 Q117.4219,126.25 117.2188,126.0469 Q117.0156,125.8594 116.9063,125.3438 Q116.8594,124.9844 116.6719,124.7969 Q116.3438,124.4219 115.7344,124.2031 Q115.125,123.9844 114.5,123.9844 Q113.7344,123.9844 113.0938,124.3125 Q112.4688,124.6406 111.9688,125.3906 Q111.4844,126.1406 111.4844,127.1719 L111.4844,128.2656 Q111.4844,129.5 112.375,130.3281 Q113.2656,131.1406 114.8594,131.1406 Q115.7969,131.1406 116.4531,130.8906 Q116.8438,130.7344 117.2656,130.2969 Q117.5313,130.0313 117.6719,129.9531 Q117.8281,129.875 118.0313,129.875 Q118.3594,129.875 118.6094,130.1406 Q118.875,130.3906 118.875,130.7344 Q118.875,131.0781 118.5313,131.4844 Q118.0313,132.0625 117.2344,132.3906 Q116.1563,132.8438 114.8594,132.8438 Q113.3438,132.8438 112.1406,132.2188 Q111.1563,131.7188 110.4688,130.6563 Q109.7813,129.5781 109.7813,128.2969 L109.7813,127.1406 Q109.7813,125.8125 110.3906,124.6719 Q111.0156,123.5156 112.1094,122.9063 Q113.2031,122.2813 114.4375,122.2813 Q115.1719,122.2813 115.8125,122.4531 Q116.4688,122.6094 117.0156,122.9688 Z " fill="#000000"/><text fill="#000000" font-family="sans-serif" font-size="14" lengthAdjust="spacing" textLength="87" x="151.75" y="126.5332">MIMLMAPkNN</text><text fill="#000000" font-family="sans-serif" font-size="10" lengthAdjust="spacing" textLength="121" x="134.75" y="139.9902">miml.classifiers.miml.lazy</text><line style="stroke:#181818;stroke-width:0.5;" x1="10" x2="348" y1="147.1875" y2="147.1875"/><rect fill="none" height="6" style="stroke:#C82930;stroke-width:1.0;" width="6" x="17" y="158.4922"/><text fill="#000000" font-family="sans-serif" font-size="14" lengthAdjust="spacing" text-decoration="underline" textLength="139" x="29" y="165.7207">serialVersionUID: long</text><polygon fill="none" points="20,174.1016,24,178.1016,20,182.1016,16,178.1016" style="stroke:#B38D22;stroke-width:1.0;"/><text fill="#000000" font-family="sans-serif" font-size="14" lengthAdjust="spacing" textLength="97" x="29" y="183.3301">smooth: double</text><line style="stroke:#181818;stroke-width:0.5;" x1="10" x2="348" y1="190.4063" y2="190.4063"/><ellipse cx="20" cy="204.7109" fill="#84BE84" rx="3" ry="3" style="stroke:#038048;stroke-width:1.0;"/><text fill="#000000" font-family="sans-serif" font-size="14" lengthAdjust="spacing" textLength="240" x="29" y="208.9395">MIMLMAPkNN(MIMLDistanceFunction)</text><ellipse cx="20" cy="222.3203" fill="#84BE84" rx="3" ry="3" style="stroke:#038048;stroke-width:1.0;"/><text fill="#000000" font-family="sans-serif" font-size="14" lengthAdjust="spacing" textLength="263" x="29" y="226.5488">MIMLMAPkNN(int, MIMLDistanceFunction)</text><ellipse cx="20" cy="239.9297" fill="#84BE84" rx="3" ry="3" style="stroke:#038048;stroke-width:1.0;"/><text fill="#000000" font-family="sans-serif" font-size="14" lengthAdjust="spacing" textLength="314" x="29" y="244.1582">MIMLMAPkNN(int, double, MIMLDistanceFunction)</text><ellipse cx="20" cy="257.5391" fill="#84BE84" rx="3" ry="3" style="stroke:#038048;stroke-width:1.0;"/><text fill="#000000" font-family="sans-serif" font-size="14" lengthAdjust="spacing" textLength="97" x="29" y="261.7676">MIMLMAPkNN()</text><ellipse cx="20" cy="275.1484" fill="#84BE84" rx="3" ry="3" style="stroke:#038048;stroke-width:1.0;"/><text fill="#000000" font-family="sans-serif" font-size="14" lengthAdjust="spacing" textLength="188" x="29" y="279.377">configure(Configuration): void</text><ellipse cx="20" cy="292.7578" fill="#84BE84" rx="3" ry="3" style="stroke:#038048;stroke-width:1.0;"/><text fill="#000000" font-family="sans-serif" font-size="14" lengthAdjust="spacing" textLength="129" x="29" y="296.9863">getSmooth(): double</text><ellipse cx="20" cy="310.3672" fill="#84BE84" rx="3" ry="3" style="stroke:#038048;stroke-width:1.0;"/><text fill="#000000" font-family="sans-serif" font-size="14" lengthAdjust="spacing" textLength="154" x="29" y="314.5957">setSmooth(double): void</text></g></a><!--MD5=[ed62d99a7179b82aa1c6ae6848b40a65]
class miml.classifiers.miml.lazy.MultiInstanceMultiLabelKNN--><a href="MultiInstanceMultiLabelKNN.html" target="_top" title="MultiInstanceMultiLabelKNN.html" xlink:actuate="onRequest" xlink:href="MultiInstanceMultiLabelKNN.html" xlink:show="new" xlink:title="MultiInstanceMultiLabelKNN.html" xlink:type="simple"><g id="elem_miml.classifiers.miml.lazy.MultiInstanceMultiLabelKNN"><rect codeLine="17" fill="#F1F1F1" height="40.1875" id="miml.classifiers.miml.lazy.MultiInstanceMultiLabelKNN" rx="2.5" ry="2.5" style="stroke:#181818;stroke-width:0.5;" width="210" x="74" y="7"/><ellipse cx="89" cy="27.0938" fill="#A9DCDF" rx="11" ry="11" style="stroke:#181818;stroke-width:1.0;"/><path d="M91.1875,28.8594 L87.0469,28.8594 L86.625,29.8906 L87.0469,29.8906 Q87.6563,29.8906 87.9219,30.125 Q88.1875,30.3594 88.1875,30.75 Q88.1875,31.125 87.9219,31.3594 Q87.6563,31.5938 87.0469,31.5938 L84.75,31.5938 Q84.1406,31.5938 83.8906,31.3594 Q83.625,31.125 83.625,30.7344 Q83.625,30.3594 83.9063,30.125 Q84.1719,29.875 84.7969,29.8906 L87.4688,23.2344 L86.3594,23.2344 Q85.75,23.2344 85.4844,23 Q85.2188,22.7656 85.2188,22.375 Q85.2188,22 85.4844,21.7656 Q85.75,21.5313 86.3594,21.5313 L90.0313,21.5313 L93.4219,29.8906 Q94.0156,29.8906 94.2031,30.0313 Q94.5938,30.2969 94.5938,30.75 Q94.5938,31.125 94.3281,31.3594 Q94.0781,31.5938 93.4688,31.5938 L91.1719,31.5938 Q90.5625,31.5938 90.2969,31.3594 Q90.0313,31.125 90.0313,30.7344 Q90.0313,30.3594 90.2969,30.125 Q90.5625,29.8906 91.1719,29.8906 L91.5938,29.8906 L91.1875,28.8594 Z M90.4688,27.1563 L89.1094,23.7813 L87.7344,27.1563 L90.4688,27.1563 Z " fill="#000000"/><text fill="#000000" font-family="sans-serif" font-size="14" font-style="italic" lengthAdjust="spacing" textLength="178" x="103" y="26.5332">MultiInstanceMultiLabelKNN</text><text fill="#000000" font-family="sans-serif" font-size="10" font-style="italic" lengthAdjust="spacing" textLength="115" x="134.5" y="39.9902">miml.classifiers.miml.lazy</text></g></a><!--MD5=[fa6abe5f5d632689892aa2c1e3819f5c]
reverse link miml.classifiers.miml.lazy.MultiInstanceMultiLabelKNN to miml.classifiers.miml.lazy.MIMLMAPkNN--><g id="link_miml.classifiers.miml.lazy.MultiInstanceMultiLabelKNN_miml.classifiers.miml.lazy.MIMLMAPkNN"><path codeLine="19" d="M179,67.36 C179,79.17 179,92.74 179,106.74 " fill="none" id="miml.classifiers.miml.lazy.MultiInstanceMultiLabelKNN-backto-miml.classifiers.miml.lazy.MIMLMAPkNN" style="stroke:#181818;stroke-width:1.0;"/><polygon fill="none" points="172,67.15,179,47.15,186,67.15,172,67.15" style="stroke:#181818;stroke-width:1.0;"/></g><rect fill="none" height="12.5781" style="stroke:none;stroke-width:1.0;" width="190" x="76" y="327.6719"/><text fill="#888888" font-family="sans-serif" font-size="10" lengthAdjust="spacing" textLength="190" x="76" y="338.0527">UMLDoclet 2.0.20, PlantUML 1.2022.12</text><!--MD5=[313faf2f6f57f56bdfdcd6ab322aa5b8]
@startuml
    set namespaceSeparator none
    hide empty fields
    hide empty methods

    class "<size:14>MIMLMAPkNN\n<size:10>miml.classifiers.miml.lazy" as miml.classifiers.miml.lazy.MIMLMAPkNN [[MIMLMAPkNN.html]] {
        {static} -serialVersionUID: long
        #smooth: double
        +MIMLMAPkNN(MIMLDistanceFunction)
        +MIMLMAPkNN(int, MIMLDistanceFunction)
        +MIMLMAPkNN(int, double, MIMLDistanceFunction)
        +MIMLMAPkNN()
        +configure(Configuration): void
        +getSmooth(): double
        +setSmooth(double): void
    }

    abstract class "<size:14>MultiInstanceMultiLabelKNN\n<size:10>miml.classifiers.miml.lazy" as miml.classifiers.miml.lazy.MultiInstanceMultiLabelKNN [[MultiInstanceMultiLabelKNN.html]]

    miml.classifiers.miml.lazy.MultiInstanceMultiLabelKNN <|- - miml.classifiers.miml.lazy.MIMLMAPkNN

    center footer UMLDoclet 2.0.20, PlantUML 1.2022.12
@enduml

PlantUML version 1.2022.12(Sun Oct 23 20:12:26 CEST 2022)
(APACHE source distribution)
Java Runtime: OpenJDK Runtime Environment
JVM: OpenJDK 64-Bit Server VM
Default Encoding: Cp1252
Language: es
Country: ES
--></g></svg>