<?xml version="1.0" encoding="UTF-8" standalone="no"?><svg xmlns="http://www.w3.org/2000/svg" xmlns:xlink="http://www.w3.org/1999/xlink" contentStyleType="text/css" height="348px" preserveAspectRatio="none" style="width:338px;height:348px;background:#FFFFFF;" version="1.1" viewBox="0 0 338 348" width="338px" zoomAndPan="magnify"><defs/><g><!--MD5=[9588d8a94ed625d46dde2a0973c9114b]
class miml.classifiers.miml.lazy.MIMLIBLR--><a href="MIMLIBLR.html" target="_top" title="MIMLIBLR.html" xlink:actuate="onRequest" xlink:href="MIMLIBLR.html" xlink:show="new" xlink:title="MIMLIBLR.html" xlink:type="simple"><g id="elem_miml.classifiers.miml.lazy.MIMLIBLR"><rect codeLine="5" fill="#F1F1F1" height="214.6719" id="miml.classifiers.miml.lazy.MIMLIBLR" rx="2.5" ry="2.5" style="stroke:#181818;stroke-width:0.5;" width="324" x="7" y="107"/><ellipse cx="104.25" cy="127.0938" fill="#ADD1B2" rx="11" ry="11" style="stroke:#181818;stroke-width:1.0;"/><path d="M107.0156,122.9688 Q107.1719,122.75 107.3594,122.6406 Q107.5469,122.5313 107.7656,122.5313 Q108.1406,122.5313 108.375,122.7969 Q108.6094,123.0469 108.6094,123.6563 L108.6094,125.1094 Q108.6094,125.7188 108.375,125.9844 Q108.1406,126.25 107.7656,126.25 Q107.4219,126.25 107.2188,126.0469 Q107.0156,125.8594 106.9063,125.3438 Q106.8594,124.9844 106.6719,124.7969 Q106.3438,124.4219 105.7344,124.2031 Q105.125,123.9844 104.5,123.9844 Q103.7344,123.9844 103.0938,124.3125 Q102.4688,124.6406 101.9688,125.3906 Q101.4844,126.1406 101.4844,127.1719 L101.4844,128.2656 Q101.4844,129.5 102.375,130.3281 Q103.2656,131.1406 104.8594,131.1406 Q105.7969,131.1406 106.4531,130.8906 Q106.8438,130.7344 107.2656,130.2969 Q107.5313,130.0313 107.6719,129.9531 Q107.8281,129.875 108.0313,129.875 Q108.3594,129.875 108.6094,130.1406 Q108.875,130.3906 108.875,130.7344 Q108.875,131.0781 108.5313,131.4844 Q108.0313,132.0625 107.2344,132.3906 Q106.1563,132.8438 104.8594,132.8438 Q103.3438,132.8438 102.1406,132.2188 Q101.1563,131.7188 100.4688,130.6563 Q99.7813,129.5781 99.7813,128.2969 L99.7813,127.1406 Q99.7813,125.8125 100.3906,124.6719 Q101.0156,123.5156 102.1094,122.9063 Q103.2031,122.2813 104.4375,122.2813 Q105.1719,122.2813 105.8125,122.4531 Q106.4688,122.6094 107.0156,122.9688 Z " fill="#000000"/><text fill="#000000" font-family="sans-serif" font-size="14" lengthAdjust="spacing" textLength="63" x="153.75" y="126.5332">MIMLIBLR</text><text fill="#000000" font-family="sans-serif" font-size="10" lengthAdjust="spacing" textLength="121" x="124.75" y="139.9902">miml.classifiers.miml.lazy</text><line style="stroke:#181818;stroke-width:0.5;" x1="8" x2="330" y1="147.1875" y2="147.1875"/><rect fill="none" height="6" style="stroke:#C82930;stroke-width:1.0;" width="6" x="15" y="158.4922"/><text fill="#000000" font-family="sans-serif" font-size="14" lengthAdjust="spacing" text-decoration="underline" textLength="139" x="27" y="165.7207">serialVersionUID: long</text><rect fill="none" height="6" style="stroke:#C82930;stroke-width:1.0;" width="6" x="15" y="176.1016"/><text fill="#000000" font-family="sans-serif" font-size="14" lengthAdjust="spacing" textLength="140" x="27" y="183.3301">addFeatures: boolean</text><line style="stroke:#181818;stroke-width:0.5;" x1="8" x2="330" y1="190.4063" y2="190.4063"/><ellipse cx="18" cy="204.7109" fill="#84BE84" rx="3" ry="3" style="stroke:#038048;stroke-width:1.0;"/><text fill="#000000" font-family="sans-serif" font-size="14" lengthAdjust="spacing" textLength="216" x="27" y="208.9395">MIMLIBLR(MIMLDistanceFunction)</text><ellipse cx="18" cy="222.3203" fill="#84BE84" rx="3" ry="3" style="stroke:#038048;stroke-width:1.0;"/><text fill="#000000" font-family="sans-serif" font-size="14" lengthAdjust="spacing" textLength="239" x="27" y="226.5488">MIMLIBLR(int, MIMLDistanceFunction)</text><ellipse cx="18" cy="239.9297" fill="#84BE84" rx="3" ry="3" style="stroke:#038048;stroke-width:1.0;"/><text fill="#000000" font-family="sans-serif" font-size="14" lengthAdjust="spacing" textLength="298" x="27" y="244.1582">MIMLIBLR(int, boolean, MIMLDistanceFunction)</text><ellipse cx="18" cy="257.5391" fill="#84BE84" rx="3" ry="3" style="stroke:#038048;stroke-width:1.0;"/><text fill="#000000" font-family="sans-serif" font-size="14" lengthAdjust="spacing" textLength="73" x="27" y="261.7676">MIMLIBLR()</text><ellipse cx="18" cy="275.1484" fill="#84BE84" rx="3" ry="3" style="stroke:#038048;stroke-width:1.0;"/><text fill="#000000" font-family="sans-serif" font-size="14" lengthAdjust="spacing" textLength="188" x="27" y="279.377">configure(Configuration): void</text><ellipse cx="18" cy="292.7578" fill="#84BE84" rx="3" ry="3" style="stroke:#038048;stroke-width:1.0;"/><text fill="#000000" font-family="sans-serif" font-size="14" lengthAdjust="spacing" textLength="171" x="27" y="296.9863">getAddFeatures(): boolean</text><ellipse cx="18" cy="310.3672" fill="#84BE84" rx="3" ry="3" style="stroke:#038048;stroke-width:1.0;"/><text fill="#000000" font-family="sans-serif" font-size="14" lengthAdjust="spacing" textLength="196" x="27" y="314.5957">setAddFeatures(boolean): void</text></g></a><!--MD5=[ed62d99a7179b82aa1c6ae6848b40a65]
class miml.classifiers.miml.lazy.MultiInstanceMultiLabelKNN--><a href="MultiInstanceMultiLabelKNN.html" target="_top" title="MultiInstanceMultiLabelKNN.html" xlink:actuate="onRequest" xlink:href="MultiInstanceMultiLabelKNN.html" xlink:show="new" xlink:title="MultiInstanceMultiLabelKNN.html" xlink:type="simple"><g id="elem_miml.classifiers.miml.lazy.MultiInstanceMultiLabelKNN"><rect codeLine="17" fill="#F1F1F1" height="40.1875" id="miml.classifiers.miml.lazy.MultiInstanceMultiLabelKNN" rx="2.5" ry="2.5" style="stroke:#181818;stroke-width:0.5;" width="210" x="64" y="7"/><ellipse cx="79" cy="27.0938" fill="#A9DCDF" rx="11" ry="11" style="stroke:#181818;stroke-width:1.0;"/><path d="M81.1875,28.8594 L77.0469,28.8594 L76.625,29.8906 L77.0469,29.8906 Q77.6563,29.8906 77.9219,30.125 Q78.1875,30.3594 78.1875,30.75 Q78.1875,31.125 77.9219,31.3594 Q77.6563,31.5938 77.0469,31.5938 L74.75,31.5938 Q74.1406,31.5938 73.8906,31.3594 Q73.625,31.125 73.625,30.7344 Q73.625,30.3594 73.9063,30.125 Q74.1719,29.875 74.7969,29.8906 L77.4688,23.2344 L76.3594,23.2344 Q75.75,23.2344 75.4844,23 Q75.2188,22.7656 75.2188,22.375 Q75.2188,22 75.4844,21.7656 Q75.75,21.5313 76.3594,21.5313 L80.0313,21.5313 L83.4219,29.8906 Q84.0156,29.8906 84.2031,30.0313 Q84.5938,30.2969 84.5938,30.75 Q84.5938,31.125 84.3281,31.3594 Q84.0781,31.5938 83.4688,31.5938 L81.1719,31.5938 Q80.5625,31.5938 80.2969,31.3594 Q80.0313,31.125 80.0313,30.7344 Q80.0313,30.3594 80.2969,30.125 Q80.5625,29.8906 81.1719,29.8906 L81.5938,29.8906 L81.1875,28.8594 Z M80.4688,27.1563 L79.1094,23.7813 L77.7344,27.1563 L80.4688,27.1563 Z " fill="#000000"/><text fill="#000000" font-family="sans-serif" font-size="14" font-style="italic" lengthAdjust="spacing" textLength="178" x="93" y="26.5332">MultiInstanceMultiLabelKNN</text><text fill="#000000" font-family="sans-serif" font-size="10" font-style="italic" lengthAdjust="spacing" textLength="115" x="124.5" y="39.9902">miml.classifiers.miml.lazy</text></g></a><!--MD5=[d238f38a919d1cde5a2ff0678d1b1c02]
reverse link miml.classifiers.miml.lazy.MultiInstanceMultiLabelKNN to miml.classifiers.miml.lazy.MIMLIBLR--><g id="link_miml.classifiers.miml.lazy.MultiInstanceMultiLabelKNN_miml.classifiers.miml.lazy.MIMLIBLR"><path codeLine="19" d="M169,67.36 C169,79.17 169,92.74 169,106.74 " fill="none" id="miml.classifiers.miml.lazy.MultiInstanceMultiLabelKNN-backto-miml.classifiers.miml.lazy.MIMLIBLR" style="stroke:#181818;stroke-width:1.0;"/><polygon fill="none" points="162,67.15,169,47.15,176,67.15,162,67.15" style="stroke:#181818;stroke-width:1.0;"/></g><rect fill="none" height="12.5781" style="stroke:none;stroke-width:1.0;" width="190" x="67" y="327.6719"/><text fill="#888888" font-family="sans-serif" font-size="10" lengthAdjust="spacing" textLength="190" x="67" y="338.0527">UMLDoclet 2.0.20, PlantUML 1.2022.12</text><!--MD5=[81e3b8162161bf2cf19f420050ff6fc6]
@startuml
    set namespaceSeparator none
    hide empty fields
    hide empty methods

    class "<size:14>MIMLIBLR\n<size:10>miml.classifiers.miml.lazy" as miml.classifiers.miml.lazy.MIMLIBLR [[MIMLIBLR.html]] {
        {static} -serialVersionUID: long
        -addFeatures: boolean
        +MIMLIBLR(MIMLDistanceFunction)
        +MIMLIBLR(int, MIMLDistanceFunction)
        +MIMLIBLR(int, boolean, MIMLDistanceFunction)
        +MIMLIBLR()
        +configure(Configuration): void
        +getAddFeatures(): boolean
        +setAddFeatures(boolean): void
    }

    abstract class "<size:14>MultiInstanceMultiLabelKNN\n<size:10>miml.classifiers.miml.lazy" as miml.classifiers.miml.lazy.MultiInstanceMultiLabelKNN [[MultiInstanceMultiLabelKNN.html]]

    miml.classifiers.miml.lazy.MultiInstanceMultiLabelKNN <|- - miml.classifiers.miml.lazy.MIMLIBLR

    center footer UMLDoclet 2.0.20, PlantUML 1.2022.12
@enduml

PlantUML version 1.2022.12(Sun Oct 23 20:12:26 CEST 2022)
(APACHE source distribution)
Java Runtime: OpenJDK Runtime Environment
JVM: OpenJDK 64-Bit Server VM
Default Encoding: Cp1252
Language: es
Country: ES
--></g></svg>