<?xml version="1.0" encoding="UTF-8" standalone="no"?><svg xmlns="http://www.w3.org/2000/svg" xmlns:xlink="http://www.w3.org/1999/xlink" contentStyleType="text/css" height="439px" preserveAspectRatio="none" style="width:256px;height:439px;background:#FFFFFF;" version="1.1" viewBox="0 0 256 439" width="256px" zoomAndPan="magnify"><defs/><g><!--MD5=[6a55c6eef95374c0b1f4e8138ea6d4ba]
class miml.classifiers.miml.lazy.MIMLFuzzykNN--><a href="MIMLFuzzykNN.html" target="_top" title="MIMLFuzzykNN.html" xlink:actuate="onRequest" xlink:href="MIMLFuzzykNN.html" xlink:show="new" xlink:title="MIMLFuzzykNN.html" xlink:type="simple"><g id="elem_miml.classifiers.miml.lazy.MIMLFuzzykNN"><rect codeLine="5" fill="#F1F1F1" height="206.6719" id="miml.classifiers.miml.lazy.MIMLFuzzykNN" rx="2.5" ry="2.5" style="stroke:#181818;stroke-width:0.5;" width="174" x="41" y="107"/><ellipse cx="65.45" cy="127.0938" fill="#ADD1B2" rx="11" ry="11" style="stroke:#181818;stroke-width:1.0;"/><path d="M68.2156,122.9688 Q68.3719,122.75 68.5594,122.6406 Q68.7469,122.5313 68.9656,122.5313 Q69.3406,122.5313 69.575,122.7969 Q69.8094,123.0469 69.8094,123.6563 L69.8094,125.1094 Q69.8094,125.7188 69.575,125.9844 Q69.3406,126.25 68.9656,126.25 Q68.6219,126.25 68.4188,126.0469 Q68.2156,125.8594 68.1063,125.3438 Q68.0594,124.9844 67.8719,124.7969 Q67.5438,124.4219 66.9344,124.2031 Q66.325,123.9844 65.7,123.9844 Q64.9344,123.9844 64.2938,124.3125 Q63.6688,124.6406 63.1688,125.3906 Q62.6844,126.1406 62.6844,127.1719 L62.6844,128.2656 Q62.6844,129.5 63.575,130.3281 Q64.4656,131.1406 66.0594,131.1406 Q66.9969,131.1406 67.6531,130.8906 Q68.0438,130.7344 68.4656,130.2969 Q68.7313,130.0313 68.8719,129.9531 Q69.0281,129.875 69.2313,129.875 Q69.5594,129.875 69.8094,130.1406 Q70.075,130.3906 70.075,130.7344 Q70.075,131.0781 69.7313,131.4844 Q69.2313,132.0625 68.4344,132.3906 Q67.3563,132.8438 66.0594,132.8438 Q64.5438,132.8438 63.3406,132.2188 Q62.3563,131.7188 61.6688,130.6563 Q60.9813,129.5781 60.9813,128.2969 L60.9813,127.1406 Q60.9813,125.8125 61.5906,124.6719 Q62.2156,123.5156 63.3094,122.9063 Q64.4031,122.2813 65.6375,122.2813 Q66.3719,122.2813 67.0125,122.4531 Q67.6688,122.6094 68.2156,122.9688 Z " fill="#000000"/><text fill="#000000" font-family="sans-serif" font-size="14" lengthAdjust="spacing" textLength="94" x="95.05" y="126.5332">MIMLFuzzykNN</text><text fill="#000000" font-family="sans-serif" font-size="10" lengthAdjust="spacing" textLength="121" x="81.55" y="139.9902">miml.classifiers.miml.lazy</text><line style="stroke:#181818;stroke-width:0.5;" x1="42" x2="214" y1="147.1875" y2="147.1875"/><rect fill="none" height="6" style="stroke:#C82930;stroke-width:1.0;" width="6" x="49" y="158.4922"/><text fill="#000000" font-family="sans-serif" font-size="14" lengthAdjust="spacing" text-decoration="underline" textLength="139" x="61" y="165.7207">serialVersionUID: long</text><polygon fill="none" points="52,174.1016,56,178.1016,52,182.1016,48,178.1016" style="stroke:#B38D22;stroke-width:1.0;"/><text fill="#000000" font-family="sans-serif" font-size="14" lengthAdjust="spacing" textLength="148" x="61" y="183.3301">dataset: MIMLInstances</text><polygon fill="none" points="52,191.7109,56,195.7109,52,199.7109,48,195.7109" style="stroke:#B38D22;stroke-width:1.0;"/><text fill="#000000" font-family="sans-serif" font-size="14" lengthAdjust="spacing" textLength="30" x="61" y="200.9395">k: int</text><polygon fill="none" points="52,209.3203,56,213.3203,52,217.3203,48,213.3203" style="stroke:#B38D22;stroke-width:1.0;"/><text fill="#000000" font-family="sans-serif" font-size="14" lengthAdjust="spacing" textLength="68" x="61" y="218.5488">U: double[]</text><polygon fill="none" points="52,226.9297,56,230.9297,52,234.9297,48,230.9297" style="stroke:#B38D22;stroke-width:1.0;"/><text fill="#000000" font-family="sans-serif" font-size="14" lengthAdjust="spacing" textLength="44" x="61" y="236.1582">kini: int</text><polygon fill="none" points="52,244.5391,56,248.5391,52,252.5391,48,248.5391" style="stroke:#B38D22;stroke-width:1.0;"/><text fill="#000000" font-family="sans-serif" font-size="14" lengthAdjust="spacing" textLength="62" x="61" y="253.7676">m: double</text><polygon fill="none" points="52,262.1484,56,266.1484,52,270.1484,48,266.1484" style="stroke:#B38D22;stroke-width:1.0;"/><text fill="#000000" font-family="sans-serif" font-size="14" lengthAdjust="spacing" textLength="37" x="61" y="271.377">ini: int</text><polygon fill="none" points="52,279.7578,56,283.7578,52,287.7578,48,283.7578" style="stroke:#B38D22;stroke-width:1.0;"/><text fill="#000000" font-family="sans-serif" font-size="14" lengthAdjust="spacing" textLength="147" x="61" y="288.9863">elnn: LinearNNESearch</text><polygon fill="none" points="52,297.3672,56,301.3672,52,305.3672,48,301.3672" style="stroke:#B38D22;stroke-width:1.0;"/><text fill="#000000" font-family="sans-serif" font-size="14" lengthAdjust="spacing" textLength="59" x="61" y="306.5957">e: double</text></g></a><!--MD5=[ed62d99a7179b82aa1c6ae6848b40a65]
class miml.classifiers.miml.lazy.MultiInstanceMultiLabelKNN--><a href="MultiInstanceMultiLabelKNN.html" target="_top" title="MultiInstanceMultiLabelKNN.html" xlink:actuate="onRequest" xlink:href="MultiInstanceMultiLabelKNN.html" xlink:show="new" xlink:title="MultiInstanceMultiLabelKNN.html" xlink:type="simple"><g id="elem_miml.classifiers.miml.lazy.MultiInstanceMultiLabelKNN"><rect codeLine="17" fill="#F1F1F1" height="40.1875" id="miml.classifiers.miml.lazy.MultiInstanceMultiLabelKNN" rx="2.5" ry="2.5" style="stroke:#181818;stroke-width:0.5;" width="210" x="23" y="7"/><ellipse cx="38" cy="27.0938" fill="#A9DCDF" rx="11" ry="11" style="stroke:#181818;stroke-width:1.0;"/><path d="M40.1875,28.8594 L36.0469,28.8594 L35.625,29.8906 L36.0469,29.8906 Q36.6563,29.8906 36.9219,30.125 Q37.1875,30.3594 37.1875,30.75 Q37.1875,31.125 36.9219,31.3594 Q36.6563,31.5938 36.0469,31.5938 L33.75,31.5938 Q33.1406,31.5938 32.8906,31.3594 Q32.625,31.125 32.625,30.7344 Q32.625,30.3594 32.9063,30.125 Q33.1719,29.875 33.7969,29.8906 L36.4688,23.2344 L35.3594,23.2344 Q34.75,23.2344 34.4844,23 Q34.2188,22.7656 34.2188,22.375 Q34.2188,22 34.4844,21.7656 Q34.75,21.5313 35.3594,21.5313 L39.0313,21.5313 L42.4219,29.8906 Q43.0156,29.8906 43.2031,30.0313 Q43.5938,30.2969 43.5938,30.75 Q43.5938,31.125 43.3281,31.3594 Q43.0781,31.5938 42.4688,31.5938 L40.1719,31.5938 Q39.5625,31.5938 39.2969,31.3594 Q39.0313,31.125 39.0313,30.7344 Q39.0313,30.3594 39.2969,30.125 Q39.5625,29.8906 40.1719,29.8906 L40.5938,29.8906 L40.1875,28.8594 Z M39.4688,27.1563 L38.1094,23.7813 L36.7344,27.1563 L39.4688,27.1563 Z " fill="#000000"/><text fill="#000000" font-family="sans-serif" font-size="14" font-style="italic" lengthAdjust="spacing" textLength="178" x="52" y="26.5332">MultiInstanceMultiLabelKNN</text><text fill="#000000" font-family="sans-serif" font-size="10" font-style="italic" lengthAdjust="spacing" textLength="115" x="83.5" y="39.9902">miml.classifiers.miml.lazy</text></g></a><!--MD5=[c658f99dd35e96d228f572680115ddb8]
class miml.classifiers.miml.lazy.MIMLFuzzykNN.LinearNNESearch--><a href="MIMLFuzzykNN.LinearNNESearch.html" target="_top" title="MIMLFuzzykNN.LinearNNESearch.html" xlink:actuate="onRequest" xlink:href="MIMLFuzzykNN.LinearNNESearch.html" xlink:show="new" xlink:title="MIMLFuzzykNN.LinearNNESearch.html" xlink:type="simple"><g id="elem_miml.classifiers.miml.lazy.MIMLFuzzykNN.LinearNNESearch"><rect codeLine="18" fill="#F1F1F1" height="40.1875" id="miml.classifiers.miml.lazy.MIMLFuzzykNN.LinearNNESearch" rx="2.5" ry="2.5" style="stroke:#181818;stroke-width:0.5;" width="242" x="7" y="374"/><ellipse cx="22" cy="394.0938" fill="#ADD1B2" rx="11" ry="11" style="stroke:#181818;stroke-width:1.0;"/><path d="M24.7656,389.9688 Q24.9219,389.75 25.1094,389.6406 Q25.2969,389.5313 25.5156,389.5313 Q25.8906,389.5313 26.125,389.7969 Q26.3594,390.0469 26.3594,390.6563 L26.3594,392.1094 Q26.3594,392.7188 26.125,392.9844 Q25.8906,393.25 25.5156,393.25 Q25.1719,393.25 24.9688,393.0469 Q24.7656,392.8594 24.6563,392.3438 Q24.6094,391.9844 24.4219,391.7969 Q24.0938,391.4219 23.4844,391.2031 Q22.875,390.9844 22.25,390.9844 Q21.4844,390.9844 20.8438,391.3125 Q20.2188,391.6406 19.7188,392.3906 Q19.2344,393.1406 19.2344,394.1719 L19.2344,395.2656 Q19.2344,396.5 20.125,397.3281 Q21.0156,398.1406 22.6094,398.1406 Q23.5469,398.1406 24.2031,397.8906 Q24.5938,397.7344 25.0156,397.2969 Q25.2813,397.0313 25.4219,396.9531 Q25.5781,396.875 25.7813,396.875 Q26.1094,396.875 26.3594,397.1406 Q26.625,397.3906 26.625,397.7344 Q26.625,398.0781 26.2813,398.4844 Q25.7813,399.0625 24.9844,399.3906 Q23.9063,399.8438 22.6094,399.8438 Q21.0938,399.8438 19.8906,399.2188 Q18.9063,398.7188 18.2188,397.6563 Q17.5313,396.5781 17.5313,395.2969 L17.5313,394.1406 Q17.5313,392.8125 18.1406,391.6719 Q18.7656,390.5156 19.8594,389.9063 Q20.9531,389.2813 22.1875,389.2813 Q22.9219,389.2813 23.5625,389.4531 Q24.2188,389.6094 24.7656,389.9688 Z " fill="#000000"/><text fill="#000000" font-family="sans-serif" font-size="14" lengthAdjust="spacing" textLength="210" x="36" y="393.5332">MIMLFuzzykNN.LinearNNESearch</text><text fill="#000000" font-family="sans-serif" font-size="10" lengthAdjust="spacing" textLength="121" x="80.5" y="406.9902">miml.classifiers.miml.lazy</text></g></a><!--MD5=[536f27016157d9f28f533247fe9d5e81]
reverse link miml.classifiers.miml.lazy.MultiInstanceMultiLabelKNN to miml.classifiers.miml.lazy.MIMLFuzzykNN--><g id="link_miml.classifiers.miml.lazy.MultiInstanceMultiLabelKNN_miml.classifiers.miml.lazy.MIMLFuzzykNN"><path codeLine="20" d="M128,67.32 C128,79.15 128,92.71 128,106.66 " fill="none" id="miml.classifiers.miml.lazy.MultiInstanceMultiLabelKNN-backto-miml.classifiers.miml.lazy.MIMLFuzzykNN" style="stroke:#181818;stroke-width:1.0;"/><polygon fill="none" points="121,67.08,128,47.08,135,67.08,121,67.08" style="stroke:#181818;stroke-width:1.0;"/></g><!--MD5=[b682c2f10377e18943c03bd08339b643]
reverse link miml.classifiers.miml.lazy.MIMLFuzzykNN to miml.classifiers.miml.lazy.MIMLFuzzykNN.LinearNNESearch--><g id="link_miml.classifiers.miml.lazy.MIMLFuzzykNN_miml.classifiers.miml.lazy.MIMLFuzzykNN.LinearNNESearch"><path codeLine="21" d="M128,329.29 C128,346.53 128,362.34 128,373.9 " fill="none" id="miml.classifiers.miml.lazy.MIMLFuzzykNN-backto-miml.classifiers.miml.lazy.MIMLFuzzykNN.LinearNNESearch" style="stroke:#181818;stroke-width:1.0;"/><ellipse cx="128" cy="322.18" fill="#FFFFFF" rx="8" ry="8" style="stroke:#181818;stroke-width:1.0;"/><line style="stroke:#181818;stroke-width:1.0;" x1="128" x2="128" y1="330.18" y2="314.18"/><line style="stroke:#181818;stroke-width:1.0;" x1="120" x2="136" y1="322.18" y2="322.18"/></g><rect fill="none" height="12.5781" style="stroke:none;stroke-width:1.0;" width="190" x="26" y="419.1875"/><text fill="#888888" font-family="sans-serif" font-size="10" lengthAdjust="spacing" textLength="190" x="26" y="429.5684">UMLDoclet 2.0.20, PlantUML 1.2022.12</text><!--MD5=[a1ee7bf67c4d6218356f42901c259bd1]
@startuml
    set namespaceSeparator none
    hide empty fields
    hide empty methods

    class "<size:14>MIMLFuzzykNN\n<size:10>miml.classifiers.miml.lazy" as miml.classifiers.miml.lazy.MIMLFuzzykNN [[MIMLFuzzykNN.html]] {
        {static} -serialVersionUID: long
        #dataset: MIMLInstances
        #k: int
        #U: double[]
        #kini: int
        #m: double
        #ini: int
        #elnn: LinearNNESearch
        #e: double
    }

    abstract class "<size:14>MultiInstanceMultiLabelKNN\n<size:10>miml.classifiers.miml.lazy" as miml.classifiers.miml.lazy.MultiInstanceMultiLabelKNN [[MultiInstanceMultiLabelKNN.html]]
    class "<size:14>MIMLFuzzykNN.LinearNNESearch\n<size:10>miml.classifiers.miml.lazy" as miml.classifiers.miml.lazy.MIMLFuzzykNN.LinearNNESearch [[MIMLFuzzykNN.LinearNNESearch.html]]

    miml.classifiers.miml.lazy.MultiInstanceMultiLabelKNN <|- - miml.classifiers.miml.lazy.MIMLFuzzykNN
    miml.classifiers.miml.lazy.MIMLFuzzykNN +- - miml.classifiers.miml.lazy.MIMLFuzzykNN.LinearNNESearch

    center footer UMLDoclet 2.0.20, PlantUML 1.2022.12
@enduml

PlantUML version 1.2022.12(Sun Oct 23 20:12:26 CEST 2022)
(APACHE source distribution)
Java Runtime: OpenJDK Runtime Environment
JVM: OpenJDK 64-Bit Server VM
Default Encoding: Cp1252
Language: es
Country: ES
--></g></svg>