<?xml version="1.0" encoding="UTF-8" standalone="no"?><svg xmlns="http://www.w3.org/2000/svg" xmlns:xlink="http://www.w3.org/1999/xlink" contentStyleType="text/css" height="348px" preserveAspectRatio="none" style="width:394px;height:348px;background:#FFFFFF;" version="1.1" viewBox="0 0 394 348" width="394px" zoomAndPan="magnify"><defs/><g><!--MD5=[b67e3c3f7cda4a96df6a38d683fea4ae]
class miml.classifiers.miml.lazy.MIMLBRkNN--><a href="MIMLBRkNN.html" target="_top" title="MIMLBRkNN.html" xlink:actuate="onRequest" xlink:href="MIMLBRkNN.html" xlink:show="new" xlink:title="MIMLBRkNN.html" xlink:type="simple"><g id="elem_miml.classifiers.miml.lazy.MIMLBRkNN"><rect codeLine="5" fill="#F1F1F1" height="214.6719" id="miml.classifiers.miml.lazy.MIMLBRkNN" rx="2.5" ry="2.5" style="stroke:#181818;stroke-width:0.5;" width="380" x="7" y="107"/><ellipse cx="132.25" cy="127.0938" fill="#ADD1B2" rx="11" ry="11" style="stroke:#181818;stroke-width:1.0;"/><path d="M135.0156,122.9688 Q135.1719,122.75 135.3594,122.6406 Q135.5469,122.5313 135.7656,122.5313 Q136.1406,122.5313 136.375,122.7969 Q136.6094,123.0469 136.6094,123.6563 L136.6094,125.1094 Q136.6094,125.7188 136.375,125.9844 Q136.1406,126.25 135.7656,126.25 Q135.4219,126.25 135.2188,126.0469 Q135.0156,125.8594 134.9063,125.3438 Q134.8594,124.9844 134.6719,124.7969 Q134.3438,124.4219 133.7344,124.2031 Q133.125,123.9844 132.5,123.9844 Q131.7344,123.9844 131.0938,124.3125 Q130.4688,124.6406 129.9688,125.3906 Q129.4844,126.1406 129.4844,127.1719 L129.4844,128.2656 Q129.4844,129.5 130.375,130.3281 Q131.2656,131.1406 132.8594,131.1406 Q133.7969,131.1406 134.4531,130.8906 Q134.8438,130.7344 135.2656,130.2969 Q135.5313,130.0313 135.6719,129.9531 Q135.8281,129.875 136.0313,129.875 Q136.3594,129.875 136.6094,130.1406 Q136.875,130.3906 136.875,130.7344 Q136.875,131.0781 136.5313,131.4844 Q136.0313,132.0625 135.2344,132.3906 Q134.1563,132.8438 132.8594,132.8438 Q131.3438,132.8438 130.1406,132.2188 Q129.1563,131.7188 128.4688,130.6563 Q127.7813,129.5781 127.7813,128.2969 L127.7813,127.1406 Q127.7813,125.8125 128.3906,124.6719 Q129.0156,123.5156 130.1094,122.9063 Q131.2031,122.2813 132.4375,122.2813 Q133.1719,122.2813 133.8125,122.4531 Q134.4688,122.6094 135.0156,122.9688 Z " fill="#000000"/><text fill="#000000" font-family="sans-serif" font-size="14" lengthAdjust="spacing" textLength="77" x="174.75" y="126.5332">MIMLBRkNN</text><text fill="#000000" font-family="sans-serif" font-size="10" lengthAdjust="spacing" textLength="121" x="152.75" y="139.9902">miml.classifiers.miml.lazy</text><line style="stroke:#181818;stroke-width:0.5;" x1="8" x2="386" y1="147.1875" y2="147.1875"/><rect fill="none" height="6" style="stroke:#C82930;stroke-width:1.0;" width="6" x="15" y="158.4922"/><text fill="#000000" font-family="sans-serif" font-size="14" lengthAdjust="spacing" text-decoration="underline" textLength="139" x="27" y="165.7207">serialVersionUID: long</text><rect fill="none" height="6" style="stroke:#C82930;stroke-width:1.0;" width="6" x="15" y="176.1016"/><text fill="#000000" font-family="sans-serif" font-size="14" lengthAdjust="spacing" textLength="161" x="27" y="183.3301">extension: ExtensionType</text><line style="stroke:#181818;stroke-width:0.5;" x1="8" x2="386" y1="190.4063" y2="190.4063"/><ellipse cx="18" cy="204.7109" fill="#84BE84" rx="3" ry="3" style="stroke:#038048;stroke-width:1.0;"/><text fill="#000000" font-family="sans-serif" font-size="14" lengthAdjust="spacing" textLength="87" x="27" y="208.9395">MIMLBRkNN()</text><ellipse cx="18" cy="222.3203" fill="#84BE84" rx="3" ry="3" style="stroke:#038048;stroke-width:1.0;"/><text fill="#000000" font-family="sans-serif" font-size="14" lengthAdjust="spacing" textLength="230" x="27" y="226.5488">MIMLBRkNN(MIMLDistanceFunction)</text><ellipse cx="18" cy="239.9297" fill="#84BE84" rx="3" ry="3" style="stroke:#038048;stroke-width:1.0;"/><text fill="#000000" font-family="sans-serif" font-size="14" lengthAdjust="spacing" textLength="253" x="27" y="244.1582">MIMLBRkNN(MIMLDistanceFunction, int)</text><ellipse cx="18" cy="257.5391" fill="#84BE84" rx="3" ry="3" style="stroke:#038048;stroke-width:1.0;"/><text fill="#000000" font-family="sans-serif" font-size="14" lengthAdjust="spacing" textLength="354" x="27" y="261.7676">MIMLBRkNN(MIMLDistanceFunction, int, ExtensionType)</text><ellipse cx="18" cy="275.1484" fill="#84BE84" rx="3" ry="3" style="stroke:#038048;stroke-width:1.0;"/><text fill="#000000" font-family="sans-serif" font-size="14" lengthAdjust="spacing" textLength="188" x="27" y="279.377">configure(Configuration): void</text><ellipse cx="18" cy="292.7578" fill="#84BE84" rx="3" ry="3" style="stroke:#038048;stroke-width:1.0;"/><text fill="#000000" font-family="sans-serif" font-size="14" lengthAdjust="spacing" textLength="192" x="27" y="296.9863">getExtension(): ExtensionType</text><ellipse cx="18" cy="310.3672" fill="#84BE84" rx="3" ry="3" style="stroke:#038048;stroke-width:1.0;"/><text fill="#000000" font-family="sans-serif" font-size="14" lengthAdjust="spacing" textLength="217" x="27" y="314.5957">setExtension(ExtensionType): void</text></g></a><!--MD5=[ed62d99a7179b82aa1c6ae6848b40a65]
class miml.classifiers.miml.lazy.MultiInstanceMultiLabelKNN--><a href="MultiInstanceMultiLabelKNN.html" target="_top" title="MultiInstanceMultiLabelKNN.html" xlink:actuate="onRequest" xlink:href="MultiInstanceMultiLabelKNN.html" xlink:show="new" xlink:title="MultiInstanceMultiLabelKNN.html" xlink:type="simple"><g id="elem_miml.classifiers.miml.lazy.MultiInstanceMultiLabelKNN"><rect codeLine="17" fill="#F1F1F1" height="40.1875" id="miml.classifiers.miml.lazy.MultiInstanceMultiLabelKNN" rx="2.5" ry="2.5" style="stroke:#181818;stroke-width:0.5;" width="210" x="92" y="7"/><ellipse cx="107" cy="27.0938" fill="#A9DCDF" rx="11" ry="11" style="stroke:#181818;stroke-width:1.0;"/><path d="M109.1875,28.8594 L105.0469,28.8594 L104.625,29.8906 L105.0469,29.8906 Q105.6563,29.8906 105.9219,30.125 Q106.1875,30.3594 106.1875,30.75 Q106.1875,31.125 105.9219,31.3594 Q105.6563,31.5938 105.0469,31.5938 L102.75,31.5938 Q102.1406,31.5938 101.8906,31.3594 Q101.625,31.125 101.625,30.7344 Q101.625,30.3594 101.9063,30.125 Q102.1719,29.875 102.7969,29.8906 L105.4688,23.2344 L104.3594,23.2344 Q103.75,23.2344 103.4844,23 Q103.2188,22.7656 103.2188,22.375 Q103.2188,22 103.4844,21.7656 Q103.75,21.5313 104.3594,21.5313 L108.0313,21.5313 L111.4219,29.8906 Q112.0156,29.8906 112.2031,30.0313 Q112.5938,30.2969 112.5938,30.75 Q112.5938,31.125 112.3281,31.3594 Q112.0781,31.5938 111.4688,31.5938 L109.1719,31.5938 Q108.5625,31.5938 108.2969,31.3594 Q108.0313,31.125 108.0313,30.7344 Q108.0313,30.3594 108.2969,30.125 Q108.5625,29.8906 109.1719,29.8906 L109.5938,29.8906 L109.1875,28.8594 Z M108.4688,27.1563 L107.1094,23.7813 L105.7344,27.1563 L108.4688,27.1563 Z " fill="#000000"/><text fill="#000000" font-family="sans-serif" font-size="14" font-style="italic" lengthAdjust="spacing" textLength="178" x="121" y="26.5332">MultiInstanceMultiLabelKNN</text><text fill="#000000" font-family="sans-serif" font-size="10" font-style="italic" lengthAdjust="spacing" textLength="115" x="152.5" y="39.9902">miml.classifiers.miml.lazy</text></g></a><!--MD5=[bc33761d1293c0610186a390b3f12b72]
reverse link miml.classifiers.miml.lazy.MultiInstanceMultiLabelKNN to miml.classifiers.miml.lazy.MIMLBRkNN--><g id="link_miml.classifiers.miml.lazy.MultiInstanceMultiLabelKNN_miml.classifiers.miml.lazy.MIMLBRkNN"><path codeLine="19" d="M197,67.36 C197,79.17 197,92.74 197,106.74 " fill="none" id="miml.classifiers.miml.lazy.MultiInstanceMultiLabelKNN-backto-miml.classifiers.miml.lazy.MIMLBRkNN" style="stroke:#181818;stroke-width:1.0;"/><polygon fill="none" points="190,67.15,197,47.15,204,67.15,190,67.15" style="stroke:#181818;stroke-width:1.0;"/></g><rect fill="none" height="12.5781" style="stroke:none;stroke-width:1.0;" width="190" x="95" y="327.6719"/><text fill="#888888" font-family="sans-serif" font-size="10" lengthAdjust="spacing" textLength="190" x="95" y="338.0527">UMLDoclet 2.0.20, PlantUML 1.2022.12</text><!--MD5=[a1b358d6e6e82940c2516587f96daed0]
@startuml
    set namespaceSeparator none
    hide empty fields
    hide empty methods

    class "<size:14>MIMLBRkNN\n<size:10>miml.classifiers.miml.lazy" as miml.classifiers.miml.lazy.MIMLBRkNN [[MIMLBRkNN.html]] {
        {static} -serialVersionUID: long
        -extension: ExtensionType
        +MIMLBRkNN()
        +MIMLBRkNN(MIMLDistanceFunction)
        +MIMLBRkNN(MIMLDistanceFunction, int)
        +MIMLBRkNN(MIMLDistanceFunction, int, ExtensionType)
        +configure(Configuration): void
        +getExtension(): ExtensionType
        +setExtension(ExtensionType): void
    }

    abstract class "<size:14>MultiInstanceMultiLabelKNN\n<size:10>miml.classifiers.miml.lazy" as miml.classifiers.miml.lazy.MultiInstanceMultiLabelKNN [[MultiInstanceMultiLabelKNN.html]]

    miml.classifiers.miml.lazy.MultiInstanceMultiLabelKNN <|- - miml.classifiers.miml.lazy.MIMLBRkNN

    center footer UMLDoclet 2.0.20, PlantUML 1.2022.12
@enduml

PlantUML version 1.2022.12(Sun Oct 23 20:12:26 CEST 2022)
(APACHE source distribution)
Java Runtime: OpenJDK Runtime Environment
JVM: OpenJDK 64-Bit Server VM
Default Encoding: Cp1252
Language: es
Country: ES
--></g></svg>