<?xml version="1.0" encoding="UTF-8" standalone="no"?><svg xmlns="http://www.w3.org/2000/svg" xmlns:xlink="http://www.w3.org/1999/xlink" contentStyleType="text/css" height="242px" preserveAspectRatio="none" style="width:363px;height:242px;background:#FFFFFF;" version="1.1" viewBox="0 0 363 242" width="363px" zoomAndPan="magnify"><defs/><g><!--MD5=[c658f99dd35e96d228f572680115ddb8]
class miml.classifiers.miml.lazy.MIMLFuzzykNN.LinearNNESearch--><a href="MIMLFuzzykNN.LinearNNESearch.html" target="_top" title="MIMLFuzzykNN.LinearNNESearch.html" xlink:actuate="onRequest" xlink:href="MIMLFuzzykNN.LinearNNESearch.html" xlink:show="new" xlink:title="MIMLFuzzykNN.LinearNNESearch.html" xlink:type="simple"><g id="elem_miml.classifiers.miml.lazy.MIMLFuzzykNN.LinearNNESearch"><rect codeLine="5" fill="#F1F1F1" height="109.0156" id="miml.classifiers.miml.lazy.MIMLFuzzykNN.LinearNNESearch" rx="2.5" ry="2.5" style="stroke:#181818;stroke-width:0.5;" width="315" x="26" y="107"/><ellipse cx="74.25" cy="127.0938" fill="#ADD1B2" rx="11" ry="11" style="stroke:#181818;stroke-width:1.0;"/><path d="M77.0156,122.9688 Q77.1719,122.75 77.3594,122.6406 Q77.5469,122.5313 77.7656,122.5313 Q78.1406,122.5313 78.375,122.7969 Q78.6094,123.0469 78.6094,123.6563 L78.6094,125.1094 Q78.6094,125.7188 78.375,125.9844 Q78.1406,126.25 77.7656,126.25 Q77.4219,126.25 77.2188,126.0469 Q77.0156,125.8594 76.9063,125.3438 Q76.8594,124.9844 76.6719,124.7969 Q76.3438,124.4219 75.7344,124.2031 Q75.125,123.9844 74.5,123.9844 Q73.7344,123.9844 73.0938,124.3125 Q72.4688,124.6406 71.9688,125.3906 Q71.4844,126.1406 71.4844,127.1719 L71.4844,128.2656 Q71.4844,129.5 72.375,130.3281 Q73.2656,131.1406 74.8594,131.1406 Q75.7969,131.1406 76.4531,130.8906 Q76.8438,130.7344 77.2656,130.2969 Q77.5313,130.0313 77.6719,129.9531 Q77.8281,129.875 78.0313,129.875 Q78.3594,129.875 78.6094,130.1406 Q78.875,130.3906 78.875,130.7344 Q78.875,131.0781 78.5313,131.4844 Q78.0313,132.0625 77.2344,132.3906 Q76.1563,132.8438 74.8594,132.8438 Q73.3438,132.8438 72.1406,132.2188 Q71.1563,131.7188 70.4688,130.6563 Q69.7813,129.5781 69.7813,128.2969 L69.7813,127.1406 Q69.7813,125.8125 70.3906,124.6719 Q71.0156,123.5156 72.1094,122.9063 Q73.2031,122.2813 74.4375,122.2813 Q75.1719,122.2813 75.8125,122.4531 Q76.4688,122.6094 77.0156,122.9688 Z " fill="#000000"/><text fill="#000000" font-family="sans-serif" font-size="14" lengthAdjust="spacing" textLength="210" x="94.75" y="126.5332">MIMLFuzzykNN.LinearNNESearch</text><text fill="#000000" font-family="sans-serif" font-size="10" lengthAdjust="spacing" textLength="121" x="139.25" y="139.9902">miml.classifiers.miml.lazy</text><line style="stroke:#181818;stroke-width:0.5;" x1="27" x2="340" y1="147.1875" y2="147.1875"/><rect fill="none" height="6" style="stroke:#C82930;stroke-width:1.0;" width="6" x="34" y="158.4922"/><text fill="#000000" font-family="sans-serif" font-size="14" lengthAdjust="spacing" text-decoration="underline" textLength="139" x="46" y="165.7207">serialVersionUID: long</text><line style="stroke:#181818;stroke-width:0.5;" x1="27" x2="340" y1="172.7969" y2="172.7969"/><ellipse cx="37" cy="187.1016" fill="#84BE84" rx="3" ry="3" style="stroke:#038048;stroke-width:1.0;"/><text fill="#000000" font-family="sans-serif" font-size="14" lengthAdjust="spacing" textLength="182" x="46" y="191.3301">LinearNNESearch(Instances)</text><ellipse cx="37" cy="204.7109" fill="#84BE84" rx="3" ry="3" style="stroke:#038048;stroke-width:1.0;"/><text fill="#000000" font-family="sans-serif" font-size="14" lengthAdjust="spacing" textLength="289" x="46" y="208.9395">kNearestNeighboursIndices(Instance, int): int[]</text></g></a><!--MD5=[eb02f278cd0139064cb7783efa589cf5]
class weka.core.neighboursearch.LinearNNSearch--><g id="elem_weka.core.neighboursearch.LinearNNSearch"><rect codeLine="11" fill="#F1F1F1" height="40.1875" id="weka.core.neighboursearch.LinearNNSearch" rx="2.5" ry="2.5" style="stroke:#181818;stroke-width:0.5;" width="161" x="7" y="7"/><ellipse cx="22" cy="27.0938" fill="#ADD1B2" rx="11" ry="11" style="stroke:#181818;stroke-width:1.0;"/><path d="M24.7656,22.9688 Q24.9219,22.75 25.1094,22.6406 Q25.2969,22.5313 25.5156,22.5313 Q25.8906,22.5313 26.125,22.7969 Q26.3594,23.0469 26.3594,23.6563 L26.3594,25.1094 Q26.3594,25.7188 26.125,25.9844 Q25.8906,26.25 25.5156,26.25 Q25.1719,26.25 24.9688,26.0469 Q24.7656,25.8594 24.6563,25.3438 Q24.6094,24.9844 24.4219,24.7969 Q24.0938,24.4219 23.4844,24.2031 Q22.875,23.9844 22.25,23.9844 Q21.4844,23.9844 20.8438,24.3125 Q20.2188,24.6406 19.7188,25.3906 Q19.2344,26.1406 19.2344,27.1719 L19.2344,28.2656 Q19.2344,29.5 20.125,30.3281 Q21.0156,31.1406 22.6094,31.1406 Q23.5469,31.1406 24.2031,30.8906 Q24.5938,30.7344 25.0156,30.2969 Q25.2813,30.0313 25.4219,29.9531 Q25.5781,29.875 25.7813,29.875 Q26.1094,29.875 26.3594,30.1406 Q26.625,30.3906 26.625,30.7344 Q26.625,31.0781 26.2813,31.4844 Q25.7813,32.0625 24.9844,32.3906 Q23.9063,32.8438 22.6094,32.8438 Q21.0938,32.8438 19.8906,32.2188 Q18.9063,31.7188 18.2188,30.6563 Q17.5313,29.5781 17.5313,28.2969 L17.5313,27.1406 Q17.5313,25.8125 18.1406,24.6719 Q18.7656,23.5156 19.8594,22.9063 Q20.9531,22.2813 22.1875,22.2813 Q22.9219,22.2813 23.5625,22.4531 Q24.2188,22.6094 24.7656,22.9688 Z " fill="#000000"/><text fill="#000000" font-family="sans-serif" font-size="14" lengthAdjust="spacing" textLength="103" x="49" y="26.5332">LinearNNSearch</text><text fill="#000000" font-family="sans-serif" font-size="10" lengthAdjust="spacing" textLength="129" x="36" y="39.9902">weka.core.neighboursearch</text></g><!--MD5=[6a55c6eef95374c0b1f4e8138ea6d4ba]
class miml.classifiers.miml.lazy.MIMLFuzzykNN--><a href="MIMLFuzzykNN.html" target="_top" title="MIMLFuzzykNN.html" xlink:actuate="onRequest" xlink:href="MIMLFuzzykNN.html" xlink:show="new" xlink:title="MIMLFuzzykNN.html" xlink:type="simple"><g id="elem_miml.classifiers.miml.lazy.MIMLFuzzykNN"><rect codeLine="12" fill="#F1F1F1" height="40.1875" id="miml.classifiers.miml.lazy.MIMLFuzzykNN" rx="2.5" ry="2.5" style="stroke:#181818;stroke-width:0.5;" width="153" x="203" y="7"/><ellipse cx="218" cy="27.0938" fill="#ADD1B2" rx="11" ry="11" style="stroke:#181818;stroke-width:1.0;"/><path d="M220.7656,22.9688 Q220.9219,22.75 221.1094,22.6406 Q221.2969,22.5313 221.5156,22.5313 Q221.8906,22.5313 222.125,22.7969 Q222.3594,23.0469 222.3594,23.6563 L222.3594,25.1094 Q222.3594,25.7188 222.125,25.9844 Q221.8906,26.25 221.5156,26.25 Q221.1719,26.25 220.9688,26.0469 Q220.7656,25.8594 220.6563,25.3438 Q220.6094,24.9844 220.4219,24.7969 Q220.0938,24.4219 219.4844,24.2031 Q218.875,23.9844 218.25,23.9844 Q217.4844,23.9844 216.8438,24.3125 Q216.2188,24.6406 215.7188,25.3906 Q215.2344,26.1406 215.2344,27.1719 L215.2344,28.2656 Q215.2344,29.5 216.125,30.3281 Q217.0156,31.1406 218.6094,31.1406 Q219.5469,31.1406 220.2031,30.8906 Q220.5938,30.7344 221.0156,30.2969 Q221.2813,30.0313 221.4219,29.9531 Q221.5781,29.875 221.7813,29.875 Q222.1094,29.875 222.3594,30.1406 Q222.625,30.3906 222.625,30.7344 Q222.625,31.0781 222.2813,31.4844 Q221.7813,32.0625 220.9844,32.3906 Q219.9063,32.8438 218.6094,32.8438 Q217.0938,32.8438 215.8906,32.2188 Q214.9063,31.7188 214.2188,30.6563 Q213.5313,29.5781 213.5313,28.2969 L213.5313,27.1406 Q213.5313,25.8125 214.1406,24.6719 Q214.7656,23.5156 215.8594,22.9063 Q216.9531,22.2813 218.1875,22.2813 Q218.9219,22.2813 219.5625,22.4531 Q220.2188,22.6094 220.7656,22.9688 Z " fill="#000000"/><text fill="#000000" font-family="sans-serif" font-size="14" lengthAdjust="spacing" textLength="94" x="245.5" y="26.5332">MIMLFuzzykNN</text><text fill="#000000" font-family="sans-serif" font-size="10" lengthAdjust="spacing" textLength="121" x="232" y="39.9902">miml.classifiers.miml.lazy</text></g></a><!--MD5=[0973ed7bc2436d835a60dd005788e994]
reverse link weka.core.neighboursearch.LinearNNSearch to miml.classifiers.miml.lazy.MIMLFuzzykNN.LinearNNESearch--><g id="link_weka.core.neighboursearch.LinearNNSearch_miml.classifiers.miml.lazy.MIMLFuzzykNN.LinearNNESearch"><path codeLine="14" d="M113.42,63.77 C123.02,77.02 134.13,92.35 144.63,106.85 " fill="none" id="weka.core.neighboursearch.LinearNNSearch-backto-miml.classifiers.miml.lazy.MIMLFuzzykNN.LinearNNESearch" style="stroke:#181818;stroke-width:1.0;"/><polygon fill="none" points="107.53,67.57,101.46,47.27,118.86,59.36,107.53,67.57" style="stroke:#181818;stroke-width:1.0;"/></g><!--MD5=[b682c2f10377e18943c03bd08339b643]
reverse link miml.classifiers.miml.lazy.MIMLFuzzykNN to miml.classifiers.miml.lazy.MIMLFuzzykNN.LinearNNESearch--><g id="link_miml.classifiers.miml.lazy.MIMLFuzzykNN_miml.classifiers.miml.lazy.MIMLFuzzykNN.LinearNNESearch"><path codeLine="15" d="M256.48,59.78 C246.26,73.88 233.95,90.87 222.37,106.85 " fill="none" id="miml.classifiers.miml.lazy.MIMLFuzzykNN-backto-miml.classifiers.miml.lazy.MIMLFuzzykNN.LinearNNESearch" style="stroke:#181818;stroke-width:1.0;"/><ellipse cx="260.8455" cy="53.7478" fill="#FFFFFF" rx="8" ry="8" style="stroke:#181818;stroke-width:1.0;"/><line style="stroke:#181818;stroke-width:1.0;" x1="256.151" x2="265.54" y1="60.2256" y2="47.27"/><line style="stroke:#181818;stroke-width:1.0;" x1="254.3677" x2="267.3233" y1="49.0533" y2="58.4423"/></g><rect fill="none" height="12.5781" style="stroke:none;stroke-width:1.0;" width="190" x="79.5" y="222.0156"/><text fill="#888888" font-family="sans-serif" font-size="10" lengthAdjust="spacing" textLength="190" x="79.5" y="232.3965">UMLDoclet 2.0.20, PlantUML 1.2022.12</text><!--MD5=[7b0237b640b98d737f1b7cbc2df4ef79]
@startuml
    set namespaceSeparator none
    hide empty fields
    hide empty methods

    class "<size:14>MIMLFuzzykNN.LinearNNESearch\n<size:10>miml.classifiers.miml.lazy" as miml.classifiers.miml.lazy.MIMLFuzzykNN.LinearNNESearch [[MIMLFuzzykNN.LinearNNESearch.html]] {
        {static} -serialVersionUID: long
        +LinearNNESearch(Instances)
        +kNearestNeighboursIndices(Instance, int): int[]
    }

    class "<size:14>LinearNNSearch\n<size:10>weka.core.neighboursearch" as weka.core.neighboursearch.LinearNNSearch
    class "<size:14>MIMLFuzzykNN\n<size:10>miml.classifiers.miml.lazy" as miml.classifiers.miml.lazy.MIMLFuzzykNN [[MIMLFuzzykNN.html]]

    weka.core.neighboursearch.LinearNNSearch <|- - miml.classifiers.miml.lazy.MIMLFuzzykNN.LinearNNESearch
    miml.classifiers.miml.lazy.MIMLFuzzykNN +- - miml.classifiers.miml.lazy.MIMLFuzzykNN.LinearNNESearch

    center footer UMLDoclet 2.0.20, PlantUML 1.2022.12
@enduml

PlantUML version 1.2022.12(Sun Oct 23 20:12:26 CEST 2022)
(APACHE source distribution)
Java Runtime: OpenJDK Runtime Environment
JVM: OpenJDK 64-Bit Server VM
Default Encoding: Cp1252
Language: es
Country: ES
--></g></svg>