<?xml version="1.0" encoding="UTF-8" standalone="no"?><svg xmlns="http://www.w3.org/2000/svg" xmlns:xlink="http://www.w3.org/1999/xlink" contentStyleType="text/css" height="778px" preserveAspectRatio="none" style="width:375px;height:778px;background:#FFFFFF;" version="1.1" viewBox="0 0 375 778" width="375px" zoomAndPan="magnify"><defs/><g><!--MD5=[9fc8f1fe634956498870078cd027ddd4]
class miml.classifiers.miml.lazy.MIMLkNN--><a href="MIMLkNN.html" target="_top" title="MIMLkNN.html" xlink:actuate="onRequest" xlink:href="MIMLkNN.html" xlink:show="new" xlink:title="MIMLkNN.html" xlink:type="simple"><g id="elem_miml.classifiers.miml.lazy.MIMLkNN"><rect codeLine="5" fill="#F1F1F1" height="602.0781" id="miml.classifiers.miml.lazy.MIMLkNN" rx="2.5" ry="2.5" style="stroke:#181818;stroke-width:0.5;" width="353" x="12" y="150"/><ellipse cx="123.75" cy="170.0938" fill="#ADD1B2" rx="11" ry="11" style="stroke:#181818;stroke-width:1.0;"/><path d="M126.5156,165.9688 Q126.6719,165.75 126.8594,165.6406 Q127.0469,165.5313 127.2656,165.5313 Q127.6406,165.5313 127.875,165.7969 Q128.1094,166.0469 128.1094,166.6563 L128.1094,168.1094 Q128.1094,168.7188 127.875,168.9844 Q127.6406,169.25 127.2656,169.25 Q126.9219,169.25 126.7188,169.0469 Q126.5156,168.8594 126.4063,168.3438 Q126.3594,167.9844 126.1719,167.7969 Q125.8438,167.4219 125.2344,167.2031 Q124.625,166.9844 124,166.9844 Q123.2344,166.9844 122.5938,167.3125 Q121.9688,167.6406 121.4688,168.3906 Q120.9844,169.1406 120.9844,170.1719 L120.9844,171.2656 Q120.9844,172.5 121.875,173.3281 Q122.7656,174.1406 124.3594,174.1406 Q125.2969,174.1406 125.9531,173.8906 Q126.3438,173.7344 126.7656,173.2969 Q127.0313,173.0313 127.1719,172.9531 Q127.3281,172.875 127.5313,172.875 Q127.8594,172.875 128.1094,173.1406 Q128.375,173.3906 128.375,173.7344 Q128.375,174.0781 128.0313,174.4844 Q127.5313,175.0625 126.7344,175.3906 Q125.6563,175.8438 124.3594,175.8438 Q122.8438,175.8438 121.6406,175.2188 Q120.6563,174.7188 119.9688,173.6563 Q119.2813,172.5781 119.2813,171.2969 L119.2813,170.1406 Q119.2813,168.8125 119.8906,167.6719 Q120.5156,166.5156 121.6094,165.9063 Q122.7031,165.2813 123.9375,165.2813 Q124.6719,165.2813 125.3125,165.4531 Q125.9688,165.6094 126.5156,165.9688 Z " fill="#000000"/><text fill="#000000" font-family="sans-serif" font-size="14" lengthAdjust="spacing" textLength="58" x="175.75" y="169.5332">MIMLkNN</text><text fill="#000000" font-family="sans-serif" font-size="10" lengthAdjust="spacing" textLength="121" x="144.25" y="182.9902">miml.classifiers.miml.lazy</text><line style="stroke:#181818;stroke-width:0.5;" x1="13" x2="364" y1="190.1875" y2="190.1875"/><rect fill="none" height="6" style="stroke:#C82930;stroke-width:1.0;" width="6" x="20" y="201.4922"/><text fill="#000000" font-family="sans-serif" font-size="14" lengthAdjust="spacing" text-decoration="underline" textLength="139" x="32" y="208.7207">serialVersionUID: long</text><polygon fill="none" points="23,217.1016,27,221.1016,23,225.1016,19,221.1016" style="stroke:#B38D22;stroke-width:1.0;"/><text fill="#000000" font-family="sans-serif" font-size="14" lengthAdjust="spacing" textLength="92" x="32" y="226.3301">num_citers: int</text><polygon fill="none" points="23,234.7109,27,238.7109,23,242.7109,19,238.7109" style="stroke:#B38D22;stroke-width:1.0;"/><text fill="#000000" font-family="sans-serif" font-size="14" lengthAdjust="spacing" textLength="126" x="32" y="243.9395">num_references: int</text><polygon fill="none" points="23,252.3203,27,256.3203,23,260.3203,19,256.3203" style="stroke:#B38D22;stroke-width:1.0;"/><text fill="#000000" font-family="sans-serif" font-size="14" lengthAdjust="spacing" textLength="104" x="32" y="261.5488">metric: IDistance</text><polygon fill="none" points="23,269.9297,27,273.9297,23,277.9297,19,273.9297" style="stroke:#B38D22;stroke-width:1.0;"/><text fill="#000000" font-family="sans-serif" font-size="14" lengthAdjust="spacing" textLength="148" x="32" y="279.1582">dataset: MIMLInstances</text><polygon fill="none" points="23,288.5391,19,294.5391,27,294.5391" style="stroke:#1963A0;stroke-width:1.0;"/><text fill="#000000" font-family="sans-serif" font-size="14" lengthAdjust="spacing" textLength="63" x="32" y="296.7676">d_size: int</text><polygon fill="none" points="23,305.1484,27,309.1484,23,313.1484,19,309.1484" style="stroke:#B38D22;stroke-width:1.0;"/><text fill="#000000" font-family="sans-serif" font-size="14" lengthAdjust="spacing" textLength="157" x="32" y="314.377">distance_matrix: double[]</text><polygon fill="none" points="23,322.7578,27,326.7578,23,330.7578,19,326.7578" style="stroke:#B38D22;stroke-width:1.0;"/><text fill="#000000" font-family="sans-serif" font-size="14" lengthAdjust="spacing" textLength="93" x="32" y="331.9863">ref_matrix: int[]</text><polygon fill="none" points="23,340.3672,27,344.3672,23,348.3672,19,344.3672" style="stroke:#B38D22;stroke-width:1.0;"/><text fill="#000000" font-family="sans-serif" font-size="14" lengthAdjust="spacing" textLength="151" x="32" y="349.5957">weights_matrix: double[]</text><polygon fill="none" points="23,357.9766,27,361.9766,23,365.9766,19,361.9766" style="stroke:#B38D22;stroke-width:1.0;"/><text fill="#000000" font-family="sans-serif" font-size="14" lengthAdjust="spacing" textLength="108" x="32" y="367.2051">t_matrix: double[]</text><polygon fill="none" points="23,375.5859,27,379.5859,23,383.5859,19,379.5859" style="stroke:#B38D22;stroke-width:1.0;"/><text fill="#000000" font-family="sans-serif" font-size="14" lengthAdjust="spacing" textLength="123" x="32" y="384.8145">phi_matrix: double[]</text><line style="stroke:#181818;stroke-width:0.5;" x1="13" x2="364" y1="391.8906" y2="391.8906"/><ellipse cx="23" cy="406.1953" fill="#84BE84" rx="3" ry="3" style="stroke:#038048;stroke-width:1.0;"/><text fill="#000000" font-family="sans-serif" font-size="14" lengthAdjust="spacing" textLength="172" x="32" y="410.4238">MIMLkNN(int, int, IDistance)</text><ellipse cx="23" cy="423.8047" fill="#84BE84" rx="3" ry="3" style="stroke:#038048;stroke-width:1.0;"/><text fill="#000000" font-family="sans-serif" font-size="14" lengthAdjust="spacing" textLength="126" x="32" y="428.0332">MIMLkNN(IDistance)</text><ellipse cx="23" cy="441.4141" fill="#84BE84" rx="3" ry="3" style="stroke:#038048;stroke-width:1.0;"/><text fill="#000000" font-family="sans-serif" font-size="14" lengthAdjust="spacing" textLength="68" x="32" y="445.6426">MIMLkNN()</text><polygon fill="#FFFF44" points="23,454.0234,27,458.0234,23,462.0234,19,458.0234" style="stroke:#B38D22;stroke-width:1.0;"/><text fill="#000000" font-family="sans-serif" font-size="14" lengthAdjust="spacing" textLength="214" x="32" y="463.252">buildInternal(MIMLInstances): void</text><polygon fill="#FFFF44" points="23,471.6328,27,475.6328,23,479.6328,19,475.6328" style="stroke:#B38D22;stroke-width:1.0;"/><text fill="#000000" font-family="sans-serif" font-size="14" lengthAdjust="spacing" textLength="327" x="32" y="480.8613">makePredictionInternal(MIMLBag): MultiLabelOutput</text><polygon fill="#FFFF44" points="23,489.2422,27,493.2422,23,497.2422,19,493.2422" style="stroke:#B38D22;stroke-width:1.0;"/><text fill="#000000" font-family="sans-serif" font-size="14" lengthAdjust="spacing" textLength="211" x="32" y="498.4707">calculateDatasetDistances(): void</text><polygon fill="#FFFF44" points="23,506.8516,27,510.8516,23,514.8516,19,510.8516" style="stroke:#B38D22;stroke-width:1.0;"/><text fill="#000000" font-family="sans-serif" font-size="14" lengthAdjust="spacing" textLength="203" x="32" y="516.0801">calculateReferenceMatrix(): void</text><polygon fill="#FFFF44" points="23,524.4609,27,528.4609,23,532.4609,19,528.4609" style="stroke:#B38D22;stroke-width:1.0;"/><text fill="#000000" font-family="sans-serif" font-size="14" lengthAdjust="spacing" textLength="210" x="32" y="533.6895">calculateBagReferences(int): int[]</text><polygon fill="#FFFF44" points="23,542.0703,27,546.0703,23,550.0703,19,546.0703" style="stroke:#B38D22;stroke-width:1.0;"/><text fill="#000000" font-family="sans-serif" font-size="14" lengthAdjust="spacing" textLength="149" x="32" y="551.2988">getReferences(int): int[]</text><polygon fill="#FFFF44" points="23,559.6797,27,563.6797,23,567.6797,19,563.6797" style="stroke:#B38D22;stroke-width:1.0;"/><text fill="#000000" font-family="sans-serif" font-size="14" lengthAdjust="spacing" textLength="113" x="32" y="568.9082">getCiters(int): int[]</text><polygon fill="#FFFF44" points="23,577.2891,27,581.2891,23,585.2891,19,581.2891" style="stroke:#B38D22;stroke-width:1.0;"/><text fill="#000000" font-family="sans-serif" font-size="14" lengthAdjust="spacing" textLength="213" x="32" y="586.5176">getUnionNeighbours(int): Integer[]</text><polygon fill="#FFFF44" points="23,594.8984,27,598.8984,23,602.8984,19,598.8984" style="stroke:#B38D22;stroke-width:1.0;"/><text fill="#000000" font-family="sans-serif" font-size="14" lengthAdjust="spacing" textLength="258" x="32" y="604.127">calculateRecordLabel(Integer[]): double[]</text><polygon fill="#FFFF44" points="23,612.5078,27,616.5078,23,620.5078,19,616.5078" style="stroke:#B38D22;stroke-width:1.0;"/><text fill="#000000" font-family="sans-serif" font-size="14" lengthAdjust="spacing" textLength="171" x="32" y="621.7363">getBagLabels(int): double[]</text><polygon fill="#FFFF44" points="23,630.1172,27,634.1172,23,638.1172,19,634.1172" style="stroke:#B38D22;stroke-width:1.0;"/><text fill="#000000" font-family="sans-serif" font-size="14" lengthAdjust="spacing" textLength="177" x="32" y="639.3457">getWeightsMatrix(): double[]</text><polygon fill="#FFFF44" points="23,647.7266,27,651.7266,23,655.7266,19,651.7266" style="stroke:#B38D22;stroke-width:1.0;"/><text fill="#000000" font-family="sans-serif" font-size="14" lengthAdjust="spacing" textLength="272" x="32" y="656.9551">linearClassifier(double[], double[]): boolean</text><ellipse cx="23" cy="670.3359" fill="#84BE84" rx="3" ry="3" style="stroke:#038048;stroke-width:1.0;"/><text fill="#000000" font-family="sans-serif" font-size="14" lengthAdjust="spacing" textLength="118" x="32" y="674.5645">getNumCiters(): int</text><ellipse cx="23" cy="687.9453" fill="#84BE84" rx="3" ry="3" style="stroke:#038048;stroke-width:1.0;"/><text fill="#000000" font-family="sans-serif" font-size="14" lengthAdjust="spacing" textLength="143" x="32" y="692.1738">setNumCiters(int): void</text><ellipse cx="23" cy="705.5547" fill="#84BE84" rx="3" ry="3" style="stroke:#038048;stroke-width:1.0;"/><text fill="#000000" font-family="sans-serif" font-size="14" lengthAdjust="spacing" textLength="154" x="32" y="709.7832">getNumReferences(): int</text><ellipse cx="23" cy="723.1641" fill="#84BE84" rx="3" ry="3" style="stroke:#038048;stroke-width:1.0;"/><text fill="#000000" font-family="sans-serif" font-size="14" lengthAdjust="spacing" textLength="179" x="32" y="727.3926">setNumReferences(int): void</text><ellipse cx="23" cy="740.7734" fill="#84BE84" rx="3" ry="3" style="stroke:#038048;stroke-width:1.0;"/><text fill="#000000" font-family="sans-serif" font-size="14" lengthAdjust="spacing" textLength="188" x="32" y="745.002">configure(Configuration): void</text></g></a><!--MD5=[991e2d4b1b011fcbac8561f9fc322429]
class miml.classifiers.miml.MIMLClassifier--><a href="..\MIMLClassifier.html" target="_top" title="..\MIMLClassifier.html" xlink:actuate="onRequest" xlink:href="..\MIMLClassifier.html" xlink:show="new" xlink:title="..\MIMLClassifier.html" xlink:type="simple"><g id="elem_miml.classifiers.miml.MIMLClassifier"><rect codeLine="39" fill="#F1F1F1" height="83.4063" id="miml.classifiers.miml.MIMLClassifier" rx="2.5" ry="2.5" style="stroke:#181818;stroke-width:0.5;" width="359" x="9" y="7"/><ellipse cx="137.25" cy="27.0938" fill="#A9DCDF" rx="11" ry="11" style="stroke:#181818;stroke-width:1.0;"/><path d="M139.4375,28.8594 L135.2969,28.8594 L134.875,29.8906 L135.2969,29.8906 Q135.9063,29.8906 136.1719,30.125 Q136.4375,30.3594 136.4375,30.75 Q136.4375,31.125 136.1719,31.3594 Q135.9063,31.5938 135.2969,31.5938 L133,31.5938 Q132.3906,31.5938 132.1406,31.3594 Q131.875,31.125 131.875,30.7344 Q131.875,30.3594 132.1563,30.125 Q132.4219,29.875 133.0469,29.8906 L135.7188,23.2344 L134.6094,23.2344 Q134,23.2344 133.7344,23 Q133.4688,22.7656 133.4688,22.375 Q133.4688,22 133.7344,21.7656 Q134,21.5313 134.6094,21.5313 L138.2813,21.5313 L141.6719,29.8906 Q142.2656,29.8906 142.4531,30.0313 Q142.8438,30.2969 142.8438,30.75 Q142.8438,31.125 142.5781,31.3594 Q142.3281,31.5938 141.7188,31.5938 L139.4219,31.5938 Q138.8125,31.5938 138.5469,31.3594 Q138.2813,31.125 138.2813,30.7344 Q138.2813,30.3594 138.5469,30.125 Q138.8125,29.8906 139.4219,29.8906 L139.8438,29.8906 L139.4375,28.8594 Z M138.7188,27.1563 L137.3594,23.7813 L135.9844,27.1563 L138.7188,27.1563 Z " fill="#000000"/><text fill="#000000" font-family="sans-serif" font-size="14" font-style="italic" lengthAdjust="spacing" textLength="94" x="157.75" y="26.5332">MIMLClassifier</text><text fill="#000000" font-family="sans-serif" font-size="10" font-style="italic" lengthAdjust="spacing" textLength="93" x="158.25" y="39.9902">miml.classifiers.miml</text><line style="stroke:#181818;stroke-width:0.5;" x1="10" x2="367" y1="47.1875" y2="47.1875"/><polygon fill="#FFFF44" points="20,56.4922,24,60.4922,20,64.4922,16,60.4922" style="stroke:#B38D22;stroke-width:1.0;"/><text fill="#000000" font-family="sans-serif" font-size="14" font-style="italic" lengthAdjust="spacing" textLength="218" x="29" y="65.7207">buildInternal(MIMLInstances): void</text><polygon fill="#FFFF44" points="20,74.1016,24,78.1016,20,82.1016,16,78.1016" style="stroke:#B38D22;stroke-width:1.0;"/><text fill="#000000" font-family="sans-serif" font-size="14" font-style="italic" lengthAdjust="spacing" textLength="333" x="29" y="83.3301">makePredictionInternal(MIMLBag): MultiLabelOutput</text></g></a><!--MD5=[eac86293fd099b3a9e3fec5fd6a6acec]
reverse link miml.classifiers.miml.MIMLClassifier to miml.classifiers.miml.lazy.MIMLkNN--><g id="link_miml.classifiers.miml.MIMLClassifier_miml.classifiers.miml.lazy.MIMLkNN"><path codeLine="44" d="M188.5,110.18 C188.5,122.19 188.5,135.52 188.5,149.76 " fill="none" id="miml.classifiers.miml.MIMLClassifier-backto-miml.classifiers.miml.lazy.MIMLkNN" style="stroke:#181818;stroke-width:1.0;"/><polygon fill="none" points="181.5,110.11,188.5,90.11,195.5,110.11,181.5,110.11" style="stroke:#181818;stroke-width:1.0;"/></g><rect fill="none" height="12.5781" style="stroke:none;stroke-width:1.0;" width="190" x="85.5" y="758.0781"/><text fill="#888888" font-family="sans-serif" font-size="10" lengthAdjust="spacing" textLength="190" x="85.5" y="768.459">UMLDoclet 2.0.20, PlantUML 1.2022.12</text><!--MD5=[10561062c0adff49a8ce77c05a1f6a5e]
@startuml
    set namespaceSeparator none
    hide empty fields
    hide empty methods

    class "<size:14>MIMLkNN\n<size:10>miml.classifiers.miml.lazy" as miml.classifiers.miml.lazy.MIMLkNN [[MIMLkNN.html]] {
        {static} -serialVersionUID: long
        #num_citers: int
        #num_references: int
        #metric: IDistance
        #dataset: MIMLInstances
        ~d_size: int
        #distance_matrix: double[]
        #ref_matrix: int[]
        #weights_matrix: double[]
        #t_matrix: double[]
        #phi_matrix: double[]
        +MIMLkNN(int, int, IDistance)
        +MIMLkNN(IDistance)
        +MIMLkNN()
        #buildInternal(MIMLInstances): void
        #makePredictionInternal(MIMLBag): MultiLabelOutput
        #calculateDatasetDistances(): void
        #calculateReferenceMatrix(): void
        #calculateBagReferences(int): int[]
        #getReferences(int): int[]
        #getCiters(int): int[]
        #getUnionNeighbours(int): Integer[]
        #calculateRecordLabel(Integer[]): double[]
        #getBagLabels(int): double[]
        #getWeightsMatrix(): double[]
        #linearClassifier(double[], double[]): boolean
        +getNumCiters(): int
        +setNumCiters(int): void
        +getNumReferences(): int
        +setNumReferences(int): void
        +configure(Configuration): void
    }

    abstract class "<size:14>MIMLClassifier\n<size:10>miml.classifiers.miml" as miml.classifiers.miml.MIMLClassifier [[..\MIMLClassifier.html]] {
        {abstract} #buildInternal(MIMLInstances): void
        {abstract} #makePredictionInternal(MIMLBag): MultiLabelOutput
    }

    miml.classifiers.miml.MIMLClassifier <|- - miml.classifiers.miml.lazy.MIMLkNN

    center footer UMLDoclet 2.0.20, PlantUML 1.2022.12
@enduml

PlantUML version 1.2022.12(Sun Oct 23 20:12:26 CEST 2022)
(APACHE source distribution)
Java Runtime: OpenJDK Runtime Environment
JVM: OpenJDK 64-Bit Server VM
Default Encoding: Cp1252
Language: es
Country: ES
--></g></svg>