<?xml version="1.0" encoding="UTF-8" standalone="no"?><svg xmlns="http://www.w3.org/2000/svg" xmlns:xlink="http://www.w3.org/1999/xlink" contentStyleType="text/css" height="637px" preserveAspectRatio="none" style="width:442px;height:637px;background:#FFFFFF;" version="1.1" viewBox="0 0 442 637" width="442px" zoomAndPan="magnify"><defs/><g><!--MD5=[9f4548f7437527969961eb30d22e21ad]
class miml.classifiers.miml.lazy.MIMLDistanceFunction--><a href="MIMLDistanceFunction.html" target="_top" title="MIMLDistanceFunction.html" xlink:actuate="onRequest" xlink:href="MIMLDistanceFunction.html" xlink:show="new" xlink:title="MIMLDistanceFunction.html" xlink:type="simple"><g id="elem_miml.classifiers.miml.lazy.MIMLDistanceFunction"><rect codeLine="5" fill="#F1F1F1" height="461.2031" id="miml.classifiers.miml.lazy.MIMLDistanceFunction" rx="2.5" ry="2.5" style="stroke:#181818;stroke-width:0.5;" width="426" x="9" y="150"/><ellipse cx="146.25" cy="170.0938" fill="#ADD1B2" rx="11" ry="11" style="stroke:#181818;stroke-width:1.0;"/><path d="M149.0156,165.9688 Q149.1719,165.75 149.3594,165.6406 Q149.5469,165.5313 149.7656,165.5313 Q150.1406,165.5313 150.375,165.7969 Q150.6094,166.0469 150.6094,166.6563 L150.6094,168.1094 Q150.6094,168.7188 150.375,168.9844 Q150.1406,169.25 149.7656,169.25 Q149.4219,169.25 149.2188,169.0469 Q149.0156,168.8594 148.9063,168.3438 Q148.8594,167.9844 148.6719,167.7969 Q148.3438,167.4219 147.7344,167.2031 Q147.125,166.9844 146.5,166.9844 Q145.7344,166.9844 145.0938,167.3125 Q144.4688,167.6406 143.9688,168.3906 Q143.4844,169.1406 143.4844,170.1719 L143.4844,171.2656 Q143.4844,172.5 144.375,173.3281 Q145.2656,174.1406 146.8594,174.1406 Q147.7969,174.1406 148.4531,173.8906 Q148.8438,173.7344 149.2656,173.2969 Q149.5313,173.0313 149.6719,172.9531 Q149.8281,172.875 150.0313,172.875 Q150.3594,172.875 150.6094,173.1406 Q150.875,173.3906 150.875,173.7344 Q150.875,174.0781 150.5313,174.4844 Q150.0313,175.0625 149.2344,175.3906 Q148.1563,175.8438 146.8594,175.8438 Q145.3438,175.8438 144.1406,175.2188 Q143.1563,174.7188 142.4688,173.6563 Q141.7813,172.5781 141.7813,171.2969 L141.7813,170.1406 Q141.7813,168.8125 142.3906,167.6719 Q143.0156,166.5156 144.1094,165.9063 Q145.2031,165.2813 146.4375,165.2813 Q147.1719,165.2813 147.8125,165.4531 Q148.4688,165.6094 149.0156,165.9688 Z " fill="#000000"/><text fill="#000000" font-family="sans-serif" font-size="14" lengthAdjust="spacing" textLength="143" x="166.75" y="169.5332">MIMLDistanceFunction</text><text fill="#000000" font-family="sans-serif" font-size="10" lengthAdjust="spacing" textLength="121" x="177.75" y="182.9902">miml.classifiers.miml.lazy</text><line style="stroke:#181818;stroke-width:0.5;" x1="10" x2="434" y1="190.1875" y2="190.1875"/><rect fill="none" height="6" style="stroke:#C82930;stroke-width:1.0;" width="6" x="17" y="201.4922"/><text fill="#000000" font-family="sans-serif" font-size="14" lengthAdjust="spacing" text-decoration="underline" textLength="139" x="29" y="208.7207">serialVersionUID: long</text><polygon fill="none" points="20,217.1016,24,221.1016,20,225.1016,16,221.1016" style="stroke:#B38D22;stroke-width:1.0;"/><text fill="#000000" font-family="sans-serif" font-size="14" lengthAdjust="spacing" textLength="104" x="29" y="226.3301">metric: IDistance</text><line style="stroke:#181818;stroke-width:0.5;" x1="10" x2="434" y1="233.4063" y2="233.4063"/><ellipse cx="20" cy="247.7109" fill="#84BE84" rx="3" ry="3" style="stroke:#038048;stroke-width:1.0;"/><text fill="#000000" font-family="sans-serif" font-size="14" lengthAdjust="spacing" textLength="211" x="29" y="251.9395">MIMLDistanceFunction(IDistance)</text><ellipse cx="20" cy="265.3203" fill="#84BE84" rx="3" ry="3" style="stroke:#038048;stroke-width:1.0;"/><text fill="#000000" font-family="sans-serif" font-size="14" lengthAdjust="spacing" textLength="159" x="29" y="269.5488">setMetric(IDistance): void</text><ellipse cx="20" cy="282.9297" fill="#84BE84" rx="3" ry="3" style="stroke:#038048;stroke-width:1.0;"/><text fill="#000000" font-family="sans-serif" font-size="14" lengthAdjust="spacing" textLength="134" x="29" y="287.1582">getMetric(): IDistance</text><ellipse cx="20" cy="300.5391" fill="#84BE84" rx="3" ry="3" style="stroke:#038048;stroke-width:1.0;"/><text fill="#000000" font-family="sans-serif" font-size="14" lengthAdjust="spacing" textLength="400" x="29" y="304.7676">distance(Instance, Instance, double, PerformanceStats): double</text><ellipse cx="20" cy="318.1484" fill="#84BE84" rx="3" ry="3" style="stroke:#038048;stroke-width:1.0;"/><text fill="#000000" font-family="sans-serif" font-size="14" lengthAdjust="spacing" textLength="132" x="29" y="322.377">getOptions(): String[]</text><ellipse cx="20" cy="335.7578" fill="#84BE84" rx="3" ry="3" style="stroke:#038048;stroke-width:1.0;"/><text fill="#000000" font-family="sans-serif" font-size="14" lengthAdjust="spacing" textLength="157" x="29" y="339.9863">setOptions(String[]): void</text><ellipse cx="20" cy="353.3672" fill="#84BE84" rx="3" ry="3" style="stroke:#038048;stroke-width:1.0;"/><text fill="#000000" font-family="sans-serif" font-size="14" lengthAdjust="spacing" textLength="228" x="29" y="357.5957">distance(Instance, Instance): double</text><ellipse cx="20" cy="370.9766" fill="#84BE84" rx="3" ry="3" style="stroke:#038048;stroke-width:1.0;"/><text fill="#000000" font-family="sans-serif" font-size="14" lengthAdjust="spacing" textLength="349" x="29" y="375.2051">distance(Instance, Instance, PerformanceStats): double</text><ellipse cx="20" cy="388.5859" fill="#84BE84" rx="3" ry="3" style="stroke:#038048;stroke-width:1.0;"/><text fill="#000000" font-family="sans-serif" font-size="14" lengthAdjust="spacing" textLength="279" x="29" y="392.8145">distance(Instance, Instance, double): double</text><ellipse cx="20" cy="406.1953" fill="#84BE84" rx="3" ry="3" style="stroke:#038048;stroke-width:1.0;"/><text fill="#000000" font-family="sans-serif" font-size="14" lengthAdjust="spacing" textLength="183" x="29" y="410.4238">setInstances(Instances): void</text><ellipse cx="20" cy="423.8047" fill="#84BE84" rx="3" ry="3" style="stroke:#038048;stroke-width:1.0;"/><text fill="#000000" font-family="sans-serif" font-size="14" lengthAdjust="spacing" textLength="158" x="29" y="428.0332">getInstances(): Instances</text><ellipse cx="20" cy="441.4141" fill="#84BE84" rx="3" ry="3" style="stroke:#038048;stroke-width:1.0;"/><text fill="#000000" font-family="sans-serif" font-size="14" lengthAdjust="spacing" textLength="197" x="29" y="445.6426">setAttributeIndices(String): void</text><ellipse cx="20" cy="459.0234" fill="#84BE84" rx="3" ry="3" style="stroke:#038048;stroke-width:1.0;"/><text fill="#000000" font-family="sans-serif" font-size="14" lengthAdjust="spacing" textLength="172" x="29" y="463.252">getAttributeIndices(): String</text><ellipse cx="20" cy="476.6328" fill="#84BE84" rx="3" ry="3" style="stroke:#038048;stroke-width:1.0;"/><text fill="#000000" font-family="sans-serif" font-size="14" lengthAdjust="spacing" textLength="207" x="29" y="480.8613">setInvertSelection(boolean): void</text><ellipse cx="20" cy="494.2422" fill="#84BE84" rx="3" ry="3" style="stroke:#038048;stroke-width:1.0;"/><text fill="#000000" font-family="sans-serif" font-size="14" lengthAdjust="spacing" textLength="182" x="29" y="498.4707">getInvertSelection(): boolean</text><ellipse cx="20" cy="511.8516" fill="#84BE84" rx="3" ry="3" style="stroke:#038048;stroke-width:1.0;"/><text fill="#000000" font-family="sans-serif" font-size="14" lengthAdjust="spacing" textLength="235" x="29" y="516.0801">postProcessDistances(double[]): void</text><ellipse cx="20" cy="529.4609" fill="#84BE84" rx="3" ry="3" style="stroke:#038048;stroke-width:1.0;"/><text fill="#000000" font-family="sans-serif" font-size="14" lengthAdjust="spacing" textLength="141" x="29" y="533.6895">update(Instance): void</text><ellipse cx="20" cy="547.0703" fill="#84BE84" rx="3" ry="3" style="stroke:#038048;stroke-width:1.0;"/><text fill="#000000" font-family="sans-serif" font-size="14" lengthAdjust="spacing" textLength="188" x="29" y="551.2988">listOptions(): Enumeration&lt;?&gt;</text><ellipse cx="20" cy="564.6797" fill="#84BE84" rx="3" ry="3" style="stroke:#038048;stroke-width:1.0;"/><text fill="#000000" font-family="sans-serif" font-size="14" lengthAdjust="spacing" textLength="129" x="29" y="568.9082">getRevision(): String</text><ellipse cx="20" cy="582.2891" fill="#84BE84" rx="3" ry="3" style="stroke:#038048;stroke-width:1.0;"/><text fill="#000000" font-family="sans-serif" font-size="14" lengthAdjust="spacing" textLength="116" x="29" y="586.5176">globalInfo(): String</text><polygon fill="#FFFF44" points="20,594.8984,24,598.8984,20,602.8984,16,598.8984" style="stroke:#B38D22;stroke-width:1.0;"/><text fill="#000000" font-family="sans-serif" font-size="14" lengthAdjust="spacing" textLength="254" x="29" y="604.127">updateDistance(double, double): double</text></g></a><!--MD5=[17d8d50874dc9a60485fb5165eadfea2]
class weka.core.NormalizableDistance--><g id="elem_weka.core.NormalizableDistance"><rect codeLine="31" fill="#F1F1F1" height="83.4063" id="weka.core.NormalizableDistance" rx="2.5" ry="2.5" style="stroke:#181818;stroke-width:0.5;" width="280" x="82" y="7"/><ellipse cx="149.25" cy="27.0938" fill="#A9DCDF" rx="11" ry="11" style="stroke:#181818;stroke-width:1.0;"/><path d="M151.4375,28.8594 L147.2969,28.8594 L146.875,29.8906 L147.2969,29.8906 Q147.9063,29.8906 148.1719,30.125 Q148.4375,30.3594 148.4375,30.75 Q148.4375,31.125 148.1719,31.3594 Q147.9063,31.5938 147.2969,31.5938 L145,31.5938 Q144.3906,31.5938 144.1406,31.3594 Q143.875,31.125 143.875,30.7344 Q143.875,30.3594 144.1563,30.125 Q144.4219,29.875 145.0469,29.8906 L147.7188,23.2344 L146.6094,23.2344 Q146,23.2344 145.7344,23 Q145.4688,22.7656 145.4688,22.375 Q145.4688,22 145.7344,21.7656 Q146,21.5313 146.6094,21.5313 L150.2813,21.5313 L153.6719,29.8906 Q154.2656,29.8906 154.4531,30.0313 Q154.8438,30.2969 154.8438,30.75 Q154.8438,31.125 154.5781,31.3594 Q154.3281,31.5938 153.7188,31.5938 L151.4219,31.5938 Q150.8125,31.5938 150.5469,31.3594 Q150.2813,31.125 150.2813,30.7344 Q150.2813,30.3594 150.5469,30.125 Q150.8125,29.8906 151.4219,29.8906 L151.8438,29.8906 L151.4375,28.8594 Z M150.7188,27.1563 L149.3594,23.7813 L147.9844,27.1563 L150.7188,27.1563 Z " fill="#000000"/><text fill="#000000" font-family="sans-serif" font-size="14" font-style="italic" lengthAdjust="spacing" textLength="137" x="169.75" y="26.5332">NormalizableDistance</text><text fill="#000000" font-family="sans-serif" font-size="10" font-style="italic" lengthAdjust="spacing" textLength="48" x="214.25" y="39.9902">weka.core</text><line style="stroke:#181818;stroke-width:0.5;" x1="83" x2="361" y1="47.1875" y2="47.1875"/><ellipse cx="93" cy="61.4922" fill="#84BE84" rx="3" ry="3" style="stroke:#038048;stroke-width:1.0;"/><text fill="#000000" font-family="sans-serif" font-size="14" font-style="italic" lengthAdjust="spacing" textLength="117" x="102" y="65.7207">globalInfo(): String</text><polygon fill="#FFFF44" points="93,74.1016,97,78.1016,93,82.1016,89,78.1016" style="stroke:#B38D22;stroke-width:1.0;"/><text fill="#000000" font-family="sans-serif" font-size="14" font-style="italic" lengthAdjust="spacing" textLength="254" x="102" y="83.3301">updateDistance(double, double): double</text></g><!--MD5=[527a62ab43e77b3d3e642792d5032877]
reverse link weka.core.NormalizableDistance to miml.classifiers.miml.lazy.MIMLDistanceFunction--><g id="link_weka.core.NormalizableDistance_miml.classifiers.miml.lazy.MIMLDistanceFunction"><path codeLine="36" d="M222,110.48 C222,122.5 222,135.77 222,149.77 " fill="none" id="weka.core.NormalizableDistance-backto-miml.classifiers.miml.lazy.MIMLDistanceFunction" style="stroke:#181818;stroke-width:1.0;"/><polygon fill="none" points="215,110.3,222,90.3,229,110.3,215,110.3" style="stroke:#181818;stroke-width:1.0;"/></g><rect fill="none" height="12.5781" style="stroke:none;stroke-width:1.0;" width="190" x="119" y="617.2031"/><text fill="#888888" font-family="sans-serif" font-size="10" lengthAdjust="spacing" textLength="190" x="119" y="627.584">UMLDoclet 2.0.20, PlantUML 1.2022.12</text><!--MD5=[94854dc1591753fa918c5ede06c478b0]
@startuml
    set namespaceSeparator none
    hide empty fields
    hide empty methods

    class "<size:14>MIMLDistanceFunction\n<size:10>miml.classifiers.miml.lazy" as miml.classifiers.miml.lazy.MIMLDistanceFunction [[MIMLDistanceFunction.html]] {
        {static} -serialVersionUID: long
        #metric: IDistance
        +MIMLDistanceFunction(IDistance)
        +setMetric(IDistance): void
        +getMetric(): IDistance
        +distance(Instance, Instance, double, PerformanceStats): double
        +getOptions(): String[]
        +setOptions(String[]): void
        +distance(Instance, Instance): double
        +distance(Instance, Instance, PerformanceStats): double
        +distance(Instance, Instance, double): double
        +setInstances(Instances): void
        +getInstances(): Instances
        +setAttributeIndices(String): void
        +getAttributeIndices(): String
        +setInvertSelection(boolean): void
        +getInvertSelection(): boolean
        +postProcessDistances(double[]): void
        +update(Instance): void
        +listOptions(): Enumeration<?>
        +getRevision(): String
        +globalInfo(): String
        #updateDistance(double, double): double
    }

    abstract class "<size:14>NormalizableDistance\n<size:10>weka.core" as weka.core.NormalizableDistance {
        {abstract} +globalInfo(): String
        {abstract} #updateDistance(double, double): double
    }

    weka.core.NormalizableDistance <|- - miml.classifiers.miml.lazy.MIMLDistanceFunction

    center footer UMLDoclet 2.0.20, PlantUML 1.2022.12
@enduml

PlantUML version 1.2022.12(Sun Oct 23 20:12:26 CEST 2022)
(APACHE source distribution)
Java Runtime: OpenJDK Runtime Environment
JVM: OpenJDK 64-Bit Server VM
Default Encoding: Cp1252
Language: es
Country: ES
--></g></svg>