<?xml version="1.0" encoding="UTF-8" standalone="no"?><svg xmlns="http://www.w3.org/2000/svg" xmlns:xlink="http://www.w3.org/1999/xlink" contentStyleType="text/css" height="277px" preserveAspectRatio="none" style="width:280px;height:277px;background:#FFFFFF;" version="1.1" viewBox="0 0 280 277" width="280px" zoomAndPan="magnify"><defs/><g><!--MD5=[93646ebe9d99e397ef1110714f59bbdd]
class miml.classifiers.miml.lazy.MIMLDGC--><a href="MIMLDGC.html" target="_top" title="MIMLDGC.html" xlink:actuate="onRequest" xlink:href="MIMLDGC.html" xlink:show="new" xlink:title="MIMLDGC.html" xlink:type="simple"><g id="elem_miml.classifiers.miml.lazy.MIMLDGC"><rect codeLine="5" fill="#F1F1F1" height="144.2344" id="miml.classifiers.miml.lazy.MIMLDGC" rx="2.5" ry="2.5" style="stroke:#181818;stroke-width:0.5;" width="266" x="7" y="107"/><ellipse cx="75.25" cy="127.0938" fill="#ADD1B2" rx="11" ry="11" style="stroke:#181818;stroke-width:1.0;"/><path d="M78.0156,122.9688 Q78.1719,122.75 78.3594,122.6406 Q78.5469,122.5313 78.7656,122.5313 Q79.1406,122.5313 79.375,122.7969 Q79.6094,123.0469 79.6094,123.6563 L79.6094,125.1094 Q79.6094,125.7188 79.375,125.9844 Q79.1406,126.25 78.7656,126.25 Q78.4219,126.25 78.2188,126.0469 Q78.0156,125.8594 77.9063,125.3438 Q77.8594,124.9844 77.6719,124.7969 Q77.3438,124.4219 76.7344,124.2031 Q76.125,123.9844 75.5,123.9844 Q74.7344,123.9844 74.0938,124.3125 Q73.4688,124.6406 72.9688,125.3906 Q72.4844,126.1406 72.4844,127.1719 L72.4844,128.2656 Q72.4844,129.5 73.375,130.3281 Q74.2656,131.1406 75.8594,131.1406 Q76.7969,131.1406 77.4531,130.8906 Q77.8438,130.7344 78.2656,130.2969 Q78.5313,130.0313 78.6719,129.9531 Q78.8281,129.875 79.0313,129.875 Q79.3594,129.875 79.6094,130.1406 Q79.875,130.3906 79.875,130.7344 Q79.875,131.0781 79.5313,131.4844 Q79.0313,132.0625 78.2344,132.3906 Q77.1563,132.8438 75.8594,132.8438 Q74.3438,132.8438 73.1406,132.2188 Q72.1563,131.7188 71.4688,130.6563 Q70.7813,129.5781 70.7813,128.2969 L70.7813,127.1406 Q70.7813,125.8125 71.3906,124.6719 Q72.0156,123.5156 73.1094,122.9063 Q74.2031,122.2813 75.4375,122.2813 Q76.1719,122.2813 76.8125,122.4531 Q77.4688,122.6094 78.0156,122.9688 Z " fill="#000000"/><text fill="#000000" font-family="sans-serif" font-size="14" lengthAdjust="spacing" textLength="64" x="124.25" y="126.5332">MIMLDGC</text><text fill="#000000" font-family="sans-serif" font-size="10" lengthAdjust="spacing" textLength="121" x="95.75" y="139.9902">miml.classifiers.miml.lazy</text><line style="stroke:#181818;stroke-width:0.5;" x1="8" x2="272" y1="147.1875" y2="147.1875"/><rect fill="none" height="6" style="stroke:#C82930;stroke-width:1.0;" width="6" x="15" y="158.4922"/><text fill="#000000" font-family="sans-serif" font-size="14" lengthAdjust="spacing" text-decoration="underline" textLength="139" x="27" y="165.7207">serialVersionUID: long</text><line style="stroke:#181818;stroke-width:0.5;" x1="8" x2="272" y1="172.7969" y2="172.7969"/><ellipse cx="18" cy="187.1016" fill="#84BE84" rx="3" ry="3" style="stroke:#038048;stroke-width:1.0;"/><text fill="#000000" font-family="sans-serif" font-size="14" lengthAdjust="spacing" textLength="74" x="27" y="191.3301">MIMLDGC()</text><ellipse cx="18" cy="204.7109" fill="#84BE84" rx="3" ry="3" style="stroke:#038048;stroke-width:1.0;"/><text fill="#000000" font-family="sans-serif" font-size="14" lengthAdjust="spacing" textLength="217" x="27" y="208.9395">MIMLDGC(MIMLDistanceFunction)</text><ellipse cx="18" cy="222.3203" fill="#84BE84" rx="3" ry="3" style="stroke:#038048;stroke-width:1.0;"/><text fill="#000000" font-family="sans-serif" font-size="14" lengthAdjust="spacing" textLength="240" x="27" y="226.5488">MIMLDGC(MIMLDistanceFunction, int)</text><ellipse cx="18" cy="239.9297" fill="#84BE84" rx="3" ry="3" style="stroke:#038048;stroke-width:1.0;"/><text fill="#000000" font-family="sans-serif" font-size="14" lengthAdjust="spacing" textLength="188" x="27" y="244.1582">configure(Configuration): void</text></g></a><!--MD5=[ed62d99a7179b82aa1c6ae6848b40a65]
class miml.classifiers.miml.lazy.MultiInstanceMultiLabelKNN--><a href="MultiInstanceMultiLabelKNN.html" target="_top" title="MultiInstanceMultiLabelKNN.html" xlink:actuate="onRequest" xlink:href="MultiInstanceMultiLabelKNN.html" xlink:show="new" xlink:title="MultiInstanceMultiLabelKNN.html" xlink:type="simple"><g id="elem_miml.classifiers.miml.lazy.MultiInstanceMultiLabelKNN"><rect codeLine="13" fill="#F1F1F1" height="40.1875" id="miml.classifiers.miml.lazy.MultiInstanceMultiLabelKNN" rx="2.5" ry="2.5" style="stroke:#181818;stroke-width:0.5;" width="210" x="35" y="7"/><ellipse cx="50" cy="27.0938" fill="#A9DCDF" rx="11" ry="11" style="stroke:#181818;stroke-width:1.0;"/><path d="M52.1875,28.8594 L48.0469,28.8594 L47.625,29.8906 L48.0469,29.8906 Q48.6563,29.8906 48.9219,30.125 Q49.1875,30.3594 49.1875,30.75 Q49.1875,31.125 48.9219,31.3594 Q48.6563,31.5938 48.0469,31.5938 L45.75,31.5938 Q45.1406,31.5938 44.8906,31.3594 Q44.625,31.125 44.625,30.7344 Q44.625,30.3594 44.9063,30.125 Q45.1719,29.875 45.7969,29.8906 L48.4688,23.2344 L47.3594,23.2344 Q46.75,23.2344 46.4844,23 Q46.2188,22.7656 46.2188,22.375 Q46.2188,22 46.4844,21.7656 Q46.75,21.5313 47.3594,21.5313 L51.0313,21.5313 L54.4219,29.8906 Q55.0156,29.8906 55.2031,30.0313 Q55.5938,30.2969 55.5938,30.75 Q55.5938,31.125 55.3281,31.3594 Q55.0781,31.5938 54.4688,31.5938 L52.1719,31.5938 Q51.5625,31.5938 51.2969,31.3594 Q51.0313,31.125 51.0313,30.7344 Q51.0313,30.3594 51.2969,30.125 Q51.5625,29.8906 52.1719,29.8906 L52.5938,29.8906 L52.1875,28.8594 Z M51.4688,27.1563 L50.1094,23.7813 L48.7344,27.1563 L51.4688,27.1563 Z " fill="#000000"/><text fill="#000000" font-family="sans-serif" font-size="14" font-style="italic" lengthAdjust="spacing" textLength="178" x="64" y="26.5332">MultiInstanceMultiLabelKNN</text><text fill="#000000" font-family="sans-serif" font-size="10" font-style="italic" lengthAdjust="spacing" textLength="115" x="95.5" y="39.9902">miml.classifiers.miml.lazy</text></g></a><!--MD5=[0a0a89153770eef4164c895bd487fb49]
reverse link miml.classifiers.miml.lazy.MultiInstanceMultiLabelKNN to miml.classifiers.miml.lazy.MIMLDGC--><g id="link_miml.classifiers.miml.lazy.MultiInstanceMultiLabelKNN_miml.classifiers.miml.lazy.MIMLDGC"><path codeLine="15" d="M140,67.52 C140,79.61 140,93.29 140,106.8 " fill="none" id="miml.classifiers.miml.lazy.MultiInstanceMultiLabelKNN-backto-miml.classifiers.miml.lazy.MIMLDGC" style="stroke:#181818;stroke-width:1.0;"/><polygon fill="none" points="133,67.3,140,47.3,147,67.3,133,67.3" style="stroke:#181818;stroke-width:1.0;"/></g><rect fill="none" height="12.5781" style="stroke:none;stroke-width:1.0;" width="190" x="38" y="257.2344"/><text fill="#888888" font-family="sans-serif" font-size="10" lengthAdjust="spacing" textLength="190" x="38" y="267.6152">UMLDoclet 2.0.20, PlantUML 1.2022.12</text><!--MD5=[64e98974c00548a337cfbe028eb8ac73]
@startuml
    set namespaceSeparator none
    hide empty fields
    hide empty methods

    class "<size:14>MIMLDGC\n<size:10>miml.classifiers.miml.lazy" as miml.classifiers.miml.lazy.MIMLDGC [[MIMLDGC.html]] {
        {static} -serialVersionUID: long
        +MIMLDGC()
        +MIMLDGC(MIMLDistanceFunction)
        +MIMLDGC(MIMLDistanceFunction, int)
        +configure(Configuration): void
    }

    abstract class "<size:14>MultiInstanceMultiLabelKNN\n<size:10>miml.classifiers.miml.lazy" as miml.classifiers.miml.lazy.MultiInstanceMultiLabelKNN [[MultiInstanceMultiLabelKNN.html]]

    miml.classifiers.miml.lazy.MultiInstanceMultiLabelKNN <|- - miml.classifiers.miml.lazy.MIMLDGC

    center footer UMLDoclet 2.0.20, PlantUML 1.2022.12
@enduml

PlantUML version 1.2022.12(Sun Oct 23 20:12:26 CEST 2022)
(APACHE source distribution)
Java Runtime: OpenJDK Runtime Environment
JVM: OpenJDK 64-Bit Server VM
Default Encoding: Cp1252
Language: es
Country: ES
--></g></svg>