<?xml version="1.0" encoding="UTF-8" standalone="no"?><svg xmlns="http://www.w3.org/2000/svg" xmlns:xlink="http://www.w3.org/1999/xlink" contentStyleType="text/css" height="514px" preserveAspectRatio="none" style="width:391px;height:514px;background:#FFFFFF;" version="1.1" viewBox="0 0 391 514" width="391px" zoomAndPan="magnify"><defs/><g><!--MD5=[ed62d99a7179b82aa1c6ae6848b40a65]
class miml.classifiers.miml.lazy.MultiInstanceMultiLabelKNN--><a href="MultiInstanceMultiLabelKNN.html" target="_top" title="MultiInstanceMultiLabelKNN.html" xlink:actuate="onRequest" xlink:href="MultiInstanceMultiLabelKNN.html" xlink:show="new" xlink:title="MultiInstanceMultiLabelKNN.html" xlink:type="simple"><g id="elem_miml.classifiers.miml.lazy.MultiInstanceMultiLabelKNN"><rect codeLine="5" fill="#F1F1F1" height="337.9375" id="miml.classifiers.miml.lazy.MultiInstanceMultiLabelKNN" rx="2.5" ry="2.5" style="stroke:#181818;stroke-width:0.5;" width="375" x="9" y="150"/><ellipse cx="103.25" cy="170.0938" fill="#A9DCDF" rx="11" ry="11" style="stroke:#181818;stroke-width:1.0;"/><path d="M105.4375,171.8594 L101.2969,171.8594 L100.875,172.8906 L101.2969,172.8906 Q101.9063,172.8906 102.1719,173.125 Q102.4375,173.3594 102.4375,173.75 Q102.4375,174.125 102.1719,174.3594 Q101.9063,174.5938 101.2969,174.5938 L99,174.5938 Q98.3906,174.5938 98.1406,174.3594 Q97.875,174.125 97.875,173.7344 Q97.875,173.3594 98.1563,173.125 Q98.4219,172.875 99.0469,172.8906 L101.7188,166.2344 L100.6094,166.2344 Q100,166.2344 99.7344,166 Q99.4688,165.7656 99.4688,165.375 Q99.4688,165 99.7344,164.7656 Q100,164.5313 100.6094,164.5313 L104.2813,164.5313 L107.6719,172.8906 Q108.2656,172.8906 108.4531,173.0313 Q108.8438,173.2969 108.8438,173.75 Q108.8438,174.125 108.5781,174.3594 Q108.3281,174.5938 107.7188,174.5938 L105.4219,174.5938 Q104.8125,174.5938 104.5469,174.3594 Q104.2813,174.125 104.2813,173.7344 Q104.2813,173.3594 104.5469,173.125 Q104.8125,172.8906 105.4219,172.8906 L105.8438,172.8906 L105.4375,171.8594 Z M104.7188,170.1563 L103.3594,166.7813 L101.9844,170.1563 L104.7188,170.1563 Z " fill="#000000"/><text fill="#000000" font-family="sans-serif" font-size="14" font-style="italic" lengthAdjust="spacing" textLength="178" x="123.75" y="169.5332">MultiInstanceMultiLabelKNN</text><text fill="#000000" font-family="sans-serif" font-size="10" font-style="italic" lengthAdjust="spacing" textLength="115" x="155.25" y="182.9902">miml.classifiers.miml.lazy</text><line style="stroke:#181818;stroke-width:0.5;" x1="10" x2="383" y1="190.1875" y2="190.1875"/><rect fill="none" height="6" style="stroke:#C82930;stroke-width:1.0;" width="6" x="17" y="201.4922"/><text fill="#000000" font-family="sans-serif" font-size="14" lengthAdjust="spacing" text-decoration="underline" textLength="139" x="29" y="208.7207">serialVersionUID: long</text><polygon fill="none" points="20,217.1016,24,221.1016,20,225.1016,16,221.1016" style="stroke:#B38D22;stroke-width:1.0;"/><text fill="#000000" font-family="sans-serif" font-size="14" lengthAdjust="spacing" textLength="137" x="29" y="226.3301">numOfNeighbours: int</text><polygon fill="none" points="20,234.7109,24,238.7109,20,242.7109,16,238.7109" style="stroke:#B38D22;stroke-width:1.0;"/><text fill="#000000" font-family="sans-serif" font-size="14" lengthAdjust="spacing" textLength="189" x="29" y="243.9395">metric: MIMLDistanceFunction</text><polygon fill="none" points="20,252.3203,24,256.3203,20,260.3203,16,256.3203" style="stroke:#B38D22;stroke-width:1.0;"/><text fill="#000000" font-family="sans-serif" font-size="14" lengthAdjust="spacing" textLength="154" x="29" y="261.5488">classifier: MultiLabelKNN</text><line style="stroke:#181818;stroke-width:0.5;" x1="10" x2="383" y1="268.625" y2="268.625"/><ellipse cx="20" cy="282.9297" fill="#84BE84" rx="3" ry="3" style="stroke:#038048;stroke-width:1.0;"/><text fill="#000000" font-family="sans-serif" font-size="14" lengthAdjust="spacing" textLength="326" x="29" y="287.1582">MultiInstanceMultiLabelKNN(MIMLDistanceFunction)</text><ellipse cx="20" cy="300.5391" fill="#84BE84" rx="3" ry="3" style="stroke:#038048;stroke-width:1.0;"/><text fill="#000000" font-family="sans-serif" font-size="14" lengthAdjust="spacing" textLength="349" x="29" y="304.7676">MultiInstanceMultiLabelKNN(MIMLDistanceFunction, int)</text><ellipse cx="20" cy="318.1484" fill="#84BE84" rx="3" ry="3" style="stroke:#038048;stroke-width:1.0;"/><text fill="#000000" font-family="sans-serif" font-size="14" lengthAdjust="spacing" textLength="183" x="29" y="322.377">MultiInstanceMultiLabelKNN()</text><ellipse cx="20" cy="335.7578" fill="#84BE84" rx="3" ry="3" style="stroke:#038048;stroke-width:1.0;"/><text fill="#000000" font-family="sans-serif" font-size="14" lengthAdjust="spacing" textLength="188" x="29" y="339.9863">configure(Configuration): void</text><polygon fill="#FFFF44" points="20,348.3672,24,352.3672,20,356.3672,16,352.3672" style="stroke:#B38D22;stroke-width:1.0;"/><text fill="#000000" font-family="sans-serif" font-size="14" lengthAdjust="spacing" textLength="214" x="29" y="357.5957">buildInternal(MIMLInstances): void</text><polygon fill="#FFFF44" points="20,365.9766,24,369.9766,20,373.9766,16,369.9766" style="stroke:#B38D22;stroke-width:1.0;"/><text fill="#000000" font-family="sans-serif" font-size="14" lengthAdjust="spacing" textLength="327" x="29" y="375.2051">makePredictionInternal(MIMLBag): MultiLabelOutput</text><ellipse cx="20" cy="388.5859" fill="#84BE84" rx="3" ry="3" style="stroke:#038048;stroke-width:1.0;"/><text fill="#000000" font-family="sans-serif" font-size="14" lengthAdjust="spacing" textLength="186" x="29" y="392.8145">getMetric(): DistanceFunction</text><ellipse cx="20" cy="406.1953" fill="#84BE84" rx="3" ry="3" style="stroke:#038048;stroke-width:1.0;"/><text fill="#000000" font-family="sans-serif" font-size="14" lengthAdjust="spacing" textLength="211" x="29" y="410.4238">setMetric(DistanceFunction): void</text><ellipse cx="20" cy="423.8047" fill="#84BE84" rx="3" ry="3" style="stroke:#038048;stroke-width:1.0;"/><text fill="#000000" font-family="sans-serif" font-size="14" lengthAdjust="spacing" textLength="187" x="29" y="428.0332">getClassifier(): MultiLabelKNN</text><ellipse cx="20" cy="441.4141" fill="#84BE84" rx="3" ry="3" style="stroke:#038048;stroke-width:1.0;"/><text fill="#000000" font-family="sans-serif" font-size="14" lengthAdjust="spacing" textLength="212" x="29" y="445.6426">setClassifier(MultiLabelKNN): void</text><ellipse cx="20" cy="459.0234" fill="#84BE84" rx="3" ry="3" style="stroke:#038048;stroke-width:1.0;"/><text fill="#000000" font-family="sans-serif" font-size="14" lengthAdjust="spacing" textLength="168" x="29" y="463.252">getNumOfNeighbours(): int</text><ellipse cx="20" cy="476.6328" fill="#84BE84" rx="3" ry="3" style="stroke:#038048;stroke-width:1.0;"/><text fill="#000000" font-family="sans-serif" font-size="14" lengthAdjust="spacing" textLength="192" x="29" y="480.8613">setnumOfNeighbours(int): void</text></g></a><!--MD5=[991e2d4b1b011fcbac8561f9fc322429]
class miml.classifiers.miml.MIMLClassifier--><a href="..\MIMLClassifier.html" target="_top" title="..\MIMLClassifier.html" xlink:actuate="onRequest" xlink:href="..\MIMLClassifier.html" xlink:show="new" xlink:title="..\MIMLClassifier.html" xlink:type="simple"><g id="elem_miml.classifiers.miml.MIMLClassifier"><rect codeLine="24" fill="#F1F1F1" height="83.4063" id="miml.classifiers.miml.MIMLClassifier" rx="2.5" ry="2.5" style="stroke:#181818;stroke-width:0.5;" width="359" x="17" y="7"/><ellipse cx="145.25" cy="27.0938" fill="#A9DCDF" rx="11" ry="11" style="stroke:#181818;stroke-width:1.0;"/><path d="M147.4375,28.8594 L143.2969,28.8594 L142.875,29.8906 L143.2969,29.8906 Q143.9063,29.8906 144.1719,30.125 Q144.4375,30.3594 144.4375,30.75 Q144.4375,31.125 144.1719,31.3594 Q143.9063,31.5938 143.2969,31.5938 L141,31.5938 Q140.3906,31.5938 140.1406,31.3594 Q139.875,31.125 139.875,30.7344 Q139.875,30.3594 140.1563,30.125 Q140.4219,29.875 141.0469,29.8906 L143.7188,23.2344 L142.6094,23.2344 Q142,23.2344 141.7344,23 Q141.4688,22.7656 141.4688,22.375 Q141.4688,22 141.7344,21.7656 Q142,21.5313 142.6094,21.5313 L146.2813,21.5313 L149.6719,29.8906 Q150.2656,29.8906 150.4531,30.0313 Q150.8438,30.2969 150.8438,30.75 Q150.8438,31.125 150.5781,31.3594 Q150.3281,31.5938 149.7188,31.5938 L147.4219,31.5938 Q146.8125,31.5938 146.5469,31.3594 Q146.2813,31.125 146.2813,30.7344 Q146.2813,30.3594 146.5469,30.125 Q146.8125,29.8906 147.4219,29.8906 L147.8438,29.8906 L147.4375,28.8594 Z M146.7188,27.1563 L145.3594,23.7813 L143.9844,27.1563 L146.7188,27.1563 Z " fill="#000000"/><text fill="#000000" font-family="sans-serif" font-size="14" font-style="italic" lengthAdjust="spacing" textLength="94" x="165.75" y="26.5332">MIMLClassifier</text><text fill="#000000" font-family="sans-serif" font-size="10" font-style="italic" lengthAdjust="spacing" textLength="93" x="166.25" y="39.9902">miml.classifiers.miml</text><line style="stroke:#181818;stroke-width:0.5;" x1="18" x2="375" y1="47.1875" y2="47.1875"/><polygon fill="#FFFF44" points="28,56.4922,32,60.4922,28,64.4922,24,60.4922" style="stroke:#B38D22;stroke-width:1.0;"/><text fill="#000000" font-family="sans-serif" font-size="14" font-style="italic" lengthAdjust="spacing" textLength="218" x="37" y="65.7207">buildInternal(MIMLInstances): void</text><polygon fill="#FFFF44" points="28,74.1016,32,78.1016,28,82.1016,24,78.1016" style="stroke:#B38D22;stroke-width:1.0;"/><text fill="#000000" font-family="sans-serif" font-size="14" font-style="italic" lengthAdjust="spacing" textLength="333" x="37" y="83.3301">makePredictionInternal(MIMLBag): MultiLabelOutput</text></g></a><!--MD5=[68ab3a409deec7d11a0a6f9659d2a29e]
reverse link miml.classifiers.miml.MIMLClassifier to miml.classifiers.miml.lazy.MultiInstanceMultiLabelKNN--><g id="link_miml.classifiers.miml.MIMLClassifier_miml.classifiers.miml.lazy.MultiInstanceMultiLabelKNN"><path codeLine="29" d="M196.5,110.68 C196.5,122.76 196.5,135.99 196.5,149.73 " fill="none" id="miml.classifiers.miml.MIMLClassifier-backto-miml.classifiers.miml.lazy.MultiInstanceMultiLabelKNN" style="stroke:#181818;stroke-width:1.0;"/><polygon fill="none" points="189.5,110.28,196.5,90.28,203.5,110.28,189.5,110.28" style="stroke:#181818;stroke-width:1.0;"/></g><rect fill="none" height="12.5781" style="stroke:none;stroke-width:1.0;" width="190" x="93.5" y="493.9375"/><text fill="#888888" font-family="sans-serif" font-size="10" lengthAdjust="spacing" textLength="190" x="93.5" y="504.3184">UMLDoclet 2.0.20, PlantUML 1.2022.12</text><!--MD5=[f70d4685f3479d02db19935b5fad7a05]
@startuml
    set namespaceSeparator none
    hide empty fields
    hide empty methods

    abstract class "<size:14>MultiInstanceMultiLabelKNN\n<size:10>miml.classifiers.miml.lazy" as miml.classifiers.miml.lazy.MultiInstanceMultiLabelKNN [[MultiInstanceMultiLabelKNN.html]] {
        {static} -serialVersionUID: long
        #numOfNeighbours: int
        #metric: MIMLDistanceFunction
        #classifier: MultiLabelKNN
        +MultiInstanceMultiLabelKNN(MIMLDistanceFunction)
        +MultiInstanceMultiLabelKNN(MIMLDistanceFunction, int)
        +MultiInstanceMultiLabelKNN()
        +configure(Configuration): void
        #buildInternal(MIMLInstances): void
        #makePredictionInternal(MIMLBag): MultiLabelOutput
        +getMetric(): DistanceFunction
        +setMetric(DistanceFunction): void
        +getClassifier(): MultiLabelKNN
        +setClassifier(MultiLabelKNN): void
        +getNumOfNeighbours(): int
        +setnumOfNeighbours(int): void
    }

    abstract class "<size:14>MIMLClassifier\n<size:10>miml.classifiers.miml" as miml.classifiers.miml.MIMLClassifier [[..\MIMLClassifier.html]] {
        {abstract} #buildInternal(MIMLInstances): void
        {abstract} #makePredictionInternal(MIMLBag): MultiLabelOutput
    }

    miml.classifiers.miml.MIMLClassifier <|- - miml.classifiers.miml.lazy.MultiInstanceMultiLabelKNN

    center footer UMLDoclet 2.0.20, PlantUML 1.2022.12
@enduml

PlantUML version 1.2022.12(Sun Oct 23 20:12:26 CEST 2022)
(APACHE source distribution)
Java Runtime: OpenJDK Runtime Environment
JVM: OpenJDK 64-Bit Server VM
Default Encoding: Cp1252
Language: es
Country: ES
--></g></svg>