<?xml version="1.0" encoding="UTF-8" standalone="no"?><svg xmlns="http://www.w3.org/2000/svg" xmlns:xlink="http://www.w3.org/1999/xlink" contentStyleType="text/css" height="348px" preserveAspectRatio="none" style="width:458px;height:348px;background:#FFFFFF;" version="1.1" viewBox="0 0 458 348" width="458px" zoomAndPan="magnify"><defs/><g><!--MD5=[5d5e58e54e28748d63e340d905ad3fc2]
class miml.classifiers.miml.IMIMLClassifier--><a href="IMIMLClassifier.html" target="_top" title="IMIMLClassifier.html" xlink:actuate="onRequest" xlink:href="IMIMLClassifier.html" xlink:show="new" xlink:title="IMIMLClassifier.html" xlink:type="simple"><g id="elem_miml.classifiers.miml.IMIMLClassifier"><rect codeLine="5" fill="#F1F1F1" height="118.625" id="miml.classifiers.miml.IMIMLClassifier" rx="2.5" ry="2.5" style="stroke:#181818;stroke-width:0.5;" width="304" x="127" y="203"/><ellipse cx="225.75" cy="223.0938" fill="#B4A7E5" rx="11" ry="11" style="stroke:#181818;stroke-width:1.0;"/><path d="M226.7031,219.7344 L226.7031,226.3906 L228.4219,226.3906 Q229.0313,226.3906 229.2969,226.625 Q229.5625,226.8594 229.5625,227.25 Q229.5625,227.625 229.2969,227.8594 Q229.0313,228.0938 228.4219,228.0938 L223.2813,228.0938 Q222.6719,228.0938 222.4063,227.8594 Q222.1406,227.625 222.1406,227.2344 Q222.1406,226.8594 222.4063,226.625 Q222.6719,226.3906 223.2813,226.3906 L225,226.3906 L225,219.7344 L223.2813,219.7344 Q222.6719,219.7344 222.4063,219.5 Q222.1406,219.2656 222.1406,218.875 Q222.1406,218.5 222.4063,218.2656 Q222.6719,218.0313 223.2813,218.0313 L228.4219,218.0313 Q229.0313,218.0313 229.2969,218.2656 Q229.5625,218.5 229.5625,218.875 Q229.5625,219.2656 229.2969,219.5 Q229.0313,219.7344 228.4219,219.7344 L226.7031,219.7344 Z " fill="#000000"/><text fill="#000000" font-family="sans-serif" font-size="14" font-style="italic" lengthAdjust="spacing" textLength="98" x="246.25" y="222.5332">IMIMLClassifier</text><text fill="#000000" font-family="sans-serif" font-size="10" font-style="italic" lengthAdjust="spacing" textLength="93" x="248.75" y="235.9902">miml.classifiers.miml</text><line style="stroke:#181818;stroke-width:0.5;" x1="128" x2="430" y1="243.1875" y2="243.1875"/><ellipse cx="138" cy="257.4922" fill="#84BE84" rx="3" ry="3" style="stroke:#038048;stroke-width:1.0;"/><text fill="#000000" font-family="sans-serif" font-size="14" font-style="italic" lengthAdjust="spacing" textLength="278" x="147" y="261.7207">makePrediction(Instance): MultiLabelOutput</text><ellipse cx="138" cy="275.1016" fill="#84BE84" rx="3" ry="3" style="stroke:#038048;stroke-width:1.0;"/><text fill="#000000" font-family="sans-serif" font-size="14" font-style="italic" lengthAdjust="spacing" textLength="170" x="147" y="279.3301">build(MIMLInstances): void</text><ellipse cx="138" cy="292.7109" fill="#84BE84" rx="3" ry="3" style="stroke:#038048;stroke-width:1.0;"/><text fill="#000000" font-family="sans-serif" font-size="14" font-style="italic" lengthAdjust="spacing" textLength="155" x="147" y="296.9395">setDebug(boolean): void</text><ellipse cx="138" cy="310.3203" fill="#84BE84" rx="3" ry="3" style="stroke:#038048;stroke-width:1.0;"/><text fill="#000000" font-family="sans-serif" font-size="14" font-style="italic" lengthAdjust="spacing" textLength="184" x="147" y="314.5488">makeCopy(): IMIMLClassifier</text></g></a><!--MD5=[c3ceecbdf1d0b5accfc7f28014123205]
class mulan.classifier.MultiLabelLearner--><g id="elem_mulan.classifier.MultiLabelLearner"><rect codeLine="12" fill="#F1F1F1" height="136.2344" id="mulan.classifier.MultiLabelLearner" rx="2.5" ry="2.5" style="stroke:#181818;stroke-width:0.5;" width="304" x="7" y="7"/><ellipse cx="97.25" cy="27.0938" fill="#B4A7E5" rx="11" ry="11" style="stroke:#181818;stroke-width:1.0;"/><path d="M98.2031,23.7344 L98.2031,30.3906 L99.9219,30.3906 Q100.5313,30.3906 100.7969,30.625 Q101.0625,30.8594 101.0625,31.25 Q101.0625,31.625 100.7969,31.8594 Q100.5313,32.0938 99.9219,32.0938 L94.7813,32.0938 Q94.1719,32.0938 93.9063,31.8594 Q93.6406,31.625 93.6406,31.2344 Q93.6406,30.8594 93.9063,30.625 Q94.1719,30.3906 94.7813,30.3906 L96.5,30.3906 L96.5,23.7344 L94.7813,23.7344 Q94.1719,23.7344 93.9063,23.5 Q93.6406,23.2656 93.6406,22.875 Q93.6406,22.5 93.9063,22.2656 Q94.1719,22.0313 94.7813,22.0313 L99.9219,22.0313 Q100.5313,22.0313 100.7969,22.2656 Q101.0625,22.5 101.0625,22.875 Q101.0625,23.2656 100.7969,23.5 Q100.5313,23.7344 99.9219,23.7344 L98.2031,23.7344 Z " fill="#000000"/><text fill="#000000" font-family="sans-serif" font-size="14" font-style="italic" lengthAdjust="spacing" textLength="115" x="117.75" y="26.5332">MultiLabelLearner</text><text fill="#000000" font-family="sans-serif" font-size="10" font-style="italic" lengthAdjust="spacing" textLength="73" x="138.75" y="39.9902">mulan.classifier</text><line style="stroke:#181818;stroke-width:0.5;" x1="8" x2="310" y1="47.1875" y2="47.1875"/><ellipse cx="18" cy="61.4922" fill="#84BE84" rx="3" ry="3" style="stroke:#038048;stroke-width:1.0;"/><text fill="#000000" font-family="sans-serif" font-size="14" font-style="italic" lengthAdjust="spacing" textLength="144" x="27" y="65.7207">isUpdatable(): boolean</text><ellipse cx="18" cy="79.1016" fill="#84BE84" rx="3" ry="3" style="stroke:#038048;stroke-width:1.0;"/><text fill="#000000" font-family="sans-serif" font-size="14" font-style="italic" lengthAdjust="spacing" textLength="199" x="27" y="83.3301">build(MultiLabelInstances): void</text><ellipse cx="18" cy="96.7109" fill="#84BE84" rx="3" ry="3" style="stroke:#038048;stroke-width:1.0;"/><text fill="#000000" font-family="sans-serif" font-size="14" font-style="italic" lengthAdjust="spacing" textLength="201" x="27" y="100.9395">makeCopy(): MultiLabelLearner</text><ellipse cx="18" cy="114.3203" fill="#84BE84" rx="3" ry="3" style="stroke:#038048;stroke-width:1.0;"/><text fill="#000000" font-family="sans-serif" font-size="14" font-style="italic" lengthAdjust="spacing" textLength="278" x="27" y="118.5488">makePrediction(Instance): MultiLabelOutput</text><ellipse cx="18" cy="131.9297" fill="#84BE84" rx="3" ry="3" style="stroke:#038048;stroke-width:1.0;"/><text fill="#000000" font-family="sans-serif" font-size="14" font-style="italic" lengthAdjust="spacing" textLength="155" x="27" y="136.1582">setDebug(boolean): void</text></g><!--MD5=[5a5af9b0547913863cbe0ddf55a9ab5e]
class java.io.Serializable--><g id="elem_java.io.Serializable"><rect codeLine="19" fill="#F1F1F1" height="40.1875" id="java.io.Serializable" rx="2.5" ry="2.5" style="stroke:#181818;stroke-width:0.5;" width="105" x="346.5" y="55"/><ellipse cx="361.5" cy="75.0938" fill="#B4A7E5" rx="11" ry="11" style="stroke:#181818;stroke-width:1.0;"/><path d="M362.4531,71.7344 L362.4531,78.3906 L364.1719,78.3906 Q364.7813,78.3906 365.0469,78.625 Q365.3125,78.8594 365.3125,79.25 Q365.3125,79.625 365.0469,79.8594 Q364.7813,80.0938 364.1719,80.0938 L359.0313,80.0938 Q358.4219,80.0938 358.1563,79.8594 Q357.8906,79.625 357.8906,79.2344 Q357.8906,78.8594 358.1563,78.625 Q358.4219,78.3906 359.0313,78.3906 L360.75,78.3906 L360.75,71.7344 L359.0313,71.7344 Q358.4219,71.7344 358.1563,71.5 Q357.8906,71.2656 357.8906,70.875 Q357.8906,70.5 358.1563,70.2656 Q358.4219,70.0313 359.0313,70.0313 L364.1719,70.0313 Q364.7813,70.0313 365.0469,70.2656 Q365.3125,70.5 365.3125,70.875 Q365.3125,71.2656 365.0469,71.5 Q364.7813,71.7344 364.1719,71.7344 L362.4531,71.7344 Z " fill="#000000"/><text fill="#000000" font-family="sans-serif" font-size="14" font-style="italic" lengthAdjust="spacing" textLength="73" x="375.5" y="74.5332">Serializable</text><text fill="#000000" font-family="sans-serif" font-size="10" font-style="italic" lengthAdjust="spacing" textLength="31" x="396.5" y="87.9902">java.io</text></g><!--MD5=[a7d0a6855a95ae524e26fe16b41f6230]
reverse link mulan.classifier.MultiLabelLearner to miml.classifiers.miml.IMIMLClassifier--><g id="link_mulan.classifier.MultiLabelLearner_miml.classifiers.miml.IMIMLClassifier"><path codeLine="21" d="M213.63,160.45 C222.88,174.75 232.31,189.32 241.01,202.78 " fill="none" id="mulan.classifier.MultiLabelLearner-backto-miml.classifiers.miml.IMIMLClassifier" style="stroke:#181818;stroke-width:1.0;"/><polygon fill="none" points="207.48,163.83,202.49,143.23,219.23,156.22,207.48,163.83" style="stroke:#181818;stroke-width:1.0;"/></g><!--MD5=[5463716b74e396825648805e35fadfef]
reverse link java.io.Serializable to miml.classifiers.miml.IMIMLClassifier--><g id="link_java.io.Serializable_miml.classifiers.miml.IMIMLClassifier"><path codeLine="22" d="M375.71,112 C359.06,137.74 336.29,172.93 317.03,202.71 " fill="none" id="java.io.Serializable-backto-miml.classifiers.miml.IMIMLClassifier" style="stroke:#181818;stroke-width:1.0;"/><polygon fill="none" points="369.87,108.14,386.61,95.15,381.62,115.75,369.87,108.14" style="stroke:#181818;stroke-width:1.0;"/></g><rect fill="none" height="12.5781" style="stroke:none;stroke-width:1.0;" width="190" x="127.25" y="327.625"/><text fill="#888888" font-family="sans-serif" font-size="10" lengthAdjust="spacing" textLength="190" x="127.25" y="338.0059">UMLDoclet 2.0.20, PlantUML 1.2022.12</text><!--MD5=[99c2da11df7d89a528874d9451ff00be]
@startuml
    set namespaceSeparator none
    hide empty fields
    hide empty methods

    interface "<size:14>IMIMLClassifier\n<size:10>miml.classifiers.miml" as miml.classifiers.miml.IMIMLClassifier [[IMIMLClassifier.html]] {
        {abstract} +makePrediction(Instance): MultiLabelOutput
        {abstract} +build(MIMLInstances): void
        {abstract} +setDebug(boolean): void
        {abstract} +makeCopy(): IMIMLClassifier
    }

    interface "<size:14>MultiLabelLearner\n<size:10>mulan.classifier" as mulan.classifier.MultiLabelLearner {
        {abstract} +isUpdatable(): boolean
        {abstract} +build(MultiLabelInstances): void
        {abstract} +makeCopy(): MultiLabelLearner
        {abstract} +makePrediction(Instance): MultiLabelOutput
        {abstract} +setDebug(boolean): void
    }
    interface "<size:14>Serializable\n<size:10>java.io" as java.io.Serializable

    mulan.classifier.MultiLabelLearner <|- - miml.classifiers.miml.IMIMLClassifier
    java.io.Serializable <|- - miml.classifiers.miml.IMIMLClassifier

    center footer UMLDoclet 2.0.20, PlantUML 1.2022.12
@enduml

PlantUML version 1.2022.12(Sun Oct 23 20:12:26 CEST 2022)
(APACHE source distribution)
Java Runtime: OpenJDK Runtime Environment
JVM: OpenJDK 64-Bit Server VM
Default Encoding: Cp1252
Language: es
Country: ES
--></g></svg>