<?xml version="1.0" encoding="UTF-8" standalone="no"?><svg xmlns="http://www.w3.org/2000/svg" xmlns:xlink="http://www.w3.org/1999/xlink" contentStyleType="text/css" height="585px" preserveAspectRatio="none" style="width:566px;height:585px;background:#FFFFFF;" version="1.1" viewBox="0 0 566 585" width="566px" zoomAndPan="magnify"><defs/><g><!--MD5=[991e2d4b1b011fcbac8561f9fc322429]
class miml.classifiers.miml.MIMLClassifier--><a href="MIMLClassifier.html" target="_top" title="MIMLClassifier.html" xlink:actuate="onRequest" xlink:href="MIMLClassifier.html" xlink:show="new" xlink:title="MIMLClassifier.html" xlink:type="simple"><g id="elem_miml.classifiers.miml.MIMLClassifier"><rect codeLine="5" fill="#F1F1F1" height="373.1563" id="miml.classifiers.miml.MIMLClassifier" rx="2.5" ry="2.5" style="stroke:#181818;stroke-width:0.5;" width="359" x="81" y="186"/><ellipse cx="209.25" cy="206.0938" fill="#A9DCDF" rx="11" ry="11" style="stroke:#181818;stroke-width:1.0;"/><path d="M211.4375,207.8594 L207.2969,207.8594 L206.875,208.8906 L207.2969,208.8906 Q207.9063,208.8906 208.1719,209.125 Q208.4375,209.3594 208.4375,209.75 Q208.4375,210.125 208.1719,210.3594 Q207.9063,210.5938 207.2969,210.5938 L205,210.5938 Q204.3906,210.5938 204.1406,210.3594 Q203.875,210.125 203.875,209.7344 Q203.875,209.3594 204.1563,209.125 Q204.4219,208.875 205.0469,208.8906 L207.7188,202.2344 L206.6094,202.2344 Q206,202.2344 205.7344,202 Q205.4688,201.7656 205.4688,201.375 Q205.4688,201 205.7344,200.7656 Q206,200.5313 206.6094,200.5313 L210.2813,200.5313 L213.6719,208.8906 Q214.2656,208.8906 214.4531,209.0313 Q214.8438,209.2969 214.8438,209.75 Q214.8438,210.125 214.5781,210.3594 Q214.3281,210.5938 213.7188,210.5938 L211.4219,210.5938 Q210.8125,210.5938 210.5469,210.3594 Q210.2813,210.125 210.2813,209.7344 Q210.2813,209.3594 210.5469,209.125 Q210.8125,208.8906 211.4219,208.8906 L211.8438,208.8906 L211.4375,207.8594 Z M210.7188,206.1563 L209.3594,202.7813 L207.9844,206.1563 L210.7188,206.1563 Z " fill="#000000"/><text fill="#000000" font-family="sans-serif" font-size="14" font-style="italic" lengthAdjust="spacing" textLength="94" x="229.75" y="205.5332">MIMLClassifier</text><text fill="#000000" font-family="sans-serif" font-size="10" font-style="italic" lengthAdjust="spacing" textLength="93" x="230.25" y="218.9902">miml.classifiers.miml</text><line style="stroke:#181818;stroke-width:0.5;" x1="82" x2="439" y1="226.1875" y2="226.1875"/><rect fill="none" height="6" style="stroke:#C82930;stroke-width:1.0;" width="6" x="89" y="237.4922"/><text fill="#000000" font-family="sans-serif" font-size="14" lengthAdjust="spacing" text-decoration="underline" textLength="139" x="101" y="244.7207">serialVersionUID: long</text><polygon fill="none" points="92,253.1016,96,257.1016,92,261.1016,88,257.1016" style="stroke:#B38D22;stroke-width:1.0;"/><text fill="#000000" font-family="sans-serif" font-size="14" lengthAdjust="spacing" textLength="164" x="101" y="262.3301">isModelInitialized: boolean</text><polygon fill="none" points="92,270.7109,96,274.7109,92,278.7109,88,274.7109" style="stroke:#B38D22;stroke-width:1.0;"/><text fill="#000000" font-family="sans-serif" font-size="14" lengthAdjust="spacing" textLength="92" x="101" y="279.9395">numLabels: int</text><polygon fill="none" points="92,288.3203,96,292.3203,92,296.3203,88,292.3203" style="stroke:#B38D22;stroke-width:1.0;"/><text fill="#000000" font-family="sans-serif" font-size="14" lengthAdjust="spacing" textLength="105" x="101" y="297.5488">labelIndices: int[]</text><polygon fill="none" points="92,305.9297,96,309.9297,92,313.9297,88,309.9297" style="stroke:#B38D22;stroke-width:1.0;"/><text fill="#000000" font-family="sans-serif" font-size="14" lengthAdjust="spacing" textLength="126" x="101" y="315.1582">labelNames: String[]</text><polygon fill="none" points="92,323.5391,96,327.5391,92,331.5391,88,327.5391" style="stroke:#B38D22;stroke-width:1.0;"/><text fill="#000000" font-family="sans-serif" font-size="14" lengthAdjust="spacing" textLength="120" x="101" y="332.7676">featureIndices: int[]</text><rect fill="none" height="6" style="stroke:#C82930;stroke-width:1.0;" width="6" x="89" y="343.1484"/><text fill="#000000" font-family="sans-serif" font-size="14" lengthAdjust="spacing" textLength="111" x="101" y="350.377">isDebug: boolean</text><line style="stroke:#181818;stroke-width:0.5;" x1="82" x2="439" y1="357.4531" y2="357.4531"/><ellipse cx="92" cy="371.7578" fill="#84BE84" rx="3" ry="3" style="stroke:#038048;stroke-width:1.0;"/><text fill="#000000" font-family="sans-serif" font-size="14" lengthAdjust="spacing" textLength="143" x="101" y="375.9863">isUpdatable(): boolean</text><ellipse cx="92" cy="389.3672" fill="#84BE84" rx="3" ry="3" style="stroke:#038048;stroke-width:1.0;"/><text fill="#000000" font-family="sans-serif" font-size="14" lengthAdjust="spacing" textLength="198" x="101" y="393.5957">build(MultiLabelInstances): void</text><ellipse cx="92" cy="406.9766" fill="#84BE84" rx="3" ry="3" style="stroke:#038048;stroke-width:1.0;"/><text fill="#000000" font-family="sans-serif" font-size="14" lengthAdjust="spacing" textLength="167" x="101" y="411.2051">build(MIMLInstances): void</text><ellipse cx="92" cy="424.5859" fill="#84BE84" rx="3" ry="3" style="stroke:#038048;stroke-width:1.0;"/><text fill="#000000" font-family="sans-serif" font-size="14" lengthAdjust="spacing" textLength="275" x="101" y="428.8145">makePrediction(Instance): MultiLabelOutput</text><ellipse cx="92" cy="442.1953" fill="#84BE84" rx="3" ry="3" style="stroke:#038048;stroke-width:1.0;"/><text fill="#000000" font-family="sans-serif" font-size="14" lengthAdjust="spacing" textLength="156" x="101" y="446.4238">setDebug(boolean): void</text><ellipse cx="92" cy="459.8047" fill="#84BE84" rx="3" ry="3" style="stroke:#038048;stroke-width:1.0;"/><text fill="#000000" font-family="sans-serif" font-size="14" lengthAdjust="spacing" textLength="179" x="101" y="464.0332">makeCopy(): IMIMLClassifier</text><polygon fill="#FFFF44" points="92,472.4141,96,476.4141,92,480.4141,88,476.4141" style="stroke:#B38D22;stroke-width:1.0;"/><text fill="#000000" font-family="sans-serif" font-size="14" lengthAdjust="spacing" textLength="174" x="101" y="481.6426">isModelInitialized(): boolean</text><ellipse cx="92" cy="495.0234" fill="#84BE84" rx="3" ry="3" style="stroke:#038048;stroke-width:1.0;"/><text fill="#000000" font-family="sans-serif" font-size="14" lengthAdjust="spacing" textLength="131" x="101" y="499.252">getDebug(): boolean</text><polygon fill="#FFFF44" points="92,507.6328,96,511.6328,92,515.6328,88,511.6328" style="stroke:#B38D22;stroke-width:1.0;"/><text fill="#000000" font-family="sans-serif" font-size="14" lengthAdjust="spacing" textLength="121" x="101" y="516.8613">debug(String): void</text><polygon fill="#FFFF44" points="92,525.2422,96,529.2422,92,533.2422,88,529.2422" style="stroke:#B38D22;stroke-width:1.0;"/><text fill="#000000" font-family="sans-serif" font-size="14" font-style="italic" lengthAdjust="spacing" textLength="218" x="101" y="534.4707">buildInternal(MIMLInstances): void</text><polygon fill="#FFFF44" points="92,542.8516,96,546.8516,92,550.8516,88,546.8516" style="stroke:#B38D22;stroke-width:1.0;"/><text fill="#000000" font-family="sans-serif" font-size="14" font-style="italic" lengthAdjust="spacing" textLength="333" x="101" y="552.0801">makePredictionInternal(MIMLBag): MultiLabelOutput</text></g></a><!--MD5=[f8ce60393c12cadc7241b943fc2ced33]
class miml.core.IConfiguration--><a href="..\..\core\IConfiguration.html" target="_top" title="..\..\core\IConfiguration.html" xlink:actuate="onRequest" xlink:href="..\..\core\IConfiguration.html" xlink:show="new" xlink:title="..\..\core\IConfiguration.html" xlink:type="simple"><g id="elem_miml.core.IConfiguration"><rect codeLine="26" fill="#F1F1F1" height="65.7969" id="miml.core.IConfiguration" rx="2.5" ry="2.5" style="stroke:#181818;stroke-width:0.5;" width="213" x="7" y="33.5"/><ellipse cx="64.75" cy="53.5938" fill="#B4A7E5" rx="11" ry="11" style="stroke:#181818;stroke-width:1.0;"/><path d="M65.7031,50.2344 L65.7031,56.8906 L67.4219,56.8906 Q68.0313,56.8906 68.2969,57.125 Q68.5625,57.3594 68.5625,57.75 Q68.5625,58.125 68.2969,58.3594 Q68.0313,58.5938 67.4219,58.5938 L62.2813,58.5938 Q61.6719,58.5938 61.4063,58.3594 Q61.1406,58.125 61.1406,57.7344 Q61.1406,57.3594 61.4063,57.125 Q61.6719,56.8906 62.2813,56.8906 L64,56.8906 L64,50.2344 L62.2813,50.2344 Q61.6719,50.2344 61.4063,50 Q61.1406,49.7656 61.1406,49.375 Q61.1406,49 61.4063,48.7656 Q61.6719,48.5313 62.2813,48.5313 L67.4219,48.5313 Q68.0313,48.5313 68.2969,48.7656 Q68.5625,49 68.5625,49.375 Q68.5625,49.7656 68.2969,50 Q68.0313,50.2344 67.4219,50.2344 L65.7031,50.2344 Z " fill="#000000"/><text fill="#000000" font-family="sans-serif" font-size="14" font-style="italic" lengthAdjust="spacing" textLength="89" x="85.25" y="53.0332">IConfiguration</text><text fill="#000000" font-family="sans-serif" font-size="10" font-style="italic" lengthAdjust="spacing" textLength="43" x="108.25" y="66.4902">miml.core</text><line style="stroke:#181818;stroke-width:0.5;" x1="8" x2="219" y1="73.6875" y2="73.6875"/><ellipse cx="18" cy="87.9922" fill="#84BE84" rx="3" ry="3" style="stroke:#038048;stroke-width:1.0;"/><text fill="#000000" font-family="sans-serif" font-size="14" font-style="italic" lengthAdjust="spacing" textLength="187" x="27" y="92.2207">configure(Configuration): void</text></g></a><!--MD5=[5d5e58e54e28748d63e340d905ad3fc2]
class miml.classifiers.miml.IMIMLClassifier--><a href="IMIMLClassifier.html" target="_top" title="IMIMLClassifier.html" xlink:actuate="onRequest" xlink:href="IMIMLClassifier.html" xlink:show="new" xlink:title="IMIMLClassifier.html" xlink:type="simple"><g id="elem_miml.classifiers.miml.IMIMLClassifier"><rect codeLine="29" fill="#F1F1F1" height="118.625" id="miml.classifiers.miml.IMIMLClassifier" rx="2.5" ry="2.5" style="stroke:#181818;stroke-width:0.5;" width="304" x="255.5" y="7"/><ellipse cx="354.25" cy="27.0938" fill="#B4A7E5" rx="11" ry="11" style="stroke:#181818;stroke-width:1.0;"/><path d="M355.2031,23.7344 L355.2031,30.3906 L356.9219,30.3906 Q357.5313,30.3906 357.7969,30.625 Q358.0625,30.8594 358.0625,31.25 Q358.0625,31.625 357.7969,31.8594 Q357.5313,32.0938 356.9219,32.0938 L351.7813,32.0938 Q351.1719,32.0938 350.9063,31.8594 Q350.6406,31.625 350.6406,31.2344 Q350.6406,30.8594 350.9063,30.625 Q351.1719,30.3906 351.7813,30.3906 L353.5,30.3906 L353.5,23.7344 L351.7813,23.7344 Q351.1719,23.7344 350.9063,23.5 Q350.6406,23.2656 350.6406,22.875 Q350.6406,22.5 350.9063,22.2656 Q351.1719,22.0313 351.7813,22.0313 L356.9219,22.0313 Q357.5313,22.0313 357.7969,22.2656 Q358.0625,22.5 358.0625,22.875 Q358.0625,23.2656 357.7969,23.5 Q357.5313,23.7344 356.9219,23.7344 L355.2031,23.7344 Z " fill="#000000"/><text fill="#000000" font-family="sans-serif" font-size="14" font-style="italic" lengthAdjust="spacing" textLength="98" x="374.75" y="26.5332">IMIMLClassifier</text><text fill="#000000" font-family="sans-serif" font-size="10" font-style="italic" lengthAdjust="spacing" textLength="93" x="377.25" y="39.9902">miml.classifiers.miml</text><line style="stroke:#181818;stroke-width:0.5;" x1="256.5" x2="558.5" y1="47.1875" y2="47.1875"/><ellipse cx="266.5" cy="61.4922" fill="#84BE84" rx="3" ry="3" style="stroke:#038048;stroke-width:1.0;"/><text fill="#000000" font-family="sans-serif" font-size="14" font-style="italic" lengthAdjust="spacing" textLength="278" x="275.5" y="65.7207">makePrediction(Instance): MultiLabelOutput</text><ellipse cx="266.5" cy="79.1016" fill="#84BE84" rx="3" ry="3" style="stroke:#038048;stroke-width:1.0;"/><text fill="#000000" font-family="sans-serif" font-size="14" font-style="italic" lengthAdjust="spacing" textLength="170" x="275.5" y="83.3301">build(MIMLInstances): void</text><ellipse cx="266.5" cy="96.7109" fill="#84BE84" rx="3" ry="3" style="stroke:#038048;stroke-width:1.0;"/><text fill="#000000" font-family="sans-serif" font-size="14" font-style="italic" lengthAdjust="spacing" textLength="155" x="275.5" y="100.9395">setDebug(boolean): void</text><ellipse cx="266.5" cy="114.3203" fill="#84BE84" rx="3" ry="3" style="stroke:#038048;stroke-width:1.0;"/><text fill="#000000" font-family="sans-serif" font-size="14" font-style="italic" lengthAdjust="spacing" textLength="184" x="275.5" y="118.5488">makeCopy(): IMIMLClassifier</text></g></a><!--MD5=[bc763555b7751cd1c58c9ae84d5ff3e9]
reverse link miml.core.IConfiguration to miml.classifiers.miml.MIMLClassifier--><g id="link_miml.core.IConfiguration_miml.classifiers.miml.MIMLClassifier"><path codeLine="36" d="M137.81,117.78 C147.26,137.31 158.7,160.97 170.75,185.9 " fill="none" id="miml.core.IConfiguration-backto-miml.classifiers.miml.MIMLClassifier" style="stroke:#181818;stroke-width:1.0;stroke-dasharray:7.0,7.0;"/><polygon fill="none" points="131.5,120.8,129.09,99.75,144.1,114.7,131.5,120.8" style="stroke:#181818;stroke-width:1.0;"/></g><!--MD5=[b60702e5a5ccfd93bed206a0c6236eb4]
reverse link miml.classifiers.miml.IMIMLClassifier to miml.classifiers.miml.MIMLClassifier--><g id="link_miml.classifiers.miml.IMIMLClassifier_miml.classifiers.miml.MIMLClassifier"><path codeLine="37" d="M370.29,144.44 C363.99,157.47 357.22,171.49 350.23,185.93 " fill="none" id="miml.classifiers.miml.IMIMLClassifier-backto-miml.classifiers.miml.MIMLClassifier" style="stroke:#181818;stroke-width:1.0;stroke-dasharray:7.0,7.0;"/><polygon fill="none" points="364.15,141.07,379.16,126.11,376.75,147.17,364.15,141.07" style="stroke:#181818;stroke-width:1.0;"/></g><rect fill="none" height="12.5781" style="stroke:none;stroke-width:1.0;" width="190" x="181.25" y="565.1563"/><text fill="#888888" font-family="sans-serif" font-size="10" lengthAdjust="spacing" textLength="190" x="181.25" y="575.5371">UMLDoclet 2.0.20, PlantUML 1.2022.12</text><!--MD5=[04179716773708a1ec088eb7c58548bf]
@startuml
    set namespaceSeparator none
    hide empty fields
    hide empty methods

    abstract class "<size:14>MIMLClassifier\n<size:10>miml.classifiers.miml" as miml.classifiers.miml.MIMLClassifier [[MIMLClassifier.html]] {
        {static} -serialVersionUID: long
        #isModelInitialized: boolean
        #numLabels: int
        #labelIndices: int[]
        #labelNames: String[]
        #featureIndices: int[]
        -isDebug: boolean
        +isUpdatable(): boolean
        +build(MultiLabelInstances): void
        +build(MIMLInstances): void
        +makePrediction(Instance): MultiLabelOutput
        +setDebug(boolean): void
        +makeCopy(): IMIMLClassifier
        #isModelInitialized(): boolean
        +getDebug(): boolean
        #debug(String): void
        {abstract} #buildInternal(MIMLInstances): void
        {abstract} #makePredictionInternal(MIMLBag): MultiLabelOutput
    }

    interface "<size:14>IConfiguration\n<size:10>miml.core" as miml.core.IConfiguration [[..\..\core\IConfiguration.html]] {
        {abstract} +configure(Configuration): void
    }
    interface "<size:14>IMIMLClassifier\n<size:10>miml.classifiers.miml" as miml.classifiers.miml.IMIMLClassifier [[IMIMLClassifier.html]] {
        {abstract} +makePrediction(Instance): MultiLabelOutput
        {abstract} +build(MIMLInstances): void
        {abstract} +setDebug(boolean): void
        {abstract} +makeCopy(): IMIMLClassifier
    }

    miml.core.IConfiguration <|.. miml.classifiers.miml.MIMLClassifier
    miml.classifiers.miml.IMIMLClassifier <|.. miml.classifiers.miml.MIMLClassifier

    center footer UMLDoclet 2.0.20, PlantUML 1.2022.12
@enduml

PlantUML version 1.2022.12(Sun Oct 23 20:12:26 CEST 2022)
(APACHE source distribution)
Java Runtime: OpenJDK Runtime Environment
JVM: OpenJDK 64-Bit Server VM
Default Encoding: Cp1252
Language: es
Country: ES
--></g></svg>