<?xml version="1.0" encoding="UTF-8" standalone="no"?><svg xmlns="http://www.w3.org/2000/svg" xmlns:xlink="http://www.w3.org/1999/xlink" contentStyleType="text/css" height="373px" preserveAspectRatio="none" style="width:560px;height:373px;background:#FFFFFF;" version="1.1" viewBox="0 0 560 373" width="560px" zoomAndPan="magnify"><defs/><g><!--MD5=[a73d7e6ec4fa7ef9a44f222a19844101]
class miml.classifiers.miml.MWClassifier--><a href="MWClassifier.html" target="_top" title="MWClassifier.html" xlink:actuate="onRequest" xlink:href="MWClassifier.html" xlink:show="new" xlink:title="MWClassifier.html" xlink:type="simple"><g id="elem_miml.classifiers.miml.MWClassifier"><rect codeLine="5" fill="#F1F1F1" height="197.0625" id="miml.classifiers.miml.MWClassifier" rx="2.5" ry="2.5" style="stroke:#181818;stroke-width:0.5;" width="544" x="9" y="150"/><ellipse cx="230.25" cy="170.0938" fill="#A9DCDF" rx="11" ry="11" style="stroke:#181818;stroke-width:1.0;"/><path d="M232.4375,171.8594 L228.2969,171.8594 L227.875,172.8906 L228.2969,172.8906 Q228.9063,172.8906 229.1719,173.125 Q229.4375,173.3594 229.4375,173.75 Q229.4375,174.125 229.1719,174.3594 Q228.9063,174.5938 228.2969,174.5938 L226,174.5938 Q225.3906,174.5938 225.1406,174.3594 Q224.875,174.125 224.875,173.7344 Q224.875,173.3594 225.1563,173.125 Q225.4219,172.875 226.0469,172.8906 L228.7188,166.2344 L227.6094,166.2344 Q227,166.2344 226.7344,166 Q226.4688,165.7656 226.4688,165.375 Q226.4688,165 226.7344,164.7656 Q227,164.5313 227.6094,164.5313 L231.2813,164.5313 L234.6719,172.8906 Q235.2656,172.8906 235.4531,173.0313 Q235.8438,173.2969 235.8438,173.75 Q235.8438,174.125 235.5781,174.3594 Q235.3281,174.5938 234.7188,174.5938 L232.4219,174.5938 Q231.8125,174.5938 231.5469,174.3594 Q231.2813,174.125 231.2813,173.7344 Q231.2813,173.3594 231.5469,173.125 Q231.8125,172.8906 232.4219,172.8906 L232.8438,172.8906 L232.4375,171.8594 Z M231.7188,170.1563 L230.3594,166.7813 L228.9844,170.1563 L231.7188,170.1563 Z " fill="#000000"/><text fill="#000000" font-family="sans-serif" font-size="14" font-style="italic" lengthAdjust="spacing" textLength="84" x="255.25" y="169.5332">MWClassifier</text><text fill="#000000" font-family="sans-serif" font-size="10" font-style="italic" lengthAdjust="spacing" textLength="93" x="250.75" y="182.9902">miml.classifiers.miml</text><line style="stroke:#181818;stroke-width:0.5;" x1="10" x2="552" y1="190.1875" y2="190.1875"/><rect fill="none" height="6" style="stroke:#C82930;stroke-width:1.0;" width="6" x="17" y="201.4922"/><text fill="#000000" font-family="sans-serif" font-size="14" lengthAdjust="spacing" text-decoration="underline" textLength="139" x="29" y="208.7207">serialVersionUID: long</text><polygon fill="none" points="20,217.1016,24,221.1016,20,225.1016,16,221.1016" style="stroke:#B38D22;stroke-width:1.0;"/><text fill="#000000" font-family="sans-serif" font-size="14" lengthAdjust="spacing" textLength="148" x="29" y="226.3301">wrapper: MWTranslator</text><polygon fill="none" points="20,234.7109,24,238.7109,20,242.7109,16,238.7109" style="stroke:#B38D22;stroke-width:1.0;"/><text fill="#000000" font-family="sans-serif" font-size="14" lengthAdjust="spacing" textLength="112" x="29" y="243.9395">classifier: Object[]</text><line style="stroke:#181818;stroke-width:0.5;" x1="10" x2="552" y1="251.0156" y2="251.0156"/><polygon fill="#FFFF44" points="20,260.3203,24,264.3203,20,268.3203,16,264.3203" style="stroke:#B38D22;stroke-width:1.0;"/><text fill="#000000" font-family="sans-serif" font-size="14" lengthAdjust="spacing" textLength="214" x="29" y="269.5488">buildInternal(MIMLInstances): void</text><polygon fill="#FFFF44" points="20,277.9297,24,281.9297,20,285.9297,16,281.9297" style="stroke:#B38D22;stroke-width:1.0;"/><text fill="#000000" font-family="sans-serif" font-size="14" lengthAdjust="spacing" textLength="327" x="29" y="287.1582">makePredictionInternal(MIMLBag): MultiLabelOutput</text><polygon fill="#FFFF44" points="20,295.5391,24,299.5391,20,303.5391,16,299.5391" style="stroke:#B38D22;stroke-width:1.0;"/><text fill="#000000" font-family="sans-serif" font-size="14" font-style="italic" lengthAdjust="spacing" textLength="359" x="29" y="304.7676">trainMWClassifier(MWCellArray, MWNumericArray): void</text><polygon fill="#FFFF44" points="20,313.1484,24,317.1484,20,321.1484,16,317.1484" style="stroke:#B38D22;stroke-width:1.0;"/><text fill="#000000" font-family="sans-serif" font-size="14" font-style="italic" lengthAdjust="spacing" textLength="518" x="29" y="322.377">predictMWClassifier(MWCellArray, MWNumericArray, MWNumericArray): Object[]</text><ellipse cx="20" cy="335.7578" fill="#84BE84" rx="3" ry="3" style="stroke:#038048;stroke-width:1.0;"/><text fill="#000000" font-family="sans-serif" font-size="14" font-style="italic" lengthAdjust="spacing" textLength="92" x="29" y="339.9863">dispose(): void</text></g></a><!--MD5=[991e2d4b1b011fcbac8561f9fc322429]
class miml.classifiers.miml.MIMLClassifier--><a href="MIMLClassifier.html" target="_top" title="MIMLClassifier.html" xlink:actuate="onRequest" xlink:href="MIMLClassifier.html" xlink:show="new" xlink:title="MIMLClassifier.html" xlink:type="simple"><g id="elem_miml.classifiers.miml.MIMLClassifier"><rect codeLine="16" fill="#F1F1F1" height="83.4063" id="miml.classifiers.miml.MIMLClassifier" rx="2.5" ry="2.5" style="stroke:#181818;stroke-width:0.5;" width="359" x="101.5" y="7"/><ellipse cx="229.75" cy="27.0938" fill="#A9DCDF" rx="11" ry="11" style="stroke:#181818;stroke-width:1.0;"/><path d="M231.9375,28.8594 L227.7969,28.8594 L227.375,29.8906 L227.7969,29.8906 Q228.4063,29.8906 228.6719,30.125 Q228.9375,30.3594 228.9375,30.75 Q228.9375,31.125 228.6719,31.3594 Q228.4063,31.5938 227.7969,31.5938 L225.5,31.5938 Q224.8906,31.5938 224.6406,31.3594 Q224.375,31.125 224.375,30.7344 Q224.375,30.3594 224.6563,30.125 Q224.9219,29.875 225.5469,29.8906 L228.2188,23.2344 L227.1094,23.2344 Q226.5,23.2344 226.2344,23 Q225.9688,22.7656 225.9688,22.375 Q225.9688,22 226.2344,21.7656 Q226.5,21.5313 227.1094,21.5313 L230.7813,21.5313 L234.1719,29.8906 Q234.7656,29.8906 234.9531,30.0313 Q235.3438,30.2969 235.3438,30.75 Q235.3438,31.125 235.0781,31.3594 Q234.8281,31.5938 234.2188,31.5938 L231.9219,31.5938 Q231.3125,31.5938 231.0469,31.3594 Q230.7813,31.125 230.7813,30.7344 Q230.7813,30.3594 231.0469,30.125 Q231.3125,29.8906 231.9219,29.8906 L232.3438,29.8906 L231.9375,28.8594 Z M231.2188,27.1563 L229.8594,23.7813 L228.4844,27.1563 L231.2188,27.1563 Z " fill="#000000"/><text fill="#000000" font-family="sans-serif" font-size="14" font-style="italic" lengthAdjust="spacing" textLength="94" x="250.25" y="26.5332">MIMLClassifier</text><text fill="#000000" font-family="sans-serif" font-size="10" font-style="italic" lengthAdjust="spacing" textLength="93" x="250.75" y="39.9902">miml.classifiers.miml</text><line style="stroke:#181818;stroke-width:0.5;" x1="102.5" x2="459.5" y1="47.1875" y2="47.1875"/><polygon fill="#FFFF44" points="112.5,56.4922,116.5,60.4922,112.5,64.4922,108.5,60.4922" style="stroke:#B38D22;stroke-width:1.0;"/><text fill="#000000" font-family="sans-serif" font-size="14" font-style="italic" lengthAdjust="spacing" textLength="218" x="121.5" y="65.7207">buildInternal(MIMLInstances): void</text><polygon fill="#FFFF44" points="112.5,74.1016,116.5,78.1016,112.5,82.1016,108.5,78.1016" style="stroke:#B38D22;stroke-width:1.0;"/><text fill="#000000" font-family="sans-serif" font-size="14" font-style="italic" lengthAdjust="spacing" textLength="333" x="121.5" y="83.3301">makePredictionInternal(MIMLBag): MultiLabelOutput</text></g></a><!--MD5=[6754b3cd4f5a26e60ebf48fac6e9fe4d]
reverse link miml.classifiers.miml.MIMLClassifier to miml.classifiers.miml.MWClassifier--><g id="link_miml.classifiers.miml.MIMLClassifier_miml.classifiers.miml.MWClassifier"><path codeLine="21" d="M281,110.11 C281,122.69 281,136.24 281,149.77 " fill="none" id="miml.classifiers.miml.MIMLClassifier-backto-miml.classifiers.miml.MWClassifier" style="stroke:#181818;stroke-width:1.0;"/><polygon fill="none" points="274,110.05,281,90.05,288,110.05,274,110.05" style="stroke:#181818;stroke-width:1.0;"/></g><rect fill="none" height="12.5781" style="stroke:none;stroke-width:1.0;" width="190" x="178" y="353.0625"/><text fill="#888888" font-family="sans-serif" font-size="10" lengthAdjust="spacing" textLength="190" x="178" y="363.4434">UMLDoclet 2.0.20, PlantUML 1.2022.12</text><!--MD5=[c1b33797f4a0c23a6930bb591b43a3aa]
@startuml
    set namespaceSeparator none
    hide empty fields
    hide empty methods

    abstract class "<size:14>MWClassifier\n<size:10>miml.classifiers.miml" as miml.classifiers.miml.MWClassifier [[MWClassifier.html]] {
        {static} -serialVersionUID: long
        #wrapper: MWTranslator
        #classifier: Object[]
        #buildInternal(MIMLInstances): void
        #makePredictionInternal(MIMLBag): MultiLabelOutput
        {abstract} #trainMWClassifier(MWCellArray, MWNumericArray): void
        {abstract} #predictMWClassifier(MWCellArray, MWNumericArray, MWNumericArray): Object[]
        {abstract} +dispose(): void
    }

    abstract class "<size:14>MIMLClassifier\n<size:10>miml.classifiers.miml" as miml.classifiers.miml.MIMLClassifier [[MIMLClassifier.html]] {
        {abstract} #buildInternal(MIMLInstances): void
        {abstract} #makePredictionInternal(MIMLBag): MultiLabelOutput
    }

    miml.classifiers.miml.MIMLClassifier <|- - miml.classifiers.miml.MWClassifier

    center footer UMLDoclet 2.0.20, PlantUML 1.2022.12
@enduml

PlantUML version 1.2022.12(Sun Oct 23 20:12:26 CEST 2022)
(APACHE source distribution)
Java Runtime: OpenJDK Runtime Environment
JVM: OpenJDK 64-Bit Server VM
Default Encoding: Cp1252
Language: es
Country: ES
--></g></svg>