<?xml version="1.0" encoding="UTF-8" standalone="no"?><svg xmlns="http://www.w3.org/2000/svg" xmlns:xlink="http://www.w3.org/1999/xlink" contentStyleType="text/css" height="1088px" preserveAspectRatio="none" style="width:859px;height:1088px;background:#FFFFFF;" version="1.1" viewBox="0 0 859 1088" width="859px" zoomAndPan="magnify"><defs/><g><!--MD5=[5ea508e6e8d0b42a39d8ea5f6e56fa35]
cluster miml.classifiers.miml--><g id="cluster_miml.classifiers.miml"><path d="M278.5,218 L423.5,218 A3.75,3.75 0 0 1 426,220.5 L433,241.6094 L849.5,241.6094 A2.5,2.5 0 0 1 852,244.1094 L852,1059.5 A2.5,2.5 0 0 1 849.5,1062 L278.5,1062 A2.5,2.5 0 0 1 276,1059.5 L276,220.5 A2.5,2.5 0 0 1 278.5,218 " fill="none" style="stroke:#000000;stroke-width:1.5;"/><line style="stroke:#000000;stroke-width:1.5;" x1="276" x2="433" y1="241.6094" y2="241.6094"/><text fill="#000000" font-family="sans-serif" font-size="14" font-weight="bold" lengthAdjust="spacing" textLength="144" x="280" y="234.5332">miml.classifiers.miml</text></g><!--MD5=[0b99a11b9c1c0d733cf4fb2aa7c75991]
cluster mulan.classifier--><g id="cluster_mulan.classifier"><path d="M221.5,6 L332.5,6 A3.75,3.75 0 0 1 335,8.5 L342,29.6094 L552.5,29.6094 A2.5,2.5 0 0 1 555,32.1094 L555,191.5 A2.5,2.5 0 0 1 552.5,194 L221.5,194 A2.5,2.5 0 0 1 219,191.5 L219,8.5 A2.5,2.5 0 0 1 221.5,6 " fill="none" style="stroke:#000000;stroke-width:1.5;"/><line style="stroke:#000000;stroke-width:1.5;" x1="219" x2="342" y1="29.6094" y2="29.6094"/><text fill="#000000" font-family="sans-serif" font-size="14" font-weight="bold" lengthAdjust="spacing" textLength="110" x="223" y="22.5332">mulan.classifier</text></g><!--MD5=[0d852700fdad35b7061d461d6907a324]
cluster java.io--><g id="cluster_java.io"><path d="M581.5,50 L628.5,50 A3.75,3.75 0 0 1 631,52.5 L638,73.6094 L714.5,73.6094 A2.5,2.5 0 0 1 717,76.1094 L717,147.5 A2.5,2.5 0 0 1 714.5,150 L581.5,150 A2.5,2.5 0 0 1 579,147.5 L579,52.5 A2.5,2.5 0 0 1 581.5,50 " fill="none" style="stroke:#000000;stroke-width:1.5;"/><line style="stroke:#000000;stroke-width:1.5;" x1="579" x2="638" y1="73.6094" y2="73.6094"/><text fill="#000000" font-family="sans-serif" font-size="14" font-weight="bold" lengthAdjust="spacing" textLength="46" x="583" y="66.5332">java.io</text></g><!--MD5=[d8ba4a12014331649d294a6c1a3efdcd]
cluster miml.core--><g id="cluster_miml.core"><path d="M8.5,244 L77.5,244 A3.75,3.75 0 0 1 80,246.5 L87,267.6094 L249.5,267.6094 A2.5,2.5 0 0 1 252,270.1094 L252,359.5 A2.5,2.5 0 0 1 249.5,362 L8.5,362 A2.5,2.5 0 0 1 6,359.5 L6,246.5 A2.5,2.5 0 0 1 8.5,244 " fill="none" style="stroke:#000000;stroke-width:1.5;"/><line style="stroke:#000000;stroke-width:1.5;" x1="6" x2="87" y1="267.6094" y2="267.6094"/><text fill="#000000" font-family="sans-serif" font-size="14" font-weight="bold" lengthAdjust="spacing" textLength="68" x="10" y="260.5332">miml.core</text></g><!--MD5=[5d5e58e54e28748d63e340d905ad3fc2]
class miml.classifiers.miml.IMIMLClassifier--><a href="IMIMLClassifier.html" target="_top" title="IMIMLClassifier.html" xlink:actuate="onRequest" xlink:href="IMIMLClassifier.html" xlink:show="new" xlink:title="IMIMLClassifier.html" xlink:type="simple"><g id="elem_miml.classifiers.miml.IMIMLClassifier"><rect codeLine="3" fill="#F1F1F1" height="118.4375" id="miml.classifiers.miml.IMIMLClassifier" rx="2.5" ry="2.5" style="stroke:#181818;stroke-width:0.5;" width="304" x="366" y="254"/><ellipse cx="464.75" cy="270" fill="#B4A7E5" rx="11" ry="11" style="stroke:#181818;stroke-width:1.0;"/><path d="M465.7031,266.6406 L465.7031,273.2969 L467.4219,273.2969 Q468.0313,273.2969 468.2969,273.5313 Q468.5625,273.7656 468.5625,274.1563 Q468.5625,274.5313 468.2969,274.7656 Q468.0313,275 467.4219,275 L462.2813,275 Q461.6719,275 461.4063,274.7656 Q461.1406,274.5313 461.1406,274.1406 Q461.1406,273.7656 461.4063,273.5313 Q461.6719,273.2969 462.2813,273.2969 L464,273.2969 L464,266.6406 L462.2813,266.6406 Q461.6719,266.6406 461.4063,266.4063 Q461.1406,266.1719 461.1406,265.7813 Q461.1406,265.4063 461.4063,265.1719 Q461.6719,264.9375 462.2813,264.9375 L467.4219,264.9375 Q468.0313,264.9375 468.2969,265.1719 Q468.5625,265.4063 468.5625,265.7813 Q468.5625,266.1719 468.2969,266.4063 Q468.0313,266.6406 467.4219,266.6406 L465.7031,266.6406 Z " fill="#000000"/><text fill="#000000" font-family="sans-serif" font-size="14" font-style="italic" lengthAdjust="spacing" textLength="98" x="485.25" y="275.7285">IMIMLClassifier</text><line style="stroke:#181818;stroke-width:0.5;" x1="367" x2="669" y1="286" y2="286"/><line style="stroke:#181818;stroke-width:0.5;" x1="367" x2="669" y1="294" y2="294"/><ellipse cx="377" cy="308.3047" fill="#84BE84" rx="3" ry="3" style="stroke:#038048;stroke-width:1.0;"/><text fill="#000000" font-family="sans-serif" font-size="14" font-style="italic" lengthAdjust="spacing" textLength="278" x="386" y="312.5332">makePrediction(Instance): MultiLabelOutput</text><ellipse cx="377" cy="325.9141" fill="#84BE84" rx="3" ry="3" style="stroke:#038048;stroke-width:1.0;"/><text fill="#000000" font-family="sans-serif" font-size="14" font-style="italic" lengthAdjust="spacing" textLength="170" x="386" y="330.1426">build(MIMLInstances): void</text><ellipse cx="377" cy="343.5234" fill="#84BE84" rx="3" ry="3" style="stroke:#038048;stroke-width:1.0;"/><text fill="#000000" font-family="sans-serif" font-size="14" font-style="italic" lengthAdjust="spacing" textLength="155" x="386" y="347.752">setDebug(boolean): void</text><ellipse cx="377" cy="361.1328" fill="#84BE84" rx="3" ry="3" style="stroke:#038048;stroke-width:1.0;"/><text fill="#000000" font-family="sans-serif" font-size="14" font-style="italic" lengthAdjust="spacing" textLength="184" x="386" y="365.3613">makeCopy(): IMIMLClassifier</text></g></a><!--MD5=[991e2d4b1b011fcbac8561f9fc322429]
class miml.classifiers.miml.MIMLClassifier--><a href="MIMLClassifier.html" target="_top" title="MIMLClassifier.html" xlink:actuate="onRequest" xlink:href="MIMLClassifier.html" xlink:show="new" xlink:title="MIMLClassifier.html" xlink:type="simple"><g id="elem_miml.classifiers.miml.MIMLClassifier"><rect codeLine="10" fill="#F1F1F1" height="364.9688" id="miml.classifiers.miml.MIMLClassifier" rx="2.5" ry="2.5" style="stroke:#181818;stroke-width:0.5;" width="359" x="338.5" y="432"/><ellipse cx="466.75" cy="448" fill="#A9DCDF" rx="11" ry="11" style="stroke:#181818;stroke-width:1.0;"/><path d="M468.9375,449.7656 L464.7969,449.7656 L464.375,450.7969 L464.7969,450.7969 Q465.4063,450.7969 465.6719,451.0313 Q465.9375,451.2656 465.9375,451.6563 Q465.9375,452.0313 465.6719,452.2656 Q465.4063,452.5 464.7969,452.5 L462.5,452.5 Q461.8906,452.5 461.6406,452.2656 Q461.375,452.0313 461.375,451.6406 Q461.375,451.2656 461.6563,451.0313 Q461.9219,450.7813 462.5469,450.7969 L465.2188,444.1406 L464.1094,444.1406 Q463.5,444.1406 463.2344,443.9063 Q462.9688,443.6719 462.9688,443.2813 Q462.9688,442.9063 463.2344,442.6719 Q463.5,442.4375 464.1094,442.4375 L467.7813,442.4375 L471.1719,450.7969 Q471.7656,450.7969 471.9531,450.9375 Q472.3438,451.2031 472.3438,451.6563 Q472.3438,452.0313 472.0781,452.2656 Q471.8281,452.5 471.2188,452.5 L468.9219,452.5 Q468.3125,452.5 468.0469,452.2656 Q467.7813,452.0313 467.7813,451.6406 Q467.7813,451.2656 468.0469,451.0313 Q468.3125,450.7969 468.9219,450.7969 L469.3438,450.7969 L468.9375,449.7656 Z M468.2188,448.0625 L466.8594,444.6875 L465.4844,448.0625 L468.2188,448.0625 Z " fill="#000000"/><text fill="#000000" font-family="sans-serif" font-size="14" font-style="italic" lengthAdjust="spacing" textLength="94" x="487.25" y="453.7285">MIMLClassifier</text><line style="stroke:#181818;stroke-width:0.5;" x1="339.5" x2="696.5" y1="464" y2="464"/><rect fill="none" height="6" style="stroke:#C82930;stroke-width:1.0;" width="6" x="346.5" y="475.3047"/><text fill="#000000" font-family="sans-serif" font-size="14" lengthAdjust="spacing" text-decoration="underline" textLength="139" x="358.5" y="482.5332">serialVersionUID: long</text><polygon fill="none" points="349.5,490.9141,353.5,494.9141,349.5,498.9141,345.5,494.9141" style="stroke:#B38D22;stroke-width:1.0;"/><text fill="#000000" font-family="sans-serif" font-size="14" lengthAdjust="spacing" textLength="164" x="358.5" y="500.1426">isModelInitialized: boolean</text><polygon fill="none" points="349.5,508.5234,353.5,512.5234,349.5,516.5234,345.5,512.5234" style="stroke:#B38D22;stroke-width:1.0;"/><text fill="#000000" font-family="sans-serif" font-size="14" lengthAdjust="spacing" textLength="92" x="358.5" y="517.752">numLabels: int</text><polygon fill="none" points="349.5,526.1328,353.5,530.1328,349.5,534.1328,345.5,530.1328" style="stroke:#B38D22;stroke-width:1.0;"/><text fill="#000000" font-family="sans-serif" font-size="14" lengthAdjust="spacing" textLength="105" x="358.5" y="535.3613">labelIndices: int[]</text><polygon fill="none" points="349.5,543.7422,353.5,547.7422,349.5,551.7422,345.5,547.7422" style="stroke:#B38D22;stroke-width:1.0;"/><text fill="#000000" font-family="sans-serif" font-size="14" lengthAdjust="spacing" textLength="126" x="358.5" y="552.9707">labelNames: String[]</text><polygon fill="none" points="349.5,561.3516,353.5,565.3516,349.5,569.3516,345.5,565.3516" style="stroke:#B38D22;stroke-width:1.0;"/><text fill="#000000" font-family="sans-serif" font-size="14" lengthAdjust="spacing" textLength="120" x="358.5" y="570.5801">featureIndices: int[]</text><rect fill="none" height="6" style="stroke:#C82930;stroke-width:1.0;" width="6" x="346.5" y="580.9609"/><text fill="#000000" font-family="sans-serif" font-size="14" lengthAdjust="spacing" textLength="111" x="358.5" y="588.1895">isDebug: boolean</text><line style="stroke:#181818;stroke-width:0.5;" x1="339.5" x2="696.5" y1="595.2656" y2="595.2656"/><ellipse cx="349.5" cy="609.5703" fill="#84BE84" rx="3" ry="3" style="stroke:#038048;stroke-width:1.0;"/><text fill="#000000" font-family="sans-serif" font-size="14" lengthAdjust="spacing" textLength="143" x="358.5" y="613.7988">isUpdatable(): boolean</text><ellipse cx="349.5" cy="627.1797" fill="#84BE84" rx="3" ry="3" style="stroke:#038048;stroke-width:1.0;"/><text fill="#000000" font-family="sans-serif" font-size="14" lengthAdjust="spacing" textLength="198" x="358.5" y="631.4082">build(MultiLabelInstances): void</text><ellipse cx="349.5" cy="644.7891" fill="#84BE84" rx="3" ry="3" style="stroke:#038048;stroke-width:1.0;"/><text fill="#000000" font-family="sans-serif" font-size="14" lengthAdjust="spacing" textLength="167" x="358.5" y="649.0176">build(MIMLInstances): void</text><ellipse cx="349.5" cy="662.3984" fill="#84BE84" rx="3" ry="3" style="stroke:#038048;stroke-width:1.0;"/><text fill="#000000" font-family="sans-serif" font-size="14" lengthAdjust="spacing" textLength="275" x="358.5" y="666.627">makePrediction(Instance): MultiLabelOutput</text><ellipse cx="349.5" cy="680.0078" fill="#84BE84" rx="3" ry="3" style="stroke:#038048;stroke-width:1.0;"/><text fill="#000000" font-family="sans-serif" font-size="14" lengthAdjust="spacing" textLength="156" x="358.5" y="684.2363">setDebug(boolean): void</text><ellipse cx="349.5" cy="697.6172" fill="#84BE84" rx="3" ry="3" style="stroke:#038048;stroke-width:1.0;"/><text fill="#000000" font-family="sans-serif" font-size="14" lengthAdjust="spacing" textLength="179" x="358.5" y="701.8457">makeCopy(): IMIMLClassifier</text><polygon fill="#FFFF44" points="349.5,710.2266,353.5,714.2266,349.5,718.2266,345.5,714.2266" style="stroke:#B38D22;stroke-width:1.0;"/><text fill="#000000" font-family="sans-serif" font-size="14" lengthAdjust="spacing" textLength="174" x="358.5" y="719.4551">isModelInitialized(): boolean</text><ellipse cx="349.5" cy="732.8359" fill="#84BE84" rx="3" ry="3" style="stroke:#038048;stroke-width:1.0;"/><text fill="#000000" font-family="sans-serif" font-size="14" lengthAdjust="spacing" textLength="131" x="358.5" y="737.0645">getDebug(): boolean</text><polygon fill="#FFFF44" points="349.5,745.4453,353.5,749.4453,349.5,753.4453,345.5,749.4453" style="stroke:#B38D22;stroke-width:1.0;"/><text fill="#000000" font-family="sans-serif" font-size="14" lengthAdjust="spacing" textLength="121" x="358.5" y="754.6738">debug(String): void</text><polygon fill="#FFFF44" points="349.5,763.0547,353.5,767.0547,349.5,771.0547,345.5,767.0547" style="stroke:#B38D22;stroke-width:1.0;"/><text fill="#000000" font-family="sans-serif" font-size="14" font-style="italic" lengthAdjust="spacing" textLength="218" x="358.5" y="772.2832">buildInternal(MIMLInstances): void</text><polygon fill="#FFFF44" points="349.5,780.6641,353.5,784.6641,349.5,788.6641,345.5,784.6641" style="stroke:#B38D22;stroke-width:1.0;"/><text fill="#000000" font-family="sans-serif" font-size="14" font-style="italic" lengthAdjust="spacing" textLength="333" x="358.5" y="789.8926">makePredictionInternal(MIMLBag): MultiLabelOutput</text></g></a><!--MD5=[a73d7e6ec4fa7ef9a44f222a19844101]
class miml.classifiers.miml.MWClassifier--><a href="MWClassifier.html" target="_top" title="MWClassifier.html" xlink:actuate="onRequest" xlink:href="MWClassifier.html" xlink:show="new" xlink:title="MWClassifier.html" xlink:type="simple"><g id="elem_miml.classifiers.miml.MWClassifier"><rect codeLine="31" fill="#F1F1F1" height="188.875" id="miml.classifiers.miml.MWClassifier" rx="2.5" ry="2.5" style="stroke:#181818;stroke-width:0.5;" width="544" x="292" y="857"/><ellipse cx="517.75" cy="873" fill="#A9DCDF" rx="11" ry="11" style="stroke:#181818;stroke-width:1.0;"/><path d="M519.9375,874.7656 L515.7969,874.7656 L515.375,875.7969 L515.7969,875.7969 Q516.4063,875.7969 516.6719,876.0313 Q516.9375,876.2656 516.9375,876.6563 Q516.9375,877.0313 516.6719,877.2656 Q516.4063,877.5 515.7969,877.5 L513.5,877.5 Q512.8906,877.5 512.6406,877.2656 Q512.375,877.0313 512.375,876.6406 Q512.375,876.2656 512.6563,876.0313 Q512.9219,875.7813 513.5469,875.7969 L516.2188,869.1406 L515.1094,869.1406 Q514.5,869.1406 514.2344,868.9063 Q513.9688,868.6719 513.9688,868.2813 Q513.9688,867.9063 514.2344,867.6719 Q514.5,867.4375 515.1094,867.4375 L518.7813,867.4375 L522.1719,875.7969 Q522.7656,875.7969 522.9531,875.9375 Q523.3438,876.2031 523.3438,876.6563 Q523.3438,877.0313 523.0781,877.2656 Q522.8281,877.5 522.2188,877.5 L519.9219,877.5 Q519.3125,877.5 519.0469,877.2656 Q518.7813,877.0313 518.7813,876.6406 Q518.7813,876.2656 519.0469,876.0313 Q519.3125,875.7969 519.9219,875.7969 L520.3438,875.7969 L519.9375,874.7656 Z M519.2188,873.0625 L517.8594,869.6875 L516.4844,873.0625 L519.2188,873.0625 Z " fill="#000000"/><text fill="#000000" font-family="sans-serif" font-size="14" font-style="italic" lengthAdjust="spacing" textLength="84" x="538.25" y="878.7285">MWClassifier</text><line style="stroke:#181818;stroke-width:0.5;" x1="293" x2="835" y1="889" y2="889"/><rect fill="none" height="6" style="stroke:#C82930;stroke-width:1.0;" width="6" x="300" y="900.3047"/><text fill="#000000" font-family="sans-serif" font-size="14" lengthAdjust="spacing" text-decoration="underline" textLength="139" x="312" y="907.5332">serialVersionUID: long</text><polygon fill="none" points="303,915.9141,307,919.9141,303,923.9141,299,919.9141" style="stroke:#B38D22;stroke-width:1.0;"/><text fill="#000000" font-family="sans-serif" font-size="14" lengthAdjust="spacing" textLength="148" x="312" y="925.1426">wrapper: MWTranslator</text><polygon fill="none" points="303,933.5234,307,937.5234,303,941.5234,299,937.5234" style="stroke:#B38D22;stroke-width:1.0;"/><text fill="#000000" font-family="sans-serif" font-size="14" lengthAdjust="spacing" textLength="112" x="312" y="942.752">classifier: Object[]</text><line style="stroke:#181818;stroke-width:0.5;" x1="293" x2="835" y1="949.8281" y2="949.8281"/><polygon fill="#FFFF44" points="303,959.1328,307,963.1328,303,967.1328,299,963.1328" style="stroke:#B38D22;stroke-width:1.0;"/><text fill="#000000" font-family="sans-serif" font-size="14" lengthAdjust="spacing" textLength="214" x="312" y="968.3613">buildInternal(MIMLInstances): void</text><polygon fill="#FFFF44" points="303,976.7422,307,980.7422,303,984.7422,299,980.7422" style="stroke:#B38D22;stroke-width:1.0;"/><text fill="#000000" font-family="sans-serif" font-size="14" lengthAdjust="spacing" textLength="327" x="312" y="985.9707">makePredictionInternal(MIMLBag): MultiLabelOutput</text><polygon fill="#FFFF44" points="303,994.3516,307,998.3516,303,1002.3516,299,998.3516" style="stroke:#B38D22;stroke-width:1.0;"/><text fill="#000000" font-family="sans-serif" font-size="14" font-style="italic" lengthAdjust="spacing" textLength="359" x="312" y="1003.5801">trainMWClassifier(MWCellArray, MWNumericArray): void</text><polygon fill="#FFFF44" points="303,1011.9609,307,1015.9609,303,1019.9609,299,1015.9609" style="stroke:#B38D22;stroke-width:1.0;"/><text fill="#000000" font-family="sans-serif" font-size="14" font-style="italic" lengthAdjust="spacing" textLength="518" x="312" y="1021.1895">predictMWClassifier(MWCellArray, MWNumericArray, MWNumericArray): Object[]</text><ellipse cx="303" cy="1034.5703" fill="#84BE84" rx="3" ry="3" style="stroke:#038048;stroke-width:1.0;"/><text fill="#000000" font-family="sans-serif" font-size="14" font-style="italic" lengthAdjust="spacing" textLength="92" x="312" y="1038.7988">dispose(): void</text></g></a><!--MD5=[c3ceecbdf1d0b5accfc7f28014123205]
class mulan.classifier.MultiLabelLearner--><g id="elem_mulan.classifier.MultiLabelLearner"><rect codeLine="50" fill="#F1F1F1" height="136.0469" id="mulan.classifier.MultiLabelLearner" rx="2.5" ry="2.5" style="stroke:#181818;stroke-width:0.5;" width="304" x="235" y="42"/><ellipse cx="325.25" cy="58" fill="#B4A7E5" rx="11" ry="11" style="stroke:#181818;stroke-width:1.0;"/><path d="M326.2031,54.6406 L326.2031,61.2969 L327.9219,61.2969 Q328.5313,61.2969 328.7969,61.5313 Q329.0625,61.7656 329.0625,62.1563 Q329.0625,62.5313 328.7969,62.7656 Q328.5313,63 327.9219,63 L322.7813,63 Q322.1719,63 321.9063,62.7656 Q321.6406,62.5313 321.6406,62.1406 Q321.6406,61.7656 321.9063,61.5313 Q322.1719,61.2969 322.7813,61.2969 L324.5,61.2969 L324.5,54.6406 L322.7813,54.6406 Q322.1719,54.6406 321.9063,54.4063 Q321.6406,54.1719 321.6406,53.7813 Q321.6406,53.4063 321.9063,53.1719 Q322.1719,52.9375 322.7813,52.9375 L327.9219,52.9375 Q328.5313,52.9375 328.7969,53.1719 Q329.0625,53.4063 329.0625,53.7813 Q329.0625,54.1719 328.7969,54.4063 Q328.5313,54.6406 327.9219,54.6406 L326.2031,54.6406 Z " fill="#000000"/><text fill="#000000" font-family="sans-serif" font-size="14" font-style="italic" lengthAdjust="spacing" textLength="115" x="345.75" y="63.7285">MultiLabelLearner</text><line style="stroke:#181818;stroke-width:0.5;" x1="236" x2="538" y1="74" y2="74"/><line style="stroke:#181818;stroke-width:0.5;" x1="236" x2="538" y1="82" y2="82"/><ellipse cx="246" cy="96.3047" fill="#84BE84" rx="3" ry="3" style="stroke:#038048;stroke-width:1.0;"/><text fill="#000000" font-family="sans-serif" font-size="14" font-style="italic" lengthAdjust="spacing" textLength="144" x="255" y="100.5332">isUpdatable(): boolean</text><ellipse cx="246" cy="113.9141" fill="#84BE84" rx="3" ry="3" style="stroke:#038048;stroke-width:1.0;"/><text fill="#000000" font-family="sans-serif" font-size="14" font-style="italic" lengthAdjust="spacing" textLength="199" x="255" y="118.1426">build(MultiLabelInstances): void</text><ellipse cx="246" cy="131.5234" fill="#84BE84" rx="3" ry="3" style="stroke:#038048;stroke-width:1.0;"/><text fill="#000000" font-family="sans-serif" font-size="14" font-style="italic" lengthAdjust="spacing" textLength="201" x="255" y="135.752">makeCopy(): MultiLabelLearner</text><ellipse cx="246" cy="149.1328" fill="#84BE84" rx="3" ry="3" style="stroke:#038048;stroke-width:1.0;"/><text fill="#000000" font-family="sans-serif" font-size="14" font-style="italic" lengthAdjust="spacing" textLength="278" x="255" y="153.3613">makePrediction(Instance): MultiLabelOutput</text><ellipse cx="246" cy="166.7422" fill="#84BE84" rx="3" ry="3" style="stroke:#038048;stroke-width:1.0;"/><text fill="#000000" font-family="sans-serif" font-size="14" font-style="italic" lengthAdjust="spacing" textLength="155" x="255" y="170.9707">setDebug(boolean): void</text></g><!--MD5=[5a5af9b0547913863cbe0ddf55a9ab5e]
class java.io.Serializable--><g id="elem_java.io.Serializable"><rect codeLine="60" fill="#F1F1F1" height="48" id="java.io.Serializable" rx="2.5" ry="2.5" style="stroke:#181818;stroke-width:0.5;" width="105" x="595.5" y="86"/><ellipse cx="610.5" cy="102" fill="#B4A7E5" rx="11" ry="11" style="stroke:#181818;stroke-width:1.0;"/><path d="M611.4531,98.6406 L611.4531,105.2969 L613.1719,105.2969 Q613.7813,105.2969 614.0469,105.5313 Q614.3125,105.7656 614.3125,106.1563 Q614.3125,106.5313 614.0469,106.7656 Q613.7813,107 613.1719,107 L608.0313,107 Q607.4219,107 607.1563,106.7656 Q606.8906,106.5313 606.8906,106.1406 Q606.8906,105.7656 607.1563,105.5313 Q607.4219,105.2969 608.0313,105.2969 L609.75,105.2969 L609.75,98.6406 L608.0313,98.6406 Q607.4219,98.6406 607.1563,98.4063 Q606.8906,98.1719 606.8906,97.7813 Q606.8906,97.4063 607.1563,97.1719 Q607.4219,96.9375 608.0313,96.9375 L613.1719,96.9375 Q613.7813,96.9375 614.0469,97.1719 Q614.3125,97.4063 614.3125,97.7813 Q614.3125,98.1719 614.0469,98.4063 Q613.7813,98.6406 613.1719,98.6406 L611.4531,98.6406 Z " fill="#000000"/><text fill="#000000" font-family="sans-serif" font-size="14" font-style="italic" lengthAdjust="spacing" textLength="73" x="624.5" y="107.7285">Serializable</text><line style="stroke:#181818;stroke-width:0.5;" x1="596.5" x2="699.5" y1="118" y2="118"/><line style="stroke:#181818;stroke-width:0.5;" x1="596.5" x2="699.5" y1="126" y2="126"/></g><!--MD5=[f8ce60393c12cadc7241b943fc2ced33]
class miml.core.IConfiguration--><a href="..\..\core\IConfiguration.html" target="_top" title="..\..\core\IConfiguration.html" xlink:actuate="onRequest" xlink:href="..\..\core\IConfiguration.html" xlink:show="new" xlink:title="..\..\core\IConfiguration.html" xlink:type="simple"><g id="elem_miml.core.IConfiguration"><rect codeLine="64" fill="#F1F1F1" height="65.6094" id="miml.core.IConfiguration" rx="2.5" ry="2.5" style="stroke:#181818;stroke-width:0.5;" width="213" x="22.5" y="280"/><ellipse cx="80.25" cy="296" fill="#B4A7E5" rx="11" ry="11" style="stroke:#181818;stroke-width:1.0;"/><path d="M81.2031,292.6406 L81.2031,299.2969 L82.9219,299.2969 Q83.5313,299.2969 83.7969,299.5313 Q84.0625,299.7656 84.0625,300.1563 Q84.0625,300.5313 83.7969,300.7656 Q83.5313,301 82.9219,301 L77.7813,301 Q77.1719,301 76.9063,300.7656 Q76.6406,300.5313 76.6406,300.1406 Q76.6406,299.7656 76.9063,299.5313 Q77.1719,299.2969 77.7813,299.2969 L79.5,299.2969 L79.5,292.6406 L77.7813,292.6406 Q77.1719,292.6406 76.9063,292.4063 Q76.6406,292.1719 76.6406,291.7813 Q76.6406,291.4063 76.9063,291.1719 Q77.1719,290.9375 77.7813,290.9375 L82.9219,290.9375 Q83.5313,290.9375 83.7969,291.1719 Q84.0625,291.4063 84.0625,291.7813 Q84.0625,292.1719 83.7969,292.4063 Q83.5313,292.6406 82.9219,292.6406 L81.2031,292.6406 Z " fill="#000000"/><text fill="#000000" font-family="sans-serif" font-size="14" font-style="italic" lengthAdjust="spacing" textLength="89" x="100.75" y="301.7285">IConfiguration</text><line style="stroke:#181818;stroke-width:0.5;" x1="23.5" x2="234.5" y1="312" y2="312"/><line style="stroke:#181818;stroke-width:0.5;" x1="23.5" x2="234.5" y1="320" y2="320"/><ellipse cx="33.5" cy="334.3047" fill="#84BE84" rx="3" ry="3" style="stroke:#038048;stroke-width:1.0;"/><text fill="#000000" font-family="sans-serif" font-size="14" font-style="italic" lengthAdjust="spacing" textLength="187" x="42.5" y="338.5332">configure(Configuration): void</text></g></a><!--MD5=[a7d0a6855a95ae524e26fe16b41f6230]
reverse link mulan.classifier.MultiLabelLearner to miml.classifiers.miml.IMIMLClassifier--><g id="link_mulan.classifier.MultiLabelLearner_miml.classifiers.miml.IMIMLClassifier"><path codeLine="42" d="M441.73,194.97 C454.66,214.81 468.17,235.54 480.16,253.94 " fill="none" id="mulan.classifier.MultiLabelLearner-backto-miml.classifiers.miml.IMIMLClassifier" style="stroke:#181818;stroke-width:1.0;"/><polygon fill="none" points="435.86,198.79,430.8,178.21,447.59,191.14,435.86,198.79" style="stroke:#181818;stroke-width:1.0;"/></g><!--MD5=[5463716b74e396825648805e35fadfef]
reverse link java.io.Serializable to miml.classifiers.miml.IMIMLClassifier--><g id="link_java.io.Serializable_miml.classifiers.miml.IMIMLClassifier"><path codeLine="43" d="M622.01,151.18 C603.02,180.55 576.97,220.82 555.7,253.71 " fill="none" id="java.io.Serializable-backto-miml.classifiers.miml.IMIMLClassifier" style="stroke:#181818;stroke-width:1.0;"/><polygon fill="none" points="616.35,147.05,633.09,134.06,628.1,154.65,616.35,147.05" style="stroke:#181818;stroke-width:1.0;"/></g><!--MD5=[bc763555b7751cd1c58c9ae84d5ff3e9]
reverse link miml.core.IConfiguration to miml.classifiers.miml.MIMLClassifier--><g id="link_miml.core.IConfiguration_miml.classifiers.miml.MIMLClassifier"><path codeLine="44" d="M186.65,358.38 C227.05,389.49 283.44,432.91 338.25,475.11 " fill="none" id="miml.core.IConfiguration-backto-miml.classifiers.miml.MIMLClassifier" style="stroke:#181818;stroke-width:1.0;stroke-dasharray:7.0,7.0;"/><polygon fill="none" points="182.21,363.8,170.63,346.05,190.75,352.71,182.21,363.8" style="stroke:#181818;stroke-width:1.0;"/></g><!--MD5=[b60702e5a5ccfd93bed206a0c6236eb4]
reverse link miml.classifiers.miml.IMIMLClassifier to miml.classifiers.miml.MIMLClassifier--><g id="link_miml.classifiers.miml.IMIMLClassifier_miml.classifiers.miml.MIMLClassifier"><path codeLine="45" d="M518,392.26 C518,404.79 518,418.18 518,431.95 " fill="none" id="miml.classifiers.miml.IMIMLClassifier-backto-miml.classifiers.miml.MIMLClassifier" style="stroke:#181818;stroke-width:1.0;stroke-dasharray:7.0,7.0;"/><polygon fill="none" points="511,392.1,518,372.1,525,392.1,511,392.1" style="stroke:#181818;stroke-width:1.0;"/></g><!--MD5=[6754b3cd4f5a26e60ebf48fac6e9fe4d]
reverse link miml.classifiers.miml.MIMLClassifier to miml.classifiers.miml.MWClassifier--><g id="link_miml.classifiers.miml.MIMLClassifier_miml.classifiers.miml.MWClassifier"><path codeLine="46" d="M545.72,817.37 C547.59,831 549.42,844.31 551.15,856.92 " fill="none" id="miml.classifiers.miml.MIMLClassifier-backto-miml.classifiers.miml.MWClassifier" style="stroke:#181818;stroke-width:1.0;"/><polygon fill="none" points="538.74,817.98,542.95,797.22,552.61,816.08,538.74,817.98" style="stroke:#181818;stroke-width:1.0;"/></g><rect fill="none" height="12.5781" style="stroke:none;stroke-width:1.0;" width="190" x="327.5" y="1068"/><text fill="#888888" font-family="sans-serif" font-size="10" lengthAdjust="spacing" textLength="190" x="327.5" y="1078.3809">UMLDoclet 2.0.20, PlantUML 1.2022.12</text><!--MD5=[5cf8b804e1d3cc2ed27a0b80bb853ab1]
@startuml
    namespace miml.classifiers.miml {

        interface IMIMLClassifier [[IMIMLClassifier.html]] {
            {abstract} +makePrediction(Instance): MultiLabelOutput
            {abstract} +build(MIMLInstances): void
            {abstract} +setDebug(boolean): void
            {abstract} +makeCopy(): IMIMLClassifier
        }

        abstract class MIMLClassifier [[MIMLClassifier.html]] {
            {static} -serialVersionUID: long
            #isModelInitialized: boolean
            #numLabels: int
            #labelIndices: int[]
            #labelNames: String[]
            #featureIndices: int[]
            -isDebug: boolean
            +isUpdatable(): boolean
            +build(MultiLabelInstances): void
            +build(MIMLInstances): void
            +makePrediction(Instance): MultiLabelOutput
            +setDebug(boolean): void
            +makeCopy(): IMIMLClassifier
            #isModelInitialized(): boolean
            +getDebug(): boolean
            #debug(String): void
            {abstract} #buildInternal(MIMLInstances): void
            {abstract} #makePredictionInternal(MIMLBag): MultiLabelOutput
        }

        abstract class MWClassifier [[MWClassifier.html]] {
            {static} -serialVersionUID: long
            #wrapper: MWTranslator
            #classifier: Object[]
            #buildInternal(MIMLInstances): void
            #makePredictionInternal(MIMLBag): MultiLabelOutput
            {abstract} #trainMWClassifier(MWCellArray, MWNumericArray): void
            {abstract} #predictMWClassifier(MWCellArray, MWNumericArray, MWNumericArray): Object[]
            {abstract} +dispose(): void
        }

        mulan.classifier.MultiLabelLearner <|- - IMIMLClassifier
        java.io.Serializable <|- - IMIMLClassifier
        miml.core.IConfiguration <|.. MIMLClassifier
        IMIMLClassifier <|.. MIMLClassifier
        MIMLClassifier <|- - MWClassifier
    }

    namespace mulan.classifier {
        interface MultiLabelLearner {
            {abstract} +isUpdatable(): boolean
            {abstract} +build(MultiLabelInstances): void
            {abstract} +makeCopy(): MultiLabelLearner
            {abstract} +makePrediction(Instance): MultiLabelOutput
            {abstract} +setDebug(boolean): void
        }
    }

    namespace java.io {
        interface Serializable
    }

    namespace miml.core {
        interface IConfiguration [[..\..\core\IConfiguration.html]] {
            {abstract} +configure(Configuration): void
        }
    }

    center footer UMLDoclet 2.0.20, PlantUML 1.2022.12
@enduml

PlantUML version 1.2022.12(Sun Oct 23 20:12:26 CEST 2022)
(APACHE source distribution)
Java Runtime: OpenJDK Runtime Environment
JVM: OpenJDK 64-Bit Server VM
Default Encoding: Cp1252
Language: es
Country: ES
--></g></svg>