<?xml version="1.0" encoding="UTF-8" standalone="no"?><svg xmlns="http://www.w3.org/2000/svg" xmlns:xlink="http://www.w3.org/1999/xlink" contentStyleType="text/css" height="426px" preserveAspectRatio="none" style="width:375px;height:426px;background:#FFFFFF;" version="1.1" viewBox="0 0 375 426" width="375px" zoomAndPan="magnify"><defs/><g><!--MD5=[a348eb3d466bb21760c0fa0ad75e97cd]
class miml.classifiers.miml.mimlTOml.MIMLClassifierToML--><a href="MIMLClassifierToML.html" target="_top" title="MIMLClassifierToML.html" xlink:actuate="onRequest" xlink:href="MIMLClassifierToML.html" xlink:show="new" xlink:title="MIMLClassifierToML.html" xlink:type="simple"><g id="elem_miml.classifiers.miml.mimlTOml.MIMLClassifierToML"><rect codeLine="5" fill="#F1F1F1" height="249.8906" id="miml.classifiers.miml.mimlTOml.MIMLClassifierToML" rx="2.5" ry="2.5" style="stroke:#181818;stroke-width:0.5;" width="353" x="12" y="150"/><ellipse cx="107.75" cy="170.0938" fill="#ADD1B2" rx="11" ry="11" style="stroke:#181818;stroke-width:1.0;"/><path d="M110.5156,165.9688 Q110.6719,165.75 110.8594,165.6406 Q111.0469,165.5313 111.2656,165.5313 Q111.6406,165.5313 111.875,165.7969 Q112.1094,166.0469 112.1094,166.6563 L112.1094,168.1094 Q112.1094,168.7188 111.875,168.9844 Q111.6406,169.25 111.2656,169.25 Q110.9219,169.25 110.7188,169.0469 Q110.5156,168.8594 110.4063,168.3438 Q110.3594,167.9844 110.1719,167.7969 Q109.8438,167.4219 109.2344,167.2031 Q108.625,166.9844 108,166.9844 Q107.2344,166.9844 106.5938,167.3125 Q105.9688,167.6406 105.4688,168.3906 Q104.9844,169.1406 104.9844,170.1719 L104.9844,171.2656 Q104.9844,172.5 105.875,173.3281 Q106.7656,174.1406 108.3594,174.1406 Q109.2969,174.1406 109.9531,173.8906 Q110.3438,173.7344 110.7656,173.2969 Q111.0313,173.0313 111.1719,172.9531 Q111.3281,172.875 111.5313,172.875 Q111.8594,172.875 112.1094,173.1406 Q112.375,173.3906 112.375,173.7344 Q112.375,174.0781 112.0313,174.4844 Q111.5313,175.0625 110.7344,175.3906 Q109.6563,175.8438 108.3594,175.8438 Q106.8438,175.8438 105.6406,175.2188 Q104.6563,174.7188 103.9688,173.6563 Q103.2813,172.5781 103.2813,171.2969 L103.2813,170.1406 Q103.2813,168.8125 103.8906,167.6719 Q104.5156,166.5156 105.6094,165.9063 Q106.7031,165.2813 107.9375,165.2813 Q108.6719,165.2813 109.3125,165.4531 Q109.9688,165.6094 110.5156,165.9688 Z " fill="#000000"/><text fill="#000000" font-family="sans-serif" font-size="14" lengthAdjust="spacing" textLength="127" x="141.25" y="169.5332">MIMLClassifierToML</text><text fill="#000000" font-family="sans-serif" font-size="10" lengthAdjust="spacing" textLength="153" x="128.25" y="182.9902">miml.classifiers.miml.mimlTOml</text><line style="stroke:#181818;stroke-width:0.5;" x1="13" x2="364" y1="190.1875" y2="190.1875"/><rect fill="none" height="6" style="stroke:#C82930;stroke-width:1.0;" width="6" x="20" y="201.4922"/><text fill="#000000" font-family="sans-serif" font-size="14" lengthAdjust="spacing" text-decoration="underline" textLength="139" x="32" y="208.7207">serialVersionUID: long</text><polygon fill="none" points="23,217.1016,27,221.1016,23,225.1016,19,221.1016" style="stroke:#B38D22;stroke-width:1.0;"/><text fill="#000000" font-family="sans-serif" font-size="14" lengthAdjust="spacing" textLength="211" x="32" y="226.3301">baseClassifier: MultiLabelLearner</text><polygon fill="none" points="23,234.7109,27,238.7109,23,242.7109,19,238.7109" style="stroke:#B38D22;stroke-width:1.0;"/><text fill="#000000" font-family="sans-serif" font-size="14" lengthAdjust="spacing" textLength="210" x="32" y="243.9395">transformationMethod: MIMLtoML</text><polygon fill="none" points="23,252.3203,27,256.3203,23,260.3203,19,256.3203" style="stroke:#B38D22;stroke-width:1.0;"/><text fill="#000000" font-family="sans-serif" font-size="14" lengthAdjust="spacing" textLength="178" x="32" y="261.5488">mimlDataset: MIMLInstances</text><polygon fill="none" points="23,270.9297,19,276.9297,27,276.9297" style="stroke:#1963A0;stroke-width:1.0;"/><text fill="#000000" font-family="sans-serif" font-size="14" lengthAdjust="spacing" textLength="139" x="32" y="279.1582">removeFilter: Remove</text><polygon fill="none" points="23,288.5391,19,294.5391,27,294.5391" style="stroke:#1963A0;stroke-width:1.0;"/><text fill="#000000" font-family="sans-serif" font-size="14" lengthAdjust="spacing" textLength="261" x="32" y="296.7676">mlDataSetWithBagId: MultiLabelInstances</text><line style="stroke:#181818;stroke-width:0.5;" x1="13" x2="364" y1="303.8438" y2="303.8438"/><ellipse cx="23" cy="318.1484" fill="#84BE84" rx="3" ry="3" style="stroke:#038048;stroke-width:1.0;"/><text fill="#000000" font-family="sans-serif" font-size="14" lengthAdjust="spacing" textLength="323" x="32" y="322.377">MIMLClassifierToML(MultiLabelLearner, MIMLtoML)</text><ellipse cx="23" cy="335.7578" fill="#84BE84" rx="3" ry="3" style="stroke:#038048;stroke-width:1.0;"/><text fill="#000000" font-family="sans-serif" font-size="14" lengthAdjust="spacing" textLength="137" x="32" y="339.9863">MIMLClassifierToML()</text><ellipse cx="23" cy="353.3672" fill="#84BE84" rx="3" ry="3" style="stroke:#038048;stroke-width:1.0;"/><text fill="#000000" font-family="sans-serif" font-size="14" lengthAdjust="spacing" textLength="214" x="32" y="357.5957">buildInternal(MIMLInstances): void</text><polygon fill="#FFFF44" points="23,365.9766,27,369.9766,23,373.9766,19,369.9766" style="stroke:#B38D22;stroke-width:1.0;"/><text fill="#000000" font-family="sans-serif" font-size="14" lengthAdjust="spacing" textLength="327" x="32" y="375.2051">makePredictionInternal(MIMLBag): MultiLabelOutput</text><ellipse cx="23" cy="388.5859" fill="#84BE84" rx="3" ry="3" style="stroke:#038048;stroke-width:1.0;"/><text fill="#000000" font-family="sans-serif" font-size="14" lengthAdjust="spacing" textLength="188" x="32" y="392.8145">configure(Configuration): void</text></g></a><!--MD5=[991e2d4b1b011fcbac8561f9fc322429]
class miml.classifiers.miml.MIMLClassifier--><a href="..\MIMLClassifier.html" target="_top" title="..\MIMLClassifier.html" xlink:actuate="onRequest" xlink:href="..\MIMLClassifier.html" xlink:show="new" xlink:title="..\MIMLClassifier.html" xlink:type="simple"><g id="elem_miml.classifiers.miml.MIMLClassifier"><rect codeLine="19" fill="#F1F1F1" height="83.4063" id="miml.classifiers.miml.MIMLClassifier" rx="2.5" ry="2.5" style="stroke:#181818;stroke-width:0.5;" width="359" x="9" y="7"/><ellipse cx="137.25" cy="27.0938" fill="#A9DCDF" rx="11" ry="11" style="stroke:#181818;stroke-width:1.0;"/><path d="M139.4375,28.8594 L135.2969,28.8594 L134.875,29.8906 L135.2969,29.8906 Q135.9063,29.8906 136.1719,30.125 Q136.4375,30.3594 136.4375,30.75 Q136.4375,31.125 136.1719,31.3594 Q135.9063,31.5938 135.2969,31.5938 L133,31.5938 Q132.3906,31.5938 132.1406,31.3594 Q131.875,31.125 131.875,30.7344 Q131.875,30.3594 132.1563,30.125 Q132.4219,29.875 133.0469,29.8906 L135.7188,23.2344 L134.6094,23.2344 Q134,23.2344 133.7344,23 Q133.4688,22.7656 133.4688,22.375 Q133.4688,22 133.7344,21.7656 Q134,21.5313 134.6094,21.5313 L138.2813,21.5313 L141.6719,29.8906 Q142.2656,29.8906 142.4531,30.0313 Q142.8438,30.2969 142.8438,30.75 Q142.8438,31.125 142.5781,31.3594 Q142.3281,31.5938 141.7188,31.5938 L139.4219,31.5938 Q138.8125,31.5938 138.5469,31.3594 Q138.2813,31.125 138.2813,30.7344 Q138.2813,30.3594 138.5469,30.125 Q138.8125,29.8906 139.4219,29.8906 L139.8438,29.8906 L139.4375,28.8594 Z M138.7188,27.1563 L137.3594,23.7813 L135.9844,27.1563 L138.7188,27.1563 Z " fill="#000000"/><text fill="#000000" font-family="sans-serif" font-size="14" font-style="italic" lengthAdjust="spacing" textLength="94" x="157.75" y="26.5332">MIMLClassifier</text><text fill="#000000" font-family="sans-serif" font-size="10" font-style="italic" lengthAdjust="spacing" textLength="93" x="158.25" y="39.9902">miml.classifiers.miml</text><line style="stroke:#181818;stroke-width:0.5;" x1="10" x2="367" y1="47.1875" y2="47.1875"/><polygon fill="#FFFF44" points="20,56.4922,24,60.4922,20,64.4922,16,60.4922" style="stroke:#B38D22;stroke-width:1.0;"/><text fill="#000000" font-family="sans-serif" font-size="14" font-style="italic" lengthAdjust="spacing" textLength="218" x="29" y="65.7207">buildInternal(MIMLInstances): void</text><polygon fill="#FFFF44" points="20,74.1016,24,78.1016,20,82.1016,16,78.1016" style="stroke:#B38D22;stroke-width:1.0;"/><text fill="#000000" font-family="sans-serif" font-size="14" font-style="italic" lengthAdjust="spacing" textLength="333" x="29" y="83.3301">makePredictionInternal(MIMLBag): MultiLabelOutput</text></g></a><!--MD5=[0654e4ce3f1f8b75c3e7a4aff7161e2a]
reverse link miml.classifiers.miml.MIMLClassifier to miml.classifiers.miml.mimlTOml.MIMLClassifierToML--><g id="link_miml.classifiers.miml.MIMLClassifier_miml.classifiers.miml.mimlTOml.MIMLClassifierToML"><path codeLine="24" d="M188.5,110.48 C188.5,122.86 188.5,136.3 188.5,149.98 " fill="none" id="miml.classifiers.miml.MIMLClassifier-backto-miml.classifiers.miml.mimlTOml.MIMLClassifierToML" style="stroke:#181818;stroke-width:1.0;"/><polygon fill="none" points="181.5,110.16,188.5,90.16,195.5,110.16,181.5,110.16" style="stroke:#181818;stroke-width:1.0;"/></g><rect fill="none" height="12.5781" style="stroke:none;stroke-width:1.0;" width="190" x="85.5" y="405.8906"/><text fill="#888888" font-family="sans-serif" font-size="10" lengthAdjust="spacing" textLength="190" x="85.5" y="416.2715">UMLDoclet 2.0.20, PlantUML 1.2022.12</text><!--MD5=[c9824f7ef574be1ab845b57f6a0f9aa0]
@startuml
    set namespaceSeparator none
    hide empty fields
    hide empty methods

    class "<size:14>MIMLClassifierToML\n<size:10>miml.classifiers.miml.mimlTOml" as miml.classifiers.miml.mimlTOml.MIMLClassifierToML [[MIMLClassifierToML.html]] {
        {static} -serialVersionUID: long
        #baseClassifier: MultiLabelLearner
        #transformationMethod: MIMLtoML
        #mimlDataset: MIMLInstances
        ~removeFilter: Remove
        ~mlDataSetWithBagId: MultiLabelInstances
        +MIMLClassifierToML(MultiLabelLearner, MIMLtoML)
        +MIMLClassifierToML()
        +buildInternal(MIMLInstances): void
        #makePredictionInternal(MIMLBag): MultiLabelOutput
        +configure(Configuration): void
    }

    abstract class "<size:14>MIMLClassifier\n<size:10>miml.classifiers.miml" as miml.classifiers.miml.MIMLClassifier [[..\MIMLClassifier.html]] {
        {abstract} #buildInternal(MIMLInstances): void
        {abstract} #makePredictionInternal(MIMLBag): MultiLabelOutput
    }

    miml.classifiers.miml.MIMLClassifier <|- - miml.classifiers.miml.mimlTOml.MIMLClassifierToML

    center footer UMLDoclet 2.0.20, PlantUML 1.2022.12
@enduml

PlantUML version 1.2022.12(Sun Oct 23 20:12:26 CEST 2022)
(APACHE source distribution)
Java Runtime: OpenJDK Runtime Environment
JVM: OpenJDK 64-Bit Server VM
Default Encoding: Cp1252
Language: es
Country: ES
--></g></svg>