<?xml version="1.0" encoding="UTF-8" standalone="no"?><svg xmlns="http://www.w3.org/2000/svg" xmlns:xlink="http://www.w3.org/1999/xlink" contentStyleType="text/css" height="608px" preserveAspectRatio="none" style="width:405px;height:608px;background:#FFFFFF;" version="1.1" viewBox="0 0 405 608" width="405px" zoomAndPan="magnify"><defs/><g><!--MD5=[095f69628780b174539f92c754286d65]
cluster miml.classifiers.miml.mimlTOml--><g id="cluster_miml.classifiers.miml.mimlTOml"><path d="M11.5,288 L227.5,288 A3.75,3.75 0 0 1 230,290.5 L237,311.6094 L392.5,311.6094 A2.5,2.5 0 0 1 395,314.1094 L395,579.5 A2.5,2.5 0 0 1 392.5,582 L11.5,582 A2.5,2.5 0 0 1 9,579.5 L9,290.5 A2.5,2.5 0 0 1 11.5,288 " fill="none" style="stroke:#000000;stroke-width:1.5;"/><line style="stroke:#000000;stroke-width:1.5;" x1="9" x2="237" y1="311.6094" y2="311.6094"/><text fill="#000000" font-family="sans-serif" font-size="14" font-weight="bold" lengthAdjust="spacing" textLength="215" x="13" y="304.5332">miml.classifiers.miml.mimlTOml</text></g><!--MD5=[5ea508e6e8d0b42a39d8ea5f6e56fa35]
cluster miml.classifiers.miml--><g id="cluster_miml.classifiers.miml"><path d="M8.5,6 L153.5,6 A3.75,3.75 0 0 1 156,8.5 L163,29.6094 L395.5,29.6094 A2.5,2.5 0 0 1 398,32.1094 L398,261.5 A2.5,2.5 0 0 1 395.5,264 L8.5,264 A2.5,2.5 0 0 1 6,261.5 L6,8.5 A2.5,2.5 0 0 1 8.5,6 " fill="none" style="stroke:#000000;stroke-width:1.5;"/><line style="stroke:#000000;stroke-width:1.5;" x1="6" x2="163" y1="29.6094" y2="29.6094"/><text fill="#000000" font-family="sans-serif" font-size="14" font-weight="bold" lengthAdjust="spacing" textLength="144" x="10" y="22.5332">miml.classifiers.miml</text></g><!--MD5=[a348eb3d466bb21760c0fa0ad75e97cd]
class miml.classifiers.miml.mimlTOml.MIMLClassifierToML--><a href="MIMLClassifierToML.html" target="_top" title="MIMLClassifierToML.html" xlink:actuate="onRequest" xlink:href="MIMLClassifierToML.html" xlink:show="new" xlink:title="MIMLClassifierToML.html" xlink:type="simple"><g id="elem_miml.classifiers.miml.mimlTOml.MIMLClassifierToML"><rect codeLine="3" fill="#F1F1F1" height="241.7031" id="miml.classifiers.miml.mimlTOml.MIMLClassifierToML" rx="2.5" ry="2.5" style="stroke:#181818;stroke-width:0.5;" width="353" x="25.5" y="324"/><ellipse cx="134.25" cy="340" fill="#ADD1B2" rx="11" ry="11" style="stroke:#181818;stroke-width:1.0;"/><path d="M137.0156,335.875 Q137.1719,335.6563 137.3594,335.5469 Q137.5469,335.4375 137.7656,335.4375 Q138.1406,335.4375 138.375,335.7031 Q138.6094,335.9531 138.6094,336.5625 L138.6094,338.0156 Q138.6094,338.625 138.375,338.8906 Q138.1406,339.1563 137.7656,339.1563 Q137.4219,339.1563 137.2188,338.9531 Q137.0156,338.7656 136.9063,338.25 Q136.8594,337.8906 136.6719,337.7031 Q136.3438,337.3281 135.7344,337.1094 Q135.125,336.8906 134.5,336.8906 Q133.7344,336.8906 133.0938,337.2188 Q132.4688,337.5469 131.9688,338.2969 Q131.4844,339.0469 131.4844,340.0781 L131.4844,341.1719 Q131.4844,342.4063 132.375,343.2344 Q133.2656,344.0469 134.8594,344.0469 Q135.7969,344.0469 136.4531,343.7969 Q136.8438,343.6406 137.2656,343.2031 Q137.5313,342.9375 137.6719,342.8594 Q137.8281,342.7813 138.0313,342.7813 Q138.3594,342.7813 138.6094,343.0469 Q138.875,343.2969 138.875,343.6406 Q138.875,343.9844 138.5313,344.3906 Q138.0313,344.9688 137.2344,345.2969 Q136.1563,345.75 134.8594,345.75 Q133.3438,345.75 132.1406,345.125 Q131.1563,344.625 130.4688,343.5625 Q129.7813,342.4844 129.7813,341.2031 L129.7813,340.0469 Q129.7813,338.7188 130.3906,337.5781 Q131.0156,336.4219 132.1094,335.8125 Q133.2031,335.1875 134.4375,335.1875 Q135.1719,335.1875 135.8125,335.3594 Q136.4688,335.5156 137.0156,335.875 Z " fill="#000000"/><text fill="#000000" font-family="sans-serif" font-size="14" lengthAdjust="spacing" textLength="127" x="154.75" y="345.7285">MIMLClassifierToML</text><line style="stroke:#181818;stroke-width:0.5;" x1="26.5" x2="377.5" y1="356" y2="356"/><rect fill="none" height="6" style="stroke:#C82930;stroke-width:1.0;" width="6" x="33.5" y="367.3047"/><text fill="#000000" font-family="sans-serif" font-size="14" lengthAdjust="spacing" text-decoration="underline" textLength="139" x="45.5" y="374.5332">serialVersionUID: long</text><polygon fill="none" points="36.5,382.9141,40.5,386.9141,36.5,390.9141,32.5,386.9141" style="stroke:#B38D22;stroke-width:1.0;"/><text fill="#000000" font-family="sans-serif" font-size="14" lengthAdjust="spacing" textLength="211" x="45.5" y="392.1426">baseClassifier: MultiLabelLearner</text><polygon fill="none" points="36.5,400.5234,40.5,404.5234,36.5,408.5234,32.5,404.5234" style="stroke:#B38D22;stroke-width:1.0;"/><text fill="#000000" font-family="sans-serif" font-size="14" lengthAdjust="spacing" textLength="210" x="45.5" y="409.752">transformationMethod: MIMLtoML</text><polygon fill="none" points="36.5,418.1328,40.5,422.1328,36.5,426.1328,32.5,422.1328" style="stroke:#B38D22;stroke-width:1.0;"/><text fill="#000000" font-family="sans-serif" font-size="14" lengthAdjust="spacing" textLength="178" x="45.5" y="427.3613">mimlDataset: MIMLInstances</text><polygon fill="none" points="36.5,436.7422,32.5,442.7422,40.5,442.7422" style="stroke:#1963A0;stroke-width:1.0;"/><text fill="#000000" font-family="sans-serif" font-size="14" lengthAdjust="spacing" textLength="139" x="45.5" y="444.9707">removeFilter: Remove</text><polygon fill="none" points="36.5,454.3516,32.5,460.3516,40.5,460.3516" style="stroke:#1963A0;stroke-width:1.0;"/><text fill="#000000" font-family="sans-serif" font-size="14" lengthAdjust="spacing" textLength="261" x="45.5" y="462.5801">mlDataSetWithBagId: MultiLabelInstances</text><line style="stroke:#181818;stroke-width:0.5;" x1="26.5" x2="377.5" y1="469.6563" y2="469.6563"/><ellipse cx="36.5" cy="483.9609" fill="#84BE84" rx="3" ry="3" style="stroke:#038048;stroke-width:1.0;"/><text fill="#000000" font-family="sans-serif" font-size="14" lengthAdjust="spacing" textLength="323" x="45.5" y="488.1895">MIMLClassifierToML(MultiLabelLearner, MIMLtoML)</text><ellipse cx="36.5" cy="501.5703" fill="#84BE84" rx="3" ry="3" style="stroke:#038048;stroke-width:1.0;"/><text fill="#000000" font-family="sans-serif" font-size="14" lengthAdjust="spacing" textLength="137" x="45.5" y="505.7988">MIMLClassifierToML()</text><ellipse cx="36.5" cy="519.1797" fill="#84BE84" rx="3" ry="3" style="stroke:#038048;stroke-width:1.0;"/><text fill="#000000" font-family="sans-serif" font-size="14" lengthAdjust="spacing" textLength="214" x="45.5" y="523.4082">buildInternal(MIMLInstances): void</text><polygon fill="#FFFF44" points="36.5,531.7891,40.5,535.7891,36.5,539.7891,32.5,535.7891" style="stroke:#B38D22;stroke-width:1.0;"/><text fill="#000000" font-family="sans-serif" font-size="14" lengthAdjust="spacing" textLength="327" x="45.5" y="541.0176">makePredictionInternal(MIMLBag): MultiLabelOutput</text><ellipse cx="36.5" cy="554.3984" fill="#84BE84" rx="3" ry="3" style="stroke:#038048;stroke-width:1.0;"/><text fill="#000000" font-family="sans-serif" font-size="14" lengthAdjust="spacing" textLength="188" x="45.5" y="558.627">configure(Configuration): void</text></g></a><!--MD5=[991e2d4b1b011fcbac8561f9fc322429]
class miml.classifiers.miml.MIMLClassifier--><a href="..\MIMLClassifier.html" target="_top" title="..\MIMLClassifier.html" xlink:actuate="onRequest" xlink:href="..\MIMLClassifier.html" xlink:show="new" xlink:title="..\MIMLClassifier.html" xlink:type="simple"><g id="elem_miml.classifiers.miml.MIMLClassifier"><rect codeLine="21" fill="#F1F1F1" height="206.4844" id="miml.classifiers.miml.MIMLClassifier" rx="2.5" ry="2.5" style="stroke:#181818;stroke-width:0.5;" width="359" x="22.5" y="42"/><ellipse cx="150.75" cy="58" fill="#A9DCDF" rx="11" ry="11" style="stroke:#181818;stroke-width:1.0;"/><path d="M152.9375,59.7656 L148.7969,59.7656 L148.375,60.7969 L148.7969,60.7969 Q149.4063,60.7969 149.6719,61.0313 Q149.9375,61.2656 149.9375,61.6563 Q149.9375,62.0313 149.6719,62.2656 Q149.4063,62.5 148.7969,62.5 L146.5,62.5 Q145.8906,62.5 145.6406,62.2656 Q145.375,62.0313 145.375,61.6406 Q145.375,61.2656 145.6563,61.0313 Q145.9219,60.7813 146.5469,60.7969 L149.2188,54.1406 L148.1094,54.1406 Q147.5,54.1406 147.2344,53.9063 Q146.9688,53.6719 146.9688,53.2813 Q146.9688,52.9063 147.2344,52.6719 Q147.5,52.4375 148.1094,52.4375 L151.7813,52.4375 L155.1719,60.7969 Q155.7656,60.7969 155.9531,60.9375 Q156.3438,61.2031 156.3438,61.6563 Q156.3438,62.0313 156.0781,62.2656 Q155.8281,62.5 155.2188,62.5 L152.9219,62.5 Q152.3125,62.5 152.0469,62.2656 Q151.7813,62.0313 151.7813,61.6406 Q151.7813,61.2656 152.0469,61.0313 Q152.3125,60.7969 152.9219,60.7969 L153.3438,60.7969 L152.9375,59.7656 Z M152.2188,58.0625 L150.8594,54.6875 L149.4844,58.0625 L152.2188,58.0625 Z " fill="#000000"/><text fill="#000000" font-family="sans-serif" font-size="14" font-style="italic" lengthAdjust="spacing" textLength="94" x="171.25" y="63.7285">MIMLClassifier</text><line style="stroke:#181818;stroke-width:0.5;" x1="23.5" x2="380.5" y1="74" y2="74"/><rect fill="none" height="6" style="stroke:#C82930;stroke-width:1.0;" width="6" x="30.5" y="85.3047"/><text fill="#000000" font-family="sans-serif" font-size="14" lengthAdjust="spacing" text-decoration="underline" textLength="139" x="42.5" y="92.5332">serialVersionUID: long</text><polygon fill="none" points="33.5,100.9141,37.5,104.9141,33.5,108.9141,29.5,104.9141" style="stroke:#B38D22;stroke-width:1.0;"/><text fill="#000000" font-family="sans-serif" font-size="14" lengthAdjust="spacing" textLength="164" x="42.5" y="110.1426">isModelInitialized: boolean</text><polygon fill="none" points="33.5,118.5234,37.5,122.5234,33.5,126.5234,29.5,122.5234" style="stroke:#B38D22;stroke-width:1.0;"/><text fill="#000000" font-family="sans-serif" font-size="14" lengthAdjust="spacing" textLength="92" x="42.5" y="127.752">numLabels: int</text><polygon fill="none" points="33.5,136.1328,37.5,140.1328,33.5,144.1328,29.5,140.1328" style="stroke:#B38D22;stroke-width:1.0;"/><text fill="#000000" font-family="sans-serif" font-size="14" lengthAdjust="spacing" textLength="105" x="42.5" y="145.3613">labelIndices: int[]</text><polygon fill="none" points="33.5,153.7422,37.5,157.7422,33.5,161.7422,29.5,157.7422" style="stroke:#B38D22;stroke-width:1.0;"/><text fill="#000000" font-family="sans-serif" font-size="14" lengthAdjust="spacing" textLength="126" x="42.5" y="162.9707">labelNames: String[]</text><polygon fill="none" points="33.5,171.3516,37.5,175.3516,33.5,179.3516,29.5,175.3516" style="stroke:#B38D22;stroke-width:1.0;"/><text fill="#000000" font-family="sans-serif" font-size="14" lengthAdjust="spacing" textLength="120" x="42.5" y="180.5801">featureIndices: int[]</text><rect fill="none" height="6" style="stroke:#C82930;stroke-width:1.0;" width="6" x="30.5" y="190.9609"/><text fill="#000000" font-family="sans-serif" font-size="14" lengthAdjust="spacing" textLength="111" x="42.5" y="198.1895">isDebug: boolean</text><line style="stroke:#181818;stroke-width:0.5;" x1="23.5" x2="380.5" y1="205.2656" y2="205.2656"/><polygon fill="#FFFF44" points="33.5,214.5703,37.5,218.5703,33.5,222.5703,29.5,218.5703" style="stroke:#B38D22;stroke-width:1.0;"/><text fill="#000000" font-family="sans-serif" font-size="14" font-style="italic" lengthAdjust="spacing" textLength="218" x="42.5" y="223.7988">buildInternal(MIMLInstances): void</text><polygon fill="#FFFF44" points="33.5,232.1797,37.5,236.1797,33.5,240.1797,29.5,236.1797" style="stroke:#B38D22;stroke-width:1.0;"/><text fill="#000000" font-family="sans-serif" font-size="14" font-style="italic" lengthAdjust="spacing" textLength="333" x="42.5" y="241.4082">makePredictionInternal(MIMLBag): MultiLabelOutput</text></g></a><!--MD5=[0654e4ce3f1f8b75c3e7a4aff7161e2a]
reverse link miml.classifiers.miml.MIMLClassifier to miml.classifiers.miml.mimlTOml.MIMLClassifierToML--><g id="link_miml.classifiers.miml.MIMLClassifier_miml.classifiers.miml.mimlTOml.MIMLClassifierToML"><path codeLine="17" d="M202,268.17 C202,286.53 202,305.45 202,323.76 " fill="none" id="miml.classifiers.miml.MIMLClassifier-backto-miml.classifiers.miml.mimlTOml.MIMLClassifierToML" style="stroke:#181818;stroke-width:1.0;"/><polygon fill="none" points="195,268.14,202,248.14,209,268.14,195,268.14" style="stroke:#181818;stroke-width:1.0;"/></g><rect fill="none" height="12.5781" style="stroke:none;stroke-width:1.0;" width="190" x="100.5" y="588"/><text fill="#888888" font-family="sans-serif" font-size="10" lengthAdjust="spacing" textLength="190" x="100.5" y="598.3809">UMLDoclet 2.0.20, PlantUML 1.2022.12</text><!--MD5=[e3b07b98738aa457e5f14be30bb1ef7e]
@startuml
    namespace miml.classifiers.miml.mimlTOml {

        class MIMLClassifierToML [[MIMLClassifierToML.html]] {
            {static} -serialVersionUID: long
            #baseClassifier: MultiLabelLearner
            #transformationMethod: MIMLtoML
            #mimlDataset: MIMLInstances
            ~removeFilter: Remove
            ~mlDataSetWithBagId: MultiLabelInstances
            +MIMLClassifierToML(MultiLabelLearner, MIMLtoML)
            +MIMLClassifierToML()
            +buildInternal(MIMLInstances): void
            #makePredictionInternal(MIMLBag): MultiLabelOutput
            +configure(Configuration): void
        }

        miml.classifiers.miml.MIMLClassifier <|- - MIMLClassifierToML
    }

    namespace miml.classifiers.miml {
        abstract class MIMLClassifier [[..\MIMLClassifier.html]] {
            {static} -serialVersionUID: long
            #isModelInitialized: boolean
            #numLabels: int
            #labelIndices: int[]
            #labelNames: String[]
            #featureIndices: int[]
            -isDebug: boolean
            {abstract} #buildInternal(MIMLInstances): void
            {abstract} #makePredictionInternal(MIMLBag): MultiLabelOutput
        }
    }

    center footer UMLDoclet 2.0.20, PlantUML 1.2022.12
@enduml

PlantUML version 1.2022.12(Sun Oct 23 20:12:26 CEST 2022)
(APACHE source distribution)
Java Runtime: OpenJDK Runtime Environment
JVM: OpenJDK 64-Bit Server VM
Default Encoding: Cp1252
Language: es
Country: ES
--></g></svg>