<?xml version="1.0" encoding="UTF-8" standalone="no"?><svg xmlns="http://www.w3.org/2000/svg" xmlns:xlink="http://www.w3.org/1999/xlink" contentStyleType="text/css" height="260px" preserveAspectRatio="none" style="width:346px;height:260px;background:#FFFFFF;" version="1.1" viewBox="0 0 346 260" width="346px" zoomAndPan="magnify"><defs/><g><!--MD5=[1fe84f10fab03350589ccd91e069f14b]
class miml.data.partitioning.iterative.IterativeCrossValidation--><a href="IterativeCrossValidation.html" target="_top" title="IterativeCrossValidation.html" xlink:actuate="onRequest" xlink:href="IterativeCrossValidation.html" xlink:show="new" xlink:title="IterativeCrossValidation.html" xlink:type="simple"><g id="elem_miml.data.partitioning.iterative.IterativeCrossValidation"><rect codeLine="5" fill="#F1F1F1" height="101.0156" id="miml.data.partitioning.iterative.IterativeCrossValidation" rx="2.5" ry="2.5" style="stroke:#181818;stroke-width:0.5;" width="332" x="7" y="133"/><ellipse cx="94.25" cy="153.0938" fill="#ADD1B2" rx="11" ry="11" style="stroke:#181818;stroke-width:1.0;"/><path d="M97.0156,148.9688 Q97.1719,148.75 97.3594,148.6406 Q97.5469,148.5313 97.7656,148.5313 Q98.1406,148.5313 98.375,148.7969 Q98.6094,149.0469 98.6094,149.6563 L98.6094,151.1094 Q98.6094,151.7188 98.375,151.9844 Q98.1406,152.25 97.7656,152.25 Q97.4219,152.25 97.2188,152.0469 Q97.0156,151.8594 96.9063,151.3438 Q96.8594,150.9844 96.6719,150.7969 Q96.3438,150.4219 95.7344,150.2031 Q95.125,149.9844 94.5,149.9844 Q93.7344,149.9844 93.0938,150.3125 Q92.4688,150.6406 91.9688,151.3906 Q91.4844,152.1406 91.4844,153.1719 L91.4844,154.2656 Q91.4844,155.5 92.375,156.3281 Q93.2656,157.1406 94.8594,157.1406 Q95.7969,157.1406 96.4531,156.8906 Q96.8438,156.7344 97.2656,156.2969 Q97.5313,156.0313 97.6719,155.9531 Q97.8281,155.875 98.0313,155.875 Q98.3594,155.875 98.6094,156.1406 Q98.875,156.3906 98.875,156.7344 Q98.875,157.0781 98.5313,157.4844 Q98.0313,158.0625 97.2344,158.3906 Q96.1563,158.8438 94.8594,158.8438 Q93.3438,158.8438 92.1406,158.2188 Q91.1563,157.7188 90.4688,156.6563 Q89.7813,155.5781 89.7813,154.2969 L89.7813,153.1406 Q89.7813,151.8125 90.3906,150.6719 Q91.0156,149.5156 92.1094,148.9063 Q93.2031,148.2813 94.4375,148.2813 Q95.1719,148.2813 95.8125,148.4531 Q96.4688,148.6094 97.0156,148.9688 Z " fill="#000000"/><text fill="#000000" font-family="sans-serif" font-size="14" lengthAdjust="spacing" textLength="149" x="114.75" y="152.5332">IterativeCrossValidation</text><text fill="#000000" font-family="sans-serif" font-size="10" lengthAdjust="spacing" textLength="146" x="116.25" y="165.9902">miml.data.partitioning.iterative</text><line style="stroke:#181818;stroke-width:0.5;" x1="8" x2="338" y1="173.1875" y2="173.1875"/><ellipse cx="18" cy="187.4922" fill="#84BE84" rx="3" ry="3" style="stroke:#038048;stroke-width:1.0;"/><text fill="#000000" font-family="sans-serif" font-size="14" lengthAdjust="spacing" textLength="306" x="27" y="191.7207">IterativeCrossValidation(int, MultiLabelInstances)</text><ellipse cx="18" cy="205.1016" fill="#84BE84" rx="3" ry="3" style="stroke:#038048;stroke-width:1.0;"/><text fill="#000000" font-family="sans-serif" font-size="14" lengthAdjust="spacing" textLength="283" x="27" y="209.3301">IterativeCrossValidation(MultiLabelInstances)</text><ellipse cx="18" cy="222.7109" fill="#84BE84" rx="3" ry="3" style="stroke:#038048;stroke-width:1.0;"/><text fill="#000000" font-family="sans-serif" font-size="14" lengthAdjust="spacing" textLength="220" x="27" y="226.9395">getFolds(int): MultiLabelInstances[]</text></g></a><!--MD5=[7ac158596541117d11edcffba96f82c4]
class miml.data.partitioning.CrossValidationBase--><a href="..\CrossValidationBase.html" target="_top" title="..\CrossValidationBase.html" xlink:actuate="onRequest" xlink:href="..\CrossValidationBase.html" xlink:show="new" xlink:title="..\CrossValidationBase.html" xlink:type="simple"><g id="elem_miml.data.partitioning.CrossValidationBase"><rect codeLine="11" fill="#F1F1F1" height="65.7969" id="miml.data.partitioning.CrossValidationBase" rx="2.5" ry="2.5" style="stroke:#181818;stroke-width:0.5;" width="248" x="49" y="7"/><ellipse cx="103.25" cy="27.0938" fill="#A9DCDF" rx="11" ry="11" style="stroke:#181818;stroke-width:1.0;"/><path d="M105.4375,28.8594 L101.2969,28.8594 L100.875,29.8906 L101.2969,29.8906 Q101.9063,29.8906 102.1719,30.125 Q102.4375,30.3594 102.4375,30.75 Q102.4375,31.125 102.1719,31.3594 Q101.9063,31.5938 101.2969,31.5938 L99,31.5938 Q98.3906,31.5938 98.1406,31.3594 Q97.875,31.125 97.875,30.7344 Q97.875,30.3594 98.1563,30.125 Q98.4219,29.875 99.0469,29.8906 L101.7188,23.2344 L100.6094,23.2344 Q100,23.2344 99.7344,23 Q99.4688,22.7656 99.4688,22.375 Q99.4688,22 99.7344,21.7656 Q100,21.5313 100.6094,21.5313 L104.2813,21.5313 L107.6719,29.8906 Q108.2656,29.8906 108.4531,30.0313 Q108.8438,30.2969 108.8438,30.75 Q108.8438,31.125 108.5781,31.3594 Q108.3281,31.5938 107.7188,31.5938 L105.4219,31.5938 Q104.8125,31.5938 104.5469,31.3594 Q104.2813,31.125 104.2813,30.7344 Q104.2813,30.3594 104.5469,30.125 Q104.8125,29.8906 105.4219,29.8906 L105.8438,29.8906 L105.4375,28.8594 Z M104.7188,27.1563 L103.3594,23.7813 L101.9844,27.1563 L104.7188,27.1563 Z " fill="#000000"/><text fill="#000000" font-family="sans-serif" font-size="14" font-style="italic" lengthAdjust="spacing" textLength="131" x="123.75" y="26.5332">CrossValidationBase</text><text fill="#000000" font-family="sans-serif" font-size="10" font-style="italic" lengthAdjust="spacing" textLength="101" x="138.75" y="39.9902">miml.data.partitioning</text><line style="stroke:#181818;stroke-width:0.5;" x1="50" x2="296" y1="47.1875" y2="47.1875"/><ellipse cx="60" cy="61.4922" fill="#84BE84" rx="3" ry="3" style="stroke:#038048;stroke-width:1.0;"/><text fill="#000000" font-family="sans-serif" font-size="14" font-style="italic" lengthAdjust="spacing" textLength="222" x="69" y="65.7207">getFolds(int): MultiLabelInstances[]</text></g></a><!--MD5=[ae98b2b5d5e36d95b97a205eccd7ed5d]
reverse link miml.data.partitioning.CrossValidationBase to miml.data.partitioning.iterative.IterativeCrossValidation--><g id="link_miml.data.partitioning.CrossValidationBase_miml.data.partitioning.iterative.IterativeCrossValidation"><path codeLine="15" d="M173,93.56 C173,106.38 173,120.06 173,132.75 " fill="none" id="miml.data.partitioning.CrossValidationBase-backto-miml.data.partitioning.iterative.IterativeCrossValidation" style="stroke:#181818;stroke-width:1.0;"/><polygon fill="none" points="166,93.11,173,73.11,180,93.11,166,93.11" style="stroke:#181818;stroke-width:1.0;"/></g><rect fill="none" height="12.5781" style="stroke:none;stroke-width:1.0;" width="190" x="71" y="240.0156"/><text fill="#888888" font-family="sans-serif" font-size="10" lengthAdjust="spacing" textLength="190" x="71" y="250.3965">UMLDoclet 2.0.20, PlantUML 1.2022.12</text><!--MD5=[88e6103e7c29bd890396daa729e6932e]
@startuml
    set namespaceSeparator none
    hide empty fields
    hide empty methods

    class "<size:14>IterativeCrossValidation\n<size:10>miml.data.partitioning.iterative" as miml.data.partitioning.iterative.IterativeCrossValidation [[IterativeCrossValidation.html]] {
        +IterativeCrossValidation(int, MultiLabelInstances)
        +IterativeCrossValidation(MultiLabelInstances)
        +getFolds(int): MultiLabelInstances[]
    }

    abstract class "<size:14>CrossValidationBase\n<size:10>miml.data.partitioning" as miml.data.partitioning.CrossValidationBase [[..\CrossValidationBase.html]] {
        {abstract} +getFolds(int): MultiLabelInstances[]
    }

    miml.data.partitioning.CrossValidationBase <|- - miml.data.partitioning.iterative.IterativeCrossValidation

    center footer UMLDoclet 2.0.20, PlantUML 1.2022.12
@enduml

PlantUML version 1.2022.12(Sun Oct 23 20:12:26 CEST 2022)
(APACHE source distribution)
Java Runtime: OpenJDK Runtime Environment
JVM: OpenJDK 64-Bit Server VM
Default Encoding: Cp1252
Language: es
Country: ES
--></g></svg>