<?xml version="1.0" encoding="UTF-8" standalone="no"?><svg xmlns="http://www.w3.org/2000/svg" xmlns:xlink="http://www.w3.org/1999/xlink" contentStyleType="text/css" height="419px" preserveAspectRatio="none" style="width:467px;height:419px;background:#FFFFFF;" version="1.1" viewBox="0 0 467 419" width="467px" zoomAndPan="magnify"><defs/><g><!--MD5=[8463dd6b739312ac17607a6058f326c7]
class miml.data.partitioning.iterative.IterativeTrainTest--><a href="IterativeTrainTest.html" target="_top" title="IterativeTrainTest.html" xlink:actuate="onRequest" xlink:href="IterativeTrainTest.html" xlink:show="new" xlink:title="IterativeTrainTest.html" xlink:type="simple"><g id="elem_miml.data.partitioning.iterative.IterativeTrainTest"><rect codeLine="5" fill="#F1F1F1" height="259.5" id="miml.data.partitioning.iterative.IterativeTrainTest" rx="2.5" ry="2.5" style="stroke:#181818;stroke-width:0.5;" width="453" x="7" y="133"/><ellipse cx="156.25" cy="153.0938" fill="#ADD1B2" rx="11" ry="11" style="stroke:#181818;stroke-width:1.0;"/><path d="M159.0156,148.9688 Q159.1719,148.75 159.3594,148.6406 Q159.5469,148.5313 159.7656,148.5313 Q160.1406,148.5313 160.375,148.7969 Q160.6094,149.0469 160.6094,149.6563 L160.6094,151.1094 Q160.6094,151.7188 160.375,151.9844 Q160.1406,152.25 159.7656,152.25 Q159.4219,152.25 159.2188,152.0469 Q159.0156,151.8594 158.9063,151.3438 Q158.8594,150.9844 158.6719,150.7969 Q158.3438,150.4219 157.7344,150.2031 Q157.125,149.9844 156.5,149.9844 Q155.7344,149.9844 155.0938,150.3125 Q154.4688,150.6406 153.9688,151.3906 Q153.4844,152.1406 153.4844,153.1719 L153.4844,154.2656 Q153.4844,155.5 154.375,156.3281 Q155.2656,157.1406 156.8594,157.1406 Q157.7969,157.1406 158.4531,156.8906 Q158.8438,156.7344 159.2656,156.2969 Q159.5313,156.0313 159.6719,155.9531 Q159.8281,155.875 160.0313,155.875 Q160.3594,155.875 160.6094,156.1406 Q160.875,156.3906 160.875,156.7344 Q160.875,157.0781 160.5313,157.4844 Q160.0313,158.0625 159.2344,158.3906 Q158.1563,158.8438 156.8594,158.8438 Q155.3438,158.8438 154.1406,158.2188 Q153.1563,157.7188 152.4688,156.6563 Q151.7813,155.5781 151.7813,154.2969 L151.7813,153.1406 Q151.7813,151.8125 152.3906,150.6719 Q153.0156,149.5156 154.1094,148.9063 Q155.2031,148.2813 156.4375,148.2813 Q157.1719,148.2813 157.8125,148.4531 Q158.4688,148.6094 159.0156,148.9688 Z " fill="#000000"/><text fill="#000000" font-family="sans-serif" font-size="14" lengthAdjust="spacing" textLength="111" x="194.25" y="152.5332">IterativeTrainTest</text><text fill="#000000" font-family="sans-serif" font-size="10" lengthAdjust="spacing" textLength="146" x="176.75" y="165.9902">miml.data.partitioning.iterative</text><line style="stroke:#181818;stroke-width:0.5;" x1="8" x2="459" y1="173.1875" y2="173.1875"/><ellipse cx="18" cy="187.4922" fill="#84BE84" rx="3" ry="3" style="stroke:#038048;stroke-width:1.0;"/><text fill="#000000" font-family="sans-serif" font-size="14" lengthAdjust="spacing" textLength="268" x="27" y="191.7207">IterativeTrainTest(int, MultiLabelInstances)</text><ellipse cx="18" cy="205.1016" fill="#84BE84" rx="3" ry="3" style="stroke:#038048;stroke-width:1.0;"/><text fill="#000000" font-family="sans-serif" font-size="14" lengthAdjust="spacing" textLength="245" x="27" y="209.3301">IterativeTrainTest(MultiLabelInstances)</text><ellipse cx="18" cy="222.7109" fill="#84BE84" rx="3" ry="3" style="stroke:#038048;stroke-width:1.0;"/><text fill="#000000" font-family="sans-serif" font-size="14" lengthAdjust="spacing" textLength="218" x="27" y="226.9395">split(double): MultiLabelInstances[]</text><rect fill="#F24D5C" height="6" style="stroke:#C82930;stroke-width:1.0;" width="6" x="15" y="237.3203"/><text fill="#000000" font-family="sans-serif" font-size="14" lengthAdjust="spacing" textLength="427" x="27" y="244.5488">foldsCreation(Instances, Random, double[], int, int[], int): Instances[]</text><rect fill="#F24D5C" height="6" style="stroke:#C82930;stroke-width:1.0;" width="6" x="15" y="254.9297"/><text fill="#000000" font-family="sans-serif" font-size="14" lengthAdjust="spacing" textLength="326" x="27" y="262.1582">calculatingTheFrequencies(Instances, int, int[]): int[]</text><rect fill="#F24D5C" height="6" style="stroke:#C82930;stroke-width:1.0;" width="6" x="15" y="272.5391"/><text fill="#000000" font-family="sans-serif" font-size="14" lengthAdjust="spacing" textLength="372" x="27" y="279.7676">calculatingTheDesiredSplits(int[], double[], int, int): double[]</text><rect fill="#F24D5C" height="6" style="stroke:#C82930;stroke-width:1.0;" width="6" x="15" y="290.1484"/><text fill="#000000" font-family="sans-serif" font-size="14" lengthAdjust="spacing" textLength="362" x="27" y="297.377">takingTheSmallestIndexAndNumberInVector(int[], int): int[]</text><rect fill="#F24D5C" height="6" style="stroke:#C82930;stroke-width:1.0;" width="6" x="15" y="307.7578"/><text fill="#000000" font-family="sans-serif" font-size="14" lengthAdjust="spacing" textLength="418" x="27" y="314.9863">takeTheInstancesOfTheLabel(Instances, int, int[], int[]): Instances[]</text><rect fill="#F24D5C" height="6" style="stroke:#C82930;stroke-width:1.0;" width="6" x="15" y="325.3672"/><text fill="#000000" font-family="sans-serif" font-size="14" lengthAdjust="spacing" textLength="263" x="27" y="332.5957">findThePossibleSpit(double[], int, int): int[]</text><rect fill="#F24D5C" height="6" style="stroke:#C82930;stroke-width:1.0;" width="6" x="15" y="342.9766"/><text fill="#000000" font-family="sans-serif" font-size="14" lengthAdjust="spacing" textLength="363" x="27" y="350.2051">updateDesiredSplitStatistics(double[], boolean[]): double[]</text><rect fill="#F24D5C" height="6" style="stroke:#C82930;stroke-width:1.0;" width="6" x="15" y="360.5859"/><text fill="#000000" font-family="sans-serif" font-size="14" lengthAdjust="spacing" textLength="325" x="27" y="367.8145">returnPossibleSplitsForNotAnnotated(double[]): int[]</text><rect fill="#F24D5C" height="6" style="stroke:#C82930;stroke-width:1.0;" width="6" x="15" y="378.1953"/><text fill="#000000" font-family="sans-serif" font-size="14" lengthAdjust="spacing" textLength="276" x="27" y="385.4238">getTrueLabels(Instance, int, int[]): boolean[]</text></g></a><!--MD5=[43ba56182bfb4eb2087e6ff5152dd96d]
class miml.data.partitioning.TrainTestBase--><a href="..\TrainTestBase.html" target="_top" title="..\TrainTestBase.html" xlink:actuate="onRequest" xlink:href="..\TrainTestBase.html" xlink:show="new" xlink:title="..\TrainTestBase.html" xlink:type="simple"><g id="elem_miml.data.partitioning.TrainTestBase"><rect codeLine="20" fill="#F1F1F1" height="65.7969" id="miml.data.partitioning.TrainTestBase" rx="2.5" ry="2.5" style="stroke:#181818;stroke-width:0.5;" width="246" x="110.5" y="7"/><ellipse cx="178.75" cy="27.0938" fill="#A9DCDF" rx="11" ry="11" style="stroke:#181818;stroke-width:1.0;"/><path d="M180.9375,28.8594 L176.7969,28.8594 L176.375,29.8906 L176.7969,29.8906 Q177.4063,29.8906 177.6719,30.125 Q177.9375,30.3594 177.9375,30.75 Q177.9375,31.125 177.6719,31.3594 Q177.4063,31.5938 176.7969,31.5938 L174.5,31.5938 Q173.8906,31.5938 173.6406,31.3594 Q173.375,31.125 173.375,30.7344 Q173.375,30.3594 173.6563,30.125 Q173.9219,29.875 174.5469,29.8906 L177.2188,23.2344 L176.1094,23.2344 Q175.5,23.2344 175.2344,23 Q174.9688,22.7656 174.9688,22.375 Q174.9688,22 175.2344,21.7656 Q175.5,21.5313 176.1094,21.5313 L179.7813,21.5313 L183.1719,29.8906 Q183.7656,29.8906 183.9531,30.0313 Q184.3438,30.2969 184.3438,30.75 Q184.3438,31.125 184.0781,31.3594 Q183.8281,31.5938 183.2188,31.5938 L180.9219,31.5938 Q180.3125,31.5938 180.0469,31.3594 Q179.7813,31.125 179.7813,30.7344 Q179.7813,30.3594 180.0469,30.125 Q180.3125,29.8906 180.9219,29.8906 L181.3438,29.8906 L180.9375,28.8594 Z M180.2188,27.1563 L178.8594,23.7813 L177.4844,27.1563 L180.2188,27.1563 Z " fill="#000000"/><text fill="#000000" font-family="sans-serif" font-size="14" font-style="italic" lengthAdjust="spacing" textLength="93" x="203.25" y="26.5332">TrainTestBase</text><text fill="#000000" font-family="sans-serif" font-size="10" font-style="italic" lengthAdjust="spacing" textLength="101" x="199.25" y="39.9902">miml.data.partitioning</text><line style="stroke:#181818;stroke-width:0.5;" x1="111.5" x2="355.5" y1="47.1875" y2="47.1875"/><ellipse cx="121.5" cy="61.4922" fill="#84BE84" rx="3" ry="3" style="stroke:#038048;stroke-width:1.0;"/><text fill="#000000" font-family="sans-serif" font-size="14" font-style="italic" lengthAdjust="spacing" textLength="220" x="130.5" y="65.7207">split(double): MultiLabelInstances[]</text></g></a><!--MD5=[5ae951807d237360e4559b93f7a42c9d]
reverse link miml.data.partitioning.TrainTestBase to miml.data.partitioning.iterative.IterativeTrainTest--><g id="link_miml.data.partitioning.TrainTestBase_miml.data.partitioning.iterative.IterativeTrainTest"><path codeLine="24" d="M233.5,93.39 C233.5,105.54 233.5,119 233.5,132.86 " fill="none" id="miml.data.partitioning.TrainTestBase-backto-miml.data.partitioning.iterative.IterativeTrainTest" style="stroke:#181818;stroke-width:1.0;"/><polygon fill="none" points="226.5,93.14,233.5,73.14,240.5,93.14,226.5,93.14" style="stroke:#181818;stroke-width:1.0;"/></g><rect fill="none" height="12.5781" style="stroke:none;stroke-width:1.0;" width="190" x="131.5" y="398.5"/><text fill="#888888" font-family="sans-serif" font-size="10" lengthAdjust="spacing" textLength="190" x="131.5" y="408.8809">UMLDoclet 2.0.20, PlantUML 1.2022.12</text><!--MD5=[67664596d7a705cc08355176cf5cdf18]
@startuml
    set namespaceSeparator none
    hide empty fields
    hide empty methods

    class "<size:14>IterativeTrainTest\n<size:10>miml.data.partitioning.iterative" as miml.data.partitioning.iterative.IterativeTrainTest [[IterativeTrainTest.html]] {
        +IterativeTrainTest(int, MultiLabelInstances)
        +IterativeTrainTest(MultiLabelInstances)
        +split(double): MultiLabelInstances[]
        -foldsCreation(Instances, Random, double[], int, int[], int): Instances[]
        -calculatingTheFrequencies(Instances, int, int[]): int[]
        -calculatingTheDesiredSplits(int[], double[], int, int): double[]
        -takingTheSmallestIndexAndNumberInVector(int[], int): int[]
        -takeTheInstancesOfTheLabel(Instances, int, int[], int[]): Instances[]
        -findThePossibleSpit(double[], int, int): int[]
        -updateDesiredSplitStatistics(double[], boolean[]): double[]
        -returnPossibleSplitsForNotAnnotated(double[]): int[]
        -getTrueLabels(Instance, int, int[]): boolean[]
    }

    abstract class "<size:14>TrainTestBase\n<size:10>miml.data.partitioning" as miml.data.partitioning.TrainTestBase [[..\TrainTestBase.html]] {
        {abstract} +split(double): MultiLabelInstances[]
    }

    miml.data.partitioning.TrainTestBase <|- - miml.data.partitioning.iterative.IterativeTrainTest

    center footer UMLDoclet 2.0.20, PlantUML 1.2022.12
@enduml

PlantUML version 1.2022.12(Sun Oct 23 20:12:26 CEST 2022)
(APACHE source distribution)
Java Runtime: OpenJDK Runtime Environment
JVM: OpenJDK 64-Bit Server VM
Default Encoding: Cp1252
Language: es
Country: ES
--></g></svg>