<?xml version="1.0" encoding="UTF-8" standalone="no"?><svg xmlns="http://www.w3.org/2000/svg" xmlns:xlink="http://www.w3.org/1999/xlink" contentStyleType="text/css" height="485px" preserveAspectRatio="none" style="width:866px;height:485px;background:#FFFFFF;" version="1.1" viewBox="0 0 866 485" width="866px" zoomAndPan="magnify"><defs/><g><!--MD5=[76df0340a4aff273cb21214854a77a88]
cluster miml.data.partitioning.iterative--><g id="cluster_miml.data.partitioning.iterative"><path d="M8.5,148 L223.5,148 A3.75,3.75 0 0 1 226,150.5 L233,171.6094 L856.5,171.6094 A2.5,2.5 0 0 1 859,174.1094 L859,456.5 A2.5,2.5 0 0 1 856.5,459 L8.5,459 A2.5,2.5 0 0 1 6,456.5 L6,150.5 A2.5,2.5 0 0 1 8.5,148 " fill="none" style="stroke:#000000;stroke-width:1.5;"/><line style="stroke:#000000;stroke-width:1.5;" x1="6" x2="233" y1="171.6094" y2="171.6094"/><text fill="#000000" font-family="sans-serif" font-size="14" font-weight="bold" lengthAdjust="spacing" textLength="214" x="10" y="164.5332">miml.data.partitioning.iterative</text></g><!--MD5=[b22b9bb5ba87fde4e12dd3e800aeb6ec]
cluster miml.data.partitioning--><g id="cluster_miml.data.partitioning"><path d="M185.5,6 L337.5,6 A3.75,3.75 0 0 1 340,8.5 L347,29.6094 L741.5,29.6094 A2.5,2.5 0 0 1 744,32.1094 L744,121.5 A2.5,2.5 0 0 1 741.5,124 L185.5,124 A2.5,2.5 0 0 1 183,121.5 L183,8.5 A2.5,2.5 0 0 1 185.5,6 " fill="none" style="stroke:#000000;stroke-width:1.5;"/><line style="stroke:#000000;stroke-width:1.5;" x1="183" x2="347" y1="29.6094" y2="29.6094"/><text fill="#000000" font-family="sans-serif" font-size="14" font-weight="bold" lengthAdjust="spacing" textLength="151" x="187" y="22.5332">miml.data.partitioning</text></g><!--MD5=[1fe84f10fab03350589ccd91e069f14b]
class miml.data.partitioning.iterative.IterativeCrossValidation--><a href="IterativeCrossValidation.html" target="_top" title="IterativeCrossValidation.html" xlink:actuate="onRequest" xlink:href="IterativeCrossValidation.html" xlink:show="new" xlink:title="IterativeCrossValidation.html" xlink:type="simple"><g id="elem_miml.data.partitioning.iterative.IterativeCrossValidation"><rect codeLine="3" fill="#F1F1F1" height="100.8281" id="miml.data.partitioning.iterative.IterativeCrossValidation" rx="2.5" ry="2.5" style="stroke:#181818;stroke-width:0.5;" width="332" x="511" y="263"/><ellipse cx="598.25" cy="279" fill="#ADD1B2" rx="11" ry="11" style="stroke:#181818;stroke-width:1.0;"/><path d="M601.0156,274.875 Q601.1719,274.6563 601.3594,274.5469 Q601.5469,274.4375 601.7656,274.4375 Q602.1406,274.4375 602.375,274.7031 Q602.6094,274.9531 602.6094,275.5625 L602.6094,277.0156 Q602.6094,277.625 602.375,277.8906 Q602.1406,278.1563 601.7656,278.1563 Q601.4219,278.1563 601.2188,277.9531 Q601.0156,277.7656 600.9063,277.25 Q600.8594,276.8906 600.6719,276.7031 Q600.3438,276.3281 599.7344,276.1094 Q599.125,275.8906 598.5,275.8906 Q597.7344,275.8906 597.0938,276.2188 Q596.4688,276.5469 595.9688,277.2969 Q595.4844,278.0469 595.4844,279.0781 L595.4844,280.1719 Q595.4844,281.4063 596.375,282.2344 Q597.2656,283.0469 598.8594,283.0469 Q599.7969,283.0469 600.4531,282.7969 Q600.8438,282.6406 601.2656,282.2031 Q601.5313,281.9375 601.6719,281.8594 Q601.8281,281.7813 602.0313,281.7813 Q602.3594,281.7813 602.6094,282.0469 Q602.875,282.2969 602.875,282.6406 Q602.875,282.9844 602.5313,283.3906 Q602.0313,283.9688 601.2344,284.2969 Q600.1563,284.75 598.8594,284.75 Q597.3438,284.75 596.1406,284.125 Q595.1563,283.625 594.4688,282.5625 Q593.7813,281.4844 593.7813,280.2031 L593.7813,279.0469 Q593.7813,277.7188 594.3906,276.5781 Q595.0156,275.4219 596.1094,274.8125 Q597.2031,274.1875 598.4375,274.1875 Q599.1719,274.1875 599.8125,274.3594 Q600.4688,274.5156 601.0156,274.875 Z " fill="#000000"/><text fill="#000000" font-family="sans-serif" font-size="14" lengthAdjust="spacing" textLength="149" x="618.75" y="284.7285">IterativeCrossValidation</text><line style="stroke:#181818;stroke-width:0.5;" x1="512" x2="842" y1="295" y2="295"/><line style="stroke:#181818;stroke-width:0.5;" x1="512" x2="842" y1="303" y2="303"/><ellipse cx="522" cy="317.3047" fill="#84BE84" rx="3" ry="3" style="stroke:#038048;stroke-width:1.0;"/><text fill="#000000" font-family="sans-serif" font-size="14" lengthAdjust="spacing" textLength="306" x="531" y="321.5332">IterativeCrossValidation(int, MultiLabelInstances)</text><ellipse cx="522" cy="334.9141" fill="#84BE84" rx="3" ry="3" style="stroke:#038048;stroke-width:1.0;"/><text fill="#000000" font-family="sans-serif" font-size="14" lengthAdjust="spacing" textLength="283" x="531" y="339.1426">IterativeCrossValidation(MultiLabelInstances)</text><ellipse cx="522" cy="352.5234" fill="#84BE84" rx="3" ry="3" style="stroke:#038048;stroke-width:1.0;"/><text fill="#000000" font-family="sans-serif" font-size="14" lengthAdjust="spacing" textLength="220" x="531" y="356.752">getFolds(int): MultiLabelInstances[]</text></g></a><!--MD5=[8463dd6b739312ac17607a6058f326c7]
class miml.data.partitioning.iterative.IterativeTrainTest--><a href="IterativeTrainTest.html" target="_top" title="IterativeTrainTest.html" xlink:actuate="onRequest" xlink:href="IterativeTrainTest.html" xlink:show="new" xlink:title="IterativeTrainTest.html" xlink:type="simple"><g id="elem_miml.data.partitioning.iterative.IterativeTrainTest"><rect codeLine="9" fill="#F1F1F1" height="259.3125" id="miml.data.partitioning.iterative.IterativeTrainTest" rx="2.5" ry="2.5" style="stroke:#181818;stroke-width:0.5;" width="453" x="22.5" y="184"/><ellipse cx="189.25" cy="200" fill="#ADD1B2" rx="11" ry="11" style="stroke:#181818;stroke-width:1.0;"/><path d="M192.0156,195.875 Q192.1719,195.6563 192.3594,195.5469 Q192.5469,195.4375 192.7656,195.4375 Q193.1406,195.4375 193.375,195.7031 Q193.6094,195.9531 193.6094,196.5625 L193.6094,198.0156 Q193.6094,198.625 193.375,198.8906 Q193.1406,199.1563 192.7656,199.1563 Q192.4219,199.1563 192.2188,198.9531 Q192.0156,198.7656 191.9063,198.25 Q191.8594,197.8906 191.6719,197.7031 Q191.3438,197.3281 190.7344,197.1094 Q190.125,196.8906 189.5,196.8906 Q188.7344,196.8906 188.0938,197.2188 Q187.4688,197.5469 186.9688,198.2969 Q186.4844,199.0469 186.4844,200.0781 L186.4844,201.1719 Q186.4844,202.4063 187.375,203.2344 Q188.2656,204.0469 189.8594,204.0469 Q190.7969,204.0469 191.4531,203.7969 Q191.8438,203.6406 192.2656,203.2031 Q192.5313,202.9375 192.6719,202.8594 Q192.8281,202.7813 193.0313,202.7813 Q193.3594,202.7813 193.6094,203.0469 Q193.875,203.2969 193.875,203.6406 Q193.875,203.9844 193.5313,204.3906 Q193.0313,204.9688 192.2344,205.2969 Q191.1563,205.75 189.8594,205.75 Q188.3438,205.75 187.1406,205.125 Q186.1563,204.625 185.4688,203.5625 Q184.7813,202.4844 184.7813,201.2031 L184.7813,200.0469 Q184.7813,198.7188 185.3906,197.5781 Q186.0156,196.4219 187.1094,195.8125 Q188.2031,195.1875 189.4375,195.1875 Q190.1719,195.1875 190.8125,195.3594 Q191.4688,195.5156 192.0156,195.875 Z " fill="#000000"/><text fill="#000000" font-family="sans-serif" font-size="14" lengthAdjust="spacing" textLength="111" x="209.75" y="205.7285">IterativeTrainTest</text><line style="stroke:#181818;stroke-width:0.5;" x1="23.5" x2="474.5" y1="216" y2="216"/><line style="stroke:#181818;stroke-width:0.5;" x1="23.5" x2="474.5" y1="224" y2="224"/><ellipse cx="33.5" cy="238.3047" fill="#84BE84" rx="3" ry="3" style="stroke:#038048;stroke-width:1.0;"/><text fill="#000000" font-family="sans-serif" font-size="14" lengthAdjust="spacing" textLength="268" x="42.5" y="242.5332">IterativeTrainTest(int, MultiLabelInstances)</text><ellipse cx="33.5" cy="255.9141" fill="#84BE84" rx="3" ry="3" style="stroke:#038048;stroke-width:1.0;"/><text fill="#000000" font-family="sans-serif" font-size="14" lengthAdjust="spacing" textLength="245" x="42.5" y="260.1426">IterativeTrainTest(MultiLabelInstances)</text><ellipse cx="33.5" cy="273.5234" fill="#84BE84" rx="3" ry="3" style="stroke:#038048;stroke-width:1.0;"/><text fill="#000000" font-family="sans-serif" font-size="14" lengthAdjust="spacing" textLength="218" x="42.5" y="277.752">split(double): MultiLabelInstances[]</text><rect fill="#F24D5C" height="6" style="stroke:#C82930;stroke-width:1.0;" width="6" x="30.5" y="288.1328"/><text fill="#000000" font-family="sans-serif" font-size="14" lengthAdjust="spacing" textLength="427" x="42.5" y="295.3613">foldsCreation(Instances, Random, double[], int, int[], int): Instances[]</text><rect fill="#F24D5C" height="6" style="stroke:#C82930;stroke-width:1.0;" width="6" x="30.5" y="305.7422"/><text fill="#000000" font-family="sans-serif" font-size="14" lengthAdjust="spacing" textLength="326" x="42.5" y="312.9707">calculatingTheFrequencies(Instances, int, int[]): int[]</text><rect fill="#F24D5C" height="6" style="stroke:#C82930;stroke-width:1.0;" width="6" x="30.5" y="323.3516"/><text fill="#000000" font-family="sans-serif" font-size="14" lengthAdjust="spacing" textLength="372" x="42.5" y="330.5801">calculatingTheDesiredSplits(int[], double[], int, int): double[]</text><rect fill="#F24D5C" height="6" style="stroke:#C82930;stroke-width:1.0;" width="6" x="30.5" y="340.9609"/><text fill="#000000" font-family="sans-serif" font-size="14" lengthAdjust="spacing" textLength="362" x="42.5" y="348.1895">takingTheSmallestIndexAndNumberInVector(int[], int): int[]</text><rect fill="#F24D5C" height="6" style="stroke:#C82930;stroke-width:1.0;" width="6" x="30.5" y="358.5703"/><text fill="#000000" font-family="sans-serif" font-size="14" lengthAdjust="spacing" textLength="418" x="42.5" y="365.7988">takeTheInstancesOfTheLabel(Instances, int, int[], int[]): Instances[]</text><rect fill="#F24D5C" height="6" style="stroke:#C82930;stroke-width:1.0;" width="6" x="30.5" y="376.1797"/><text fill="#000000" font-family="sans-serif" font-size="14" lengthAdjust="spacing" textLength="263" x="42.5" y="383.4082">findThePossibleSpit(double[], int, int): int[]</text><rect fill="#F24D5C" height="6" style="stroke:#C82930;stroke-width:1.0;" width="6" x="30.5" y="393.7891"/><text fill="#000000" font-family="sans-serif" font-size="14" lengthAdjust="spacing" textLength="363" x="42.5" y="401.0176">updateDesiredSplitStatistics(double[], boolean[]): double[]</text><rect fill="#F24D5C" height="6" style="stroke:#C82930;stroke-width:1.0;" width="6" x="30.5" y="411.3984"/><text fill="#000000" font-family="sans-serif" font-size="14" lengthAdjust="spacing" textLength="325" x="42.5" y="418.627">returnPossibleSplitsForNotAnnotated(double[]): int[]</text><rect fill="#F24D5C" height="6" style="stroke:#C82930;stroke-width:1.0;" width="6" x="30.5" y="429.0078"/><text fill="#000000" font-family="sans-serif" font-size="14" lengthAdjust="spacing" textLength="276" x="42.5" y="436.2363">getTrueLabels(Instance, int, int[]): boolean[]</text></g></a><!--MD5=[7ac158596541117d11edcffba96f82c4]
class miml.data.partitioning.CrossValidationBase--><a href="..\CrossValidationBase.html" target="_top" title="..\CrossValidationBase.html" xlink:actuate="onRequest" xlink:href="..\CrossValidationBase.html" xlink:show="new" xlink:title="..\CrossValidationBase.html" xlink:type="simple"><g id="elem_miml.data.partitioning.CrossValidationBase"><rect codeLine="29" fill="#F1F1F1" height="65.6094" id="miml.data.partitioning.CrossValidationBase" rx="2.5" ry="2.5" style="stroke:#181818;stroke-width:0.5;" width="248" x="480" y="42"/><ellipse cx="534.25" cy="58" fill="#A9DCDF" rx="11" ry="11" style="stroke:#181818;stroke-width:1.0;"/><path d="M536.4375,59.7656 L532.2969,59.7656 L531.875,60.7969 L532.2969,60.7969 Q532.9063,60.7969 533.1719,61.0313 Q533.4375,61.2656 533.4375,61.6563 Q533.4375,62.0313 533.1719,62.2656 Q532.9063,62.5 532.2969,62.5 L530,62.5 Q529.3906,62.5 529.1406,62.2656 Q528.875,62.0313 528.875,61.6406 Q528.875,61.2656 529.1563,61.0313 Q529.4219,60.7813 530.0469,60.7969 L532.7188,54.1406 L531.6094,54.1406 Q531,54.1406 530.7344,53.9063 Q530.4688,53.6719 530.4688,53.2813 Q530.4688,52.9063 530.7344,52.6719 Q531,52.4375 531.6094,52.4375 L535.2813,52.4375 L538.6719,60.7969 Q539.2656,60.7969 539.4531,60.9375 Q539.8438,61.2031 539.8438,61.6563 Q539.8438,62.0313 539.5781,62.2656 Q539.3281,62.5 538.7188,62.5 L536.4219,62.5 Q535.8125,62.5 535.5469,62.2656 Q535.2813,62.0313 535.2813,61.6406 Q535.2813,61.2656 535.5469,61.0313 Q535.8125,60.7969 536.4219,60.7969 L536.8438,60.7969 L536.4375,59.7656 Z M535.7188,58.0625 L534.3594,54.6875 L532.9844,58.0625 L535.7188,58.0625 Z " fill="#000000"/><text fill="#000000" font-family="sans-serif" font-size="14" font-style="italic" lengthAdjust="spacing" textLength="131" x="554.75" y="63.7285">CrossValidationBase</text><line style="stroke:#181818;stroke-width:0.5;" x1="481" x2="727" y1="74" y2="74"/><line style="stroke:#181818;stroke-width:0.5;" x1="481" x2="727" y1="82" y2="82"/><ellipse cx="491" cy="96.3047" fill="#84BE84" rx="3" ry="3" style="stroke:#038048;stroke-width:1.0;"/><text fill="#000000" font-family="sans-serif" font-size="14" font-style="italic" lengthAdjust="spacing" textLength="222" x="500" y="100.5332">getFolds(int): MultiLabelInstances[]</text></g></a><!--MD5=[43ba56182bfb4eb2087e6ff5152dd96d]
class miml.data.partitioning.TrainTestBase--><a href="..\TrainTestBase.html" target="_top" title="..\TrainTestBase.html" xlink:actuate="onRequest" xlink:href="..\TrainTestBase.html" xlink:show="new" xlink:title="..\TrainTestBase.html" xlink:type="simple"><g id="elem_miml.data.partitioning.TrainTestBase"><rect codeLine="32" fill="#F1F1F1" height="65.6094" id="miml.data.partitioning.TrainTestBase" rx="2.5" ry="2.5" style="stroke:#181818;stroke-width:0.5;" width="246" x="199" y="42"/><ellipse cx="271.25" cy="58" fill="#A9DCDF" rx="11" ry="11" style="stroke:#181818;stroke-width:1.0;"/><path d="M273.4375,59.7656 L269.2969,59.7656 L268.875,60.7969 L269.2969,60.7969 Q269.9063,60.7969 270.1719,61.0313 Q270.4375,61.2656 270.4375,61.6563 Q270.4375,62.0313 270.1719,62.2656 Q269.9063,62.5 269.2969,62.5 L267,62.5 Q266.3906,62.5 266.1406,62.2656 Q265.875,62.0313 265.875,61.6406 Q265.875,61.2656 266.1563,61.0313 Q266.4219,60.7813 267.0469,60.7969 L269.7188,54.1406 L268.6094,54.1406 Q268,54.1406 267.7344,53.9063 Q267.4688,53.6719 267.4688,53.2813 Q267.4688,52.9063 267.7344,52.6719 Q268,52.4375 268.6094,52.4375 L272.2813,52.4375 L275.6719,60.7969 Q276.2656,60.7969 276.4531,60.9375 Q276.8438,61.2031 276.8438,61.6563 Q276.8438,62.0313 276.5781,62.2656 Q276.3281,62.5 275.7188,62.5 L273.4219,62.5 Q272.8125,62.5 272.5469,62.2656 Q272.2813,62.0313 272.2813,61.6406 Q272.2813,61.2656 272.5469,61.0313 Q272.8125,60.7969 273.4219,60.7969 L273.8438,60.7969 L273.4375,59.7656 Z M272.7188,58.0625 L271.3594,54.6875 L269.9844,58.0625 L272.7188,58.0625 Z " fill="#000000"/><text fill="#000000" font-family="sans-serif" font-size="14" font-style="italic" lengthAdjust="spacing" textLength="93" x="291.75" y="63.7285">TrainTestBase</text><line style="stroke:#181818;stroke-width:0.5;" x1="200" x2="444" y1="74" y2="74"/><line style="stroke:#181818;stroke-width:0.5;" x1="200" x2="444" y1="82" y2="82"/><ellipse cx="210" cy="96.3047" fill="#84BE84" rx="3" ry="3" style="stroke:#038048;stroke-width:1.0;"/><text fill="#000000" font-family="sans-serif" font-size="14" font-style="italic" lengthAdjust="spacing" textLength="220" x="219" y="100.5332">split(double): MultiLabelInstances[]</text></g></a><!--MD5=[ae98b2b5d5e36d95b97a205eccd7ed5d]
reverse link miml.data.partitioning.CrossValidationBase to miml.data.partitioning.iterative.IterativeCrossValidation--><g id="link_miml.data.partitioning.CrossValidationBase_miml.data.partitioning.iterative.IterativeCrossValidation"><path codeLine="24" d="M619.92,127.56 C632.31,167.72 649.41,223.12 661.66,262.8 " fill="none" id="miml.data.partitioning.CrossValidationBase-backto-miml.data.partitioning.iterative.IterativeCrossValidation" style="stroke:#181818;stroke-width:1.0;"/><polygon fill="none" points="613.21,129.56,614,108.39,626.58,125.43,613.21,129.56" style="stroke:#181818;stroke-width:1.0;"/></g><!--MD5=[5ae951807d237360e4559b93f7a42c9d]
reverse link miml.data.partitioning.TrainTestBase to miml.data.partitioning.iterative.IterativeTrainTest--><g id="link_miml.data.partitioning.TrainTestBase_miml.data.partitioning.iterative.IterativeTrainTest"><path codeLine="25" d="M306.02,127.76 C300.83,144.57 294.83,164.04 288.69,183.9 " fill="none" id="miml.data.partitioning.TrainTestBase-backto-miml.data.partitioning.iterative.IterativeTrainTest" style="stroke:#181818;stroke-width:1.0;"/><polygon fill="none" points="299.42,125.43,312,108.39,312.79,129.56,299.42,125.43" style="stroke:#181818;stroke-width:1.0;"/></g><rect fill="none" height="12.5781" style="stroke:none;stroke-width:1.0;" width="190" x="331" y="465"/><text fill="#888888" font-family="sans-serif" font-size="10" lengthAdjust="spacing" textLength="190" x="331" y="475.3809">UMLDoclet 2.0.20, PlantUML 1.2022.12</text><!--MD5=[e52288032dc9d5bce1a940461a88826b]
@startuml
    namespace miml.data.partitioning.iterative {

        class IterativeCrossValidation [[IterativeCrossValidation.html]] {
            +IterativeCrossValidation(int, MultiLabelInstances)
            +IterativeCrossValidation(MultiLabelInstances)
            +getFolds(int): MultiLabelInstances[]
        }

        class IterativeTrainTest [[IterativeTrainTest.html]] {
            +IterativeTrainTest(int, MultiLabelInstances)
            +IterativeTrainTest(MultiLabelInstances)
            +split(double): MultiLabelInstances[]
            -foldsCreation(Instances, Random, double[], int, int[], int): Instances[]
            -calculatingTheFrequencies(Instances, int, int[]): int[]
            -calculatingTheDesiredSplits(int[], double[], int, int): double[]
            -takingTheSmallestIndexAndNumberInVector(int[], int): int[]
            -takeTheInstancesOfTheLabel(Instances, int, int[], int[]): Instances[]
            -findThePossibleSpit(double[], int, int): int[]
            -updateDesiredSplitStatistics(double[], boolean[]): double[]
            -returnPossibleSplitsForNotAnnotated(double[]): int[]
            -getTrueLabels(Instance, int, int[]): boolean[]
        }

        miml.data.partitioning.CrossValidationBase <|- - IterativeCrossValidation
        miml.data.partitioning.TrainTestBase <|- - IterativeTrainTest
    }

    namespace miml.data.partitioning {
        abstract class CrossValidationBase [[..\CrossValidationBase.html]] {
            {abstract} +getFolds(int): MultiLabelInstances[]
        }
        abstract class TrainTestBase [[..\TrainTestBase.html]] {
            {abstract} +split(double): MultiLabelInstances[]
        }
    }

    center footer UMLDoclet 2.0.20, PlantUML 1.2022.12
@enduml

PlantUML version 1.2022.12(Sun Oct 23 20:12:26 CEST 2022)
(APACHE source distribution)
Java Runtime: OpenJDK Runtime Environment
JVM: OpenJDK 64-Bit Server VM
Default Encoding: Cp1252
Language: es
Country: ES
--></g></svg>