<?xml version="1.0" encoding="UTF-8" standalone="no"?><svg xmlns="http://www.w3.org/2000/svg" xmlns:xlink="http://www.w3.org/1999/xlink" contentStyleType="text/css" height="761px" preserveAspectRatio="none" style="width:560px;height:761px;background:#FFFFFF;" version="1.1" viewBox="0 0 560 761" width="560px" zoomAndPan="magnify"><defs/><g><!--MD5=[e28ae87a3730b73d2f128b983e87d082]
class miml.classifiers.miml.optimization.MIMLWel--><a href="MIMLWel.html" target="_top" title="MIMLWel.html" xlink:actuate="onRequest" xlink:href="MIMLWel.html" xlink:show="new" xlink:title="MIMLWel.html" xlink:type="simple"><g id="elem_miml.classifiers.miml.optimization.MIMLWel"><rect codeLine="5" fill="#F1F1F1" height="566.8594" id="miml.classifiers.miml.optimization.MIMLWel" rx="2.5" ry="2.5" style="stroke:#181818;stroke-width:0.5;" width="534" x="14" y="168"/><ellipse cx="196.25" cy="188.0938" fill="#ADD1B2" rx="11" ry="11" style="stroke:#181818;stroke-width:1.0;"/><path d="M199.0156,183.9688 Q199.1719,183.75 199.3594,183.6406 Q199.5469,183.5313 199.7656,183.5313 Q200.1406,183.5313 200.375,183.7969 Q200.6094,184.0469 200.6094,184.6563 L200.6094,186.1094 Q200.6094,186.7188 200.375,186.9844 Q200.1406,187.25 199.7656,187.25 Q199.4219,187.25 199.2188,187.0469 Q199.0156,186.8594 198.9063,186.3438 Q198.8594,185.9844 198.6719,185.7969 Q198.3438,185.4219 197.7344,185.2031 Q197.125,184.9844 196.5,184.9844 Q195.7344,184.9844 195.0938,185.3125 Q194.4688,185.6406 193.9688,186.3906 Q193.4844,187.1406 193.4844,188.1719 L193.4844,189.2656 Q193.4844,190.5 194.375,191.3281 Q195.2656,192.1406 196.8594,192.1406 Q197.7969,192.1406 198.4531,191.8906 Q198.8438,191.7344 199.2656,191.2969 Q199.5313,191.0313 199.6719,190.9531 Q199.8281,190.875 200.0313,190.875 Q200.3594,190.875 200.6094,191.1406 Q200.875,191.3906 200.875,191.7344 Q200.875,192.0781 200.5313,192.4844 Q200.0313,193.0625 199.2344,193.3906 Q198.1563,193.8438 196.8594,193.8438 Q195.3438,193.8438 194.1406,193.2188 Q193.1563,192.7188 192.4688,191.6563 Q191.7813,190.5781 191.7813,189.2969 L191.7813,188.1406 Q191.7813,186.8125 192.3906,185.6719 Q193.0156,184.5156 194.1094,183.9063 Q195.2031,183.2813 196.4375,183.2813 Q197.1719,183.2813 197.8125,183.4531 Q198.4688,183.6094 199.0156,183.9688 Z " fill="#000000"/><text fill="#000000" font-family="sans-serif" font-size="14" lengthAdjust="spacing" textLength="57" x="268.75" y="187.5332">MIMLWel</text><text fill="#000000" font-family="sans-serif" font-size="10" lengthAdjust="spacing" textLength="161" x="216.75" y="200.9902">miml.classifiers.miml.optimization</text><line style="stroke:#181818;stroke-width:0.5;" x1="15" x2="547" y1="208.1875" y2="208.1875"/><rect fill="none" height="6" style="stroke:#C82930;stroke-width:1.0;" width="6" x="22" y="219.4922"/><text fill="#000000" font-family="sans-serif" font-size="14" lengthAdjust="spacing" text-decoration="underline" textLength="139" x="34" y="226.7207">serialVersionUID: long</text><polygon fill="none" points="25,236.1016,21,242.1016,29,242.1016" style="stroke:#1963A0;stroke-width:1.0;"/><text fill="#000000" font-family="sans-serif" font-size="14" lengthAdjust="spacing" textLength="137" x="34" y="244.3301">mimlwel: MWMIMLWel</text><polygon fill="none" points="25,253.7109,21,259.7109,29,259.7109" style="stroke:#1963A0;stroke-width:1.0;"/><text fill="#000000" font-family="sans-serif" font-size="14" lengthAdjust="spacing" textLength="96" x="34" y="261.9395">opts_C: double</text><polygon fill="none" points="25,271.3203,21,277.3203,29,277.3203" style="stroke:#1963A0;stroke-width:1.0;"/><text fill="#000000" font-family="sans-serif" font-size="14" lengthAdjust="spacing" textLength="97" x="34" y="279.5488">opts_m: double</text><polygon fill="none" points="25,288.9297,21,294.9297,29,294.9297" style="stroke:#1963A0;stroke-width:1.0;"/><text fill="#000000" font-family="sans-serif" font-size="14" lengthAdjust="spacing" textLength="114" x="34" y="297.1582">opts_beta: double</text><polygon fill="none" points="25,306.5391,21,312.5391,29,312.5391" style="stroke:#1963A0;stroke-width:1.0;"/><text fill="#000000" font-family="sans-serif" font-size="14" lengthAdjust="spacing" textLength="137" x="34" y="314.7676">opts_iteration: double</text><polygon fill="none" points="25,324.1484,21,330.1484,29,330.1484" style="stroke:#1963A0;stroke-width:1.0;"/><text fill="#000000" font-family="sans-serif" font-size="14" lengthAdjust="spacing" textLength="131" x="34" y="332.377">opts_epsilon: double</text><polygon fill="none" points="25,341.7578,21,347.7578,29,347.7578" style="stroke:#1963A0;stroke-width:1.0;"/><text fill="#000000" font-family="sans-serif" font-size="14" lengthAdjust="spacing" textLength="79" x="34" y="349.9863">ratio: double</text><polygon fill="none" points="25,359.3672,21,365.3672,29,365.3672" style="stroke:#1963A0;stroke-width:1.0;"/><text fill="#000000" font-family="sans-serif" font-size="14" lengthAdjust="spacing" textLength="70" x="34" y="367.5957">mu: double</text><line style="stroke:#181818;stroke-width:0.5;" x1="15" x2="547" y1="374.6719" y2="374.6719"/><ellipse cx="25" cy="388.9766" fill="#84BE84" rx="3" ry="3" style="stroke:#038048;stroke-width:1.0;"/><text fill="#000000" font-family="sans-serif" font-size="14" lengthAdjust="spacing" textLength="67" x="34" y="393.2051">MIMLWel()</text><ellipse cx="25" cy="406.5859" fill="#84BE84" rx="3" ry="3" style="stroke:#038048;stroke-width:1.0;"/><text fill="#000000" font-family="sans-serif" font-size="14" lengthAdjust="spacing" textLength="416" x="34" y="410.8145">MIMLWel(double, double, double, double, double, double, double)</text><ellipse cx="25" cy="424.1953" fill="#84BE84" rx="3" ry="3" style="stroke:#038048;stroke-width:1.0;"/><text fill="#000000" font-family="sans-serif" font-size="14" lengthAdjust="spacing" textLength="93" x="34" y="428.4238">dispose(): void</text><ellipse cx="25" cy="441.8047" fill="#84BE84" rx="3" ry="3" style="stroke:#038048;stroke-width:1.0;"/><text fill="#000000" font-family="sans-serif" font-size="14" lengthAdjust="spacing" textLength="188" x="34" y="446.0332">configure(Configuration): void</text><polygon fill="#FFFF44" points="25,454.4141,29,458.4141,25,462.4141,21,458.4141" style="stroke:#B38D22;stroke-width:1.0;"/><text fill="#000000" font-family="sans-serif" font-size="14" lengthAdjust="spacing" textLength="353" x="34" y="463.6426">trainMWClassifier(MWCellArray, MWNumericArray): void</text><polygon fill="#FFFF44" points="25,472.0234,29,476.0234,25,480.0234,21,476.0234" style="stroke:#B38D22;stroke-width:1.0;"/><text fill="#000000" font-family="sans-serif" font-size="14" lengthAdjust="spacing" textLength="508" x="34" y="481.252">predictMWClassifier(MWCellArray, MWNumericArray, MWNumericArray): Object[]</text><ellipse cx="25" cy="494.6328" fill="#84BE84" rx="3" ry="3" style="stroke:#038048;stroke-width:1.0;"/><text fill="#000000" font-family="sans-serif" font-size="14" lengthAdjust="spacing" textLength="129" x="34" y="498.8613">getOpts_C(): double</text><ellipse cx="25" cy="512.2422" fill="#84BE84" rx="3" ry="3" style="stroke:#038048;stroke-width:1.0;"/><text fill="#000000" font-family="sans-serif" font-size="14" lengthAdjust="spacing" textLength="126" x="34" y="516.4707">setOpts_C(int): void</text><ellipse cx="25" cy="529.8516" fill="#84BE84" rx="3" ry="3" style="stroke:#038048;stroke-width:1.0;"/><text fill="#000000" font-family="sans-serif" font-size="14" lengthAdjust="spacing" textLength="130" x="34" y="534.0801">getOpts_m(): double</text><ellipse cx="25" cy="547.4609" fill="#84BE84" rx="3" ry="3" style="stroke:#038048;stroke-width:1.0;"/><text fill="#000000" font-family="sans-serif" font-size="14" lengthAdjust="spacing" textLength="155" x="34" y="551.6895">setOpts_m(double): void</text><ellipse cx="25" cy="565.0703" fill="#84BE84" rx="3" ry="3" style="stroke:#038048;stroke-width:1.0;"/><text fill="#000000" font-family="sans-serif" font-size="14" lengthAdjust="spacing" textLength="147" x="34" y="569.2988">getOpts_beta(): double</text><ellipse cx="25" cy="582.6797" fill="#84BE84" rx="3" ry="3" style="stroke:#038048;stroke-width:1.0;"/><text fill="#000000" font-family="sans-serif" font-size="14" lengthAdjust="spacing" textLength="172" x="34" y="586.9082">setOpts_beta(double): void</text><ellipse cx="25" cy="600.2891" fill="#84BE84" rx="3" ry="3" style="stroke:#038048;stroke-width:1.0;"/><text fill="#000000" font-family="sans-serif" font-size="14" lengthAdjust="spacing" textLength="170" x="34" y="604.5176">getOpts_iteration(): double</text><ellipse cx="25" cy="617.8984" fill="#84BE84" rx="3" ry="3" style="stroke:#038048;stroke-width:1.0;"/><text fill="#000000" font-family="sans-serif" font-size="14" lengthAdjust="spacing" textLength="167" x="34" y="622.127">setOpts_iteration(int): void</text><ellipse cx="25" cy="635.5078" fill="#84BE84" rx="3" ry="3" style="stroke:#038048;stroke-width:1.0;"/><text fill="#000000" font-family="sans-serif" font-size="14" lengthAdjust="spacing" textLength="164" x="34" y="639.7363">getOpts_epsilon(): double</text><ellipse cx="25" cy="653.1172" fill="#84BE84" rx="3" ry="3" style="stroke:#038048;stroke-width:1.0;"/><text fill="#000000" font-family="sans-serif" font-size="14" lengthAdjust="spacing" textLength="189" x="34" y="657.3457">setOpts_epsilon(double): void</text><ellipse cx="25" cy="670.7266" fill="#84BE84" rx="3" ry="3" style="stroke:#038048;stroke-width:1.0;"/><text fill="#000000" font-family="sans-serif" font-size="14" lengthAdjust="spacing" textLength="114" x="34" y="674.9551">getRatio(): double</text><ellipse cx="25" cy="688.3359" fill="#84BE84" rx="3" ry="3" style="stroke:#038048;stroke-width:1.0;"/><text fill="#000000" font-family="sans-serif" font-size="14" lengthAdjust="spacing" textLength="139" x="34" y="692.5645">setRatio(double): void</text><ellipse cx="25" cy="705.9453" fill="#84BE84" rx="3" ry="3" style="stroke:#038048;stroke-width:1.0;"/><text fill="#000000" font-family="sans-serif" font-size="14" lengthAdjust="spacing" textLength="100" x="34" y="710.1738">getMu(): double</text><ellipse cx="25" cy="723.5547" fill="#84BE84" rx="3" ry="3" style="stroke:#038048;stroke-width:1.0;"/><text fill="#000000" font-family="sans-serif" font-size="14" lengthAdjust="spacing" textLength="125" x="34" y="727.7832">setMu(double): void</text></g></a><!--MD5=[a73d7e6ec4fa7ef9a44f222a19844101]
class miml.classifiers.miml.MWClassifier--><a href="..\MWClassifier.html" target="_top" title="..\MWClassifier.html" xlink:actuate="onRequest" xlink:href="..\MWClassifier.html" xlink:show="new" xlink:title="..\MWClassifier.html" xlink:type="simple"><g id="elem_miml.classifiers.miml.MWClassifier"><rect codeLine="37" fill="#F1F1F1" height="101.0156" id="miml.classifiers.miml.MWClassifier" rx="2.5" ry="2.5" style="stroke:#181818;stroke-width:0.5;" width="544" x="9" y="7"/><ellipse cx="230.25" cy="27.0938" fill="#A9DCDF" rx="11" ry="11" style="stroke:#181818;stroke-width:1.0;"/><path d="M232.4375,28.8594 L228.2969,28.8594 L227.875,29.8906 L228.2969,29.8906 Q228.9063,29.8906 229.1719,30.125 Q229.4375,30.3594 229.4375,30.75 Q229.4375,31.125 229.1719,31.3594 Q228.9063,31.5938 228.2969,31.5938 L226,31.5938 Q225.3906,31.5938 225.1406,31.3594 Q224.875,31.125 224.875,30.7344 Q224.875,30.3594 225.1563,30.125 Q225.4219,29.875 226.0469,29.8906 L228.7188,23.2344 L227.6094,23.2344 Q227,23.2344 226.7344,23 Q226.4688,22.7656 226.4688,22.375 Q226.4688,22 226.7344,21.7656 Q227,21.5313 227.6094,21.5313 L231.2813,21.5313 L234.6719,29.8906 Q235.2656,29.8906 235.4531,30.0313 Q235.8438,30.2969 235.8438,30.75 Q235.8438,31.125 235.5781,31.3594 Q235.3281,31.5938 234.7188,31.5938 L232.4219,31.5938 Q231.8125,31.5938 231.5469,31.3594 Q231.2813,31.125 231.2813,30.7344 Q231.2813,30.3594 231.5469,30.125 Q231.8125,29.8906 232.4219,29.8906 L232.8438,29.8906 L232.4375,28.8594 Z M231.7188,27.1563 L230.3594,23.7813 L228.9844,27.1563 L231.7188,27.1563 Z " fill="#000000"/><text fill="#000000" font-family="sans-serif" font-size="14" font-style="italic" lengthAdjust="spacing" textLength="84" x="255.25" y="26.5332">MWClassifier</text><text fill="#000000" font-family="sans-serif" font-size="10" font-style="italic" lengthAdjust="spacing" textLength="93" x="250.75" y="39.9902">miml.classifiers.miml</text><line style="stroke:#181818;stroke-width:0.5;" x1="10" x2="552" y1="47.1875" y2="47.1875"/><polygon fill="#FFFF44" points="20,56.4922,24,60.4922,20,64.4922,16,60.4922" style="stroke:#B38D22;stroke-width:1.0;"/><text fill="#000000" font-family="sans-serif" font-size="14" font-style="italic" lengthAdjust="spacing" textLength="359" x="29" y="65.7207">trainMWClassifier(MWCellArray, MWNumericArray): void</text><polygon fill="#FFFF44" points="20,74.1016,24,78.1016,20,82.1016,16,78.1016" style="stroke:#B38D22;stroke-width:1.0;"/><text fill="#000000" font-family="sans-serif" font-size="14" font-style="italic" lengthAdjust="spacing" textLength="518" x="29" y="83.3301">predictMWClassifier(MWCellArray, MWNumericArray, MWNumericArray): Object[]</text><ellipse cx="20" cy="96.7109" fill="#84BE84" rx="3" ry="3" style="stroke:#038048;stroke-width:1.0;"/><text fill="#000000" font-family="sans-serif" font-size="14" font-style="italic" lengthAdjust="spacing" textLength="92" x="29" y="100.9395">dispose(): void</text></g></a><!--MD5=[6601cb33846a60d247ed8bc6df3c33b3]
reverse link miml.classifiers.miml.MWClassifier to miml.classifiers.miml.optimization.MIMLWel--><g id="link_miml.classifiers.miml.MWClassifier_miml.classifiers.miml.optimization.MIMLWel"><path codeLine="43" d="M281,128.17 C281,140.38 281,153.73 281,167.83 " fill="none" id="miml.classifiers.miml.MWClassifier-backto-miml.classifiers.miml.optimization.MIMLWel" style="stroke:#181818;stroke-width:1.0;"/><polygon fill="none" points="274,128.15,281,108.15,288,128.15,274,128.15" style="stroke:#181818;stroke-width:1.0;"/></g><rect fill="none" height="12.5781" style="stroke:none;stroke-width:1.0;" width="190" x="178" y="740.8594"/><text fill="#888888" font-family="sans-serif" font-size="10" lengthAdjust="spacing" textLength="190" x="178" y="751.2402">UMLDoclet 2.0.20, PlantUML 1.2022.12</text><!--MD5=[4e0c7dd8cc3d804b2efc798b0e9ad192]
@startuml
    set namespaceSeparator none
    hide empty fields
    hide empty methods

    class "<size:14>MIMLWel\n<size:10>miml.classifiers.miml.optimization" as miml.classifiers.miml.optimization.MIMLWel [[MIMLWel.html]] {
        {static} -serialVersionUID: long
        ~mimlwel: MWMIMLWel
        ~opts_C: double
        ~opts_m: double
        ~opts_beta: double
        ~opts_iteration: double
        ~opts_epsilon: double
        ~ratio: double
        ~mu: double
        +MIMLWel()
        +MIMLWel(double, double, double, double, double, double, double)
        +dispose(): void
        +configure(Configuration): void
        #trainMWClassifier(MWCellArray, MWNumericArray): void
        #predictMWClassifier(MWCellArray, MWNumericArray, MWNumericArray): Object[]
        +getOpts_C(): double
        +setOpts_C(int): void
        +getOpts_m(): double
        +setOpts_m(double): void
        +getOpts_beta(): double
        +setOpts_beta(double): void
        +getOpts_iteration(): double
        +setOpts_iteration(int): void
        +getOpts_epsilon(): double
        +setOpts_epsilon(double): void
        +getRatio(): double
        +setRatio(double): void
        +getMu(): double
        +setMu(double): void
    }

    abstract class "<size:14>MWClassifier\n<size:10>miml.classifiers.miml" as miml.classifiers.miml.MWClassifier [[..\MWClassifier.html]] {
        {abstract} #trainMWClassifier(MWCellArray, MWNumericArray): void
        {abstract} #predictMWClassifier(MWCellArray, MWNumericArray, MWNumericArray): Object[]
        {abstract} +dispose(): void
    }

    miml.classifiers.miml.MWClassifier <|- - miml.classifiers.miml.optimization.MIMLWel

    center footer UMLDoclet 2.0.20, PlantUML 1.2022.12
@enduml

PlantUML version 1.2022.12(Sun Oct 23 20:12:26 CEST 2022)
(APACHE source distribution)
Java Runtime: OpenJDK Runtime Environment
JVM: OpenJDK 64-Bit Server VM
Default Encoding: Cp1252
Language: es
Country: ES
--></g></svg>