<?xml version="1.0" encoding="UTF-8" standalone="no"?><svg xmlns="http://www.w3.org/2000/svg" xmlns:xlink="http://www.w3.org/1999/xlink" contentStyleType="text/css" height="374px" preserveAspectRatio="none" style="width:390px;height:374px;background:#FFFFFF;" version="1.1" viewBox="0 0 390 374" width="390px" zoomAndPan="magnify"><defs/><g><!--MD5=[a3dfc91b10b4cf679628fbc7b4378a43]
class miml.transformation.mimlTOml.ArithmeticTransformation--><a href="ArithmeticTransformation.html" target="_top" title="ArithmeticTransformation.html" xlink:actuate="onRequest" xlink:href="ArithmeticTransformation.html" xlink:show="new" xlink:title="ArithmeticTransformation.html" xlink:type="simple"><g id="elem_miml.transformation.mimlTOml.ArithmeticTransformation"><rect codeLine="5" fill="#F1F1F1" height="179.4531" id="miml.transformation.mimlTOml.ArithmeticTransformation" rx="2.5" ry="2.5" style="stroke:#181818;stroke-width:0.5;" width="370" x="10" y="168"/><ellipse cx="111.75" cy="188.0938" fill="#ADD1B2" rx="11" ry="11" style="stroke:#181818;stroke-width:1.0;"/><path d="M114.5156,183.9688 Q114.6719,183.75 114.8594,183.6406 Q115.0469,183.5313 115.2656,183.5313 Q115.6406,183.5313 115.875,183.7969 Q116.1094,184.0469 116.1094,184.6563 L116.1094,186.1094 Q116.1094,186.7188 115.875,186.9844 Q115.6406,187.25 115.2656,187.25 Q114.9219,187.25 114.7188,187.0469 Q114.5156,186.8594 114.4063,186.3438 Q114.3594,185.9844 114.1719,185.7969 Q113.8438,185.4219 113.2344,185.2031 Q112.625,184.9844 112,184.9844 Q111.2344,184.9844 110.5938,185.3125 Q109.9688,185.6406 109.4688,186.3906 Q108.9844,187.1406 108.9844,188.1719 L108.9844,189.2656 Q108.9844,190.5 109.875,191.3281 Q110.7656,192.1406 112.3594,192.1406 Q113.2969,192.1406 113.9531,191.8906 Q114.3438,191.7344 114.7656,191.2969 Q115.0313,191.0313 115.1719,190.9531 Q115.3281,190.875 115.5313,190.875 Q115.8594,190.875 116.1094,191.1406 Q116.375,191.3906 116.375,191.7344 Q116.375,192.0781 116.0313,192.4844 Q115.5313,193.0625 114.7344,193.3906 Q113.6563,193.8438 112.3594,193.8438 Q110.8438,193.8438 109.6406,193.2188 Q108.6563,192.7188 107.9688,191.6563 Q107.2813,190.5781 107.2813,189.2969 L107.2813,188.1406 Q107.2813,186.8125 107.8906,185.6719 Q108.5156,184.5156 109.6094,183.9063 Q110.7031,183.2813 111.9375,183.2813 Q112.6719,183.2813 113.3125,183.4531 Q113.9688,183.6094 114.5156,183.9688 Z " fill="#000000"/><text fill="#000000" font-family="sans-serif" font-size="14" lengthAdjust="spacing" textLength="158" x="132.25" y="187.5332">ArithmeticTransformation</text><text fill="#000000" font-family="sans-serif" font-size="10" lengthAdjust="spacing" textLength="148" x="137.25" y="200.9902">miml.transformation.mimlTOml</text><line style="stroke:#181818;stroke-width:0.5;" x1="11" x2="379" y1="208.1875" y2="208.1875"/><rect fill="none" height="6" style="stroke:#C82930;stroke-width:1.0;" width="6" x="18" y="219.4922"/><text fill="#000000" font-family="sans-serif" font-size="14" lengthAdjust="spacing" text-decoration="underline" textLength="139" x="30" y="226.7207">serialVersionUID: long</text><line style="stroke:#181818;stroke-width:0.5;" x1="11" x2="379" y1="233.7969" y2="233.7969"/><ellipse cx="21" cy="248.1016" fill="#84BE84" rx="3" ry="3" style="stroke:#038048;stroke-width:1.0;"/><text fill="#000000" font-family="sans-serif" font-size="14" lengthAdjust="spacing" textLength="261" x="30" y="252.3301">ArithmeticTransformation(MIMLInstances)</text><ellipse cx="21" cy="265.7109" fill="#84BE84" rx="3" ry="3" style="stroke:#038048;stroke-width:1.0;"/><text fill="#000000" font-family="sans-serif" font-size="14" lengthAdjust="spacing" textLength="168" x="30" y="269.9395">ArithmeticTransformation()</text><ellipse cx="21" cy="283.3203" fill="#84BE84" rx="3" ry="3" style="stroke:#038048;stroke-width:1.0;"/><text fill="#000000" font-family="sans-serif" font-size="14" lengthAdjust="spacing" textLength="251" x="30" y="287.5488">transformDataset(): MultiLabelInstances</text><ellipse cx="21" cy="300.9297" fill="#84BE84" rx="3" ry="3" style="stroke:#038048;stroke-width:1.0;"/><text fill="#000000" font-family="sans-serif" font-size="14" lengthAdjust="spacing" textLength="344" x="30" y="305.1582">transformDataset(MIMLInstances): MultiLabelInstances</text><ellipse cx="21" cy="318.5391" fill="#84BE84" rx="3" ry="3" style="stroke:#038048;stroke-width:1.0;"/><text fill="#000000" font-family="sans-serif" font-size="14" lengthAdjust="spacing" textLength="242" x="30" y="322.7676">transformInstance(MIMLBag): Instance</text><ellipse cx="21" cy="336.1484" fill="#84BE84" rx="3" ry="3" style="stroke:#038048;stroke-width:1.0;"/><text fill="#000000" font-family="sans-serif" font-size="14" lengthAdjust="spacing" textLength="343" x="30" y="340.377">transformInstance(MIMLInstances, MIMLBag): Instance</text></g></a><!--MD5=[b457f2829008811bc0d0d287b1ce3abc]
class miml.transformation.mimlTOml.MIMLtoML--><a href="MIMLtoML.html" target="_top" title="MIMLtoML.html" xlink:actuate="onRequest" xlink:href="MIMLtoML.html" xlink:show="new" xlink:title="MIMLtoML.html" xlink:type="simple"><g id="elem_miml.transformation.mimlTOml.MIMLtoML"><rect codeLine="15" fill="#F1F1F1" height="101.0156" id="miml.transformation.mimlTOml.MIMLtoML" rx="2.5" ry="2.5" style="stroke:#181818;stroke-width:0.5;" width="376" x="7" y="7"/><ellipse cx="122.75" cy="27.0938" fill="#A9DCDF" rx="11" ry="11" style="stroke:#181818;stroke-width:1.0;"/><path d="M124.9375,28.8594 L120.7969,28.8594 L120.375,29.8906 L120.7969,29.8906 Q121.4063,29.8906 121.6719,30.125 Q121.9375,30.3594 121.9375,30.75 Q121.9375,31.125 121.6719,31.3594 Q121.4063,31.5938 120.7969,31.5938 L118.5,31.5938 Q117.8906,31.5938 117.6406,31.3594 Q117.375,31.125 117.375,30.7344 Q117.375,30.3594 117.6563,30.125 Q117.9219,29.875 118.5469,29.8906 L121.2188,23.2344 L120.1094,23.2344 Q119.5,23.2344 119.2344,23 Q118.9688,22.7656 118.9688,22.375 Q118.9688,22 119.2344,21.7656 Q119.5,21.5313 120.1094,21.5313 L123.7813,21.5313 L127.1719,29.8906 Q127.7656,29.8906 127.9531,30.0313 Q128.3438,30.2969 128.3438,30.75 Q128.3438,31.125 128.0781,31.3594 Q127.8281,31.5938 127.2188,31.5938 L124.9219,31.5938 Q124.3125,31.5938 124.0469,31.3594 Q123.7813,31.125 123.7813,30.7344 Q123.7813,30.3594 124.0469,30.125 Q124.3125,29.8906 124.9219,29.8906 L125.3438,29.8906 L124.9375,28.8594 Z M124.2188,27.1563 L122.8594,23.7813 L121.4844,27.1563 L124.2188,27.1563 Z " fill="#000000"/><text fill="#000000" font-family="sans-serif" font-size="14" font-style="italic" lengthAdjust="spacing" textLength="68" x="177.25" y="26.5332">MIMLtoML</text><text fill="#000000" font-family="sans-serif" font-size="10" font-style="italic" lengthAdjust="spacing" textLength="136" x="143.25" y="39.9902">miml.transformation.mimlTOml</text><line style="stroke:#181818;stroke-width:0.5;" x1="8" x2="382" y1="47.1875" y2="47.1875"/><ellipse cx="18" cy="61.4922" fill="#84BE84" rx="3" ry="3" style="stroke:#038048;stroke-width:1.0;"/><text fill="#000000" font-family="sans-serif" font-size="14" font-style="italic" lengthAdjust="spacing" textLength="253" x="27" y="65.7207">transformDataset(): MultiLabelInstances</text><ellipse cx="18" cy="79.1016" fill="#84BE84" rx="3" ry="3" style="stroke:#038048;stroke-width:1.0;"/><text fill="#000000" font-family="sans-serif" font-size="14" font-style="italic" lengthAdjust="spacing" textLength="350" x="27" y="83.3301">transformDataset(MIMLInstances): MultiLabelInstances</text><ellipse cx="18" cy="96.7109" fill="#84BE84" rx="3" ry="3" style="stroke:#038048;stroke-width:1.0;"/><text fill="#000000" font-family="sans-serif" font-size="14" font-style="italic" lengthAdjust="spacing" textLength="247" x="27" y="100.9395">transformInstance(MIMLBag): Instance</text></g></a><!--MD5=[c3cb79a06062a91e44f6ce19933a144e]
reverse link miml.transformation.mimlTOml.MIMLtoML to miml.transformation.mimlTOml.ArithmeticTransformation--><g id="link_miml.transformation.mimlTOml.MIMLtoML_miml.transformation.mimlTOml.ArithmeticTransformation"><path codeLine="21" d="M195,128.24 C195,141.04 195,154.55 195,167.81 " fill="none" id="miml.transformation.mimlTOml.MIMLtoML-backto-miml.transformation.mimlTOml.ArithmeticTransformation" style="stroke:#181818;stroke-width:1.0;"/><polygon fill="none" points="188,128.21,195,108.21,202,128.21,188,128.21" style="stroke:#181818;stroke-width:1.0;"/></g><rect fill="none" height="12.5781" style="stroke:none;stroke-width:1.0;" width="190" x="93" y="353.4531"/><text fill="#888888" font-family="sans-serif" font-size="10" lengthAdjust="spacing" textLength="190" x="93" y="363.834">UMLDoclet 2.0.20, PlantUML 1.2022.12</text><!--MD5=[d166daf16a0696a2f61f2b25fdd3ed3f]
@startuml
    set namespaceSeparator none
    hide empty fields
    hide empty methods

    class "<size:14>ArithmeticTransformation\n<size:10>miml.transformation.mimlTOml" as miml.transformation.mimlTOml.ArithmeticTransformation [[ArithmeticTransformation.html]] {
        {static} -serialVersionUID: long
        +ArithmeticTransformation(MIMLInstances)
        +ArithmeticTransformation()
        +transformDataset(): MultiLabelInstances
        +transformDataset(MIMLInstances): MultiLabelInstances
        +transformInstance(MIMLBag): Instance
        +transformInstance(MIMLInstances, MIMLBag): Instance
    }

    abstract class "<size:14>MIMLtoML\n<size:10>miml.transformation.mimlTOml" as miml.transformation.mimlTOml.MIMLtoML [[MIMLtoML.html]] {
        {abstract} +transformDataset(): MultiLabelInstances
        {abstract} +transformDataset(MIMLInstances): MultiLabelInstances
        {abstract} +transformInstance(MIMLBag): Instance
    }

    miml.transformation.mimlTOml.MIMLtoML <|- - miml.transformation.mimlTOml.ArithmeticTransformation

    center footer UMLDoclet 2.0.20, PlantUML 1.2022.12
@enduml

PlantUML version 1.2022.12(Sun Oct 23 20:12:26 CEST 2022)
(APACHE source distribution)
Java Runtime: OpenJDK Runtime Environment
JVM: OpenJDK 64-Bit Server VM
Default Encoding: Cp1252
Language: es
Country: ES
--></g></svg>