<?xml version="1.0" encoding="UTF-8" standalone="no"?><svg xmlns="http://www.w3.org/2000/svg" xmlns:xlink="http://www.w3.org/1999/xlink" contentStyleType="text/css" height="348px" preserveAspectRatio="none" style="width:392px;height:348px;background:#FFFFFF;" version="1.1" viewBox="0 0 392 348" width="392px" zoomAndPan="magnify"><defs/><g><!--MD5=[b457f2829008811bc0d0d287b1ce3abc]
class miml.transformation.mimlTOml.MIMLtoML--><a href="MIMLtoML.html" target="_top" title="MIMLtoML.html" xlink:actuate="onRequest" xlink:href="MIMLtoML.html" xlink:show="new" xlink:title="MIMLtoML.html" xlink:type="simple"><g id="elem_miml.transformation.mimlTOml.MIMLtoML"><rect codeLine="5" fill="#F1F1F1" height="214.6719" id="miml.transformation.mimlTOml.MIMLtoML" rx="2.5" ry="2.5" style="stroke:#181818;stroke-width:0.5;" width="376" x="9" y="107"/><ellipse cx="124.75" cy="127.0938" fill="#A9DCDF" rx="11" ry="11" style="stroke:#181818;stroke-width:1.0;"/><path d="M126.9375,128.8594 L122.7969,128.8594 L122.375,129.8906 L122.7969,129.8906 Q123.4063,129.8906 123.6719,130.125 Q123.9375,130.3594 123.9375,130.75 Q123.9375,131.125 123.6719,131.3594 Q123.4063,131.5938 122.7969,131.5938 L120.5,131.5938 Q119.8906,131.5938 119.6406,131.3594 Q119.375,131.125 119.375,130.7344 Q119.375,130.3594 119.6563,130.125 Q119.9219,129.875 120.5469,129.8906 L123.2188,123.2344 L122.1094,123.2344 Q121.5,123.2344 121.2344,123 Q120.9688,122.7656 120.9688,122.375 Q120.9688,122 121.2344,121.7656 Q121.5,121.5313 122.1094,121.5313 L125.7813,121.5313 L129.1719,129.8906 Q129.7656,129.8906 129.9531,130.0313 Q130.3438,130.2969 130.3438,130.75 Q130.3438,131.125 130.0781,131.3594 Q129.8281,131.5938 129.2188,131.5938 L126.9219,131.5938 Q126.3125,131.5938 126.0469,131.3594 Q125.7813,131.125 125.7813,130.7344 Q125.7813,130.3594 126.0469,130.125 Q126.3125,129.8906 126.9219,129.8906 L127.3438,129.8906 L126.9375,128.8594 Z M126.2188,127.1563 L124.8594,123.7813 L123.4844,127.1563 L126.2188,127.1563 Z " fill="#000000"/><text fill="#000000" font-family="sans-serif" font-size="14" font-style="italic" lengthAdjust="spacing" textLength="68" x="179.25" y="126.5332">MIMLtoML</text><text fill="#000000" font-family="sans-serif" font-size="10" font-style="italic" lengthAdjust="spacing" textLength="136" x="145.25" y="139.9902">miml.transformation.mimlTOml</text><line style="stroke:#181818;stroke-width:0.5;" x1="10" x2="384" y1="147.1875" y2="147.1875"/><rect fill="none" height="6" style="stroke:#C82930;stroke-width:1.0;" width="6" x="17" y="158.4922"/><text fill="#000000" font-family="sans-serif" font-size="14" lengthAdjust="spacing" text-decoration="underline" textLength="139" x="29" y="165.7207">serialVersionUID: long</text><polygon fill="none" points="20,174.1016,24,178.1016,20,182.1016,16,178.1016" style="stroke:#B38D22;stroke-width:1.0;"/><text fill="#000000" font-family="sans-serif" font-size="14" lengthAdjust="spacing" textLength="162" x="29" y="183.3301">updatedLabelIndices: int[]</text><polygon fill="none" points="20,191.7109,24,195.7109,20,199.7109,16,195.7109" style="stroke:#B38D22;stroke-width:1.0;"/><text fill="#000000" font-family="sans-serif" font-size="14" lengthAdjust="spacing" textLength="122" x="29" y="200.9395">template: Instances</text><polygon fill="none" points="20,209.3203,24,213.3203,20,217.3203,16,213.3203" style="stroke:#B38D22;stroke-width:1.0;"/><text fill="#000000" font-family="sans-serif" font-size="14" lengthAdjust="spacing" textLength="148" x="29" y="218.5488">dataset: MIMLInstances</text><line style="stroke:#181818;stroke-width:0.5;" x1="10" x2="384" y1="225.625" y2="225.625"/><ellipse cx="20" cy="239.9297" fill="#84BE84" rx="3" ry="3" style="stroke:#038048;stroke-width:1.0;"/><text fill="#000000" font-family="sans-serif" font-size="14" font-style="italic" lengthAdjust="spacing" textLength="253" x="29" y="244.1582">transformDataset(): MultiLabelInstances</text><ellipse cx="20" cy="257.5391" fill="#84BE84" rx="3" ry="3" style="stroke:#038048;stroke-width:1.0;"/><text fill="#000000" font-family="sans-serif" font-size="14" font-style="italic" lengthAdjust="spacing" textLength="350" x="29" y="261.7676">transformDataset(MIMLInstances): MultiLabelInstances</text><ellipse cx="20" cy="275.1484" fill="#84BE84" rx="3" ry="3" style="stroke:#038048;stroke-width:1.0;"/><text fill="#000000" font-family="sans-serif" font-size="14" font-style="italic" lengthAdjust="spacing" textLength="247" x="29" y="279.377">transformInstance(MIMLBag): Instance</text><polygon fill="#FFFF44" points="20,287.7578,24,291.7578,20,295.7578,16,291.7578" style="stroke:#B38D22;stroke-width:1.0;"/><text fill="#000000" font-family="sans-serif" font-size="14" lengthAdjust="spacing" textLength="153" x="29" y="296.9863">prepareTemplate(): void</text><ellipse cx="20" cy="310.3672" fill="#84BE84" rx="3" ry="3" style="stroke:#038048;stroke-width:1.0;"/><text fill="#000000" font-family="sans-serif" font-size="14" lengthAdjust="spacing" text-decoration="underline" textLength="202" x="29" y="314.5957">minimax(Instances, int): double[]</text></g></a><!--MD5=[5a5af9b0547913863cbe0ddf55a9ab5e]
class java.io.Serializable--><g id="elem_java.io.Serializable"><rect codeLine="17" fill="#F1F1F1" height="40.1875" id="java.io.Serializable" rx="2.5" ry="2.5" style="stroke:#181818;stroke-width:0.5;" width="105" x="144.5" y="7"/><ellipse cx="159.5" cy="27.0938" fill="#B4A7E5" rx="11" ry="11" style="stroke:#181818;stroke-width:1.0;"/><path d="M160.4531,23.7344 L160.4531,30.3906 L162.1719,30.3906 Q162.7813,30.3906 163.0469,30.625 Q163.3125,30.8594 163.3125,31.25 Q163.3125,31.625 163.0469,31.8594 Q162.7813,32.0938 162.1719,32.0938 L157.0313,32.0938 Q156.4219,32.0938 156.1563,31.8594 Q155.8906,31.625 155.8906,31.2344 Q155.8906,30.8594 156.1563,30.625 Q156.4219,30.3906 157.0313,30.3906 L158.75,30.3906 L158.75,23.7344 L157.0313,23.7344 Q156.4219,23.7344 156.1563,23.5 Q155.8906,23.2656 155.8906,22.875 Q155.8906,22.5 156.1563,22.2656 Q156.4219,22.0313 157.0313,22.0313 L162.1719,22.0313 Q162.7813,22.0313 163.0469,22.2656 Q163.3125,22.5 163.3125,22.875 Q163.3125,23.2656 163.0469,23.5 Q162.7813,23.7344 162.1719,23.7344 L160.4531,23.7344 Z " fill="#000000"/><text fill="#000000" font-family="sans-serif" font-size="14" font-style="italic" lengthAdjust="spacing" textLength="73" x="173.5" y="26.5332">Serializable</text><text fill="#000000" font-family="sans-serif" font-size="10" font-style="italic" lengthAdjust="spacing" textLength="31" x="194.5" y="39.9902">java.io</text></g><!--MD5=[b410397ceb91ad01ecdf963b45a6f010]
reverse link java.io.Serializable to miml.transformation.mimlTOml.MIMLtoML--><g id="link_java.io.Serializable_miml.transformation.mimlTOml.MIMLtoML"><path codeLine="19" d="M197,67.36 C197,79.17 197,92.74 197,106.74 " fill="none" id="java.io.Serializable-backto-miml.transformation.mimlTOml.MIMLtoML" style="stroke:#181818;stroke-width:1.0;stroke-dasharray:7.0,7.0;"/><polygon fill="none" points="190,67.15,197,47.15,204,67.15,190,67.15" style="stroke:#181818;stroke-width:1.0;"/></g><rect fill="none" height="12.5781" style="stroke:none;stroke-width:1.0;" width="190" x="94" y="327.6719"/><text fill="#888888" font-family="sans-serif" font-size="10" lengthAdjust="spacing" textLength="190" x="94" y="338.0527">UMLDoclet 2.0.20, PlantUML 1.2022.12</text><!--MD5=[14f05fed5aeab6a19da4408070b76673]
@startuml
    set namespaceSeparator none
    hide empty fields
    hide empty methods

    abstract class "<size:14>MIMLtoML\n<size:10>miml.transformation.mimlTOml" as miml.transformation.mimlTOml.MIMLtoML [[MIMLtoML.html]] {
        {static} -serialVersionUID: long
        #updatedLabelIndices: int[]
        #template: Instances
        #dataset: MIMLInstances
        {abstract} +transformDataset(): MultiLabelInstances
        {abstract} +transformDataset(MIMLInstances): MultiLabelInstances
        {abstract} +transformInstance(MIMLBag): Instance
        #prepareTemplate(): void
        {static} +minimax(Instances, int): double[]
    }

    interface "<size:14>Serializable\n<size:10>java.io" as java.io.Serializable

    java.io.Serializable <|.. miml.transformation.mimlTOml.MIMLtoML

    center footer UMLDoclet 2.0.20, PlantUML 1.2022.12
@enduml

PlantUML version 1.2022.12(Sun Oct 23 20:12:26 CEST 2022)
(APACHE source distribution)
Java Runtime: OpenJDK Runtime Environment
JVM: OpenJDK 64-Bit Server VM
Default Encoding: Cp1252
Language: es
Country: ES
--></g></svg>