<?xml version="1.0" encoding="UTF-8" standalone="no"?><svg xmlns="http://www.w3.org/2000/svg" xmlns:xlink="http://www.w3.org/1999/xlink" contentStyleType="text/css" height="391px" preserveAspectRatio="none" style="width:390px;height:391px;background:#FFFFFF;" version="1.1" viewBox="0 0 390 391" width="390px" zoomAndPan="magnify"><defs/><g><!--MD5=[5ecf15778d6b88244a46d942b3e3ef71]
class miml.transformation.mimlTOml.MinMaxTransformation--><a href="MinMaxTransformation.html" target="_top" title="MinMaxTransformation.html" xlink:actuate="onRequest" xlink:href="MinMaxTransformation.html" xlink:show="new" xlink:title="MinMaxTransformation.html" xlink:type="simple"><g id="elem_miml.transformation.mimlTOml.MinMaxTransformation"><rect codeLine="5" fill="#F1F1F1" height="197.0625" id="miml.transformation.mimlTOml.MinMaxTransformation" rx="2.5" ry="2.5" style="stroke:#181818;stroke-width:0.5;" width="370" x="10" y="168"/><ellipse cx="116.75" cy="188.0938" fill="#ADD1B2" rx="11" ry="11" style="stroke:#181818;stroke-width:1.0;"/><path d="M119.5156,183.9688 Q119.6719,183.75 119.8594,183.6406 Q120.0469,183.5313 120.2656,183.5313 Q120.6406,183.5313 120.875,183.7969 Q121.1094,184.0469 121.1094,184.6563 L121.1094,186.1094 Q121.1094,186.7188 120.875,186.9844 Q120.6406,187.25 120.2656,187.25 Q119.9219,187.25 119.7188,187.0469 Q119.5156,186.8594 119.4063,186.3438 Q119.3594,185.9844 119.1719,185.7969 Q118.8438,185.4219 118.2344,185.2031 Q117.625,184.9844 117,184.9844 Q116.2344,184.9844 115.5938,185.3125 Q114.9688,185.6406 114.4688,186.3906 Q113.9844,187.1406 113.9844,188.1719 L113.9844,189.2656 Q113.9844,190.5 114.875,191.3281 Q115.7656,192.1406 117.3594,192.1406 Q118.2969,192.1406 118.9531,191.8906 Q119.3438,191.7344 119.7656,191.2969 Q120.0313,191.0313 120.1719,190.9531 Q120.3281,190.875 120.5313,190.875 Q120.8594,190.875 121.1094,191.1406 Q121.375,191.3906 121.375,191.7344 Q121.375,192.0781 121.0313,192.4844 Q120.5313,193.0625 119.7344,193.3906 Q118.6563,193.8438 117.3594,193.8438 Q115.8438,193.8438 114.6406,193.2188 Q113.6563,192.7188 112.9688,191.6563 Q112.2813,190.5781 112.2813,189.2969 L112.2813,188.1406 Q112.2813,186.8125 112.8906,185.6719 Q113.5156,184.5156 114.6094,183.9063 Q115.7031,183.2813 116.9375,183.2813 Q117.6719,183.2813 118.3125,183.4531 Q118.9688,183.6094 119.5156,183.9688 Z " fill="#000000"/><text fill="#000000" font-family="sans-serif" font-size="14" lengthAdjust="spacing" textLength="143" x="139.75" y="187.5332">MinMaxTransformation</text><text fill="#000000" font-family="sans-serif" font-size="10" lengthAdjust="spacing" textLength="148" x="137.25" y="200.9902">miml.transformation.mimlTOml</text><line style="stroke:#181818;stroke-width:0.5;" x1="11" x2="379" y1="208.1875" y2="208.1875"/><rect fill="none" height="6" style="stroke:#C82930;stroke-width:1.0;" width="6" x="18" y="219.4922"/><text fill="#000000" font-family="sans-serif" font-size="14" lengthAdjust="spacing" text-decoration="underline" textLength="139" x="30" y="226.7207">serialVersionUID: long</text><line style="stroke:#181818;stroke-width:0.5;" x1="11" x2="379" y1="233.7969" y2="233.7969"/><ellipse cx="21" cy="248.1016" fill="#84BE84" rx="3" ry="3" style="stroke:#038048;stroke-width:1.0;"/><text fill="#000000" font-family="sans-serif" font-size="14" lengthAdjust="spacing" textLength="246" x="30" y="252.3301">MinMaxTransformation(MIMLInstances)</text><ellipse cx="21" cy="265.7109" fill="#84BE84" rx="3" ry="3" style="stroke:#038048;stroke-width:1.0;"/><text fill="#000000" font-family="sans-serif" font-size="14" lengthAdjust="spacing" textLength="153" x="30" y="269.9395">MinMaxTransformation()</text><ellipse cx="21" cy="283.3203" fill="#84BE84" rx="3" ry="3" style="stroke:#038048;stroke-width:1.0;"/><text fill="#000000" font-family="sans-serif" font-size="14" lengthAdjust="spacing" textLength="251" x="30" y="287.5488">transformDataset(): MultiLabelInstances</text><ellipse cx="21" cy="300.9297" fill="#84BE84" rx="3" ry="3" style="stroke:#038048;stroke-width:1.0;"/><text fill="#000000" font-family="sans-serif" font-size="14" lengthAdjust="spacing" textLength="344" x="30" y="305.1582">transformDataset(MIMLInstances): MultiLabelInstances</text><ellipse cx="21" cy="318.5391" fill="#84BE84" rx="3" ry="3" style="stroke:#038048;stroke-width:1.0;"/><text fill="#000000" font-family="sans-serif" font-size="14" lengthAdjust="spacing" textLength="242" x="30" y="322.7676">transformInstance(MIMLBag): Instance</text><ellipse cx="21" cy="336.1484" fill="#84BE84" rx="3" ry="3" style="stroke:#038048;stroke-width:1.0;"/><text fill="#000000" font-family="sans-serif" font-size="14" lengthAdjust="spacing" textLength="343" x="30" y="340.377">transformInstance(MIMLInstances, MIMLBag): Instance</text><polygon fill="#FFFF44" points="21,348.7578,25,352.7578,21,356.7578,17,352.7578" style="stroke:#B38D22;stroke-width:1.0;"/><text fill="#000000" font-family="sans-serif" font-size="14" lengthAdjust="spacing" textLength="153" x="30" y="357.9863">prepareTemplate(): void</text></g></a><!--MD5=[b457f2829008811bc0d0d287b1ce3abc]
class miml.transformation.mimlTOml.MIMLtoML--><a href="MIMLtoML.html" target="_top" title="MIMLtoML.html" xlink:actuate="onRequest" xlink:href="MIMLtoML.html" xlink:show="new" xlink:title="MIMLtoML.html" xlink:type="simple"><g id="elem_miml.transformation.mimlTOml.MIMLtoML"><rect codeLine="16" fill="#F1F1F1" height="101.0156" id="miml.transformation.mimlTOml.MIMLtoML" rx="2.5" ry="2.5" style="stroke:#181818;stroke-width:0.5;" width="376" x="7" y="7"/><ellipse cx="122.75" cy="27.0938" fill="#A9DCDF" rx="11" ry="11" style="stroke:#181818;stroke-width:1.0;"/><path d="M124.9375,28.8594 L120.7969,28.8594 L120.375,29.8906 L120.7969,29.8906 Q121.4063,29.8906 121.6719,30.125 Q121.9375,30.3594 121.9375,30.75 Q121.9375,31.125 121.6719,31.3594 Q121.4063,31.5938 120.7969,31.5938 L118.5,31.5938 Q117.8906,31.5938 117.6406,31.3594 Q117.375,31.125 117.375,30.7344 Q117.375,30.3594 117.6563,30.125 Q117.9219,29.875 118.5469,29.8906 L121.2188,23.2344 L120.1094,23.2344 Q119.5,23.2344 119.2344,23 Q118.9688,22.7656 118.9688,22.375 Q118.9688,22 119.2344,21.7656 Q119.5,21.5313 120.1094,21.5313 L123.7813,21.5313 L127.1719,29.8906 Q127.7656,29.8906 127.9531,30.0313 Q128.3438,30.2969 128.3438,30.75 Q128.3438,31.125 128.0781,31.3594 Q127.8281,31.5938 127.2188,31.5938 L124.9219,31.5938 Q124.3125,31.5938 124.0469,31.3594 Q123.7813,31.125 123.7813,30.7344 Q123.7813,30.3594 124.0469,30.125 Q124.3125,29.8906 124.9219,29.8906 L125.3438,29.8906 L124.9375,28.8594 Z M124.2188,27.1563 L122.8594,23.7813 L121.4844,27.1563 L124.2188,27.1563 Z " fill="#000000"/><text fill="#000000" font-family="sans-serif" font-size="14" font-style="italic" lengthAdjust="spacing" textLength="68" x="177.25" y="26.5332">MIMLtoML</text><text fill="#000000" font-family="sans-serif" font-size="10" font-style="italic" lengthAdjust="spacing" textLength="136" x="143.25" y="39.9902">miml.transformation.mimlTOml</text><line style="stroke:#181818;stroke-width:0.5;" x1="8" x2="382" y1="47.1875" y2="47.1875"/><ellipse cx="18" cy="61.4922" fill="#84BE84" rx="3" ry="3" style="stroke:#038048;stroke-width:1.0;"/><text fill="#000000" font-family="sans-serif" font-size="14" font-style="italic" lengthAdjust="spacing" textLength="253" x="27" y="65.7207">transformDataset(): MultiLabelInstances</text><ellipse cx="18" cy="79.1016" fill="#84BE84" rx="3" ry="3" style="stroke:#038048;stroke-width:1.0;"/><text fill="#000000" font-family="sans-serif" font-size="14" font-style="italic" lengthAdjust="spacing" textLength="350" x="27" y="83.3301">transformDataset(MIMLInstances): MultiLabelInstances</text><ellipse cx="18" cy="96.7109" fill="#84BE84" rx="3" ry="3" style="stroke:#038048;stroke-width:1.0;"/><text fill="#000000" font-family="sans-serif" font-size="14" font-style="italic" lengthAdjust="spacing" textLength="247" x="27" y="100.9395">transformInstance(MIMLBag): Instance</text></g></a><!--MD5=[ae8dcb446e1d9f376cbc98cb47b2a81a]
reverse link miml.transformation.mimlTOml.MIMLtoML to miml.transformation.mimlTOml.MinMaxTransformation--><g id="link_miml.transformation.mimlTOml.MIMLtoML_miml.transformation.mimlTOml.MinMaxTransformation"><path codeLine="22" d="M195,128.43 C195,141.03 195,154.38 195,167.6 " fill="none" id="miml.transformation.mimlTOml.MIMLtoML-backto-miml.transformation.mimlTOml.MinMaxTransformation" style="stroke:#181818;stroke-width:1.0;"/><polygon fill="none" points="188,128.08,195,108.08,202,128.08,188,128.08" style="stroke:#181818;stroke-width:1.0;"/></g><rect fill="none" height="12.5781" style="stroke:none;stroke-width:1.0;" width="190" x="93" y="371.0625"/><text fill="#888888" font-family="sans-serif" font-size="10" lengthAdjust="spacing" textLength="190" x="93" y="381.4434">UMLDoclet 2.0.20, PlantUML 1.2022.12</text><!--MD5=[a789095138401cde9279a11b539ff997]
@startuml
    set namespaceSeparator none
    hide empty fields
    hide empty methods

    class "<size:14>MinMaxTransformation\n<size:10>miml.transformation.mimlTOml" as miml.transformation.mimlTOml.MinMaxTransformation [[MinMaxTransformation.html]] {
        {static} -serialVersionUID: long
        +MinMaxTransformation(MIMLInstances)
        +MinMaxTransformation()
        +transformDataset(): MultiLabelInstances
        +transformDataset(MIMLInstances): MultiLabelInstances
        +transformInstance(MIMLBag): Instance
        +transformInstance(MIMLInstances, MIMLBag): Instance
        #prepareTemplate(): void
    }

    abstract class "<size:14>MIMLtoML\n<size:10>miml.transformation.mimlTOml" as miml.transformation.mimlTOml.MIMLtoML [[MIMLtoML.html]] {
        {abstract} +transformDataset(): MultiLabelInstances
        {abstract} +transformDataset(MIMLInstances): MultiLabelInstances
        {abstract} +transformInstance(MIMLBag): Instance
    }

    miml.transformation.mimlTOml.MIMLtoML <|- - miml.transformation.mimlTOml.MinMaxTransformation

    center footer UMLDoclet 2.0.20, PlantUML 1.2022.12
@enduml

PlantUML version 1.2022.12(Sun Oct 23 20:12:26 CEST 2022)
(APACHE source distribution)
Java Runtime: OpenJDK Runtime Environment
JVM: OpenJDK 64-Bit Server VM
Default Encoding: Cp1252
Language: es
Country: ES
--></g></svg>