<?xml version="1.0" encoding="UTF-8" standalone="no"?><svg xmlns="http://www.w3.org/2000/svg" xmlns:xlink="http://www.w3.org/1999/xlink" contentStyleType="text/css" height="769px" preserveAspectRatio="none" style="width:1225px;height:769px;background:#FFFFFF;" version="1.1" viewBox="0 0 1225 769" width="1225px" zoomAndPan="magnify"><defs/><g><!--MD5=[451fd6de40601321f410e0a5c79ac5e5]
cluster miml.transformation.mimlTOml--><g id="cluster_miml.transformation.mimlTOml"><path d="M8.5,130 L219.5,130 A3.75,3.75 0 0 1 222,132.5 L229,153.6094 L1215.5,153.6094 A2.5,2.5 0 0 1 1218,156.1094 L1218,740.5 A2.5,2.5 0 0 1 1215.5,743 L8.5,743 A2.5,2.5 0 0 1 6,740.5 L6,132.5 A2.5,2.5 0 0 1 8.5,130 " fill="none" style="stroke:#000000;stroke-width:1.5;"/><line style="stroke:#000000;stroke-width:1.5;" x1="6" x2="229" y1="153.6094" y2="153.6094"/><text fill="#000000" font-family="sans-serif" font-size="14" font-weight="bold" lengthAdjust="spacing" textLength="210" x="10" y="146.5332">miml.transformation.mimlTOml</text></g><!--MD5=[0d852700fdad35b7061d461d6907a324]
cluster java.io--><g id="cluster_java.io"><path d="M618.5,6 L665.5,6 A3.75,3.75 0 0 1 668,8.5 L675,29.6094 L751.5,29.6094 A2.5,2.5 0 0 1 754,32.1094 L754,103.5 A2.5,2.5 0 0 1 751.5,106 L618.5,106 A2.5,2.5 0 0 1 616,103.5 L616,8.5 A2.5,2.5 0 0 1 618.5,6 " fill="none" style="stroke:#000000;stroke-width:1.5;"/><line style="stroke:#000000;stroke-width:1.5;" x1="616" x2="675" y1="29.6094" y2="29.6094"/><text fill="#000000" font-family="sans-serif" font-size="14" font-weight="bold" lengthAdjust="spacing" textLength="46" x="620" y="22.5332">java.io</text></g><!--MD5=[a3dfc91b10b4cf679628fbc7b4378a43]
class miml.transformation.mimlTOml.ArithmeticTransformation--><a href="ArithmeticTransformation.html" target="_top" title="ArithmeticTransformation.html" xlink:actuate="onRequest" xlink:href="ArithmeticTransformation.html" xlink:show="new" xlink:title="ArithmeticTransformation.html" xlink:type="simple"><g id="elem_miml.transformation.mimlTOml.ArithmeticTransformation"><rect codeLine="3" fill="#F1F1F1" height="171.2656" id="miml.transformation.mimlTOml.ArithmeticTransformation" rx="2.5" ry="2.5" style="stroke:#181818;stroke-width:0.5;" width="370" x="22" y="547"/><ellipse cx="123.75" cy="563" fill="#ADD1B2" rx="11" ry="11" style="stroke:#181818;stroke-width:1.0;"/><path d="M126.5156,558.875 Q126.6719,558.6563 126.8594,558.5469 Q127.0469,558.4375 127.2656,558.4375 Q127.6406,558.4375 127.875,558.7031 Q128.1094,558.9531 128.1094,559.5625 L128.1094,561.0156 Q128.1094,561.625 127.875,561.8906 Q127.6406,562.1563 127.2656,562.1563 Q126.9219,562.1563 126.7188,561.9531 Q126.5156,561.7656 126.4063,561.25 Q126.3594,560.8906 126.1719,560.7031 Q125.8438,560.3281 125.2344,560.1094 Q124.625,559.8906 124,559.8906 Q123.2344,559.8906 122.5938,560.2188 Q121.9688,560.5469 121.4688,561.2969 Q120.9844,562.0469 120.9844,563.0781 L120.9844,564.1719 Q120.9844,565.4063 121.875,566.2344 Q122.7656,567.0469 124.3594,567.0469 Q125.2969,567.0469 125.9531,566.7969 Q126.3438,566.6406 126.7656,566.2031 Q127.0313,565.9375 127.1719,565.8594 Q127.3281,565.7813 127.5313,565.7813 Q127.8594,565.7813 128.1094,566.0469 Q128.375,566.2969 128.375,566.6406 Q128.375,566.9844 128.0313,567.3906 Q127.5313,567.9688 126.7344,568.2969 Q125.6563,568.75 124.3594,568.75 Q122.8438,568.75 121.6406,568.125 Q120.6563,567.625 119.9688,566.5625 Q119.2813,565.4844 119.2813,564.2031 L119.2813,563.0469 Q119.2813,561.7188 119.8906,560.5781 Q120.5156,559.4219 121.6094,558.8125 Q122.7031,558.1875 123.9375,558.1875 Q124.6719,558.1875 125.3125,558.3594 Q125.9688,558.5156 126.5156,558.875 Z " fill="#000000"/><text fill="#000000" font-family="sans-serif" font-size="14" lengthAdjust="spacing" textLength="158" x="144.25" y="568.7285">ArithmeticTransformation</text><line style="stroke:#181818;stroke-width:0.5;" x1="23" x2="391" y1="579" y2="579"/><rect fill="none" height="6" style="stroke:#C82930;stroke-width:1.0;" width="6" x="30" y="590.3047"/><text fill="#000000" font-family="sans-serif" font-size="14" lengthAdjust="spacing" text-decoration="underline" textLength="139" x="42" y="597.5332">serialVersionUID: long</text><line style="stroke:#181818;stroke-width:0.5;" x1="23" x2="391" y1="604.6094" y2="604.6094"/><ellipse cx="33" cy="618.9141" fill="#84BE84" rx="3" ry="3" style="stroke:#038048;stroke-width:1.0;"/><text fill="#000000" font-family="sans-serif" font-size="14" lengthAdjust="spacing" textLength="261" x="42" y="623.1426">ArithmeticTransformation(MIMLInstances)</text><ellipse cx="33" cy="636.5234" fill="#84BE84" rx="3" ry="3" style="stroke:#038048;stroke-width:1.0;"/><text fill="#000000" font-family="sans-serif" font-size="14" lengthAdjust="spacing" textLength="168" x="42" y="640.752">ArithmeticTransformation()</text><ellipse cx="33" cy="654.1328" fill="#84BE84" rx="3" ry="3" style="stroke:#038048;stroke-width:1.0;"/><text fill="#000000" font-family="sans-serif" font-size="14" lengthAdjust="spacing" textLength="251" x="42" y="658.3613">transformDataset(): MultiLabelInstances</text><ellipse cx="33" cy="671.7422" fill="#84BE84" rx="3" ry="3" style="stroke:#038048;stroke-width:1.0;"/><text fill="#000000" font-family="sans-serif" font-size="14" lengthAdjust="spacing" textLength="344" x="42" y="675.9707">transformDataset(MIMLInstances): MultiLabelInstances</text><ellipse cx="33" cy="689.3516" fill="#84BE84" rx="3" ry="3" style="stroke:#038048;stroke-width:1.0;"/><text fill="#000000" font-family="sans-serif" font-size="14" lengthAdjust="spacing" textLength="242" x="42" y="693.5801">transformInstance(MIMLBag): Instance</text><ellipse cx="33" cy="706.9609" fill="#84BE84" rx="3" ry="3" style="stroke:#038048;stroke-width:1.0;"/><text fill="#000000" font-family="sans-serif" font-size="14" lengthAdjust="spacing" textLength="343" x="42" y="711.1895">transformInstance(MIMLInstances, MIMLBag): Instance</text></g></a><!--MD5=[dadfedfe08eb5ba35f3a86e57492d935]
class miml.transformation.mimlTOml.GeometricTransformation--><a href="GeometricTransformation.html" target="_top" title="GeometricTransformation.html" xlink:actuate="onRequest" xlink:href="GeometricTransformation.html" xlink:show="new" xlink:title="GeometricTransformation.html" xlink:type="simple"><g id="elem_miml.transformation.mimlTOml.GeometricTransformation"><rect codeLine="13" fill="#F1F1F1" height="171.2656" id="miml.transformation.mimlTOml.GeometricTransformation" rx="2.5" ry="2.5" style="stroke:#181818;stroke-width:0.5;" width="370" x="427" y="547"/><ellipse cx="527.25" cy="563" fill="#ADD1B2" rx="11" ry="11" style="stroke:#181818;stroke-width:1.0;"/><path d="M530.0156,558.875 Q530.1719,558.6563 530.3594,558.5469 Q530.5469,558.4375 530.7656,558.4375 Q531.1406,558.4375 531.375,558.7031 Q531.6094,558.9531 531.6094,559.5625 L531.6094,561.0156 Q531.6094,561.625 531.375,561.8906 Q531.1406,562.1563 530.7656,562.1563 Q530.4219,562.1563 530.2188,561.9531 Q530.0156,561.7656 529.9063,561.25 Q529.8594,560.8906 529.6719,560.7031 Q529.3438,560.3281 528.7344,560.1094 Q528.125,559.8906 527.5,559.8906 Q526.7344,559.8906 526.0938,560.2188 Q525.4688,560.5469 524.9688,561.2969 Q524.4844,562.0469 524.4844,563.0781 L524.4844,564.1719 Q524.4844,565.4063 525.375,566.2344 Q526.2656,567.0469 527.8594,567.0469 Q528.7969,567.0469 529.4531,566.7969 Q529.8438,566.6406 530.2656,566.2031 Q530.5313,565.9375 530.6719,565.8594 Q530.8281,565.7813 531.0313,565.7813 Q531.3594,565.7813 531.6094,566.0469 Q531.875,566.2969 531.875,566.6406 Q531.875,566.9844 531.5313,567.3906 Q531.0313,567.9688 530.2344,568.2969 Q529.1563,568.75 527.8594,568.75 Q526.3438,568.75 525.1406,568.125 Q524.1563,567.625 523.4688,566.5625 Q522.7813,565.4844 522.7813,564.2031 L522.7813,563.0469 Q522.7813,561.7188 523.3906,560.5781 Q524.0156,559.4219 525.1094,558.8125 Q526.2031,558.1875 527.4375,558.1875 Q528.1719,558.1875 528.8125,558.3594 Q529.4688,558.5156 530.0156,558.875 Z " fill="#000000"/><text fill="#000000" font-family="sans-serif" font-size="14" lengthAdjust="spacing" textLength="161" x="547.75" y="568.7285">GeometricTransformation</text><line style="stroke:#181818;stroke-width:0.5;" x1="428" x2="796" y1="579" y2="579"/><rect fill="none" height="6" style="stroke:#C82930;stroke-width:1.0;" width="6" x="435" y="590.3047"/><text fill="#000000" font-family="sans-serif" font-size="14" lengthAdjust="spacing" text-decoration="underline" textLength="139" x="447" y="597.5332">serialVersionUID: long</text><line style="stroke:#181818;stroke-width:0.5;" x1="428" x2="796" y1="604.6094" y2="604.6094"/><ellipse cx="438" cy="618.9141" fill="#84BE84" rx="3" ry="3" style="stroke:#038048;stroke-width:1.0;"/><text fill="#000000" font-family="sans-serif" font-size="14" lengthAdjust="spacing" textLength="264" x="447" y="623.1426">GeometricTransformation(MIMLInstances)</text><ellipse cx="438" cy="636.5234" fill="#84BE84" rx="3" ry="3" style="stroke:#038048;stroke-width:1.0;"/><text fill="#000000" font-family="sans-serif" font-size="14" lengthAdjust="spacing" textLength="171" x="447" y="640.752">GeometricTransformation()</text><ellipse cx="438" cy="654.1328" fill="#84BE84" rx="3" ry="3" style="stroke:#038048;stroke-width:1.0;"/><text fill="#000000" font-family="sans-serif" font-size="14" lengthAdjust="spacing" textLength="251" x="447" y="658.3613">transformDataset(): MultiLabelInstances</text><ellipse cx="438" cy="671.7422" fill="#84BE84" rx="3" ry="3" style="stroke:#038048;stroke-width:1.0;"/><text fill="#000000" font-family="sans-serif" font-size="14" lengthAdjust="spacing" textLength="344" x="447" y="675.9707">transformDataset(MIMLInstances): MultiLabelInstances</text><ellipse cx="438" cy="689.3516" fill="#84BE84" rx="3" ry="3" style="stroke:#038048;stroke-width:1.0;"/><text fill="#000000" font-family="sans-serif" font-size="14" lengthAdjust="spacing" textLength="242" x="447" y="693.5801">transformInstance(MIMLBag): Instance</text><ellipse cx="438" cy="706.9609" fill="#84BE84" rx="3" ry="3" style="stroke:#038048;stroke-width:1.0;"/><text fill="#000000" font-family="sans-serif" font-size="14" lengthAdjust="spacing" textLength="343" x="447" y="711.1895">transformInstance(MIMLInstances, MIMLBag): Instance</text></g></a><!--MD5=[b457f2829008811bc0d0d287b1ce3abc]
class miml.transformation.mimlTOml.MIMLtoML--><a href="MIMLtoML.html" target="_top" title="MIMLtoML.html" xlink:actuate="onRequest" xlink:href="MIMLtoML.html" xlink:show="new" xlink:title="MIMLtoML.html" xlink:type="simple"><g id="elem_miml.transformation.mimlTOml.MIMLtoML"><rect codeLine="23" fill="#F1F1F1" height="206.4844" id="miml.transformation.mimlTOml.MIMLtoML" rx="2.5" ry="2.5" style="stroke:#181818;stroke-width:0.5;" width="376" x="497" y="219"/><ellipse cx="646.75" cy="235" fill="#A9DCDF" rx="11" ry="11" style="stroke:#181818;stroke-width:1.0;"/><path d="M648.9375,236.7656 L644.7969,236.7656 L644.375,237.7969 L644.7969,237.7969 Q645.4063,237.7969 645.6719,238.0313 Q645.9375,238.2656 645.9375,238.6563 Q645.9375,239.0313 645.6719,239.2656 Q645.4063,239.5 644.7969,239.5 L642.5,239.5 Q641.8906,239.5 641.6406,239.2656 Q641.375,239.0313 641.375,238.6406 Q641.375,238.2656 641.6563,238.0313 Q641.9219,237.7813 642.5469,237.7969 L645.2188,231.1406 L644.1094,231.1406 Q643.5,231.1406 643.2344,230.9063 Q642.9688,230.6719 642.9688,230.2813 Q642.9688,229.9063 643.2344,229.6719 Q643.5,229.4375 644.1094,229.4375 L647.7813,229.4375 L651.1719,237.7969 Q651.7656,237.7969 651.9531,237.9375 Q652.3438,238.2031 652.3438,238.6563 Q652.3438,239.0313 652.0781,239.2656 Q651.8281,239.5 651.2188,239.5 L648.9219,239.5 Q648.3125,239.5 648.0469,239.2656 Q647.7813,239.0313 647.7813,238.6406 Q647.7813,238.2656 648.0469,238.0313 Q648.3125,237.7969 648.9219,237.7969 L649.3438,237.7969 L648.9375,236.7656 Z M648.2188,235.0625 L646.8594,231.6875 L645.4844,235.0625 L648.2188,235.0625 Z " fill="#000000"/><text fill="#000000" font-family="sans-serif" font-size="14" font-style="italic" lengthAdjust="spacing" textLength="68" x="667.25" y="240.7285">MIMLtoML</text><line style="stroke:#181818;stroke-width:0.5;" x1="498" x2="872" y1="251" y2="251"/><rect fill="none" height="6" style="stroke:#C82930;stroke-width:1.0;" width="6" x="505" y="262.3047"/><text fill="#000000" font-family="sans-serif" font-size="14" lengthAdjust="spacing" text-decoration="underline" textLength="139" x="517" y="269.5332">serialVersionUID: long</text><polygon fill="none" points="508,277.9141,512,281.9141,508,285.9141,504,281.9141" style="stroke:#B38D22;stroke-width:1.0;"/><text fill="#000000" font-family="sans-serif" font-size="14" lengthAdjust="spacing" textLength="162" x="517" y="287.1426">updatedLabelIndices: int[]</text><polygon fill="none" points="508,295.5234,512,299.5234,508,303.5234,504,299.5234" style="stroke:#B38D22;stroke-width:1.0;"/><text fill="#000000" font-family="sans-serif" font-size="14" lengthAdjust="spacing" textLength="122" x="517" y="304.752">template: Instances</text><polygon fill="none" points="508,313.1328,512,317.1328,508,321.1328,504,317.1328" style="stroke:#B38D22;stroke-width:1.0;"/><text fill="#000000" font-family="sans-serif" font-size="14" lengthAdjust="spacing" textLength="148" x="517" y="322.3613">dataset: MIMLInstances</text><line style="stroke:#181818;stroke-width:0.5;" x1="498" x2="872" y1="329.4375" y2="329.4375"/><ellipse cx="508" cy="343.7422" fill="#84BE84" rx="3" ry="3" style="stroke:#038048;stroke-width:1.0;"/><text fill="#000000" font-family="sans-serif" font-size="14" font-style="italic" lengthAdjust="spacing" textLength="253" x="517" y="347.9707">transformDataset(): MultiLabelInstances</text><ellipse cx="508" cy="361.3516" fill="#84BE84" rx="3" ry="3" style="stroke:#038048;stroke-width:1.0;"/><text fill="#000000" font-family="sans-serif" font-size="14" font-style="italic" lengthAdjust="spacing" textLength="350" x="517" y="365.5801">transformDataset(MIMLInstances): MultiLabelInstances</text><ellipse cx="508" cy="378.9609" fill="#84BE84" rx="3" ry="3" style="stroke:#038048;stroke-width:1.0;"/><text fill="#000000" font-family="sans-serif" font-size="14" font-style="italic" lengthAdjust="spacing" textLength="247" x="517" y="383.1895">transformInstance(MIMLBag): Instance</text><polygon fill="#FFFF44" points="508,391.5703,512,395.5703,508,399.5703,504,395.5703" style="stroke:#B38D22;stroke-width:1.0;"/><text fill="#000000" font-family="sans-serif" font-size="14" lengthAdjust="spacing" textLength="153" x="517" y="400.7988">prepareTemplate(): void</text><ellipse cx="508" cy="414.1797" fill="#84BE84" rx="3" ry="3" style="stroke:#038048;stroke-width:1.0;"/><text fill="#000000" font-family="sans-serif" font-size="14" lengthAdjust="spacing" text-decoration="underline" textLength="202" x="517" y="418.4082">minimax(Instances, int): double[]</text></g></a><!--MD5=[5ecf15778d6b88244a46d942b3e3ef71]
class miml.transformation.mimlTOml.MinMaxTransformation--><a href="MinMaxTransformation.html" target="_top" title="MinMaxTransformation.html" xlink:actuate="onRequest" xlink:href="MinMaxTransformation.html" xlink:show="new" xlink:title="MinMaxTransformation.html" xlink:type="simple"><g id="elem_miml.transformation.mimlTOml.MinMaxTransformation"><rect codeLine="35" fill="#F1F1F1" height="188.875" id="miml.transformation.mimlTOml.MinMaxTransformation" rx="2.5" ry="2.5" style="stroke:#181818;stroke-width:0.5;" width="370" x="832" y="538"/><ellipse cx="941.25" cy="554" fill="#ADD1B2" rx="11" ry="11" style="stroke:#181818;stroke-width:1.0;"/><path d="M944.0156,549.875 Q944.1719,549.6563 944.3594,549.5469 Q944.5469,549.4375 944.7656,549.4375 Q945.1406,549.4375 945.375,549.7031 Q945.6094,549.9531 945.6094,550.5625 L945.6094,552.0156 Q945.6094,552.625 945.375,552.8906 Q945.1406,553.1563 944.7656,553.1563 Q944.4219,553.1563 944.2188,552.9531 Q944.0156,552.7656 943.9063,552.25 Q943.8594,551.8906 943.6719,551.7031 Q943.3438,551.3281 942.7344,551.1094 Q942.125,550.8906 941.5,550.8906 Q940.7344,550.8906 940.0938,551.2188 Q939.4688,551.5469 938.9688,552.2969 Q938.4844,553.0469 938.4844,554.0781 L938.4844,555.1719 Q938.4844,556.4063 939.375,557.2344 Q940.2656,558.0469 941.8594,558.0469 Q942.7969,558.0469 943.4531,557.7969 Q943.8438,557.6406 944.2656,557.2031 Q944.5313,556.9375 944.6719,556.8594 Q944.8281,556.7813 945.0313,556.7813 Q945.3594,556.7813 945.6094,557.0469 Q945.875,557.2969 945.875,557.6406 Q945.875,557.9844 945.5313,558.3906 Q945.0313,558.9688 944.2344,559.2969 Q943.1563,559.75 941.8594,559.75 Q940.3438,559.75 939.1406,559.125 Q938.1563,558.625 937.4688,557.5625 Q936.7813,556.4844 936.7813,555.2031 L936.7813,554.0469 Q936.7813,552.7188 937.3906,551.5781 Q938.0156,550.4219 939.1094,549.8125 Q940.2031,549.1875 941.4375,549.1875 Q942.1719,549.1875 942.8125,549.3594 Q943.4688,549.5156 944.0156,549.875 Z " fill="#000000"/><text fill="#000000" font-family="sans-serif" font-size="14" lengthAdjust="spacing" textLength="143" x="961.75" y="559.7285">MinMaxTransformation</text><line style="stroke:#181818;stroke-width:0.5;" x1="833" x2="1201" y1="570" y2="570"/><rect fill="none" height="6" style="stroke:#C82930;stroke-width:1.0;" width="6" x="840" y="581.3047"/><text fill="#000000" font-family="sans-serif" font-size="14" lengthAdjust="spacing" text-decoration="underline" textLength="139" x="852" y="588.5332">serialVersionUID: long</text><line style="stroke:#181818;stroke-width:0.5;" x1="833" x2="1201" y1="595.6094" y2="595.6094"/><ellipse cx="843" cy="609.9141" fill="#84BE84" rx="3" ry="3" style="stroke:#038048;stroke-width:1.0;"/><text fill="#000000" font-family="sans-serif" font-size="14" lengthAdjust="spacing" textLength="246" x="852" y="614.1426">MinMaxTransformation(MIMLInstances)</text><ellipse cx="843" cy="627.5234" fill="#84BE84" rx="3" ry="3" style="stroke:#038048;stroke-width:1.0;"/><text fill="#000000" font-family="sans-serif" font-size="14" lengthAdjust="spacing" textLength="153" x="852" y="631.752">MinMaxTransformation()</text><ellipse cx="843" cy="645.1328" fill="#84BE84" rx="3" ry="3" style="stroke:#038048;stroke-width:1.0;"/><text fill="#000000" font-family="sans-serif" font-size="14" lengthAdjust="spacing" textLength="251" x="852" y="649.3613">transformDataset(): MultiLabelInstances</text><ellipse cx="843" cy="662.7422" fill="#84BE84" rx="3" ry="3" style="stroke:#038048;stroke-width:1.0;"/><text fill="#000000" font-family="sans-serif" font-size="14" lengthAdjust="spacing" textLength="344" x="852" y="666.9707">transformDataset(MIMLInstances): MultiLabelInstances</text><ellipse cx="843" cy="680.3516" fill="#84BE84" rx="3" ry="3" style="stroke:#038048;stroke-width:1.0;"/><text fill="#000000" font-family="sans-serif" font-size="14" lengthAdjust="spacing" textLength="242" x="852" y="684.5801">transformInstance(MIMLBag): Instance</text><ellipse cx="843" cy="697.9609" fill="#84BE84" rx="3" ry="3" style="stroke:#038048;stroke-width:1.0;"/><text fill="#000000" font-family="sans-serif" font-size="14" lengthAdjust="spacing" textLength="343" x="852" y="702.1895">transformInstance(MIMLInstances, MIMLBag): Instance</text><polygon fill="#FFFF44" points="843,710.5703,847,714.5703,843,718.5703,839,714.5703" style="stroke:#B38D22;stroke-width:1.0;"/><text fill="#000000" font-family="sans-serif" font-size="14" lengthAdjust="spacing" textLength="153" x="852" y="719.7988">prepareTemplate(): void</text></g></a><!--MD5=[248bb325c10c649463254d9928753948]
class miml.transformation.mimlTOml.PropositionalTransformation--><a href="PropositionalTransformation.html" target="_top" title="PropositionalTransformation.html" xlink:actuate="onRequest" xlink:href="PropositionalTransformation.html" xlink:show="new" xlink:title="PropositionalTransformation.html" xlink:type="simple"><g id="elem_miml.transformation.mimlTOml.PropositionalTransformation"><rect codeLine="46" fill="#F1F1F1" height="312.1406" id="miml.transformation.mimlTOml.PropositionalTransformation" rx="2.5" ry="2.5" style="stroke:#181818;stroke-width:0.5;" width="440" x="22" y="166"/><ellipse cx="148.75" cy="182" fill="#ADD1B2" rx="11" ry="11" style="stroke:#181818;stroke-width:1.0;"/><path d="M151.5156,177.875 Q151.6719,177.6563 151.8594,177.5469 Q152.0469,177.4375 152.2656,177.4375 Q152.6406,177.4375 152.875,177.7031 Q153.1094,177.9531 153.1094,178.5625 L153.1094,180.0156 Q153.1094,180.625 152.875,180.8906 Q152.6406,181.1563 152.2656,181.1563 Q151.9219,181.1563 151.7188,180.9531 Q151.5156,180.7656 151.4063,180.25 Q151.3594,179.8906 151.1719,179.7031 Q150.8438,179.3281 150.2344,179.1094 Q149.625,178.8906 149,178.8906 Q148.2344,178.8906 147.5938,179.2188 Q146.9688,179.5469 146.4688,180.2969 Q145.9844,181.0469 145.9844,182.0781 L145.9844,183.1719 Q145.9844,184.4063 146.875,185.2344 Q147.7656,186.0469 149.3594,186.0469 Q150.2969,186.0469 150.9531,185.7969 Q151.3438,185.6406 151.7656,185.2031 Q152.0313,184.9375 152.1719,184.8594 Q152.3281,184.7813 152.5313,184.7813 Q152.8594,184.7813 153.1094,185.0469 Q153.375,185.2969 153.375,185.6406 Q153.375,185.9844 153.0313,186.3906 Q152.5313,186.9688 151.7344,187.2969 Q150.6563,187.75 149.3594,187.75 Q147.8438,187.75 146.6406,187.125 Q145.6563,186.625 144.9688,185.5625 Q144.2813,184.4844 144.2813,183.2031 L144.2813,182.0469 Q144.2813,180.7188 144.8906,179.5781 Q145.5156,178.4219 146.6094,177.8125 Q147.7031,177.1875 148.9375,177.1875 Q149.6719,177.1875 150.3125,177.3594 Q150.9688,177.5156 151.5156,177.875 Z " fill="#000000"/><text fill="#000000" font-family="sans-serif" font-size="14" lengthAdjust="spacing" textLength="178" x="169.25" y="187.7285">PropositionalTransformation</text><line style="stroke:#181818;stroke-width:0.5;" x1="23" x2="461" y1="198" y2="198"/><polygon fill="none" points="33,207.3047,37,211.3047,33,215.3047,29,211.3047" style="stroke:#B38D22;stroke-width:1.0;"/><text fill="#000000" font-family="sans-serif" font-size="14" lengthAdjust="spacing" textLength="162" x="42" y="216.5332">updatedLabelIndices: int[]</text><polygon fill="none" points="33,224.9141,37,228.9141,33,232.9141,29,228.9141" style="stroke:#B38D22;stroke-width:1.0;"/><text fill="#000000" font-family="sans-serif" font-size="14" lengthAdjust="spacing" textLength="122" x="42" y="234.1426">template: Instances</text><polygon fill="none" points="33,242.5234,37,246.5234,33,250.5234,29,246.5234" style="stroke:#B38D22;stroke-width:1.0;"/><text fill="#000000" font-family="sans-serif" font-size="14" lengthAdjust="spacing" textLength="148" x="42" y="251.752">dataset: MIMLInstances</text><polygon fill="none" points="33,260.1328,37,264.1328,33,268.1328,29,264.1328" style="stroke:#B38D22;stroke-width:1.0;"/><text fill="#000000" font-family="sans-serif" font-size="14" lengthAdjust="spacing" textLength="139" x="42" y="269.3613">removeFilter: Remove</text><polygon fill="none" points="33,277.7422,37,281.7422,33,285.7422,29,281.7422" style="stroke:#B38D22;stroke-width:1.0;"/><text fill="#000000" font-family="sans-serif" font-size="14" lengthAdjust="spacing" textLength="140" x="42" y="286.9707">includeBagId: boolean</text><line style="stroke:#181818;stroke-width:0.5;" x1="23" x2="461" y1="294.0469" y2="294.0469"/><ellipse cx="33" cy="308.3516" fill="#84BE84" rx="3" ry="3" style="stroke:#038048;stroke-width:1.0;"/><text fill="#000000" font-family="sans-serif" font-size="14" lengthAdjust="spacing" textLength="281" x="42" y="312.5801">PropositionalTransformation(MIMLInstances)</text><ellipse cx="33" cy="325.9609" fill="#84BE84" rx="3" ry="3" style="stroke:#038048;stroke-width:1.0;"/><text fill="#000000" font-family="sans-serif" font-size="14" lengthAdjust="spacing" textLength="340" x="42" y="330.1895">PropositionalTransformation(MIMLInstances, boolean)</text><ellipse cx="33" cy="343.5703" fill="#84BE84" rx="3" ry="3" style="stroke:#038048;stroke-width:1.0;"/><text fill="#000000" font-family="sans-serif" font-size="14" lengthAdjust="spacing" textLength="160" x="42" y="347.7988">isIncludeBagId(): boolean</text><ellipse cx="33" cy="361.1797" fill="#84BE84" rx="3" ry="3" style="stroke:#038048;stroke-width:1.0;"/><text fill="#000000" font-family="sans-serif" font-size="14" lengthAdjust="spacing" textLength="195" x="42" y="365.4082">setIncludeBagId(boolean): void</text><ellipse cx="33" cy="378.7891" fill="#84BE84" rx="3" ry="3" style="stroke:#038048;stroke-width:1.0;"/><text fill="#000000" font-family="sans-serif" font-size="14" lengthAdjust="spacing" textLength="251" x="42" y="383.0176">transformDataset(): MultiLabelInstances</text><ellipse cx="33" cy="396.3984" fill="#84BE84" rx="3" ry="3" style="stroke:#038048;stroke-width:1.0;"/><text fill="#000000" font-family="sans-serif" font-size="14" lengthAdjust="spacing" textLength="344" x="42" y="400.627">transformDataset(MIMLInstances): MultiLabelInstances</text><ellipse cx="33" cy="414.0078" fill="#84BE84" rx="3" ry="3" style="stroke:#038048;stroke-width:1.0;"/><text fill="#000000" font-family="sans-serif" font-size="14" lengthAdjust="spacing" textLength="313" x="42" y="418.2363">transformInstance(MIMLBag): MultiLabelInstances</text><ellipse cx="33" cy="431.6172" fill="#84BE84" rx="3" ry="3" style="stroke:#038048;stroke-width:1.0;"/><text fill="#000000" font-family="sans-serif" font-size="14" lengthAdjust="spacing" textLength="414" x="42" y="435.8457">transformInstance(MIMLInstances, MIMLBag): MultiLabelInstances</text><polygon fill="#FFFF44" points="33,444.2266,37,448.2266,33,452.2266,29,448.2266" style="stroke:#B38D22;stroke-width:1.0;"/><text fill="#000000" font-family="sans-serif" font-size="14" lengthAdjust="spacing" textLength="153" x="42" y="453.4551">prepareTemplate(): void</text><ellipse cx="33" cy="466.8359" fill="#84BE84" rx="3" ry="3" style="stroke:#038048;stroke-width:1.0;"/><text fill="#000000" font-family="sans-serif" font-size="14" lengthAdjust="spacing" text-decoration="underline" textLength="349" x="42" y="471.0645">removeBagId(MultiLabelInstances): MultiLabelInstances</text></g></a><!--MD5=[5a5af9b0547913863cbe0ddf55a9ab5e]
class java.io.Serializable--><g id="elem_java.io.Serializable"><rect codeLine="71" fill="#F1F1F1" height="48" id="java.io.Serializable" rx="2.5" ry="2.5" style="stroke:#181818;stroke-width:0.5;" width="105" x="632.5" y="42"/><ellipse cx="647.5" cy="58" fill="#B4A7E5" rx="11" ry="11" style="stroke:#181818;stroke-width:1.0;"/><path d="M648.4531,54.6406 L648.4531,61.2969 L650.1719,61.2969 Q650.7813,61.2969 651.0469,61.5313 Q651.3125,61.7656 651.3125,62.1563 Q651.3125,62.5313 651.0469,62.7656 Q650.7813,63 650.1719,63 L645.0313,63 Q644.4219,63 644.1563,62.7656 Q643.8906,62.5313 643.8906,62.1406 Q643.8906,61.7656 644.1563,61.5313 Q644.4219,61.2969 645.0313,61.2969 L646.75,61.2969 L646.75,54.6406 L645.0313,54.6406 Q644.4219,54.6406 644.1563,54.4063 Q643.8906,54.1719 643.8906,53.7813 Q643.8906,53.4063 644.1563,53.1719 Q644.4219,52.9375 645.0313,52.9375 L650.1719,52.9375 Q650.7813,52.9375 651.0469,53.1719 Q651.3125,53.4063 651.3125,53.7813 Q651.3125,54.1719 651.0469,54.4063 Q650.7813,54.6406 650.1719,54.6406 L648.4531,54.6406 Z " fill="#000000"/><text fill="#000000" font-family="sans-serif" font-size="14" font-style="italic" lengthAdjust="spacing" textLength="73" x="661.5" y="63.7285">Serializable</text><line style="stroke:#181818;stroke-width:0.5;" x1="633.5" x2="736.5" y1="74" y2="74"/><line style="stroke:#181818;stroke-width:0.5;" x1="633.5" x2="736.5" y1="82" y2="82"/></g><!--MD5=[c3cb79a06062a91e44f6ce19933a144e]
reverse link miml.transformation.mimlTOml.MIMLtoML to miml.transformation.mimlTOml.ArithmeticTransformation--><g id="link_miml.transformation.mimlTOml.MIMLtoML_miml.transformation.mimlTOml.ArithmeticTransformation"><path codeLine="64" d="M538.31,437.01 C518.65,451.22 498.53,465.22 479,478 C442.93,501.6 403.03,525.35 365.16,546.87 " fill="none" id="miml.transformation.mimlTOml.MIMLtoML-backto-miml.transformation.mimlTOml.ArithmeticTransformation" style="stroke:#181818;stroke-width:1.0;"/><polygon fill="none" points="534.42,431.19,554.7,425.06,542.67,442.5,534.42,431.19" style="stroke:#181818;stroke-width:1.0;"/></g><!--MD5=[436d7081df6d04c809648cb8d2ac16c7]
reverse link miml.transformation.mimlTOml.MIMLtoML to miml.transformation.mimlTOml.GeometricTransformation--><g id="link_miml.transformation.mimlTOml.MIMLtoML_miml.transformation.mimlTOml.GeometricTransformation"><path codeLine="65" d="M656.11,445.08 C648.04,479.21 639.44,515.53 632,546.96 " fill="none" id="miml.transformation.mimlTOml.MIMLtoML-backto-miml.transformation.mimlTOml.GeometricTransformation" style="stroke:#181818;stroke-width:1.0;"/><polygon fill="none" points="649.38,443.15,660.79,425.3,663,446.37,649.38,443.15" style="stroke:#181818;stroke-width:1.0;"/></g><!--MD5=[b410397ceb91ad01ecdf963b45a6f010]
reverse link java.io.Serializable to miml.transformation.mimlTOml.MIMLtoML--><g id="link_java.io.Serializable_miml.transformation.mimlTOml.MIMLtoML"><path codeLine="66" d="M685,110.87 C685,140.67 685,181.36 685,218.99 " fill="none" id="java.io.Serializable-backto-miml.transformation.mimlTOml.MIMLtoML" style="stroke:#181818;stroke-width:1.0;stroke-dasharray:7.0,7.0;"/><polygon fill="none" points="678,110.44,685,90.44,692,110.44,678,110.44" style="stroke:#181818;stroke-width:1.0;"/></g><!--MD5=[ae8dcb446e1d9f376cbc98cb47b2a81a]
reverse link miml.transformation.mimlTOml.MIMLtoML to miml.transformation.mimlTOml.MinMaxTransformation--><g id="link_miml.transformation.mimlTOml.MIMLtoML_miml.transformation.mimlTOml.MinMaxTransformation"><path codeLine="67" d="M809.94,439.1 C845.01,471.69 882.7,506.7 916.17,537.81 " fill="none" id="miml.transformation.mimlTOml.MIMLtoML-backto-miml.transformation.mimlTOml.MinMaxTransformation" style="stroke:#181818;stroke-width:1.0;"/><polygon fill="none" points="804.98,444.04,795.09,425.3,814.51,433.78,804.98,444.04" style="stroke:#181818;stroke-width:1.0;"/></g><rect fill="none" height="12.5781" style="stroke:none;stroke-width:1.0;" width="190" x="510.5" y="749"/><text fill="#888888" font-family="sans-serif" font-size="10" lengthAdjust="spacing" textLength="190" x="510.5" y="759.3809">UMLDoclet 2.0.20, PlantUML 1.2022.12</text><!--MD5=[bdbb834e5363ea1f9ecbf1b4a32d7c9f]
@startuml
    namespace miml.transformation.mimlTOml {

        class ArithmeticTransformation [[ArithmeticTransformation.html]] {
            {static} -serialVersionUID: long
            +ArithmeticTransformation(MIMLInstances)
            +ArithmeticTransformation()
            +transformDataset(): MultiLabelInstances
            +transformDataset(MIMLInstances): MultiLabelInstances
            +transformInstance(MIMLBag): Instance
            +transformInstance(MIMLInstances, MIMLBag): Instance
        }

        class GeometricTransformation [[GeometricTransformation.html]] {
            {static} -serialVersionUID: long
            +GeometricTransformation(MIMLInstances)
            +GeometricTransformation()
            +transformDataset(): MultiLabelInstances
            +transformDataset(MIMLInstances): MultiLabelInstances
            +transformInstance(MIMLBag): Instance
            +transformInstance(MIMLInstances, MIMLBag): Instance
        }

        abstract class MIMLtoML [[MIMLtoML.html]] {
            {static} -serialVersionUID: long
            #updatedLabelIndices: int[]
            #template: Instances
            #dataset: MIMLInstances
            {abstract} +transformDataset(): MultiLabelInstances
            {abstract} +transformDataset(MIMLInstances): MultiLabelInstances
            {abstract} +transformInstance(MIMLBag): Instance
            #prepareTemplate(): void
            {static} +minimax(Instances, int): double[]
        }

        class MinMaxTransformation [[MinMaxTransformation.html]] {
            {static} -serialVersionUID: long
            +MinMaxTransformation(MIMLInstances)
            +MinMaxTransformation()
            +transformDataset(): MultiLabelInstances
            +transformDataset(MIMLInstances): MultiLabelInstances
            +transformInstance(MIMLBag): Instance
            +transformInstance(MIMLInstances, MIMLBag): Instance
            #prepareTemplate(): void
        }

        class PropositionalTransformation [[PropositionalTransformation.html]] {
            #updatedLabelIndices: int[]
            #template: Instances
            #dataset: MIMLInstances
            #removeFilter: Remove
            #includeBagId: boolean
            +PropositionalTransformation(MIMLInstances)
            +PropositionalTransformation(MIMLInstances, boolean)
            +isIncludeBagId(): boolean
            +setIncludeBagId(boolean): void
            +transformDataset(): MultiLabelInstances
            +transformDataset(MIMLInstances): MultiLabelInstances
            +transformInstance(MIMLBag): MultiLabelInstances
            +transformInstance(MIMLInstances, MIMLBag): MultiLabelInstances
            #prepareTemplate(): void
            {static} +removeBagId(MultiLabelInstances): MultiLabelInstances
        }

        MIMLtoML <|- - ArithmeticTransformation
        MIMLtoML <|- - GeometricTransformation
        java.io.Serializable <|.. MIMLtoML
        MIMLtoML <|- - MinMaxTransformation
    }

    namespace java.io {
        interface Serializable
    }

    center footer UMLDoclet 2.0.20, PlantUML 1.2022.12
@enduml

PlantUML version 1.2022.12(Sun Oct 23 20:12:26 CEST 2022)
(APACHE source distribution)
Java Runtime: OpenJDK Runtime Environment
JVM: OpenJDK 64-Bit Server VM
Default Encoding: Cp1252
Language: es
Country: ES
--></g></svg>