<?xml version="1.0" encoding="UTF-8" standalone="no"?><svg xmlns="http://www.w3.org/2000/svg" xmlns:xlink="http://www.w3.org/1999/xlink" contentStyleType="text/css" height="354px" preserveAspectRatio="none" style="width:461px;height:354px;background:#FFFFFF;" version="1.1" viewBox="0 0 461 354" width="461px" zoomAndPan="magnify"><defs/><g><!--MD5=[248bb325c10c649463254d9928753948]
class miml.transformation.mimlTOml.PropositionalTransformation--><a href="PropositionalTransformation.html" target="_top" title="PropositionalTransformation.html" xlink:actuate="onRequest" xlink:href="PropositionalTransformation.html" xlink:show="new" xlink:title="PropositionalTransformation.html" xlink:type="simple"><g id="elem_miml.transformation.mimlTOml.PropositionalTransformation"><rect codeLine="5" fill="#F1F1F1" height="320.3281" id="miml.transformation.mimlTOml.PropositionalTransformation" rx="2.5" ry="2.5" style="stroke:#181818;stroke-width:0.5;" width="440" x="7" y="7"/><ellipse cx="133.75" cy="27.0938" fill="#ADD1B2" rx="11" ry="11" style="stroke:#181818;stroke-width:1.0;"/><path d="M136.5156,22.9688 Q136.6719,22.75 136.8594,22.6406 Q137.0469,22.5313 137.2656,22.5313 Q137.6406,22.5313 137.875,22.7969 Q138.1094,23.0469 138.1094,23.6563 L138.1094,25.1094 Q138.1094,25.7188 137.875,25.9844 Q137.6406,26.25 137.2656,26.25 Q136.9219,26.25 136.7188,26.0469 Q136.5156,25.8594 136.4063,25.3438 Q136.3594,24.9844 136.1719,24.7969 Q135.8438,24.4219 135.2344,24.2031 Q134.625,23.9844 134,23.9844 Q133.2344,23.9844 132.5938,24.3125 Q131.9688,24.6406 131.4688,25.3906 Q130.9844,26.1406 130.9844,27.1719 L130.9844,28.2656 Q130.9844,29.5 131.875,30.3281 Q132.7656,31.1406 134.3594,31.1406 Q135.2969,31.1406 135.9531,30.8906 Q136.3438,30.7344 136.7656,30.2969 Q137.0313,30.0313 137.1719,29.9531 Q137.3281,29.875 137.5313,29.875 Q137.8594,29.875 138.1094,30.1406 Q138.375,30.3906 138.375,30.7344 Q138.375,31.0781 138.0313,31.4844 Q137.5313,32.0625 136.7344,32.3906 Q135.6563,32.8438 134.3594,32.8438 Q132.8438,32.8438 131.6406,32.2188 Q130.6563,31.7188 129.9688,30.6563 Q129.2813,29.5781 129.2813,28.2969 L129.2813,27.1406 Q129.2813,25.8125 129.8906,24.6719 Q130.5156,23.5156 131.6094,22.9063 Q132.7031,22.2813 133.9375,22.2813 Q134.6719,22.2813 135.3125,22.4531 Q135.9688,22.6094 136.5156,22.9688 Z " fill="#000000"/><text fill="#000000" font-family="sans-serif" font-size="14" lengthAdjust="spacing" textLength="178" x="154.25" y="26.5332">PropositionalTransformation</text><text fill="#000000" font-family="sans-serif" font-size="10" lengthAdjust="spacing" textLength="148" x="169.25" y="39.9902">miml.transformation.mimlTOml</text><line style="stroke:#181818;stroke-width:0.5;" x1="8" x2="446" y1="47.1875" y2="47.1875"/><polygon fill="none" points="18,56.4922,22,60.4922,18,64.4922,14,60.4922" style="stroke:#B38D22;stroke-width:1.0;"/><text fill="#000000" font-family="sans-serif" font-size="14" lengthAdjust="spacing" textLength="162" x="27" y="65.7207">updatedLabelIndices: int[]</text><polygon fill="none" points="18,74.1016,22,78.1016,18,82.1016,14,78.1016" style="stroke:#B38D22;stroke-width:1.0;"/><text fill="#000000" font-family="sans-serif" font-size="14" lengthAdjust="spacing" textLength="122" x="27" y="83.3301">template: Instances</text><polygon fill="none" points="18,91.7109,22,95.7109,18,99.7109,14,95.7109" style="stroke:#B38D22;stroke-width:1.0;"/><text fill="#000000" font-family="sans-serif" font-size="14" lengthAdjust="spacing" textLength="148" x="27" y="100.9395">dataset: MIMLInstances</text><polygon fill="none" points="18,109.3203,22,113.3203,18,117.3203,14,113.3203" style="stroke:#B38D22;stroke-width:1.0;"/><text fill="#000000" font-family="sans-serif" font-size="14" lengthAdjust="spacing" textLength="139" x="27" y="118.5488">removeFilter: Remove</text><polygon fill="none" points="18,126.9297,22,130.9297,18,134.9297,14,130.9297" style="stroke:#B38D22;stroke-width:1.0;"/><text fill="#000000" font-family="sans-serif" font-size="14" lengthAdjust="spacing" textLength="140" x="27" y="136.1582">includeBagId: boolean</text><line style="stroke:#181818;stroke-width:0.5;" x1="8" x2="446" y1="143.2344" y2="143.2344"/><ellipse cx="18" cy="157.5391" fill="#84BE84" rx="3" ry="3" style="stroke:#038048;stroke-width:1.0;"/><text fill="#000000" font-family="sans-serif" font-size="14" lengthAdjust="spacing" textLength="281" x="27" y="161.7676">PropositionalTransformation(MIMLInstances)</text><ellipse cx="18" cy="175.1484" fill="#84BE84" rx="3" ry="3" style="stroke:#038048;stroke-width:1.0;"/><text fill="#000000" font-family="sans-serif" font-size="14" lengthAdjust="spacing" textLength="340" x="27" y="179.377">PropositionalTransformation(MIMLInstances, boolean)</text><ellipse cx="18" cy="192.7578" fill="#84BE84" rx="3" ry="3" style="stroke:#038048;stroke-width:1.0;"/><text fill="#000000" font-family="sans-serif" font-size="14" lengthAdjust="spacing" textLength="160" x="27" y="196.9863">isIncludeBagId(): boolean</text><ellipse cx="18" cy="210.3672" fill="#84BE84" rx="3" ry="3" style="stroke:#038048;stroke-width:1.0;"/><text fill="#000000" font-family="sans-serif" font-size="14" lengthAdjust="spacing" textLength="195" x="27" y="214.5957">setIncludeBagId(boolean): void</text><ellipse cx="18" cy="227.9766" fill="#84BE84" rx="3" ry="3" style="stroke:#038048;stroke-width:1.0;"/><text fill="#000000" font-family="sans-serif" font-size="14" lengthAdjust="spacing" textLength="251" x="27" y="232.2051">transformDataset(): MultiLabelInstances</text><ellipse cx="18" cy="245.5859" fill="#84BE84" rx="3" ry="3" style="stroke:#038048;stroke-width:1.0;"/><text fill="#000000" font-family="sans-serif" font-size="14" lengthAdjust="spacing" textLength="344" x="27" y="249.8145">transformDataset(MIMLInstances): MultiLabelInstances</text><ellipse cx="18" cy="263.1953" fill="#84BE84" rx="3" ry="3" style="stroke:#038048;stroke-width:1.0;"/><text fill="#000000" font-family="sans-serif" font-size="14" lengthAdjust="spacing" textLength="313" x="27" y="267.4238">transformInstance(MIMLBag): MultiLabelInstances</text><ellipse cx="18" cy="280.8047" fill="#84BE84" rx="3" ry="3" style="stroke:#038048;stroke-width:1.0;"/><text fill="#000000" font-family="sans-serif" font-size="14" lengthAdjust="spacing" textLength="414" x="27" y="285.0332">transformInstance(MIMLInstances, MIMLBag): MultiLabelInstances</text><polygon fill="#FFFF44" points="18,293.4141,22,297.4141,18,301.4141,14,297.4141" style="stroke:#B38D22;stroke-width:1.0;"/><text fill="#000000" font-family="sans-serif" font-size="14" lengthAdjust="spacing" textLength="153" x="27" y="302.6426">prepareTemplate(): void</text><ellipse cx="18" cy="316.0234" fill="#84BE84" rx="3" ry="3" style="stroke:#038048;stroke-width:1.0;"/><text fill="#000000" font-family="sans-serif" font-size="14" lengthAdjust="spacing" text-decoration="underline" textLength="349" x="27" y="320.252">removeBagId(MultiLabelInstances): MultiLabelInstances</text></g></a><rect fill="none" height="12.5781" style="stroke:none;stroke-width:1.0;" width="190" x="131.5" y="334.3281"/><text fill="#888888" font-family="sans-serif" font-size="10" lengthAdjust="spacing" textLength="190" x="131.5" y="344.709">UMLDoclet 2.0.20, PlantUML 1.2022.12</text><!--MD5=[dc6f374ee356920f4c74a4952a043c65]
@startuml
    set namespaceSeparator none
    hide empty fields
    hide empty methods

    class "<size:14>PropositionalTransformation\n<size:10>miml.transformation.mimlTOml" as miml.transformation.mimlTOml.PropositionalTransformation [[PropositionalTransformation.html]] {
        #updatedLabelIndices: int[]
        #template: Instances
        #dataset: MIMLInstances
        #removeFilter: Remove
        #includeBagId: boolean
        +PropositionalTransformation(MIMLInstances)
        +PropositionalTransformation(MIMLInstances, boolean)
        +isIncludeBagId(): boolean
        +setIncludeBagId(boolean): void
        +transformDataset(): MultiLabelInstances
        +transformDataset(MIMLInstances): MultiLabelInstances
        +transformInstance(MIMLBag): MultiLabelInstances
        +transformInstance(MIMLInstances, MIMLBag): MultiLabelInstances
        #prepareTemplate(): void
        {static} +removeBagId(MultiLabelInstances): MultiLabelInstances
    }

    center footer UMLDoclet 2.0.20, PlantUML 1.2022.12
@enduml

PlantUML version 1.2022.12(Sun Oct 23 20:12:26 CEST 2022)
(APACHE source distribution)
Java Runtime: OpenJDK Runtime Environment
JVM: OpenJDK 64-Bit Server VM
Default Encoding: Cp1252
Language: es
Country: ES
--></g></svg>