<?xml version="1.0" encoding="UTF-8" standalone="no"?><svg xmlns="http://www.w3.org/2000/svg" xmlns:xlink="http://www.w3.org/1999/xlink" contentStyleType="text/css" height="541px" preserveAspectRatio="none" style="width:434px;height:541px;background:#FFFFFF;" version="1.1" viewBox="0 0 434 541" width="434px" zoomAndPan="magnify"><defs/><g><!--MD5=[e95b60fe92376c889dd15792e8293c56]
class miml.data.MIMLInstances--><a href="MIMLInstances.html" target="_top" title="MIMLInstances.html" xlink:actuate="onRequest" xlink:href="MIMLInstances.html" xlink:show="new" xlink:title="MIMLInstances.html" xlink:type="simple"><g id="elem_miml.data.MIMLInstances"><rect codeLine="5" fill="#F1F1F1" height="408.375" id="miml.data.MIMLInstances" rx="2.5" ry="2.5" style="stroke:#181818;stroke-width:0.5;" width="420" x="7" y="107"/><ellipse cx="166.25" cy="127.0938" fill="#ADD1B2" rx="11" ry="11" style="stroke:#181818;stroke-width:1.0;"/><path d="M169.0156,122.9688 Q169.1719,122.75 169.3594,122.6406 Q169.5469,122.5313 169.7656,122.5313 Q170.1406,122.5313 170.375,122.7969 Q170.6094,123.0469 170.6094,123.6563 L170.6094,125.1094 Q170.6094,125.7188 170.375,125.9844 Q170.1406,126.25 169.7656,126.25 Q169.4219,126.25 169.2188,126.0469 Q169.0156,125.8594 168.9063,125.3438 Q168.8594,124.9844 168.6719,124.7969 Q168.3438,124.4219 167.7344,124.2031 Q167.125,123.9844 166.5,123.9844 Q165.7344,123.9844 165.0938,124.3125 Q164.4688,124.6406 163.9688,125.3906 Q163.4844,126.1406 163.4844,127.1719 L163.4844,128.2656 Q163.4844,129.5 164.375,130.3281 Q165.2656,131.1406 166.8594,131.1406 Q167.7969,131.1406 168.4531,130.8906 Q168.8438,130.7344 169.2656,130.2969 Q169.5313,130.0313 169.6719,129.9531 Q169.8281,129.875 170.0313,129.875 Q170.3594,129.875 170.6094,130.1406 Q170.875,130.3906 170.875,130.7344 Q170.875,131.0781 170.5313,131.4844 Q170.0313,132.0625 169.2344,132.3906 Q168.1563,132.8438 166.8594,132.8438 Q165.3438,132.8438 164.1406,132.2188 Q163.1563,131.7188 162.4688,130.6563 Q161.7813,129.5781 161.7813,128.2969 L161.7813,127.1406 Q161.7813,125.8125 162.3906,124.6719 Q163.0156,123.5156 164.1094,122.9063 Q165.2031,122.2813 166.4375,122.2813 Q167.1719,122.2813 167.8125,122.4531 Q168.4688,122.6094 169.0156,122.9688 Z " fill="#000000"/><text fill="#000000" font-family="sans-serif" font-size="14" lengthAdjust="spacing" textLength="93" x="186.75" y="126.5332">MIMLInstances</text><text fill="#000000" font-family="sans-serif" font-size="10" lengthAdjust="spacing" textLength="48" x="209.25" y="139.9902">miml.data</text><line style="stroke:#181818;stroke-width:0.5;" x1="8" x2="426" y1="147.1875" y2="147.1875"/><rect fill="none" height="6" style="stroke:#C82930;stroke-width:1.0;" width="6" x="15" y="158.4922"/><text fill="#000000" font-family="sans-serif" font-size="14" lengthAdjust="spacing" text-decoration="underline" textLength="139" x="27" y="165.7207">serialVersionUID: long</text><line style="stroke:#181818;stroke-width:0.5;" x1="8" x2="426" y1="172.7969" y2="172.7969"/><ellipse cx="18" cy="187.1016" fill="#84BE84" rx="3" ry="3" style="stroke:#038048;stroke-width:1.0;"/><text fill="#000000" font-family="sans-serif" font-size="14" lengthAdjust="spacing" textLength="208" x="27" y="191.3301">MIMLInstances(Instances, String)</text><ellipse cx="18" cy="204.7109" fill="#84BE84" rx="3" ry="3" style="stroke:#038048;stroke-width:1.0;"/><text fill="#000000" font-family="sans-serif" font-size="14" lengthAdjust="spacing" textLength="274" x="27" y="208.9395">MIMLInstances(Instances, LabelsMetaData)</text><ellipse cx="18" cy="222.3203" fill="#84BE84" rx="3" ry="3" style="stroke:#038048;stroke-width:1.0;"/><text fill="#000000" font-family="sans-serif" font-size="14" lengthAdjust="spacing" textLength="185" x="27" y="226.5488">MIMLInstances(String, String)</text><ellipse cx="18" cy="239.9297" fill="#84BE84" rx="3" ry="3" style="stroke:#038048;stroke-width:1.0;"/><text fill="#000000" font-family="sans-serif" font-size="14" lengthAdjust="spacing" textLength="163" x="27" y="244.1582">MIMLInstances(String, int)</text><ellipse cx="18" cy="257.5391" fill="#84BE84" rx="3" ry="3" style="stroke:#038048;stroke-width:1.0;"/><text fill="#000000" font-family="sans-serif" font-size="14" lengthAdjust="spacing" textLength="196" x="27" y="261.7676">MIMLInstances(MIMLInstances)</text><ellipse cx="18" cy="275.1484" fill="#84BE84" rx="3" ry="3" style="stroke:#038048;stroke-width:1.0;"/><text fill="#000000" font-family="sans-serif" font-size="14" lengthAdjust="spacing" textLength="136" x="27" y="279.377">getBag(int): MIMLBag</text><ellipse cx="18" cy="292.7578" fill="#84BE84" rx="3" ry="3" style="stroke:#038048;stroke-width:1.0;"/><text fill="#000000" font-family="sans-serif" font-size="14" lengthAdjust="spacing" textLength="214" x="27" y="296.9863">getBagAsInstances(int): Instances</text><ellipse cx="18" cy="310.3672" fill="#84BE84" rx="3" ry="3" style="stroke:#038048;stroke-width:1.0;"/><text fill="#000000" font-family="sans-serif" font-size="14" lengthAdjust="spacing" textLength="151" x="27" y="314.5957">addBag(MIMLBag): void</text><ellipse cx="18" cy="327.9766" fill="#84BE84" rx="3" ry="3" style="stroke:#038048;stroke-width:1.0;"/><text fill="#000000" font-family="sans-serif" font-size="14" lengthAdjust="spacing" textLength="202" x="27" y="332.2051">addInstance(MIMLBag, int): void</text><ellipse cx="18" cy="345.5859" fill="#84BE84" rx="3" ry="3" style="stroke:#038048;stroke-width:1.0;"/><text fill="#000000" font-family="sans-serif" font-size="14" lengthAdjust="spacing" textLength="182" x="27" y="349.8145">getInstance(int, int): Instance</text><ellipse cx="18" cy="363.1953" fill="#84BE84" rx="3" ry="3" style="stroke:#038048;stroke-width:1.0;"/><text fill="#000000" font-family="sans-serif" font-size="14" lengthAdjust="spacing" textLength="113" x="27" y="367.4238">getNumBags(): int</text><ellipse cx="18" cy="380.8047" fill="#84BE84" rx="3" ry="3" style="stroke:#038048;stroke-width:1.0;"/><text fill="#000000" font-family="sans-serif" font-size="14" lengthAdjust="spacing" textLength="156" x="27" y="385.0332">getNumInstances(int): int</text><ellipse cx="18" cy="398.4141" fill="#84BE84" rx="3" ry="3" style="stroke:#038048;stroke-width:1.0;"/><text fill="#000000" font-family="sans-serif" font-size="14" lengthAdjust="spacing" textLength="141" x="27" y="402.6426">getNumAttributes(): int</text><ellipse cx="18" cy="416.0234" fill="#84BE84" rx="3" ry="3" style="stroke:#038048;stroke-width:1.0;"/><text fill="#000000" font-family="sans-serif" font-size="14" lengthAdjust="spacing" textLength="232" x="27" y="420.252">getNumAttributesWithRelational(): int</text><ellipse cx="18" cy="433.6328" fill="#84BE84" rx="3" ry="3" style="stroke:#038048;stroke-width:1.0;"/><text fill="#000000" font-family="sans-serif" font-size="14" lengthAdjust="spacing" textLength="186" x="27" y="437.8613">getNumAttributesInABag(): int</text><ellipse cx="18" cy="451.2422" fill="#84BE84" rx="3" ry="3" style="stroke:#038048;stroke-width:1.0;"/><text fill="#000000" font-family="sans-serif" font-size="14" lengthAdjust="spacing" textLength="232" x="27" y="455.4707">getMLDataSet(): MultiLabelInstances</text><ellipse cx="18" cy="468.8516" fill="#84BE84" rx="3" ry="3" style="stroke:#038048;stroke-width:1.0;"/><text fill="#000000" font-family="sans-serif" font-size="14" lengthAdjust="spacing" textLength="301" x="27" y="473.0801">insertAttributeToBags(Attribute): MIMLInstances</text><ellipse cx="18" cy="486.4609" fill="#84BE84" rx="3" ry="3" style="stroke:#038048;stroke-width:1.0;"/><text fill="#000000" font-family="sans-serif" font-size="14" lengthAdjust="spacing" textLength="380" x="27" y="490.6895">insertAttributesToBags(ArrayList&lt;Attribute&gt;): MIMLInstances</text><ellipse cx="18" cy="504.0703" fill="#84BE84" rx="3" ry="3" style="stroke:#038048;stroke-width:1.0;"/><text fill="#000000" font-family="sans-serif" font-size="14" lengthAdjust="spacing" text-decoration="underline" textLength="394" x="27" y="508.2988">splitData(MIMLInstances, double, int, int): List&lt;MIMLInstances&gt;</text></g></a><!--MD5=[3ed131462d57feead0efe0f2d053e3f4]
class mulan.data.MultiLabelInstances--><g id="elem_mulan.data.MultiLabelInstances"><rect codeLine="28" fill="#F1F1F1" height="40.1875" id="mulan.data.MultiLabelInstances" rx="2.5" ry="2.5" style="stroke:#181818;stroke-width:0.5;" width="156" x="139" y="7"/><ellipse cx="154" cy="27.0938" fill="#ADD1B2" rx="11" ry="11" style="stroke:#181818;stroke-width:1.0;"/><path d="M156.7656,22.9688 Q156.9219,22.75 157.1094,22.6406 Q157.2969,22.5313 157.5156,22.5313 Q157.8906,22.5313 158.125,22.7969 Q158.3594,23.0469 158.3594,23.6563 L158.3594,25.1094 Q158.3594,25.7188 158.125,25.9844 Q157.8906,26.25 157.5156,26.25 Q157.1719,26.25 156.9688,26.0469 Q156.7656,25.8594 156.6563,25.3438 Q156.6094,24.9844 156.4219,24.7969 Q156.0938,24.4219 155.4844,24.2031 Q154.875,23.9844 154.25,23.9844 Q153.4844,23.9844 152.8438,24.3125 Q152.2188,24.6406 151.7188,25.3906 Q151.2344,26.1406 151.2344,27.1719 L151.2344,28.2656 Q151.2344,29.5 152.125,30.3281 Q153.0156,31.1406 154.6094,31.1406 Q155.5469,31.1406 156.2031,30.8906 Q156.5938,30.7344 157.0156,30.2969 Q157.2813,30.0313 157.4219,29.9531 Q157.5781,29.875 157.7813,29.875 Q158.1094,29.875 158.3594,30.1406 Q158.625,30.3906 158.625,30.7344 Q158.625,31.0781 158.2813,31.4844 Q157.7813,32.0625 156.9844,32.3906 Q155.9063,32.8438 154.6094,32.8438 Q153.0938,32.8438 151.8906,32.2188 Q150.9063,31.7188 150.2188,30.6563 Q149.5313,29.5781 149.5313,28.2969 L149.5313,27.1406 Q149.5313,25.8125 150.1406,24.6719 Q150.7656,23.5156 151.8594,22.9063 Q152.9531,22.2813 154.1875,22.2813 Q154.9219,22.2813 155.5625,22.4531 Q156.2188,22.6094 156.7656,22.9688 Z " fill="#000000"/><text fill="#000000" font-family="sans-serif" font-size="14" lengthAdjust="spacing" textLength="124" x="168" y="26.5332">MultiLabelInstances</text><text fill="#000000" font-family="sans-serif" font-size="10" lengthAdjust="spacing" textLength="54" x="203" y="39.9902">mulan.data</text></g><!--MD5=[d52ab245e90933ff28d08cc38836b1c4]
reverse link mulan.data.MultiLabelInstances to miml.data.MIMLInstances--><g id="link_mulan.data.MultiLabelInstances_miml.data.MIMLInstances"><path codeLine="30" d="M217,67.5 C217,79.01 217,92.45 217,106.99 " fill="none" id="mulan.data.MultiLabelInstances-backto-miml.data.MIMLInstances" style="stroke:#181818;stroke-width:1.0;"/><polygon fill="none" points="210,67.38,217,47.38,224,67.38,210,67.38" style="stroke:#181818;stroke-width:1.0;"/></g><rect fill="none" height="12.5781" style="stroke:none;stroke-width:1.0;" width="190" x="115" y="521.375"/><text fill="#888888" font-family="sans-serif" font-size="10" lengthAdjust="spacing" textLength="190" x="115" y="531.7559">UMLDoclet 2.0.20, PlantUML 1.2022.12</text><!--MD5=[a9a10807491fecfb4fb7d2cf981e4c3e]
@startuml
    set namespaceSeparator none
    hide empty fields
    hide empty methods

    class "<size:14>MIMLInstances\n<size:10>miml.data" as miml.data.MIMLInstances [[MIMLInstances.html]] {
        {static} -serialVersionUID: long
        +MIMLInstances(Instances, String)
        +MIMLInstances(Instances, LabelsMetaData)
        +MIMLInstances(String, String)
        +MIMLInstances(String, int)
        +MIMLInstances(MIMLInstances)
        +getBag(int): MIMLBag
        +getBagAsInstances(int): Instances
        +addBag(MIMLBag): void
        +addInstance(MIMLBag, int): void
        +getInstance(int, int): Instance
        +getNumBags(): int
        +getNumInstances(int): int
        +getNumAttributes(): int
        +getNumAttributesWithRelational(): int
        +getNumAttributesInABag(): int
        +getMLDataSet(): MultiLabelInstances
        +insertAttributeToBags(Attribute): MIMLInstances
        +insertAttributesToBags(ArrayList<Attribute>): MIMLInstances
        {static} +splitData(MIMLInstances, double, int, int): List<MIMLInstances>
    }

    class "<size:14>MultiLabelInstances\n<size:10>mulan.data" as mulan.data.MultiLabelInstances

    mulan.data.MultiLabelInstances <|- - miml.data.MIMLInstances

    center footer UMLDoclet 2.0.20, PlantUML 1.2022.12
@enduml

PlantUML version 1.2022.12(Sun Oct 23 20:12:26 CEST 2022)
(APACHE source distribution)
Java Runtime: OpenJDK Runtime Environment
JVM: OpenJDK 64-Bit Server VM
Default Encoding: Cp1252
Language: es
Country: ES
--></g></svg>