<?xml version="1.0" encoding="UTF-8" standalone="no"?><svg xmlns="http://www.w3.org/2000/svg" xmlns:xlink="http://www.w3.org/1999/xlink" contentStyleType="text/css" height="1219px" preserveAspectRatio="none" style="width:433px;height:1219px;background:#FFFFFF;" version="1.1" viewBox="0 0 433 1219" width="433px" zoomAndPan="magnify"><defs/><g><!--MD5=[04d0ffb25f8e0f73560e1aeba4260ca6]
class miml.data.MIMLBag--><a href="MIMLBag.html" target="_top" title="MIMLBag.html" xlink:actuate="onRequest" xlink:href="MIMLBag.html" xlink:show="new" xlink:title="MIMLBag.html" xlink:type="simple"><g id="elem_miml.data.MIMLBag"><rect codeLine="5" fill="#F1F1F1" height="197.0625" id="miml.data.MIMLBag" rx="2.5" ry="2.5" style="stroke:#181818;stroke-width:0.5;" width="258" x="54" y="996"/><ellipse cx="149.75" cy="1016.0938" fill="#ADD1B2" rx="11" ry="11" style="stroke:#181818;stroke-width:1.0;"/><path d="M152.5156,1011.9688 Q152.6719,1011.75 152.8594,1011.6406 Q153.0469,1011.5313 153.2656,1011.5313 Q153.6406,1011.5313 153.875,1011.7969 Q154.1094,1012.0469 154.1094,1012.6563 L154.1094,1014.1094 Q154.1094,1014.7188 153.875,1014.9844 Q153.6406,1015.25 153.2656,1015.25 Q152.9219,1015.25 152.7188,1015.0469 Q152.5156,1014.8594 152.4063,1014.3438 Q152.3594,1013.9844 152.1719,1013.7969 Q151.8438,1013.4219 151.2344,1013.2031 Q150.625,1012.9844 150,1012.9844 Q149.2344,1012.9844 148.5938,1013.3125 Q147.9688,1013.6406 147.4688,1014.3906 Q146.9844,1015.1406 146.9844,1016.1719 L146.9844,1017.2656 Q146.9844,1018.5 147.875,1019.3281 Q148.7656,1020.1406 150.3594,1020.1406 Q151.2969,1020.1406 151.9531,1019.8906 Q152.3438,1019.7344 152.7656,1019.2969 Q153.0313,1019.0313 153.1719,1018.9531 Q153.3281,1018.875 153.5313,1018.875 Q153.8594,1018.875 154.1094,1019.1406 Q154.375,1019.3906 154.375,1019.7344 Q154.375,1020.0781 154.0313,1020.4844 Q153.5313,1021.0625 152.7344,1021.3906 Q151.6563,1021.8438 150.3594,1021.8438 Q148.8438,1021.8438 147.6406,1021.2188 Q146.6563,1020.7188 145.9688,1019.6563 Q145.2813,1018.5781 145.2813,1017.2969 L145.2813,1016.1406 Q145.2813,1014.8125 145.8906,1013.6719 Q146.5156,1012.5156 147.6094,1011.9063 Q148.7031,1011.2813 149.9375,1011.2813 Q150.6719,1011.2813 151.3125,1011.4531 Q151.9688,1011.6094 152.5156,1011.9688 Z " fill="#000000"/><text fill="#000000" font-family="sans-serif" font-size="14" lengthAdjust="spacing" textLength="58" x="170.25" y="1015.5332">MIMLBag</text><text fill="#000000" font-family="sans-serif" font-size="10" lengthAdjust="spacing" textLength="48" x="175.25" y="1028.9902">miml.data</text><line style="stroke:#181818;stroke-width:0.5;" x1="55" x2="311" y1="1036.1875" y2="1036.1875"/><rect fill="none" height="6" style="stroke:#C82930;stroke-width:1.0;" width="6" x="62" y="1047.4922"/><text fill="#000000" font-family="sans-serif" font-size="14" lengthAdjust="spacing" text-decoration="underline" textLength="139" x="74" y="1054.7207">serialVersionUID: long</text><line style="stroke:#181818;stroke-width:0.5;" x1="55" x2="311" y1="1061.7969" y2="1061.7969"/><ellipse cx="65" cy="1076.1016" fill="#84BE84" rx="3" ry="3" style="stroke:#038048;stroke-width:1.0;"/><text fill="#000000" font-family="sans-serif" font-size="14" lengthAdjust="spacing" textLength="121" x="74" y="1080.3301">MIMLBag(Instance)</text><ellipse cx="65" cy="1093.7109" fill="#84BE84" rx="3" ry="3" style="stroke:#038048;stroke-width:1.0;"/><text fill="#000000" font-family="sans-serif" font-size="14" lengthAdjust="spacing" textLength="159" x="74" y="1097.9395">getInstance(int): Instance</text><ellipse cx="65" cy="1111.3203" fill="#84BE84" rx="3" ry="3" style="stroke:#038048;stroke-width:1.0;"/><text fill="#000000" font-family="sans-serif" font-size="14" lengthAdjust="spacing" textLength="232" x="74" y="1115.5488">getNumAttributesWithRelational(): int</text><ellipse cx="65" cy="1128.9297" fill="#84BE84" rx="3" ry="3" style="stroke:#038048;stroke-width:1.0;"/><text fill="#000000" font-family="sans-serif" font-size="14" lengthAdjust="spacing" textLength="186" x="74" y="1133.1582">getNumAttributesInABag(): int</text><ellipse cx="65" cy="1146.5391" fill="#84BE84" rx="3" ry="3" style="stroke:#038048;stroke-width:1.0;"/><text fill="#000000" font-family="sans-serif" font-size="14" lengthAdjust="spacing" textLength="141" x="74" y="1150.7676">getNumInstances(): int</text><ellipse cx="65" cy="1164.1484" fill="#84BE84" rx="3" ry="3" style="stroke:#038048;stroke-width:1.0;"/><text fill="#000000" font-family="sans-serif" font-size="14" lengthAdjust="spacing" textLength="199" x="74" y="1168.377">getBagAsInstances(): Instances</text><ellipse cx="65" cy="1181.7578" fill="#84BE84" rx="3" ry="3" style="stroke:#038048;stroke-width:1.0;"/><text fill="#000000" font-family="sans-serif" font-size="14" lengthAdjust="spacing" textLength="188" x="74" y="1185.9863">setValue(int, int, double): void</text></g></a><!--MD5=[a9cf7430fc1fb3bac7b2f9abc5a15249]
class weka.core.DenseInstance--><g id="elem_weka.core.DenseInstance"><rect codeLine="16" fill="#F1F1F1" height="40.1875" id="weka.core.DenseInstance" rx="2.5" ry="2.5" style="stroke:#181818;stroke-width:0.5;" width="126" x="7" y="451.5"/><ellipse cx="22" cy="471.5938" fill="#ADD1B2" rx="11" ry="11" style="stroke:#181818;stroke-width:1.0;"/><path d="M24.7656,467.4688 Q24.9219,467.25 25.1094,467.1406 Q25.2969,467.0313 25.5156,467.0313 Q25.8906,467.0313 26.125,467.2969 Q26.3594,467.5469 26.3594,468.1563 L26.3594,469.6094 Q26.3594,470.2188 26.125,470.4844 Q25.8906,470.75 25.5156,470.75 Q25.1719,470.75 24.9688,470.5469 Q24.7656,470.3594 24.6563,469.8438 Q24.6094,469.4844 24.4219,469.2969 Q24.0938,468.9219 23.4844,468.7031 Q22.875,468.4844 22.25,468.4844 Q21.4844,468.4844 20.8438,468.8125 Q20.2188,469.1406 19.7188,469.8906 Q19.2344,470.6406 19.2344,471.6719 L19.2344,472.7656 Q19.2344,474 20.125,474.8281 Q21.0156,475.6406 22.6094,475.6406 Q23.5469,475.6406 24.2031,475.3906 Q24.5938,475.2344 25.0156,474.7969 Q25.2813,474.5313 25.4219,474.4531 Q25.5781,474.375 25.7813,474.375 Q26.1094,474.375 26.3594,474.6406 Q26.625,474.8906 26.625,475.2344 Q26.625,475.5781 26.2813,475.9844 Q25.7813,476.5625 24.9844,476.8906 Q23.9063,477.3438 22.6094,477.3438 Q21.0938,477.3438 19.8906,476.7188 Q18.9063,476.2188 18.2188,475.1563 Q17.5313,474.0781 17.5313,472.7969 L17.5313,471.6406 Q17.5313,470.3125 18.1406,469.1719 Q18.7656,468.0156 19.8594,467.4063 Q20.9531,466.7813 22.1875,466.7813 Q22.9219,466.7813 23.5625,466.9531 Q24.2188,467.1094 24.7656,467.4688 Z " fill="#000000"/><text fill="#000000" font-family="sans-serif" font-size="14" lengthAdjust="spacing" textLength="94" x="36" y="471.0332">DenseInstance</text><text fill="#000000" font-family="sans-serif" font-size="10" lengthAdjust="spacing" textLength="47" x="59.5" y="484.4902">weka.core</text></g><!--MD5=[a1520697952151669277dee4d659c1fd]
class weka.core.Instance--><g id="elem_weka.core.Instance"><rect codeLine="17" fill="#F1F1F1" height="928.6563" id="weka.core.Instance" rx="2.5" ry="2.5" style="stroke:#181818;stroke-width:0.5;" width="258" x="168" y="7"/><ellipse cx="265.75" cy="27.0938" fill="#B4A7E5" rx="11" ry="11" style="stroke:#181818;stroke-width:1.0;"/><path d="M266.7031,23.7344 L266.7031,30.3906 L268.4219,30.3906 Q269.0313,30.3906 269.2969,30.625 Q269.5625,30.8594 269.5625,31.25 Q269.5625,31.625 269.2969,31.8594 Q269.0313,32.0938 268.4219,32.0938 L263.2813,32.0938 Q262.6719,32.0938 262.4063,31.8594 Q262.1406,31.625 262.1406,31.2344 Q262.1406,30.8594 262.4063,30.625 Q262.6719,30.3906 263.2813,30.3906 L265,30.3906 L265,23.7344 L263.2813,23.7344 Q262.6719,23.7344 262.4063,23.5 Q262.1406,23.2656 262.1406,22.875 Q262.1406,22.5 262.4063,22.2656 Q262.6719,22.0313 263.2813,22.0313 L268.4219,22.0313 Q269.0313,22.0313 269.2969,22.2656 Q269.5625,22.5 269.5625,22.875 Q269.5625,23.2656 269.2969,23.5 Q269.0313,23.7344 268.4219,23.7344 L266.7031,23.7344 Z " fill="#000000"/><text fill="#000000" font-family="sans-serif" font-size="14" font-style="italic" lengthAdjust="spacing" textLength="54" x="286.25" y="26.5332">Instance</text><text fill="#000000" font-family="sans-serif" font-size="10" font-style="italic" lengthAdjust="spacing" textLength="48" x="289.25" y="39.9902">weka.core</text><line style="stroke:#181818;stroke-width:0.5;" x1="169" x2="425" y1="47.1875" y2="47.1875"/><ellipse cx="179" cy="61.4922" fill="#84BE84" rx="3" ry="3" style="stroke:#038048;stroke-width:1.0;"/><text fill="#000000" font-family="sans-serif" font-size="14" font-style="italic" lengthAdjust="spacing" textLength="138" x="188" y="65.7207">attribute(int): Attribute</text><ellipse cx="179" cy="79.1016" fill="#84BE84" rx="3" ry="3" style="stroke:#038048;stroke-width:1.0;"/><text fill="#000000" font-family="sans-serif" font-size="14" font-style="italic" lengthAdjust="spacing" textLength="183" x="188" y="83.3301">attributeSparse(int): Attribute</text><ellipse cx="179" cy="96.7109" fill="#84BE84" rx="3" ry="3" style="stroke:#038048;stroke-width:1.0;"/><text fill="#000000" font-family="sans-serif" font-size="14" font-style="italic" lengthAdjust="spacing" textLength="156" x="188" y="100.9395">classAttribute(): Attribute</text><ellipse cx="179" cy="114.3203" fill="#84BE84" rx="3" ry="3" style="stroke:#038048;stroke-width:1.0;"/><text fill="#000000" font-family="sans-serif" font-size="14" font-style="italic" lengthAdjust="spacing" textLength="99" x="188" y="118.5488">classIndex(): int</text><ellipse cx="179" cy="131.9297" fill="#84BE84" rx="3" ry="3" style="stroke:#038048;stroke-width:1.0;"/><text fill="#000000" font-family="sans-serif" font-size="14" font-style="italic" lengthAdjust="spacing" textLength="160" x="188" y="136.1582">classIsMissing(): boolean</text><ellipse cx="179" cy="149.5391" fill="#84BE84" rx="3" ry="3" style="stroke:#038048;stroke-width:1.0;"/><text fill="#000000" font-family="sans-serif" font-size="14" font-style="italic" lengthAdjust="spacing" textLength="129" x="188" y="153.7676">classValue(): double</text><ellipse cx="179" cy="167.1484" fill="#84BE84" rx="3" ry="3" style="stroke:#038048;stroke-width:1.0;"/><text fill="#000000" font-family="sans-serif" font-size="14" font-style="italic" lengthAdjust="spacing" textLength="126" x="188" y="171.377">dataset(): Instances</text><ellipse cx="179" cy="184.7578" fill="#84BE84" rx="3" ry="3" style="stroke:#038048;stroke-width:1.0;"/><text fill="#000000" font-family="sans-serif" font-size="14" font-style="italic" lengthAdjust="spacing" textLength="163" x="188" y="188.9863">deleteAttributeAt(int): void</text><ellipse cx="179" cy="202.3672" fill="#84BE84" rx="3" ry="3" style="stroke:#038048;stroke-width:1.0;"/><text fill="#000000" font-family="sans-serif" font-size="14" font-style="italic" lengthAdjust="spacing" textLength="226" x="188" y="206.5957">enumerateAttributes(): Enumeration</text><ellipse cx="179" cy="219.9766" fill="#84BE84" rx="3" ry="3" style="stroke:#038048;stroke-width:1.0;"/><text fill="#000000" font-family="sans-serif" font-size="14" font-style="italic" lengthAdjust="spacing" textLength="212" x="188" y="224.2051">equalHeaders(Instance): boolean</text><ellipse cx="179" cy="237.5859" fill="#84BE84" rx="3" ry="3" style="stroke:#038048;stroke-width:1.0;"/><text fill="#000000" font-family="sans-serif" font-size="14" font-style="italic" lengthAdjust="spacing" textLength="225" x="188" y="241.8145">equalHeadersMsg(Instance): String</text><ellipse cx="179" cy="255.1953" fill="#84BE84" rx="3" ry="3" style="stroke:#038048;stroke-width:1.0;"/><text fill="#000000" font-family="sans-serif" font-size="14" font-style="italic" lengthAdjust="spacing" textLength="176" x="188" y="259.4238">hasMissingValue(): boolean</text><ellipse cx="179" cy="272.8047" fill="#84BE84" rx="3" ry="3" style="stroke:#038048;stroke-width:1.0;"/><text fill="#000000" font-family="sans-serif" font-size="14" font-style="italic" lengthAdjust="spacing" textLength="81" x="188" y="277.0332">index(int): int</text><ellipse cx="179" cy="290.4141" fill="#84BE84" rx="3" ry="3" style="stroke:#038048;stroke-width:1.0;"/><text fill="#000000" font-family="sans-serif" font-size="14" font-style="italic" lengthAdjust="spacing" textLength="159" x="188" y="294.6426">insertAttributeAt(int): void</text><ellipse cx="179" cy="308.0234" fill="#84BE84" rx="3" ry="3" style="stroke:#038048;stroke-width:1.0;"/><text fill="#000000" font-family="sans-serif" font-size="14" font-style="italic" lengthAdjust="spacing" textLength="142" x="188" y="312.252">isMissing(int): boolean</text><ellipse cx="179" cy="325.6328" fill="#84BE84" rx="3" ry="3" style="stroke:#038048;stroke-width:1.0;"/><text fill="#000000" font-family="sans-serif" font-size="14" font-style="italic" lengthAdjust="spacing" textLength="187" x="188" y="329.8613">isMissingSparse(int): boolean</text><ellipse cx="179" cy="343.2422" fill="#84BE84" rx="3" ry="3" style="stroke:#038048;stroke-width:1.0;"/><text fill="#000000" font-family="sans-serif" font-size="14" font-style="italic" lengthAdjust="spacing" textLength="180" x="188" y="347.4707">isMissing(Attribute): boolean</text><ellipse cx="179" cy="360.8516" fill="#84BE84" rx="3" ry="3" style="stroke:#038048;stroke-width:1.0;"/><text fill="#000000" font-family="sans-serif" font-size="14" font-style="italic" lengthAdjust="spacing" textLength="220" x="188" y="365.0801">mergeInstance(Instance): Instance</text><ellipse cx="179" cy="378.4609" fill="#84BE84" rx="3" ry="3" style="stroke:#038048;stroke-width:1.0;"/><text fill="#000000" font-family="sans-serif" font-size="14" font-style="italic" lengthAdjust="spacing" textLength="120" x="188" y="382.6895">numAttributes(): int</text><ellipse cx="179" cy="396.0703" fill="#84BE84" rx="3" ry="3" style="stroke:#038048;stroke-width:1.0;"/><text fill="#000000" font-family="sans-serif" font-size="14" font-style="italic" lengthAdjust="spacing" textLength="110" x="188" y="400.2988">numClasses(): int</text><ellipse cx="179" cy="413.6797" fill="#84BE84" rx="3" ry="3" style="stroke:#038048;stroke-width:1.0;"/><text fill="#000000" font-family="sans-serif" font-size="14" font-style="italic" lengthAdjust="spacing" textLength="103" x="188" y="417.9082">numValues(): int</text><ellipse cx="179" cy="431.2891" fill="#84BE84" rx="3" ry="3" style="stroke:#038048;stroke-width:1.0;"/><text fill="#000000" font-family="sans-serif" font-size="14" font-style="italic" lengthAdjust="spacing" textLength="232" x="188" y="435.5176">replaceMissingValues(double[]): void</text><ellipse cx="179" cy="448.8984" fill="#84BE84" rx="3" ry="3" style="stroke:#038048;stroke-width:1.0;"/><text fill="#000000" font-family="sans-serif" font-size="14" font-style="italic" lengthAdjust="spacing" textLength="145" x="188" y="453.127">setClassMissing(): void</text><ellipse cx="179" cy="466.5078" fill="#84BE84" rx="3" ry="3" style="stroke:#038048;stroke-width:1.0;"/><text fill="#000000" font-family="sans-serif" font-size="14" font-style="italic" lengthAdjust="spacing" textLength="176" x="188" y="470.7363">setClassValue(double): void</text><ellipse cx="179" cy="484.1172" fill="#84BE84" rx="3" ry="3" style="stroke:#038048;stroke-width:1.0;"/><text fill="#000000" font-family="sans-serif" font-size="14" font-style="italic" lengthAdjust="spacing" textLength="170" x="188" y="488.3457">setClassValue(String): void</text><ellipse cx="179" cy="501.7266" fill="#84BE84" rx="3" ry="3" style="stroke:#038048;stroke-width:1.0;"/><text fill="#000000" font-family="sans-serif" font-size="14" font-style="italic" lengthAdjust="spacing" textLength="172" x="188" y="505.9551">setDataset(Instances): void</text><ellipse cx="179" cy="519.3359" fill="#84BE84" rx="3" ry="3" style="stroke:#038048;stroke-width:1.0;"/><text fill="#000000" font-family="sans-serif" font-size="14" font-style="italic" lengthAdjust="spacing" textLength="125" x="188" y="523.5645">setMissing(int): void</text><ellipse cx="179" cy="536.9453" fill="#84BE84" rx="3" ry="3" style="stroke:#038048;stroke-width:1.0;"/><text fill="#000000" font-family="sans-serif" font-size="14" font-style="italic" lengthAdjust="spacing" textLength="163" x="188" y="541.1738">setMissing(Attribute): void</text><ellipse cx="179" cy="554.5547" fill="#84BE84" rx="3" ry="3" style="stroke:#038048;stroke-width:1.0;"/><text fill="#000000" font-family="sans-serif" font-size="14" font-style="italic" lengthAdjust="spacing" textLength="164" x="188" y="558.7832">setValue(int, double): void</text><ellipse cx="179" cy="572.1641" fill="#84BE84" rx="3" ry="3" style="stroke:#038048;stroke-width:1.0;"/><text fill="#000000" font-family="sans-serif" font-size="14" font-style="italic" lengthAdjust="spacing" textLength="209" x="188" y="576.3926">setValueSparse(int, double): void</text><ellipse cx="179" cy="589.7734" fill="#84BE84" rx="3" ry="3" style="stroke:#038048;stroke-width:1.0;"/><text fill="#000000" font-family="sans-serif" font-size="14" font-style="italic" lengthAdjust="spacing" textLength="158" x="188" y="594.002">setValue(int, String): void</text><ellipse cx="179" cy="607.3828" fill="#84BE84" rx="3" ry="3" style="stroke:#038048;stroke-width:1.0;"/><text fill="#000000" font-family="sans-serif" font-size="14" font-style="italic" lengthAdjust="spacing" textLength="202" x="188" y="611.6113">setValue(Attribute, double): void</text><ellipse cx="179" cy="624.9922" fill="#84BE84" rx="3" ry="3" style="stroke:#038048;stroke-width:1.0;"/><text fill="#000000" font-family="sans-serif" font-size="14" font-style="italic" lengthAdjust="spacing" textLength="196" x="188" y="629.2207">setValue(Attribute, String): void</text><ellipse cx="179" cy="642.6016" fill="#84BE84" rx="3" ry="3" style="stroke:#038048;stroke-width:1.0;"/><text fill="#000000" font-family="sans-serif" font-size="14" font-style="italic" lengthAdjust="spacing" textLength="150" x="188" y="646.8301">setWeight(double): void</text><ellipse cx="179" cy="660.2109" fill="#84BE84" rx="3" ry="3" style="stroke:#038048;stroke-width:1.0;"/><text fill="#000000" font-family="sans-serif" font-size="14" font-style="italic" lengthAdjust="spacing" textLength="188" x="188" y="664.4395">relationalValue(int): Instances</text><ellipse cx="179" cy="677.8203" fill="#84BE84" rx="3" ry="3" style="stroke:#038048;stroke-width:1.0;"/><text fill="#000000" font-family="sans-serif" font-size="14" font-style="italic" lengthAdjust="spacing" textLength="226" x="188" y="682.0488">relationalValue(Attribute): Instances</text><ellipse cx="179" cy="695.4297" fill="#84BE84" rx="3" ry="3" style="stroke:#038048;stroke-width:1.0;"/><text fill="#000000" font-family="sans-serif" font-size="14" font-style="italic" lengthAdjust="spacing" textLength="141" x="188" y="699.6582">stringValue(int): String</text><ellipse cx="179" cy="713.0391" fill="#84BE84" rx="3" ry="3" style="stroke:#038048;stroke-width:1.0;"/><text fill="#000000" font-family="sans-serif" font-size="14" font-style="italic" lengthAdjust="spacing" textLength="179" x="188" y="717.2676">stringValue(Attribute): String</text><ellipse cx="179" cy="730.6484" fill="#84BE84" rx="3" ry="3" style="stroke:#038048;stroke-width:1.0;"/><text fill="#000000" font-family="sans-serif" font-size="14" font-style="italic" lengthAdjust="spacing" textLength="160" x="188" y="734.877">toDoubleArray(): double[]</text><ellipse cx="179" cy="748.2578" fill="#84BE84" rx="3" ry="3" style="stroke:#038048;stroke-width:1.0;"/><text fill="#000000" font-family="sans-serif" font-size="14" font-style="italic" lengthAdjust="spacing" textLength="182" x="188" y="752.4863">toStringNoWeight(int): String</text><ellipse cx="179" cy="765.8672" fill="#84BE84" rx="3" ry="3" style="stroke:#038048;stroke-width:1.0;"/><text fill="#000000" font-family="sans-serif" font-size="14" font-style="italic" lengthAdjust="spacing" textLength="167" x="188" y="770.0957">toStringNoWeight(): String</text><ellipse cx="179" cy="783.4766" fill="#84BE84" rx="3" ry="3" style="stroke:#038048;stroke-width:1.0;"/><text fill="#000000" font-family="sans-serif" font-size="14" font-style="italic" lengthAdjust="spacing" textLength="230" x="188" y="787.7051">toStringMaxDecimalDigits(int): String</text><ellipse cx="179" cy="801.0859" fill="#84BE84" rx="3" ry="3" style="stroke:#038048;stroke-width:1.0;"/><text fill="#000000" font-family="sans-serif" font-size="14" font-style="italic" lengthAdjust="spacing" textLength="142" x="188" y="805.3145">toString(int, int): String</text><ellipse cx="179" cy="818.6953" fill="#84BE84" rx="3" ry="3" style="stroke:#038048;stroke-width:1.0;"/><text fill="#000000" font-family="sans-serif" font-size="14" font-style="italic" lengthAdjust="spacing" textLength="119" x="188" y="822.9238">toString(int): String</text><ellipse cx="179" cy="836.3047" fill="#84BE84" rx="3" ry="3" style="stroke:#038048;stroke-width:1.0;"/><text fill="#000000" font-family="sans-serif" font-size="14" font-style="italic" lengthAdjust="spacing" textLength="180" x="188" y="840.5332">toString(Attribute, int): String</text><ellipse cx="179" cy="853.9141" fill="#84BE84" rx="3" ry="3" style="stroke:#038048;stroke-width:1.0;"/><text fill="#000000" font-family="sans-serif" font-size="14" font-style="italic" lengthAdjust="spacing" textLength="157" x="188" y="858.1426">toString(Attribute): String</text><ellipse cx="179" cy="871.5234" fill="#84BE84" rx="3" ry="3" style="stroke:#038048;stroke-width:1.0;"/><text fill="#000000" font-family="sans-serif" font-size="14" font-style="italic" lengthAdjust="spacing" textLength="109" x="188" y="875.752">value(int): double</text><ellipse cx="179" cy="889.1328" fill="#84BE84" rx="3" ry="3" style="stroke:#038048;stroke-width:1.0;"/><text fill="#000000" font-family="sans-serif" font-size="14" font-style="italic" lengthAdjust="spacing" textLength="154" x="188" y="893.3613">valueSparse(int): double</text><ellipse cx="179" cy="906.7422" fill="#84BE84" rx="3" ry="3" style="stroke:#038048;stroke-width:1.0;"/><text fill="#000000" font-family="sans-serif" font-size="14" font-style="italic" lengthAdjust="spacing" textLength="147" x="188" y="910.9707">value(Attribute): double</text><ellipse cx="179" cy="924.3516" fill="#84BE84" rx="3" ry="3" style="stroke:#038048;stroke-width:1.0;"/><text fill="#000000" font-family="sans-serif" font-size="14" font-style="italic" lengthAdjust="spacing" textLength="101" x="188" y="928.5801">weight(): double</text></g><!--MD5=[8efff45737633753ab909f79c2721f44]
reverse link weka.core.DenseInstance to miml.data.MIMLBag--><g id="link_weka.core.DenseInstance_miml.data.MIMLBag"><path codeLine="70" d="M76.24,511.47 C89.14,591.29 120.03,779.07 150,936 C153.7,955.35 157.86,975.98 161.95,995.73 " fill="none" id="weka.core.DenseInstance-backto-miml.data.MIMLBag" style="stroke:#181818;stroke-width:1.0;"/><polygon fill="none" points="69.3,512.39,73.03,491.53,83.12,510.16,69.3,512.39" style="stroke:#181818;stroke-width:1.0;"/></g><!--MD5=[953a5ea6c2a9584834f24f6ab1e80ef2]
reverse link weka.core.Instance to miml.data.MIMLBag--><g id="link_weka.core.Instance_miml.data.MIMLBag"><path codeLine="71" d="M208.16,956.43 C205.62,970.29 203.2,983.48 200.93,995.8 " fill="none" id="weka.core.Instance-backto-miml.data.MIMLBag" style="stroke:#181818;stroke-width:1.0;stroke-dasharray:7.0,7.0;"/><polygon fill="none" points="201.34,954.8,211.84,936.39,215.11,957.33,201.34,954.8" style="stroke:#181818;stroke-width:1.0;"/></g><rect fill="none" height="12.5781" style="stroke:none;stroke-width:1.0;" width="190" x="114.5" y="1199.0625"/><text fill="#888888" font-family="sans-serif" font-size="10" lengthAdjust="spacing" textLength="190" x="114.5" y="1209.4434">UMLDoclet 2.0.20, PlantUML 1.2022.12</text><!--MD5=[cbc7ea025064b6ade6f83f556f860c29]
@startuml
    set namespaceSeparator none
    hide empty fields
    hide empty methods

    class "<size:14>MIMLBag\n<size:10>miml.data" as miml.data.MIMLBag [[MIMLBag.html]] {
        {static} -serialVersionUID: long
        +MIMLBag(Instance)
        +getInstance(int): Instance
        +getNumAttributesWithRelational(): int
        +getNumAttributesInABag(): int
        +getNumInstances(): int
        +getBagAsInstances(): Instances
        +setValue(int, int, double): void
    }

    class "<size:14>DenseInstance\n<size:10>weka.core" as weka.core.DenseInstance
    interface "<size:14>Instance\n<size:10>weka.core" as weka.core.Instance {
        {abstract} +attribute(int): Attribute
        {abstract} +attributeSparse(int): Attribute
        {abstract} +classAttribute(): Attribute
        {abstract} +classIndex(): int
        {abstract} +classIsMissing(): boolean
        {abstract} +classValue(): double
        {abstract} +dataset(): Instances
        {abstract} +deleteAttributeAt(int): void
        {abstract} +enumerateAttributes(): Enumeration
        {abstract} +equalHeaders(Instance): boolean
        {abstract} +equalHeadersMsg(Instance): String
        {abstract} +hasMissingValue(): boolean
        {abstract} +index(int): int
        {abstract} +insertAttributeAt(int): void
        {abstract} +isMissing(int): boolean
        {abstract} +isMissingSparse(int): boolean
        {abstract} +isMissing(Attribute): boolean
        {abstract} +mergeInstance(Instance): Instance
        {abstract} +numAttributes(): int
        {abstract} +numClasses(): int
        {abstract} +numValues(): int
        {abstract} +replaceMissingValues(double[]): void
        {abstract} +setClassMissing(): void
        {abstract} +setClassValue(double): void
        {abstract} +setClassValue(String): void
        {abstract} +setDataset(Instances): void
        {abstract} +setMissing(int): void
        {abstract} +setMissing(Attribute): void
        {abstract} +setValue(int, double): void
        {abstract} +setValueSparse(int, double): void
        {abstract} +setValue(int, String): void
        {abstract} +setValue(Attribute, double): void
        {abstract} +setValue(Attribute, String): void
        {abstract} +setWeight(double): void
        {abstract} +relationalValue(int): Instances
        {abstract} +relationalValue(Attribute): Instances
        {abstract} +stringValue(int): String
        {abstract} +stringValue(Attribute): String
        {abstract} +toDoubleArray(): double[]
        {abstract} +toStringNoWeight(int): String
        {abstract} +toStringNoWeight(): String
        {abstract} +toStringMaxDecimalDigits(int): String
        {abstract} +toString(int, int): String
        {abstract} +toString(int): String
        {abstract} +toString(Attribute, int): String
        {abstract} +toString(Attribute): String
        {abstract} +value(int): double
        {abstract} +valueSparse(int): double
        {abstract} +value(Attribute): double
        {abstract} +weight(): double
    }

    weka.core.DenseInstance <|- - miml.data.MIMLBag
    weka.core.Instance <|.. miml.data.MIMLBag

    center footer UMLDoclet 2.0.20, PlantUML 1.2022.12
@enduml

PlantUML version 1.2022.12(Sun Oct 23 20:12:26 CEST 2022)
(APACHE source distribution)
Java Runtime: OpenJDK Runtime Environment
JVM: OpenJDK 64-Bit Server VM
Default Encoding: Cp1252
Language: es
Country: ES
--></g></svg>