<?xml version="1.0" encoding="UTF-8" standalone="no"?><svg xmlns="http://www.w3.org/2000/svg" xmlns:xlink="http://www.w3.org/1999/xlink" contentStyleType="text/css" height="337px" preserveAspectRatio="none" style="width:327px;height:337px;background:#FFFFFF;" version="1.1" viewBox="0 0 327 337" width="327px" zoomAndPan="magnify"><defs/><g><!--MD5=[bbe2d4331210c0e6a8cae9e603078d49]
class miml.data.MWTranslator--><a href="MWTranslator.html" target="_top" title="MWTranslator.html" xlink:actuate="onRequest" xlink:href="MWTranslator.html" xlink:show="new" xlink:title="MWTranslator.html" xlink:type="simple"><g id="elem_miml.data.MWTranslator"><rect codeLine="5" fill="#F1F1F1" height="302.7188" id="miml.data.MWTranslator" rx="2.5" ry="2.5" style="stroke:#181818;stroke-width:0.5;" width="306" x="7" y="7"/><ellipse cx="111.25" cy="27.0938" fill="#ADD1B2" rx="11" ry="11" style="stroke:#181818;stroke-width:1.0;"/><path d="M114.0156,22.9688 Q114.1719,22.75 114.3594,22.6406 Q114.5469,22.5313 114.7656,22.5313 Q115.1406,22.5313 115.375,22.7969 Q115.6094,23.0469 115.6094,23.6563 L115.6094,25.1094 Q115.6094,25.7188 115.375,25.9844 Q115.1406,26.25 114.7656,26.25 Q114.4219,26.25 114.2188,26.0469 Q114.0156,25.8594 113.9063,25.3438 Q113.8594,24.9844 113.6719,24.7969 Q113.3438,24.4219 112.7344,24.2031 Q112.125,23.9844 111.5,23.9844 Q110.7344,23.9844 110.0938,24.3125 Q109.4688,24.6406 108.9688,25.3906 Q108.4844,26.1406 108.4844,27.1719 L108.4844,28.2656 Q108.4844,29.5 109.375,30.3281 Q110.2656,31.1406 111.8594,31.1406 Q112.7969,31.1406 113.4531,30.8906 Q113.8438,30.7344 114.2656,30.2969 Q114.5313,30.0313 114.6719,29.9531 Q114.8281,29.875 115.0313,29.875 Q115.3594,29.875 115.6094,30.1406 Q115.875,30.3906 115.875,30.7344 Q115.875,31.0781 115.5313,31.4844 Q115.0313,32.0625 114.2344,32.3906 Q113.1563,32.8438 111.8594,32.8438 Q110.3438,32.8438 109.1406,32.2188 Q108.1563,31.7188 107.4688,30.6563 Q106.7813,29.5781 106.7813,28.2969 L106.7813,27.1406 Q106.7813,25.8125 107.3906,24.6719 Q108.0156,23.5156 109.1094,22.9063 Q110.2031,22.2813 111.4375,22.2813 Q112.1719,22.2813 112.8125,22.4531 Q113.4688,22.6094 114.0156,22.9688 Z " fill="#000000"/><text fill="#000000" font-family="sans-serif" font-size="14" lengthAdjust="spacing" textLength="89" x="131.75" y="26.5332">MWTranslator</text><text fill="#000000" font-family="sans-serif" font-size="10" lengthAdjust="spacing" textLength="48" x="152.25" y="39.9902">miml.data</text><line style="stroke:#181818;stroke-width:0.5;" x1="8" x2="312" y1="47.1875" y2="47.1875"/><polygon fill="none" points="18,57.4922,14,63.4922,22,63.4922" style="stroke:#1963A0;stroke-width:1.0;"/><text fill="#000000" font-family="sans-serif" font-size="14" lengthAdjust="spacing" textLength="180" x="27" y="65.7207">mimlDataSet: MIMLInstances</text><polygon fill="none" points="18,75.1016,14,81.1016,22,81.1016" style="stroke:#1963A0;stroke-width:1.0;"/><text fill="#000000" font-family="sans-serif" font-size="14" lengthAdjust="spacing" textLength="63" x="27" y="83.3301">nBags: int</text><polygon fill="none" points="18,92.7109,14,98.7109,22,98.7109" style="stroke:#1963A0;stroke-width:1.0;"/><text fill="#000000" font-family="sans-serif" font-size="14" lengthAdjust="spacing" textLength="73" x="27" y="100.9395">nLabels: int</text><polygon fill="none" points="18,110.3203,14,116.3203,22,116.3203" style="stroke:#1963A0;stroke-width:1.0;"/><text fill="#000000" font-family="sans-serif" font-size="14" lengthAdjust="spacing" textLength="129" x="27" y="118.5488">attributesPerBag: int</text><polygon fill="none" points="18,127.9297,14,133.9297,22,133.9297" style="stroke:#1963A0;stroke-width:1.0;"/><text fill="#000000" font-family="sans-serif" font-size="14" lengthAdjust="spacing" textLength="105" x="27" y="136.1582">labelIndices: int[]</text><line style="stroke:#181818;stroke-width:0.5;" x1="8" x2="312" y1="143.2344" y2="143.2344"/><ellipse cx="18" cy="157.5391" fill="#84BE84" rx="3" ry="3" style="stroke:#038048;stroke-width:1.0;"/><text fill="#000000" font-family="sans-serif" font-size="14" lengthAdjust="spacing" textLength="192" x="27" y="161.7676">MWTranslator(MIMLInstances)</text><ellipse cx="18" cy="175.1484" fill="#84BE84" rx="3" ry="3" style="stroke:#038048;stroke-width:1.0;"/><text fill="#000000" font-family="sans-serif" font-size="14" lengthAdjust="spacing" textLength="152" x="27" y="179.377">getBags(): MWCellArray</text><ellipse cx="18" cy="192.7578" fill="#84BE84" rx="3" ry="3" style="stroke:#038048;stroke-width:1.0;"/><text fill="#000000" font-family="sans-serif" font-size="14" lengthAdjust="spacing" textLength="189" x="27" y="196.9863">getLabels(): MWNumericArray</text><ellipse cx="18" cy="210.3672" fill="#84BE84" rx="3" ry="3" style="stroke:#038048;stroke-width:1.0;"/><text fill="#000000" font-family="sans-serif" font-size="14" lengthAdjust="spacing" textLength="243" x="27" y="214.5957">getBagAsCell(MIMLBag): MWCellArray</text><ellipse cx="18" cy="227.9766" fill="#84BE84" rx="3" ry="3" style="stroke:#038048;stroke-width:1.0;"/><text fill="#000000" font-family="sans-serif" font-size="14" lengthAdjust="spacing" textLength="200" x="27" y="232.2051">getBagAsCell(int): MWCellArray</text><ellipse cx="18" cy="245.5859" fill="#84BE84" rx="3" ry="3" style="stroke:#038048;stroke-width:1.0;"/><text fill="#000000" font-family="sans-serif" font-size="14" lengthAdjust="spacing" textLength="280" x="27" y="249.8145">getBagAsArray(MIMLBag): MWNumericArray</text><ellipse cx="18" cy="263.1953" fill="#84BE84" rx="3" ry="3" style="stroke:#038048;stroke-width:1.0;"/><text fill="#000000" font-family="sans-serif" font-size="14" lengthAdjust="spacing" textLength="237" x="27" y="267.4238">getBagAsArray(int): MWNumericArray</text><ellipse cx="18" cy="280.8047" fill="#84BE84" rx="3" ry="3" style="stroke:#038048;stroke-width:1.0;"/><text fill="#000000" font-family="sans-serif" font-size="14" lengthAdjust="spacing" textLength="247" x="27" y="285.0332">getLabels(MIMLBag): MWNumericArray</text><ellipse cx="18" cy="298.4141" fill="#84BE84" rx="3" ry="3" style="stroke:#038048;stroke-width:1.0;"/><text fill="#000000" font-family="sans-serif" font-size="14" lengthAdjust="spacing" textLength="204" x="27" y="302.6426">getLabels(int): MWNumericArray</text></g></a><rect fill="none" height="12.5781" style="stroke:none;stroke-width:1.0;" width="190" x="64.5" y="316.7188"/><text fill="#888888" font-family="sans-serif" font-size="10" lengthAdjust="spacing" textLength="190" x="64.5" y="327.0996">UMLDoclet 2.0.20, PlantUML 1.2022.12</text><!--MD5=[904ac69580046416d412be1494291444]
@startuml
    set namespaceSeparator none
    hide empty fields
    hide empty methods

    class "<size:14>MWTranslator\n<size:10>miml.data" as miml.data.MWTranslator [[MWTranslator.html]] {
        ~mimlDataSet: MIMLInstances
        ~nBags: int
        ~nLabels: int
        ~attributesPerBag: int
        ~labelIndices: int[]
        +MWTranslator(MIMLInstances)
        +getBags(): MWCellArray
        +getLabels(): MWNumericArray
        +getBagAsCell(MIMLBag): MWCellArray
        +getBagAsCell(int): MWCellArray
        +getBagAsArray(MIMLBag): MWNumericArray
        +getBagAsArray(int): MWNumericArray
        +getLabels(MIMLBag): MWNumericArray
        +getLabels(int): MWNumericArray
    }

    center footer UMLDoclet 2.0.20, PlantUML 1.2022.12
@enduml

PlantUML version 1.2022.12(Sun Oct 23 20:12:26 CEST 2022)
(APACHE source distribution)
Java Runtime: OpenJDK Runtime Environment
JVM: OpenJDK 64-Bit Server VM
Default Encoding: Cp1252
Language: es
Country: ES
--></g></svg>