<?xml version="1.0" encoding="UTF-8" standalone="no"?><svg xmlns="http://www.w3.org/2000/svg" xmlns:xlink="http://www.w3.org/1999/xlink" contentStyleType="text/css" height="260px" preserveAspectRatio="none" style="width:351px;height:260px;background:#FFFFFF;" version="1.1" viewBox="0 0 351 260" width="351px" zoomAndPan="magnify"><defs/><g><!--MD5=[02182e2ff7dcb7061e6f85950d51ffd1]
class miml.data.partitioning.powerset.LabelPowersetTrainTest--><a href="LabelPowersetTrainTest.html" target="_top" title="LabelPowersetTrainTest.html" xlink:actuate="onRequest" xlink:href="LabelPowersetTrainTest.html" xlink:show="new" xlink:title="LabelPowersetTrainTest.html" xlink:type="simple"><g id="elem_miml.data.partitioning.powerset.LabelPowersetTrainTest"><rect codeLine="5" fill="#F1F1F1" height="101.0156" id="miml.data.partitioning.powerset.LabelPowersetTrainTest" rx="2.5" ry="2.5" style="stroke:#181818;stroke-width:0.5;" width="337" x="7" y="133"/><ellipse cx="94.25" cy="153.0938" fill="#ADD1B2" rx="11" ry="11" style="stroke:#181818;stroke-width:1.0;"/><path d="M97.0156,148.9688 Q97.1719,148.75 97.3594,148.6406 Q97.5469,148.5313 97.7656,148.5313 Q98.1406,148.5313 98.375,148.7969 Q98.6094,149.0469 98.6094,149.6563 L98.6094,151.1094 Q98.6094,151.7188 98.375,151.9844 Q98.1406,152.25 97.7656,152.25 Q97.4219,152.25 97.2188,152.0469 Q97.0156,151.8594 96.9063,151.3438 Q96.8594,150.9844 96.6719,150.7969 Q96.3438,150.4219 95.7344,150.2031 Q95.125,149.9844 94.5,149.9844 Q93.7344,149.9844 93.0938,150.3125 Q92.4688,150.6406 91.9688,151.3906 Q91.4844,152.1406 91.4844,153.1719 L91.4844,154.2656 Q91.4844,155.5 92.375,156.3281 Q93.2656,157.1406 94.8594,157.1406 Q95.7969,157.1406 96.4531,156.8906 Q96.8438,156.7344 97.2656,156.2969 Q97.5313,156.0313 97.6719,155.9531 Q97.8281,155.875 98.0313,155.875 Q98.3594,155.875 98.6094,156.1406 Q98.875,156.3906 98.875,156.7344 Q98.875,157.0781 98.5313,157.4844 Q98.0313,158.0625 97.2344,158.3906 Q96.1563,158.8438 94.8594,158.8438 Q93.3438,158.8438 92.1406,158.2188 Q91.1563,157.7188 90.4688,156.6563 Q89.7813,155.5781 89.7813,154.2969 L89.7813,153.1406 Q89.7813,151.8125 90.3906,150.6719 Q91.0156,149.5156 92.1094,148.9063 Q93.2031,148.2813 94.4375,148.2813 Q95.1719,148.2813 95.8125,148.4531 Q96.4688,148.6094 97.0156,148.9688 Z " fill="#000000"/><text fill="#000000" font-family="sans-serif" font-size="14" lengthAdjust="spacing" textLength="154" x="114.75" y="152.5332">LabelPowersetTrainTest</text><text fill="#000000" font-family="sans-serif" font-size="10" lengthAdjust="spacing" textLength="149" x="117.25" y="165.9902">miml.data.partitioning.powerset</text><line style="stroke:#181818;stroke-width:0.5;" x1="8" x2="343" y1="173.1875" y2="173.1875"/><ellipse cx="18" cy="187.4922" fill="#84BE84" rx="3" ry="3" style="stroke:#038048;stroke-width:1.0;"/><text fill="#000000" font-family="sans-serif" font-size="14" lengthAdjust="spacing" textLength="311" x="27" y="191.7207">LabelPowersetTrainTest(int, MultiLabelInstances)</text><ellipse cx="18" cy="205.1016" fill="#84BE84" rx="3" ry="3" style="stroke:#038048;stroke-width:1.0;"/><text fill="#000000" font-family="sans-serif" font-size="14" lengthAdjust="spacing" textLength="288" x="27" y="209.3301">LabelPowersetTrainTest(MultiLabelInstances)</text><ellipse cx="18" cy="222.7109" fill="#84BE84" rx="3" ry="3" style="stroke:#038048;stroke-width:1.0;"/><text fill="#000000" font-family="sans-serif" font-size="14" lengthAdjust="spacing" textLength="218" x="27" y="226.9395">split(double): MultiLabelInstances[]</text></g></a><!--MD5=[43ba56182bfb4eb2087e6ff5152dd96d]
class miml.data.partitioning.TrainTestBase--><a href="..\TrainTestBase.html" target="_top" title="..\TrainTestBase.html" xlink:actuate="onRequest" xlink:href="..\TrainTestBase.html" xlink:show="new" xlink:title="..\TrainTestBase.html" xlink:type="simple"><g id="elem_miml.data.partitioning.TrainTestBase"><rect codeLine="11" fill="#F1F1F1" height="65.7969" id="miml.data.partitioning.TrainTestBase" rx="2.5" ry="2.5" style="stroke:#181818;stroke-width:0.5;" width="246" x="52.5" y="7"/><ellipse cx="120.75" cy="27.0938" fill="#A9DCDF" rx="11" ry="11" style="stroke:#181818;stroke-width:1.0;"/><path d="M122.9375,28.8594 L118.7969,28.8594 L118.375,29.8906 L118.7969,29.8906 Q119.4063,29.8906 119.6719,30.125 Q119.9375,30.3594 119.9375,30.75 Q119.9375,31.125 119.6719,31.3594 Q119.4063,31.5938 118.7969,31.5938 L116.5,31.5938 Q115.8906,31.5938 115.6406,31.3594 Q115.375,31.125 115.375,30.7344 Q115.375,30.3594 115.6563,30.125 Q115.9219,29.875 116.5469,29.8906 L119.2188,23.2344 L118.1094,23.2344 Q117.5,23.2344 117.2344,23 Q116.9688,22.7656 116.9688,22.375 Q116.9688,22 117.2344,21.7656 Q117.5,21.5313 118.1094,21.5313 L121.7813,21.5313 L125.1719,29.8906 Q125.7656,29.8906 125.9531,30.0313 Q126.3438,30.2969 126.3438,30.75 Q126.3438,31.125 126.0781,31.3594 Q125.8281,31.5938 125.2188,31.5938 L122.9219,31.5938 Q122.3125,31.5938 122.0469,31.3594 Q121.7813,31.125 121.7813,30.7344 Q121.7813,30.3594 122.0469,30.125 Q122.3125,29.8906 122.9219,29.8906 L123.3438,29.8906 L122.9375,28.8594 Z M122.2188,27.1563 L120.8594,23.7813 L119.4844,27.1563 L122.2188,27.1563 Z " fill="#000000"/><text fill="#000000" font-family="sans-serif" font-size="14" font-style="italic" lengthAdjust="spacing" textLength="93" x="145.25" y="26.5332">TrainTestBase</text><text fill="#000000" font-family="sans-serif" font-size="10" font-style="italic" lengthAdjust="spacing" textLength="101" x="141.25" y="39.9902">miml.data.partitioning</text><line style="stroke:#181818;stroke-width:0.5;" x1="53.5" x2="297.5" y1="47.1875" y2="47.1875"/><ellipse cx="63.5" cy="61.4922" fill="#84BE84" rx="3" ry="3" style="stroke:#038048;stroke-width:1.0;"/><text fill="#000000" font-family="sans-serif" font-size="14" font-style="italic" lengthAdjust="spacing" textLength="220" x="72.5" y="65.7207">split(double): MultiLabelInstances[]</text></g></a><!--MD5=[08b82e65fe7ea1d9dd2b1d01450b9f3a]
reverse link miml.data.partitioning.TrainTestBase to miml.data.partitioning.powerset.LabelPowersetTrainTest--><g id="link_miml.data.partitioning.TrainTestBase_miml.data.partitioning.powerset.LabelPowersetTrainTest"><path codeLine="15" d="M175.5,93.56 C175.5,106.38 175.5,120.06 175.5,132.75 " fill="none" id="miml.data.partitioning.TrainTestBase-backto-miml.data.partitioning.powerset.LabelPowersetTrainTest" style="stroke:#181818;stroke-width:1.0;"/><polygon fill="none" points="168.5,93.11,175.5,73.11,182.5,93.11,168.5,93.11" style="stroke:#181818;stroke-width:1.0;"/></g><rect fill="none" height="12.5781" style="stroke:none;stroke-width:1.0;" width="190" x="73.5" y="240.0156"/><text fill="#888888" font-family="sans-serif" font-size="10" lengthAdjust="spacing" textLength="190" x="73.5" y="250.3965">UMLDoclet 2.0.20, PlantUML 1.2022.12</text><!--MD5=[90c046ead0e7dbb095d681b1862deee2]
@startuml
    set namespaceSeparator none
    hide empty fields
    hide empty methods

    class "<size:14>LabelPowersetTrainTest\n<size:10>miml.data.partitioning.powerset" as miml.data.partitioning.powerset.LabelPowersetTrainTest [[LabelPowersetTrainTest.html]] {
        +LabelPowersetTrainTest(int, MultiLabelInstances)
        +LabelPowersetTrainTest(MultiLabelInstances)
        +split(double): MultiLabelInstances[]
    }

    abstract class "<size:14>TrainTestBase\n<size:10>miml.data.partitioning" as miml.data.partitioning.TrainTestBase [[..\TrainTestBase.html]] {
        {abstract} +split(double): MultiLabelInstances[]
    }

    miml.data.partitioning.TrainTestBase <|- - miml.data.partitioning.powerset.LabelPowersetTrainTest

    center footer UMLDoclet 2.0.20, PlantUML 1.2022.12
@enduml

PlantUML version 1.2022.12(Sun Oct 23 20:12:26 CEST 2022)
(APACHE source distribution)
Java Runtime: OpenJDK Runtime Environment
JVM: OpenJDK 64-Bit Server VM
Default Encoding: Cp1252
Language: es
Country: ES
--></g></svg>