<?xml version="1.0" encoding="UTF-8" standalone="no"?><svg xmlns="http://www.w3.org/2000/svg" xmlns:xlink="http://www.w3.org/1999/xlink" contentStyleType="text/css" height="327px" preserveAspectRatio="none" style="width:793px;height:327px;background:#FFFFFF;" version="1.1" viewBox="0 0 793 327" width="793px" zoomAndPan="magnify"><defs/><g><!--MD5=[122c0d020004d15cdb41045b69d89802]
cluster miml.data.partitioning.powerset--><g id="cluster_miml.data.partitioning.powerset"><path d="M8.5,148 L230.5,148 A3.75,3.75 0 0 1 233,150.5 L240,171.6094 L783.5,171.6094 A2.5,2.5 0 0 1 786,174.1094 L786,298.5 A2.5,2.5 0 0 1 783.5,301 L8.5,301 A2.5,2.5 0 0 1 6,298.5 L6,150.5 A2.5,2.5 0 0 1 8.5,148 " fill="none" style="stroke:#000000;stroke-width:1.5;"/><line style="stroke:#000000;stroke-width:1.5;" x1="6" x2="240" y1="171.6094" y2="171.6094"/><text fill="#000000" font-family="sans-serif" font-size="14" font-weight="bold" lengthAdjust="spacing" textLength="221" x="10" y="164.5332">miml.data.partitioning.powerset</text></g><!--MD5=[b22b9bb5ba87fde4e12dd3e800aeb6ec]
cluster miml.data.partitioning--><g id="cluster_miml.data.partitioning"><path d="M108.5,6 L260.5,6 A3.75,3.75 0 0 1 263,8.5 L270,29.6094 L664.5,29.6094 A2.5,2.5 0 0 1 667,32.1094 L667,121.5 A2.5,2.5 0 0 1 664.5,124 L108.5,124 A2.5,2.5 0 0 1 106,121.5 L106,8.5 A2.5,2.5 0 0 1 108.5,6 " fill="none" style="stroke:#000000;stroke-width:1.5;"/><line style="stroke:#000000;stroke-width:1.5;" x1="106" x2="270" y1="29.6094" y2="29.6094"/><text fill="#000000" font-family="sans-serif" font-size="14" font-weight="bold" lengthAdjust="spacing" textLength="151" x="110" y="22.5332">miml.data.partitioning</text></g><!--MD5=[9b16a5153e6c57cfce056920e69f880d]
class miml.data.partitioning.powerset.LabelPowersetCrossValidation--><a href="LabelPowersetCrossValidation.html" target="_top" title="LabelPowersetCrossValidation.html" xlink:actuate="onRequest" xlink:href="LabelPowersetCrossValidation.html" xlink:show="new" xlink:title="LabelPowersetCrossValidation.html" xlink:type="simple"><g id="elem_miml.data.partitioning.powerset.LabelPowersetCrossValidation"><rect codeLine="3" fill="#F1F1F1" height="100.8281" id="miml.data.partitioning.powerset.LabelPowersetCrossValidation" rx="2.5" ry="2.5" style="stroke:#181818;stroke-width:0.5;" width="375" x="394.5" y="184"/><ellipse cx="481.75" cy="200" fill="#ADD1B2" rx="11" ry="11" style="stroke:#181818;stroke-width:1.0;"/><path d="M484.5156,195.875 Q484.6719,195.6563 484.8594,195.5469 Q485.0469,195.4375 485.2656,195.4375 Q485.6406,195.4375 485.875,195.7031 Q486.1094,195.9531 486.1094,196.5625 L486.1094,198.0156 Q486.1094,198.625 485.875,198.8906 Q485.6406,199.1563 485.2656,199.1563 Q484.9219,199.1563 484.7188,198.9531 Q484.5156,198.7656 484.4063,198.25 Q484.3594,197.8906 484.1719,197.7031 Q483.8438,197.3281 483.2344,197.1094 Q482.625,196.8906 482,196.8906 Q481.2344,196.8906 480.5938,197.2188 Q479.9688,197.5469 479.4688,198.2969 Q478.9844,199.0469 478.9844,200.0781 L478.9844,201.1719 Q478.9844,202.4063 479.875,203.2344 Q480.7656,204.0469 482.3594,204.0469 Q483.2969,204.0469 483.9531,203.7969 Q484.3438,203.6406 484.7656,203.2031 Q485.0313,202.9375 485.1719,202.8594 Q485.3281,202.7813 485.5313,202.7813 Q485.8594,202.7813 486.1094,203.0469 Q486.375,203.2969 486.375,203.6406 Q486.375,203.9844 486.0313,204.3906 Q485.5313,204.9688 484.7344,205.2969 Q483.6563,205.75 482.3594,205.75 Q480.8438,205.75 479.6406,205.125 Q478.6563,204.625 477.9688,203.5625 Q477.2813,202.4844 477.2813,201.2031 L477.2813,200.0469 Q477.2813,198.7188 477.8906,197.5781 Q478.5156,196.4219 479.6094,195.8125 Q480.7031,195.1875 481.9375,195.1875 Q482.6719,195.1875 483.3125,195.3594 Q483.9688,195.5156 484.5156,195.875 Z " fill="#000000"/><text fill="#000000" font-family="sans-serif" font-size="14" lengthAdjust="spacing" textLength="192" x="502.25" y="205.7285">LabelPowersetCrossValidation</text><line style="stroke:#181818;stroke-width:0.5;" x1="395.5" x2="768.5" y1="216" y2="216"/><line style="stroke:#181818;stroke-width:0.5;" x1="395.5" x2="768.5" y1="224" y2="224"/><ellipse cx="405.5" cy="238.3047" fill="#84BE84" rx="3" ry="3" style="stroke:#038048;stroke-width:1.0;"/><text fill="#000000" font-family="sans-serif" font-size="14" lengthAdjust="spacing" textLength="349" x="414.5" y="242.5332">LabelPowersetCrossValidation(int, MultiLabelInstances)</text><ellipse cx="405.5" cy="255.9141" fill="#84BE84" rx="3" ry="3" style="stroke:#038048;stroke-width:1.0;"/><text fill="#000000" font-family="sans-serif" font-size="14" lengthAdjust="spacing" textLength="326" x="414.5" y="260.1426">LabelPowersetCrossValidation(MultiLabelInstances)</text><ellipse cx="405.5" cy="273.5234" fill="#84BE84" rx="3" ry="3" style="stroke:#038048;stroke-width:1.0;"/><text fill="#000000" font-family="sans-serif" font-size="14" lengthAdjust="spacing" textLength="220" x="414.5" y="277.752">getFolds(int): MultiLabelInstances[]</text></g></a><!--MD5=[02182e2ff7dcb7061e6f85950d51ffd1]
class miml.data.partitioning.powerset.LabelPowersetTrainTest--><a href="LabelPowersetTrainTest.html" target="_top" title="LabelPowersetTrainTest.html" xlink:actuate="onRequest" xlink:href="LabelPowersetTrainTest.html" xlink:show="new" xlink:title="LabelPowersetTrainTest.html" xlink:type="simple"><g id="elem_miml.data.partitioning.powerset.LabelPowersetTrainTest"><rect codeLine="9" fill="#F1F1F1" height="100.8281" id="miml.data.partitioning.powerset.LabelPowersetTrainTest" rx="2.5" ry="2.5" style="stroke:#181818;stroke-width:0.5;" width="337" x="22.5" y="184"/><ellipse cx="109.75" cy="200" fill="#ADD1B2" rx="11" ry="11" style="stroke:#181818;stroke-width:1.0;"/><path d="M112.5156,195.875 Q112.6719,195.6563 112.8594,195.5469 Q113.0469,195.4375 113.2656,195.4375 Q113.6406,195.4375 113.875,195.7031 Q114.1094,195.9531 114.1094,196.5625 L114.1094,198.0156 Q114.1094,198.625 113.875,198.8906 Q113.6406,199.1563 113.2656,199.1563 Q112.9219,199.1563 112.7188,198.9531 Q112.5156,198.7656 112.4063,198.25 Q112.3594,197.8906 112.1719,197.7031 Q111.8438,197.3281 111.2344,197.1094 Q110.625,196.8906 110,196.8906 Q109.2344,196.8906 108.5938,197.2188 Q107.9688,197.5469 107.4688,198.2969 Q106.9844,199.0469 106.9844,200.0781 L106.9844,201.1719 Q106.9844,202.4063 107.875,203.2344 Q108.7656,204.0469 110.3594,204.0469 Q111.2969,204.0469 111.9531,203.7969 Q112.3438,203.6406 112.7656,203.2031 Q113.0313,202.9375 113.1719,202.8594 Q113.3281,202.7813 113.5313,202.7813 Q113.8594,202.7813 114.1094,203.0469 Q114.375,203.2969 114.375,203.6406 Q114.375,203.9844 114.0313,204.3906 Q113.5313,204.9688 112.7344,205.2969 Q111.6563,205.75 110.3594,205.75 Q108.8438,205.75 107.6406,205.125 Q106.6563,204.625 105.9688,203.5625 Q105.2813,202.4844 105.2813,201.2031 L105.2813,200.0469 Q105.2813,198.7188 105.8906,197.5781 Q106.5156,196.4219 107.6094,195.8125 Q108.7031,195.1875 109.9375,195.1875 Q110.6719,195.1875 111.3125,195.3594 Q111.9688,195.5156 112.5156,195.875 Z " fill="#000000"/><text fill="#000000" font-family="sans-serif" font-size="14" lengthAdjust="spacing" textLength="154" x="130.25" y="205.7285">LabelPowersetTrainTest</text><line style="stroke:#181818;stroke-width:0.5;" x1="23.5" x2="358.5" y1="216" y2="216"/><line style="stroke:#181818;stroke-width:0.5;" x1="23.5" x2="358.5" y1="224" y2="224"/><ellipse cx="33.5" cy="238.3047" fill="#84BE84" rx="3" ry="3" style="stroke:#038048;stroke-width:1.0;"/><text fill="#000000" font-family="sans-serif" font-size="14" lengthAdjust="spacing" textLength="311" x="42.5" y="242.5332">LabelPowersetTrainTest(int, MultiLabelInstances)</text><ellipse cx="33.5" cy="255.9141" fill="#84BE84" rx="3" ry="3" style="stroke:#038048;stroke-width:1.0;"/><text fill="#000000" font-family="sans-serif" font-size="14" lengthAdjust="spacing" textLength="288" x="42.5" y="260.1426">LabelPowersetTrainTest(MultiLabelInstances)</text><ellipse cx="33.5" cy="273.5234" fill="#84BE84" rx="3" ry="3" style="stroke:#038048;stroke-width:1.0;"/><text fill="#000000" font-family="sans-serif" font-size="14" lengthAdjust="spacing" textLength="218" x="42.5" y="277.752">split(double): MultiLabelInstances[]</text></g></a><!--MD5=[7ac158596541117d11edcffba96f82c4]
class miml.data.partitioning.CrossValidationBase--><a href="..\CrossValidationBase.html" target="_top" title="..\CrossValidationBase.html" xlink:actuate="onRequest" xlink:href="..\CrossValidationBase.html" xlink:show="new" xlink:title="..\CrossValidationBase.html" xlink:type="simple"><g id="elem_miml.data.partitioning.CrossValidationBase"><rect codeLine="20" fill="#F1F1F1" height="65.6094" id="miml.data.partitioning.CrossValidationBase" rx="2.5" ry="2.5" style="stroke:#181818;stroke-width:0.5;" width="248" x="403" y="42"/><ellipse cx="457.25" cy="58" fill="#A9DCDF" rx="11" ry="11" style="stroke:#181818;stroke-width:1.0;"/><path d="M459.4375,59.7656 L455.2969,59.7656 L454.875,60.7969 L455.2969,60.7969 Q455.9063,60.7969 456.1719,61.0313 Q456.4375,61.2656 456.4375,61.6563 Q456.4375,62.0313 456.1719,62.2656 Q455.9063,62.5 455.2969,62.5 L453,62.5 Q452.3906,62.5 452.1406,62.2656 Q451.875,62.0313 451.875,61.6406 Q451.875,61.2656 452.1563,61.0313 Q452.4219,60.7813 453.0469,60.7969 L455.7188,54.1406 L454.6094,54.1406 Q454,54.1406 453.7344,53.9063 Q453.4688,53.6719 453.4688,53.2813 Q453.4688,52.9063 453.7344,52.6719 Q454,52.4375 454.6094,52.4375 L458.2813,52.4375 L461.6719,60.7969 Q462.2656,60.7969 462.4531,60.9375 Q462.8438,61.2031 462.8438,61.6563 Q462.8438,62.0313 462.5781,62.2656 Q462.3281,62.5 461.7188,62.5 L459.4219,62.5 Q458.8125,62.5 458.5469,62.2656 Q458.2813,62.0313 458.2813,61.6406 Q458.2813,61.2656 458.5469,61.0313 Q458.8125,60.7969 459.4219,60.7969 L459.8438,60.7969 L459.4375,59.7656 Z M458.7188,58.0625 L457.3594,54.6875 L455.9844,58.0625 L458.7188,58.0625 Z " fill="#000000"/><text fill="#000000" font-family="sans-serif" font-size="14" font-style="italic" lengthAdjust="spacing" textLength="131" x="477.75" y="63.7285">CrossValidationBase</text><line style="stroke:#181818;stroke-width:0.5;" x1="404" x2="650" y1="74" y2="74"/><line style="stroke:#181818;stroke-width:0.5;" x1="404" x2="650" y1="82" y2="82"/><ellipse cx="414" cy="96.3047" fill="#84BE84" rx="3" ry="3" style="stroke:#038048;stroke-width:1.0;"/><text fill="#000000" font-family="sans-serif" font-size="14" font-style="italic" lengthAdjust="spacing" textLength="222" x="423" y="100.5332">getFolds(int): MultiLabelInstances[]</text></g></a><!--MD5=[43ba56182bfb4eb2087e6ff5152dd96d]
class miml.data.partitioning.TrainTestBase--><a href="..\TrainTestBase.html" target="_top" title="..\TrainTestBase.html" xlink:actuate="onRequest" xlink:href="..\TrainTestBase.html" xlink:show="new" xlink:title="..\TrainTestBase.html" xlink:type="simple"><g id="elem_miml.data.partitioning.TrainTestBase"><rect codeLine="23" fill="#F1F1F1" height="65.6094" id="miml.data.partitioning.TrainTestBase" rx="2.5" ry="2.5" style="stroke:#181818;stroke-width:0.5;" width="246" x="122" y="42"/><ellipse cx="194.25" cy="58" fill="#A9DCDF" rx="11" ry="11" style="stroke:#181818;stroke-width:1.0;"/><path d="M196.4375,59.7656 L192.2969,59.7656 L191.875,60.7969 L192.2969,60.7969 Q192.9063,60.7969 193.1719,61.0313 Q193.4375,61.2656 193.4375,61.6563 Q193.4375,62.0313 193.1719,62.2656 Q192.9063,62.5 192.2969,62.5 L190,62.5 Q189.3906,62.5 189.1406,62.2656 Q188.875,62.0313 188.875,61.6406 Q188.875,61.2656 189.1563,61.0313 Q189.4219,60.7813 190.0469,60.7969 L192.7188,54.1406 L191.6094,54.1406 Q191,54.1406 190.7344,53.9063 Q190.4688,53.6719 190.4688,53.2813 Q190.4688,52.9063 190.7344,52.6719 Q191,52.4375 191.6094,52.4375 L195.2813,52.4375 L198.6719,60.7969 Q199.2656,60.7969 199.4531,60.9375 Q199.8438,61.2031 199.8438,61.6563 Q199.8438,62.0313 199.5781,62.2656 Q199.3281,62.5 198.7188,62.5 L196.4219,62.5 Q195.8125,62.5 195.5469,62.2656 Q195.2813,62.0313 195.2813,61.6406 Q195.2813,61.2656 195.5469,61.0313 Q195.8125,60.7969 196.4219,60.7969 L196.8438,60.7969 L196.4375,59.7656 Z M195.7188,58.0625 L194.3594,54.6875 L192.9844,58.0625 L195.7188,58.0625 Z " fill="#000000"/><text fill="#000000" font-family="sans-serif" font-size="14" font-style="italic" lengthAdjust="spacing" textLength="93" x="214.75" y="63.7285">TrainTestBase</text><line style="stroke:#181818;stroke-width:0.5;" x1="123" x2="367" y1="74" y2="74"/><line style="stroke:#181818;stroke-width:0.5;" x1="123" x2="367" y1="82" y2="82"/><ellipse cx="133" cy="96.3047" fill="#84BE84" rx="3" ry="3" style="stroke:#038048;stroke-width:1.0;"/><text fill="#000000" font-family="sans-serif" font-size="14" font-style="italic" lengthAdjust="spacing" textLength="220" x="142" y="100.5332">split(double): MultiLabelInstances[]</text></g></a><!--MD5=[eb3d7a18b77588f5e98937d818a06bb8]
reverse link miml.data.partitioning.CrossValidationBase to miml.data.partitioning.powerset.LabelPowersetCrossValidation--><g id="link_miml.data.partitioning.CrossValidationBase_miml.data.partitioning.powerset.LabelPowersetCrossValidation"><path codeLine="15" d="M544.89,127.24 C551.25,145.43 558.38,165.86 564.68,183.91 " fill="none" id="miml.data.partitioning.CrossValidationBase-backto-miml.data.partitioning.powerset.LabelPowersetCrossValidation" style="stroke:#181818;stroke-width:1.0;"/><polygon fill="none" points="538.25,129.44,538.26,108.25,551.47,124.83,538.25,129.44" style="stroke:#181818;stroke-width:1.0;"/></g><!--MD5=[08b82e65fe7ea1d9dd2b1d01450b9f3a]
reverse link miml.data.partitioning.TrainTestBase to miml.data.partitioning.powerset.LabelPowersetTrainTest--><g id="link_miml.data.partitioning.TrainTestBase_miml.data.partitioning.powerset.LabelPowersetTrainTest"><path codeLine="16" d="M227.43,127.24 C221.19,145.43 214.19,165.86 208,183.91 " fill="none" id="miml.data.partitioning.TrainTestBase-backto-miml.data.partitioning.powerset.LabelPowersetTrainTest" style="stroke:#181818;stroke-width:1.0;"/><polygon fill="none" points="220.83,124.9,233.94,108.25,234.08,129.44,220.83,124.9" style="stroke:#181818;stroke-width:1.0;"/></g><rect fill="none" height="12.5781" style="stroke:none;stroke-width:1.0;" width="190" x="294.5" y="307"/><text fill="#888888" font-family="sans-serif" font-size="10" lengthAdjust="spacing" textLength="190" x="294.5" y="317.3809">UMLDoclet 2.0.20, PlantUML 1.2022.12</text><!--MD5=[f3e558fd25138689ee9db067664d4bd2]
@startuml
    namespace miml.data.partitioning.powerset {

        class LabelPowersetCrossValidation [[LabelPowersetCrossValidation.html]] {
            +LabelPowersetCrossValidation(int, MultiLabelInstances)
            +LabelPowersetCrossValidation(MultiLabelInstances)
            +getFolds(int): MultiLabelInstances[]
        }

        class LabelPowersetTrainTest [[LabelPowersetTrainTest.html]] {
            +LabelPowersetTrainTest(int, MultiLabelInstances)
            +LabelPowersetTrainTest(MultiLabelInstances)
            +split(double): MultiLabelInstances[]
        }

        miml.data.partitioning.CrossValidationBase <|- - LabelPowersetCrossValidation
        miml.data.partitioning.TrainTestBase <|- - LabelPowersetTrainTest
    }

    namespace miml.data.partitioning {
        abstract class CrossValidationBase [[..\CrossValidationBase.html]] {
            {abstract} +getFolds(int): MultiLabelInstances[]
        }
        abstract class TrainTestBase [[..\TrainTestBase.html]] {
            {abstract} +split(double): MultiLabelInstances[]
        }
    }

    center footer UMLDoclet 2.0.20, PlantUML 1.2022.12
@enduml

PlantUML version 1.2022.12(Sun Oct 23 20:12:26 CEST 2022)
(APACHE source distribution)
Java Runtime: OpenJDK Runtime Environment
JVM: OpenJDK 64-Bit Server VM
Default Encoding: Cp1252
Language: es
Country: ES
--></g></svg>