<?xml version="1.0" encoding="UTF-8" standalone="no"?><svg xmlns="http://www.w3.org/2000/svg" xmlns:xlink="http://www.w3.org/1999/xlink" contentStyleType="text/css" height="605px" preserveAspectRatio="none" style="width:375px;height:605px;background:#FFFFFF;" version="1.1" viewBox="0 0 375 605" width="375px" zoomAndPan="magnify"><defs/><g><!--MD5=[a01fdc05959a6990589b03fb7bb274eb]
class miml.classifiers.ml.MLDGC--><a href="MLDGC.html" target="_top" title="MLDGC.html" xlink:actuate="onRequest" xlink:href="MLDGC.html" xlink:show="new" xlink:title="MLDGC.html" xlink:type="simple"><g id="elem_miml.classifiers.ml.MLDGC"><rect codeLine="5" fill="#F1F1F1" height="373.1563" id="miml.classifiers.ml.MLDGC" rx="2.5" ry="2.5" style="stroke:#181818;stroke-width:0.5;" width="359" x="9" y="107"/><ellipse cx="140.75" cy="127.0938" fill="#ADD1B2" rx="11" ry="11" style="stroke:#181818;stroke-width:1.0;"/><path d="M143.5156,122.9688 Q143.6719,122.75 143.8594,122.6406 Q144.0469,122.5313 144.2656,122.5313 Q144.6406,122.5313 144.875,122.7969 Q145.1094,123.0469 145.1094,123.6563 L145.1094,125.1094 Q145.1094,125.7188 144.875,125.9844 Q144.6406,126.25 144.2656,126.25 Q143.9219,126.25 143.7188,126.0469 Q143.5156,125.8594 143.4063,125.3438 Q143.3594,124.9844 143.1719,124.7969 Q142.8438,124.4219 142.2344,124.2031 Q141.625,123.9844 141,123.9844 Q140.2344,123.9844 139.5938,124.3125 Q138.9688,124.6406 138.4688,125.3906 Q137.9844,126.1406 137.9844,127.1719 L137.9844,128.2656 Q137.9844,129.5 138.875,130.3281 Q139.7656,131.1406 141.3594,131.1406 Q142.2969,131.1406 142.9531,130.8906 Q143.3438,130.7344 143.7656,130.2969 Q144.0313,130.0313 144.1719,129.9531 Q144.3281,129.875 144.5313,129.875 Q144.8594,129.875 145.1094,130.1406 Q145.375,130.3906 145.375,130.7344 Q145.375,131.0781 145.0313,131.4844 Q144.5313,132.0625 143.7344,132.3906 Q142.6563,132.8438 141.3594,132.8438 Q139.8438,132.8438 138.6406,132.2188 Q137.6563,131.7188 136.9688,130.6563 Q136.2813,129.5781 136.2813,128.2969 L136.2813,127.1406 Q136.2813,125.8125 136.8906,124.6719 Q137.5156,123.5156 138.6094,122.9063 Q139.7031,122.2813 140.9375,122.2813 Q141.6719,122.2813 142.3125,122.4531 Q142.9688,122.6094 143.5156,122.9688 Z " fill="#000000"/><text fill="#000000" font-family="sans-serif" font-size="14" lengthAdjust="spacing" textLength="50" x="179.75" y="126.5332">MLDGC</text><text fill="#000000" font-family="sans-serif" font-size="10" lengthAdjust="spacing" textLength="87" x="161.25" y="139.9902">miml.classifiers.ml</text><line style="stroke:#181818;stroke-width:0.5;" x1="10" x2="367" y1="147.1875" y2="147.1875"/><rect fill="none" height="6" style="stroke:#C82930;stroke-width:1.0;" width="6" x="17" y="158.4922"/><text fill="#000000" font-family="sans-serif" font-size="14" lengthAdjust="spacing" text-decoration="underline" textLength="139" x="29" y="165.7207">serialVersionUID: long</text><polygon fill="none" points="20,174.1016,24,178.1016,20,182.1016,16,178.1016" style="stroke:#B38D22;stroke-width:1.0;"/><text fill="#000000" font-family="sans-serif" font-size="14" lengthAdjust="spacing" textLength="89" x="29" y="183.3301">NGC: double[]</text><polygon fill="none" points="20,191.7109,24,195.7109,20,199.7109,16,195.7109" style="stroke:#B38D22;stroke-width:1.0;"/><text fill="#000000" font-family="sans-serif" font-size="14" lengthAdjust="spacing" textLength="115" x="29" y="200.9395">densities: double[]</text><polygon fill="none" points="20,209.3203,24,213.3203,20,217.3203,16,213.3203" style="stroke:#B38D22;stroke-width:1.0;"/><text fill="#000000" font-family="sans-serif" font-size="14" lengthAdjust="spacing" textLength="106" x="29" y="218.5488">weights: double[]</text><polygon fill="none" points="20,226.9297,24,230.9297,20,234.9297,16,230.9297" style="stroke:#B38D22;stroke-width:1.0;"/><text fill="#000000" font-family="sans-serif" font-size="14" lengthAdjust="spacing" textLength="147" x="29" y="236.1582">elnn: LinearNNESearch</text><polygon fill="none" points="20,245.5391,16,251.5391,24,251.5391" style="stroke:#1963A0;stroke-width:1.0;"/><text fill="#000000" font-family="sans-serif" font-size="14" lengthAdjust="spacing" textLength="113" x="29" y="253.7676">extNeigh: boolean</text><polygon fill="none" points="20,262.1484,24,266.1484,20,270.1484,16,266.1484" style="stroke:#B38D22;stroke-width:1.0;"/><text fill="#000000" font-family="sans-serif" font-size="14" lengthAdjust="spacing" textLength="124" x="29" y="271.377">weight_max: double</text><polygon fill="none" points="20,279.7578,24,283.7578,20,287.7578,16,283.7578" style="stroke:#B38D22;stroke-width:1.0;"/><text fill="#000000" font-family="sans-serif" font-size="14" lengthAdjust="spacing" textLength="121" x="29" y="288.9863">weight_min: double</text><line style="stroke:#181818;stroke-width:0.5;" x1="10" x2="367" y1="296.0625" y2="296.0625"/><ellipse cx="20" cy="310.3672" fill="#84BE84" rx="3" ry="3" style="stroke:#038048;stroke-width:1.0;"/><text fill="#000000" font-family="sans-serif" font-size="14" lengthAdjust="spacing" textLength="60" x="29" y="314.5957">MLDGC()</text><ellipse cx="20" cy="327.9766" fill="#84BE84" rx="3" ry="3" style="stroke:#038048;stroke-width:1.0;"/><text fill="#000000" font-family="sans-serif" font-size="14" lengthAdjust="spacing" textLength="75" x="29" y="332.2051">MLDGC(int)</text><ellipse cx="20" cy="345.5859" fill="#84BE84" rx="3" ry="3" style="stroke:#038048;stroke-width:1.0;"/><text fill="#000000" font-family="sans-serif" font-size="14" lengthAdjust="spacing" textLength="193" x="29" y="349.8145">MLDGC(int, DistanceFunction)</text><polygon fill="#FFFF44" points="20,358.1953,24,362.1953,20,366.1953,16,362.1953" style="stroke:#B38D22;stroke-width:1.0;"/><text fill="#000000" font-family="sans-serif" font-size="14" lengthAdjust="spacing" textLength="245" x="29" y="367.4238">buildInternal(MultiLabelInstances): void</text><polygon fill="#FFFF44" points="20,375.8047,24,379.8047,20,383.8047,16,379.8047" style="stroke:#B38D22;stroke-width:1.0;"/><text fill="#000000" font-family="sans-serif" font-size="14" lengthAdjust="spacing" textLength="260" x="29" y="385.0332">labelDistance(Instance, Instance): double</text><polygon fill="#FFFF44" points="20,393.4141,24,397.4141,20,401.4141,16,397.4141" style="stroke:#B38D22;stroke-width:1.0;"/><text fill="#000000" font-family="sans-serif" font-size="14" lengthAdjust="spacing" textLength="333" x="29" y="402.6426">computeWeightDensity(Instances, Instance, int): void</text><polygon fill="#FFFF44" points="20,411.0234,24,415.0234,20,419.0234,16,415.0234" style="stroke:#B38D22;stroke-width:1.0;"/><text fill="#000000" font-family="sans-serif" font-size="14" lengthAdjust="spacing" textLength="322" x="29" y="420.252">makePredictionInternal(Instance): MultiLabelOutput</text><ellipse cx="20" cy="433.6328" fill="#84BE84" rx="3" ry="3" style="stroke:#038048;stroke-width:1.0;"/><text fill="#000000" font-family="sans-serif" font-size="14" lengthAdjust="spacing" textLength="134" x="29" y="437.8613">isExtNeigh(): boolean</text><ellipse cx="20" cy="451.2422" fill="#84BE84" rx="3" ry="3" style="stroke:#038048;stroke-width:1.0;"/><text fill="#000000" font-family="sans-serif" font-size="14" lengthAdjust="spacing" textLength="169" x="29" y="455.4707">setExtNeigh(boolean): void</text><ellipse cx="20" cy="468.8516" fill="#84BE84" rx="3" ry="3" style="stroke:#038048;stroke-width:1.0;"/><text fill="#000000" font-family="sans-serif" font-size="14" lengthAdjust="spacing" textLength="300" x="29" y="473.0801">getTechnicalInformation(): TechnicalInformation</text></g></a><!--MD5=[061640b434683df74f0a550e86019449]
class mulan.classifier.lazy.MultiLabelKNN--><g id="elem_mulan.classifier.lazy.MultiLabelKNN"><rect codeLine="26" fill="#F1F1F1" height="40.1875" id="mulan.classifier.lazy.MultiLabelKNN" rx="2.5" ry="2.5" style="stroke:#181818;stroke-width:0.5;" width="127" x="125" y="7"/><ellipse cx="140" cy="27.0938" fill="#A9DCDF" rx="11" ry="11" style="stroke:#181818;stroke-width:1.0;"/><path d="M142.1875,28.8594 L138.0469,28.8594 L137.625,29.8906 L138.0469,29.8906 Q138.6563,29.8906 138.9219,30.125 Q139.1875,30.3594 139.1875,30.75 Q139.1875,31.125 138.9219,31.3594 Q138.6563,31.5938 138.0469,31.5938 L135.75,31.5938 Q135.1406,31.5938 134.8906,31.3594 Q134.625,31.125 134.625,30.7344 Q134.625,30.3594 134.9063,30.125 Q135.1719,29.875 135.7969,29.8906 L138.4688,23.2344 L137.3594,23.2344 Q136.75,23.2344 136.4844,23 Q136.2188,22.7656 136.2188,22.375 Q136.2188,22 136.4844,21.7656 Q136.75,21.5313 137.3594,21.5313 L141.0313,21.5313 L144.4219,29.8906 Q145.0156,29.8906 145.2031,30.0313 Q145.5938,30.2969 145.5938,30.75 Q145.5938,31.125 145.3281,31.3594 Q145.0781,31.5938 144.4688,31.5938 L142.1719,31.5938 Q141.5625,31.5938 141.2969,31.3594 Q141.0313,31.125 141.0313,30.7344 Q141.0313,30.3594 141.2969,30.125 Q141.5625,29.8906 142.1719,29.8906 L142.5938,29.8906 L142.1875,28.8594 Z M141.4688,27.1563 L140.1094,23.7813 L138.7344,27.1563 L141.4688,27.1563 Z " fill="#000000"/><text fill="#000000" font-family="sans-serif" font-size="14" font-style="italic" lengthAdjust="spacing" textLength="94" x="154.5" y="26.5332">MultiLabelKNN</text><text fill="#000000" font-family="sans-serif" font-size="10" font-style="italic" lengthAdjust="spacing" textLength="95" x="154" y="39.9902">mulan.classifier.lazy</text></g><!--MD5=[00ac4a161a554823021908f149c70241]
class miml.classifiers.ml.MLDGC.LinearNNESearch--><a href="MLDGC.LinearNNESearch.html" target="_top" title="MLDGC.LinearNNESearch.html" xlink:actuate="onRequest" xlink:href="MLDGC.LinearNNESearch.html" xlink:show="new" xlink:title="MLDGC.LinearNNESearch.html" xlink:type="simple"><g id="elem_miml.classifiers.ml.MLDGC.LinearNNESearch"><rect codeLine="27" fill="#F1F1F1" height="40.1875" id="miml.classifiers.ml.MLDGC.LinearNNESearch" rx="2.5" ry="2.5" style="stroke:#181818;stroke-width:0.5;" width="198" x="89.5" y="540"/><ellipse cx="104.5" cy="560.0938" fill="#ADD1B2" rx="11" ry="11" style="stroke:#181818;stroke-width:1.0;"/><path d="M107.2656,555.9688 Q107.4219,555.75 107.6094,555.6406 Q107.7969,555.5313 108.0156,555.5313 Q108.3906,555.5313 108.625,555.7969 Q108.8594,556.0469 108.8594,556.6563 L108.8594,558.1094 Q108.8594,558.7188 108.625,558.9844 Q108.3906,559.25 108.0156,559.25 Q107.6719,559.25 107.4688,559.0469 Q107.2656,558.8594 107.1563,558.3438 Q107.1094,557.9844 106.9219,557.7969 Q106.5938,557.4219 105.9844,557.2031 Q105.375,556.9844 104.75,556.9844 Q103.9844,556.9844 103.3438,557.3125 Q102.7188,557.6406 102.2188,558.3906 Q101.7344,559.1406 101.7344,560.1719 L101.7344,561.2656 Q101.7344,562.5 102.625,563.3281 Q103.5156,564.1406 105.1094,564.1406 Q106.0469,564.1406 106.7031,563.8906 Q107.0938,563.7344 107.5156,563.2969 Q107.7813,563.0313 107.9219,562.9531 Q108.0781,562.875 108.2813,562.875 Q108.6094,562.875 108.8594,563.1406 Q109.125,563.3906 109.125,563.7344 Q109.125,564.0781 108.7813,564.4844 Q108.2813,565.0625 107.4844,565.3906 Q106.4063,565.8438 105.1094,565.8438 Q103.5938,565.8438 102.3906,565.2188 Q101.4063,564.7188 100.7188,563.6563 Q100.0313,562.5781 100.0313,561.2969 L100.0313,560.1406 Q100.0313,558.8125 100.6406,557.6719 Q101.2656,556.5156 102.3594,555.9063 Q103.4531,555.2813 104.6875,555.2813 Q105.4219,555.2813 106.0625,555.4531 Q106.7188,555.6094 107.2656,555.9688 Z " fill="#000000"/><text fill="#000000" font-family="sans-serif" font-size="14" lengthAdjust="spacing" textLength="166" x="118.5" y="559.5332">MLDGC.LinearNNESearch</text><text fill="#000000" font-family="sans-serif" font-size="10" lengthAdjust="spacing" textLength="87" x="158" y="572.9902">miml.classifiers.ml</text></g></a><!--MD5=[23c730b98a8815335f0d76a0bb0f77bd]
reverse link mulan.classifier.lazy.MultiLabelKNN to miml.classifiers.ml.MLDGC--><g id="link_mulan.classifier.lazy.MultiLabelKNN_miml.classifiers.ml.MLDGC"><path codeLine="29" d="M188.5,67.2 C188.5,78.76 188.5,92.24 188.5,106.75 " fill="none" id="mulan.classifier.lazy.MultiLabelKNN-backto-miml.classifiers.ml.MLDGC" style="stroke:#181818;stroke-width:1.0;"/><polygon fill="none" points="181.5,67.02,188.5,47.02,195.5,67.02,181.5,67.02" style="stroke:#181818;stroke-width:1.0;"/></g><!--MD5=[41d28b47ef4596cf22ce9bbaf64d75c1]
reverse link miml.classifiers.ml.MLDGC to miml.classifiers.ml.MLDGC.LinearNNESearch--><g id="link_miml.classifiers.ml.MLDGC_miml.classifiers.ml.MLDGC.LinearNNESearch"><path codeLine="30" d="M188.5,495.36 C188.5,513.07 188.5,528.51 188.5,539.74 " fill="none" id="miml.classifiers.ml.MLDGC-backto-miml.classifiers.ml.MLDGC.LinearNNESearch" style="stroke:#181818;stroke-width:1.0;"/><ellipse cx="188.5" cy="488.36" fill="#FFFFFF" rx="8" ry="8" style="stroke:#181818;stroke-width:1.0;"/><line style="stroke:#181818;stroke-width:1.0;" x1="188.5" x2="188.5" y1="496.36" y2="480.36"/><line style="stroke:#181818;stroke-width:1.0;" x1="180.5" x2="196.5" y1="488.36" y2="488.36"/></g><rect fill="none" height="12.5781" style="stroke:none;stroke-width:1.0;" width="190" x="85.5" y="585.1875"/><text fill="#888888" font-family="sans-serif" font-size="10" lengthAdjust="spacing" textLength="190" x="85.5" y="595.5684">UMLDoclet 2.0.20, PlantUML 1.2022.12</text><!--MD5=[09df1d074857a6857351f2514b069a19]
@startuml
    set namespaceSeparator none
    hide empty fields
    hide empty methods

    class "<size:14>MLDGC\n<size:10>miml.classifiers.ml" as miml.classifiers.ml.MLDGC [[MLDGC.html]] {
        {static} -serialVersionUID: long
        #NGC: double[]
        #densities: double[]
        #weights: double[]
        #elnn: LinearNNESearch
        ~extNeigh: boolean
        #weight_max: double
        #weight_min: double
        +MLDGC()
        +MLDGC(int)
        +MLDGC(int, DistanceFunction)
        #buildInternal(MultiLabelInstances): void
        #labelDistance(Instance, Instance): double
        #computeWeightDensity(Instances, Instance, int): void
        #makePredictionInternal(Instance): MultiLabelOutput
        +isExtNeigh(): boolean
        +setExtNeigh(boolean): void
        +getTechnicalInformation(): TechnicalInformation
    }

    abstract class "<size:14>MultiLabelKNN\n<size:10>mulan.classifier.lazy" as mulan.classifier.lazy.MultiLabelKNN
    class "<size:14>MLDGC.LinearNNESearch\n<size:10>miml.classifiers.ml" as miml.classifiers.ml.MLDGC.LinearNNESearch [[MLDGC.LinearNNESearch.html]]

    mulan.classifier.lazy.MultiLabelKNN <|- - miml.classifiers.ml.MLDGC
    miml.classifiers.ml.MLDGC +- - miml.classifiers.ml.MLDGC.LinearNNESearch

    center footer UMLDoclet 2.0.20, PlantUML 1.2022.12
@enduml

PlantUML version 1.2022.12(Sun Oct 23 20:12:26 CEST 2022)
(APACHE source distribution)
Java Runtime: OpenJDK Runtime Environment
JVM: OpenJDK 64-Bit Server VM
Default Encoding: Cp1252
Language: es
Country: ES
--></g></svg>