<?xml version="1.0" encoding="UTF-8" standalone="no"?><svg xmlns="http://www.w3.org/2000/svg" xmlns:xlink="http://www.w3.org/1999/xlink" contentStyleType="text/css" height="242px" preserveAspectRatio="none" style="width:339px;height:242px;background:#FFFFFF;" version="1.1" viewBox="0 0 339 242" width="339px" zoomAndPan="magnify"><defs/><g><!--MD5=[00ac4a161a554823021908f149c70241]
class miml.classifiers.ml.MLDGC.LinearNNESearch--><a href="MLDGC.LinearNNESearch.html" target="_top" title="MLDGC.LinearNNESearch.html" xlink:actuate="onRequest" xlink:href="MLDGC.LinearNNESearch.html" xlink:show="new" xlink:title="MLDGC.LinearNNESearch.html" xlink:type="simple"><g id="elem_miml.classifiers.ml.MLDGC.LinearNNESearch"><rect codeLine="5" fill="#F1F1F1" height="109.0156" id="miml.classifiers.ml.MLDGC.LinearNNESearch" rx="2.5" ry="2.5" style="stroke:#181818;stroke-width:0.5;" width="315" x="17" y="107"/><ellipse cx="87.25" cy="127.0938" fill="#ADD1B2" rx="11" ry="11" style="stroke:#181818;stroke-width:1.0;"/><path d="M90.0156,122.9688 Q90.1719,122.75 90.3594,122.6406 Q90.5469,122.5313 90.7656,122.5313 Q91.1406,122.5313 91.375,122.7969 Q91.6094,123.0469 91.6094,123.6563 L91.6094,125.1094 Q91.6094,125.7188 91.375,125.9844 Q91.1406,126.25 90.7656,126.25 Q90.4219,126.25 90.2188,126.0469 Q90.0156,125.8594 89.9063,125.3438 Q89.8594,124.9844 89.6719,124.7969 Q89.3438,124.4219 88.7344,124.2031 Q88.125,123.9844 87.5,123.9844 Q86.7344,123.9844 86.0938,124.3125 Q85.4688,124.6406 84.9688,125.3906 Q84.4844,126.1406 84.4844,127.1719 L84.4844,128.2656 Q84.4844,129.5 85.375,130.3281 Q86.2656,131.1406 87.8594,131.1406 Q88.7969,131.1406 89.4531,130.8906 Q89.8438,130.7344 90.2656,130.2969 Q90.5313,130.0313 90.6719,129.9531 Q90.8281,129.875 91.0313,129.875 Q91.3594,129.875 91.6094,130.1406 Q91.875,130.3906 91.875,130.7344 Q91.875,131.0781 91.5313,131.4844 Q91.0313,132.0625 90.2344,132.3906 Q89.1563,132.8438 87.8594,132.8438 Q86.3438,132.8438 85.1406,132.2188 Q84.1563,131.7188 83.4688,130.6563 Q82.7813,129.5781 82.7813,128.2969 L82.7813,127.1406 Q82.7813,125.8125 83.3906,124.6719 Q84.0156,123.5156 85.1094,122.9063 Q86.2031,122.2813 87.4375,122.2813 Q88.1719,122.2813 88.8125,122.4531 Q89.4688,122.6094 90.0156,122.9688 Z " fill="#000000"/><text fill="#000000" font-family="sans-serif" font-size="14" lengthAdjust="spacing" textLength="166" x="107.75" y="126.5332">MLDGC.LinearNNESearch</text><text fill="#000000" font-family="sans-serif" font-size="10" lengthAdjust="spacing" textLength="87" x="147.25" y="139.9902">miml.classifiers.ml</text><line style="stroke:#181818;stroke-width:0.5;" x1="18" x2="331" y1="147.1875" y2="147.1875"/><rect fill="none" height="6" style="stroke:#C82930;stroke-width:1.0;" width="6" x="25" y="158.4922"/><text fill="#000000" font-family="sans-serif" font-size="14" lengthAdjust="spacing" text-decoration="underline" textLength="139" x="37" y="165.7207">serialVersionUID: long</text><line style="stroke:#181818;stroke-width:0.5;" x1="18" x2="331" y1="172.7969" y2="172.7969"/><ellipse cx="28" cy="187.1016" fill="#84BE84" rx="3" ry="3" style="stroke:#038048;stroke-width:1.0;"/><text fill="#000000" font-family="sans-serif" font-size="14" lengthAdjust="spacing" textLength="182" x="37" y="191.3301">LinearNNESearch(Instances)</text><ellipse cx="28" cy="204.7109" fill="#84BE84" rx="3" ry="3" style="stroke:#038048;stroke-width:1.0;"/><text fill="#000000" font-family="sans-serif" font-size="14" lengthAdjust="spacing" textLength="289" x="37" y="208.9395">kNearestNeighboursIndices(Instance, int): int[]</text></g></a><!--MD5=[eb02f278cd0139064cb7783efa589cf5]
class weka.core.neighboursearch.LinearNNSearch--><g id="elem_weka.core.neighboursearch.LinearNNSearch"><rect codeLine="11" fill="#F1F1F1" height="40.1875" id="weka.core.neighboursearch.LinearNNSearch" rx="2.5" ry="2.5" style="stroke:#181818;stroke-width:0.5;" width="161" x="7" y="7"/><ellipse cx="22" cy="27.0938" fill="#ADD1B2" rx="11" ry="11" style="stroke:#181818;stroke-width:1.0;"/><path d="M24.7656,22.9688 Q24.9219,22.75 25.1094,22.6406 Q25.2969,22.5313 25.5156,22.5313 Q25.8906,22.5313 26.125,22.7969 Q26.3594,23.0469 26.3594,23.6563 L26.3594,25.1094 Q26.3594,25.7188 26.125,25.9844 Q25.8906,26.25 25.5156,26.25 Q25.1719,26.25 24.9688,26.0469 Q24.7656,25.8594 24.6563,25.3438 Q24.6094,24.9844 24.4219,24.7969 Q24.0938,24.4219 23.4844,24.2031 Q22.875,23.9844 22.25,23.9844 Q21.4844,23.9844 20.8438,24.3125 Q20.2188,24.6406 19.7188,25.3906 Q19.2344,26.1406 19.2344,27.1719 L19.2344,28.2656 Q19.2344,29.5 20.125,30.3281 Q21.0156,31.1406 22.6094,31.1406 Q23.5469,31.1406 24.2031,30.8906 Q24.5938,30.7344 25.0156,30.2969 Q25.2813,30.0313 25.4219,29.9531 Q25.5781,29.875 25.7813,29.875 Q26.1094,29.875 26.3594,30.1406 Q26.625,30.3906 26.625,30.7344 Q26.625,31.0781 26.2813,31.4844 Q25.7813,32.0625 24.9844,32.3906 Q23.9063,32.8438 22.6094,32.8438 Q21.0938,32.8438 19.8906,32.2188 Q18.9063,31.7188 18.2188,30.6563 Q17.5313,29.5781 17.5313,28.2969 L17.5313,27.1406 Q17.5313,25.8125 18.1406,24.6719 Q18.7656,23.5156 19.8594,22.9063 Q20.9531,22.2813 22.1875,22.2813 Q22.9219,22.2813 23.5625,22.4531 Q24.2188,22.6094 24.7656,22.9688 Z " fill="#000000"/><text fill="#000000" font-family="sans-serif" font-size="14" lengthAdjust="spacing" textLength="103" x="49" y="26.5332">LinearNNSearch</text><text fill="#000000" font-family="sans-serif" font-size="10" lengthAdjust="spacing" textLength="129" x="36" y="39.9902">weka.core.neighboursearch</text></g><!--MD5=[a01fdc05959a6990589b03fb7bb274eb]
class miml.classifiers.ml.MLDGC--><a href="MLDGC.html" target="_top" title="MLDGC.html" xlink:actuate="onRequest" xlink:href="MLDGC.html" xlink:show="new" xlink:title="MLDGC.html" xlink:type="simple"><g id="elem_miml.classifiers.ml.MLDGC"><rect codeLine="12" fill="#F1F1F1" height="40.1875" id="miml.classifiers.ml.MLDGC" rx="2.5" ry="2.5" style="stroke:#181818;stroke-width:0.5;" width="119" x="203" y="7"/><ellipse cx="218" cy="27.0938" fill="#ADD1B2" rx="11" ry="11" style="stroke:#181818;stroke-width:1.0;"/><path d="M220.7656,22.9688 Q220.9219,22.75 221.1094,22.6406 Q221.2969,22.5313 221.5156,22.5313 Q221.8906,22.5313 222.125,22.7969 Q222.3594,23.0469 222.3594,23.6563 L222.3594,25.1094 Q222.3594,25.7188 222.125,25.9844 Q221.8906,26.25 221.5156,26.25 Q221.1719,26.25 220.9688,26.0469 Q220.7656,25.8594 220.6563,25.3438 Q220.6094,24.9844 220.4219,24.7969 Q220.0938,24.4219 219.4844,24.2031 Q218.875,23.9844 218.25,23.9844 Q217.4844,23.9844 216.8438,24.3125 Q216.2188,24.6406 215.7188,25.3906 Q215.2344,26.1406 215.2344,27.1719 L215.2344,28.2656 Q215.2344,29.5 216.125,30.3281 Q217.0156,31.1406 218.6094,31.1406 Q219.5469,31.1406 220.2031,30.8906 Q220.5938,30.7344 221.0156,30.2969 Q221.2813,30.0313 221.4219,29.9531 Q221.5781,29.875 221.7813,29.875 Q222.1094,29.875 222.3594,30.1406 Q222.625,30.3906 222.625,30.7344 Q222.625,31.0781 222.2813,31.4844 Q221.7813,32.0625 220.9844,32.3906 Q219.9063,32.8438 218.6094,32.8438 Q217.0938,32.8438 215.8906,32.2188 Q214.9063,31.7188 214.2188,30.6563 Q213.5313,29.5781 213.5313,28.2969 L213.5313,27.1406 Q213.5313,25.8125 214.1406,24.6719 Q214.7656,23.5156 215.8594,22.9063 Q216.9531,22.2813 218.1875,22.2813 Q218.9219,22.2813 219.5625,22.4531 Q220.2188,22.6094 220.7656,22.9688 Z " fill="#000000"/><text fill="#000000" font-family="sans-serif" font-size="14" lengthAdjust="spacing" textLength="50" x="250.5" y="26.5332">MLDGC</text><text fill="#000000" font-family="sans-serif" font-size="10" lengthAdjust="spacing" textLength="87" x="232" y="39.9902">miml.classifiers.ml</text></g></a><!--MD5=[4d24ece5c3028108ef8db9a50d528bda]
reverse link weka.core.neighboursearch.LinearNNSearch to miml.classifiers.ml.MLDGC.LinearNNESearch--><g id="link_weka.core.neighboursearch.LinearNNSearch_miml.classifiers.ml.MLDGC.LinearNNESearch"><path codeLine="14" d="M111.29,64.22 C119.92,77.37 129.86,92.52 139.27,106.85 " fill="none" id="weka.core.neighboursearch.LinearNNSearch-backto-miml.classifiers.ml.MLDGC.LinearNNESearch" style="stroke:#181818;stroke-width:1.0;"/><polygon fill="none" points="105.28,67.83,100.15,47.27,116.98,60.14,105.28,67.83" style="stroke:#181818;stroke-width:1.0;"/></g><!--MD5=[41d28b47ef4596cf22ce9bbaf64d75c1]
reverse link miml.classifiers.ml.MLDGC to miml.classifiers.ml.MLDGC.LinearNNESearch--><g id="link_miml.classifiers.ml.MLDGC_miml.classifiers.ml.MLDGC.LinearNNESearch"><path codeLine="15" d="M241.4,59.78 C232.03,73.88 220.74,90.87 210.13,106.85 " fill="none" id="miml.classifiers.ml.MLDGC-backto-miml.classifiers.ml.MLDGC.LinearNNESearch" style="stroke:#181818;stroke-width:1.0;"/><ellipse cx="245.2747" cy="53.9346" fill="#FFFFFF" rx="8" ry="8" style="stroke:#181818;stroke-width:1.0;"/><line style="stroke:#181818;stroke-width:1.0;" x1="240.8494" x2="249.7" y1="60.5992" y2="47.27"/><line style="stroke:#181818;stroke-width:1.0;" x1="238.6101" x2="251.9393" y1="49.5093" y2="58.3599"/></g><rect fill="none" height="12.5781" style="stroke:none;stroke-width:1.0;" width="190" x="67.5" y="222.0156"/><text fill="#888888" font-family="sans-serif" font-size="10" lengthAdjust="spacing" textLength="190" x="67.5" y="232.3965">UMLDoclet 2.0.20, PlantUML 1.2022.12</text><!--MD5=[29047f68e491830a5a87cb36828db193]
@startuml
    set namespaceSeparator none
    hide empty fields
    hide empty methods

    class "<size:14>MLDGC.LinearNNESearch\n<size:10>miml.classifiers.ml" as miml.classifiers.ml.MLDGC.LinearNNESearch [[MLDGC.LinearNNESearch.html]] {
        {static} -serialVersionUID: long
        +LinearNNESearch(Instances)
        +kNearestNeighboursIndices(Instance, int): int[]
    }

    class "<size:14>LinearNNSearch\n<size:10>weka.core.neighboursearch" as weka.core.neighboursearch.LinearNNSearch
    class "<size:14>MLDGC\n<size:10>miml.classifiers.ml" as miml.classifiers.ml.MLDGC [[MLDGC.html]]

    weka.core.neighboursearch.LinearNNSearch <|- - miml.classifiers.ml.MLDGC.LinearNNESearch
    miml.classifiers.ml.MLDGC +- - miml.classifiers.ml.MLDGC.LinearNNESearch

    center footer UMLDoclet 2.0.20, PlantUML 1.2022.12
@enduml

PlantUML version 1.2022.12(Sun Oct 23 20:12:26 CEST 2022)
(APACHE source distribution)
Java Runtime: OpenJDK Runtime Environment
JVM: OpenJDK 64-Bit Server VM
Default Encoding: Cp1252
Language: es
Country: ES
--></g></svg>