<?xml version="1.0" encoding="UTF-8" standalone="no"?><svg xmlns="http://www.w3.org/2000/svg" xmlns:xlink="http://www.w3.org/1999/xlink" contentStyleType="text/css" height="884px" preserveAspectRatio="none" style="width:645px;height:884px;background:#FFFFFF;" version="1.1" viewBox="0 0 645 884" width="645px" zoomAndPan="magnify"><defs/><g><!--MD5=[2cfd21c4ff25f568e0b9cbbd46941ba7]
cluster miml.classifiers.ml--><g id="cluster_miml.classifiers.ml"><path d="M248.5,280 L377.5,280 A3.75,3.75 0 0 1 380,282.5 L387,303.6094 L635.5,303.6094 A2.5,2.5 0 0 1 638,306.1094 L638,855.5 A2.5,2.5 0 0 1 635.5,858 L248.5,858 A2.5,2.5 0 0 1 246,855.5 L246,282.5 A2.5,2.5 0 0 1 248.5,280 " fill="none" style="stroke:#000000;stroke-width:1.5;"/><line style="stroke:#000000;stroke-width:1.5;" x1="246" x2="387" y1="303.6094" y2="303.6094"/><text fill="#000000" font-family="sans-serif" font-size="14" font-weight="bold" lengthAdjust="spacing" textLength="128" x="250" y="296.5332">miml.classifiers.ml</text></g><!--MD5=[77a9edddc0751e9796a16b2d6fe3830e]
cluster mulan.classifier.lazy--><g id="cluster_mulan.classifier.lazy"><path d="M335.5,6 L476.5,6 A3.75,3.75 0 0 1 479,8.5 L486,29.6094 L548.5,29.6094 A2.5,2.5 0 0 1 551,32.1094 L551,244.5 A2.5,2.5 0 0 1 548.5,247 L335.5,247 A2.5,2.5 0 0 1 333,244.5 L333,8.5 A2.5,2.5 0 0 1 335.5,6 " fill="none" style="stroke:#000000;stroke-width:1.5;"/><line style="stroke:#000000;stroke-width:1.5;" x1="333" x2="486" y1="29.6094" y2="29.6094"/><text fill="#000000" font-family="sans-serif" font-size="14" font-weight="bold" lengthAdjust="spacing" textLength="140" x="337" y="22.5332">mulan.classifier.lazy</text></g><!--MD5=[989a22a0912c6303026fcb811ca600a2]
cluster weka.core.neighboursearch--><g id="cluster_weka.core.neighboursearch"><path d="M8.5,403 L206.5,403 A3.75,3.75 0 0 1 209,405.5 L216,426.6094 L219.5,426.6094 A2.5,2.5 0 0 1 222,429.1094 L222,553.5 A2.5,2.5 0 0 1 219.5,556 L8.5,556 A2.5,2.5 0 0 1 6,553.5 L6,405.5 A2.5,2.5 0 0 1 8.5,403 " fill="none" style="stroke:#000000;stroke-width:1.5;"/><line style="stroke:#000000;stroke-width:1.5;" x1="6" x2="216" y1="426.6094" y2="426.6094"/><text fill="#000000" font-family="sans-serif" font-size="14" font-weight="bold" lengthAdjust="spacing" textLength="197" x="10" y="419.5332">weka.core.neighboursearch</text></g><!--MD5=[a01fdc05959a6990589b03fb7bb274eb]
class miml.classifiers.ml.MLDGC--><a href="MLDGC.html" target="_top" title="MLDGC.html" xlink:actuate="onRequest" xlink:href="MLDGC.html" xlink:show="new" xlink:title="MLDGC.html" xlink:type="simple"><g id="elem_miml.classifiers.ml.MLDGC"><rect codeLine="3" fill="#F1F1F1" height="347.3594" id="miml.classifiers.ml.MLDGC" rx="2.5" ry="2.5" style="stroke:#181818;stroke-width:0.5;" width="359" x="262.5" y="316"/><ellipse cx="412.75" cy="332" fill="#ADD1B2" rx="11" ry="11" style="stroke:#181818;stroke-width:1.0;"/><path d="M415.5156,327.875 Q415.6719,327.6563 415.8594,327.5469 Q416.0469,327.4375 416.2656,327.4375 Q416.6406,327.4375 416.875,327.7031 Q417.1094,327.9531 417.1094,328.5625 L417.1094,330.0156 Q417.1094,330.625 416.875,330.8906 Q416.6406,331.1563 416.2656,331.1563 Q415.9219,331.1563 415.7188,330.9531 Q415.5156,330.7656 415.4063,330.25 Q415.3594,329.8906 415.1719,329.7031 Q414.8438,329.3281 414.2344,329.1094 Q413.625,328.8906 413,328.8906 Q412.2344,328.8906 411.5938,329.2188 Q410.9688,329.5469 410.4688,330.2969 Q409.9844,331.0469 409.9844,332.0781 L409.9844,333.1719 Q409.9844,334.4063 410.875,335.2344 Q411.7656,336.0469 413.3594,336.0469 Q414.2969,336.0469 414.9531,335.7969 Q415.3438,335.6406 415.7656,335.2031 Q416.0313,334.9375 416.1719,334.8594 Q416.3281,334.7813 416.5313,334.7813 Q416.8594,334.7813 417.1094,335.0469 Q417.375,335.2969 417.375,335.6406 Q417.375,335.9844 417.0313,336.3906 Q416.5313,336.9688 415.7344,337.2969 Q414.6563,337.75 413.3594,337.75 Q411.8438,337.75 410.6406,337.125 Q409.6563,336.625 408.9688,335.5625 Q408.2813,334.4844 408.2813,333.2031 L408.2813,332.0469 Q408.2813,330.7188 408.8906,329.5781 Q409.5156,328.4219 410.6094,327.8125 Q411.7031,327.1875 412.9375,327.1875 Q413.6719,327.1875 414.3125,327.3594 Q414.9688,327.5156 415.5156,327.875 Z " fill="#000000"/><text fill="#000000" font-family="sans-serif" font-size="14" lengthAdjust="spacing" textLength="50" x="433.25" y="337.7285">MLDGC</text><line style="stroke:#181818;stroke-width:0.5;" x1="263.5" x2="620.5" y1="348" y2="348"/><rect fill="none" height="6" style="stroke:#C82930;stroke-width:1.0;" width="6" x="270.5" y="359.3047"/><text fill="#000000" font-family="sans-serif" font-size="14" lengthAdjust="spacing" text-decoration="underline" textLength="139" x="282.5" y="366.5332">serialVersionUID: long</text><polygon fill="none" points="273.5,374.9141,277.5,378.9141,273.5,382.9141,269.5,378.9141" style="stroke:#B38D22;stroke-width:1.0;"/><text fill="#000000" font-family="sans-serif" font-size="14" lengthAdjust="spacing" textLength="89" x="282.5" y="384.1426">NGC: double[]</text><polygon fill="none" points="273.5,392.5234,277.5,396.5234,273.5,400.5234,269.5,396.5234" style="stroke:#B38D22;stroke-width:1.0;"/><text fill="#000000" font-family="sans-serif" font-size="14" lengthAdjust="spacing" textLength="115" x="282.5" y="401.752">densities: double[]</text><polygon fill="none" points="273.5,410.1328,277.5,414.1328,273.5,418.1328,269.5,414.1328" style="stroke:#B38D22;stroke-width:1.0;"/><text fill="#000000" font-family="sans-serif" font-size="14" lengthAdjust="spacing" textLength="106" x="282.5" y="419.3613">weights: double[]</text><polygon fill="none" points="273.5,428.7422,269.5,434.7422,277.5,434.7422" style="stroke:#1963A0;stroke-width:1.0;"/><text fill="#000000" font-family="sans-serif" font-size="14" lengthAdjust="spacing" textLength="113" x="282.5" y="436.9707">extNeigh: boolean</text><polygon fill="none" points="273.5,445.3516,277.5,449.3516,273.5,453.3516,269.5,449.3516" style="stroke:#B38D22;stroke-width:1.0;"/><text fill="#000000" font-family="sans-serif" font-size="14" lengthAdjust="spacing" textLength="124" x="282.5" y="454.5801">weight_max: double</text><polygon fill="none" points="273.5,462.9609,277.5,466.9609,273.5,470.9609,269.5,466.9609" style="stroke:#B38D22;stroke-width:1.0;"/><text fill="#000000" font-family="sans-serif" font-size="14" lengthAdjust="spacing" textLength="121" x="282.5" y="472.1895">weight_min: double</text><line style="stroke:#181818;stroke-width:0.5;" x1="263.5" x2="620.5" y1="479.2656" y2="479.2656"/><ellipse cx="273.5" cy="493.5703" fill="#84BE84" rx="3" ry="3" style="stroke:#038048;stroke-width:1.0;"/><text fill="#000000" font-family="sans-serif" font-size="14" lengthAdjust="spacing" textLength="60" x="282.5" y="497.7988">MLDGC()</text><ellipse cx="273.5" cy="511.1797" fill="#84BE84" rx="3" ry="3" style="stroke:#038048;stroke-width:1.0;"/><text fill="#000000" font-family="sans-serif" font-size="14" lengthAdjust="spacing" textLength="75" x="282.5" y="515.4082">MLDGC(int)</text><ellipse cx="273.5" cy="528.7891" fill="#84BE84" rx="3" ry="3" style="stroke:#038048;stroke-width:1.0;"/><text fill="#000000" font-family="sans-serif" font-size="14" lengthAdjust="spacing" textLength="193" x="282.5" y="533.0176">MLDGC(int, DistanceFunction)</text><polygon fill="#FFFF44" points="273.5,541.3984,277.5,545.3984,273.5,549.3984,269.5,545.3984" style="stroke:#B38D22;stroke-width:1.0;"/><text fill="#000000" font-family="sans-serif" font-size="14" lengthAdjust="spacing" textLength="245" x="282.5" y="550.627">buildInternal(MultiLabelInstances): void</text><polygon fill="#FFFF44" points="273.5,559.0078,277.5,563.0078,273.5,567.0078,269.5,563.0078" style="stroke:#B38D22;stroke-width:1.0;"/><text fill="#000000" font-family="sans-serif" font-size="14" lengthAdjust="spacing" textLength="260" x="282.5" y="568.2363">labelDistance(Instance, Instance): double</text><polygon fill="#FFFF44" points="273.5,576.6172,277.5,580.6172,273.5,584.6172,269.5,580.6172" style="stroke:#B38D22;stroke-width:1.0;"/><text fill="#000000" font-family="sans-serif" font-size="14" lengthAdjust="spacing" textLength="333" x="282.5" y="585.8457">computeWeightDensity(Instances, Instance, int): void</text><polygon fill="#FFFF44" points="273.5,594.2266,277.5,598.2266,273.5,602.2266,269.5,598.2266" style="stroke:#B38D22;stroke-width:1.0;"/><text fill="#000000" font-family="sans-serif" font-size="14" lengthAdjust="spacing" textLength="322" x="282.5" y="603.4551">makePredictionInternal(Instance): MultiLabelOutput</text><ellipse cx="273.5" cy="616.8359" fill="#84BE84" rx="3" ry="3" style="stroke:#038048;stroke-width:1.0;"/><text fill="#000000" font-family="sans-serif" font-size="14" lengthAdjust="spacing" textLength="134" x="282.5" y="621.0645">isExtNeigh(): boolean</text><ellipse cx="273.5" cy="634.4453" fill="#84BE84" rx="3" ry="3" style="stroke:#038048;stroke-width:1.0;"/><text fill="#000000" font-family="sans-serif" font-size="14" lengthAdjust="spacing" textLength="169" x="282.5" y="638.6738">setExtNeigh(boolean): void</text><ellipse cx="273.5" cy="652.0547" fill="#84BE84" rx="3" ry="3" style="stroke:#038048;stroke-width:1.0;"/><text fill="#000000" font-family="sans-serif" font-size="14" lengthAdjust="spacing" textLength="300" x="282.5" y="656.2832">getTechnicalInformation(): TechnicalInformation</text></g></a><!--MD5=[00ac4a161a554823021908f149c70241]
class miml.classifiers.ml.MLDGC.LinearNNESearch--><a href="MLDGC.LinearNNESearch.html" target="_top" title="MLDGC.LinearNNESearch.html" xlink:actuate="onRequest" xlink:href="MLDGC.LinearNNESearch.html" xlink:show="new" xlink:title="MLDGC.LinearNNESearch.html" xlink:type="simple"><g id="elem_miml.classifiers.ml.MLDGC.LinearNNESearch"><rect codeLine="23" fill="#F1F1F1" height="100.8281" id="miml.classifiers.ml.MLDGC.LinearNNESearch" rx="2.5" ry="2.5" style="stroke:#181818;stroke-width:0.5;" width="315" x="262.5" y="741"/><ellipse cx="332.75" cy="757" fill="#ADD1B2" rx="11" ry="11" style="stroke:#181818;stroke-width:1.0;"/><path d="M335.5156,752.875 Q335.6719,752.6563 335.8594,752.5469 Q336.0469,752.4375 336.2656,752.4375 Q336.6406,752.4375 336.875,752.7031 Q337.1094,752.9531 337.1094,753.5625 L337.1094,755.0156 Q337.1094,755.625 336.875,755.8906 Q336.6406,756.1563 336.2656,756.1563 Q335.9219,756.1563 335.7188,755.9531 Q335.5156,755.7656 335.4063,755.25 Q335.3594,754.8906 335.1719,754.7031 Q334.8438,754.3281 334.2344,754.1094 Q333.625,753.8906 333,753.8906 Q332.2344,753.8906 331.5938,754.2188 Q330.9688,754.5469 330.4688,755.2969 Q329.9844,756.0469 329.9844,757.0781 L329.9844,758.1719 Q329.9844,759.4063 330.875,760.2344 Q331.7656,761.0469 333.3594,761.0469 Q334.2969,761.0469 334.9531,760.7969 Q335.3438,760.6406 335.7656,760.2031 Q336.0313,759.9375 336.1719,759.8594 Q336.3281,759.7813 336.5313,759.7813 Q336.8594,759.7813 337.1094,760.0469 Q337.375,760.2969 337.375,760.6406 Q337.375,760.9844 337.0313,761.3906 Q336.5313,761.9688 335.7344,762.2969 Q334.6563,762.75 333.3594,762.75 Q331.8438,762.75 330.6406,762.125 Q329.6563,761.625 328.9688,760.5625 Q328.2813,759.4844 328.2813,758.2031 L328.2813,757.0469 Q328.2813,755.7188 328.8906,754.5781 Q329.5156,753.4219 330.6094,752.8125 Q331.7031,752.1875 332.9375,752.1875 Q333.6719,752.1875 334.3125,752.3594 Q334.9688,752.5156 335.5156,752.875 Z " fill="#000000"/><text fill="#000000" font-family="sans-serif" font-size="14" lengthAdjust="spacing" textLength="166" x="353.25" y="762.7285">MLDGC.LinearNNESearch</text><line style="stroke:#181818;stroke-width:0.5;" x1="263.5" x2="576.5" y1="773" y2="773"/><rect fill="none" height="6" style="stroke:#C82930;stroke-width:1.0;" width="6" x="270.5" y="784.3047"/><text fill="#000000" font-family="sans-serif" font-size="14" lengthAdjust="spacing" text-decoration="underline" textLength="139" x="282.5" y="791.5332">serialVersionUID: long</text><line style="stroke:#181818;stroke-width:0.5;" x1="263.5" x2="576.5" y1="798.6094" y2="798.6094"/><ellipse cx="273.5" cy="812.9141" fill="#84BE84" rx="3" ry="3" style="stroke:#038048;stroke-width:1.0;"/><text fill="#000000" font-family="sans-serif" font-size="14" lengthAdjust="spacing" textLength="182" x="282.5" y="817.1426">LinearNNESearch(Instances)</text><ellipse cx="273.5" cy="830.5234" fill="#84BE84" rx="3" ry="3" style="stroke:#038048;stroke-width:1.0;"/><text fill="#000000" font-family="sans-serif" font-size="14" lengthAdjust="spacing" textLength="289" x="282.5" y="834.752">kNearestNeighboursIndices(Instance, int): int[]</text></g></a><!--MD5=[061640b434683df74f0a550e86019449]
class mulan.classifier.lazy.MultiLabelKNN--><g id="elem_mulan.classifier.lazy.MultiLabelKNN"><rect codeLine="36" fill="#F1F1F1" height="188.875" id="mulan.classifier.lazy.MultiLabelKNN" rx="2.5" ry="2.5" style="stroke:#181818;stroke-width:0.5;" width="185" x="349.5" y="42"/><ellipse cx="391.05" cy="58" fill="#A9DCDF" rx="11" ry="11" style="stroke:#181818;stroke-width:1.0;"/><path d="M393.2375,59.7656 L389.0969,59.7656 L388.675,60.7969 L389.0969,60.7969 Q389.7063,60.7969 389.9719,61.0313 Q390.2375,61.2656 390.2375,61.6563 Q390.2375,62.0313 389.9719,62.2656 Q389.7063,62.5 389.0969,62.5 L386.8,62.5 Q386.1906,62.5 385.9406,62.2656 Q385.675,62.0313 385.675,61.6406 Q385.675,61.2656 385.9563,61.0313 Q386.2219,60.7813 386.8469,60.7969 L389.5188,54.1406 L388.4094,54.1406 Q387.8,54.1406 387.5344,53.9063 Q387.2688,53.6719 387.2688,53.2813 Q387.2688,52.9063 387.5344,52.6719 Q387.8,52.4375 388.4094,52.4375 L392.0813,52.4375 L395.4719,60.7969 Q396.0656,60.7969 396.2531,60.9375 Q396.6438,61.2031 396.6438,61.6563 Q396.6438,62.0313 396.3781,62.2656 Q396.1281,62.5 395.5188,62.5 L393.2219,62.5 Q392.6125,62.5 392.3469,62.2656 Q392.0813,62.0313 392.0813,61.6406 Q392.0813,61.2656 392.3469,61.0313 Q392.6125,60.7969 393.2219,60.7969 L393.6438,60.7969 L393.2375,59.7656 Z M392.5188,58.0625 L391.1594,54.6875 L389.7844,58.0625 L392.5188,58.0625 Z " fill="#000000"/><text fill="#000000" font-family="sans-serif" font-size="14" font-style="italic" lengthAdjust="spacing" textLength="94" x="410.95" y="63.7285">MultiLabelKNN</text><line style="stroke:#181818;stroke-width:0.5;" x1="350.5" x2="533.5" y1="74" y2="74"/><polygon fill="none" points="360.5,83.3047,364.5,87.3047,360.5,91.3047,356.5,87.3047" style="stroke:#B38D22;stroke-width:1.0;"/><text fill="#000000" font-family="sans-serif" font-size="14" lengthAdjust="spacing" textLength="139" x="369.5" y="92.5332">distanceWeighting: int</text><ellipse cx="360.5" cy="105.9141" fill="none" rx="3" ry="3" style="stroke:#038048;stroke-width:1.0;"/><text fill="#000000" font-family="sans-serif" font-size="14" lengthAdjust="spacing" text-decoration="underline" textLength="123" x="369.5" y="110.1426">WEIGHT_NONE: int</text><ellipse cx="360.5" cy="123.5234" fill="none" rx="3" ry="3" style="stroke:#038048;stroke-width:1.0;"/><text fill="#000000" font-family="sans-serif" font-size="14" lengthAdjust="spacing" text-decoration="underline" textLength="143" x="369.5" y="127.752">WEIGHT_INVERSE: int</text><ellipse cx="360.5" cy="141.1328" fill="none" rx="3" ry="3" style="stroke:#038048;stroke-width:1.0;"/><text fill="#000000" font-family="sans-serif" font-size="14" lengthAdjust="spacing" text-decoration="underline" textLength="159" x="369.5" y="145.3613">WEIGHT_SIMILARITY: int</text><polygon fill="none" points="360.5,153.7422,364.5,157.7422,360.5,161.7422,356.5,157.7422" style="stroke:#B38D22;stroke-width:1.0;"/><text fill="#000000" font-family="sans-serif" font-size="14" lengthAdjust="spacing" textLength="129" x="369.5" y="162.9707">numOfNeighbors: int</text><polygon fill="none" points="360.5,171.3516,364.5,175.3516,360.5,179.3516,356.5,175.3516" style="stroke:#B38D22;stroke-width:1.0;"/><text fill="#000000" font-family="sans-serif" font-size="14" lengthAdjust="spacing" textLength="130" x="369.5" y="180.5801">lnn: LinearNNSearch</text><polygon fill="none" points="360.5,188.9609,364.5,192.9609,360.5,196.9609,356.5,192.9609" style="stroke:#B38D22;stroke-width:1.0;"/><text fill="#000000" font-family="sans-serif" font-size="14" lengthAdjust="spacing" textLength="153" x="369.5" y="198.1895">dfunc: DistanceFunction</text><polygon fill="none" points="360.5,206.5703,364.5,210.5703,360.5,214.5703,356.5,210.5703" style="stroke:#B38D22;stroke-width:1.0;"/><text fill="#000000" font-family="sans-serif" font-size="14" lengthAdjust="spacing" textLength="96" x="369.5" y="215.7988">train: Instances</text><line style="stroke:#181818;stroke-width:0.5;" x1="350.5" x2="533.5" y1="222.875" y2="222.875"/></g><!--MD5=[eb02f278cd0139064cb7783efa589cf5]
class weka.core.neighboursearch.LinearNNSearch--><g id="elem_weka.core.neighboursearch.LinearNNSearch"><rect codeLine="49" fill="#F1F1F1" height="100.8281" id="weka.core.neighboursearch.LinearNNSearch" rx="2.5" ry="2.5" style="stroke:#181818;stroke-width:0.5;" width="183" x="22.5" y="439"/><ellipse cx="59.1" cy="455" fill="#ADD1B2" rx="11" ry="11" style="stroke:#181818;stroke-width:1.0;"/><path d="M61.8656,450.875 Q62.0219,450.6563 62.2094,450.5469 Q62.3969,450.4375 62.6156,450.4375 Q62.9906,450.4375 63.225,450.7031 Q63.4594,450.9531 63.4594,451.5625 L63.4594,453.0156 Q63.4594,453.625 63.225,453.8906 Q62.9906,454.1563 62.6156,454.1563 Q62.2719,454.1563 62.0688,453.9531 Q61.8656,453.7656 61.7563,453.25 Q61.7094,452.8906 61.5219,452.7031 Q61.1938,452.3281 60.5844,452.1094 Q59.975,451.8906 59.35,451.8906 Q58.5844,451.8906 57.9438,452.2188 Q57.3188,452.5469 56.8188,453.2969 Q56.3344,454.0469 56.3344,455.0781 L56.3344,456.1719 Q56.3344,457.4063 57.225,458.2344 Q58.1156,459.0469 59.7094,459.0469 Q60.6469,459.0469 61.3031,458.7969 Q61.6938,458.6406 62.1156,458.2031 Q62.3813,457.9375 62.5219,457.8594 Q62.6781,457.7813 62.8813,457.7813 Q63.2094,457.7813 63.4594,458.0469 Q63.725,458.2969 63.725,458.6406 Q63.725,458.9844 63.3813,459.3906 Q62.8813,459.9688 62.0844,460.2969 Q61.0063,460.75 59.7094,460.75 Q58.1938,460.75 56.9906,460.125 Q56.0063,459.625 55.3188,458.5625 Q54.6313,457.4844 54.6313,456.2031 L54.6313,455.0469 Q54.6313,453.7188 55.2406,452.5781 Q55.8656,451.4219 56.9594,450.8125 Q58.0531,450.1875 59.2875,450.1875 Q60.0219,450.1875 60.6625,450.3594 Q61.3188,450.5156 61.8656,450.875 Z " fill="#000000"/><text fill="#000000" font-family="sans-serif" font-size="14" lengthAdjust="spacing" textLength="103" x="77.9" y="460.7285">LinearNNSearch</text><line style="stroke:#181818;stroke-width:0.5;" x1="23.5" x2="204.5" y1="471" y2="471"/><rect fill="none" height="6" style="stroke:#C82930;stroke-width:1.0;" width="6" x="30.5" y="482.3047"/><text fill="#000000" font-family="sans-serif" font-size="14" lengthAdjust="spacing" text-decoration="underline" textLength="139" x="42.5" y="489.5332">serialVersionUID: long</text><polygon fill="none" points="33.5,497.9141,37.5,501.9141,33.5,505.9141,29.5,501.9141" style="stroke:#B38D22;stroke-width:1.0;"/><text fill="#000000" font-family="sans-serif" font-size="14" lengthAdjust="spacing" textLength="140" x="42.5" y="507.1426">m_Distances: double[]</text><polygon fill="none" points="33.5,515.5234,37.5,519.5234,33.5,523.5234,29.5,519.5234" style="stroke:#B38D22;stroke-width:1.0;"/><text fill="#000000" font-family="sans-serif" font-size="14" lengthAdjust="spacing" textLength="157" x="42.5" y="524.752">m_SkipIdentical: boolean</text><line style="stroke:#181818;stroke-width:0.5;" x1="23.5" x2="204.5" y1="531.8281" y2="531.8281"/></g><!--MD5=[23c730b98a8815335f0d76a0bb0f77bd]
reverse link mulan.classifier.lazy.MultiLabelKNN to miml.classifiers.ml.MLDGC--><g id="link_mulan.classifier.lazy.MultiLabelKNN_miml.classifiers.ml.MLDGC"><path codeLine="29" d="M442,251.29 C442,271.96 442,293.94 442,315.86 " fill="none" id="mulan.classifier.lazy.MultiLabelKNN-backto-miml.classifiers.ml.MLDGC" style="stroke:#181818;stroke-width:1.0;"/><polygon fill="none" points="435,251.1,442,231.1,449,251.1,435,251.1" style="stroke:#181818;stroke-width:1.0;"/></g><!--MD5=[99721ec7e30734fe42a587011b7f14f5]
link miml.classifiers.ml.MLDGC to miml.classifiers.ml.MLDGC.LinearNNESearch--><g id="link_miml.classifiers.ml.MLDGC_miml.classifiers.ml.MLDGC.LinearNNESearch"><path codeLine="30" d="M412.33,663.27 C411.43,679.37 411.22,695.47 412,711 C412.4,719.03 413.03,727.5 413.77,735.8 " fill="none" id="miml.classifiers.ml.MLDGC-to-miml.classifiers.ml.MLDGC.LinearNNESearch" style="stroke:#181818;stroke-width:1.0;"/><polygon fill="#181818" points="414.24,740.94,417.4015,731.6124,413.7835,735.9609,409.4349,732.3428,414.24,740.94" style="stroke:#181818;stroke-width:1.0;"/><text fill="#000000" font-family="sans-serif" font-size="13" lengthAdjust="spacing" textLength="24" x="413" y="707.4951">elnn</text></g><!--MD5=[41d28b47ef4596cf22ce9bbaf64d75c1]
reverse link miml.classifiers.ml.MLDGC to miml.classifiers.ml.MLDGC.LinearNNESearch--><g id="link_miml.classifiers.ml.MLDGC_miml.classifiers.ml.MLDGC.LinearNNESearch"><path codeLine="32" d="M445.43,678.37 C444.57,689.43 443.44,700.37 442,711 C440.67,720.79 438.46,731.08 435.94,740.89 " fill="none" id="miml.classifiers.ml.MLDGC-backto-miml.classifiers.ml.MLDGC.LinearNNESearch" style="stroke:#181818;stroke-width:1.0;"/><ellipse cx="445.9163" cy="671.2122" fill="#FFFFFF" rx="8" ry="8" style="stroke:#181818;stroke-width:1.0;"/><line style="stroke:#181818;stroke-width:1.0;" x1="445.3827" x2="446.45" y1="679.1944" y2="663.23"/><line style="stroke:#181818;stroke-width:1.0;" x1="437.9341" x2="453.8985" y1="670.6785" y2="671.7459"/></g><!--MD5=[4d24ece5c3028108ef8db9a50d528bda]
reverse link weka.core.neighboursearch.LinearNNSearch to miml.classifiers.ml.MLDGC.LinearNNESearch--><g id="link_weka.core.neighboursearch.LinearNNSearch_miml.classifiers.ml.MLDGC.LinearNNESearch"><path codeLine="31" d="M157.93,556.79 C181.88,590.47 213.27,630.95 246,663 C275.16,691.56 311.04,718.92 342.62,740.91 " fill="none" id="weka.core.neighboursearch.LinearNNSearch-backto-miml.classifiers.ml.MLDGC.LinearNNESearch" style="stroke:#181818;stroke-width:1.0;"/><polygon fill="none" points="152.17,560.77,146.46,540.37,163.65,552.75,152.17,560.77" style="stroke:#181818;stroke-width:1.0;"/></g><rect fill="none" height="12.5781" style="stroke:none;stroke-width:1.0;" width="190" x="220.5" y="864"/><text fill="#888888" font-family="sans-serif" font-size="10" lengthAdjust="spacing" textLength="190" x="220.5" y="874.3809">UMLDoclet 2.0.20, PlantUML 1.2022.12</text><!--MD5=[9402aadfef56135087a1b0b4cd203b00]
@startuml
    namespace miml.classifiers.ml {

        class MLDGC [[MLDGC.html]] {
            {static} -serialVersionUID: long
            #NGC: double[]
            #densities: double[]
            #weights: double[]
            ~extNeigh: boolean
            #weight_max: double
            #weight_min: double
            +MLDGC()
            +MLDGC(int)
            +MLDGC(int, DistanceFunction)
            #buildInternal(MultiLabelInstances): void
            #labelDistance(Instance, Instance): double
            #computeWeightDensity(Instances, Instance, int): void
            #makePredictionInternal(Instance): MultiLabelOutput
            +isExtNeigh(): boolean
            +setExtNeigh(boolean): void
            +getTechnicalInformation(): TechnicalInformation
        }

        class miml.classifiers.ml.MLDGC.LinearNNESearch [[MLDGC.LinearNNESearch.html]] {
            {static} -serialVersionUID: long
            +LinearNNESearch(Instances)
            +kNearestNeighboursIndices(Instance, int): int[]
        }

        mulan.classifier.lazy.MultiLabelKNN <|- - MLDGC
        MLDGC - -> miml.classifiers.ml.MLDGC.LinearNNESearch: elnn
        weka.core.neighboursearch.LinearNNSearch <|- - miml.classifiers.ml.MLDGC.LinearNNESearch
        MLDGC +- - miml.classifiers.ml.MLDGC.LinearNNESearch
    }

    namespace mulan.classifier.lazy {
        abstract class MultiLabelKNN {
            #distanceWeighting: int
            {static} +WEIGHT_NONE: int
            {static} +WEIGHT_INVERSE: int
            {static} +WEIGHT_SIMILARITY: int
            #numOfNeighbors: int
            #lnn: LinearNNSearch
            #dfunc: DistanceFunction
            #train: Instances
        }
    }

    namespace weka.core.neighboursearch {
        class LinearNNSearch {
            {static} -serialVersionUID: long
            #m_Distances: double[]
            #m_SkipIdentical: boolean
        }
    }

    center footer UMLDoclet 2.0.20, PlantUML 1.2022.12
@enduml

PlantUML version 1.2022.12(Sun Oct 23 20:12:26 CEST 2022)
(APACHE source distribution)
Java Runtime: OpenJDK Runtime Environment
JVM: OpenJDK 64-Bit Server VM
Default Encoding: Cp1252
Language: es
Country: ES
--></g></svg>