<?xml version="1.0" encoding="UTF-8" standalone="no"?><svg xmlns="http://www.w3.org/2000/svg" xmlns:xlink="http://www.w3.org/1999/xlink" contentStyleType="text/css" height="224px" preserveAspectRatio="none" style="width:306px;height:224px;background:#FFFFFF;" version="1.1" viewBox="0 0 306 224" width="306px" zoomAndPan="magnify"><defs/><g><!--MD5=[cd6def989c0e023f85a0868392d20717]
class miml.classifiers.mi.MISMOWrapper--><a href="MISMOWrapper.html" target="_top" title="MISMOWrapper.html" xlink:actuate="onRequest" xlink:href="MISMOWrapper.html" xlink:show="new" xlink:title="MISMOWrapper.html" xlink:type="simple"><g id="elem_miml.classifiers.mi.MISMOWrapper"><rect codeLine="5" fill="#F1F1F1" height="91.4063" id="miml.classifiers.mi.MISMOWrapper" rx="2.5" ry="2.5" style="stroke:#181818;stroke-width:0.5;" width="292" x="7" y="107"/><ellipse cx="98.75" cy="127.0938" fill="#ADD1B2" rx="11" ry="11" style="stroke:#181818;stroke-width:1.0;"/><path d="M101.5156,122.9688 Q101.6719,122.75 101.8594,122.6406 Q102.0469,122.5313 102.2656,122.5313 Q102.6406,122.5313 102.875,122.7969 Q103.1094,123.0469 103.1094,123.6563 L103.1094,125.1094 Q103.1094,125.7188 102.875,125.9844 Q102.6406,126.25 102.2656,126.25 Q101.9219,126.25 101.7188,126.0469 Q101.5156,125.8594 101.4063,125.3438 Q101.3594,124.9844 101.1719,124.7969 Q100.8438,124.4219 100.2344,124.2031 Q99.625,123.9844 99,123.9844 Q98.2344,123.9844 97.5938,124.3125 Q96.9688,124.6406 96.4688,125.3906 Q95.9844,126.1406 95.9844,127.1719 L95.9844,128.2656 Q95.9844,129.5 96.875,130.3281 Q97.7656,131.1406 99.3594,131.1406 Q100.2969,131.1406 100.9531,130.8906 Q101.3438,130.7344 101.7656,130.2969 Q102.0313,130.0313 102.1719,129.9531 Q102.3281,129.875 102.5313,129.875 Q102.8594,129.875 103.1094,130.1406 Q103.375,130.3906 103.375,130.7344 Q103.375,131.0781 103.0313,131.4844 Q102.5313,132.0625 101.7344,132.3906 Q100.6563,132.8438 99.3594,132.8438 Q97.8438,132.8438 96.6406,132.2188 Q95.6563,131.7188 94.9688,130.6563 Q94.2813,129.5781 94.2813,128.2969 L94.2813,127.1406 Q94.2813,125.8125 94.8906,124.6719 Q95.5156,123.5156 96.6094,122.9063 Q97.7031,122.2813 98.9375,122.2813 Q99.6719,122.2813 100.3125,122.4531 Q100.9688,122.6094 101.5156,122.9688 Z " fill="#000000"/><text fill="#000000" font-family="sans-serif" font-size="14" lengthAdjust="spacing" textLength="100" x="119.25" y="126.5332">MISMOWrapper</text><text fill="#000000" font-family="sans-serif" font-size="10" lengthAdjust="spacing" textLength="87" x="125.75" y="139.9902">miml.classifiers.mi</text><line style="stroke:#181818;stroke-width:0.5;" x1="8" x2="298" y1="147.1875" y2="147.1875"/><rect fill="none" height="6" style="stroke:#C82930;stroke-width:1.0;" width="6" x="15" y="158.4922"/><text fill="#000000" font-family="sans-serif" font-size="14" lengthAdjust="spacing" text-decoration="underline" textLength="139" x="27" y="165.7207">serialVersionUID: long</text><line style="stroke:#181818;stroke-width:0.5;" x1="8" x2="298" y1="172.7969" y2="172.7969"/><ellipse cx="18" cy="187.1016" fill="#84BE84" rx="3" ry="3" style="stroke:#038048;stroke-width:1.0;"/><text fill="#000000" font-family="sans-serif" font-size="14" lengthAdjust="spacing" textLength="266" x="27" y="191.3301">distributionForInstance(Instance): double[]</text></g></a><!--MD5=[35dc443a5d6ef56f93add185de2da1f2]
class weka.classifiers.mi.MISMO--><g id="elem_weka.classifiers.mi.MISMO"><rect codeLine="10" fill="#F1F1F1" height="40.1875" id="weka.classifiers.mi.MISMO" rx="2.5" ry="2.5" style="stroke:#181818;stroke-width:0.5;" width="118" x="94" y="7"/><ellipse cx="109" cy="27.0938" fill="#ADD1B2" rx="11" ry="11" style="stroke:#181818;stroke-width:1.0;"/><path d="M111.7656,22.9688 Q111.9219,22.75 112.1094,22.6406 Q112.2969,22.5313 112.5156,22.5313 Q112.8906,22.5313 113.125,22.7969 Q113.3594,23.0469 113.3594,23.6563 L113.3594,25.1094 Q113.3594,25.7188 113.125,25.9844 Q112.8906,26.25 112.5156,26.25 Q112.1719,26.25 111.9688,26.0469 Q111.7656,25.8594 111.6563,25.3438 Q111.6094,24.9844 111.4219,24.7969 Q111.0938,24.4219 110.4844,24.2031 Q109.875,23.9844 109.25,23.9844 Q108.4844,23.9844 107.8438,24.3125 Q107.2188,24.6406 106.7188,25.3906 Q106.2344,26.1406 106.2344,27.1719 L106.2344,28.2656 Q106.2344,29.5 107.125,30.3281 Q108.0156,31.1406 109.6094,31.1406 Q110.5469,31.1406 111.2031,30.8906 Q111.5938,30.7344 112.0156,30.2969 Q112.2813,30.0313 112.4219,29.9531 Q112.5781,29.875 112.7813,29.875 Q113.1094,29.875 113.3594,30.1406 Q113.625,30.3906 113.625,30.7344 Q113.625,31.0781 113.2813,31.4844 Q112.7813,32.0625 111.9844,32.3906 Q110.9063,32.8438 109.6094,32.8438 Q108.0938,32.8438 106.8906,32.2188 Q105.9063,31.7188 105.2188,30.6563 Q104.5313,29.5781 104.5313,28.2969 L104.5313,27.1406 Q104.5313,25.8125 105.1406,24.6719 Q105.7656,23.5156 106.8594,22.9063 Q107.9531,22.2813 109.1875,22.2813 Q109.9219,22.2813 110.5625,22.4531 Q111.2188,22.6094 111.7656,22.9688 Z " fill="#000000"/><text fill="#000000" font-family="sans-serif" font-size="14" lengthAdjust="spacing" textLength="45" x="143.5" y="26.5332">MISMO</text><text fill="#000000" font-family="sans-serif" font-size="10" lengthAdjust="spacing" textLength="86" x="123" y="39.9902">weka.classifiers.mi</text></g><!--MD5=[7219e7958bb91252f4ae2336aa6feb76]
reverse link weka.classifiers.mi.MISMO to miml.classifiers.mi.MISMOWrapper--><g id="link_weka.classifiers.mi.MISMO_miml.classifiers.mi.MISMOWrapper"><path codeLine="12" d="M153,67.04 C153,79.68 153,93.79 153,106.81 " fill="none" id="weka.classifiers.mi.MISMO-backto-miml.classifiers.mi.MISMOWrapper" style="stroke:#181818;stroke-width:1.0;"/><polygon fill="none" points="146,67.03,153,47.03,160,67.03,146,67.03" style="stroke:#181818;stroke-width:1.0;"/></g><rect fill="none" height="12.5781" style="stroke:none;stroke-width:1.0;" width="190" x="51" y="204.4063"/><text fill="#888888" font-family="sans-serif" font-size="10" lengthAdjust="spacing" textLength="190" x="51" y="214.7871">UMLDoclet 2.0.20, PlantUML 1.2022.12</text><!--MD5=[4bfdcdb01a5dea46ab103f6429b3b763]
@startuml
    set namespaceSeparator none
    hide empty fields
    hide empty methods

    class "<size:14>MISMOWrapper\n<size:10>miml.classifiers.mi" as miml.classifiers.mi.MISMOWrapper [[MISMOWrapper.html]] {
        {static} -serialVersionUID: long
        +distributionForInstance(Instance): double[]
    }

    class "<size:14>MISMO\n<size:10>weka.classifiers.mi" as weka.classifiers.mi.MISMO

    weka.classifiers.mi.MISMO <|- - miml.classifiers.mi.MISMOWrapper

    center footer UMLDoclet 2.0.20, PlantUML 1.2022.12
@enduml

PlantUML version 1.2022.12(Sun Oct 23 20:12:26 CEST 2022)
(APACHE source distribution)
Java Runtime: OpenJDK Runtime Environment
JVM: OpenJDK 64-Bit Server VM
Default Encoding: Cp1252
Language: es
Country: ES
--></g></svg>