<?xml version="1.0" encoding="UTF-8" standalone="no"?><svg xmlns="http://www.w3.org/2000/svg" xmlns:xlink="http://www.w3.org/1999/xlink" contentStyleType="text/css" height="678px" preserveAspectRatio="none" style="width:337px;height:678px;background:#FFFFFF;" version="1.1" viewBox="0 0 337 678" width="337px" zoomAndPan="magnify"><defs/><g><!--MD5=[a9986ee4a597d5030d4a3976ecc32f50]
cluster miml.classifiers.mi--><g id="cluster_miml.classifiers.mi"><path d="M8.5,517 L137.5,517 A3.75,3.75 0 0 1 140,519.5 L147,540.6094 L327.5,540.6094 A2.5,2.5 0 0 1 330,543.1094 L330,649.5 A2.5,2.5 0 0 1 327.5,652 L8.5,652 A2.5,2.5 0 0 1 6,649.5 L6,519.5 A2.5,2.5 0 0 1 8.5,517 " fill="none" style="stroke:#000000;stroke-width:1.5;"/><line style="stroke:#000000;stroke-width:1.5;" x1="6" x2="147" y1="540.6094" y2="540.6094"/><text fill="#000000" font-family="sans-serif" font-size="14" font-weight="bold" lengthAdjust="spacing" textLength="128" x="10" y="533.5332">miml.classifiers.mi</text></g><!--MD5=[0c5135b2340fbd2aa0716b3b0024f8a1]
cluster weka.classifiers.mi--><g id="cluster_weka.classifiers.mi"><path d="M20.5,6 L153.5,6 A3.75,3.75 0 0 1 156,8.5 L163,29.6094 L315.5,29.6094 A2.5,2.5 0 0 1 318,32.1094 L318,490.5 A2.5,2.5 0 0 1 315.5,493 L20.5,493 A2.5,2.5 0 0 1 18,490.5 L18,8.5 A2.5,2.5 0 0 1 20.5,6 " fill="none" style="stroke:#000000;stroke-width:1.5;"/><line style="stroke:#000000;stroke-width:1.5;" x1="18" x2="163" y1="29.6094" y2="29.6094"/><text fill="#000000" font-family="sans-serif" font-size="14" font-weight="bold" lengthAdjust="spacing" textLength="132" x="22" y="22.5332">weka.classifiers.mi</text></g><!--MD5=[cd6def989c0e023f85a0868392d20717]
class miml.classifiers.mi.MISMOWrapper--><a href="MISMOWrapper.html" target="_top" title="MISMOWrapper.html" xlink:actuate="onRequest" xlink:href="MISMOWrapper.html" xlink:show="new" xlink:title="MISMOWrapper.html" xlink:type="simple"><g id="elem_miml.classifiers.mi.MISMOWrapper"><rect codeLine="3" fill="#F1F1F1" height="83.2188" id="miml.classifiers.mi.MISMOWrapper" rx="2.5" ry="2.5" style="stroke:#181818;stroke-width:0.5;" width="292" x="22" y="553"/><ellipse cx="113.75" cy="569" fill="#ADD1B2" rx="11" ry="11" style="stroke:#181818;stroke-width:1.0;"/><path d="M116.5156,564.875 Q116.6719,564.6563 116.8594,564.5469 Q117.0469,564.4375 117.2656,564.4375 Q117.6406,564.4375 117.875,564.7031 Q118.1094,564.9531 118.1094,565.5625 L118.1094,567.0156 Q118.1094,567.625 117.875,567.8906 Q117.6406,568.1563 117.2656,568.1563 Q116.9219,568.1563 116.7188,567.9531 Q116.5156,567.7656 116.4063,567.25 Q116.3594,566.8906 116.1719,566.7031 Q115.8438,566.3281 115.2344,566.1094 Q114.625,565.8906 114,565.8906 Q113.2344,565.8906 112.5938,566.2188 Q111.9688,566.5469 111.4688,567.2969 Q110.9844,568.0469 110.9844,569.0781 L110.9844,570.1719 Q110.9844,571.4063 111.875,572.2344 Q112.7656,573.0469 114.3594,573.0469 Q115.2969,573.0469 115.9531,572.7969 Q116.3438,572.6406 116.7656,572.2031 Q117.0313,571.9375 117.1719,571.8594 Q117.3281,571.7813 117.5313,571.7813 Q117.8594,571.7813 118.1094,572.0469 Q118.375,572.2969 118.375,572.6406 Q118.375,572.9844 118.0313,573.3906 Q117.5313,573.9688 116.7344,574.2969 Q115.6563,574.75 114.3594,574.75 Q112.8438,574.75 111.6406,574.125 Q110.6563,573.625 109.9688,572.5625 Q109.2813,571.4844 109.2813,570.2031 L109.2813,569.0469 Q109.2813,567.7188 109.8906,566.5781 Q110.5156,565.4219 111.6094,564.8125 Q112.7031,564.1875 113.9375,564.1875 Q114.6719,564.1875 115.3125,564.3594 Q115.9688,564.5156 116.5156,564.875 Z " fill="#000000"/><text fill="#000000" font-family="sans-serif" font-size="14" lengthAdjust="spacing" textLength="100" x="134.25" y="574.7285">MISMOWrapper</text><line style="stroke:#181818;stroke-width:0.5;" x1="23" x2="313" y1="585" y2="585"/><rect fill="none" height="6" style="stroke:#C82930;stroke-width:1.0;" width="6" x="30" y="596.3047"/><text fill="#000000" font-family="sans-serif" font-size="14" lengthAdjust="spacing" text-decoration="underline" textLength="139" x="42" y="603.5332">serialVersionUID: long</text><line style="stroke:#181818;stroke-width:0.5;" x1="23" x2="313" y1="610.6094" y2="610.6094"/><ellipse cx="33" cy="624.9141" fill="#84BE84" rx="3" ry="3" style="stroke:#038048;stroke-width:1.0;"/><text fill="#000000" font-family="sans-serif" font-size="14" lengthAdjust="spacing" textLength="266" x="42" y="629.1426">distributionForInstance(Instance): double[]</text></g></a><!--MD5=[35dc443a5d6ef56f93add185de2da1f2]
class weka.classifiers.mi.MISMO--><g id="elem_weka.classifiers.mi.MISMO"><rect codeLine="12" fill="#F1F1F1" height="435.4063" id="weka.classifiers.mi.MISMO" rx="2.5" ry="2.5" style="stroke:#181818;stroke-width:0.5;" width="267" x="34.5" y="42"/><ellipse cx="141.25" cy="58" fill="#ADD1B2" rx="11" ry="11" style="stroke:#181818;stroke-width:1.0;"/><path d="M144.0156,53.875 Q144.1719,53.6563 144.3594,53.5469 Q144.5469,53.4375 144.7656,53.4375 Q145.1406,53.4375 145.375,53.7031 Q145.6094,53.9531 145.6094,54.5625 L145.6094,56.0156 Q145.6094,56.625 145.375,56.8906 Q145.1406,57.1563 144.7656,57.1563 Q144.4219,57.1563 144.2188,56.9531 Q144.0156,56.7656 143.9063,56.25 Q143.8594,55.8906 143.6719,55.7031 Q143.3438,55.3281 142.7344,55.1094 Q142.125,54.8906 141.5,54.8906 Q140.7344,54.8906 140.0938,55.2188 Q139.4688,55.5469 138.9688,56.2969 Q138.4844,57.0469 138.4844,58.0781 L138.4844,59.1719 Q138.4844,60.4063 139.375,61.2344 Q140.2656,62.0469 141.8594,62.0469 Q142.7969,62.0469 143.4531,61.7969 Q143.8438,61.6406 144.2656,61.2031 Q144.5313,60.9375 144.6719,60.8594 Q144.8281,60.7813 145.0313,60.7813 Q145.3594,60.7813 145.6094,61.0469 Q145.875,61.2969 145.875,61.6406 Q145.875,61.9844 145.5313,62.3906 Q145.0313,62.9688 144.2344,63.2969 Q143.1563,63.75 141.8594,63.75 Q140.3438,63.75 139.1406,63.125 Q138.1563,62.625 137.4688,61.5625 Q136.7813,60.4844 136.7813,59.2031 L136.7813,58.0469 Q136.7813,56.7188 137.3906,55.5781 Q138.0156,54.4219 139.1094,53.8125 Q140.2031,53.1875 141.4375,53.1875 Q142.1719,53.1875 142.8125,53.3594 Q143.4688,53.5156 144.0156,53.875 Z " fill="#000000"/><text fill="#000000" font-family="sans-serif" font-size="14" lengthAdjust="spacing" textLength="45" x="161.75" y="63.7285">MISMO</text><line style="stroke:#181818;stroke-width:0.5;" x1="35.5" x2="300.5" y1="74" y2="74"/><polygon fill="none" points="45.5,84.3047,41.5,90.3047,49.5,90.3047" style="stroke:#1963A0;stroke-width:1.0;"/><text fill="#000000" font-family="sans-serif" font-size="14" lengthAdjust="spacing" text-decoration="underline" textLength="139" x="54.5" y="92.5332">serialVersionUID: long</text><ellipse cx="45.5" cy="105.9141" fill="none" rx="3" ry="3" style="stroke:#038048;stroke-width:1.0;"/><text fill="#000000" font-family="sans-serif" font-size="14" lengthAdjust="spacing" text-decoration="underline" textLength="157" x="54.5" y="110.1426">FILTER_NORMALIZE: int</text><ellipse cx="45.5" cy="123.5234" fill="none" rx="3" ry="3" style="stroke:#038048;stroke-width:1.0;"/><text fill="#000000" font-family="sans-serif" font-size="14" lengthAdjust="spacing" text-decoration="underline" textLength="174" x="54.5" y="127.752">FILTER_STANDARDIZE: int</text><ellipse cx="45.5" cy="141.1328" fill="none" rx="3" ry="3" style="stroke:#038048;stroke-width:1.0;"/><text fill="#000000" font-family="sans-serif" font-size="14" lengthAdjust="spacing" text-decoration="underline" textLength="117" x="54.5" y="145.3613">FILTER_NONE: int</text><ellipse cx="45.5" cy="158.7422" fill="none" rx="3" ry="3" style="stroke:#038048;stroke-width:1.0;"/><text fill="#000000" font-family="sans-serif" font-size="14" lengthAdjust="spacing" text-decoration="underline" textLength="135" x="54.5" y="162.9707">TAGS_FILTER: Tag[]</text><polygon fill="none" points="45.5,171.3516,49.5,175.3516,45.5,179.3516,41.5,175.3516" style="stroke:#B38D22;stroke-width:1.0;"/><text fill="#000000" font-family="sans-serif" font-size="14" lengthAdjust="spacing" textLength="182" x="54.5" y="180.5801">m_classifiers: BinaryMISMO[]</text><polygon fill="none" points="45.5,188.9609,49.5,192.9609,45.5,196.9609,41.5,192.9609" style="stroke:#B38D22;stroke-width:1.0;"/><text fill="#000000" font-family="sans-serif" font-size="14" lengthAdjust="spacing" textLength="80" x="54.5" y="198.1895">m_C: double</text><polygon fill="none" points="45.5,206.5703,49.5,210.5703,45.5,214.5703,41.5,210.5703" style="stroke:#B38D22;stroke-width:1.0;"/><text fill="#000000" font-family="sans-serif" font-size="14" lengthAdjust="spacing" textLength="93" x="54.5" y="215.7988">m_eps: double</text><polygon fill="none" points="45.5,224.1797,49.5,228.1797,45.5,232.1797,41.5,228.1797" style="stroke:#B38D22;stroke-width:1.0;"/><text fill="#000000" font-family="sans-serif" font-size="14" lengthAdjust="spacing" textLength="85" x="54.5" y="233.4082">m_tol: double</text><polygon fill="none" points="45.5,241.7891,49.5,245.7891,45.5,249.7891,41.5,245.7891" style="stroke:#B38D22;stroke-width:1.0;"/><text fill="#000000" font-family="sans-serif" font-size="14" lengthAdjust="spacing" textLength="101" x="54.5" y="251.0176">m_filterType: int</text><polygon fill="none" points="45.5,259.3984,49.5,263.3984,45.5,267.3984,41.5,263.3984" style="stroke:#B38D22;stroke-width:1.0;"/><text fill="#000000" font-family="sans-serif" font-size="14" lengthAdjust="spacing" textLength="128" x="54.5" y="268.627">m_minimax: boolean</text><polygon fill="none" points="45.5,277.0078,49.5,281.0078,45.5,285.0078,41.5,281.0078" style="stroke:#B38D22;stroke-width:1.0;"/><text fill="#000000" font-family="sans-serif" font-size="14" lengthAdjust="spacing" textLength="241" x="54.5" y="286.2363">m_NominalToBinary: NominalToBinary</text><polygon fill="none" points="45.5,294.6172,49.5,298.6172,45.5,302.6172,41.5,298.6172" style="stroke:#B38D22;stroke-width:1.0;"/><text fill="#000000" font-family="sans-serif" font-size="14" lengthAdjust="spacing" textLength="91" x="54.5" y="303.8457">m_Filter: Filter</text><polygon fill="none" points="45.5,312.2266,49.5,316.2266,45.5,320.2266,41.5,316.2266" style="stroke:#B38D22;stroke-width:1.0;"/><text fill="#000000" font-family="sans-serif" font-size="14" lengthAdjust="spacing" textLength="216" x="54.5" y="321.4551">m_Missing: ReplaceMissingValues</text><polygon fill="none" points="45.5,329.8359,49.5,333.8359,45.5,337.8359,41.5,333.8359" style="stroke:#B38D22;stroke-width:1.0;"/><text fill="#000000" font-family="sans-serif" font-size="14" lengthAdjust="spacing" textLength="107" x="54.5" y="339.0645">m_classIndex: int</text><polygon fill="none" points="45.5,347.4453,49.5,351.4453,45.5,355.4453,41.5,351.4453" style="stroke:#B38D22;stroke-width:1.0;"/><text fill="#000000" font-family="sans-serif" font-size="14" lengthAdjust="spacing" textLength="165" x="54.5" y="356.6738">m_classAttribute: Attribute</text><polygon fill="none" points="45.5,365.0547,49.5,369.0547,45.5,373.0547,41.5,369.0547" style="stroke:#B38D22;stroke-width:1.0;"/><text fill="#000000" font-family="sans-serif" font-size="14" lengthAdjust="spacing" textLength="107" x="54.5" y="374.2832">m_kernel: Kernel</text><polygon fill="none" points="45.5,382.6641,49.5,386.6641,45.5,390.6641,41.5,386.6641" style="stroke:#B38D22;stroke-width:1.0;"/><text fill="#000000" font-family="sans-serif" font-size="14" lengthAdjust="spacing" textLength="187" x="54.5" y="391.8926">m_checksTurnedOff: boolean</text><polygon fill="none" points="45.5,400.2734,49.5,404.2734,45.5,408.2734,41.5,404.2734" style="stroke:#B38D22;stroke-width:1.0;"/><text fill="#000000" font-family="sans-serif" font-size="14" lengthAdjust="spacing" text-decoration="underline" textLength="91" x="54.5" y="409.502">m_Del: double</text><polygon fill="none" points="45.5,417.8828,49.5,421.8828,45.5,425.8828,41.5,421.8828" style="stroke:#B38D22;stroke-width:1.0;"/><text fill="#000000" font-family="sans-serif" font-size="14" lengthAdjust="spacing" textLength="182" x="54.5" y="427.1113">m_fitLogisticModels: boolean</text><polygon fill="none" points="45.5,435.4922,49.5,439.4922,45.5,443.4922,41.5,439.4922" style="stroke:#B38D22;stroke-width:1.0;"/><text fill="#000000" font-family="sans-serif" font-size="14" lengthAdjust="spacing" textLength="104" x="54.5" y="444.7207">m_numFolds: int</text><polygon fill="none" points="45.5,453.1016,49.5,457.1016,45.5,461.1016,41.5,457.1016" style="stroke:#B38D22;stroke-width:1.0;"/><text fill="#000000" font-family="sans-serif" font-size="14" lengthAdjust="spacing" textLength="123" x="54.5" y="462.3301">m_randomSeed: int</text><line style="stroke:#181818;stroke-width:0.5;" x1="35.5" x2="300.5" y1="469.4063" y2="469.4063"/></g><!--MD5=[7219e7958bb91252f4ae2336aa6feb76]
reverse link weka.classifiers.mi.MISMO to miml.classifiers.mi.MISMOWrapper--><g id="link_weka.classifiers.mi.MISMO_miml.classifiers.mi.MISMOWrapper"><path codeLine="8" d="M168,497.21 C168,518.19 168,537.35 168,552.96 " fill="none" id="weka.classifiers.mi.MISMO-backto-miml.classifiers.mi.MISMOWrapper" style="stroke:#181818;stroke-width:1.0;"/><polygon fill="none" points="161,497.03,168,477.03,175,497.03,161,497.03" style="stroke:#181818;stroke-width:1.0;"/></g><rect fill="none" height="12.5781" style="stroke:none;stroke-width:1.0;" width="190" x="66.5" y="658"/><text fill="#888888" font-family="sans-serif" font-size="10" lengthAdjust="spacing" textLength="190" x="66.5" y="668.3809">UMLDoclet 2.0.20, PlantUML 1.2022.12</text><!--MD5=[f6edaa35c9223dd0bd6e256760431af9]
@startuml
    namespace miml.classifiers.mi {

        class MISMOWrapper [[MISMOWrapper.html]] {
            {static} -serialVersionUID: long
            +distributionForInstance(Instance): double[]
        }

        weka.classifiers.mi.MISMO <|- - MISMOWrapper
    }

    namespace weka.classifiers.mi {
        class MISMO {
            {static} ~serialVersionUID: long
            {static} +FILTER_NORMALIZE: int
            {static} +FILTER_STANDARDIZE: int
            {static} +FILTER_NONE: int
            {static} +TAGS_FILTER: Tag[]
            #m_classifiers: BinaryMISMO[]
            #m_C: double
            #m_eps: double
            #m_tol: double
            #m_filterType: int
            #m_minimax: boolean
            #m_NominalToBinary: NominalToBinary
            #m_Filter: Filter
            #m_Missing: ReplaceMissingValues
            #m_classIndex: int
            #m_classAttribute: Attribute
            #m_kernel: Kernel
            #m_checksTurnedOff: boolean
            {static} #m_Del: double
            #m_fitLogisticModels: boolean
            #m_numFolds: int
            #m_randomSeed: int
        }
    }

    center footer UMLDoclet 2.0.20, PlantUML 1.2022.12
@enduml

PlantUML version 1.2022.12(Sun Oct 23 20:12:26 CEST 2022)
(APACHE source distribution)
Java Runtime: OpenJDK Runtime Environment
JVM: OpenJDK 64-Bit Server VM
Default Encoding: Cp1252
Language: es
Country: ES
--></g></svg>