<?xml version="1.0" encoding="UTF-8" standalone="no"?><svg xmlns="http://www.w3.org/2000/svg" xmlns:xlink="http://www.w3.org/1999/xlink" contentStyleType="text/css" height="344px" preserveAspectRatio="none" style="width:713px;height:344px;background:#FFFFFF;" version="1.1" viewBox="0 0 713 344" width="713px" zoomAndPan="magnify"><defs/><g><!--MD5=[f0d42e6e388cdcd6ea7180b59ba01f12]
cluster miml.data.partitioning.random--><g id="cluster_miml.data.partitioning.random"><path d="M8.5,148 L217.5,148 A3.75,3.75 0 0 1 220,150.5 L227,171.6094 L703.5,171.6094 A2.5,2.5 0 0 1 706,174.1094 L706,315.5 A2.5,2.5 0 0 1 703.5,318 L8.5,318 A2.5,2.5 0 0 1 6,315.5 L6,150.5 A2.5,2.5 0 0 1 8.5,148 " fill="none" style="stroke:#000000;stroke-width:1.5;"/><line style="stroke:#000000;stroke-width:1.5;" x1="6" x2="227" y1="171.6094" y2="171.6094"/><text fill="#000000" font-family="sans-serif" font-size="14" font-weight="bold" lengthAdjust="spacing" textLength="208" x="10" y="164.5332">miml.data.partitioning.random</text></g><!--MD5=[b22b9bb5ba87fde4e12dd3e800aeb6ec]
cluster miml.data.partitioning--><g id="cluster_miml.data.partitioning"><path d="M68.5,6 L220.5,6 A3.75,3.75 0 0 1 223,8.5 L230,29.6094 L624.5,29.6094 A2.5,2.5 0 0 1 627,32.1094 L627,121.5 A2.5,2.5 0 0 1 624.5,124 L68.5,124 A2.5,2.5 0 0 1 66,121.5 L66,8.5 A2.5,2.5 0 0 1 68.5,6 " fill="none" style="stroke:#000000;stroke-width:1.5;"/><line style="stroke:#000000;stroke-width:1.5;" x1="66" x2="230" y1="29.6094" y2="29.6094"/><text fill="#000000" font-family="sans-serif" font-size="14" font-weight="bold" lengthAdjust="spacing" textLength="151" x="70" y="22.5332">miml.data.partitioning</text></g><!--MD5=[1e9029b55a326049d6eb299945c21f37]
class miml.data.partitioning.random.RandomCrossValidation--><a href="RandomCrossValidation.html" target="_top" title="RandomCrossValidation.html" xlink:actuate="onRequest" xlink:href="RandomCrossValidation.html" xlink:show="new" xlink:title="RandomCrossValidation.html" xlink:type="simple"><g id="elem_miml.data.partitioning.random.RandomCrossValidation"><rect codeLine="3" fill="#F1F1F1" height="118.4375" id="miml.data.partitioning.random.RandomCrossValidation" rx="2.5" ry="2.5" style="stroke:#181818;stroke-width:0.5;" width="335" x="354.5" y="184"/><ellipse cx="441.75" cy="200" fill="#ADD1B2" rx="11" ry="11" style="stroke:#181818;stroke-width:1.0;"/><path d="M444.5156,195.875 Q444.6719,195.6563 444.8594,195.5469 Q445.0469,195.4375 445.2656,195.4375 Q445.6406,195.4375 445.875,195.7031 Q446.1094,195.9531 446.1094,196.5625 L446.1094,198.0156 Q446.1094,198.625 445.875,198.8906 Q445.6406,199.1563 445.2656,199.1563 Q444.9219,199.1563 444.7188,198.9531 Q444.5156,198.7656 444.4063,198.25 Q444.3594,197.8906 444.1719,197.7031 Q443.8438,197.3281 443.2344,197.1094 Q442.625,196.8906 442,196.8906 Q441.2344,196.8906 440.5938,197.2188 Q439.9688,197.5469 439.4688,198.2969 Q438.9844,199.0469 438.9844,200.0781 L438.9844,201.1719 Q438.9844,202.4063 439.875,203.2344 Q440.7656,204.0469 442.3594,204.0469 Q443.2969,204.0469 443.9531,203.7969 Q444.3438,203.6406 444.7656,203.2031 Q445.0313,202.9375 445.1719,202.8594 Q445.3281,202.7813 445.5313,202.7813 Q445.8594,202.7813 446.1094,203.0469 Q446.375,203.2969 446.375,203.6406 Q446.375,203.9844 446.0313,204.3906 Q445.5313,204.9688 444.7344,205.2969 Q443.6563,205.75 442.3594,205.75 Q440.8438,205.75 439.6406,205.125 Q438.6563,204.625 437.9688,203.5625 Q437.2813,202.4844 437.2813,201.2031 L437.2813,200.0469 Q437.2813,198.7188 437.8906,197.5781 Q438.5156,196.4219 439.6094,195.8125 Q440.7031,195.1875 441.9375,195.1875 Q442.6719,195.1875 443.3125,195.3594 Q443.9688,195.5156 444.5156,195.875 Z " fill="#000000"/><text fill="#000000" font-family="sans-serif" font-size="14" lengthAdjust="spacing" textLength="152" x="462.25" y="205.7285">RandomCrossValidation</text><line style="stroke:#181818;stroke-width:0.5;" x1="355.5" x2="688.5" y1="216" y2="216"/><polygon fill="none" points="365.5,225.3047,369.5,229.3047,365.5,233.3047,361.5,229.3047" style="stroke:#B38D22;stroke-width:1.0;"/><text fill="#000000" font-family="sans-serif" font-size="14" lengthAdjust="spacing" textLength="79" x="374.5" y="234.5332">indexes: int[]</text><line style="stroke:#181818;stroke-width:0.5;" x1="355.5" x2="688.5" y1="241.6094" y2="241.6094"/><ellipse cx="365.5" cy="255.9141" fill="#84BE84" rx="3" ry="3" style="stroke:#038048;stroke-width:1.0;"/><text fill="#000000" font-family="sans-serif" font-size="14" lengthAdjust="spacing" textLength="309" x="374.5" y="260.1426">RandomCrossValidation(int, MultiLabelInstances)</text><ellipse cx="365.5" cy="273.5234" fill="#84BE84" rx="3" ry="3" style="stroke:#038048;stroke-width:1.0;"/><text fill="#000000" font-family="sans-serif" font-size="14" lengthAdjust="spacing" textLength="286" x="374.5" y="277.752">RandomCrossValidation(MultiLabelInstances)</text><ellipse cx="365.5" cy="291.1328" fill="#84BE84" rx="3" ry="3" style="stroke:#038048;stroke-width:1.0;"/><text fill="#000000" font-family="sans-serif" font-size="14" lengthAdjust="spacing" textLength="220" x="374.5" y="295.3613">getFolds(int): MultiLabelInstances[]</text></g></a><!--MD5=[22ae99725071625e18642e543b7428e2]
class miml.data.partitioning.random.RandomTrainTest--><a href="RandomTrainTest.html" target="_top" title="RandomTrainTest.html" xlink:actuate="onRequest" xlink:href="RandomTrainTest.html" xlink:show="new" xlink:title="RandomTrainTest.html" xlink:type="simple"><g id="elem_miml.data.partitioning.random.RandomTrainTest"><rect codeLine="10" fill="#F1F1F1" height="100.8281" id="miml.data.partitioning.random.RandomTrainTest" rx="2.5" ry="2.5" style="stroke:#181818;stroke-width:0.5;" width="297" x="22.5" y="192.5"/><ellipse cx="109.75" cy="208.5" fill="#ADD1B2" rx="11" ry="11" style="stroke:#181818;stroke-width:1.0;"/><path d="M112.5156,204.375 Q112.6719,204.1563 112.8594,204.0469 Q113.0469,203.9375 113.2656,203.9375 Q113.6406,203.9375 113.875,204.2031 Q114.1094,204.4531 114.1094,205.0625 L114.1094,206.5156 Q114.1094,207.125 113.875,207.3906 Q113.6406,207.6563 113.2656,207.6563 Q112.9219,207.6563 112.7188,207.4531 Q112.5156,207.2656 112.4063,206.75 Q112.3594,206.3906 112.1719,206.2031 Q111.8438,205.8281 111.2344,205.6094 Q110.625,205.3906 110,205.3906 Q109.2344,205.3906 108.5938,205.7188 Q107.9688,206.0469 107.4688,206.7969 Q106.9844,207.5469 106.9844,208.5781 L106.9844,209.6719 Q106.9844,210.9063 107.875,211.7344 Q108.7656,212.5469 110.3594,212.5469 Q111.2969,212.5469 111.9531,212.2969 Q112.3438,212.1406 112.7656,211.7031 Q113.0313,211.4375 113.1719,211.3594 Q113.3281,211.2813 113.5313,211.2813 Q113.8594,211.2813 114.1094,211.5469 Q114.375,211.7969 114.375,212.1406 Q114.375,212.4844 114.0313,212.8906 Q113.5313,213.4688 112.7344,213.7969 Q111.6563,214.25 110.3594,214.25 Q108.8438,214.25 107.6406,213.625 Q106.6563,213.125 105.9688,212.0625 Q105.2813,210.9844 105.2813,209.7031 L105.2813,208.5469 Q105.2813,207.2188 105.8906,206.0781 Q106.5156,204.9219 107.6094,204.3125 Q108.7031,203.6875 109.9375,203.6875 Q110.6719,203.6875 111.3125,203.8594 Q111.9688,204.0156 112.5156,204.375 Z " fill="#000000"/><text fill="#000000" font-family="sans-serif" font-size="14" lengthAdjust="spacing" textLength="114" x="130.25" y="214.2285">RandomTrainTest</text><line style="stroke:#181818;stroke-width:0.5;" x1="23.5" x2="318.5" y1="224.5" y2="224.5"/><line style="stroke:#181818;stroke-width:0.5;" x1="23.5" x2="318.5" y1="232.5" y2="232.5"/><ellipse cx="33.5" cy="246.8047" fill="#84BE84" rx="3" ry="3" style="stroke:#038048;stroke-width:1.0;"/><text fill="#000000" font-family="sans-serif" font-size="14" lengthAdjust="spacing" textLength="271" x="42.5" y="251.0332">RandomTrainTest(int, MultiLabelInstances)</text><ellipse cx="33.5" cy="264.4141" fill="#84BE84" rx="3" ry="3" style="stroke:#038048;stroke-width:1.0;"/><text fill="#000000" font-family="sans-serif" font-size="14" lengthAdjust="spacing" textLength="248" x="42.5" y="268.6426">RandomTrainTest(MultiLabelInstances)</text><ellipse cx="33.5" cy="282.0234" fill="#84BE84" rx="3" ry="3" style="stroke:#038048;stroke-width:1.0;"/><text fill="#000000" font-family="sans-serif" font-size="14" lengthAdjust="spacing" textLength="218" x="42.5" y="286.252">split(double): MultiLabelInstances[]</text></g></a><!--MD5=[7ac158596541117d11edcffba96f82c4]
class miml.data.partitioning.CrossValidationBase--><a href="..\CrossValidationBase.html" target="_top" title="..\CrossValidationBase.html" xlink:actuate="onRequest" xlink:href="..\CrossValidationBase.html" xlink:show="new" xlink:title="..\CrossValidationBase.html" xlink:type="simple"><g id="elem_miml.data.partitioning.CrossValidationBase"><rect codeLine="21" fill="#F1F1F1" height="65.6094" id="miml.data.partitioning.CrossValidationBase" rx="2.5" ry="2.5" style="stroke:#181818;stroke-width:0.5;" width="248" x="363" y="42"/><ellipse cx="417.25" cy="58" fill="#A9DCDF" rx="11" ry="11" style="stroke:#181818;stroke-width:1.0;"/><path d="M419.4375,59.7656 L415.2969,59.7656 L414.875,60.7969 L415.2969,60.7969 Q415.9063,60.7969 416.1719,61.0313 Q416.4375,61.2656 416.4375,61.6563 Q416.4375,62.0313 416.1719,62.2656 Q415.9063,62.5 415.2969,62.5 L413,62.5 Q412.3906,62.5 412.1406,62.2656 Q411.875,62.0313 411.875,61.6406 Q411.875,61.2656 412.1563,61.0313 Q412.4219,60.7813 413.0469,60.7969 L415.7188,54.1406 L414.6094,54.1406 Q414,54.1406 413.7344,53.9063 Q413.4688,53.6719 413.4688,53.2813 Q413.4688,52.9063 413.7344,52.6719 Q414,52.4375 414.6094,52.4375 L418.2813,52.4375 L421.6719,60.7969 Q422.2656,60.7969 422.4531,60.9375 Q422.8438,61.2031 422.8438,61.6563 Q422.8438,62.0313 422.5781,62.2656 Q422.3281,62.5 421.7188,62.5 L419.4219,62.5 Q418.8125,62.5 418.5469,62.2656 Q418.2813,62.0313 418.2813,61.6406 Q418.2813,61.2656 418.5469,61.0313 Q418.8125,60.7969 419.4219,60.7969 L419.8438,60.7969 L419.4375,59.7656 Z M418.7188,58.0625 L417.3594,54.6875 L415.9844,58.0625 L418.7188,58.0625 Z " fill="#000000"/><text fill="#000000" font-family="sans-serif" font-size="14" font-style="italic" lengthAdjust="spacing" textLength="131" x="437.75" y="63.7285">CrossValidationBase</text><line style="stroke:#181818;stroke-width:0.5;" x1="364" x2="610" y1="74" y2="74"/><line style="stroke:#181818;stroke-width:0.5;" x1="364" x2="610" y1="82" y2="82"/><ellipse cx="374" cy="96.3047" fill="#84BE84" rx="3" ry="3" style="stroke:#038048;stroke-width:1.0;"/><text fill="#000000" font-family="sans-serif" font-size="14" font-style="italic" lengthAdjust="spacing" textLength="222" x="383" y="100.5332">getFolds(int): MultiLabelInstances[]</text></g></a><!--MD5=[43ba56182bfb4eb2087e6ff5152dd96d]
class miml.data.partitioning.TrainTestBase--><a href="..\TrainTestBase.html" target="_top" title="..\TrainTestBase.html" xlink:actuate="onRequest" xlink:href="..\TrainTestBase.html" xlink:show="new" xlink:title="..\TrainTestBase.html" xlink:type="simple"><g id="elem_miml.data.partitioning.TrainTestBase"><rect codeLine="24" fill="#F1F1F1" height="65.6094" id="miml.data.partitioning.TrainTestBase" rx="2.5" ry="2.5" style="stroke:#181818;stroke-width:0.5;" width="246" x="82" y="42"/><ellipse cx="154.25" cy="58" fill="#A9DCDF" rx="11" ry="11" style="stroke:#181818;stroke-width:1.0;"/><path d="M156.4375,59.7656 L152.2969,59.7656 L151.875,60.7969 L152.2969,60.7969 Q152.9063,60.7969 153.1719,61.0313 Q153.4375,61.2656 153.4375,61.6563 Q153.4375,62.0313 153.1719,62.2656 Q152.9063,62.5 152.2969,62.5 L150,62.5 Q149.3906,62.5 149.1406,62.2656 Q148.875,62.0313 148.875,61.6406 Q148.875,61.2656 149.1563,61.0313 Q149.4219,60.7813 150.0469,60.7969 L152.7188,54.1406 L151.6094,54.1406 Q151,54.1406 150.7344,53.9063 Q150.4688,53.6719 150.4688,53.2813 Q150.4688,52.9063 150.7344,52.6719 Q151,52.4375 151.6094,52.4375 L155.2813,52.4375 L158.6719,60.7969 Q159.2656,60.7969 159.4531,60.9375 Q159.8438,61.2031 159.8438,61.6563 Q159.8438,62.0313 159.5781,62.2656 Q159.3281,62.5 158.7188,62.5 L156.4219,62.5 Q155.8125,62.5 155.5469,62.2656 Q155.2813,62.0313 155.2813,61.6406 Q155.2813,61.2656 155.5469,61.0313 Q155.8125,60.7969 156.4219,60.7969 L156.8438,60.7969 L156.4375,59.7656 Z M155.7188,58.0625 L154.3594,54.6875 L152.9844,58.0625 L155.7188,58.0625 Z " fill="#000000"/><text fill="#000000" font-family="sans-serif" font-size="14" font-style="italic" lengthAdjust="spacing" textLength="93" x="174.75" y="63.7285">TrainTestBase</text><line style="stroke:#181818;stroke-width:0.5;" x1="83" x2="327" y1="74" y2="74"/><line style="stroke:#181818;stroke-width:0.5;" x1="83" x2="327" y1="82" y2="82"/><ellipse cx="93" cy="96.3047" fill="#84BE84" rx="3" ry="3" style="stroke:#038048;stroke-width:1.0;"/><text fill="#000000" font-family="sans-serif" font-size="14" font-style="italic" lengthAdjust="spacing" textLength="220" x="102" y="100.5332">split(double): MultiLabelInstances[]</text></g></a><!--MD5=[06a1d8eafc6746d787004ed58f0132b4]
reverse link miml.data.partitioning.CrossValidationBase to miml.data.partitioning.random.RandomCrossValidation--><g id="link_miml.data.partitioning.CrossValidationBase_miml.data.partitioning.random.RandomCrossValidation"><path codeLine="16" d="M497.89,127.65 C501.65,145.48 505.89,165.57 509.75,183.88 " fill="none" id="miml.data.partitioning.CrossValidationBase-backto-miml.data.partitioning.random.RandomCrossValidation" style="stroke:#181818;stroke-width:1.0;"/><polygon fill="none" points="491.03,129.02,493.75,108.01,504.72,126.13,491.03,129.02" style="stroke:#181818;stroke-width:1.0;"/></g><!--MD5=[cf5bcd1baf709e99ed7beecf45efd43f]
reverse link miml.data.partitioning.TrainTestBase to miml.data.partitioning.random.RandomTrainTest--><g id="link_miml.data.partitioning.TrainTestBase_miml.data.partitioning.random.RandomTrainTest"><path codeLine="17" d="M194.4,127.77 C190.17,148.4 185.33,172.04 181.15,192.45 " fill="none" id="miml.data.partitioning.TrainTestBase-backto-miml.data.partitioning.random.RandomTrainTest" style="stroke:#181818;stroke-width:1.0;"/><polygon fill="none" points="187.57,126.2,198.44,108.01,201.29,129,187.57,126.2" style="stroke:#181818;stroke-width:1.0;"/></g><rect fill="none" height="12.5781" style="stroke:none;stroke-width:1.0;" width="190" x="254.5" y="324"/><text fill="#888888" font-family="sans-serif" font-size="10" lengthAdjust="spacing" textLength="190" x="254.5" y="334.3809">UMLDoclet 2.0.20, PlantUML 1.2022.12</text><!--MD5=[a636effb8c430b95c4a8f76249e67651]
@startuml
    namespace miml.data.partitioning.random {

        class RandomCrossValidation [[RandomCrossValidation.html]] {
            #indexes: int[]
            +RandomCrossValidation(int, MultiLabelInstances)
            +RandomCrossValidation(MultiLabelInstances)
            +getFolds(int): MultiLabelInstances[]
        }

        class RandomTrainTest [[RandomTrainTest.html]] {
            +RandomTrainTest(int, MultiLabelInstances)
            +RandomTrainTest(MultiLabelInstances)
            +split(double): MultiLabelInstances[]
        }

        miml.data.partitioning.CrossValidationBase <|- - RandomCrossValidation
        miml.data.partitioning.TrainTestBase <|- - RandomTrainTest
    }

    namespace miml.data.partitioning {
        abstract class CrossValidationBase [[..\CrossValidationBase.html]] {
            {abstract} +getFolds(int): MultiLabelInstances[]
        }
        abstract class TrainTestBase [[..\TrainTestBase.html]] {
            {abstract} +split(double): MultiLabelInstances[]
        }
    }

    center footer UMLDoclet 2.0.20, PlantUML 1.2022.12
@enduml

PlantUML version 1.2022.12(Sun Oct 23 20:12:26 CEST 2022)
(APACHE source distribution)
Java Runtime: OpenJDK Runtime Environment
JVM: OpenJDK 64-Bit Server VM
Default Encoding: Cp1252
Language: es
Country: ES
--></g></svg>