<?xml version="1.0" encoding="UTF-8" standalone="no"?><svg xmlns="http://www.w3.org/2000/svg" xmlns:xlink="http://www.w3.org/1999/xlink" contentStyleType="text/css" height="286px" preserveAspectRatio="none" style="width:351px;height:286px;background:#FFFFFF;" version="1.1" viewBox="0 0 351 286" width="351px" zoomAndPan="magnify"><defs/><g><!--MD5=[1e9029b55a326049d6eb299945c21f37]
class miml.data.partitioning.random.RandomCrossValidation--><a href="RandomCrossValidation.html" target="_top" title="RandomCrossValidation.html" xlink:actuate="onRequest" xlink:href="RandomCrossValidation.html" xlink:show="new" xlink:title="RandomCrossValidation.html" xlink:type="simple"><g id="elem_miml.data.partitioning.random.RandomCrossValidation"><rect codeLine="5" fill="#F1F1F1" height="126.625" id="miml.data.partitioning.random.RandomCrossValidation" rx="2.5" ry="2.5" style="stroke:#181818;stroke-width:0.5;" width="335" x="9" y="133"/><ellipse cx="96.25" cy="153.0938" fill="#ADD1B2" rx="11" ry="11" style="stroke:#181818;stroke-width:1.0;"/><path d="M99.0156,148.9688 Q99.1719,148.75 99.3594,148.6406 Q99.5469,148.5313 99.7656,148.5313 Q100.1406,148.5313 100.375,148.7969 Q100.6094,149.0469 100.6094,149.6563 L100.6094,151.1094 Q100.6094,151.7188 100.375,151.9844 Q100.1406,152.25 99.7656,152.25 Q99.4219,152.25 99.2188,152.0469 Q99.0156,151.8594 98.9063,151.3438 Q98.8594,150.9844 98.6719,150.7969 Q98.3438,150.4219 97.7344,150.2031 Q97.125,149.9844 96.5,149.9844 Q95.7344,149.9844 95.0938,150.3125 Q94.4688,150.6406 93.9688,151.3906 Q93.4844,152.1406 93.4844,153.1719 L93.4844,154.2656 Q93.4844,155.5 94.375,156.3281 Q95.2656,157.1406 96.8594,157.1406 Q97.7969,157.1406 98.4531,156.8906 Q98.8438,156.7344 99.2656,156.2969 Q99.5313,156.0313 99.6719,155.9531 Q99.8281,155.875 100.0313,155.875 Q100.3594,155.875 100.6094,156.1406 Q100.875,156.3906 100.875,156.7344 Q100.875,157.0781 100.5313,157.4844 Q100.0313,158.0625 99.2344,158.3906 Q98.1563,158.8438 96.8594,158.8438 Q95.3438,158.8438 94.1406,158.2188 Q93.1563,157.7188 92.4688,156.6563 Q91.7813,155.5781 91.7813,154.2969 L91.7813,153.1406 Q91.7813,151.8125 92.3906,150.6719 Q93.0156,149.5156 94.1094,148.9063 Q95.2031,148.2813 96.4375,148.2813 Q97.1719,148.2813 97.8125,148.4531 Q98.4688,148.6094 99.0156,148.9688 Z " fill="#000000"/><text fill="#000000" font-family="sans-serif" font-size="14" lengthAdjust="spacing" textLength="152" x="116.75" y="152.5332">RandomCrossValidation</text><text fill="#000000" font-family="sans-serif" font-size="10" lengthAdjust="spacing" textLength="144" x="120.75" y="165.9902">miml.data.partitioning.random</text><line style="stroke:#181818;stroke-width:0.5;" x1="10" x2="343" y1="173.1875" y2="173.1875"/><polygon fill="none" points="20,182.4922,24,186.4922,20,190.4922,16,186.4922" style="stroke:#B38D22;stroke-width:1.0;"/><text fill="#000000" font-family="sans-serif" font-size="14" lengthAdjust="spacing" textLength="79" x="29" y="191.7207">indexes: int[]</text><line style="stroke:#181818;stroke-width:0.5;" x1="10" x2="343" y1="198.7969" y2="198.7969"/><ellipse cx="20" cy="213.1016" fill="#84BE84" rx="3" ry="3" style="stroke:#038048;stroke-width:1.0;"/><text fill="#000000" font-family="sans-serif" font-size="14" lengthAdjust="spacing" textLength="309" x="29" y="217.3301">RandomCrossValidation(int, MultiLabelInstances)</text><ellipse cx="20" cy="230.7109" fill="#84BE84" rx="3" ry="3" style="stroke:#038048;stroke-width:1.0;"/><text fill="#000000" font-family="sans-serif" font-size="14" lengthAdjust="spacing" textLength="286" x="29" y="234.9395">RandomCrossValidation(MultiLabelInstances)</text><ellipse cx="20" cy="248.3203" fill="#84BE84" rx="3" ry="3" style="stroke:#038048;stroke-width:1.0;"/><text fill="#000000" font-family="sans-serif" font-size="14" lengthAdjust="spacing" textLength="220" x="29" y="252.5488">getFolds(int): MultiLabelInstances[]</text></g></a><!--MD5=[7ac158596541117d11edcffba96f82c4]
class miml.data.partitioning.CrossValidationBase--><a href="..\CrossValidationBase.html" target="_top" title="..\CrossValidationBase.html" xlink:actuate="onRequest" xlink:href="..\CrossValidationBase.html" xlink:show="new" xlink:title="..\CrossValidationBase.html" xlink:type="simple"><g id="elem_miml.data.partitioning.CrossValidationBase"><rect codeLine="12" fill="#F1F1F1" height="65.7969" id="miml.data.partitioning.CrossValidationBase" rx="2.5" ry="2.5" style="stroke:#181818;stroke-width:0.5;" width="248" x="52.5" y="7"/><ellipse cx="106.75" cy="27.0938" fill="#A9DCDF" rx="11" ry="11" style="stroke:#181818;stroke-width:1.0;"/><path d="M108.9375,28.8594 L104.7969,28.8594 L104.375,29.8906 L104.7969,29.8906 Q105.4063,29.8906 105.6719,30.125 Q105.9375,30.3594 105.9375,30.75 Q105.9375,31.125 105.6719,31.3594 Q105.4063,31.5938 104.7969,31.5938 L102.5,31.5938 Q101.8906,31.5938 101.6406,31.3594 Q101.375,31.125 101.375,30.7344 Q101.375,30.3594 101.6563,30.125 Q101.9219,29.875 102.5469,29.8906 L105.2188,23.2344 L104.1094,23.2344 Q103.5,23.2344 103.2344,23 Q102.9688,22.7656 102.9688,22.375 Q102.9688,22 103.2344,21.7656 Q103.5,21.5313 104.1094,21.5313 L107.7813,21.5313 L111.1719,29.8906 Q111.7656,29.8906 111.9531,30.0313 Q112.3438,30.2969 112.3438,30.75 Q112.3438,31.125 112.0781,31.3594 Q111.8281,31.5938 111.2188,31.5938 L108.9219,31.5938 Q108.3125,31.5938 108.0469,31.3594 Q107.7813,31.125 107.7813,30.7344 Q107.7813,30.3594 108.0469,30.125 Q108.3125,29.8906 108.9219,29.8906 L109.3438,29.8906 L108.9375,28.8594 Z M108.2188,27.1563 L106.8594,23.7813 L105.4844,27.1563 L108.2188,27.1563 Z " fill="#000000"/><text fill="#000000" font-family="sans-serif" font-size="14" font-style="italic" lengthAdjust="spacing" textLength="131" x="127.25" y="26.5332">CrossValidationBase</text><text fill="#000000" font-family="sans-serif" font-size="10" font-style="italic" lengthAdjust="spacing" textLength="101" x="142.25" y="39.9902">miml.data.partitioning</text><line style="stroke:#181818;stroke-width:0.5;" x1="53.5" x2="299.5" y1="47.1875" y2="47.1875"/><ellipse cx="63.5" cy="61.4922" fill="#84BE84" rx="3" ry="3" style="stroke:#038048;stroke-width:1.0;"/><text fill="#000000" font-family="sans-serif" font-size="14" font-style="italic" lengthAdjust="spacing" textLength="222" x="72.5" y="65.7207">getFolds(int): MultiLabelInstances[]</text></g></a><!--MD5=[06a1d8eafc6746d787004ed58f0132b4]
reverse link miml.data.partitioning.CrossValidationBase to miml.data.partitioning.random.RandomCrossValidation--><g id="link_miml.data.partitioning.CrossValidationBase_miml.data.partitioning.random.RandomCrossValidation"><path codeLine="16" d="M176.5,93.22 C176.5,105.97 176.5,119.74 176.5,132.92 " fill="none" id="miml.data.partitioning.CrossValidationBase-backto-miml.data.partitioning.random.RandomCrossValidation" style="stroke:#181818;stroke-width:1.0;"/><polygon fill="none" points="169.5,93.01,176.5,73.01,183.5,93.01,169.5,93.01" style="stroke:#181818;stroke-width:1.0;"/></g><rect fill="none" height="12.5781" style="stroke:none;stroke-width:1.0;" width="190" x="73.5" y="265.625"/><text fill="#888888" font-family="sans-serif" font-size="10" lengthAdjust="spacing" textLength="190" x="73.5" y="276.0059">UMLDoclet 2.0.20, PlantUML 1.2022.12</text><!--MD5=[ff3df4cbf979b9910fc53485510a9abc]
@startuml
    set namespaceSeparator none
    hide empty fields
    hide empty methods

    class "<size:14>RandomCrossValidation\n<size:10>miml.data.partitioning.random" as miml.data.partitioning.random.RandomCrossValidation [[RandomCrossValidation.html]] {
        #indexes: int[]
        +RandomCrossValidation(int, MultiLabelInstances)
        +RandomCrossValidation(MultiLabelInstances)
        +getFolds(int): MultiLabelInstances[]
    }

    abstract class "<size:14>CrossValidationBase\n<size:10>miml.data.partitioning" as miml.data.partitioning.CrossValidationBase [[..\CrossValidationBase.html]] {
        {abstract} +getFolds(int): MultiLabelInstances[]
    }

    miml.data.partitioning.CrossValidationBase <|- - miml.data.partitioning.random.RandomCrossValidation

    center footer UMLDoclet 2.0.20, PlantUML 1.2022.12
@enduml

PlantUML version 1.2022.12(Sun Oct 23 20:12:26 CEST 2022)
(APACHE source distribution)
Java Runtime: OpenJDK Runtime Environment
JVM: OpenJDK 64-Bit Server VM
Default Encoding: Cp1252
Language: es
Country: ES
--></g></svg>