<?xml version="1.0" encoding="UTF-8" standalone="no"?><svg xmlns="http://www.w3.org/2000/svg" xmlns:xlink="http://www.w3.org/1999/xlink" contentStyleType="text/css" height="260px" preserveAspectRatio="none" style="width:311px;height:260px;background:#FFFFFF;" version="1.1" viewBox="0 0 311 260" width="311px" zoomAndPan="magnify"><defs/><g><!--MD5=[22ae99725071625e18642e543b7428e2]
class miml.data.partitioning.random.RandomTrainTest--><a href="RandomTrainTest.html" target="_top" title="RandomTrainTest.html" xlink:actuate="onRequest" xlink:href="RandomTrainTest.html" xlink:show="new" xlink:title="RandomTrainTest.html" xlink:type="simple"><g id="elem_miml.data.partitioning.random.RandomTrainTest"><rect codeLine="5" fill="#F1F1F1" height="101.0156" id="miml.data.partitioning.random.RandomTrainTest" rx="2.5" ry="2.5" style="stroke:#181818;stroke-width:0.5;" width="297" x="7" y="133"/><ellipse cx="79.25" cy="153.0938" fill="#ADD1B2" rx="11" ry="11" style="stroke:#181818;stroke-width:1.0;"/><path d="M82.0156,148.9688 Q82.1719,148.75 82.3594,148.6406 Q82.5469,148.5313 82.7656,148.5313 Q83.1406,148.5313 83.375,148.7969 Q83.6094,149.0469 83.6094,149.6563 L83.6094,151.1094 Q83.6094,151.7188 83.375,151.9844 Q83.1406,152.25 82.7656,152.25 Q82.4219,152.25 82.2188,152.0469 Q82.0156,151.8594 81.9063,151.3438 Q81.8594,150.9844 81.6719,150.7969 Q81.3438,150.4219 80.7344,150.2031 Q80.125,149.9844 79.5,149.9844 Q78.7344,149.9844 78.0938,150.3125 Q77.4688,150.6406 76.9688,151.3906 Q76.4844,152.1406 76.4844,153.1719 L76.4844,154.2656 Q76.4844,155.5 77.375,156.3281 Q78.2656,157.1406 79.8594,157.1406 Q80.7969,157.1406 81.4531,156.8906 Q81.8438,156.7344 82.2656,156.2969 Q82.5313,156.0313 82.6719,155.9531 Q82.8281,155.875 83.0313,155.875 Q83.3594,155.875 83.6094,156.1406 Q83.875,156.3906 83.875,156.7344 Q83.875,157.0781 83.5313,157.4844 Q83.0313,158.0625 82.2344,158.3906 Q81.1563,158.8438 79.8594,158.8438 Q78.3438,158.8438 77.1406,158.2188 Q76.1563,157.7188 75.4688,156.6563 Q74.7813,155.5781 74.7813,154.2969 L74.7813,153.1406 Q74.7813,151.8125 75.3906,150.6719 Q76.0156,149.5156 77.1094,148.9063 Q78.2031,148.2813 79.4375,148.2813 Q80.1719,148.2813 80.8125,148.4531 Q81.4688,148.6094 82.0156,148.9688 Z " fill="#000000"/><text fill="#000000" font-family="sans-serif" font-size="14" lengthAdjust="spacing" textLength="114" x="114.75" y="152.5332">RandomTrainTest</text><text fill="#000000" font-family="sans-serif" font-size="10" lengthAdjust="spacing" textLength="144" x="99.75" y="165.9902">miml.data.partitioning.random</text><line style="stroke:#181818;stroke-width:0.5;" x1="8" x2="303" y1="173.1875" y2="173.1875"/><ellipse cx="18" cy="187.4922" fill="#84BE84" rx="3" ry="3" style="stroke:#038048;stroke-width:1.0;"/><text fill="#000000" font-family="sans-serif" font-size="14" lengthAdjust="spacing" textLength="271" x="27" y="191.7207">RandomTrainTest(int, MultiLabelInstances)</text><ellipse cx="18" cy="205.1016" fill="#84BE84" rx="3" ry="3" style="stroke:#038048;stroke-width:1.0;"/><text fill="#000000" font-family="sans-serif" font-size="14" lengthAdjust="spacing" textLength="248" x="27" y="209.3301">RandomTrainTest(MultiLabelInstances)</text><ellipse cx="18" cy="222.7109" fill="#84BE84" rx="3" ry="3" style="stroke:#038048;stroke-width:1.0;"/><text fill="#000000" font-family="sans-serif" font-size="14" lengthAdjust="spacing" textLength="218" x="27" y="226.9395">split(double): MultiLabelInstances[]</text></g></a><!--MD5=[43ba56182bfb4eb2087e6ff5152dd96d]
class miml.data.partitioning.TrainTestBase--><a href="..\TrainTestBase.html" target="_top" title="..\TrainTestBase.html" xlink:actuate="onRequest" xlink:href="..\TrainTestBase.html" xlink:show="new" xlink:title="..\TrainTestBase.html" xlink:type="simple"><g id="elem_miml.data.partitioning.TrainTestBase"><rect codeLine="11" fill="#F1F1F1" height="65.7969" id="miml.data.partitioning.TrainTestBase" rx="2.5" ry="2.5" style="stroke:#181818;stroke-width:0.5;" width="246" x="32.5" y="7"/><ellipse cx="100.75" cy="27.0938" fill="#A9DCDF" rx="11" ry="11" style="stroke:#181818;stroke-width:1.0;"/><path d="M102.9375,28.8594 L98.7969,28.8594 L98.375,29.8906 L98.7969,29.8906 Q99.4063,29.8906 99.6719,30.125 Q99.9375,30.3594 99.9375,30.75 Q99.9375,31.125 99.6719,31.3594 Q99.4063,31.5938 98.7969,31.5938 L96.5,31.5938 Q95.8906,31.5938 95.6406,31.3594 Q95.375,31.125 95.375,30.7344 Q95.375,30.3594 95.6563,30.125 Q95.9219,29.875 96.5469,29.8906 L99.2188,23.2344 L98.1094,23.2344 Q97.5,23.2344 97.2344,23 Q96.9688,22.7656 96.9688,22.375 Q96.9688,22 97.2344,21.7656 Q97.5,21.5313 98.1094,21.5313 L101.7813,21.5313 L105.1719,29.8906 Q105.7656,29.8906 105.9531,30.0313 Q106.3438,30.2969 106.3438,30.75 Q106.3438,31.125 106.0781,31.3594 Q105.8281,31.5938 105.2188,31.5938 L102.9219,31.5938 Q102.3125,31.5938 102.0469,31.3594 Q101.7813,31.125 101.7813,30.7344 Q101.7813,30.3594 102.0469,30.125 Q102.3125,29.8906 102.9219,29.8906 L103.3438,29.8906 L102.9375,28.8594 Z M102.2188,27.1563 L100.8594,23.7813 L99.4844,27.1563 L102.2188,27.1563 Z " fill="#000000"/><text fill="#000000" font-family="sans-serif" font-size="14" font-style="italic" lengthAdjust="spacing" textLength="93" x="125.25" y="26.5332">TrainTestBase</text><text fill="#000000" font-family="sans-serif" font-size="10" font-style="italic" lengthAdjust="spacing" textLength="101" x="121.25" y="39.9902">miml.data.partitioning</text><line style="stroke:#181818;stroke-width:0.5;" x1="33.5" x2="277.5" y1="47.1875" y2="47.1875"/><ellipse cx="43.5" cy="61.4922" fill="#84BE84" rx="3" ry="3" style="stroke:#038048;stroke-width:1.0;"/><text fill="#000000" font-family="sans-serif" font-size="14" font-style="italic" lengthAdjust="spacing" textLength="220" x="52.5" y="65.7207">split(double): MultiLabelInstances[]</text></g></a><!--MD5=[cf5bcd1baf709e99ed7beecf45efd43f]
reverse link miml.data.partitioning.TrainTestBase to miml.data.partitioning.random.RandomTrainTest--><g id="link_miml.data.partitioning.TrainTestBase_miml.data.partitioning.random.RandomTrainTest"><path codeLine="15" d="M155.5,93.56 C155.5,106.38 155.5,120.06 155.5,132.75 " fill="none" id="miml.data.partitioning.TrainTestBase-backto-miml.data.partitioning.random.RandomTrainTest" style="stroke:#181818;stroke-width:1.0;"/><polygon fill="none" points="148.5,93.11,155.5,73.11,162.5,93.11,148.5,93.11" style="stroke:#181818;stroke-width:1.0;"/></g><rect fill="none" height="12.5781" style="stroke:none;stroke-width:1.0;" width="190" x="53.5" y="240.0156"/><text fill="#888888" font-family="sans-serif" font-size="10" lengthAdjust="spacing" textLength="190" x="53.5" y="250.3965">UMLDoclet 2.0.20, PlantUML 1.2022.12</text><!--MD5=[70fb0aac972806c4686a0123d8904571]
@startuml
    set namespaceSeparator none
    hide empty fields
    hide empty methods

    class "<size:14>RandomTrainTest\n<size:10>miml.data.partitioning.random" as miml.data.partitioning.random.RandomTrainTest [[RandomTrainTest.html]] {
        +RandomTrainTest(int, MultiLabelInstances)
        +RandomTrainTest(MultiLabelInstances)
        +split(double): MultiLabelInstances[]
    }

    abstract class "<size:14>TrainTestBase\n<size:10>miml.data.partitioning" as miml.data.partitioning.TrainTestBase [[..\TrainTestBase.html]] {
        {abstract} +split(double): MultiLabelInstances[]
    }

    miml.data.partitioning.TrainTestBase <|- - miml.data.partitioning.random.RandomTrainTest

    center footer UMLDoclet 2.0.20, PlantUML 1.2022.12
@enduml

PlantUML version 1.2022.12(Sun Oct 23 20:12:26 CEST 2022)
(APACHE source distribution)
Java Runtime: OpenJDK Runtime Environment
JVM: OpenJDK 64-Bit Server VM
Default Encoding: Cp1252
Language: es
Country: ES
--></g></svg>